<?xml version="1.0" encoding="UTF-8" standalone="no"?>
<!DOCTYPE score-partwise PUBLIC "-//Recordare//DTD MusicXML 1.1 Partwise//EN" "http://www.musicxml.org/dtds/partwise.dtd">

<score-partwise version="2.0">
	<movement-title></movement-title>
	<identification>
		<creator type="composer"></creator>
		<encoding>
			<software>SmartScore X2 Pro</software>
			<encoding-date>2016-05-03</encoding-date>
			<supports attribute="new-system" element="print" type="yes" value="yes"/>
			<supports attribute="new-page" element="print" type="yes" value="yes"/>
		</encoding>
	</identification>
	<defaults>
		<scaling>
			<millimeters>6.00</millimeters>
			<tenths>40</tenths>
		</scaling>
	</defaults>
	<part-list>
		<score-part id="P1">
			<part-name>Womens Voices</part-name>
			<part-abbreviation>Wmn</part-abbreviation>
			<score-instrument id="P1-S0V0">
				<instrument-name>Voice Oohs</instrument-name>
			</score-instrument>
			<midi-instrument id="P1-S0V0">
				<midi-channel>1</midi-channel>
				<midi-program>54</midi-program>
				<volume>78</volume>
				<pan>0</pan>
			</midi-instrument>
		</score-part>
		<score-part id="P2">
			<part-name>Mens Voices</part-name>
			<part-abbreviation>Men</part-abbreviation>
			<score-instrument id="P2-S0V0">
				<instrument-name>Choir Aahs</instrument-name>
			</score-instrument>
			<midi-instrument id="P2-S0V0">
				<midi-channel>2</midi-channel>
				<midi-program>53</midi-program>
				<volume>78</volume>
				<pan>0</pan>
			</midi-instrument>
		</score-part>
		<score-part id="P3">
			<part-name>Piano</part-name>
			<part-abbreviation>Pno</part-abbreviation>
			<score-instrument id="P3-S0V0">
				<instrument-name>Grand Piano</instrument-name>
			</score-instrument>
			<midi-instrument id="P3-S0V0">
				<midi-channel>3</midi-channel>
				<midi-program>1</midi-program>
				<volume>78</volume>
				<pan>0</pan>
			</midi-instrument>
		</score-part>
		<score-part id="P4">
			<part-name>Piano</part-name>
			<part-abbreviation>Pno</part-abbreviation>
			<score-instrument id="P4-S0V0">
				<instrument-name>Grand Piano</instrument-name>
			</score-instrument>
			<midi-instrument id="P4-S0V0">
				<midi-channel>7</midi-channel>
				<midi-program>1</midi-program>
				<volume>78</volume>
				<pan>0</pan>
			</midi-instrument>
		</score-part>
	</part-list><!--
===========================================================
-->

	<part id="P1">
		<measure number="1" width="286">
			<print>
				<page-layout>
					<page-height>2104.96</page-height>
					<page-width>1727.54</page-width>
					<page-margins>
						<left-margin>197.83</left-margin>
						<right-margin>208.09</right-margin>
						<top-margin>127.00</top-margin>
						<bottom-margin>63.50</bottom-margin>
					</page-margins>
				</page-layout>
				<system-layout>
					<system-margins>
						<left-margin>163</left-margin>
						<right-margin>1</right-margin>
					</system-margins>
					<top-system-distance>274</top-system-distance>
				</system-layout>
			</print>
			<attributes>
				<divisions>40</divisions>
				<key>
					<fifths>0</fifths>
				</key>
				<time>
					<beats>4</beats>
					<beat-type>4</beat-type>
				</time>
				<clef>
					<sign>G</sign>
					<line>2</line>
				</clef>
				<staff-details number="1" print-object="yes">
					<staff-size>74</staff-size>
				</staff-details>
			</attributes>
			<attributes></attributes>
			<direction placement="above">
				<direction-type>
					<words relative-x="-82.1368" default-y="195.2836" font-family="Times New Roman" font-style="normal" font-size="20" font-weight="normal" color="#000000">87. OPEM NOBIS O THOMA - SALVA THOMA - PASTOR CESCS</words>
				</direction-type>
				<staff>1</staff>
			</direction>
			<note>
				<pitch>
					<step>D</step>
					<octave>5</octave>
				</pitch>
				<duration>60</duration>
				<voice>1</voice>
				<type>quarter</type>
				<dot/>
				<stem>down</stem>
				<lyric number="1">
					<syllabic>begin</syllabic>
					<text>O</text>
				</lyric>
			</note>
			<note>
				<pitch>
					<step>C</step>
					<octave>5</octave>
				</pitch>
				<duration>10</duration>
				<voice>1</voice>
				<type>16th</type>
				<stem>down</stem>
				<beam number="1">begin</beam>
				<beam number="2">begin</beam>
				<lyric number="1">
					<syllabic>end</syllabic>
					<text>pem</text>
				</lyric>
			</note>
			<note>
				<pitch>
					<step>B</step>
					<octave>4</octave>
				</pitch>
				<duration>10</duration>
				<voice>1</voice>
				<type>16th</type>
				<stem>down</stem>
				<beam number="1">end</beam>
				<beam number="2">end</beam>
				<notations></notations>
			</note>
			<note>
				<pitch>
					<step>C</step>
					<octave>5</octave>
				</pitch>
				<duration>40</duration>
				<voice>1</voice>
				<type>quarter</type>
				<stem>down</stem>
				<lyric number="1">
					<syllabic>begin</syllabic>
					<text>no</text>
				</lyric>
			</note>
			<forward>
				<duration>40</duration>
			</forward>
		</measure><!--
===========================================================
-->

		<measure number="2" width="227">
			<print new-system="no"></print>
			<attributes></attributes>
			<note>
				<pitch>
					<step>D</step>
					<octave>5</octave>
				</pitch>
				<duration>60</duration>
				<voice>1</voice>
				<type>quarter</type>
				<dot/>
				<stem>down</stem>
				<lyric number="1">
					<syllabic>end</syllabic>
					<text>bis</text>
				</lyric>
			</note>
			<note>
				<pitch>
					<step>E</step>
					<octave>5</octave>
				</pitch>
				<duration>10</duration>
				<voice>1</voice>
				<type>16th</type>
				<stem>down</stem>
				<beam number="1">begin</beam>
				<beam number="2">begin</beam>
				<lyric number="1">
					<syllabic>single</syllabic>
					<text>o</text>
				</lyric>
			</note>
			<note>
				<pitch>
					<step>F</step>
					<octave>5</octave>
				</pitch>
				<duration>10</duration>
				<voice>1</voice>
				<type>16th</type>
				<stem>down</stem>
				<beam number="1">end</beam>
				<beam number="2">end</beam>
				<notations></notations>
			</note>
			<note>
				<pitch>
					<step>E</step>
					<octave>5</octave>
				</pitch>
				<duration>40</duration>
				<voice>1</voice>
				<type>quarter</type>
				<stem>down</stem>
				<lyric number="1">
					<syllabic>begin</syllabic>
					<text>Tho</text>
				</lyric>
			</note>
			<forward>
				<duration>40</duration>
			</forward>
		</measure><!--
===========================================================
-->

		<measure number="3" width="205">
			<print new-system="no"></print>
			<attributes></attributes>
			<note>
				<pitch>
					<step>D</step>
					<octave>5</octave>
				</pitch>
				<duration>60</duration>
				<voice>1</voice>
				<type>quarter</type>
				<dot/>
				<stem>down</stem>
				<lyric number="1">
					<syllabic>end</syllabic>
					<text>ma</text>
				</lyric>
			</note>
			<note>
				<pitch>
					<step>G</step>
					<octave>5</octave>
				</pitch>
				<duration>10</duration>
				<voice>1</voice>
				<type>16th</type>
				<stem>down</stem>
				<beam number="1">begin</beam>
				<beam number="2">begin</beam>
				<lyric number="1">
					<syllabic>begin</syllabic>
					<text>por</text>
				</lyric>
			</note>
			<note>
				<pitch>
					<step>F</step>
					<octave>5</octave>
				</pitch>
				<duration>10</duration>
				<voice>1</voice>
				<type>16th</type>
				<stem>down</stem>
				<beam number="1">end</beam>
				<beam number="2">end</beam>
				<notations></notations>
			</note>
			<note>
				<pitch>
					<step>E</step>
					<octave>5</octave>
				</pitch>
				<duration>40</duration>
				<voice>1</voice>
				<type>quarter</type>
				<stem>down</stem>
				<lyric number="1">
					<syllabic>middle</syllabic>
					<text>ri</text>
				</lyric>
			</note>
			<forward>
				<duration>40</duration>
			</forward>
		</measure><!--
===========================================================
-->

		<measure number="4" width="206">
			<print new-system="no"></print>
			<attributes></attributes>
			<note>
				<pitch>
					<step>F</step>
					<octave>5</octave>
				</pitch>
				<duration>60</duration>
				<voice>1</voice>
				<type>quarter</type>
				<dot/>
				<stem>down</stem>
				<lyric number="1">
					<syllabic>end</syllabic>
					<text>ge</text>
				</lyric>
			</note>
			<note>
				<rest/>
				<duration>60</duration>
				<voice>1</voice>
				<type>quarter</type>
				<dot/>
			</note>
			<forward>
				<duration>40</duration>
			</forward>
		</measure><!--
===========================================================
-->

		<measure number="5" width="230">
			<print new-system="no"></print>
			<attributes></attributes>
			<note>
				<pitch>
					<step>A</step>
					<octave>5</octave>
				</pitch>
				<duration>60</duration>
				<voice>1</voice>
				<type>quarter</type>
				<dot/>
				<stem>down</stem>
				<lyric number="1">
					<syllabic>begin</syllabic>
					<text>re</text>
				</lyric>
			</note>
			<note>
				<pitch>
					<step>G</step>
					<octave>5</octave>
				</pitch>
				<duration>20</duration>
				<voice>1</voice>
				<type>eighth</type>
				<stem>down</stem>
				<lyric number="1">
					<syllabic>end</syllabic>
					<text>-ge</text>
				</lyric>
			</note>
			<note>
				<pitch>
					<step>F</step>
					<octave>5</octave>
				</pitch>
				<duration>40</duration>
				<voice>1</voice>
				<type>quarter</type>
				<stem>down</stem>
			</note>
			<forward>
				<duration>40</duration>
			</forward>
		</measure><!--
===========================================================
-->

		<measure number="6" width="259">
			<print new-system="yes">
				<system-layout>
					<system-margins>
						<left-margin>0</left-margin>
						<right-margin>0</right-margin>
					</system-margins>
					<system-distance>158</system-distance>
				</system-layout>
			</print>
			<attributes></attributes>
			<note>
				<pitch>
					<step>G</step>
					<octave>5</octave>
				</pitch>
				<duration>60</duration>
				<voice>1</voice>
				<type>quarter</type>
				<dot/>
				<stem>down</stem>
				<lyric number="1">
					<syllabic>begin</syllabic>
					<text>stan</text>
				</lyric>
			</note>
			<note>
				<pitch>
					<step>F</step>
					<octave>5</octave>
				</pitch>
				<duration>10</duration>
				<voice>1</voice>
				<type>16th</type>
				<stem>down</stem>
				<beam number="1">begin</beam>
				<beam number="2">begin</beam>
				<lyric number="1">
					<syllabic>end</syllabic>
					<text>tes</text>
				</lyric>
			</note>
			<note>
				<pitch>
					<step>E</step>
					<octave>5</octave>
				</pitch>
				<duration>10</duration>
				<voice>1</voice>
				<type>16th</type>
				<stem>down</stem>
				<beam number="1">end</beam>
				<beam number="2">end</beam>
			</note>
			<note>
				<pitch>
					<step>D</step>
					<octave>5</octave>
				</pitch>
				<duration>40</duration>
				<voice>1</voice>
				<type>quarter</type>
				<stem>down</stem>
			</note>
			<direction placement="above">
				<direction-type>
					<words relative-x="47.9106" default-y="130.0926" font-family="Times New Roman" font-style="normal" font-size="12" font-weight="normal" color="#000000">Tenor. Pastor cesus.</words>
				</direction-type>
				<staff>1</staff>
			</direction>
			<forward>
				<duration>40</duration>
			</forward>
		</measure><!--
===========================================================
-->

		<measure number="7" width="186">
			<print new-system="no"></print>
			<attributes></attributes>
			<note>
				<pitch>
					<step>F</step>
					<octave>5</octave>
				</pitch>
				<duration>60</duration>
				<voice>1</voice>
				<type>quarter</type>
				<dot/>
				<stem>down</stem>
				<lyric number="1">
					<syllabic>begin</syllabic>
					<text>la</text>
				</lyric>
			</note>
			<note>
				<pitch>
					<step>E</step>
					<octave>5</octave>
				</pitch>
				<duration>10</duration>
				<voice>1</voice>
				<type>16th</type>
				<stem>down</stem>
				<beam number="1">begin</beam>
				<beam number="2">begin</beam>
				<lyric number="1">
					<syllabic>middle</syllabic>
					<text>cen</text>
				</lyric>
			</note>
			<note>
				<pitch>
					<step>D</step>
					<octave>5</octave>
				</pitch>
				<duration>10</duration>
				<voice>1</voice>
				<type>16th</type>
				<stem>down</stem>
				<beam number="1">end</beam>
				<beam number="2">end</beam>
			</note>
			<note>
				<pitch>
					<step>C</step>
					<octave>5</octave>
				</pitch>
				<duration>40</duration>
				<voice>1</voice>
				<type>quarter</type>
				<stem>down</stem>
			</note>
			<forward>
				<duration>40</duration>
			</forward>
		</measure><!--
===========================================================
-->

		<measure number="8" width="187">
			<print new-system="no"></print>
			<attributes></attributes>
			<note>
				<pitch>
					<step>D</step>
					<octave>5</octave>
				</pitch>
				<duration>60</duration>
				<voice>1</voice>
				<type>quarter</type>
				<dot/>
				<stem>down</stem>
				<lyric number="1">
					<syllabic>end</syllabic>
					<text>-tes</text>
				</lyric>
			</note>
			<note>
				<pitch>
					<step>C</step>
					<octave>5</octave>
				</pitch>
				<duration>10</duration>
				<voice>1</voice>
				<type>16th</type>
				<stem>down</stem>
				<beam number="1">begin</beam>
				<beam number="2">begin</beam>
				<notations>
					<slur type="start" number="1"></slur>
				</notations>
				<lyric number="1">
					<syllabic>begin</syllabic>
					<text>e</text>
				</lyric>
			</note>
			<note>
				<pitch>
					<step>D</step>
					<octave>5</octave>
				</pitch>
				<duration>10</duration>
				<voice>1</voice>
				<type>16th</type>
				<stem>down</stem>
				<beam number="1">end</beam>
				<beam number="2">end</beam>
				<notations>
					<slur type="stop" number="1"></slur>
				</notations>
			</note>
			<note>
				<pitch>
					<step>E</step>
					<octave>5</octave>
				</pitch>
				<duration>40</duration>
				<voice>1</voice>
				<type>quarter</type>
				<stem>down</stem>
				<lyric number="1">
					<syllabic>middle</syllabic>
					<text>rl</text>
				</lyric>
			</note>
			<forward>
				<duration>40</duration>
			</forward>
		</measure><!--
===========================================================
-->

		<measure number="9" width="175">
			<print new-system="no"></print>
			<attributes></attributes>
			<note>
				<pitch>
					<step>F</step>
					<octave>5</octave>
				</pitch>
				<duration>60</duration>
				<voice>1</voice>
				<type>quarter</type>
				<dot/>
				<stem>down</stem>
				<lyric number="1">
					<syllabic>end</syllabic>
					<text>ge</text>
				</lyric>
			</note>
			<note>
				<rest/>
				<duration>60</duration>
				<voice>1</voice>
				<type>quarter</type>
				<dot/>
			</note>
			<forward>
				<duration>40</duration>
			</forward>
		</measure><!--
===========================================================
-->

		<measure number="10" width="201">
			<print new-system="no"></print>
			<attributes></attributes>
			<note>
				<pitch>
					<step>G</step>
					<octave>5</octave>
				</pitch>
				<duration>60</duration>
				<voice>1</voice>
				<type>quarter</type>
				<dot/>
				<stem>down</stem>
				<lyric number="1">
					<syllabic>begin</syllabic>
					<text>mo</text>
				</lyric>
			</note>
			<note>
				<pitch>
					<step>G</step>
					<octave>5</octave>
				</pitch>
				<duration>10</duration>
				<voice>1</voice>
				<type>16th</type>
				<stem>down</stem>
				<beam number="1">begin</beam>
				<beam number="2">begin</beam>
				<lyric number="1">
					<syllabic>end</syllabic>
					<text>res</text>
				</lyric>
			</note>
			<note>
				<pitch>
					<step>F</step>
					<octave>5</octave>
				</pitch>
				<duration>10</duration>
				<voice>1</voice>
				<type>16th</type>
				<stem>down</stem>
				<beam number="1">end</beam>
				<beam number="2">end</beam>
			</note>
			<note>
				<pitch>
					<step>E</step>
					<octave>5</octave>
				</pitch>
				<duration>40</duration>
				<voice>1</voice>
				<type>quarter</type>
				<stem>down</stem>
			</note>
			<forward>
				<duration>40</duration>
			</forward>
		</measure><!--
===========================================================
-->

		<measure number="11" width="188">
			<print new-system="no"></print>
			<attributes></attributes>
			<barline location="left">
				<ending number="1" type="start"></ending>
			</barline>
			<note>
				<pitch>
					<step>D</step>
					<octave>5</octave>
				</pitch>
				<duration>60</duration>
				<voice>1</voice>
				<type>quarter</type>
				<dot/>
				<stem>down</stem>
				<lyric number="1">
					<syllabic>begin</syllabic>
					<text>a</text>
				</lyric>
			</note>
			<note>
				<pitch>
					<step>F</step>
					<octave>5</octave>
				</pitch>
				<duration>10</duration>
				<voice>1</voice>
				<type>16th</type>
				<stem>down</stem>
				<beam number="1">begin</beam>
				<beam number="2">begin</beam>
				<lyric number="1">
					<syllabic>end</syllabic>
					<text>ctus</text>
				</lyric>
			</note>
			<note>
				<pitch>
					<step>E</step>
					<octave>5</octave>
				</pitch>
				<duration>10</duration>
				<voice>1</voice>
				<type>16th</type>
				<stem>down</stem>
				<beam number="1">end</beam>
				<beam number="2">end</beam>
			</note>
			<note>
				<pitch>
					<step>D</step>
					<octave>5</octave>
				</pitch>
				<duration>40</duration>
				<voice>1</voice>
				<type>quarter</type>
				<stem>down</stem>
			</note>
			<forward>
				<duration>40</duration>
			</forward>
		</measure><!--
===========================================================
-->

		<measure number="12" width="122">
			<print new-system="no"></print>
			<attributes></attributes>
			<note>
				<pitch>
					<step>C</step>
					<octave>5</octave>
				</pitch>
				<duration>10</duration>
				<voice>1</voice>
				<type>16th</type>
				<stem>down</stem>
				<beam number="1">begin</beam>
				<beam number="2">begin</beam>
				<lyric number="1">
					<syllabic>single</syllabic>
					<text>et</text>
				</lyric>
			</note>
			<note>
				<pitch>
					<step>B</step>
					<octave>4</octave>
				</pitch>
				<duration>10</duration>
				<voice>1</voice>
				<type>16th</type>
				<stem>down</stem>
				<beam number="1">end</beam>
				<beam number="2">end</beam>
			</note>
			<note>
				<pitch>
					<step>C</step>
					<octave>5</octave>
				</pitch>
				<duration>40</duration>
				<voice>1</voice>
				<type>quarter</type>
				<stem>down</stem>
				<lyric number="1">
					<syllabic>begin</syllabic>
					<text>vl</text>
				</lyric>
			</note>
			<forward>
				<duration>100</duration>
			</forward>
		</measure><!--
===========================================================
-->

		<measure number="13" width="255">
			<print new-system="yes">
				<system-layout>
					<system-margins>
						<left-margin>0</left-margin>
						<right-margin>0</right-margin>
					</system-margins>
					<system-distance>151</system-distance>
				</system-layout>
			</print>
			<attributes></attributes>
			<note>
				<pitch>
					<step>D</step>
					<octave>5</octave>
				</pitch>
				<duration>60</duration>
				<voice>1</voice>
				<type>quarter</type>
				<dot/>
				<stem>down</stem>
				<lyric number="1">
					<syllabic>end</syllabic>
					<text>-tam</text>
				</lyric>
			</note>
			<note>
				<pitch>
					<step>E</step>
					<octave>5</octave>
				</pitch>
				<duration>10</duration>
				<voice>1</voice>
				<type>16th</type>
				<stem>down</stem>
				<beam number="1">begin</beam>
				<beam number="2">begin</beam>
				<notations>
					<slur type="start" number="1"></slur>
				</notations>
				<lyric number="1">
					<syllabic>begin</syllabic>
					<text>cor</text>
				</lyric>
			</note>
			<note>
				<pitch>
					<step>F</step>
					<octave>5</octave>
				</pitch>
				<duration>10</duration>
				<voice>1</voice>
				<type>16th</type>
				<stem>down</stem>
				<beam number="1">end</beam>
				<beam number="2">end</beam>
				<notations>
					<slur type="stop" number="1"></slur>
				</notations>
			</note>
			<note>
				<pitch>
					<step>G</step>
					<octave>5</octave>
				</pitch>
				<duration>40</duration>
				<voice>1</voice>
				<type>quarter</type>
				<stem>down</stem>
				<lyric number="1">
					<syllabic>middle</syllabic>
					<text>ri</text>
				</lyric>
			</note>
			<forward>
				<duration>40</duration>
			</forward>
		</measure><!--
===========================================================
-->

		<measure number="14" width="202">
			<print new-system="no"></print>
			<attributes></attributes>
			<note>
				<pitch>
					<step>A</step>
					<octave>5</octave>
				</pitch>
				<duration>60</duration>
				<voice>1</voice>
				<type>quarter</type>
				<dot/>
				<stem>down</stem>
				<lyric number="1">
					<syllabic>end</syllabic>
					<text>ge</text>
				</lyric>
			</note>
			<note>
				<rest/>
				<duration>60</duration>
				<voice>1</voice>
				<type>quarter</type>
				<dot/>
			</note>
			<forward>
				<duration>40</duration>
			</forward>
		</measure><!--
===========================================================
-->

		<measure number="15" width="202">
			<print new-system="no"></print>
			<attributes></attributes>
			<note>
				<pitch>
					<step>D</step>
					<octave>5</octave>
				</pitch>
				<duration>20</duration>
				<voice>1</voice>
				<type>eighth</type>
				<stem>down</stem>
				<notations>
					<slur type="start" number="1"></slur>
				</notations>
				<lyric number="1">
					<syllabic>single</syllabic>
					<text>et</text>
				</lyric>
			</note>
			<note>
				<pitch>
					<step>E</step>
					<octave>5</octave>
				</pitch>
				<duration>40</duration>
				<voice>1</voice>
				<type>quarter</type>
				<stem>down</stem>
				<notations>
					<slur type="stop" number="1"></slur>
				</notations>
			</note>
			<note>
				<pitch>
					<step>G</step>
					<octave>5</octave>
				</pitch>
				<duration>20</duration>
				<voice>1</voice>
				<type>eighth</type>
				<stem>down</stem>
				<lyric number="1">
					<syllabic>single</syllabic>
					<text>in</text>
				</lyric>
			</note>
			<note>
				<pitch>
					<step>F</step>
					<octave>5</octave>
				</pitch>
				<duration>20</duration>
				<voice>1</voice>
				<type>eighth</type>
				<stem>down</stem>
				<beam number="1">begin</beam>
				<lyric number="1">
					<syllabic>begin</syllabic>
					<text>pa</text>
				</lyric>
			</note>
			<note>
				<pitch>
					<step>E</step>
					<octave>5</octave>
				</pitch>
				<duration>20</duration>
				<voice>1</voice>
				<type>eighth</type>
				<stem>down</stem>
				<beam number="1">end</beam>
			</note>
			<forward>
				<duration>40</duration>
			</forward>
		</measure><!--
===========================================================
-->

		<measure number="16" width="156">
			<print new-system="no"></print>
			<attributes></attributes>
			<note>
				<pitch>
					<step>D</step>
					<octave>5</octave>
				</pitch>
				<duration>60</duration>
				<voice>1</voice>
				<type>quarter</type>
				<dot/>
				<stem>down</stem>
				<lyric number="1">
					<syllabic>end</syllabic>
					<text>cis</text>
				</lyric>
			</note>
			<note>
				<pitch>
					<step>E</step>
					<octave>5</octave>
				</pitch>
				<duration>60</duration>
				<voice>1</voice>
				<type>quarter</type>
				<dot/>
				<stem>down</stem>
				<lyric number="1">
					<syllabic>single</syllabic>
					<text>nos</text>
				</lyric>
			</note>
			<forward>
				<duration>40</duration>
			</forward>
		</measure><!--
===========================================================
-->

		<measure number="17" width="196">
			<print new-system="no"></print>
			<attributes></attributes>
			<note>
				<pitch>
					<step>F</step>
					<octave>5</octave>
				</pitch>
				<duration>60</duration>
				<voice>1</voice>
				<type>quarter</type>
				<dot/>
				<stem>down</stem>
				<lyric number="1">
					<syllabic>begin</syllabic>
					<text>vi</text>
				</lyric>
			</note>
			<note>
				<pitch>
					<step>E</step>
					<octave>5</octave>
				</pitch>
				<duration>60</duration>
				<voice>1</voice>
				<type>quarter</type>
				<dot/>
				<stem>down</stem>
				<lyric number="1">
					<syllabic>end</syllabic>
					<text>am</text>
				</lyric>
			</note>
			<forward>
				<duration>40</duration>
			</forward>
		</measure><!--
===========================================================
-->

		<measure number="18" width="173">
			<print new-system="no"></print>
			<attributes></attributes>
			<note>
				<pitch>
					<step>D</step>
					<octave>5</octave>
				</pitch>
				<duration>60</duration>
				<voice>1</voice>
				<type>quarter</type>
				<dot/>
				<stem>down</stem>
				<lyric number="1">
					<syllabic>begin</syllabic>
					<text>di</text>
				</lyric>
			</note>
			<note>
				<pitch>
					<step>C</step>
					<octave>5</octave>
				</pitch>
				<duration>60</duration>
				<voice>1</voice>
				<type>quarter</type>
				<dot/>
				<stem>down</stem>
				<lyric number="1">
					<syllabic>middle</syllabic>
					<text>ri</text>
				</lyric>
			</note>
			<forward>
				<duration>40</duration>
			</forward>
		</measure><!--
===========================================================
-->

		<measure number="19" width="134">
			<print new-system="no"></print>
			<attributes></attributes>
			<note>
				<pitch>
					<step>D</step>
					<octave>5</octave>
				</pitch>
				<duration>120</duration>
				<voice>1</voice>
				<type>half</type>
				<dot/>
				<stem>down</stem>
				<lyric number="1">
					<syllabic>end</syllabic>
					<text>-ge.</text>
				</lyric>
			</note>
			<forward>
				<duration>40</duration>
			</forward>
			<barline location="right">
				<bar-style>light-heavy</bar-style>
			</barline>
		</measure>
	</part><!--
===========================================================
-->

	<part id="P2">
		<measure number="1" width="286">
			<print>
				<page-layout>
					<page-height>2104.96</page-height>
					<page-width>1727.54</page-width>
					<page-margins>
						<left-margin>197.83</left-margin>
						<right-margin>208.09</right-margin>
						<top-margin>127.00</top-margin>
						<bottom-margin>63.50</bottom-margin>
					</page-margins>
				</page-layout>
				<system-layout>
					<system-margins>
						<left-margin>163</left-margin>
						<right-margin>1</right-margin>
					</system-margins>
					<top-system-distance>274</top-system-distance>
				</system-layout>
				<staff-layout number="1">
					<staff-distance>86</staff-distance>
				</staff-layout>
			</print>
			<attributes>
				<divisions>40</divisions>
				<key>
					<fifths>-1</fifths>
				</key>
				<time>
					<beats>4</beats>
					<beat-type>4</beat-type>
				</time>
				<clef>
					<sign>G</sign>
					<line>2</line>
				</clef>
				<staff-details number="1" print-object="yes">
					<staff-size>74</staff-size>
				</staff-details>
			</attributes>
			<attributes></attributes>
			<note>
				<pitch>
					<step>A</step>
					<octave>4</octave>
				</pitch>
				<duration>60</duration>
				<voice>1</voice>
				<type>quarter</type>
				<dot/>
				<stem>up</stem>
				<lyric number="1">
					<syllabic>begin</syllabic>
					<text>Sal</text>
				</lyric>
			</note>
			<note>
				<pitch>
					<step>G</step>
					<octave>4</octave>
				</pitch>
				<duration>10</duration>
				<voice>1</voice>
				<type>16th</type>
				<stem>up</stem>
				<beam number="1">begin</beam>
				<beam number="2">begin</beam>
				<notations></notations>
				<lyric number="1">
					<syllabic>end</syllabic>
					<text>ve</text>
				</lyric>
			</note>
			<note>
				<pitch>
					<step>F</step>
					<octave>4</octave>
				</pitch>
				<duration>10</duration>
				<voice>1</voice>
				<type>16th</type>
				<stem>up</stem>
				<beam number="1">end</beam>
				<beam number="2">end</beam>
			</note>
			<note>
				<pitch>
					<step>G</step>
					<octave>4</octave>
				</pitch>
				<duration>40</duration>
				<voice>1</voice>
				<type>quarter</type>
				<stem>up</stem>
				<lyric number="1">
					<syllabic>begin</syllabic>
					<text>Tho</text>
				</lyric>
			</note>
			<forward>
				<duration>40</duration>
			</forward>
		</measure><!--
===========================================================
-->

		<measure number="2" width="227">
			<print new-system="no"></print>
			<attributes></attributes>
			<note>
				<pitch>
					<step>A</step>
					<octave>4</octave>
				</pitch>
				<duration>60</duration>
				<voice>1</voice>
				<type>quarter</type>
				<dot/>
				<stem>up</stem>
				<lyric number="1">
					<syllabic>end</syllabic>
					<text>ma</text>
				</lyric>
			</note>
			<note>
				<pitch>
					<step>G</step>
					<octave>4</octave>
				</pitch>
				<duration>10</duration>
				<voice>1</voice>
				<type>16th</type>
				<stem>up</stem>
				<beam number="1">begin</beam>
				<beam number="2">begin</beam>
				<lyric number="1">
					<syllabic>begin</syllabic>
					<text>vir</text>
				</lyric>
			</note>
			<note>
				<pitch>
					<step>A</step>
					<octave>4</octave>
				</pitch>
				<duration>10</duration>
				<voice>1</voice>
				<type>16th</type>
				<stem>up</stem>
				<beam number="1">end</beam>
				<beam number="2">end</beam>
				<notations></notations>
			</note>
			<note>
				<pitch>
					<step>B</step>
					<alter>-1</alter>
					<octave>4</octave>
				</pitch>
				<duration>40</duration>
				<voice>1</voice>
				<type>quarter</type>
				<stem>down</stem>
				<lyric number="1">
					<syllabic>end</syllabic>
					<text>ga</text>
				</lyric>
			</note>
			<forward>
				<duration>40</duration>
			</forward>
		</measure><!--
===========================================================
-->

		<measure number="3" width="205">
			<print new-system="no"></print>
			<attributes></attributes>
			<note>
				<pitch>
					<step>A</step>
					<octave>4</octave>
				</pitch>
				<duration>60</duration>
				<voice>1</voice>
				<type>quarter</type>
				<dot/>
				<stem>up</stem>
				<lyric number="1">
					<syllabic>begin</syllabic>
					<text>iu</text>
				</lyric>
			</note>
			<note>
				<pitch>
					<step>G</step>
					<octave>4</octave>
				</pitch>
				<duration>10</duration>
				<voice>1</voice>
				<type>16th</type>
				<stem>up</stem>
				<beam number="1">begin</beam>
				<beam number="2">begin</beam>
				<lyric number="1">
					<syllabic>middle</syllabic>
					<text>sti</text>
				</lyric>
			</note>
			<note>
				<pitch>
					<step>A</step>
					<octave>4</octave>
				</pitch>
				<duration>10</duration>
				<voice>1</voice>
				<type>16th</type>
				<stem>up</stem>
				<beam number="1">end</beam>
				<beam number="2">end</beam>
				<notations></notations>
			</note>
			<note>
				<pitch>
					<step>G</step>
					<octave>4</octave>
				</pitch>
				<duration>40</duration>
				<voice>1</voice>
				<type>quarter</type>
				<stem>up</stem>
				<lyric number="1">
					<syllabic>middle</syllabic>
					<text>ci</text>
				</lyric>
			</note>
			<forward>
				<duration>40</duration>
			</forward>
		</measure><!--
===========================================================
-->

		<measure number="4" width="206">
			<print new-system="no"></print>
			<attributes></attributes>
			<note>
				<pitch>
					<step>F</step>
					<octave>4</octave>
				</pitch>
				<duration>60</duration>
				<voice>1</voice>
				<type>quarter</type>
				<dot/>
				<stem>up</stem>
				<lyric number="1">
					<syllabic>end</syllabic>
					<text>e</text>
				</lyric>
			</note>
			<note>
				<pitch>
					<step>G</step>
					<octave>4</octave>
				</pitch>
				<duration>10</duration>
				<voice>1</voice>
				<type>16th</type>
				<stem>up</stem>
				<beam number="1">begin</beam>
				<beam number="2">begin</beam>
				<notations>
					<slur type="start" number="1"></slur>
				</notations>
				<lyric number="1">
					<syllabic>begin</syllabic>
					<text>mun</text>
				</lyric>
			</note>
			<note>
				<pitch>
					<step>F</step>
					<octave>4</octave>
				</pitch>
				<duration>10</duration>
				<voice>1</voice>
				<type>16th</type>
				<stem>up</stem>
				<beam number="1">end</beam>
				<beam number="2">end</beam>
				<notations>
					<slur type="stop" number="1"></slur>
				</notations>
			</note>
			<note>
				<pitch>
					<step>E</step>
					<octave>4</octave>
				</pitch>
				<duration>40</duration>
				<voice>1</voice>
				<type>quarter</type>
				<stem>up</stem>
				<lyric number="1">
					<syllabic>end</syllabic>
					<text>di</text>
				</lyric>
			</note>
			<forward>
				<duration>40</duration>
			</forward>
		</measure><!--
===========================================================
-->

		<measure number="5" width="230">
			<print new-system="no"></print>
			<attributes></attributes>
			<note>
				<pitch>
					<step>D</step>
					<octave>4</octave>
				</pitch>
				<duration>20</duration>
				<voice>1</voice>
				<type>eighth</type>
				<stem>up</stem>
				<lyric number="1">
					<syllabic>begin</syllabic>
					<text>iu</text>
				</lyric>
			</note>
			<note>
				<pitch>
					<step>D</step>
					<octave>4</octave>
				</pitch>
				<duration>40</duration>
				<voice>1</voice>
				<type>quarter</type>
				<stem>up</stem>
				<lyric number="1">
					<syllabic>end</syllabic>
					<text>bar</text>
				</lyric>
			</note>
			<note>
				<pitch>
					<step>E</step>
					<octave>4</octave>
				</pitch>
				<duration>20</duration>
				<voice>1</voice>
				<type>eighth</type>
				<stem>up</stem>
				<lyric number="1">
					<syllabic>begin</syllabic>
					<text>ro</text>
				</lyric>
			</note>
			<note>
				<pitch>
					<step>F</step>
					<octave>4</octave>
				</pitch>
				<duration>40</duration>
				<voice>1</voice>
				<type>quarter</type>
				<stem>up</stem>
				<lyric number="1">
					<syllabic>end</syllabic>
					<text>bur</text>
				</lyric>
			</note>
			<forward>
				<duration>40</duration>
			</forward>
		</measure><!--
===========================================================
-->

		<measure number="6" width="259">
			<print new-system="yes">
				<system-layout>
					<system-margins>
						<left-margin>0</left-margin>
						<right-margin>0</right-margin>
					</system-margins>
					<system-distance>158</system-distance>
				</system-layout>
				<staff-layout number="1">
					<staff-distance>90</staff-distance>
				</staff-layout>
			</print>
			<attributes>
				<staff-details number="1" print-object="yes">
					<staff-size>68</staff-size>
				</staff-details>
			</attributes>
			<note>
				<pitch>
					<step>G</step>
					<octave>4</octave>
				</pitch>
				<duration>60</duration>
				<voice>1</voice>
				<type>quarter</type>
				<dot/>
				<stem>up</stem>
				<lyric number="1">
					<syllabic>begin</syllabic>
					<text>ec</text>
				</lyric>
			</note>
			<note>
				<pitch>
					<step>G</step>
					<octave>4</octave>
				</pitch>
				<duration>10</duration>
				<voice>1</voice>
				<type>16th</type>
				<stem>up</stem>
				<beam number="1">begin</beam>
				<beam number="2">begin</beam>
				<lyric number="1">
					<syllabic>middle</syllabic>
					<text>clc</text>
				</lyric>
			</note>
			<note>
				<pitch>
					<step>A</step>
					<octave>4</octave>
				</pitch>
				<duration>10</duration>
				<voice>1</voice>
				<type>16th</type>
				<stem>up</stem>
				<beam number="1">end</beam>
				<beam number="2">end</beam>
				<notations></notations>
			</note>
			<note>
				<pitch>
					<step>G</step>
					<octave>4</octave>
				</pitch>
				<duration>40</duration>
				<voice>1</voice>
				<type>quarter</type>
				<stem>up</stem>
				<lyric number="1">
					<syllabic>middle</syllabic>
					<text>si</text>
				</lyric>
			</note>
			<forward>
				<duration>40</duration>
			</forward>
		</measure><!--
===========================================================
-->

		<measure number="7" width="186">
			<print new-system="no"></print>
			<attributes></attributes>
			<note>
				<pitch>
					<step>F</step>
					<octave>4</octave>
				</pitch>
				<duration>60</duration>
				<voice>1</voice>
				<type>quarter</type>
				<dot/>
				<stem>up</stem>
				<lyric number="1">
					<syllabic>end</syllabic>
					<text>e</text>
				</lyric>
			</note>
			<note>
				<rest/>
				<duration>60</duration>
				<voice>1</voice>
				<type>quarter</type>
				<dot/>
			</note>
			<forward>
				<duration>40</duration>
			</forward>
		</measure><!--
===========================================================
-->

		<measure number="8" width="187">
			<print new-system="no"></print>
			<attributes></attributes>
			<note>
				<pitch>
					<step>A</step>
					<octave>4</octave>
				</pitch>
				<duration>60</duration>
				<voice>1</voice>
				<type>quarter</type>
				<dot/>
				<stem>up</stem>
				<lyric number="1">
					<syllabic>single</syllabic>
					<text>ple</text>
				</lyric>
			</note>
			<note>
				<pitch>
					<step>G</step>
					<octave>4</octave>
				</pitch>
				<duration>10</duration>
				<voice>1</voice>
				<type>16th</type>
				<stem>up</stem>
				<beam number="1">begin</beam>
				<beam number="2">begin</beam>
				<notations>
					<slur type="start" number="1"></slur>
				</notations>
				<lyric number="1">
					<syllabic>single</syllabic>
					<text>bis</text>
				</lyric>
			</note>
			<note>
				<pitch>
					<step>A</step>
					<octave>4</octave>
				</pitch>
				<duration>10</duration>
				<voice>1</voice>
				<type>16th</type>
				<stem>up</stem>
				<beam number="1">end</beam>
				<beam number="2">end</beam>
				<notations>
					<slur type="stop" number="1"></slur>
				</notations>
			</note>
			<note>
				<pitch>
					<step>G</step>
					<octave>4</octave>
				</pitch>
				<duration>40</duration>
				<voice>1</voice>
				<type>quarter</type>
				<stem>up</stem>
				<lyric number="1">
					<syllabic>begin</syllabic>
					<text>a</text>
				</lyric>
			</note>
			<forward>
				<duration>40</duration>
			</forward>
		</measure><!--
===========================================================
-->

		<measure number="9" width="175">
			<print new-system="no"></print>
			<attributes></attributes>
			<note>
				<pitch>
					<step>F</step>
					<octave>4</octave>
				</pitch>
				<duration>60</duration>
				<voice>1</voice>
				<type>quarter</type>
				<dot/>
				<stem>up</stem>
				<lyric number="1">
					<syllabic>end</syllabic>
					<text>mor</text>
				</lyric>
			</note>
			<note>
				<pitch>
					<step>A</step>
					<octave>4</octave>
				</pitch>
				<duration>20</duration>
				<voice>1</voice>
				<type>eighth</type>
				<stem>up</stem>
				<lyric number="1">
					<syllabic>single</syllabic>
					<text>cle</text>
				</lyric>
			</note>
			<note>
				<pitch>
					<step>B</step>
					<octave>4</octave>
				</pitch>
				<duration>40</duration>
				<voice>1</voice>
				<type>quarter</type>
				<accidental parentheses="no">natural</accidental>
				<stem>down</stem>
				<lyric number="1">
					<syllabic>single</syllabic>
					<text>ri</text>
				</lyric>
			</note>
			<forward>
				<duration>40</duration>
			</forward>
		</measure><!--
===========================================================
-->

		<measure number="10" width="201">
			<print new-system="no"></print>
			<attributes></attributes>
			<note>
				<pitch>
					<step>C</step>
					<octave>5</octave>
				</pitch>
				<duration>60</duration>
				<voice>1</voice>
				<type>quarter</type>
				<dot/>
				<stem>down</stem>
				<lyric number="1">
					<syllabic>begin</syllabic>
					<text>de</text>
				</lyric>
			</note>
			<note>
				<pitch>
					<step>A</step>
					<octave>4</octave>
				</pitch>
				<duration>20</duration>
				<voice>1</voice>
				<type>eighth</type>
				<stem>up</stem>
				<lyric number="1">
					<syllabic>middle</syllabic>
					<text>h</text>
				</lyric>
			</note>
			<note>
				<pitch>
					<step>G</step>
					<octave>4</octave>
				</pitch>
				<duration>40</duration>
				<voice>1</voice>
				<type>quarter</type>
				<stem>up</stem>
				<lyric number="1">
					<syllabic>end</syllabic>
					<text>ci</text>
				</lyric>
			</note>
			<forward>
				<duration>40</duration>
			</forward>
		</measure><!--
===========================================================
-->

		<measure number="11" width="188">
			<print new-system="no"></print>
			<attributes></attributes>
			<barline location="left">
				<ending number="1" type="start"></ending>
			</barline>
			<note>
				<pitch>
					<step>A</step>
					<octave>4</octave>
				</pitch>
				<duration>60</duration>
				<voice>1</voice>
				<type>quarter</type>
				<dot/>
				<stem>up</stem>
				<lyric number="1">
					<syllabic>single</syllabic>
					<text>e</text>
				</lyric>
			</note>
			<note>
				<rest/>
				<duration>60</duration>
				<voice>1</voice>
				<type>quarter</type>
				<dot/>
			</note>
			<forward>
				<duration>40</duration>
			</forward>
		</measure><!--
===========================================================
-->

		<measure number="12" width="122">
			<print new-system="no"></print>
			<attributes></attributes>
			<note>
				<pitch>
					<step>G</step>
					<octave>4</octave>
				</pitch>
				<duration>10</duration>
				<voice>1</voice>
				<type>16th</type>
				<stem>up</stem>
				<beam number="1">begin</beam>
				<beam number="2">begin</beam>
				<notations></notations>
				<lyric number="1">
					<syllabic>single</syllabic>
					<text>sal</text>
				</lyric>
			</note>
			<note>
				<pitch>
					<step>F</step>
					<octave>4</octave>
				</pitch>
				<duration>10</duration>
				<voice>1</voice>
				<type>16th</type>
				<stem>up</stem>
				<beam number="1">end</beam>
				<beam number="2">end</beam>
			</note>
			<note>
				<pitch>
					<step>G</step>
					<octave>4</octave>
				</pitch>
				<duration>40</duration>
				<voice>1</voice>
				<type>quarter</type>
				<stem>up</stem>
				<lyric number="1">
					<syllabic>single</syllabic>
					<text>ve</text>
				</lyric>
			</note>
			<forward>
				<duration>100</duration>
			</forward>
		</measure><!--
===========================================================
-->

		<measure number="13" width="255">
			<print new-system="yes">
				<system-layout>
					<system-margins>
						<left-margin>0</left-margin>
						<right-margin>0</right-margin>
					</system-margins>
					<system-distance>151</system-distance>
				</system-layout>
				<staff-layout number="1">
					<staff-distance>90</staff-distance>
				</staff-layout>
			</print>
			<attributes>
				<staff-details number="1" print-object="yes">
					<staff-size>74</staff-size>
				</staff-details>
			</attributes>
			<note>
				<pitch>
					<step>A</step>
					<octave>4</octave>
				</pitch>
				<duration>60</duration>
				<voice>1</voice>
				<type>quarter</type>
				<dot/>
				<stem>up</stem>
				<lyric number="1">
					<syllabic>begin</syllabic>
					<text>gre</text>
				</lyric>
			</note>
			<note>
				<pitch>
					<step>G</step>
					<octave>4</octave>
				</pitch>
				<duration>10</duration>
				<voice>1</voice>
				<type>16th</type>
				<stem>up</stem>
				<beam number="1">begin</beam>
				<beam number="2">begin</beam>
				<notations>
					<slur type="start" number="1"></slur>
				</notations>
				<lyric number="1">
					<syllabic>end</syllabic>
					<text>gis</text>
				</lyric>
			</note>
			<note>
				<pitch>
					<step>A</step>
					<octave>4</octave>
				</pitch>
				<duration>10</duration>
				<voice>1</voice>
				<type>16th</type>
				<stem>up</stem>
				<beam number="1">end</beam>
				<beam number="2">end</beam>
				<notations>
					<slur type="stop" number="1"></slur>
				</notations>
			</note>
			<note>
				<pitch>
					<step>B</step>
					<alter>-1</alter>
					<octave>4</octave>
				</pitch>
				<duration>40</duration>
				<voice>1</voice>
				<type>quarter</type>
				<accidental parentheses="no">flat</accidental>
				<stem>down</stem>
				<lyric number="1">
					<syllabic>begin</syllabic>
					<text>tu</text>
				</lyric>
			</note>
			<forward>
				<duration>40</duration>
			</forward>
		</measure><!--
===========================================================
-->

		<measure number="14" width="202">
			<print new-system="no"></print>
			<attributes></attributes>
			<note>
				<pitch>
					<step>A</step>
					<octave>4</octave>
				</pitch>
				<duration>20</duration>
				<voice>1</voice>
				<type>eighth</type>
				<stem>up</stem>
				<lyric number="1">
					<syllabic>end</syllabic>
					<text>tor</text>
				</lyric>
			</note>
			<note>
				<pitch>
					<step>A</step>
					<octave>4</octave>
				</pitch>
				<duration>40</duration>
				<voice>1</voice>
				<type>quarter</type>
				<stem>up</stem>
				<lyric number="1">
					<syllabic>begin</syllabic>
					<text>e</text>
				</lyric>
			</note>
			<note>
				<pitch>
					<step>B</step>
					<octave>4</octave>
				</pitch>
				<duration>40</duration>
				<voice>1</voice>
				<type>quarter</type>
				<accidental parentheses="no">natural</accidental>
				<stem>down</stem>
				<lyric number="1">
					<syllabic>middle</syllabic>
					<text>gre</text>
				</lyric>
			</note>
			<note>
				<pitch>
					<step>C</step>
					<octave>5</octave>
				</pitch>
				<duration>40</duration>
				<voice>1</voice>
				<type>quarter</type>
				<stem>down</stem>
				<lyric number="1">
					<syllabic>middle</syllabic>
					<text>gi</text>
				</lyric>
			</note>
			<forward>
				<duration>20</duration>
			</forward>
		</measure><!--
===========================================================
-->

		<measure number="15" width="202">
			<print new-system="no"></print>
			<attributes></attributes>
			<note>
				<pitch>
					<step>D</step>
					<octave>5</octave>
				</pitch>
				<duration>60</duration>
				<voice>1</voice>
				<type>quarter</type>
				<dot/>
				<stem>down</stem>
				<lyric number="1">
					<syllabic>end</syllabic>
					<text>e</text>
				</lyric>
			</note>
			<note>
				<pitch>
					<step>C</step>
					<octave>5</octave>
				</pitch>
				<duration>20</duration>
				<voice>1</voice>
				<type>eighth</type>
				<stem>down</stem>
				<lyric number="1">
					<syllabic>begin</syllabic>
					<text>sal</text>
				</lyric>
			</note>
			<note>
				<pitch>
					<step>B</step>
					<octave>4</octave>
				</pitch>
				<duration>40</duration>
				<voice>1</voice>
				<type>quarter</type>
				<accidental parentheses="no">natural</accidental>
				<stem>down</stem>
			</note>
			<forward>
				<duration>40</duration>
			</forward>
		</measure><!--
===========================================================
-->

		<measure number="16" width="156">
			<print new-system="no"></print>
			<attributes></attributes>
			<note>
				<pitch>
					<step>A</step>
					<octave>4</octave>
				</pitch>
				<duration>60</duration>
				<voice>1</voice>
				<type>quarter</type>
				<dot/>
				<stem>up</stem>
				<lyric number="1">
					<syllabic>end</syllabic>
					<text>-va</text>
				</lyric>
			</note>
			<note>
				<pitch>
					<step>B</step>
					<alter>-1</alter>
					<octave>4</octave>
				</pitch>
				<duration>60</duration>
				<voice>1</voice>
				<type>quarter</type>
				<dot/>
				<stem>down</stem>
				<lyric number="1">
					<syllabic>begin</syllabic>
					<text>tu</text>
				</lyric>
			</note>
			<forward>
				<duration>40</duration>
			</forward>
		</measure><!--
===========================================================
-->

		<measure number="17" width="196">
			<print new-system="no"></print>
			<attributes></attributes>
			<note>
				<pitch>
					<step>C</step>
					<octave>5</octave>
				</pitch>
				<duration>20</duration>
				<voice>1</voice>
				<type>eighth</type>
				<stem>down</stem>
				<lyric number="1">
					<syllabic>end</syllabic>
					<text>-e</text>
				</lyric>
			</note>
			<note>
				<pitch>
					<step>C</step>
					<octave>5</octave>
				</pitch>
				<duration>40</duration>
				<voice>1</voice>
				<type>quarter</type>
				<stem>down</stem>
				<lyric number="1">
					<syllabic>single</syllabic>
					<text>gau</text>
				</lyric>
			</note>
			<note>
				<pitch>
					<step>B</step>
					<alter>-1</alter>
					<octave>4</octave>
				</pitch>
				<duration>10</duration>
				<voice>1</voice>
				<type>16th</type>
				<stem>down</stem>
				<beam number="1">begin</beam>
				<beam number="2">begin</beam>
				<lyric number="1">
					<syllabic>begin</syllabic>
					<text>-den</text>
				</lyric>
			</note>
			<note>
				<pitch>
					<step>C</step>
					<octave>5</octave>
				</pitch>
				<duration>10</duration>
				<voice>1</voice>
				<type>16th</type>
				<stem>down</stem>
				<beam number="1">end</beam>
				<beam number="2">end</beam>
				<notations></notations>
			</note>
			<note>
				<pitch>
					<step>B</step>
					<alter>-1</alter>
					<octave>4</octave>
				</pitch>
				<duration>40</duration>
				<voice>1</voice>
				<type>quarter</type>
				<stem>down</stem>
				<lyric number="1">
					<syllabic>end</syllabic>
					<text>tes</text>
				</lyric>
			</note>
			<forward>
				<duration>40</duration>
			</forward>
		</measure><!--
===========================================================
-->

		<measure number="18" width="173">
			<print new-system="no"></print>
			<attributes></attributes>
			<note>
				<pitch>
					<step>A</step>
					<octave>4</octave>
				</pitch>
				<duration>60</duration>
				<voice>1</voice>
				<type>quarter</type>
				<dot/>
				<stem>up</stem>
				<lyric number="1">
					<syllabic>begin</syllabic>
					<text>glo</text>
				</lyric>
			</note>
			<note>
				<pitch>
					<step>G</step>
					<octave>4</octave>
				</pitch>
				<duration>60</duration>
				<voice>1</voice>
				<type>quarter</type>
				<dot/>
				<stem>up</stem>
				<lyric number="1">
					<syllabic>middle</syllabic>
					<text>ri</text>
				</lyric>
			</note>
			<forward>
				<duration>40</duration>
			</forward>
		</measure><!--
===========================================================
-->

		<measure number="19" width="134">
			<print new-system="no"></print>
			<attributes></attributes>
			<note>
				<pitch>
					<step>A</step>
					<octave>4</octave>
				</pitch>
				<duration>120</duration>
				<voice>1</voice>
				<type>half</type>
				<dot/>
				<stem>up</stem>
				<lyric number="1">
					<syllabic>end</syllabic>
					<text>-e.</text>
				</lyric>
			</note>
			<forward>
				<duration>40</duration>
			</forward>
			<barline location="right">
				<bar-style>light-heavy</bar-style>
			</barline>
		</measure>
	</part><!--
===========================================================
-->

	<part id="P3">
		<measure number="1" width="286">
			<print>
				<page-layout>
					<page-height>2104.96</page-height>
					<page-width>1727.54</page-width>
					<page-margins>
						<left-margin>197.83</left-margin>
						<right-margin>208.09</right-margin>
						<top-margin>127.00</top-margin>
						<bottom-margin>63.50</bottom-margin>
					</page-margins>
				</page-layout>
				<system-layout>
					<system-margins>
						<left-margin>163</left-margin>
						<right-margin>1</right-margin>
					</system-margins>
					<top-system-distance>274</top-system-distance>
				</system-layout>
				<staff-layout number="1">
					<staff-distance>91</staff-distance>
				</staff-layout>
			</print>
			<attributes>
				<divisions>40</divisions>
				<key>
					<fifths>0</fifths>
				</key>
				<time>
					<beats>4</beats>
					<beat-type>4</beat-type>
				</time>
				<clef>
					<sign>G</sign>
					<line>2</line>
				</clef>
				<staff-details number="1" print-object="yes">
					<staff-size>74</staff-size>
				</staff-details>
			</attributes>
			<attributes></attributes>
			<note>
				<pitch>
					<step>D</step>
					<octave>5</octave>
				</pitch>
				<duration>60</duration>
				<voice>1</voice>
				<type>quarter</type>
				<dot/>
				<stem>down</stem>
				<lyric number="1">
					<syllabic>single</syllabic>
					<text>(!uartus</text>
				</lyric>
			</note>
			<note>
				<pitch>
					<step>E</step>
					<octave>5</octave>
				</pitch>
				<duration>20</duration>
				<voice>1</voice>
				<type>eighth</type>
				<stem>down</stem>
				<lyric number="1">
					<syllabic>single</syllabic>
					<text>cantus.</text>
				</lyric>
			</note>
			<note>
				<pitch>
					<step>F</step>
					<octave>5</octave>
				</pitch>
				<duration>40</duration>
				<voice>1</voice>
				<type>quarter</type>
				<stem>down</stem>
			</note>
			<forward>
				<duration>40</duration>
			</forward>
		</measure><!--
===========================================================
-->

		<measure number="2" width="227">
			<print new-system="no"></print>
			<attributes></attributes>
			<note>
				<pitch>
					<step>E</step>
					<octave>5</octave>
				</pitch>
				<duration>20</duration>
				<voice>1</voice>
				<type>eighth</type>
				<stem>down</stem>
			</note>
			<note>
				<pitch>
					<step>D</step>
					<octave>5</octave>
				</pitch>
				<duration>40</duration>
				<voice>1</voice>
				<type>quarter</type>
				<stem>down</stem>
			</note>
			<note>
				<pitch>
					<step>C</step>
					<octave>5</octave>
				</pitch>
				<duration>10</duration>
				<voice>1</voice>
				<type>16th</type>
				<stem>down</stem>
				<beam number="1">begin</beam>
				<beam number="2">begin</beam>
			</note>
			<note>
				<pitch>
					<step>B</step>
					<octave>4</octave>
				</pitch>
				<duration>10</duration>
				<voice>1</voice>
				<type>16th</type>
				<stem>down</stem>
				<beam number="1">end</beam>
				<beam number="2">end</beam>
			</note>
			<note>
				<pitch>
					<step>C</step>
					<octave>5</octave>
				</pitch>
				<duration>40</duration>
				<voice>1</voice>
				<type>quarter</type>
				<stem>down</stem>
			</note>
			<forward>
				<duration>40</duration>
			</forward>
		</measure><!--
===========================================================
-->

		<measure number="3" width="205">
			<print new-system="no"></print>
			<attributes></attributes>
			<note>
				<pitch>
					<step>D</step>
					<octave>5</octave>
				</pitch>
				<duration>60</duration>
				<voice>1</voice>
				<type>quarter</type>
				<dot/>
				<stem>down</stem>
			</note>
			<note>
				<pitch>
					<step>D</step>
					<octave>5</octave>
				</pitch>
				<duration>10</duration>
				<voice>1</voice>
				<type>16th</type>
				<stem>down</stem>
				<beam number="1">begin</beam>
				<beam number="2">begin</beam>
			</note>
			<note>
				<pitch>
					<step>C</step>
					<octave>5</octave>
				</pitch>
				<duration>10</duration>
				<voice>1</voice>
				<type>16th</type>
				<stem>down</stem>
				<beam number="1">end</beam>
				<beam number="2">end</beam>
			</note>
			<note>
				<pitch>
					<step>B</step>
					<octave>4</octave>
				</pitch>
				<duration>40</duration>
				<voice>1</voice>
				<type>quarter</type>
				<stem>down</stem>
			</note>
			<forward>
				<duration>40</duration>
			</forward>
		</measure><!--
===========================================================
-->

		<measure number="4" width="206">
			<print new-system="no"></print>
			<attributes></attributes>
			<note>
				<pitch>
					<step>C</step>
					<octave>5</octave>
				</pitch>
				<duration>60</duration>
				<voice>1</voice>
				<type>quarter</type>
				<dot/>
				<stem>down</stem>
			</note>
			<note>
				<pitch>
					<step>B</step>
					<octave>4</octave>
				</pitch>
				<duration>20</duration>
				<voice>1</voice>
				<type>eighth</type>
				<stem>down</stem>
			</note>
			<note>
				<pitch>
					<step>C</step>
					<octave>5</octave>
				</pitch>
				<duration>40</duration>
				<voice>1</voice>
				<type>quarter</type>
				<stem>down</stem>
			</note>
			<forward>
				<duration>40</duration>
			</forward>
		</measure><!--
===========================================================
-->

		<measure number="5" width="230">
			<print new-system="no"></print>
			<attributes></attributes>
			<note>
				<pitch>
					<step>D</step>
					<octave>5</octave>
				</pitch>
				<duration>60</duration>
				<voice>1</voice>
				<type>quarter</type>
				<dot/>
				<stem>down</stem>
			</note>
			<note>
				<pitch>
					<step>E</step>
					<octave>5</octave>
				</pitch>
				<duration>10</duration>
				<voice>1</voice>
				<type>16th</type>
				<stem>down</stem>
				<beam number="1">begin</beam>
				<beam number="2">begin</beam>
			</note>
			<note>
				<pitch>
					<step>D</step>
					<octave>5</octave>
				</pitch>
				<duration>10</duration>
				<voice>1</voice>
				<type>16th</type>
				<stem>down</stem>
				<beam number="1">end</beam>
				<beam number="2">end</beam>
			</note>
			<note>
				<pitch>
					<step>C</step>
					<octave>5</octave>
				</pitch>
				<duration>40</duration>
				<voice>1</voice>
				<type>quarter</type>
				<stem>down</stem>
			</note>
			<forward>
				<duration>40</duration>
			</forward>
		</measure><!--
===========================================================
-->

		<measure number="6" width="259">
			<print new-system="yes">
				<system-layout>
					<system-margins>
						<left-margin>0</left-margin>
						<right-margin>0</right-margin>
					</system-margins>
					<system-distance>158</system-distance>
				</system-layout>
				<staff-layout number="1">
					<staff-distance>91</staff-distance>
				</staff-layout>
			</print>
			<attributes></attributes>
			<note>
				<pitch>
					<step>D</step>
					<octave>5</octave>
				</pitch>
				<duration>60</duration>
				<voice>1</voice>
				<type>quarter</type>
				<dot/>
				<stem>down</stem>
			</note>
			<note>
				<pitch>
					<step>C</step>
					<octave>5</octave>
				</pitch>
				<duration>20</duration>
				<voice>1</voice>
				<type>eighth</type>
				<stem>down</stem>
			</note>
			<note>
				<pitch>
					<step>B</step>
					<octave>4</octave>
				</pitch>
				<duration>40</duration>
				<voice>1</voice>
				<type>quarter</type>
				<stem>down</stem>
			</note>
			<forward>
				<duration>40</duration>
			</forward>
		</measure><!--
===========================================================
-->

		<measure number="7" width="186">
			<print new-system="no"></print>
			<attributes></attributes>
			<note>
				<pitch>
					<step>C</step>
					<octave>5</octave>
				</pitch>
				<duration>60</duration>
				<voice>1</voice>
				<type>quarter</type>
				<dot/>
				<stem>down</stem>
			</note>
			<note>
				<pitch>
					<step>B</step>
					<octave>4</octave>
				</pitch>
				<duration>10</duration>
				<voice>1</voice>
				<type>16th</type>
				<stem>up</stem>
				<beam number="1">begin</beam>
				<beam number="2">begin</beam>
			</note>
			<note>
				<pitch>
					<step>A</step>
					<octave>4</octave>
				</pitch>
				<duration>10</duration>
				<voice>1</voice>
				<type>16th</type>
				<stem>up</stem>
				<beam number="1">end</beam>
				<beam number="2">end</beam>
			</note>
			<note>
				<pitch>
					<step>G</step>
					<octave>4</octave>
				</pitch>
				<duration>40</duration>
				<voice>1</voice>
				<type>quarter</type>
				<stem>up</stem>
			</note>
			<forward>
				<duration>40</duration>
			</forward>
		</measure><!--
===========================================================
-->

		<measure number="8" width="187">
			<print new-system="no"></print>
			<attributes></attributes>
			<note>
				<rest/>
				<duration>60</duration>
				<voice>1</voice>
				<type>quarter</type>
				<dot/>
			</note>
			<note>
				<pitch>
					<step>D</step>
					<octave>5</octave>
				</pitch>
				<duration>20</duration>
				<voice>1</voice>
				<type>eighth</type>
				<stem>down</stem>
			</note>
			<note>
				<pitch>
					<step>B</step>
					<octave>4</octave>
				</pitch>
				<duration>40</duration>
				<voice>1</voice>
				<type>quarter</type>
				<stem>down</stem>
			</note>
			<forward>
				<duration>40</duration>
			</forward>
		</measure><!--
===========================================================
-->

		<measure number="9" width="175">
			<print new-system="no"></print>
			<attributes></attributes>
			<note>
				<pitch>
					<step>C</step>
					<octave>5</octave>
				</pitch>
				<duration>60</duration>
				<voice>1</voice>
				<type>quarter</type>
				<dot/>
				<stem>down</stem>
			</note>
			<note>
				<pitch>
					<step>A</step>
					<octave>4</octave>
				</pitch>
				<duration>20</duration>
				<voice>1</voice>
				<type>eighth</type>
				<stem>up</stem>
			</note>
			<note>
				<pitch>
					<step>F</step>
					<octave>4</octave>
				</pitch>
				<duration>40</duration>
				<voice>1</voice>
				<type>quarter</type>
				<stem>up</stem>
			</note>
			<forward>
				<duration>40</duration>
			</forward>
		</measure><!--
===========================================================
-->

		<measure number="10" width="201">
			<print new-system="no"></print>
			<attributes></attributes>
			<note>
				<pitch>
					<step>G</step>
					<octave>4</octave>
				</pitch>
				<duration>60</duration>
				<voice>1</voice>
				<type>quarter</type>
				<dot/>
				<stem>up</stem>
			</note>
			<note>
				<pitch>
					<step>A</step>
					<octave>4</octave>
				</pitch>
				<duration>20</duration>
				<voice>1</voice>
				<type>eighth</type>
				<stem>down</stem>
				<beam number="1">begin</beam>
			</note>
			<note>
				<pitch>
					<step>B</step>
					<octave>4</octave>
				</pitch>
				<duration>20</duration>
				<voice>1</voice>
				<type>eighth</type>
				<stem>down</stem>
				<beam number="1">continue</beam>
			</note>
			<note>
				<pitch>
					<step>C</step>
					<octave>5</octave>
				</pitch>
				<duration>20</duration>
				<voice>1</voice>
				<type>eighth</type>
				<stem>down</stem>
				<beam number="1">end</beam>
			</note>
			<forward>
				<duration>40</duration>
			</forward>
		</measure><!--
===========================================================
-->

		<measure number="11" width="188">
			<print new-system="no"></print>
			<attributes></attributes>
			<barline location="left">
				<ending number="1" type="start"></ending>
			</barline>
			<note>
				<pitch>
					<step>D</step>
					<octave>5</octave>
				</pitch>
				<duration>60</duration>
				<voice>1</voice>
				<type>quarter</type>
				<dot/>
				<stem>down</stem>
			</note>
			<note>
				<pitch>
					<step>C</step>
					<octave>5</octave>
				</pitch>
				<duration>20</duration>
				<voice>1</voice>
				<type>eighth</type>
				<stem>down</stem>
			</note>
			<note>
				<pitch>
					<step>D</step>
					<octave>5</octave>
				</pitch>
				<duration>40</duration>
				<voice>1</voice>
				<type>quarter</type>
				<stem>down</stem>
			</note>
			<forward>
				<duration>40</duration>
			</forward>
		</measure><!--
===========================================================
-->

		<measure number="12" width="122">
			<print new-system="no"></print>
			<attributes></attributes>
			<note>
				<pitch>
					<step>E</step>
					<octave>5</octave>
				</pitch>
				<duration>60</duration>
				<voice>1</voice>
				<type>quarter</type>
				<dot/>
				<stem>down</stem>
			</note>
			<forward>
				<duration>100</duration>
			</forward>
		</measure><!--
===========================================================
-->

		<measure number="13" width="255">
			<print new-system="yes">
				<system-layout>
					<system-margins>
						<left-margin>0</left-margin>
						<right-margin>0</right-margin>
					</system-margins>
					<system-distance>151</system-distance>
				</system-layout>
				<staff-layout number="1">
					<staff-distance>92</staff-distance>
				</staff-layout>
			</print>
			<attributes></attributes>
			<note>
				<pitch>
					<step>D</step>
					<octave>5</octave>
				</pitch>
				<duration>60</duration>
				<voice>1</voice>
				<type>quarter</type>
				<dot/>
				<stem>down</stem>
			</note>
			<note>
				<pitch>
					<step>C</step>
					<octave>5</octave>
				</pitch>
				<duration>20</duration>
				<voice>1</voice>
				<type>eighth</type>
				<stem>down</stem>
			</note>
			<note>
				<pitch>
					<step>D</step>
					<octave>5</octave>
				</pitch>
				<duration>40</duration>
				<voice>1</voice>
				<type>quarter</type>
				<stem>down</stem>
			</note>
			<forward>
				<duration>40</duration>
			</forward>
		</measure><!--
===========================================================
-->

		<measure number="14" width="202">
			<print new-system="no"></print>
			<attributes></attributes>
			<note>
				<pitch>
					<step>D</step>
					<octave>5</octave>
				</pitch>
				<duration>60</duration>
				<voice>1</voice>
				<type>quarter</type>
				<dot/>
				<stem>down</stem>
			</note>
			<note>
				<pitch>
					<step>C</step>
					<octave>5</octave>
				</pitch>
				<duration>20</duration>
				<voice>1</voice>
				<type>eighth</type>
				<stem>down</stem>
			</note>
			<note>
				<pitch>
					<step>A</step>
					<octave>4</octave>
				</pitch>
				<duration>40</duration>
				<voice>1</voice>
				<type>quarter</type>
				<stem>up</stem>
			</note>
			<forward>
				<duration>40</duration>
			</forward>
		</measure><!--
===========================================================
-->

		<measure number="15" width="202">
			<print new-system="no"></print>
			<attributes></attributes>
			<note>
				<pitch>
					<step>D</step>
					<octave>5</octave>
				</pitch>
				<duration>20</duration>
				<voice>1</voice>
				<type>eighth</type>
				<stem>down</stem>
			</note>
			<note>
				<pitch>
					<step>A</step>
					<octave>4</octave>
				</pitch>
				<duration>40</duration>
				<voice>1</voice>
				<type>quarter</type>
				<stem>up</stem>
			</note>
			<note>
				<pitch>
					<step>G</step>
					<octave>4</octave>
				</pitch>
				<duration>60</duration>
				<voice>1</voice>
				<type>quarter</type>
				<dot/>
				<stem>up</stem>
			</note>
			<forward>
				<duration>40</duration>
			</forward>
		</measure><!--
===========================================================
-->

		<measure number="16" width="156">
			<print new-system="no"></print>
			<attributes></attributes>
			<note>
				<pitch>
					<step>A</step>
					<octave>4</octave>
				</pitch>
				<duration>60</duration>
				<voice>1</voice>
				<type>quarter</type>
				<dot/>
				<stem>up</stem>
			</note>
			<note>
				<pitch>
					<step>G</step>
					<octave>4</octave>
				</pitch>
				<duration>60</duration>
				<voice>1</voice>
				<type>quarter</type>
				<dot/>
				<stem>up</stem>
			</note>
			<forward>
				<duration>40</duration>
			</forward>
		</measure><!--
===========================================================
-->

		<measure number="17" width="196">
			<print new-system="no"></print>
			<attributes></attributes>
			<note>
				<pitch>
					<step>F</step>
					<octave>4</octave>
				</pitch>
				<duration>60</duration>
				<voice>1</voice>
				<type>quarter</type>
				<dot/>
				<stem>up</stem>
			</note>
			<note>
				<pitch>
					<step>G</step>
					<octave>4</octave>
				</pitch>
				<duration>60</duration>
				<voice>1</voice>
				<type>quarter</type>
				<dot/>
				<stem>up</stem>
			</note>
			<forward>
				<duration>40</duration>
			</forward>
		</measure><!--
===========================================================
-->

		<measure number="18" width="173">
			<print new-system="no"></print>
			<attributes></attributes>
			<note>
				<pitch>
					<step>A</step>
					<octave>4</octave>
				</pitch>
				<duration>60</duration>
				<voice>1</voice>
				<type>quarter</type>
				<dot/>
				<stem>up</stem>
			</note>
			<note>
				<pitch>
					<step>B</step>
					<octave>4</octave>
				</pitch>
				<duration>20</duration>
				<voice>1</voice>
				<type>eighth</type>
				<stem>down</stem>
			</note>
			<note>
				<pitch>
					<step>C</step>
					<octave>5</octave>
				</pitch>
				<duration>40</duration>
				<voice>1</voice>
				<type>quarter</type>
				<stem>down</stem>
			</note>
			<forward>
				<duration>40</duration>
			</forward>
		</measure><!--
===========================================================
-->

		<measure number="19" width="134">
			<print new-system="no"></print>
			<attributes></attributes>
			<note>
				<pitch>
					<step>A</step>
					<octave>4</octave>
				</pitch>
				<duration>120</duration>
				<voice>1</voice>
				<type>half</type>
				<dot/>
				<stem>up</stem>
			</note>
			<forward>
				<duration>40</duration>
			</forward>
			<barline location="right">
				<bar-style>light-heavy</bar-style>
			</barline>
		</measure>
	</part><!--
===========================================================
-->

	<part id="P4">
		<measure number="1" width="286">
			<print>
				<page-layout>
					<page-height>2104.96</page-height>
					<page-width>1727.54</page-width>
					<page-margins>
						<left-margin>197.83</left-margin>
						<right-margin>208.09</right-margin>
						<top-margin>127.00</top-margin>
						<bottom-margin>63.50</bottom-margin>
					</page-margins>
				</page-layout>
				<system-layout>
					<system-margins>
						<left-margin>163</left-margin>
						<right-margin>1</right-margin>
					</system-margins>
					<top-system-distance>274</top-system-distance>
				</system-layout>
				<staff-layout number="1">
					<staff-distance>81</staff-distance>
				</staff-layout>
			</print>
			<attributes>
				<divisions>40</divisions>
				<key>
					<fifths>0</fifths>
				</key>
				<time>
					<beats>4</beats>
					<beat-type>4</beat-type>
				</time>
				<clef>
					<sign>G</sign>
					<line>2</line>
				</clef>
				<staff-details number="1" print-object="yes">
					<staff-size>74</staff-size>
				</staff-details>
			</attributes>
			<attributes></attributes>
			<note>
				<pitch>
					<step>D</step>
					<octave>4</octave>
				</pitch>
				<duration>60</duration>
				<voice>1</voice>
				<type>quarter</type>
				<dot/>
				<stem>up</stem>
			</note>
			<note>
				<pitch>
					<step>F</step>
					<octave>4</octave>
				</pitch>
				<duration>60</duration>
				<voice>1</voice>
				<type>quarter</type>
				<dot/>
				<stem>up</stem>
			</note>
			<forward>
				<duration>40</duration>
			</forward>
		</measure><!--
===========================================================
-->

		<measure number="2" width="227">
			<print new-system="no"></print>
			<attributes></attributes>
			<note>
				<pitch>
					<step>D</step>
					<octave>4</octave>
				</pitch>
				<duration>60</duration>
				<voice>1</voice>
				<type>quarter</type>
				<dot/>
				<stem>up</stem>
			</note>
			<note>
				<pitch>
					<step>C</step>
					<octave>4</octave>
				</pitch>
				<duration>60</duration>
				<voice>1</voice>
				<type>quarter</type>
				<dot/>
				<stem>up</stem>
			</note>
			<forward>
				<duration>40</duration>
			</forward>
		</measure><!--
===========================================================
-->

		<measure number="3" width="205">
			<print new-system="no"></print>
			<attributes></attributes>
			<note>
				<pitch>
					<step>D</step>
					<octave>4</octave>
				</pitch>
				<duration>60</duration>
				<voice>1</voice>
				<type>quarter</type>
				<dot/>
				<stem>up</stem>
			</note>
			<note>
				<rest/>
				<duration>60</duration>
				<voice>1</voice>
				<type>quarter</type>
				<dot/>
			</note>
			<forward>
				<duration>40</duration>
			</forward>
		</measure><!--
===========================================================
-->

		<measure number="4" width="206">
			<print new-system="no"></print>
			<attributes></attributes>
			<note>
				<pitch>
					<step>F</step>
					<octave>4</octave>
				</pitch>
				<duration>60</duration>
				<voice>1</voice>
				<type>quarter</type>
				<dot/>
				<stem>up</stem>
			</note>
			<note>
				<pitch>
					<step>G</step>
					<octave>4</octave>
				</pitch>
				<duration>60</duration>
				<voice>1</voice>
				<type>quarter</type>
				<dot/>
				<stem>up</stem>
			</note>
			<forward>
				<duration>40</duration>
			</forward>
		</measure><!--
===========================================================
-->

		<measure number="5" width="230">
			<print new-system="no"></print>
			<attributes></attributes>
			<note>
				<pitch>
					<step>A</step>
					<octave>4</octave>
				</pitch>
				<duration>60</duration>
				<voice>1</voice>
				<type>quarter</type>
				<dot/>
				<stem>up</stem>
			</note>
			<note>
				<pitch>
					<step>A</step>
					<octave>4</octave>
				</pitch>
				<duration>60</duration>
				<voice>1</voice>
				<type>quarter</type>
				<dot/>
				<stem>up</stem>
			</note>
			<forward>
				<duration>40</duration>
			</forward>
		</measure><!--
===========================================================
-->

		<measure number="6" width="259">
			<print new-system="yes">
				<system-layout>
					<system-margins>
						<left-margin>0</left-margin>
						<right-margin>0</right-margin>
					</system-margins>
					<system-distance>158</system-distance>
				</system-layout>
				<staff-layout number="1">
					<staff-distance>76</staff-distance>
				</staff-layout>
			</print>
			<attributes></attributes>
			<note>
				<pitch>
					<step>G</step>
					<octave>4</octave>
				</pitch>
				<duration>60</duration>
				<voice>1</voice>
				<type>quarter</type>
				<dot/>
				<stem>up</stem>
			</note>
			<note>
				<rest/>
				<duration>60</duration>
				<voice>1</voice>
				<type>quarter</type>
				<dot/>
			</note>
			<forward>
				<duration>40</duration>
			</forward>
		</measure><!--
===========================================================
-->

		<measure number="7" width="186">
			<print new-system="no"></print>
			<attributes></attributes>
			<note>
				<pitch>
					<step>F</step>
					<octave>4</octave>
				</pitch>
				<duration>60</duration>
				<voice>1</voice>
				<type>quarter</type>
				<dot/>
				<stem>up</stem>
			</note>
			<note>
				<pitch>
					<step>E</step>
					<octave>4</octave>
				</pitch>
				<duration>60</duration>
				<voice>1</voice>
				<type>quarter</type>
				<dot/>
				<stem>up</stem>
			</note>
			<forward>
				<duration>40</duration>
			</forward>
		</measure><!--
===========================================================
-->

		<measure number="8" width="187">
			<print new-system="no"></print>
			<attributes></attributes>
			<note>
				<pitch>
					<step>D</step>
					<octave>4</octave>
				</pitch>
				<duration>60</duration>
				<voice>1</voice>
				<type>quarter</type>
				<dot/>
				<stem>up</stem>
			</note>
			<note>
				<rest/>
				<duration>60</duration>
				<voice>1</voice>
				<type>quarter</type>
				<dot/>
			</note>
			<forward>
				<duration>40</duration>
			</forward>
		</measure><!--
===========================================================
-->

		<measure number="9" width="175">
			<print new-system="no"></print>
			<attributes></attributes>
			<note>
				<pitch>
					<step>F</step>
					<octave>4</octave>
				</pitch>
				<duration>60</duration>
				<voice>1</voice>
				<type>quarter</type>
				<dot/>
				<stem>up</stem>
			</note>
			<note>
				<pitch>
					<step>D</step>
					<octave>4</octave>
				</pitch>
				<duration>60</duration>
				<voice>1</voice>
				<type>quarter</type>
				<dot/>
				<stem>up</stem>
			</note>
			<forward>
				<duration>40</duration>
			</forward>
		</measure><!--
===========================================================
-->

		<measure number="10" width="201">
			<print new-system="no"></print>
			<attributes></attributes>
			<note>
				<pitch>
					<step>C</step>
					<octave>4</octave>
				</pitch>
				<duration>60</duration>
				<voice>1</voice>
				<type>quarter</type>
				<dot/>
				<stem>up</stem>
			</note>
			<note>
				<rest/>
				<duration>60</duration>
				<voice>1</voice>
				<type>quarter</type>
				<dot/>
			</note>
			<forward>
				<duration>40</duration>
			</forward>
		</measure><!--
===========================================================
-->

		<measure number="11" width="188">
			<print new-system="no"></print>
			<attributes></attributes>
			<barline location="left">
				<ending number="1" type="start"></ending>
			</barline>
			<note>
				<pitch>
					<step>D</step>
					<octave>4</octave>
				</pitch>
				<duration>60</duration>
				<voice>1</voice>
				<type>quarter</type>
				<dot/>
				<stem>up</stem>
			</note>
			<note>
				<pitch>
					<step>F</step>
					<octave>4</octave>
				</pitch>
				<duration>60</duration>
				<voice>1</voice>
				<type>quarter</type>
				<dot/>
				<stem>up</stem>
			</note>
			<forward>
				<duration>40</duration>
			</forward>
		</measure><!--
===========================================================
-->

		<measure number="12" width="122">
			<print new-system="no"></print>
			<attributes></attributes>
			<note>
				<pitch>
					<step>E</step>
					<octave>4</octave>
				</pitch>
				<duration>60</duration>
				<voice>1</voice>
				<type>quarter</type>
				<dot/>
				<stem>up</stem>
			</note>
			<forward>
				<duration>100</duration>
			</forward>
		</measure><!--
===========================================================
-->

		<measure number="13" width="255">
			<print new-system="yes">
				<system-layout>
					<system-margins>
						<left-margin>0</left-margin>
						<right-margin>0</right-margin>
					</system-margins>
					<system-distance>151</system-distance>
				</system-layout>
				<staff-layout number="1">
					<staff-distance>74</staff-distance>
				</staff-layout>
			</print>
			<attributes></attributes>
			<note>
				<pitch>
					<step>D</step>
					<octave>4</octave>
				</pitch>
				<duration>60</duration>
				<voice>1</voice>
				<type>quarter</type>
				<dot/>
				<stem>up</stem>
			</note>
			<note>
				<rest/>
				<duration>60</duration>
				<voice>1</voice>
				<type>quarter</type>
				<dot/>
			</note>
			<forward>
				<duration>40</duration>
			</forward>
		</measure><!--
===========================================================
-->

		<measure number="14" width="202">
			<print new-system="no"></print>
			<attributes></attributes>
			<note>
				<pitch>
					<step>D</step>
					<octave>4</octave>
				</pitch>
				<duration>60</duration>
				<voice>1</voice>
				<type>quarter</type>
				<dot/>
				<stem>up</stem>
			</note>
			<note>
				<pitch>
					<step>F</step>
					<octave>4</octave>
				</pitch>
				<duration>60</duration>
				<voice>1</voice>
				<type>quarter</type>
				<dot/>
				<stem>up</stem>
			</note>
			<forward>
				<duration>40</duration>
			</forward>
		</measure><!--
===========================================================
-->

		<measure number="15" width="202">
			<print new-system="no"></print>
			<attributes></attributes>
			<note>
				<pitch>
					<step>D</step>
					<octave>4</octave>
				</pitch>
				<duration>60</duration>
				<voice>1</voice>
				<type>quarter</type>
				<dot/>
				<stem>up</stem>
			</note>
			<note>
				<pitch>
					<step>C</step>
					<octave>4</octave>
				</pitch>
				<duration>60</duration>
				<voice>1</voice>
				<type>quarter</type>
				<dot/>
				<stem>up</stem>
			</note>
			<direction placement="below">
				<direction-type>
					<words relative-x="6.7082" default-y="-134.4473" font-family="Times New Roman" font-style="italic" font-size="12" font-weight="normal" color="#000000">o . 1_.2 3 5</words>
				</direction-type>
				<staff>1</staff>
			</direction>
			<forward>
				<duration>40</duration>
			</forward>
		</measure><!--
===========================================================
-->

		<measure number="16" width="156">
			<print new-system="no"></print>
			<attributes></attributes>
			<note>
				<pitch>
					<step>D</step>
					<octave>4</octave>
				</pitch>
				<duration>60</duration>
				<voice>1</voice>
				<type>quarter</type>
				<dot/>
				<stem>up</stem>
			</note>
			<note>
				<rest/>
				<duration>60</duration>
				<voice>1</voice>
				<type>quarter</type>
				<dot/>
			</note>
			<forward>
				<duration>40</duration>
			</forward>
		</measure><!--
===========================================================
-->

		<measure number="17" width="196">
			<print new-system="no"></print>
			<attributes></attributes>
			<note>
				<pitch>
					<step>F</step>
					<octave>4</octave>
				</pitch>
				<duration>60</duration>
				<voice>1</voice>
				<type>quarter</type>
				<dot/>
				<stem>up</stem>
			</note>
			<note>
				<pitch>
					<step>G</step>
					<octave>4</octave>
				</pitch>
				<duration>60</duration>
				<voice>1</voice>
				<type>quarter</type>
				<dot/>
				<stem>up</stem>
			</note>
			<forward>
				<duration>40</duration>
			</forward>
		</measure><!--
===========================================================
-->

		<measure number="18" width="173">
			<print new-system="no"></print>
			<attributes></attributes>
			<note>
				<pitch>
					<step>D</step>
					<octave>4</octave>
				</pitch>
				<duration>60</duration>
				<voice>1</voice>
				<type>quarter</type>
				<dot/>
				<stem>up</stem>
			</note>
			<note>
				<pitch>
					<step>E</step>
					<octave>4</octave>
				</pitch>
				<duration>60</duration>
				<voice>1</voice>
				<type>quarter</type>
				<dot/>
				<stem>up</stem>
			</note>
			<forward>
				<duration>40</duration>
			</forward>
		</measure><!--
===========================================================
-->

		<measure number="19" width="134">
			<print new-system="no"></print>
			<attributes></attributes>
			<note>
				<pitch>
					<step>D</step>
					<octave>4</octave>
				</pitch>
				<duration>120</duration>
				<voice>1</voice>
				<type>half</type>
				<dot/>
				<stem>up</stem>
			</note>
			<forward>
				<duration>40</duration>
			</forward>
			<barline location="right">
				<bar-style>light-heavy</bar-style>
			</barline>
		</measure>
	</part>
</score-partwise>