<?xml version="1.0" encoding="UTF-8" standalone="no"?>
<!DOCTYPE score-partwise PUBLIC "-//Recordare//DTD MusicXML 1.1 Partwise//EN" "http://www.musicxml.org/dtds/partwise.dtd">

<score-partwise version="2.0">
	<movement-title></movement-title>
	<identification>
		<creator type="composer"></creator>
		<encoding>
			<software>SmartScore X2 Pro</software>
			<encoding-date>2016-05-17</encoding-date>
			<supports attribute="new-system" element="print" type="yes" value="yes"/>
			<supports attribute="new-page" element="print" type="yes" value="yes"/>
		</encoding>
	</identification>
	<defaults>
		<scaling>
			<millimeters>6.00</millimeters>
			<tenths>40</tenths>
		</scaling>
	</defaults>
	<part-list>
		<score-part id="P1">
			<part-name>Piano</part-name>
			<part-abbreviation>Pno</part-abbreviation>
			<score-instrument id="P1-S0V0">
				<instrument-name>Grand Piano</instrument-name>
			</score-instrument>
			<score-instrument id="P1-S0V1">
				<instrument-name>Grand Piano</instrument-name>
			</score-instrument>
			<score-instrument id="P1-S1V0">
				<instrument-name>Grand Piano</instrument-name>
			</score-instrument>
			<midi-instrument id="P1-S1V0">
				<midi-channel>5</midi-channel>
				<midi-program>1</midi-program>
				<volume>78</volume>
				<pan>0</pan>
			</midi-instrument>
			<midi-instrument id="P1-S0V1">
				<midi-channel>2</midi-channel>
				<midi-program>1</midi-program>
				<volume>78</volume>
				<pan>0</pan>
			</midi-instrument>
			<midi-instrument id="P1-S0V0">
				<midi-channel>1</midi-channel>
				<midi-program>1</midi-program>
				<volume>78</volume>
				<pan>0</pan>
			</midi-instrument>
		</score-part>
	</part-list><!--
===========================================================
-->

	<part id="P1">
		<measure number="1" width="256">
			<print>
				<page-layout>
					<page-height>1881.48</page-height>
					<page-width>1453.87</page-width>
					<page-margins>
						<left-margin>162.06</left-margin>
						<right-margin>326.69</right-margin>
						<top-margin>127.00</top-margin>
						<bottom-margin>63.50</bottom-margin>
					</page-margins>
				</page-layout>
				<system-layout>
					<system-margins>
						<left-margin>73</left-margin>
						<right-margin>0</right-margin>
					</system-margins>
					<top-system-distance>141</top-system-distance>
				</system-layout>
				<staff-layout number="2">
					<staff-distance>91</staff-distance>
				</staff-layout>
			</print>
			<attributes>
				<divisions>80</divisions>
				<key>
					<fifths>0</fifths>
				</key>
				<time>
					<beats>6</beats>
					<beat-type>8</beat-type>
				</time>
				<staves>2</staves>
				<clef number="1">
					<sign>G</sign>
					<line>2</line>
				</clef>
				<clef number="2">
					<sign>F</sign>
					<line>4</line>
				</clef>
				<staff-details number="1" print-object="yes">
					<staff-size>59</staff-size>
				</staff-details>
				<staff-details number="2" print-object="yes">
					<staff-size>59</staff-size>
				</staff-details>
			</attributes>
			<attributes></attributes>
			<direction placement="above">
				<direction-type>
					<dynamics>
						<f/>
					</dynamics>
				</direction-type>
				<staff>1</staff>
				<sound dynamics="100"/>
			</direction>
			<direction placement="above">
				<direction-type>
					<words relative-x="16.9586" default-y="26.1456" font-family="Times New Roman" font-style="normal" font-size="12" font-weight="normal" color="#000000">151 (R 16.)</words>
				</direction-type>
				<staff>1</staff>
			</direction>
			<note>
				<pitch>
					<step>A</step>
					<octave>4</octave>
				</pitch>
				<duration>120</duration>
				<instrument id="P1-S0V0"/>
				<voice>1</voice>
				<type>quarter</type>
				<dot/>
				<stem>up</stem>
				<staff>1</staff>
				<lyric number="1">
					<syllabic>begin</syllabic>
					<text>1.4,7.Dou</text>
				</lyric>
				<lyric number="2">
					<syllabic>single</syllabic>
					<text>3.Si</text>
				</lyric>
				<lyric number="3">
					<syllabic>single</syllabic>
					<text>ui</text>
				</lyric>
			</note>
			<note>
				<pitch>
					<step>A</step>
					<octave>4</octave>
				</pitch>
				<duration>80</duration>
				<instrument id="P1-S0V0"/>
				<voice>1</voice>
				<type>quarter</type>
				<stem>up</stem>
				<staff>1</staff>
				<lyric number="1">
					<syllabic>end</syllabic>
					<text>ce</text>
				</lyric>
				<lyric number="2">
					<syllabic>begin</syllabic>
					<text>dou</text>
				</lyric>
				<lyric number="3">
					<syllabic>single</syllabic>
					<text>de</text>
				</lyric>
			</note>
			<note>
				<pitch>
					<step>A</step>
					<octave>4</octave>
				</pitch>
				<duration>40</duration>
				<instrument id="P1-S0V0"/>
				<voice>1</voice>
				<type>eighth</type>
				<stem>up</stem>
				<staff>1</staff>
				<lyric number="1">
					<syllabic>begin</syllabic>
					<text>biau</text>
				</lyric>
				<lyric number="2">
					<syllabic>middle</syllabic>
					<text>ce</text>
				</lyric>
				<lyric number="3">
					<syllabic>single</syllabic>
					<text>fin</text>
				</lyric>
			</note>
			<backup>
				<duration>240</duration>
			</backup>
			<note>
				<pitch>
					<step>D</step>
					<octave>4</octave>
				</pitch>
				<duration>120</duration>
				<instrument id="P1-S1V0"/>
				<voice>5</voice>
				<type>quarter</type>
				<dot/>
				<stem>down</stem>
				<staff>2</staff>
				<notations>
					<slur type="start" number="1"></slur>
				</notations>
			</note>
			<note>
				<pitch>
					<step>A</step>
					<octave>3</octave>
				</pitch>
				<duration>120</duration>
				<instrument id="P1-S1V0"/>
				<voice>5</voice>
				<type>quarter</type>
				<dot/>
				<stem>down</stem>
				<staff>2</staff>
				<notations></notations>
			</note>
		</measure><!--
===========================================================
-->

		<measure number="2" width="181">
			<print new-system="no"></print>
			<attributes></attributes>
			<note>
				<pitch>
					<step>B</step>
					<octave>4</octave>
				</pitch>
				<duration>120</duration>
				<instrument id="P1-S0V0"/>
				<voice>1</voice>
				<type>quarter</type>
				<dot/>
				<stem>down</stem>
				<staff>1</staff>
				<notations>
					<slur type="start" number="2"></slur>
				</notations>
				<lyric number="1">
					<syllabic>middle</syllabic>
					<text>te</text>
					<extend/>
				</lyric>
				<lyric number="2">
					<syllabic>middle</syllabic>
					<text>meot</text>
					<extend/>
				</lyric>
				<lyric number="3">
					<syllabic>begin</syllabic>
					<text>cuer</text>
					<extend/>
				</lyric>
			</note>
			<note>
				<pitch>
					<step>B</step>
					<octave>4</octave>
				</pitch>
				<duration>80</duration>
				<instrument id="P1-S0V0"/>
				<voice>1</voice>
				<type>quarter</type>
				<stem>down</stem>
				<staff>1</staff>
				<notations>
					<slur type="stop" number="2"></slur>
				</notations>
			</note>
			<direction placement="above">
				<direction-type>
					<words relative-x="-15.4723" default-y="63.8687" font-family="Times New Roman" font-style="normal" font-size="29" font-weight="normal" color="#000000">B 1</words>
				</direction-type>
				<staff>1</staff>
			</direction>
			<note>
				<pitch>
					<step>A</step>
					<octave>4</octave>
				</pitch>
				<duration>40</duration>
				<instrument id="P1-S0V0"/>
				<voice>1</voice>
				<type>eighth</type>
				<stem>up</stem>
				<staff>1</staff>
				<lyric number="1">
					<syllabic>middle</syllabic>
					<text>gen</text>
				</lyric>
				<lyric number="2">
					<syllabic>end</syllabic>
					<text>lu&apos;en</text>
				</lyric>
				<lyric number="3">
					<syllabic>end</syllabic>
					<text>ai</text>
				</lyric>
			</note>
			<backup>
				<duration>240</duration>
			</backup>
			<note>
				<pitch>
					<step>G</step>
					<octave>3</octave>
				</pitch>
				<duration>240</duration>
				<instrument id="P1-S1V0"/>
				<voice>5</voice>
				<type>half</type>
				<dot/>
				<stem>down</stem>
				<staff>2</staff>
				<notations></notations>
			</note>
		</measure><!--
===========================================================
-->

		<measure number="3" width="235">
			<print new-system="no"></print>
			<attributes></attributes>
			<note>
				<pitch>
					<step>G</step>
					<octave>4</octave>
				</pitch>
				<duration>80</duration>
				<instrument id="P1-S0V0"/>
				<voice>1</voice>
				<type>quarter</type>
				<stem>up</stem>
				<staff>1</staff>
				<lyric number="1">
					<syllabic>middle</syllabic>
					<text>te</text>
				</lyric>
				<lyric number="2">
					<syllabic>begin</syllabic>
					<text>tou</text>
				</lyric>
				<lyric number="3">
					<syllabic>single</syllabic>
					<text>tout</text>
				</lyric>
			</note>
			<note>
				<pitch>
					<step>F</step>
					<octave>4</octave>
				</pitch>
				<duration>40</duration>
				<instrument id="P1-S0V0"/>
				<voice>1</voice>
				<type>eighth</type>
				<stem>up</stem>
				<staff>1</staff>
				<lyric number="1">
					<syllabic>end</syllabic>
					<text>ment</text>
				</lyric>
				<lyric number="2">
					<syllabic>end</syllabic>
					<text>te</text>
				</lyric>
				<lyric number="3">
					<syllabic>single</syllabic>
					<text>mon</text>
				</lyric>
			</note>
			<note>
				<pitch>
					<step>F</step>
					<octave>4</octave>
				</pitch>
				<duration>40</duration>
				<instrument id="P1-S0V0"/>
				<voice>1</voice>
				<type>eighth</type>
				<stem>up</stem>
				<staff>1</staff>
				<lyric number="1">
					<syllabic>begin</syllabic>
					<text>s</text>
				</lyric>
				<lyric number="2">
					<syllabic>single</syllabic>
					<text>ma</text>
				</lyric>
				<lyric number="3">
					<syllabic>begin</syllabic>
					<text>tans</text>
				</lyric>
			</note>
			<note>
				<pitch>
					<step>E</step>
					<octave>4</octave>
				</pitch>
				<duration>80</duration>
				<instrument id="P1-S0V0"/>
				<voice>1</voice>
				<type>quarter</type>
				<stem>up</stem>
				<staff>1</staff>
				<lyric number="1">
					<syllabic>middle</syllabic>
					<text>se</text>
				</lyric>
				<lyric number="2">
					<syllabic>begin</syllabic>
					<text>pen</text>
				</lyric>
			</note>
			<backup>
				<duration>240</duration>
			</backup>
			<note>
				<pitch>
					<step>C</step>
					<octave>4</octave>
				</pitch>
				<duration>240</duration>
				<instrument id="P1-S1V0"/>
				<voice>5</voice>
				<type>half</type>
				<dot/>
				<stem>down</stem>
				<staff>2</staff>
				<notations>
					<slur type="stop" number="1"></slur>
				</notations>
			</note>
		</measure><!--
===========================================================
-->

		<measure number="4" width="217">
			<print new-system="no"></print>
			<attributes></attributes>
			<note>
				<pitch>
					<step>D</step>
					<octave>4</octave>
				</pitch>
				<duration>80</duration>
				<instrument id="P1-S0V0"/>
				<voice>1</voice>
				<type>quarter</type>
				<stem>up</stem>
				<staff>1</staff>
				<lyric number="1">
					<syllabic>middle</syllabic>
					<text>ne</text>
				</lyric>
				<lyric number="2">
					<syllabic>middle</syllabic>
					<text>se</text>
				</lyric>
				<lyric number="3">
					<syllabic>middle</syllabic>
					<text>me</text>
				</lyric>
			</note>
			<note>
				<pitch>
					<step>A</step>
					<octave>4</octave>
				</pitch>
				<duration>40</duration>
				<instrument id="P1-S0V0"/>
				<voice>1</voice>
				<type>eighth</type>
				<stem>up</stem>
				<staff>1</staff>
				<lyric number="1">
					<syllabic>middle</syllabic>
					<text>-</text>
				</lyric>
				<lyric number="2">
					<syllabic>middle</syllabic>
					<text>-</text>
				</lyric>
			</note>
			<note>
				<pitch>
					<step>G</step>
					<octave>4</octave>
				</pitch>
				<duration>80</duration>
				<instrument id="P1-S0V0"/>
				<voice>1</voice>
				<type>quarter</type>
				<stem>up</stem>
				<staff>1</staff>
			</note>
			<backup>
				<duration>200</duration>
			</backup>
			<note>
				<rest/>
				<duration>80</duration>
				<voice>5</voice>
				<type>quarter</type>
				<staff>2</staff>
			</note>
			<note>
				<pitch>
					<step>C</step>
					<octave>4</octave>
				</pitch>
				<duration>40</duration>
				<instrument id="P1-S1V0"/>
				<voice>5</voice>
				<type>eighth</type>
				<stem>down</stem>
				<staff>2</staff>
			</note>
			<forward>
				<duration>120</duration>
			</forward>
		</measure><!--
===========================================================
-->

		<measure number="5" width="261">
			<print new-system="yes">
				<system-layout>
					<system-margins>
						<left-margin>3</left-margin>
						<right-margin>3</right-margin>
					</system-margins>
					<system-distance>59</system-distance>
				</system-layout>
				<staff-layout number="2">
					<staff-distance>108</staff-distance>
				</staff-layout>
			</print>
			<attributes></attributes>
			<note>
				<pitch>
					<step>G</step>
					<octave>4</octave>
				</pitch>
				<duration>30</duration>
				<instrument id="P1-S0V0"/>
				<voice>1</voice>
				<type>16th</type>
				<dot/>
				<stem>up</stem>
				<staff>1</staff>
				<beam number="1">begin</beam>
				<beam number="2">begin</beam>
				<lyric number="2">
					<syllabic>middle</syllabic>
					<text>-</text>
				</lyric>
			</note>
			<note>
				<pitch>
					<step>F</step>
					<octave>4</octave>
				</pitch>
				<duration>20</duration>
				<instrument id="P1-S0V0"/>
				<voice>1</voice>
				<type>16th</type>
				<stem>up</stem>
				<staff>1</staff>
				<beam number="1">continue</beam>
				<beam number="2">continue</beam>
			</note>
			<note>
				<pitch>
					<step>D</step>
					<octave>6</octave>
				</pitch>
				<duration>20</duration>
				<instrument id="P1-S0V0"/>
				<voice>1</voice>
				<type>16th</type>
				<stem>down</stem>
				<staff>1</staff>
				<beam number="1">continue</beam>
				<beam number="2">continue</beam>
			</note>
			<note>
				<pitch>
					<step>F</step>
					<octave>4</octave>
				</pitch>
				<duration>20</duration>
				<instrument id="P1-S0V0"/>
				<voice>1</voice>
				<type>16th</type>
				<stem>up</stem>
				<staff>1</staff>
				<beam number="1">continue</beam>
				<beam number="2">continue</beam>
			</note>
			<direction placement="above">
				<direction-type>
					<words relative-x="39.7215" default-y="52.7936" font-family="Times New Roman" font-style="normal" font-size="10" font-weight="normal" color="#000000">Te nOr</words>
				</direction-type>
				<staff>1</staff>
			</direction>
			<note>
				<pitch>
					<step>E</step>
					<octave>4</octave>
				</pitch>
				<duration>20</duration>
				<instrument id="P1-S0V0"/>
				<voice>1</voice>
				<type>16th</type>
				<stem>up</stem>
				<staff>1</staff>
				<beam number="1">end</beam>
				<beam number="2">end</beam>
			</note>
			<note>
				<pitch>
					<step>G</step>
					<octave>4</octave>
				</pitch>
				<duration>120</duration>
				<instrument id="P1-S0V0"/>
				<voice>1</voice>
				<type>quarter</type>
				<dot/>
				<stem>up</stem>
				<staff>1</staff>
				<lyric number="1">
					<syllabic>end</syllabic>
					<text>-e</text>
				</lyric>
				<lyric number="2">
					<syllabic>end</syllabic>
					<text>e</text>
					<extend/>
				</lyric>
				<lyric number="3">
					<syllabic>end</syllabic>
					<text>-e</text>
				</lyric>
			</note>
			<backup>
				<duration>230</duration>
			</backup>
			<note>
				<pitch>
					<step>C</step>
					<octave>4</octave>
				</pitch>
				<duration>40</duration>
				<instrument id="P1-S1V0"/>
				<voice>5</voice>
				<type>eighth</type>
				<stem>down</stem>
				<staff>2</staff>
			</note>
			<note>
				<pitch>
					<step>A</step>
					<octave>3</octave>
				</pitch>
				<duration>80</duration>
				<instrument id="P1-S1V0"/>
				<voice>5</voice>
				<type>quarter</type>
				<stem>down</stem>
				<staff>2</staff>
			</note>
			<note>
				<pitch>
					<step>G</step>
					<octave>3</octave>
				</pitch>
				<duration>120</duration>
				<instrument id="P1-S1V0"/>
				<voice>5</voice>
				<type>quarter</type>
				<dot/>
				<stem>down</stem>
				<staff>2</staff>
				<notations></notations>
			</note>
		</measure><!--
===========================================================
-->

		<measure number="6" width="197">
			<print new-system="no"></print>
			<attributes></attributes>
			<note>
				<rest/>
				<duration>80</duration>
				<voice>1</voice>
				<type>quarter</type>
				<staff>1</staff>
			</note>
			<note>
				<pitch>
					<step>C</step>
					<octave>5</octave>
				</pitch>
				<duration>40</duration>
				<instrument id="P1-S0V0"/>
				<voice>1</voice>
				<type>eighth</type>
				<stem>down</stem>
				<staff>1</staff>
				<lyric number="1">
					<syllabic>single</syllabic>
					<text>En</text>
				</lyric>
				<lyric number="2">
					<syllabic>single</syllabic>
					<text>Je</text>
				</lyric>
				<lyric number="3">
					<syllabic>single</syllabic>
					<text>Et</text>
				</lyric>
			</note>
			<note>
				<pitch>
					<step>D</step>
					<octave>5</octave>
				</pitch>
				<duration>80</duration>
				<instrument id="P1-S0V0"/>
				<voice>1</voice>
				<type>quarter</type>
				<stem>down</stem>
				<staff>1</staff>
				<lyric number="1">
					<syllabic>single</syllabic>
					<text>cors</text>
				</lyric>
				<lyric number="3">
					<syllabic>single</syllabic>
					<text>vcuil</text>
				</lyric>
			</note>
			<note>
				<pitch>
					<step>C</step>
					<octave>5</octave>
				</pitch>
				<duration>40</duration>
				<instrument id="P1-S0V0"/>
				<voice>1</voice>
				<type>eighth</type>
				<stem>down</stem>
				<staff>1</staff>
				<lyric number="1">
					<syllabic>begin</syllabic>
					<text>plti</text>
				</lyric>
				<lyric number="2">
					<syllabic>begin</syllabic>
					<text>treustous</text>
					<extend/>
				</lyric>
				<lyric number="3">
					<syllabic>begin</syllabic>
					<text>a</text>
				</lyric>
			</note>
			<backup>
				<duration>240</duration>
			</backup>
			<note>
				<pitch>
					<step>E</step>
					<octave>4</octave>
				</pitch>
				<duration>120</duration>
				<instrument id="P1-S1V0"/>
				<voice>5</voice>
				<type>quarter</type>
				<dot/>
				<stem>down</stem>
				<staff>2</staff>
			</note>
			<note>
				<pitch>
					<step>D</step>
					<octave>4</octave>
				</pitch>
				<duration>120</duration>
				<instrument id="P1-S1V0"/>
				<voice>5</voice>
				<type>quarter</type>
				<dot/>
				<stem>down</stem>
				<staff>2</staff>
			</note>
		</measure><!--
===========================================================
-->

		<measure number="7" width="233">
			<print new-system="no"></print>
			<attributes></attributes>
			<note>
				<pitch>
					<step>B</step>
					<octave>4</octave>
				</pitch>
				<duration>40</duration>
				<instrument id="P1-S0V0"/>
				<voice>1</voice>
				<type>eighth</type>
				<stem>down</stem>
				<staff>1</staff>
				<lyric number="3">
					<syllabic>end</syllabic>
					<text>mer</text>
				</lyric>
			</note>
			<note>
				<pitch>
					<step>A</step>
					<octave>4</octave>
				</pitch>
				<duration>80</duration>
				<instrument id="P1-S0V0"/>
				<voice>1</voice>
				<type>quarter</type>
				<stem>up</stem>
				<staff>1</staff>
				<lyric number="1">
					<syllabic>middle</syllabic>
					<text>sant,grl</text>
				</lyric>
				<lyric number="2">
					<syllabic>middle</syllabic>
					<text>dis,vrai</text>
				</lyric>
				<lyric number="3">
					<syllabic>single</syllabic>
					<text>tout</text>
				</lyric>
			</note>
			<note>
				<pitch>
					<step>G</step>
					<octave>4</octave>
				</pitch>
				<duration>40</duration>
				<instrument id="P1-S0V0"/>
				<voice>1</voice>
				<type>eighth</type>
				<stem>up</stem>
				<staff>1</staff>
				<lyric number="1">
					<syllabic>end</syllabic>
					<text>ci_eus</text>
				</lyric>
				<lyric number="2">
					<syllabic>end</syllabic>
					<text>e_ment</text>
				</lyric>
				<lyric number="3">
					<syllabic>single</syllabic>
					<text>mon</text>
				</lyric>
			</note>
			<note>
				<pitch>
					<step>D</step>
					<octave>5</octave>
				</pitch>
				<duration>80</duration>
				<instrument id="P1-S0V0"/>
				<voice>1</voice>
				<type>quarter</type>
				<stem>down</stem>
				<staff>1</staff>
				<lyric number="3">
					<syllabic>begin</syllabic>
					<text>i</text>
				</lyric>
			</note>
			<backup>
				<duration>240</duration>
			</backup>
			<note>
				<pitch>
					<step>F</step>
					<octave>4</octave>
				</pitch>
				<duration>120</duration>
				<instrument id="P1-S1V0"/>
				<voice>5</voice>
				<type>quarter</type>
				<dot/>
				<stem>down</stem>
				<staff>2</staff>
			</note>
			<note>
				<pitch>
					<step>G</step>
					<octave>4</octave>
				</pitch>
				<duration>80</duration>
				<instrument id="P1-S1V0"/>
				<voice>5</voice>
				<type>quarter</type>
				<stem>down</stem>
				<staff>2</staff>
			</note>
			<note>
				<pitch>
					<step>F</step>
					<octave>4</octave>
				</pitch>
				<duration>40</duration>
				<instrument id="P1-S1V0"/>
				<voice>5</voice>
				<type>eighth</type>
				<stem>down</stem>
				<staff>2</staff>
			</note>
		</measure><!--
===========================================================
-->

		<measure number="8" width="266">
			<print new-system="no"></print>
			<attributes></attributes>
			<note>
				<pitch>
					<step>C</step>
					<octave>5</octave>
				</pitch>
				<duration>60</duration>
				<instrument id="P1-S0V0"/>
				<voice>1</voice>
				<type>eighth</type>
				<dot/>
				<stem>down</stem>
				<staff>1</staff>
				<lyric number="1">
					<syllabic>single</syllabic>
					<text>et</text>
				</lyric>
				<lyric number="3">
					<syllabic>end</syllabic>
					<text>sans</text>
				</lyric>
				<lyric number="4">
					<syllabic>single</syllabic>
					<text>vant</text>
				</lyric>
			</note>
			<note>
				<pitch>
					<step>B</step>
					<octave>4</octave>
				</pitch>
				<duration>40</duration>
				<instrument id="P1-S0V0"/>
				<voice>1</voice>
				<type>eighth</type>
				<stem>up</stem>
				<staff>1</staff>
				<beam number="1">begin</beam>
				<lyric number="2">
					<syllabic>begin</syllabic>
					<text>jo</text>
				</lyric>
				<lyric number="3">
					<syllabic>begin</syllabic>
					<text>de</text>
				</lyric>
				<lyric number="4">
					<syllabic>begin</syllabic>
					<text>au</text>
				</lyric>
			</note>
			<backup>
				<duration>40</duration>
			</backup>
			<note>
				<pitch>
					<step>C</step>
					<octave>3</octave>
				</pitch>
				<duration>80</duration>
				<instrument id="P1-S0V1"/>
				<voice>2</voice>
				<type>quarter</type>
				<stem>up</stem>
				<staff>1</staff>
			</note>
			<backup>
				<duration>40</duration>
			</backup>
			<note>
				<pitch>
					<step>A</step>
					<octave>4</octave>
				</pitch>
				<duration>20</duration>
				<instrument id="P1-S0V0"/>
				<voice>1</voice>
				<type>16th</type>
				<stem>up</stem>
				<staff>1</staff>
				<beam number="1">end</beam>
				<beam number="2">backward hook</beam>
			</note>
			<direction placement="below">
				<direction-type>
					<dynamics>
						<fp/>
					</dynamics>
				</direction-type>
				<staff>1</staff>
				<sound dynamics="85"/>
			</direction>
			<note>
				<pitch>
					<step>C</step>
					<octave>5</octave>
				</pitch>
				<duration>40</duration>
				<instrument id="P1-S0V0"/>
				<voice>1</voice>
				<type>eighth</type>
				<stem>down</stem>
				<staff>1</staff>
				<lyric number="2">
					<syllabic>end</syllabic>
					<text>ly,</text>
				</lyric>
				<lyric number="3">
					<syllabic>end</syllabic>
					<text>tri,</text>
				</lyric>
				<lyric number="4">
					<syllabic>end</syllabic>
					<text>c</text>
				</lyric>
			</note>
			<backup>
				<duration>20</duration>
			</backup>
			<note>
				<rest/>
				<duration>40</duration>
				<voice>2</voice>
				<type>eighth</type>
				<staff>1</staff>
			</note>
			<backup>
				<duration>20</duration>
			</backup>
			<note>
				<pitch>
					<step>C</step>
					<octave>5</octave>
				</pitch>
				<duration>40</duration>
				<instrument id="P1-S0V0"/>
				<voice>1</voice>
				<type>eighth</type>
				<stem>down</stem>
				<staff>1</staff>
			</note>
			<backup>
				<duration>200</duration>
			</backup>
			<note>
				<pitch>
					<step>E</step>
					<octave>4</octave>
				</pitch>
				<duration>40</duration>
				<instrument id="P1-S1V0"/>
				<voice>5</voice>
				<type>eighth</type>
				<stem>down</stem>
				<staff>2</staff>
				<beam number="1">begin</beam>
			</note>
			<note>
				<pitch>
					<step>E</step>
					<octave>4</octave>
				</pitch>
				<duration>40</duration>
				<instrument id="P1-S1V0"/>
				<voice>5</voice>
				<type>eighth</type>
				<stem>down</stem>
				<staff>2</staff>
				<beam number="1">end</beam>
			</note>
			<note>
				<pitch>
					<step>C</step>
					<octave>4</octave>
				</pitch>
				<duration>120</duration>
				<instrument id="P1-S1V0"/>
				<voice>5</voice>
				<type>quarter</type>
				<dot/>
				<stem>down</stem>
				<staff>2</staff>
			</note>
			<forward>
				<duration>40</duration>
			</forward>
		</measure><!--
===========================================================
-->

		<measure number="9" width="262">
			<print new-system="yes">
				<system-layout>
					<system-margins>
						<left-margin>2</left-margin>
						<right-margin>5</right-margin>
					</system-margins>
					<system-distance>58</system-distance>
				</system-layout>
				<staff-layout number="2">
					<staff-distance>69</staff-distance>
				</staff-layout>
			</print>
			<attributes></attributes>
			<note>
				<pitch>
					<step>A</step>
					<octave>4</octave>
				</pitch>
				<duration>40</duration>
				<instrument id="P1-S0V0"/>
				<voice>1</voice>
				<type>eighth</type>
				<stem>up</stem>
				<staff>1</staff>
			</note>
			<note>
				<pitch>
					<step>G</step>
					<octave>4</octave>
				</pitch>
				<duration>80</duration>
				<instrument id="P1-S0V0"/>
				<voice>1</voice>
				<type>quarter</type>
				<stem>up</stem>
				<staff>1</staff>
			</note>
			<note>
				<pitch>
					<step>G</step>
					<octave>4</octave>
				</pitch>
				<duration>120</duration>
				<instrument id="P1-S0V0"/>
				<voice>1</voice>
				<type>quarter</type>
				<dot/>
				<stem>up</stem>
				<staff>1</staff>
			</note>
			<backup>
				<duration>240</duration>
			</backup>
			<note>
				<rest/>
				<duration>80</duration>
				<voice>5</voice>
				<type>quarter</type>
				<staff>2</staff>
			</note>
			<note>
				<pitch>
					<step>D</step>
					<octave>4</octave>
				</pitch>
				<duration>40</duration>
				<instrument id="P1-S1V0"/>
				<voice>5</voice>
				<type>eighth</type>
				<stem>down</stem>
				<staff>2</staff>
			</note>
			<note>
				<pitch>
					<step>B</step>
					<octave>3</octave>
				</pitch>
				<duration>40</duration>
				<instrument id="P1-S1V0"/>
				<voice>5</voice>
				<type>eighth</type>
				<stem>down</stem>
				<staff>2</staff>
			</note>
			<note>
				<pitch>
					<step>D</step>
					<octave>4</octave>
				</pitch>
				<duration>80</duration>
				<instrument id="P1-S1V0"/>
				<voice>5</voice>
				<type>quarter</type>
				<stem>down</stem>
				<staff>2</staff>
			</note>
		</measure><!--
===========================================================
-->

		<measure number="10" width="164">
			<print new-system="no"></print>
			<attributes></attributes>
			<direction placement="above">
				<direction-type>
					<words relative-x="3.8686" default-y="14.0191" font-family="Times New Roman" font-style="normal" font-size="9" font-weight="normal" color="#000000">l O</words>
				</direction-type>
				<staff>1</staff>
			</direction>
			<note>
				<pitch>
					<step>D</step>
					<octave>4</octave>
				</pitch>
				<duration>80</duration>
				<instrument id="P1-S0V0"/>
				<voice>1</voice>
				<type>quarter</type>
				<stem>up</stem>
				<staff>1</staff>
			</note>
			<note>
				<pitch>
					<step>E</step>
					<octave>4</octave>
				</pitch>
				<duration>40</duration>
				<instrument id="P1-S0V0"/>
				<voice>1</voice>
				<type>eighth</type>
				<stem>up</stem>
				<staff>1</staff>
			</note>
			<note>
				<pitch>
					<step>F</step>
					<octave>4</octave>
				</pitch>
				<duration>40</duration>
				<instrument id="P1-S0V0"/>
				<voice>1</voice>
				<type>eighth</type>
				<stem>up</stem>
				<staff>1</staff>
			</note>
			<note>
				<pitch>
					<step>G</step>
					<octave>4</octave>
				</pitch>
				<duration>80</duration>
				<instrument id="P1-S0V0"/>
				<voice>1</voice>
				<type>quarter</type>
				<stem>up</stem>
				<staff>1</staff>
			</note>
			<backup>
				<duration>240</duration>
			</backup>
			<note>
				<pitch>
					<step>D</step>
					<octave>4</octave>
				</pitch>
				<duration>120</duration>
				<instrument id="P1-S1V0"/>
				<voice>5</voice>
				<type>quarter</type>
				<dot/>
				<stem>down</stem>
				<staff>2</staff>
			</note>
			<note>
				<pitch>
					<step>C</step>
					<octave>4</octave>
				</pitch>
				<duration>160</duration>
				<instrument id="P1-S1V0"/>
				<voice>5</voice>
				<type>half</type>
				<stem>down</stem>
				<staff>2</staff>
			</note>
			<backup>
				<duration>40</duration>
			</backup>
		</measure><!--
===========================================================
-->

		<measure number="11" width="221">
			<print new-system="no"></print>
			<attributes></attributes>
			<note>
				<pitch>
					<step>A</step>
					<octave>4</octave>
				</pitch>
				<duration>40</duration>
				<instrument id="P1-S0V0"/>
				<voice>1</voice>
				<type>eighth</type>
				<stem>up</stem>
				<staff>1</staff>
				<lyric number="1">
					<syllabic>single</syllabic>
					<text>r</text>
				</lyric>
			</note>
			<note>
				<pitch>
					<step>B</step>
					<octave>4</octave>
				</pitch>
				<duration>80</duration>
				<instrument id="P1-S0V0"/>
				<voice>1</voice>
				<type>quarter</type>
				<stem>down</stem>
				<staff>1</staff>
			</note>
			<note>
				<pitch>
					<step>A</step>
					<octave>4</octave>
				</pitch>
				<duration>60</duration>
				<instrument id="P1-S0V0"/>
				<voice>1</voice>
				<type>eighth</type>
				<dot/>
				<stem>up</stem>
				<staff>1</staff>
				<beam number="1">begin</beam>
			</note>
			<note>
				<pitch>
					<step>G</step>
					<octave>4</octave>
				</pitch>
				<duration>20</duration>
				<instrument id="P1-S0V0"/>
				<voice>1</voice>
				<type>16th</type>
				<stem>up</stem>
				<staff>1</staff>
				<beam number="1">continue</beam>
				<beam number="2">begin</beam>
			</note>
			<note>
				<pitch>
					<step>G</step>
					<octave>4</octave>
				</pitch>
				<duration>10</duration>
				<instrument id="P1-S0V0"/>
				<voice>1</voice>
				<type>32nd</type>
				<stem>up</stem>
				<staff>1</staff>
				<beam number="1">continue</beam>
				<beam number="2">continue</beam>
				<beam number="3">forward hook</beam>
			</note>
			<note>
				<pitch>
					<step>F</step>
					<octave>4</octave>
				</pitch>
				<duration>20</duration>
				<instrument id="P1-S0V0"/>
				<voice>1</voice>
				<type>16th</type>
				<stem>up</stem>
				<staff>1</staff>
				<beam number="1">end</beam>
				<beam number="2">end</beam>
				<lyric number="1">
					<syllabic>single</syllabic>
					<text>-I</text>
				</lyric>
			</note>
			<backup>
				<duration>230</duration>
			</backup>
			<note>
				<pitch>
					<step>G</step>
					<octave>3</octave>
				</pitch>
				<duration>80</duration>
				<instrument id="P1-S1V0"/>
				<voice>5</voice>
				<type>quarter</type>
				<stem>down</stem>
				<staff>2</staff>
				<notations></notations>
			</note>
			<note>
				<pitch>
					<step>E</step>
					<octave>4</octave>
				</pitch>
				<duration>80</duration>
				<instrument id="P1-S1V0"/>
				<voice>5</voice>
				<type>quarter</type>
				<stem>down</stem>
				<staff>2</staff>
			</note>
			<note>
				<pitch>
					<step>B</step>
					<octave>3</octave>
				</pitch>
				<duration>80</duration>
				<instrument id="P1-S1V0"/>
				<voice>5</voice>
				<type>quarter</type>
				<stem>down</stem>
				<staff>2</staff>
			</note>
		</measure><!--
===========================================================
-->

		<measure number="12" width="117">
			<print new-system="no"></print>
			<attributes></attributes>
			<note>
				<pitch>
					<step>A</step>
					<octave>4</octave>
				</pitch>
				<duration>120</duration>
				<instrument id="P1-S0V0"/>
				<voice>1</voice>
				<type>quarter</type>
				<dot/>
				<stem>up</stem>
				<staff>1</staff>
				<notations>
					<fermata type="upright"/>
				</notations>
			</note>
			<note>
				<rest/>
				<duration>120</duration>
				<voice>1</voice>
				<type>quarter</type>
				<dot/>
				<staff>1</staff>
			</note>
			<backup>
				<duration>240</duration>
			</backup>
			<note>
				<pitch>
					<step>A</step>
					<octave>3</octave>
				</pitch>
				<duration>240</duration>
				<instrument id="P1-S1V0"/>
				<voice>5</voice>
				<type>half</type>
				<dot/>
				<stem>down</stem>
				<staff>2</staff>
				<notations>
					<fermata type="upright"/>
				</notations>
			</note>
			<note>
				<pitch>
					<step>C</step>
					<octave>5</octave>
				</pitch>
				<duration>120</duration>
				<instrument id="P1-S1V0"/>
				<voice>5</voice>
				<type>quarter</type>
				<dot/>
				<stem>up</stem>
				<staff>2</staff>
			</note>
			<backup>
				<duration>120</duration>
			</backup>
		</measure><!--
===========================================================
-->

		<measure number="13" width="192">
			<print new-system="no"></print>
			<attributes></attributes>
			<note>
				<pitch>
					<step>G</step>
					<octave>4</octave>
				</pitch>
				<duration>80</duration>
				<instrument id="P1-S0V0"/>
				<voice>1</voice>
				<type>quarter</type>
				<stem>up</stem>
				<staff>1</staff>
				<lyric number="1">
					<syllabic>single</syllabic>
					<text>_S.Tient</text>
				</lyric>
				<lyric number="2">
					<syllabic>single</syllabic>
					<text>G.Tres</text>
				</lyric>
			</note>
			<note>
				<pitch>
					<step>G</step>
					<octave>4</octave>
				</pitch>
				<duration>40</duration>
				<instrument id="P1-S0V0"/>
				<voice>1</voice>
				<type>eighth</type>
				<stem>up</stem>
				<staff>1</staff>
			</note>
			<note>
				<pitch>
					<step>F</step>
					<octave>4</octave>
				</pitch>
				<duration>40</duration>
				<instrument id="P1-S0V0"/>
				<voice>1</voice>
				<type>eighth</type>
				<stem>up</stem>
				<staff>1</staff>
				<lyric number="1">
					<syllabic>single</syllabic>
					<text>s1</text>
				</lyric>
				<lyric number="2">
					<syllabic>begin</syllabic>
					<text>loi-ao</text>
				</lyric>
			</note>
			<note>
				<pitch>
					<step>E</step>
					<octave>4</octave>
				</pitch>
				<duration>80</duration>
				<instrument id="P1-S0V0"/>
				<voice>1</voice>
				<type>quarter</type>
				<stem>up</stem>
				<staff>1</staff>
				<lyric number="1">
					<syllabic>single</syllabic>
					<text>mon</text>
				</lyric>
			</note>
			<backup>
				<duration>240</duration>
			</backup>
			<note>
				<pitch>
					<step>C</step>
					<octave>4</octave>
				</pitch>
				<duration>160</duration>
				<instrument id="P1-S1V0"/>
				<voice>5</voice>
				<type>half</type>
				<stem>down</stem>
				<staff>2</staff>
			</note>
			<forward>
				<duration>80</duration>
			</forward>
		</measure><!--
===========================================================
-->

		<measure number="14" width="239">
			<print new-system="yes">
				<system-layout>
					<system-margins>
						<left-margin>0</left-margin>
						<right-margin>7</right-margin>
					</system-margins>
					<system-distance>57</system-distance>
				</system-layout>
				<staff-layout number="2">
					<staff-distance>74</staff-distance>
				</staff-layout>
			</print>
			<attributes></attributes>
			<note>
				<pitch>
					<step>D</step>
					<octave>4</octave>
				</pitch>
				<duration>60</duration>
				<instrument id="P1-S0V0"/>
				<voice>1</voice>
				<type>eighth</type>
				<dot/>
				<stem>up</stem>
				<staff>1</staff>
				<beam number="1">begin</beam>
				<lyric number="1">
					<syllabic>single</syllabic>
					<text>cuer</text>
				</lyric>
				<lyric number="2">
					<syllabic>end</syllabic>
					<text>_ment</text>
				</lyric>
			</note>
			<note>
				<pitch>
					<step>E</step>
					<octave>4</octave>
				</pitch>
				<duration>20</duration>
				<instrument id="P1-S0V0"/>
				<voice>1</voice>
				<type>16th</type>
				<stem>up</stem>
				<staff>1</staff>
				<beam number="1">continue</beam>
				<beam number="2">begin</beam>
			</note>
			<note>
				<pitch>
					<step>F</step>
					<octave>4</octave>
				</pitch>
				<duration>20</duration>
				<instrument id="P1-S0V0"/>
				<voice>1</voice>
				<type>16th</type>
				<stem>up</stem>
				<staff>1</staff>
				<beam number="1">continue</beam>
				<beam number="2">continue</beam>
			</note>
			<note>
				<pitch>
					<step>D</step>
					<octave>4</octave>
				</pitch>
				<duration>20</duration>
				<instrument id="P1-S0V0"/>
				<voice>1</voice>
				<type>16th</type>
				<stem>up</stem>
				<staff>1</staff>
				<beam number="1">end</beam>
				<beam number="2">end</beam>
			</note>
			<note>
				<pitch>
					<step>E</step>
					<octave>4</octave>
				</pitch>
				<duration>80</duration>
				<instrument id="P1-S0V0"/>
				<voice>1</voice>
				<type>quarter</type>
				<stem>up</stem>
				<staff>1</staff>
				<lyric number="1">
					<syllabic>single</syllabic>
					<text>de</text>
				</lyric>
				<lyric number="2">
					<syllabic>single</syllabic>
					<text>et</text>
				</lyric>
			</note>
			<note>
				<pitch>
					<step>A</step>
					<octave>4</octave>
				</pitch>
				<duration>40</duration>
				<instrument id="P1-S0V0"/>
				<voice>1</voice>
				<type>eighth</type>
				<stem>up</stem>
				<staff>1</staff>
			</note>
			<backup>
				<duration>240</duration>
			</backup>
			<note>
				<pitch>
					<step>D</step>
					<octave>4</octave>
				</pitch>
				<duration>120</duration>
				<instrument id="P1-S1V0"/>
				<voice>5</voice>
				<type>quarter</type>
				<dot/>
				<stem>down</stem>
				<staff>2</staff>
			</note>
			<note>
				<pitch>
					<step>A</step>
					<octave>3</octave>
				</pitch>
				<duration>120</duration>
				<instrument id="P1-S1V0"/>
				<voice>5</voice>
				<type>quarter</type>
				<dot/>
				<stem>down</stem>
				<staff>2</staff>
			</note>
		</measure><!--
===========================================================
-->

		<measure number="15" width="251">
			<print new-system="no"></print>
			<attributes></attributes>
			<direction placement="above">
				<direction-type>
					<words relative-x="6.4259" default-y="18.9725" font-family="Times New Roman" font-style="normal" font-size="9" font-weight="normal" color="#000000">l 5</words>
				</direction-type>
				<staff>1</staff>
			</direction>
			<note>
				<pitch>
					<step>A</step>
					<octave>4</octave>
				</pitch>
				<duration>40</duration>
				<instrument id="P1-S0V0"/>
				<voice>1</voice>
				<type>eighth</type>
				<stem>up</stem>
				<staff>1</staff>
				<lyric number="1">
					<syllabic>single</syllabic>
					<text>tous</text>
				</lyric>
				<lyric number="2">
					<syllabic>begin</syllabic>
					<text>fin_ne</text>
				</lyric>
			</note>
			<note>
				<pitch>
					<step>C</step>
					<octave>5</octave>
				</pitch>
				<duration>40</duration>
				<instrument id="P1-S0V0"/>
				<voice>1</voice>
				<type>eighth</type>
				<stem>down</stem>
				<staff>1</staff>
				<beam number="1">begin</beam>
				<lyric number="1">
					<syllabic>single</syllabic>
					<text>les</text>
				</lyric>
				<lyric number="3">
					<syllabic>begin</syllabic>
					<text>r</text>
					<extend/>
				</lyric>
			</note>
			<note>
				<pitch>
					<step>B</step>
					<octave>4</octave>
				</pitch>
				<duration>40</duration>
				<instrument id="P1-S0V0"/>
				<voice>1</voice>
				<type>eighth</type>
				<stem>down</stem>
				<staff>1</staff>
				<beam number="1">end</beam>
			</note>
			<note>
				<pitch>
					<step>A</step>
					<octave>4</octave>
				</pitch>
				<duration>60</duration>
				<instrument id="P1-S0V0"/>
				<voice>1</voice>
				<type>eighth</type>
				<dot/>
				<stem>up</stem>
				<staff>1</staff>
				<beam number="1">begin</beam>
				<lyric number="1">
					<syllabic>single</syllabic>
					<text>biens</text>
				</lyric>
				<lyric number="2">
					<syllabic>end</syllabic>
					<text>ment</text>
				</lyric>
			</note>
			<note>
				<pitch>
					<step>G</step>
					<octave>4</octave>
				</pitch>
				<duration>20</duration>
				<instrument id="P1-S0V0"/>
				<voice>1</voice>
				<type>16th</type>
				<stem>up</stem>
				<staff>1</staff>
				<beam number="1">end</beam>
				<beam number="2">backward hook</beam>
			</note>
			<note>
				<pitch>
					<step>G</step>
					<octave>4</octave>
				</pitch>
				<duration>20</duration>
				<instrument id="P1-S0V0"/>
				<voice>1</voice>
				<type>16th</type>
				<stem>up</stem>
				<staff>1</staff>
				<beam number="1">begin</beam>
				<beam number="2">begin</beam>
				<lyric number="1">
					<syllabic>begin</syllabic>
					<text>rain</text>
				</lyric>
				<lyric number="2">
					<syllabic>single</syllabic>
					<text>sans</text>
				</lyric>
				<lyric number="3">
					<syllabic>end</syllabic>
					<text>-I</text>
				</lyric>
			</note>
			<note>
				<pitch>
					<step>F</step>
					<octave>4</octave>
				</pitch>
				<duration>20</duration>
				<instrument id="P1-S0V0"/>
				<voice>1</voice>
				<type>16th</type>
				<stem>up</stem>
				<staff>1</staff>
				<beam number="1">end</beam>
				<beam number="2">end</beam>
			</note>
			<backup>
				<duration>240</duration>
			</backup>
			<note>
				<pitch>
					<step>C</step>
					<octave>4</octave>
				</pitch>
				<duration>80</duration>
				<instrument id="P1-S1V0"/>
				<voice>5</voice>
				<type>quarter</type>
				<stem>down</stem>
				<staff>2</staff>
			</note>
			<note>
				<pitch>
					<step>D</step>
					<octave>4</octave>
				</pitch>
				<duration>80</duration>
				<instrument id="P1-S1V0"/>
				<voice>5</voice>
				<type>quarter</type>
				<stem>down</stem>
				<staff>2</staff>
			</note>
			<note>
				<pitch>
					<step>B</step>
					<octave>3</octave>
				</pitch>
				<duration>80</duration>
				<instrument id="P1-S1V0"/>
				<voice>5</voice>
				<type>quarter</type>
				<stem>down</stem>
				<staff>2</staff>
			</note>
		</measure><!--
===========================================================
-->

		<measure number="16" width="126">
			<print new-system="no"></print>
			<attributes></attributes>
			<note>
				<pitch>
					<step>A</step>
					<octave>4</octave>
				</pitch>
				<duration>120</duration>
				<instrument id="P1-S0V0"/>
				<voice>1</voice>
				<type>quarter</type>
				<dot/>
				<stem>up</stem>
				<staff>1</staff>
				<lyric number="1">
					<syllabic>end</syllabic>
					<text>pli</text>
				</lyric>
				<lyric number="2">
					<syllabic>single</syllabic>
					<text>sy,</text>
				</lyric>
			</note>
			<note>
				<rest/>
				<duration>80</duration>
				<voice>1</voice>
				<type>quarter</type>
				<staff>1</staff>
			</note>
			<backup>
				<duration>200</duration>
			</backup>
			<note>
				<pitch>
					<step>A</step>
					<octave>3</octave>
				</pitch>
				<duration>240</duration>
				<instrument id="P1-S1V0"/>
				<voice>5</voice>
				<type>half</type>
				<dot/>
				<stem>down</stem>
				<staff>2</staff>
			</note>
		</measure><!--
===========================================================
-->

		<measure number="17" width="157">
			<print new-system="no"></print>
			<attributes></attributes>
			<note>
				<pitch>
					<step>B</step>
					<octave>4</octave>
				</pitch>
				<duration>120</duration>
				<instrument id="P1-S0V0"/>
				<voice>1</voice>
				<type>quarter</type>
				<dot/>
				<stem>down</stem>
				<staff>1</staff>
				<lyric number="1">
					<syllabic>single</syllabic>
					<text>u</text>
				</lyric>
				<lyric number="2">
					<syllabic>single</syllabic>
					<text>Car</text>
				</lyric>
			</note>
			<note>
				<pitch>
					<step>D</step>
					<octave>3</octave>
				</pitch>
				<duration>80</duration>
				<instrument id="P1-S0V0"/>
				<voice>1</voice>
				<type>quarter</type>
				<stem>up</stem>
				<staff>1</staff>
			</note>
			<note>
				<pitch>
					<step>C</step>
					<octave>5</octave>
				</pitch>
				<duration>80</duration>
				<instrument id="P1-S0V0"/>
				<voice>1</voice>
				<type>quarter</type>
				<stem>down</stem>
				<staff>1</staff>
				<lyric number="1">
					<syllabic>single</syllabic>
					<text>j&apos;ai</text>
				</lyric>
				<lyric number="3">
					<syllabic>single</syllabic>
					<text>je</text>
				</lyric>
			</note>
			<note>
				<pitch>
					<step>C</step>
					<octave>5</octave>
				</pitch>
				<duration>40</duration>
				<instrument id="P1-S0V0"/>
				<voice>1</voice>
				<type>eighth</type>
				<stem>down</stem>
				<staff>1</staff>
				<lyric number="1">
					<syllabic>begin</syllabic>
					<text>m&apos;a</text>
				</lyric>
				<lyric number="3">
					<syllabic>single</syllabic>
					<text>puis</text>
				</lyric>
			</note>
			<backup>
				<duration>320</duration>
			</backup>
			<note>
				<pitch>
					<step>G</step>
					<octave>3</octave>
				</pitch>
				<duration>120</duration>
				<instrument id="P1-S1V0"/>
				<voice>5</voice>
				<type>quarter</type>
				<dot/>
				<stem>down</stem>
				<staff>2</staff>
				<notations></notations>
			</note>
			<note>
				<pitch>
					<step>E</step>
					<octave>4</octave>
				</pitch>
				<duration>120</duration>
				<instrument id="P1-S1V0"/>
				<voice>5</voice>
				<type>quarter</type>
				<dot/>
				<stem>down</stem>
				<staff>2</staff>
			</note>
		</measure><!--
===========================================================
-->

		<measure number="18" width="182">
			<print new-system="no"></print>
			<attributes></attributes>
			<note>
				<pitch>
					<step>D</step>
					<octave>5</octave>
				</pitch>
				<duration>160</duration>
				<instrument id="P1-S0V0"/>
				<voice>1</voice>
				<type>half</type>
				<stem>down</stem>
				<staff>1</staff>
				<lyric number="1">
					<syllabic>end</syllabic>
					<text>mour</text>
				</lyric>
				<lyric number="2">
					<syllabic>single</syllabic>
					<text>bien</text>
				</lyric>
			</note>
			<note>
				<pitch>
					<step>B</step>
					<octave>4</octave>
				</pitch>
				<duration>40</duration>
				<instrument id="P1-S0V0"/>
				<voice>1</voice>
				<type>eighth</type>
				<stem>down</stem>
				<staff>1</staff>
				<beam number="1">begin</beam>
				<lyric number="1">
					<syllabic>single</syllabic>
					<text>a</text>
				</lyric>
				<lyric number="2">
					<syllabic>begin</syllabic>
					<text>li</text>
				</lyric>
			</note>
			<note>
				<pitch>
					<step>C</step>
					<octave>5</octave>
				</pitch>
				<duration>40</duration>
				<instrument id="P1-S0V0"/>
				<voice>1</voice>
				<type>eighth</type>
				<stem>down</stem>
				<staff>1</staff>
				<beam number="1">end</beam>
			</note>
			<backup>
				<duration>240</duration>
			</backup>
			<note>
				<pitch>
					<step>D</step>
					<octave>4</octave>
				</pitch>
				<duration>120</duration>
				<instrument id="P1-S1V0"/>
				<voice>5</voice>
				<type>quarter</type>
				<dot/>
				<stem>down</stem>
				<staff>2</staff>
			</note>
			<note>
				<pitch>
					<step>G</step>
					<octave>3</octave>
				</pitch>
				<duration>40</duration>
				<instrument id="P1-S1V0"/>
				<voice>5</voice>
				<type>eighth</type>
				<stem>down</stem>
				<staff>2</staff>
			</note>
			<note>
				<pitch>
					<step>E</step>
					<octave>4</octave>
				</pitch>
				<duration>80</duration>
				<instrument id="P1-S1V0"/>
				<voice>5</voice>
				<type>quarter</type>
				<stem>down</stem>
				<staff>2</staff>
			</note>
		</measure><!--
===========================================================
-->

		<measure number="19" width="217">
			<print new-system="yes">
				<system-layout>
					<system-margins>
						<left-margin>0</left-margin>
						<right-margin>10</right-margin>
					</system-margins>
					<system-distance>57</system-distance>
				</system-layout>
				<staff-layout number="2">
					<staff-distance>81</staff-distance>
				</staff-layout>
			</print>
			<attributes></attributes>
			<note>
				<pitch>
					<step>A</step>
					<octave>4</octave>
				</pitch>
				<duration>80</duration>
				<instrument id="P1-S0V0"/>
				<voice>1</voice>
				<type>quarter</type>
				<stem>up</stem>
				<staff>1</staff>
				<lyric number="1">
					<syllabic>single</syllabic>
					<text>ly</text>
				</lyric>
				<lyric number="2">
					<syllabic>end</syllabic>
					<text>-re</text>
				</lyric>
			</note>
			<note>
				<pitch>
					<step>A</step>
					<octave>4</octave>
				</pitch>
				<duration>40</duration>
				<instrument id="P1-S0V0"/>
				<voice>1</voice>
				<type>eighth</type>
				<stem>up</stem>
				<staff>1</staff>
				<lyric number="1">
					<syllabic>single</syllabic>
					<text>du</text>
				</lyric>
				<lyric number="2">
					<syllabic>begin</syllabic>
					<text>sansde_mou</text>
				</lyric>
			</note>
			<note>
				<pitch>
					<step>B</step>
					<octave>4</octave>
				</pitch>
				<duration>40</duration>
				<instrument id="P1-S0V0"/>
				<voice>1</voice>
				<type>eighth</type>
				<stem>down</stem>
				<staff>1</staff>
			</note>
			<note>
				<pitch>
					<step>C</step>
					<octave>5</octave>
				</pitch>
				<duration>80</duration>
				<instrument id="P1-S0V0"/>
				<voice>1</voice>
				<type>quarter</type>
				<stem>down</stem>
				<staff>1</staff>
				<lyric number="1">
					<syllabic>begin</syllabic>
					<text>toutdon</text>
				</lyric>
			</note>
			<backup>
				<duration>240</duration>
			</backup>
			<note>
				<pitch>
					<step>F</step>
					<octave>4</octave>
				</pitch>
				<duration>120</duration>
				<instrument id="P1-S1V0"/>
				<voice>5</voice>
				<type>quarter</type>
				<dot/>
				<stem>down</stem>
				<staff>2</staff>
			</note>
			<note>
				<pitch>
					<step>E</step>
					<octave>4</octave>
				</pitch>
				<duration>120</duration>
				<instrument id="P1-S1V0"/>
				<voice>5</voice>
				<type>quarter</type>
				<dot/>
				<stem>down</stem>
				<staff>2</staff>
			</note>
		</measure><!--
===========================================================
-->

		<measure number="20" width="120">
			<print new-system="no"></print>
			<attributes></attributes>
			<direction placement="above">
				<direction-type>
					<words relative-x="0.8500" default-y="21.6128" font-family="Times New Roman" font-style="normal" font-size="9" font-weight="normal" color="#000000">2 O</words>
				</direction-type>
				<staff>1</staff>
			</direction>
			<note>
				<pitch>
					<step>D</step>
					<octave>5</octave>
				</pitch>
				<duration>160</duration>
				<instrument id="P1-S0V0"/>
				<voice>1</voice>
				<type>half</type>
				<stem>down</stem>
				<staff>1</staff>
				<lyric number="1">
					<syllabic>middle</syllabic>
					<text>ne</text>
				</lyric>
				<lyric number="2">
					<syllabic>middle</syllabic>
					<text>re</text>
				</lyric>
			</note>
			<note>
				<pitch>
					<step>B</step>
					<octave>4</octave>
				</pitch>
				<duration>80</duration>
				<instrument id="P1-S0V0"/>
				<voice>1</voice>
				<type>quarter</type>
				<stem>down</stem>
				<staff>1</staff>
			</note>
			<backup>
				<duration>240</duration>
			</backup>
			<note>
				<pitch>
					<step>D</step>
					<octave>4</octave>
				</pitch>
				<duration>240</duration>
				<instrument id="P1-S1V0"/>
				<voice>5</voice>
				<type>half</type>
				<dot/>
				<stem>down</stem>
				<staff>2</staff>
			</note>
		</measure><!--
===========================================================
-->

		<measure number="21" width="148">
			<print new-system="no"></print>
			<attributes></attributes>
			<note>
				<pitch>
					<step>C</step>
					<octave>5</octave>
				</pitch>
				<duration>40</duration>
				<instrument id="P1-S0V0"/>
				<voice>1</voice>
				<type>eighth</type>
				<stem>down</stem>
				<staff>1</staff>
			</note>
			<note>
				<pitch>
					<step>A</step>
					<octave>4</octave>
				</pitch>
				<duration>80</duration>
				<instrument id="P1-S0V0"/>
				<voice>1</voice>
				<type>quarter</type>
				<stem>up</stem>
				<staff>1</staff>
			</note>
			<note>
				<pitch>
					<step>G</step>
					<octave>4</octave>
				</pitch>
				<duration>80</duration>
				<instrument id="P1-S0V0"/>
				<voice>1</voice>
				<type>quarter</type>
				<stem>up</stem>
				<staff>1</staff>
			</note>
			<backup>
				<duration>200</duration>
			</backup>
			<note>
				<pitch>
					<step>C</step>
					<octave>4</octave>
				</pitch>
				<duration>80</duration>
				<instrument id="P1-S1V0"/>
				<voice>5</voice>
				<type>quarter</type>
				<stem>down</stem>
				<staff>2</staff>
			</note>
			<note>
				<pitch>
					<step>G</step>
					<octave>3</octave>
				</pitch>
				<duration>120</duration>
				<instrument id="P1-S1V0"/>
				<voice>5</voice>
				<type>quarter</type>
				<dot/>
				<stem>down</stem>
				<staff>2</staff>
			</note>
			<forward>
				<duration>40</duration>
			</forward>
		</measure><!--
===========================================================
-->

		<measure number="22" width="171">
			<print new-system="no"></print>
			<attributes></attributes>
			<note>
				<pitch>
					<step>A</step>
					<octave>4</octave>
				</pitch>
				<duration>80</duration>
				<instrument id="P1-S0V0"/>
				<voice>1</voice>
				<type>quarter</type>
				<stem>up</stem>
				<staff>1</staff>
			</note>
			<note>
				<pitch>
					<step>G</step>
					<octave>4</octave>
				</pitch>
				<duration>20</duration>
				<instrument id="P1-S0V0"/>
				<voice>1</voice>
				<type>16th</type>
				<stem>up</stem>
				<staff>1</staff>
				<beam number="1">begin</beam>
				<beam number="2">begin</beam>
			</note>
			<note>
				<pitch>
					<step>F</step>
					<octave>4</octave>
				</pitch>
				<duration>20</duration>
				<instrument id="P1-S0V0"/>
				<voice>1</voice>
				<type>16th</type>
				<stem>up</stem>
				<staff>1</staff>
				<beam number="1">end</beam>
				<beam number="2">end</beam>
			</note>
			<note>
				<pitch>
					<step>G</step>
					<octave>4</octave>
				</pitch>
				<duration>40</duration>
				<instrument id="P1-S0V0"/>
				<voice>1</voice>
				<type>eighth</type>
				<stem>up</stem>
				<staff>1</staff>
			</note>
			<backup>
				<duration>160</duration>
			</backup>
			<note>
				<pitch>
					<step>F</step>
					<octave>3</octave>
				</pitch>
				<duration>80</duration>
				<instrument id="P1-S1V0"/>
				<voice>5</voice>
				<type>quarter</type>
				<stem>down</stem>
				<staff>2</staff>
			</note>
			<note>
				<pitch>
					<step>G</step>
					<octave>3</octave>
				</pitch>
				<duration>40</duration>
				<instrument id="P1-S1V0"/>
				<voice>5</voice>
				<type>eighth</type>
				<stem>down</stem>
				<staff>2</staff>
			</note>
			<note>
				<pitch>
					<step>C</step>
					<octave>4</octave>
				</pitch>
				<duration>80</duration>
				<instrument id="P1-S1V0"/>
				<voice>5</voice>
				<type>quarter</type>
				<stem>down</stem>
				<staff>2</staff>
			</note>
			<forward>
				<duration>40</duration>
			</forward>
		</measure><!--
===========================================================
-->

		<measure number="23" width="213">
			<print new-system="no"></print>
			<attributes>
				<key>
					<fifths>-1</fifths>
				</key>
			</attributes>
			<note>
				<pitch>
					<step>B</step>
					<alter>-1</alter>
					<octave>4</octave>
				</pitch>
				<duration>40</duration>
				<instrument id="P1-S0V0"/>
				<voice>1</voice>
				<type>eighth</type>
				<stem>up</stem>
				<staff>1</staff>
				<beam number="1">begin</beam>
			</note>
			<note>
				<pitch>
					<step>A</step>
					<octave>4</octave>
				</pitch>
				<duration>40</duration>
				<instrument id="P1-S0V0"/>
				<voice>1</voice>
				<type>eighth</type>
				<stem>up</stem>
				<staff>1</staff>
				<beam number="1">end</beam>
			</note>
			<note>
				<pitch>
					<step>G</step>
					<octave>4</octave>
				</pitch>
				<duration>60</duration>
				<instrument id="P1-S0V0"/>
				<voice>1</voice>
				<type>eighth</type>
				<dot/>
				<stem>up</stem>
				<staff>1</staff>
				<beam number="1">begin</beam>
			</note>
			<note>
				<pitch>
					<step>F</step>
					<octave>4</octave>
				</pitch>
				<duration>20</duration>
				<instrument id="P1-S0V0"/>
				<voice>1</voice>
				<type>16th</type>
				<stem>up</stem>
				<staff>1</staff>
				<beam number="1">continue</beam>
				<beam number="2">begin</beam>
			</note>
			<note>
				<pitch>
					<step>F</step>
					<octave>4</octave>
				</pitch>
				<duration>20</duration>
				<instrument id="P1-S0V0"/>
				<voice>1</voice>
				<type>16th</type>
				<stem>up</stem>
				<staff>1</staff>
				<beam number="1">continue</beam>
				<beam number="2">continue</beam>
				<lyric number="3">
					<syllabic>single</syllabic>
					<text>-I</text>
				</lyric>
			</note>
			<note>
				<pitch>
					<step>E</step>
					<octave>4</octave>
				</pitch>
				<duration>20</duration>
				<instrument id="P1-S0V0"/>
				<voice>1</voice>
				<type>16th</type>
				<stem>up</stem>
				<staff>1</staff>
				<beam number="1">end</beam>
				<beam number="2">end</beam>
			</note>
			<backup>
				<duration>200</duration>
			</backup>
			<note>
				<pitch>
					<step>A</step>
					<octave>3</octave>
				</pitch>
				<duration>80</duration>
				<instrument id="P1-S1V0"/>
				<voice>5</voice>
				<type>quarter</type>
				<stem>down</stem>
				<staff>2</staff>
			</note>
			<forward>
				<duration>160</duration>
			</forward>
		</measure><!--
===========================================================
-->

		<measure number="24" width="82">
			<print new-system="no"></print>
			<attributes></attributes>
			<note>
				<pitch>
					<step>G</step>
					<octave>4</octave>
				</pitch>
				<duration>320</duration>
				<instrument id="P1-S0V0"/>
				<voice>1</voice>
				<type>whole</type>
				<stem>none</stem>
				<staff>1</staff>
				<lyric number="1">
					<syllabic>end</syllabic>
					<text>-e.</text>
				</lyric>
				<lyric number="2">
					<syllabic>end</syllabic>
					<text>e</text>
				</lyric>
			</note>
			<backup>
				<duration>320</duration>
			</backup>
			<note>
				<pitch>
					<step>G</step>
					<octave>3</octave>
				</pitch>
				<duration>320</duration>
				<instrument id="P1-S1V0"/>
				<voice>5</voice>
				<type>whole</type>
				<stem>none</stem>
				<staff>2</staff>
			</note>
			<backup>
				<duration>80</duration>
			</backup>
			<barline location="right">
				<bar-style>light-heavy</bar-style>
			</barline>
		</measure>
	</part>
</score-partwise>