<?xml version="1.0" encoding="UTF-8" standalone="no"?>
<!DOCTYPE score-partwise PUBLIC "-//Recordare//DTD MusicXML 1.1 Partwise//EN" "http://www.musicxml.org/dtds/partwise.dtd">

<score-partwise version="2.0">
	<movement-title></movement-title>
	<identification>
		<creator type="composer"></creator>
		<encoding>
			<software>SmartScore X2 Pro</software>
			<encoding-date>2016-05-15</encoding-date>
			<supports attribute="new-system" element="print" type="yes" value="yes"/>
			<supports attribute="new-page" element="print" type="yes" value="yes"/>
		</encoding>
	</identification>
	<defaults>
		<scaling>
			<millimeters>6.00</millimeters>
			<tenths>40</tenths>
		</scaling>
	</defaults>
	<part-list>
		<score-part id="P1">
			<part-name>Flute</part-name>
			<part-abbreviation>Flu</part-abbreviation>
			<score-instrument id="P1-S0V0">
				<instrument-name>Flute</instrument-name>
			</score-instrument>
			<midi-instrument id="P1-S0V0">
				<midi-channel>1</midi-channel>
				<midi-program>74</midi-program>
				<volume>78</volume>
				<pan>0</pan>
			</midi-instrument>
		</score-part>
		<score-part id="P2">
			<part-name>Nylon Guitar</part-name>
			<part-abbreviation>GuitNyl</part-abbreviation>
			<score-instrument id="P2-S0V0">
				<instrument-name>Nylon String Guit.</instrument-name>
			</score-instrument>
			<midi-instrument id="P2-S0V0">
				<midi-channel>2</midi-channel>
				<midi-program>25</midi-program>
				<volume>78</volume>
				<pan>0</pan>
			</midi-instrument>
		</score-part>
		<score-part id="P3">
			<part-name>Trombone</part-name>
			<part-abbreviation>Trbn</part-abbreviation>
			<score-instrument id="P3-S0V0">
				<instrument-name>Trombone</instrument-name>
			</score-instrument>
			<midi-instrument id="P3-S0V0">
				<midi-channel>3</midi-channel>
				<midi-program>58</midi-program>
				<volume>78</volume>
				<pan>0</pan>
			</midi-instrument>
		</score-part>
	</part-list><!--
===========================================================
-->

	<part id="P1">
		<measure number="1" width="313">
			<print>
				<page-layout>
					<page-height>1881.48</page-height>
					<page-width>1453.87</page-width>
					<page-margins>
						<left-margin>194.98</left-margin>
						<right-margin>298.46</right-margin>
						<top-margin>127.00</top-margin>
						<bottom-margin>63.50</bottom-margin>
					</page-margins>
				</page-layout>
				<system-layout>
					<system-margins>
						<left-margin>64</left-margin>
						<right-margin>0</right-margin>
					</system-margins>
					<top-system-distance>212</top-system-distance>
				</system-layout>
			</print>
			<attributes>
				<divisions>20</divisions>
				<key>
					<fifths>0</fifths>
				</key>
				<time symbol="common">
					<beats>4</beats>
					<beat-type>4</beat-type>
				</time>
				<clef>
					<sign>G</sign>
					<line>2</line>
				</clef>
				<staff-details number="1" print-object="yes">
					<staff-size>72</staff-size>
				</staff-details>
			</attributes>
			<attributes></attributes>
			<note>
				<rest/>
				<duration>10</duration>
				<voice>1</voice>
				<type>eighth</type>
			</note>
			<note>
				<pitch>
					<step>D</step>
					<octave>4</octave>
				</pitch>
				<duration>20</duration>
				<voice>1</voice>
				<type>quarter</type>
				<stem>up</stem>
			</note>
			<note>
				<pitch>
					<step>F</step>
					<octave>4</octave>
				</pitch>
				<duration>20</duration>
				<voice>1</voice>
				<type>quarter</type>
				<stem>up</stem>
			</note>
			<note>
				<pitch>
					<step>D</step>
					<octave>4</octave>
				</pitch>
				<duration>20</duration>
				<voice>1</voice>
				<type>quarter</type>
				<stem>up</stem>
			</note>
			<note>
				<pitch>
					<step>C</step>
					<octave>4</octave>
				</pitch>
				<duration>20</duration>
				<voice>1</voice>
				<type>quarter</type>
				<stem>up</stem>
			</note>
			<note>
				<pitch>
					<step>D</step>
					<octave>4</octave>
				</pitch>
				<duration>20</duration>
				<voice>1</voice>
				<type>quarter</type>
				<stem>up</stem>
			</note>
			<note>
				<rest/>
				<duration>10</duration>
				<voice>1</voice>
				<type>eighth</type>
			</note>
			<direction placement="above">
				<direction-type>
					<words relative-x="-190.7726" default-y="86.4873" font-family="Times New Roman" font-style="normal" font-size="17" font-weight="normal" color="#000000">Guillaume Le Grant</words>
				</direction-type>
				<staff>1</staff>
			</direction>
			<note>
				<pitch>
					<step>F</step>
					<octave>4</octave>
				</pitch>
				<duration>10</duration>
				<voice>1</voice>
				<type>eighth</type>
				<stem>up</stem>
				<lyric number="1">
					<syllabic>single</syllabic>
					<text>Pour</text>
				</lyric>
			</note>
			<backup>
				<duration>50</duration>
			</backup>
		</measure><!--
===========================================================
-->

		<measure number="2" width="171">
			<print new-system="no"></print>
			<attributes></attributes>
			<note>
				<pitch>
					<step>F</step>
					<octave>4</octave>
				</pitch>
				<duration>20</duration>
				<voice>1</voice>
				<type>quarter</type>
				<stem>up</stem>
				<lyric number="1">
					<syllabic>single</syllabic>
					<text>la</text>
				</lyric>
			</note>
			<note>
				<pitch>
					<step>A</step>
					<octave>4</octave>
				</pitch>
				<duration>20</duration>
				<voice>1</voice>
				<type>quarter</type>
				<stem>up</stem>
				<lyric number="1">
					<syllabic>single</syllabic>
					<text>-mour</text>
				</lyric>
			</note>
			<note>
				<pitch>
					<step>C</step>
					<octave>5</octave>
				</pitch>
				<duration>20</duration>
				<voice>1</voice>
				<type>quarter</type>
				<stem>down</stem>
				<lyric number="1">
					<syllabic>single</syllabic>
					<text>de</text>
				</lyric>
			</note>
			<note>
				<pitch>
					<step>B</step>
					<octave>4</octave>
				</pitch>
				<duration>20</duration>
				<voice>1</voice>
				<type>quarter</type>
				<stem>down</stem>
				<lyric number="1">
					<syllabic>single</syllabic>
					<text>mon</text>
				</lyric>
			</note>
		</measure><!--
===========================================================
-->

		<measure number="3" width="169">
			<print new-system="no"></print>
			<attributes></attributes>
			<note>
				<pitch>
					<step>A</step>
					<octave>4</octave>
				</pitch>
				<duration>20</duration>
				<voice>1</voice>
				<type>quarter</type>
				<stem>up</stem>
				<lyric number="1">
					<syllabic>single</syllabic>
					<text>el</text>
				</lyric>
			</note>
			<note>
				<pitch>
					<step>G</step>
					<octave>4</octave>
				</pitch>
				<duration>20</duration>
				<voice>1</voice>
				<type>quarter</type>
				<stem>up</stem>
				<lyric number="1">
					<syllabic>begin</syllabic>
					<text>a</text>
				</lyric>
			</note>
			<note>
				<pitch>
					<step>A</step>
					<octave>4</octave>
				</pitch>
				<duration>20</duration>
				<voice>1</voice>
				<type>quarter</type>
				<stem>up</stem>
				<lyric number="1">
					<syllabic>end</syllabic>
					<text>my</text>
				</lyric>
			</note>
			<note>
				<rest/>
				<duration>10</duration>
				<voice>1</voice>
				<type>eighth</type>
				<lyric number="1">
					<syllabic>single</syllabic>
					<text>ll</text>
				</lyric>
			</note>
			<note>
				<pitch>
					<step>A</step>
					<octave>4</octave>
				</pitch>
				<duration>10</duration>
				<voice>1</voice>
				<type>eighth</type>
				<stem>up</stem>
				<lyric number="1">
					<syllabic>single</syllabic>
					<text>cest</text>
				</lyric>
			</note>
		</measure><!--
===========================================================
-->

		<measure number="4" width="242">
			<print new-system="no"></print>
			<attributes></attributes>
			<note>
				<pitch>
					<step>A</step>
					<octave>4</octave>
				</pitch>
				<duration>20</duration>
				<voice>1</voice>
				<type>quarter</type>
				<stem>up</stem>
				<lyric number="1">
					<syllabic>begin</syllabic>
					<text>e</text>
				</lyric>
			</note>
			<note>
				<pitch>
					<step>B</step>
					<octave>4</octave>
				</pitch>
				<duration>20</duration>
				<voice>1</voice>
				<type>quarter</type>
				<stem>down</stem>
				<lyric number="1">
					<syllabic>end</syllabic>
					<text>ste</text>
				</lyric>
			</note>
			<note>
				<pitch>
					<step>A</step>
					<octave>4</octave>
				</pitch>
				<duration>20</duration>
				<voice>1</voice>
				<type>quarter</type>
				<stem>up</stem>
				<lyric number="1">
					<syllabic>single</syllabic>
					<text>me</text>
				</lyric>
			</note>
			<note>
				<pitch>
					<step>G</step>
					<octave>4</octave>
				</pitch>
				<duration>20</duration>
				<voice>1</voice>
				<type>quarter</type>
				<stem>up</stem>
				<lyric number="1">
					<syllabic>single</syllabic>
					<text>ten-</text>
				</lyric>
			</note>
			<note>
				<pitch>
					<step>D</step>
					<octave>4</octave>
				</pitch>
				<duration>20</duration>
				<voice>1</voice>
				<type>quarter</type>
				<stem>up</stem>
				<lyric number="1">
					<syllabic>single</syllabic>
					<text>ray</text>
				</lyric>
			</note>
			<note>
				<pitch>
					<step>F</step>
					<octave>4</octave>
				</pitch>
				<duration>20</duration>
				<voice>1</voice>
				<type>quarter</type>
				<stem>up</stem>
				<lyric number="1">
					<syllabic>single</syllabic>
					<text>joy</text>
				</lyric>
			</note>
			<backup>
				<duration>40</duration>
			</backup>
		</measure><!--
===========================================================
-->

		<measure number="5" width="213">
			<print new-system="yes">
				<system-layout>
					<system-margins>
						<left-margin>0</left-margin>
						<right-margin>2</right-margin>
					</system-margins>
					<system-distance>119</system-distance>
				</system-layout>
			</print>
			<attributes></attributes>
			<note>
				<pitch>
					<step>E</step>
					<octave>4</octave>
				</pitch>
				<duration>20</duration>
				<voice>1</voice>
				<type>quarter</type>
				<stem>up</stem>
				<lyric number="1">
					<syllabic>begin</syllabic>
					<text>eu</text>
				</lyric>
			</note>
			<note>
				<pitch>
					<step>D</step>
					<octave>4</octave>
				</pitch>
				<duration>20</duration>
				<voice>1</voice>
				<type>quarter</type>
				<stem>up</stem>
			</note>
			<direction placement="above">
				<direction-type>
					<words relative-x="2.8260" default-y="102.4378" font-family="Times New Roman" font-style="normal" font-size="8" font-weight="normal" color="#000000">TENOR</words>
				</direction-type>
				<staff>1</staff>
			</direction>
			<note>
				<pitch>
					<step>E</step>
					<octave>4</octave>
				</pitch>
				<duration>20</duration>
				<voice>1</voice>
				<type>quarter</type>
				<stem>up</stem>
				<lyric number="1">
					<syllabic>end</syllabic>
					<text>se,ll</text>
				</lyric>
			</note>
			<note>
				<rest/>
				<duration>10</duration>
				<voice>1</voice>
				<type>eighth</type>
			</note>
			<note>
				<pitch>
					<step>C</step>
					<octave>4</octave>
				</pitch>
				<duration>10</duration>
				<voice>1</voice>
				<type>eighth</type>
				<stem>up</stem>
				<lyric number="1">
					<syllabic>single</syllabic>
					<text>et</text>
				</lyric>
			</note>
		</measure><!--
===========================================================
-->

		<measure number="6" width="240">
			<print new-system="no"></print>
			<attributes></attributes>
			<note>
				<pitch>
					<step>F</step>
					<octave>4</octave>
				</pitch>
				<duration>20</duration>
				<voice>1</voice>
				<type>quarter</type>
				<stem>up</stem>
				<lyric number="1">
					<syllabic>single</syllabic>
					<text>de</text>
				</lyric>
			</note>
			<note>
				<pitch>
					<step>E</step>
					<octave>4</octave>
				</pitch>
				<duration>20</duration>
				<voice>1</voice>
				<type>quarter</type>
				<stem>up</stem>
				<lyric number="1">
					<syllabic>single</syllabic>
					<text>la-</text>
				</lyric>
			</note>
			<note>
				<pitch>
					<step>G</step>
					<octave>4</octave>
				</pitch>
				<duration>20</duration>
				<voice>1</voice>
				<type>quarter</type>
				<stem>up</stem>
				<lyric number="1">
					<syllabic>single</syllabic>
					<text>mer</text>
				</lyric>
			</note>
			<note>
				<pitch>
					<step>A</step>
					<octave>4</octave>
				</pitch>
				<duration>20</duration>
				<voice>1</voice>
				<type>quarter</type>
				<stem>up</stem>
				<lyric number="1">
					<syllabic>single</syllabic>
					<text>se</text>
				</lyric>
			</note>
			<note>
				<pitch>
					<step>B</step>
					<octave>4</octave>
				</pitch>
				<duration>20</duration>
				<voice>1</voice>
				<type>quarter</type>
				<stem>up</stem>
				<notations>
					<articulations>
						<staccato placement="above"/>
					</articulations>
				</notations>
				<lyric number="1">
					<syllabic>single</syllabic>
					<text>ray</text>
				</lyric>
			</note>
			<note>
				<pitch>
					<step>A</step>
					<octave>4</octave>
				</pitch>
				<duration>20</duration>
				<voice>1</voice>
				<type>quarter</type>
				<stem>up</stem>
				<lyric number="1">
					<syllabic>begin</syllabic>
					<text>son</text>
				</lyric>
			</note>
			<backup>
				<duration>40</duration>
			</backup>
		</measure><!--
===========================================================
-->

		<measure number="7" width="178">
			<print new-system="no"></print>
			<attributes></attributes>
			<note>
				<pitch>
					<step>G</step>
					<octave>4</octave>
				</pitch>
				<duration>20</duration>
				<voice>1</voice>
				<type>quarter</type>
				<stem>up</stem>
				<lyric number="1">
					<syllabic>middle</syllabic>
					<text>gneu</text>
				</lyric>
			</note>
			<note>
				<pitch>
					<step>F</step>
					<octave>4</octave>
				</pitch>
				<duration>20</duration>
				<voice>1</voice>
				<type>quarter</type>
				<stem>up</stem>
			</note>
			<note>
				<pitch>
					<step>G</step>
					<octave>4</octave>
				</pitch>
				<duration>20</duration>
				<voice>1</voice>
				<type>quarter</type>
				<stem>up</stem>
				<lyric number="1">
					<syllabic>end</syllabic>
					<text>se</text>
				</lyric>
			</note>
			<note>
				<rest/>
				<duration>10</duration>
				<voice>1</voice>
				<type>eighth</type>
				<lyric number="1">
					<syllabic>single</syllabic>
					<text>ll</text>
				</lyric>
			</note>
			<note>
				<pitch>
					<step>E</step>
					<octave>4</octave>
				</pitch>
				<duration>10</duration>
				<voice>1</voice>
				<type>eighth</type>
				<stem>up</stem>
				<lyric number="1">
					<syllabic>single</syllabic>
					<text>uant</text>
				</lyric>
			</note>
		</measure><!--
===========================================================
-->

		<measure number="8" width="170">
			<print new-system="no"></print>
			<attributes></attributes>
			<note>
				<pitch>
					<step>A</step>
					<octave>4</octave>
				</pitch>
				<duration>20</duration>
				<voice>1</voice>
				<type>quarter</type>
				<stem>up</stem>
				<lyric number="1">
					<syllabic>single</syllabic>
					<text>du</text>
				</lyric>
			</note>
			<note>
				<pitch>
					<step>G</step>
					<octave>4</octave>
				</pitch>
				<duration>20</duration>
				<voice>1</voice>
				<type>quarter</type>
				<stem>up</stem>
				<lyric number="1">
					<syllabic>single</syllabic>
					<text>tout</text>
				</lyric>
			</note>
			<note>
				<pitch>
					<step>F</step>
					<octave>4</octave>
				</pitch>
				<duration>20</duration>
				<voice>1</voice>
				<type>quarter</type>
				<stem>up</stem>
				<lyric number="1">
					<syllabic>single</syllabic>
					<text>sesr</text>
				</lyric>
			</note>
			<note>
				<pitch>
					<step>E</step>
					<octave>4</octave>
				</pitch>
				<duration>20</duration>
				<voice>1</voice>
				<type>quarter</type>
				<stem>up</stem>
				<lyric number="1">
					<syllabic>single</syllabic>
					<text>don-</text>
				</lyric>
			</note>
		</measure><!--
===========================================================
-->

		<measure number="9" width="155">
			<print new-system="no"></print>
			<attributes></attributes>
			<note>
				<pitch>
					<step>D</step>
					<octave>4</octave>
				</pitch>
				<duration>20</duration>
				<voice>1</voice>
				<type>quarter</type>
				<stem>up</stem>
				<lyric number="1">
					<syllabic>single</syllabic>
					<text>n</text>
				</lyric>
			</note>
			<note>
				<pitch>
					<step>C</step>
					<octave>4</octave>
				</pitch>
				<duration>20</duration>
				<voice>1</voice>
				<type>quarter</type>
				<stem>up</stem>
				<lyric number="1">
					<syllabic>single</syllabic>
					<text>a</text>
				</lyric>
			</note>
			<note>
				<pitch>
					<step>D</step>
					<octave>4</octave>
				</pitch>
				<duration>80</duration>
				<voice>1</voice>
				<type>whole</type>
				<stem>none</stem>
				<lyric number="1">
					<syllabic>single</syllabic>
					<text>my,ll</text>
				</lyric>
			</note>
			<backup>
				<duration>40</duration>
			</backup>
			<barline location="right">
				<bar-style>light-light</bar-style>
			</barline>
		</measure><!--
===========================================================
-->

		<measure number="10" width="147">
			<print new-system="yes">
				<system-layout>
					<system-margins>
						<left-margin>0</left-margin>
						<right-margin>5</right-margin>
					</system-margins>
					<system-distance>118</system-distance>
				</system-layout>
			</print>
			<attributes>
				<staff-details number="1" print-object="yes">
					<staff-size>76</staff-size>
				</staff-details>
			</attributes>
			<note>
				<rest/>
				<duration>20</duration>
				<voice>1</voice>
				<type>quarter</type>
			</note>
			<note>
				<rest/>
				<duration>10</duration>
				<voice>1</voice>
				<type>eighth</type>
			</note>
			<note>
				<pitch>
					<step>A</step>
					<octave>4</octave>
				</pitch>
				<duration>10</duration>
				<voice>1</voice>
				<type>eighth</type>
				<stem>up</stem>
				<lyric number="1">
					<syllabic>single</syllabic>
					<text>et</text>
				</lyric>
				<lyric number="2">
					<syllabic>single</syllabic>
					<text>et</text>
				</lyric>
			</note>
			<forward>
				<duration>40</duration>
			</forward>
		</measure><!--
===========================================================
-->

		<measure number="11" width="152">
			<print new-system="no"></print>
			<attributes></attributes>
			<note>
				<pitch>
					<step>A</step>
					<octave>4</octave>
				</pitch>
				<duration>20</duration>
				<voice>1</voice>
				<type>quarter</type>
				<stem>up</stem>
				<lyric number="1">
					<syllabic>single</syllabic>
					<text>ma</text>
				</lyric>
				<lyric number="2">
					<syllabic>single</syllabic>
					<text>sans</text>
				</lyric>
			</note>
			<note>
				<pitch>
					<step>G</step>
					<octave>4</octave>
				</pitch>
				<duration>20</duration>
				<voice>1</voice>
				<type>quarter</type>
				<stem>up</stem>
				<lyric number="1">
					<syllabic>single</syllabic>
					<text>pro</text>
				</lyric>
				<lyric number="2">
					<syllabic>begin</syllabic>
					<text>fai</text>
				</lyric>
			</note>
			<note>
				<pitch>
					<step>F</step>
					<octave>4</octave>
				</pitch>
				<duration>20</duration>
				<voice>1</voice>
				<type>quarter</type>
				<stem>up</stem>
				<lyric number="1">
					<syllabic>single</syllabic>
					<text>m1s</text>
				</lyric>
				<lyric number="2">
					<syllabic>end</syllabic>
					<text>re</text>
				</lyric>
			</note>
			<note>
				<pitch>
					<step>B</step>
					<alter>-1</alter>
					<octave>4</octave>
				</pitch>
				<duration>20</duration>
				<voice>1</voice>
				<type>quarter</type>
				<accidental parentheses="no">flat</accidental>
				<stem>up</stem>
				<lyric number="1">
					<syllabic>single</syllabic>
					<text>ue</text>
				</lyric>
				<lyric number="2">
					<syllabic>begin</syllabic>
					<text>de</text>
				</lyric>
			</note>
		</measure><!--
===========================================================
-->

		<measure number="12" width="173">
			<print new-system="no"></print>
			<attributes></attributes>
			<note>
				<pitch>
					<step>A</step>
					<octave>4</octave>
				</pitch>
				<duration>20</duration>
				<voice>1</voice>
				<type>quarter</type>
				<stem>up</stem>
				<lyric number="1">
					<syllabic>single</syllabic>
					<text>loy</text>
				</lyric>
				<lyric number="2">
					<syllabic>middle</syllabic>
					<text>par-te</text>
				</lyric>
			</note>
			<note>
				<pitch>
					<step>G</step>
					<octave>4</octave>
				</pitch>
				<duration>20</duration>
				<voice>1</voice>
				<type>quarter</type>
				<stem>up</stem>
				<lyric number="1">
					<syllabic>begin</syllabic>
					<text>au</text>
				</lyric>
			</note>
			<note>
				<pitch>
					<step>A</step>
					<octave>4</octave>
				</pitch>
				<duration>20</duration>
				<voice>1</voice>
				<type>quarter</type>
				<stem>up</stem>
				<lyric number="1">
					<syllabic>end</syllabic>
					<text>ment</text>
				</lyric>
				<lyric number="2">
					<syllabic>end</syllabic>
					<text>men</text>
				</lyric>
			</note>
			<note>
				<rest/>
				<duration>10</duration>
				<voice>1</voice>
				<type>eighth</type>
				<lyric number="1">
					<syllabic>single</syllabic>
					<text>I</text>
				</lyric>
				<lyric number="2">
					<syllabic>single</syllabic>
					<text>ll</text>
				</lyric>
			</note>
			<note>
				<pitch>
					<step>E</step>
					<octave>4</octave>
				</pitch>
				<duration>10</duration>
				<voice>1</voice>
				<type>eighth</type>
				<stem>up</stem>
				<lyric number="1">
					<syllabic>single</syllabic>
					<text>mon</text>
				</lyric>
				<lyric number="2">
					<syllabic>single</syllabic>
					<text>ma</text>
				</lyric>
			</note>
		</measure><!--
===========================================================
-->

		<measure number="13" width="177">
			<print new-system="no"></print>
			<attributes></attributes>
			<note>
				<pitch>
					<step>F</step>
					<octave>4</octave>
				</pitch>
				<duration>20</duration>
				<voice>1</voice>
				<type>quarter</type>
				<stem>up</stem>
				<lyric number="1">
					<syllabic>single</syllabic>
					<text>ho</text>
				</lyric>
				<lyric number="2">
					<syllabic>single</syllabic>
					<text>loy-</text>
				</lyric>
			</note>
			<note>
				<pitch>
					<step>A</step>
					<octave>4</octave>
				</pitch>
				<duration>20</duration>
				<voice>1</voice>
				<type>quarter</type>
				<stem>up</stem>
				<lyric number="1">
					<syllabic>single</syllabic>
					<text>nolr</text>
				</lyric>
				<lyric number="2">
					<syllabic>begin</syllabic>
					<text>au</text>
				</lyric>
			</note>
			<note>
				<pitch>
					<step>G</step>
					<octave>4</octave>
				</pitch>
				<duration>20</duration>
				<voice>1</voice>
				<type>quarter</type>
				<stem>up</stem>
				<lyric number="1">
					<syllabic>single</syllabic>
					<text>tous</text>
				</lyric>
				<lyric number="2">
					<syllabic>end</syllabic>
					<text>te</text>
				</lyric>
			</note>
			<note>
				<pitch>
					<step>E</step>
					<octave>4</octave>
				</pitch>
				<duration>20</duration>
				<voice>1</voice>
				<type>quarter</type>
				<stem>up</stem>
				<lyric number="1">
					<syllabic>single</syllabic>
					<text>jours</text>
				</lyric>
				<lyric number="2">
					<syllabic>single</syllabic>
					<text>e-</text>
				</lyric>
			</note>
		</measure><!--
===========================================================
-->

		<measure number="14" width="150">
			<print new-system="no"></print>
			<attributes></attributes>
			<barline location="left">
				<ending number="1" type="start"></ending>
			</barline>
			<note>
				<pitch>
					<step>D</step>
					<octave>4</octave>
				</pitch>
				<duration>20</duration>
				<voice>1</voice>
				<type>quarter</type>
				<stem>up</stem>
				<lyric number="1">
					<syllabic>single</syllabic>
					<text>Vr-</text>
				</lyric>
			</note>
			<note>
				<pitch>
					<step>C</step>
					<octave>4</octave>
				</pitch>
				<duration>20</duration>
				<voice>1</voice>
				<type>quarter</type>
				<stem>up</stem>
				<lyric number="1">
					<syllabic>single</syllabic>
					<text>de</text>
				</lyric>
			</note>
			<note>
				<pitch>
					<step>D</step>
					<octave>4</octave>
				</pitch>
				<duration>80</duration>
				<voice>1</voice>
				<type>whole</type>
				<stem>none</stem>
				<lyric number="1">
					<syllabic>single</syllabic>
					<text>rall</text>
				</lyric>
			</note>
			<backup>
				<duration>40</duration>
			</backup>
			<barline location="right">
				<bar-style>light-heavy</bar-style>
				<ending number="1" type="stop"></ending>
				<repeat direction="backward"/>
			</barline>
		</measure><!--
===========================================================
-->

		<measure number="15" width="154">
			<print new-system="no"></print>
			<attributes></attributes>
			<note>
				<pitch>
					<step>D</step>
					<octave>4</octave>
				</pitch>
				<duration>20</duration>
				<voice>1</voice>
				<type>quarter</type>
				<stem>up</stem>
				<lyric number="1">
					<syllabic>single</syllabic>
					<text>-nir</text>
				</lyric>
			</note>
			<note>
				<pitch>
					<step>C</step>
					<octave>4</octave>
				</pitch>
				<duration>20</duration>
				<voice>1</voice>
				<type>quarter</type>
				<stem>up</stem>
				<lyric number="1">
					<syllabic>single</syllabic>
					<text>vol</text>
				</lyric>
			</note>
			<note>
				<pitch>
					<step>D</step>
					<octave>4</octave>
				</pitch>
				<duration>80</duration>
				<voice>1</voice>
				<type>whole</type>
				<stem>none</stem>
				<lyric number="1">
					<syllabic>single</syllabic>
					<text>dra.ll</text>
				</lyric>
			</note>
			<backup>
				<duration>40</duration>
			</backup>
			<barline location="right">
				<bar-style>light-light</bar-style>
			</barline>
		</measure>
	</part><!--
===========================================================
-->

	<part id="P2">
		<measure number="1" width="313">
			<print>
				<page-layout>
					<page-height>1881.48</page-height>
					<page-width>1453.87</page-width>
					<page-margins>
						<left-margin>194.98</left-margin>
						<right-margin>298.46</right-margin>
						<top-margin>127.00</top-margin>
						<bottom-margin>63.50</bottom-margin>
					</page-margins>
				</page-layout>
				<system-layout>
					<system-margins>
						<left-margin>64</left-margin>
						<right-margin>0</right-margin>
					</system-margins>
					<top-system-distance>212</top-system-distance>
				</system-layout>
				<staff-layout number="1">
					<staff-distance>65</staff-distance>
				</staff-layout>
			</print>
			<attributes>
				<divisions>20</divisions>
				<key>
					<fifths>0</fifths>
				</key>
				<time symbol="common">
					<beats>4</beats>
					<beat-type>4</beat-type>
				</time>
				<clef>
					<sign>F</sign>
					<line>4</line>
				</clef>
				<staff-details number="1" print-object="yes">
					<staff-size>76</staff-size>
				</staff-details>
				<transpose>
					<diatonic>0</diatonic>
					<chromatic>0</chromatic>
					<octave-change>-1</octave-change>
				</transpose>
			</attributes>
			<attributes></attributes>
			<note>
				<pitch>
					<step>A</step>
					<octave>3</octave>
				</pitch>
				<duration>40</duration>
				<voice>1</voice>
				<type>half</type>
				<stem>down</stem>
			</note>
			<note>
				<pitch>
					<step>B</step>
					<octave>3</octave>
				</pitch>
				<duration>20</duration>
				<voice>1</voice>
				<type>quarter</type>
				<stem>down</stem>
				<lyric number="1">
					<syllabic>single</syllabic>
					<text>CONTRATENOR</text>
				</lyric>
			</note>
			<note>
				<pitch>
					<step>A</step>
					<octave>3</octave>
				</pitch>
				<duration>20</duration>
				<voice>1</voice>
				<type>quarter</type>
				<stem>down</stem>
			</note>
			<note>
				<pitch>
					<step>A</step>
					<octave>3</octave>
				</pitch>
				<duration>40</duration>
				<voice>1</voice>
				<type>half</type>
				<stem>down</stem>
			</note>
			<backup>
				<duration>40</duration>
			</backup>
		</measure><!--
===========================================================
-->

		<measure number="2" width="171">
			<print new-system="no"></print>
			<attributes></attributes>
			<note>
				<pitch>
					<step>D</step>
					<octave>3</octave>
				</pitch>
				<duration>40</duration>
				<voice>1</voice>
				<type>half</type>
				<stem>down</stem>
			</note>
			<note>
				<pitch>
					<step>C</step>
					<alter>1</alter>
					<octave>4</octave>
				</pitch>
				<duration>20</duration>
				<voice>1</voice>
				<type>quarter</type>
				<accidental parentheses="no">sharp</accidental>
				<stem>down</stem>
			</note>
			<note>
				<pitch>
					<step>D</step>
					<octave>4</octave>
				</pitch>
				<duration>20</duration>
				<voice>1</voice>
				<type>quarter</type>
				<stem>down</stem>
			</note>
		</measure><!--
===========================================================
-->

		<measure number="3" width="169">
			<print new-system="no"></print>
			<attributes></attributes>
			<note>
				<pitch>
					<step>A</step>
					<octave>3</octave>
				</pitch>
				<duration>20</duration>
				<voice>1</voice>
				<type>quarter</type>
				<stem>down</stem>
			</note>
			<note>
				<pitch>
					<step>D</step>
					<octave>4</octave>
				</pitch>
				<duration>20</duration>
				<voice>1</voice>
				<type>quarter</type>
				<stem>down</stem>
			</note>
			<note>
				<pitch>
					<step>E</step>
					<octave>4</octave>
				</pitch>
				<duration>20</duration>
				<voice>1</voice>
				<type>quarter</type>
				<stem>down</stem>
			</note>
			<note>
				<pitch>
					<step>C</step>
					<octave>4</octave>
				</pitch>
				<duration>20</duration>
				<voice>1</voice>
				<type>quarter</type>
				<stem>down</stem>
			</note>
		</measure><!--
===========================================================
-->

		<measure number="4" width="242">
			<print new-system="no"></print>
			<attributes></attributes>
			<note>
				<pitch>
					<step>D</step>
					<octave>4</octave>
				</pitch>
				<duration>40</duration>
				<voice>1</voice>
				<type>half</type>
				<stem>down</stem>
			</note>
			<note>
				<pitch>
					<step>C</step>
					<octave>4</octave>
				</pitch>
				<duration>20</duration>
				<voice>1</voice>
				<type>quarter</type>
				<stem>down</stem>
			</note>
			<note>
				<pitch>
					<step>C</step>
					<octave>3</octave>
				</pitch>
				<duration>20</duration>
				<voice>1</voice>
				<type>quarter</type>
				<stem>up</stem>
			</note>
			<note>
				<pitch>
					<step>G</step>
					<octave>3</octave>
				</pitch>
				<duration>20</duration>
				<voice>1</voice>
				<type>quarter</type>
				<stem>down</stem>
			</note>
			<note>
				<pitch>
					<step>D</step>
					<octave>3</octave>
				</pitch>
				<duration>20</duration>
				<voice>1</voice>
				<type>quarter</type>
				<stem>down</stem>
			</note>
			<backup>
				<duration>40</duration>
			</backup>
		</measure><!--
===========================================================
-->

		<measure number="5" width="213">
			<print new-system="yes">
				<system-layout>
					<system-margins>
						<left-margin>0</left-margin>
						<right-margin>2</right-margin>
					</system-margins>
					<system-distance>119</system-distance>
				</system-layout>
				<staff-layout number="1">
					<staff-distance>66</staff-distance>
				</staff-layout>
			</print>
			<attributes></attributes>
			<note>
				<pitch>
					<step>B</step>
					<octave>3</octave>
				</pitch>
				<duration>20</duration>
				<voice>1</voice>
				<type>quarter</type>
				<stem>down</stem>
			</note>
			<note>
				<pitch>
					<step>A</step>
					<octave>3</octave>
				</pitch>
				<duration>20</duration>
				<voice>1</voice>
				<type>quarter</type>
				<stem>down</stem>
			</note>
			<note>
				<pitch>
					<step>B</step>
					<octave>3</octave>
				</pitch>
				<duration>20</duration>
				<voice>1</voice>
				<type>quarter</type>
				<stem>down</stem>
			</note>
			<note>
				<pitch>
					<step>G</step>
					<octave>3</octave>
				</pitch>
				<duration>20</duration>
				<voice>1</voice>
				<type>quarter</type>
				<stem>down</stem>
			</note>
		</measure><!--
===========================================================
-->

		<measure number="6" width="240">
			<print new-system="no"></print>
			<attributes></attributes>
			<note>
				<pitch>
					<step>A</step>
					<octave>3</octave>
				</pitch>
				<duration>20</duration>
				<voice>1</voice>
				<type>quarter</type>
				<stem>down</stem>
			</note>
			<note>
				<pitch>
					<step>C</step>
					<octave>4</octave>
				</pitch>
				<duration>20</duration>
				<voice>1</voice>
				<type>quarter</type>
				<stem>down</stem>
			</note>
			<note>
				<pitch>
					<step>G</step>
					<octave>3</octave>
				</pitch>
				<duration>20</duration>
				<voice>1</voice>
				<type>quarter</type>
				<stem>down</stem>
			</note>
			<note>
				<pitch>
					<step>D</step>
					<octave>3</octave>
				</pitch>
				<duration>20</duration>
				<voice>1</voice>
				<type>quarter</type>
				<stem>down</stem>
			</note>
			<note>
				<pitch>
					<step>D</step>
					<octave>4</octave>
				</pitch>
				<duration>20</duration>
				<voice>1</voice>
				<type>quarter</type>
				<stem>down</stem>
			</note>
			<note>
				<pitch>
					<step>E</step>
					<alter>-1</alter>
					<octave>4</octave>
				</pitch>
				<duration>20</duration>
				<voice>1</voice>
				<type>quarter</type>
				<accidental parentheses="no">flat</accidental>
				<stem>down</stem>
			</note>
			<backup>
				<duration>40</duration>
			</backup>
		</measure><!--
===========================================================
-->

		<measure number="7" width="178">
			<print new-system="no"></print>
			<attributes></attributes>
			<note>
				<pitch>
					<step>D</step>
					<octave>4</octave>
				</pitch>
				<duration>20</duration>
				<voice>1</voice>
				<type>quarter</type>
				<stem>down</stem>
			</note>
			<note>
				<pitch>
					<step>C</step>
					<alter>1</alter>
					<octave>4</octave>
				</pitch>
				<duration>20</duration>
				<voice>1</voice>
				<type>quarter</type>
				<accidental parentheses="no">sharp</accidental>
				<stem>down</stem>
			</note>
			<note>
				<pitch>
					<step>D</step>
					<octave>4</octave>
				</pitch>
				<duration>20</duration>
				<voice>1</voice>
				<type>quarter</type>
				<stem>down</stem>
			</note>
			<note>
				<pitch>
					<step>B</step>
					<octave>3</octave>
				</pitch>
				<duration>20</duration>
				<voice>1</voice>
				<type>quarter</type>
				<stem>down</stem>
			</note>
		</measure><!--
===========================================================
-->

		<measure number="8" width="170">
			<print new-system="no"></print>
			<attributes></attributes>
			<note>
				<pitch>
					<step>C</step>
					<octave>4</octave>
				</pitch>
				<duration>20</duration>
				<voice>1</voice>
				<type>quarter</type>
				<stem>down</stem>
			</note>
			<note>
				<pitch>
					<step>E</step>
					<octave>3</octave>
				</pitch>
				<duration>20</duration>
				<voice>1</voice>
				<type>quarter</type>
				<stem>down</stem>
			</note>
			<note>
				<pitch>
					<step>D</step>
					<octave>3</octave>
				</pitch>
				<duration>20</duration>
				<voice>1</voice>
				<type>quarter</type>
				<stem>down</stem>
			</note>
			<note>
				<pitch>
					<step>C</step>
					<octave>4</octave>
				</pitch>
				<duration>10</duration>
				<voice>1</voice>
				<type>eighth</type>
				<stem>down</stem>
				<beam number="1">begin</beam>
			</note>
			<note>
				<pitch>
					<step>C</step>
					<octave>4</octave>
				</pitch>
				<duration>10</duration>
				<voice>1</voice>
				<type>eighth</type>
				<stem>down</stem>
				<beam number="1">end</beam>
			</note>
		</measure><!--
===========================================================
-->

		<measure number="9" width="155">
			<print new-system="no"></print>
			<attributes></attributes>
			<note>
				<pitch>
					<step>A</step>
					<octave>3</octave>
				</pitch>
				<duration>20</duration>
				<voice>1</voice>
				<type>quarter</type>
				<stem>down</stem>
			</note>
			<note>
				<pitch>
					<step>G</step>
					<octave>3</octave>
				</pitch>
				<duration>20</duration>
				<voice>1</voice>
				<type>quarter</type>
				<stem>down</stem>
			</note>
			<note>
				<pitch>
					<step>A</step>
					<octave>3</octave>
				</pitch>
				<duration>80</duration>
				<voice>1</voice>
				<type>whole</type>
				<stem>none</stem>
			</note>
			<backup>
				<duration>40</duration>
			</backup>
			<barline location="right">
				<bar-style>light-light</bar-style>
			</barline>
		</measure><!--
===========================================================
-->

		<measure number="10" width="147">
			<print new-system="yes">
				<system-layout>
					<system-margins>
						<left-margin>0</left-margin>
						<right-margin>5</right-margin>
					</system-margins>
					<system-distance>118</system-distance>
				</system-layout>
				<staff-layout number="1">
					<staff-distance>83</staff-distance>
				</staff-layout>
			</print>
			<attributes></attributes>
			<note>
				<rest/>
				<duration>40</duration>
				<voice>1</voice>
				<type>half</type>
			</note>
			<forward>
				<duration>40</duration>
			</forward>
		</measure><!--
===========================================================
-->

		<measure number="11" width="152">
			<print new-system="no"></print>
			<attributes></attributes>
			<note>
				<pitch>
					<step>D</step>
					<octave>3</octave>
				</pitch>
				<duration>20</duration>
				<voice>1</voice>
				<type>quarter</type>
				<stem>down</stem>
			</note>
			<note>
				<pitch>
					<step>G</step>
					<octave>3</octave>
				</pitch>
				<duration>20</duration>
				<voice>1</voice>
				<type>quarter</type>
				<stem>down</stem>
			</note>
			<note>
				<pitch>
					<step>D</step>
					<octave>3</octave>
				</pitch>
				<duration>20</duration>
				<voice>1</voice>
				<type>quarter</type>
				<stem>down</stem>
			</note>
			<note>
				<pitch>
					<step>D</step>
					<octave>4</octave>
				</pitch>
				<duration>20</duration>
				<voice>1</voice>
				<type>quarter</type>
				<stem>down</stem>
			</note>
		</measure><!--
===========================================================
-->

		<measure number="12" width="173">
			<print new-system="no"></print>
			<attributes></attributes>
			<note>
				<pitch>
					<step>E</step>
					<octave>4</octave>
				</pitch>
				<duration>20</duration>
				<voice>1</voice>
				<type>quarter</type>
				<stem>down</stem>
			</note>
			<note>
				<pitch>
					<step>D</step>
					<octave>4</octave>
				</pitch>
				<duration>20</duration>
				<voice>1</voice>
				<type>quarter</type>
				<stem>down</stem>
			</note>
			<note>
				<pitch>
					<step>E</step>
					<octave>4</octave>
				</pitch>
				<duration>20</duration>
				<voice>1</voice>
				<type>quarter</type>
				<stem>down</stem>
			</note>
			<note>
				<pitch>
					<step>A</step>
					<octave>3</octave>
				</pitch>
				<duration>20</duration>
				<voice>1</voice>
				<type>quarter</type>
				<stem>down</stem>
			</note>
		</measure><!--
===========================================================
-->

		<measure number="13" width="177">
			<print new-system="no"></print>
			<attributes></attributes>
			<note>
				<pitch>
					<step>D</step>
					<octave>3</octave>
				</pitch>
				<duration>40</duration>
				<voice>1</voice>
				<type>half</type>
				<stem>down</stem>
			</note>
			<note>
				<pitch>
					<step>B</step>
					<octave>3</octave>
				</pitch>
				<duration>20</duration>
				<voice>1</voice>
				<type>quarter</type>
				<stem>down</stem>
			</note>
			<note>
				<pitch>
					<step>C</step>
					<octave>4</octave>
				</pitch>
				<duration>20</duration>
				<voice>1</voice>
				<type>quarter</type>
				<stem>down</stem>
			</note>
		</measure><!--
===========================================================
-->

		<measure number="14" width="150">
			<print new-system="no"></print>
			<attributes></attributes>
			<barline location="left">
				<ending number="1" type="start"></ending>
			</barline>
			<note>
				<pitch>
					<step>G</step>
					<octave>3</octave>
				</pitch>
				<duration>20</duration>
				<voice>1</voice>
				<type>quarter</type>
				<stem>down</stem>
			</note>
			<note>
				<pitch>
					<step>A</step>
					<octave>3</octave>
				</pitch>
				<duration>20</duration>
				<voice>1</voice>
				<type>quarter</type>
				<stem>down</stem>
			</note>
			<note>
				<pitch>
					<step>B</step>
					<octave>3</octave>
				</pitch>
				<duration>80</duration>
				<voice>1</voice>
				<type>whole</type>
				<stem>none</stem>
			</note>
			<backup>
				<duration>40</duration>
			</backup>
			<barline location="right">
				<bar-style>light-heavy</bar-style>
				<ending number="1" type="stop"></ending>
				<repeat direction="backward"/>
			</barline>
		</measure><!--
===========================================================
-->

		<measure number="15" width="154">
			<print new-system="no"></print>
			<attributes></attributes>
			<note>
				<pitch>
					<step>A</step>
					<octave>3</octave>
				</pitch>
				<duration>20</duration>
				<voice>1</voice>
				<type>quarter</type>
				<stem>down</stem>
			</note>
			<note>
				<pitch>
					<step>G</step>
					<octave>3</octave>
				</pitch>
				<duration>20</duration>
				<voice>1</voice>
				<type>quarter</type>
				<stem>down</stem>
			</note>
			<note>
				<pitch>
					<step>A</step>
					<octave>3</octave>
				</pitch>
				<duration>80</duration>
				<voice>1</voice>
				<type>whole</type>
				<stem>none</stem>
			</note>
			<backup>
				<duration>40</duration>
			</backup>
			<barline location="right">
				<bar-style>light-light</bar-style>
			</barline>
		</measure>
	</part><!--
===========================================================
-->

	<part id="P3">
		<measure number="1" width="313">
			<print>
				<page-layout>
					<page-height>1881.48</page-height>
					<page-width>1453.87</page-width>
					<page-margins>
						<left-margin>194.98</left-margin>
						<right-margin>298.46</right-margin>
						<top-margin>127.00</top-margin>
						<bottom-margin>63.50</bottom-margin>
					</page-margins>
				</page-layout>
				<system-layout>
					<system-margins>
						<left-margin>64</left-margin>
						<right-margin>0</right-margin>
					</system-margins>
					<top-system-distance>212</top-system-distance>
				</system-layout>
				<staff-layout number="1">
					<staff-distance>57</staff-distance>
				</staff-layout>
			</print>
			<attributes>
				<divisions>20</divisions>
				<key>
					<fifths>0</fifths>
				</key>
				<time symbol="common">
					<beats>4</beats>
					<beat-type>4</beat-type>
				</time>
				<clef>
					<sign>F</sign>
					<line>4</line>
				</clef>
				<staff-details number="1" print-object="yes">
					<staff-size>76</staff-size>
				</staff-details>
			</attributes>
			<attributes></attributes>
			<note>
				<pitch>
					<step>G</step>
					<octave>3</octave>
				</pitch>
				<duration>20</duration>
				<voice>1</voice>
				<type>quarter</type>
				<stem>down</stem>
			</note>
			<note>
				<pitch>
					<step>A</step>
					<octave>3</octave>
				</pitch>
				<duration>20</duration>
				<voice>1</voice>
				<type>quarter</type>
				<stem>down</stem>
			</note>
			<note>
				<pitch>
					<step>D</step>
					<octave>3</octave>
				</pitch>
				<duration>40</duration>
				<voice>1</voice>
				<type>half</type>
				<stem>down</stem>
			</note>
		</measure><!--
===========================================================
-->

		<measure number="2" width="171">
			<print new-system="no"></print>
			<attributes></attributes>
			<note>
				<pitch>
					<step>D</step>
					<octave>4</octave>
				</pitch>
				<duration>40</duration>
				<voice>1</voice>
				<type>half</type>
				<stem>down</stem>
			</note>
			<note>
				<pitch>
					<step>A</step>
					<octave>3</octave>
				</pitch>
				<duration>20</duration>
				<voice>1</voice>
				<type>quarter</type>
				<stem>down</stem>
			</note>
			<note>
				<pitch>
					<step>G</step>
					<octave>3</octave>
				</pitch>
				<duration>20</duration>
				<voice>1</voice>
				<type>quarter</type>
				<stem>down</stem>
			</note>
		</measure><!--
===========================================================
-->

		<measure number="3" width="169">
			<print new-system="no"></print>
			<attributes></attributes>
			<note>
				<pitch>
					<step>C</step>
					<octave>4</octave>
				</pitch>
				<duration>20</duration>
				<voice>1</voice>
				<type>quarter</type>
				<stem>down</stem>
			</note>
			<note>
				<pitch>
					<step>B</step>
					<octave>3</octave>
				</pitch>
				<duration>20</duration>
				<voice>1</voice>
				<type>quarter</type>
				<stem>down</stem>
			</note>
			<note>
				<pitch>
					<step>A</step>
					<octave>3</octave>
				</pitch>
				<duration>40</duration>
				<voice>1</voice>
				<type>half</type>
				<stem>down</stem>
			</note>
		</measure><!--
===========================================================
-->

		<measure number="4" width="242">
			<print new-system="no"></print>
			<attributes></attributes>
			<note>
				<pitch>
					<step>D</step>
					<octave>3</octave>
				</pitch>
				<duration>20</duration>
				<voice>1</voice>
				<type>quarter</type>
				<stem>down</stem>
			</note>
			<note>
				<pitch>
					<step>G</step>
					<octave>3</octave>
				</pitch>
				<duration>20</duration>
				<voice>1</voice>
				<type>quarter</type>
				<stem>down</stem>
			</note>
			<note>
				<pitch>
					<step>A</step>
					<octave>3</octave>
				</pitch>
				<duration>20</duration>
				<voice>1</voice>
				<type>quarter</type>
				<stem>down</stem>
			</note>
			<note>
				<pitch>
					<step>C</step>
					<octave>4</octave>
				</pitch>
				<duration>20</duration>
				<voice>1</voice>
				<type>quarter</type>
				<stem>down</stem>
			</note>
			<note>
				<pitch>
					<step>B</step>
					<octave>3</octave>
				</pitch>
				<duration>20</duration>
				<voice>1</voice>
				<type>quarter</type>
				<stem>down</stem>
			</note>
			<note>
				<pitch>
					<step>A</step>
					<octave>3</octave>
				</pitch>
				<duration>20</duration>
				<voice>1</voice>
				<type>quarter</type>
				<stem>down</stem>
			</note>
			<backup>
				<duration>40</duration>
			</backup>
		</measure><!--
===========================================================
-->

		<measure number="5" width="213">
			<print new-system="yes">
				<system-layout>
					<system-margins>
						<left-margin>0</left-margin>
						<right-margin>2</right-margin>
					</system-margins>
					<system-distance>119</system-distance>
				</system-layout>
				<staff-layout number="1">
					<staff-distance>60</staff-distance>
				</staff-layout>
			</print>
			<attributes></attributes>
			<note>
				<pitch>
					<step>G</step>
					<octave>3</octave>
				</pitch>
				<duration>20</duration>
				<voice>1</voice>
				<type>quarter</type>
				<stem>down</stem>
			</note>
			<note>
				<pitch>
					<step>F</step>
					<octave>3</octave>
				</pitch>
				<duration>20</duration>
				<voice>1</voice>
				<type>quarter</type>
				<stem>down</stem>
			</note>
			<note>
				<pitch>
					<step>E</step>
					<octave>3</octave>
				</pitch>
				<duration>40</duration>
				<voice>1</voice>
				<type>half</type>
				<stem>down</stem>
			</note>
		</measure><!--
===========================================================
-->

		<measure number="6" width="240">
			<print new-system="no"></print>
			<attributes></attributes>
			<note>
				<pitch>
					<step>D</step>
					<octave>3</octave>
				</pitch>
				<duration>20</duration>
				<voice>1</voice>
				<type>quarter</type>
				<stem>down</stem>
			</note>
			<note>
				<pitch>
					<step>A</step>
					<octave>3</octave>
				</pitch>
				<duration>20</duration>
				<voice>1</voice>
				<type>quarter</type>
				<stem>down</stem>
			</note>
			<note>
				<pitch>
					<step>B</step>
					<octave>3</octave>
				</pitch>
				<duration>20</duration>
				<voice>1</voice>
				<type>quarter</type>
				<stem>down</stem>
			</note>
			<note>
				<pitch>
					<step>A</step>
					<octave>3</octave>
				</pitch>
				<duration>20</duration>
				<voice>1</voice>
				<type>quarter</type>
				<stem>down</stem>
			</note>
			<note>
				<pitch>
					<step>G</step>
					<octave>3</octave>
				</pitch>
				<duration>20</duration>
				<voice>1</voice>
				<type>quarter</type>
				<stem>down</stem>
			</note>
			<note>
				<pitch>
					<step>C</step>
					<octave>4</octave>
				</pitch>
				<duration>20</duration>
				<voice>1</voice>
				<type>quarter</type>
				<stem>down</stem>
			</note>
			<backup>
				<duration>40</duration>
			</backup>
		</measure><!--
===========================================================
-->

		<measure number="7" width="178">
			<print new-system="no"></print>
			<attributes></attributes>
			<note>
				<pitch>
					<step>B</step>
					<octave>3</octave>
				</pitch>
				<duration>20</duration>
				<voice>1</voice>
				<type>quarter</type>
				<stem>down</stem>
			</note>
			<note>
				<pitch>
					<step>A</step>
					<octave>3</octave>
				</pitch>
				<duration>20</duration>
				<voice>1</voice>
				<type>quarter</type>
				<stem>down</stem>
			</note>
			<note>
				<pitch>
					<step>G</step>
					<octave>3</octave>
				</pitch>
				<duration>40</duration>
				<voice>1</voice>
				<type>half</type>
				<stem>down</stem>
			</note>
		</measure><!--
===========================================================
-->

		<measure number="8" width="170">
			<print new-system="no"></print>
			<attributes></attributes>
			<note>
				<pitch>
					<step>F</step>
					<octave>3</octave>
				</pitch>
				<duration>20</duration>
				<voice>1</voice>
				<type>quarter</type>
				<stem>down</stem>
			</note>
			<note>
				<pitch>
					<step>C</step>
					<octave>4</octave>
				</pitch>
				<duration>20</duration>
				<voice>1</voice>
				<type>quarter</type>
				<stem>down</stem>
			</note>
			<note>
				<pitch>
					<step>D</step>
					<octave>4</octave>
				</pitch>
				<duration>20</duration>
				<voice>1</voice>
				<type>quarter</type>
				<stem>down</stem>
			</note>
			<note>
				<pitch>
					<step>A</step>
					<octave>3</octave>
				</pitch>
				<duration>20</duration>
				<voice>1</voice>
				<type>quarter</type>
				<stem>down</stem>
			</note>
		</measure><!--
===========================================================
-->

		<measure number="9" width="155">
			<print new-system="no"></print>
			<attributes></attributes>
			<note>
				<pitch>
					<step>F</step>
					<octave>3</octave>
				</pitch>
				<duration>20</duration>
				<voice>1</voice>
				<type>quarter</type>
				<stem>down</stem>
			</note>
			<note>
				<pitch>
					<step>E</step>
					<octave>3</octave>
				</pitch>
				<duration>20</duration>
				<voice>1</voice>
				<type>quarter</type>
				<stem>down</stem>
			</note>
			<note>
				<pitch>
					<step>D</step>
					<octave>3</octave>
				</pitch>
				<duration>80</duration>
				<voice>1</voice>
				<type>whole</type>
				<stem>none</stem>
			</note>
			<backup>
				<duration>40</duration>
			</backup>
			<barline location="right">
				<bar-style>light-light</bar-style>
			</barline>
		</measure><!--
===========================================================
-->

		<measure number="10" width="147">
			<print new-system="yes">
				<system-layout>
					<system-margins>
						<left-margin>0</left-margin>
						<right-margin>5</right-margin>
					</system-margins>
					<system-distance>118</system-distance>
				</system-layout>
				<staff-layout number="1">
					<staff-distance>54</staff-distance>
				</staff-layout>
			</print>
			<attributes>
				<staff-details number="1" print-object="yes">
					<staff-size>72</staff-size>
				</staff-details>
			</attributes>
			<note>
				<rest/>
				<duration>40</duration>
				<voice>1</voice>
				<type>half</type>
			</note>
			<forward>
				<duration>40</duration>
			</forward>
		</measure><!--
===========================================================
-->

		<measure number="11" width="152">
			<print new-system="no"></print>
			<attributes></attributes>
			<note>
				<pitch>
					<step>D</step>
					<octave>4</octave>
				</pitch>
				<duration>20</duration>
				<voice>1</voice>
				<type>quarter</type>
				<stem>down</stem>
			</note>
			<note>
				<pitch>
					<step>E</step>
					<octave>4</octave>
				</pitch>
				<duration>20</duration>
				<voice>1</voice>
				<type>quarter</type>
				<stem>down</stem>
			</note>
			<note>
				<pitch>
					<step>D</step>
					<octave>4</octave>
				</pitch>
				<duration>20</duration>
				<voice>1</voice>
				<type>quarter</type>
				<stem>down</stem>
			</note>
			<note>
				<pitch>
					<step>G</step>
					<octave>3</octave>
				</pitch>
				<duration>20</duration>
				<voice>1</voice>
				<type>quarter</type>
				<stem>down</stem>
			</note>
		</measure><!--
===========================================================
-->

		<measure number="12" width="173">
			<print new-system="no"></print>
			<attributes></attributes>
			<note>
				<pitch>
					<step>C</step>
					<octave>4</octave>
				</pitch>
				<duration>20</duration>
				<voice>1</voice>
				<type>quarter</type>
				<stem>down</stem>
			</note>
			<note>
				<pitch>
					<step>B</step>
					<octave>3</octave>
				</pitch>
				<duration>20</duration>
				<voice>1</voice>
				<type>quarter</type>
				<stem>down</stem>
			</note>
			<note>
				<pitch>
					<step>A</step>
					<octave>3</octave>
				</pitch>
				<duration>40</duration>
				<voice>1</voice>
				<type>half</type>
				<stem>down</stem>
			</note>
		</measure><!--
===========================================================
-->

		<measure number="13" width="177">
			<print new-system="no"></print>
			<attributes></attributes>
			<note>
				<pitch>
					<step>D</step>
					<octave>4</octave>
				</pitch>
				<duration>20</duration>
				<voice>1</voice>
				<type>quarter</type>
				<stem>down</stem>
			</note>
			<note>
				<pitch>
					<step>A</step>
					<octave>3</octave>
				</pitch>
				<duration>20</duration>
				<voice>1</voice>
				<type>quarter</type>
				<stem>down</stem>
			</note>
			<note>
				<pitch>
					<step>E</step>
					<octave>3</octave>
				</pitch>
				<duration>20</duration>
				<voice>1</voice>
				<type>quarter</type>
				<stem>down</stem>
			</note>
			<note>
				<pitch>
					<step>A</step>
					<octave>3</octave>
				</pitch>
				<duration>20</duration>
				<voice>1</voice>
				<type>quarter</type>
				<stem>down</stem>
			</note>
		</measure><!--
===========================================================
-->

		<measure number="14" width="150">
			<print new-system="no"></print>
			<attributes></attributes>
			<barline location="left">
				<ending number="1" type="start"></ending>
			</barline>
			<note>
				<pitch>
					<step>B</step>
					<octave>3</octave>
				</pitch>
				<duration>20</duration>
				<voice>1</voice>
				<type>quarter</type>
				<stem>down</stem>
			</note>
			<note>
				<pitch>
					<step>A</step>
					<octave>3</octave>
				</pitch>
				<duration>20</duration>
				<voice>1</voice>
				<type>quarter</type>
				<stem>down</stem>
			</note>
			<note>
				<pitch>
					<step>G</step>
					<octave>3</octave>
				</pitch>
				<duration>80</duration>
				<voice>1</voice>
				<type>whole</type>
				<stem>none</stem>
			</note>
			<backup>
				<duration>40</duration>
			</backup>
			<barline location="right">
				<bar-style>light-heavy</bar-style>
				<ending number="1" type="stop"></ending>
				<repeat direction="backward"/>
			</barline>
		</measure><!--
===========================================================
-->

		<measure number="15" width="154">
			<print new-system="no"></print>
			<attributes></attributes>
			<note>
				<pitch>
					<step>F</step>
					<octave>3</octave>
				</pitch>
				<duration>20</duration>
				<voice>1</voice>
				<type>quarter</type>
				<stem>down</stem>
			</note>
			<note>
				<pitch>
					<step>E</step>
					<octave>3</octave>
				</pitch>
				<duration>20</duration>
				<voice>1</voice>
				<type>quarter</type>
				<stem>down</stem>
			</note>
			<note>
				<pitch>
					<step>D</step>
					<octave>3</octave>
				</pitch>
				<duration>80</duration>
				<voice>1</voice>
				<type>whole</type>
				<stem>none</stem>
			</note>
			<backup>
				<duration>40</duration>
			</backup>
			<barline location="right">
				<bar-style>light-light</bar-style>
			</barline>
		</measure>
	</part>
</score-partwise>