<?xml version="1.0" encoding="UTF-8" standalone="no"?>
<!DOCTYPE score-partwise PUBLIC "-//Recordare//DTD MusicXML 1.1 Partwise//EN" "http://www.musicxml.org/dtds/partwise.dtd">

<score-partwise version="2.0">
	<movement-title></movement-title>
	<identification>
		<creator type="composer"></creator>
		<encoding>
			<software>SmartScore X2 Pro</software>
			<encoding-date>2016-05-09</encoding-date>
			<supports attribute="new-system" element="print" type="yes" value="yes"/>
			<supports attribute="new-page" element="print" type="yes" value="yes"/>
		</encoding>
	</identification>
	<defaults>
		<scaling>
			<millimeters>6.00</millimeters>
			<tenths>40</tenths>
		</scaling>
	</defaults>
	<part-list>
		<score-part id="P1">
			<part-name>Flute</part-name>
			<part-abbreviation>Flu</part-abbreviation>
			<score-instrument id="P1-S0V0">
				<instrument-name>Flute</instrument-name>
			</score-instrument>
			<midi-instrument id="P1-S0V0">
				<midi-channel>1</midi-channel>
				<midi-program>74</midi-program>
				<volume>78</volume>
				<pan>0</pan>
			</midi-instrument>
		</score-part>
		<score-part id="P2">
			<part-name>Nylon Guitar</part-name>
			<part-abbreviation>GuitNyl</part-abbreviation>
			<score-instrument id="P2-S0V0">
				<instrument-name>Nylon String Guit.</instrument-name>
			</score-instrument>
			<midi-instrument id="P2-S0V0">
				<midi-channel>2</midi-channel>
				<midi-program>25</midi-program>
				<volume>78</volume>
				<pan>0</pan>
			</midi-instrument>
		</score-part>
		<score-part id="P3">
			<part-name>Trombone</part-name>
			<part-abbreviation>Trbn</part-abbreviation>
			<score-instrument id="P3-S0V0">
				<instrument-name>Trombone</instrument-name>
			</score-instrument>
			<midi-instrument id="P3-S0V0">
				<midi-channel>3</midi-channel>
				<midi-program>58</midi-program>
				<volume>78</volume>
				<pan>0</pan>
			</midi-instrument>
		</score-part>
	</part-list><!--
===========================================================
-->

	<part id="P1">
		<measure number="1" width="242">
			<print>
				<page-layout>
					<page-height>2104.96</page-height>
					<page-width>1727.54</page-width>
					<page-margins>
						<left-margin>271.39</left-margin>
						<right-margin>123.13</right-margin>
						<top-margin>127.00</top-margin>
						<bottom-margin>63.50</bottom-margin>
					</page-margins>
				</page-layout>
				<system-layout>
					<system-margins>
						<left-margin>267</left-margin>
						<right-margin>3</right-margin>
					</system-margins>
					<top-system-distance>313</top-system-distance>
				</system-layout>
			</print>
			<attributes>
				<divisions>60</divisions>
				<key>
					<fifths>0</fifths>
				</key>
				<time>
					<beats>4</beats>
					<beat-type>4</beat-type>
				</time>
				<clef>
					<sign>G</sign>
					<line>2</line>
				</clef>
				<staff-details number="1" print-object="yes">
					<staff-size>79</staff-size>
				</staff-details>
			</attributes>
			<attributes></attributes>
			<barline location="left">
				<bar-style>heavy-light</bar-style>
				<repeat direction="forward"/>
			</barline>
			<note>
				<pitch>
					<step>F</step>
					<octave>4</octave>
				</pitch>
				<duration>60</duration>
				<voice>1</voice>
				<type>quarter</type>
				<stem>up</stem>
				<notations>
					<slur type="start" number="1"></slur>
				</notations>
				<lyric number="1">
					<syllabic>begin</syllabic>
					<text>Ma</text>
				</lyric>
				<lyric number="2">
					<syllabic>single</syllabic>
					<text>Ut</text>
				</lyric>
			</note>
			<direction placement="above">
				<direction-type>
					<words relative-x="12.5555" default-y="224.3077" font-family="Times New Roman" font-style="normal" font-size="22" font-weight="normal" color="#000000">24. MATER CHRISTI NOBILIS</words>
				</direction-type>
				<staff>1</staff>
			</direction>
			<note>
				<pitch>
					<step>G</step>
					<octave>4</octave>
				</pitch>
				<duration>60</duration>
				<voice>1</voice>
				<type>quarter</type>
				<stem>up</stem>
				<notations>
					<slur type="stop" number="1"></slur>
				</notations>
			</note>
			<note>
				<pitch>
					<step>A</step>
					<octave>4</octave>
				</pitch>
				<duration>60</duration>
				<voice>1</voice>
				<type>quarter</type>
				<stem>up</stem>
				<lyric number="1">
					<syllabic>end</syllabic>
					<text>-ter</text>
				</lyric>
				<lyric number="2">
					<syllabic>single</syllabic>
					<text>sic</text>
				</lyric>
			</note>
			<forward>
				<duration>60</duration>
			</forward>
		</measure><!--
===========================================================
-->

		<measure number="2" width="133">
			<print new-system="no"></print>
			<attributes></attributes>
			<note>
				<pitch>
					<step>B</step>
					<alter>-1</alter>
					<octave>4</octave>
				</pitch>
				<duration>120</duration>
				<voice>1</voice>
				<type>half</type>
				<accidental parentheses="no">flat</accidental>
				<stem>down</stem>
				<lyric number="1">
					<syllabic>begin</syllabic>
					<text>Chri</text>
				</lyric>
				<lyric number="2">
					<syllabic>begin</syllabic>
					<text>pos</text>
				</lyric>
			</note>
			<direction placement="above">
				<direction-type>
					<words relative-x="4.5645" default-y="187.3466" font-family="Times New Roman" font-style="normal" font-size="16" font-weight="normal" color="#000000">(i nc om lete)</words>
				</direction-type>
				<staff>1</staff>
			</direction>
			<note>
				<pitch>
					<step>G</step>
					<octave>4</octave>
				</pitch>
				<duration>60</duration>
				<voice>1</voice>
				<type>quarter</type>
				<stem>up</stem>
				<lyric number="1">
					<syllabic>end</syllabic>
					<text>sti</text>
				</lyric>
				<lyric number="2">
					<syllabic>end</syllabic>
					<text>sint</text>
				</lyric>
			</note>
			<forward>
				<duration>60</duration>
			</forward>
		</measure><!--
===========================================================
-->

		<measure number="3" width="126">
			<print new-system="no"></print>
			<attributes></attributes>
			<note>
				<pitch>
					<step>F</step>
					<octave>4</octave>
				</pitch>
				<duration>120</duration>
				<voice>1</voice>
				<type>half</type>
				<stem>up</stem>
				<lyric number="1">
					<syllabic>begin</syllabic>
					<text>no</text>
				</lyric>
				<lyric number="2">
					<syllabic>begin</syllabic>
					<text>vi</text>
				</lyric>
			</note>
			<direction placement="above">
				<direction-type>
					<dynamics>
						<p/>
					</dynamics>
				</direction-type>
				<staff>1</staff>
				<sound dynamics="68"/>
			</direction>
			<note>
				<pitch>
					<step>E</step>
					<octave>4</octave>
				</pitch>
				<duration>60</duration>
				<voice>1</voice>
				<type>quarter</type>
				<stem>up</stem>
				<lyric number="1">
					<syllabic>middle</syllabic>
					<text>-bi</text>
				</lyric>
				<lyric number="2">
					<syllabic>middle</syllabic>
					<text>-ve</text>
				</lyric>
			</note>
			<forward>
				<duration>60</duration>
			</forward>
		</measure><!--
===========================================================
-->

		<measure number="4" width="119">
			<print new-system="no"></print>
			<attributes></attributes>
			<note>
				<pitch>
					<step>F</step>
					<octave>4</octave>
				</pitch>
				<duration>120</duration>
				<voice>1</voice>
				<type>half</type>
				<stem>up</stem>
				<lyric number="1">
					<syllabic>end</syllabic>
					<text>-hs,</text>
				</lyric>
				<lyric number="2">
					<syllabic>end</syllabic>
					<text>-re</text>
				</lyric>
			</note>
			<note>
				<rest/>
				<duration>60</duration>
				<voice>1</voice>
				<type>quarter</type>
			</note>
			<forward>
				<duration>60</duration>
			</forward>
		</measure><!--
===========================================================
-->

		<measure number="5" width="133">
			<print new-system="no"></print>
			<attributes></attributes>
			<note>
				<pitch>
					<step>B</step>
					<alter>-1</alter>
					<octave>4</octave>
				</pitch>
				<duration>120</duration>
				<voice>1</voice>
				<type>half</type>
				<accidental parentheses="no">flat</accidental>
				<stem>down</stem>
				<lyric number="1">
					<syllabic>single</syllabic>
					<text>o</text>
				</lyric>
				<lyric number="2">
					<syllabic>begin</syllabic>
					<text>vi</text>
				</lyric>
			</note>
			<note>
				<pitch>
					<step>G</step>
					<octave>4</octave>
				</pitch>
				<duration>60</duration>
				<voice>1</voice>
				<type>quarter</type>
				<stem>up</stem>
				<lyric number="1">
					<syllabic>begin</syllabic>
					<text>vir</text>
				</lyric>
				<lyric number="2">
					<syllabic>end</syllabic>
					<text>-t</text>
				</lyric>
			</note>
			<forward>
				<duration>60</duration>
			</forward>
		</measure><!--
===========================================================
-->

		<measure number="6" width="133">
			<print new-system="no"></print>
			<attributes></attributes>
			<note>
				<pitch>
					<step>A</step>
					<octave>4</octave>
				</pitch>
				<duration>120</duration>
				<voice>1</voice>
				<type>half</type>
				<stem>up</stem>
				<lyric number="1">
					<syllabic>end</syllabic>
					<text>-go</text>
				</lyric>
				<lyric number="2">
					<syllabic>begin</syllabic>
					<text>vi</text>
				</lyric>
			</note>
			<note>
				<pitch>
					<step>B</step>
					<octave>4</octave>
				</pitch>
				<duration>60</duration>
				<voice>1</voice>
				<type>quarter</type>
				<accidental parentheses="no">natural</accidental>
				<stem>down</stem>
				<lyric number="1">
					<syllabic>begin</syllabic>
					<text>Ma</text>
				</lyric>
				<lyric number="2">
					<syllabic>end</syllabic>
					<text>-va</text>
				</lyric>
			</note>
			<forward>
				<duration>60</duration>
			</forward>
		</measure><!--
===========================================================
-->

		<measure number="7" width="171">
			<print new-system="no"></print>
			<attributes></attributes>
			<note>
				<pitch>
					<step>C</step>
					<octave>5</octave>
				</pitch>
				<duration>60</duration>
				<voice>1</voice>
				<type>quarter</type>
				<stem>down</stem>
				<lyric number="1">
					<syllabic>end</syllabic>
					<text>-ri</text>
				</lyric>
				<lyric number="2">
					<syllabic>begin</syllabic>
					<text>me</text>
				</lyric>
			</note>
			<note>
				<pitch>
					<step>B</step>
					<octave>4</octave>
				</pitch>
				<duration>30</duration>
				<voice>1</voice>
				<type>eighth</type>
				<stem>up</stem>
				<beam number="1">begin</beam>
			</note>
			<note>
				<pitch>
					<step>A</step>
					<octave>4</octave>
				</pitch>
				<duration>30</duration>
				<voice>1</voice>
				<type>eighth</type>
				<stem>up</stem>
				<beam number="1">end</beam>
			</note>
			<note>
				<pitch>
					<step>B</step>
					<octave>4</octave>
				</pitch>
				<duration>60</duration>
				<voice>1</voice>
				<type>quarter</type>
				<stem>down</stem>
			</note>
			<direction placement="above">
				<direction-type>
					<words relative-x="17.2373" default-y="318.4175" font-family="Times New Roman" font-style="normal" font-size="12" font-weight="normal" color="#000000">5 l</words>
				</direction-type>
				<staff>1</staff>
			</direction>
			<forward>
				<duration>60</duration>
			</forward>
		</measure><!--
===========================================================
-->

		<measure number="8" width="174">
			<print new-system="yes">
				<system-layout>
					<system-margins>
						<left-margin>0</left-margin>
						<right-margin>0</right-margin>
					</system-margins>
					<system-distance>238</system-distance>
				</system-layout>
			</print>
			<attributes></attributes>
			<note>
				<pitch>
					<step>C</step>
					<octave>5</octave>
				</pitch>
				<duration>120</duration>
				<voice>1</voice>
				<type>half</type>
				<stem>down</stem>
				<lyric number="1">
					<syllabic>single</syllabic>
					<text>-a,</text>
				</lyric>
				<lyric number="2">
					<syllabic>end</syllabic>
					<text>-ta,</text>
				</lyric>
			</note>
			<note>
				<rest/>
				<duration>60</duration>
				<voice>1</voice>
				<type>quarter</type>
			</note>
			<forward>
				<duration>60</duration>
			</forward>
		</measure><!--
===========================================================
-->

		<measure number="9" width="145">
			<print new-system="no"></print>
			<attributes></attributes>
			<note>
				<pitch>
					<step>B</step>
					<alter>-1</alter>
					<octave>4</octave>
				</pitch>
				<duration>120</duration>
				<voice>1</voice>
				<type>half</type>
				<accidental parentheses="no">flat</accidental>
				<stem>down</stem>
				<lyric number="1">
					<syllabic>begin</syllabic>
					<text>tu</text>
				</lyric>
				<lyric number="2">
					<syllabic>begin</syllabic>
					<text>qua</text>
				</lyric>
			</note>
			<note>
				<pitch>
					<step>C</step>
					<octave>5</octave>
				</pitch>
				<duration>60</duration>
				<voice>1</voice>
				<type>quarter</type>
				<stem>down</stem>
				<lyric number="1">
					<syllabic>end</syllabic>
					<text>-is</text>
				</lyric>
				<lyric number="2">
					<syllabic>middle</syllabic>
					<text>-ti</text>
				</lyric>
			</note>
			<forward>
				<duration>60</duration>
			</forward>
		</measure><!--
===========================================================
-->

		<measure number="10" width="123">
			<print new-system="no"></print>
			<attributes></attributes>
			<direction placement="above">
				<direction-type>
					<words relative-x="3.4237" default-y="29.4005" font-family="Times New Roman" font-style="normal" font-size="11" font-weight="normal" color="#000000">1 O</words>
				</direction-type>
				<staff>1</staff>
			</direction>
			<note>
				<pitch>
					<step>D</step>
					<octave>5</octave>
				</pitch>
				<duration>120</duration>
				<voice>1</voice>
				<type>half</type>
				<stem>down</stem>
				<lyric number="1">
					<syllabic>begin</syllabic>
					<text>e</text>
				</lyric>
				<lyric number="2">
					<syllabic>end</syllabic>
					<text>-nus</text>
				</lyric>
			</note>
			<direction placement="above">
				<direction-type>
					<words relative-x="-31.3545" default-y="212.5537" font-family="Times New Roman" font-style="normal" font-size="12" font-weight="normal" color="#000000">Ma -</words>
				</direction-type>
				<staff>1</staff>
			</direction>
			<direction placement="above">
				<direction-type>
					<words relative-x="-30.2045" default-y="189.5914" font-family="Times New Roman" font-style="normal" font-size="13" font-weight="normal" color="#000000">Ut</words>
				</direction-type>
				<staff>1</staff>
			</direction>
			<note>
				<pitch>
					<step>C</step>
					<octave>5</octave>
				</pitch>
				<duration>60</duration>
				<voice>1</voice>
				<type>quarter</type>
				<stem>down</stem>
				<lyric number="1">
					<syllabic>end</syllabic>
					<text>sto</text>
				</lyric>
				<lyric number="2">
					<syllabic>begin</syllabic>
					<text>r</text>
				</lyric>
			</note>
			<direction placement="above">
				<direction-type>
					<words relative-x="14.8223" default-y="209.1865" font-family="Times New Roman" font-style="normal" font-size="12" font-weight="normal" color="#000000">- ter</words>
				</direction-type>
				<staff>1</staff>
			</direction>
			<direction placement="above">
				<direction-type>
					<words relative-x="22.8047" default-y="190.1526" font-family="Times New Roman" font-style="normal" font-size="13" font-weight="normal" color="#000000">sic</words>
				</direction-type>
				<staff>1</staff>
			</direction>
			<forward>
				<duration>60</duration>
			</forward>
		</measure><!--
===========================================================
-->

		<measure number="11" width="184">
			<print new-system="no"></print>
			<attributes></attributes>
			<note>
				<pitch>
					<step>C</step>
					<octave>5</octave>
				</pitch>
				<duration>20</duration>
				<voice>1</voice>
				<type>eighth</type>
				<time-modification>
					<actual-notes>3</actual-notes>
					<normal-notes>2</normal-notes>
				</time-modification>
				<stem>down</stem>
				<beam number="1">begin</beam>
				<notations>
					<tuplet type="start" number="1">
						<tuplet-actual>
							<tuplet-number>3</tuplet-number>
							<tuplet-type>eighth</tuplet-type>
						</tuplet-actual>
						<tuplet-normal>
							<tuplet-number>2</tuplet-number>
							<tuplet-type>eighth</tuplet-type>
						</tuplet-normal>
					</tuplet>
				</notations>
				<lyric number="1">
					<syllabic>begin</syllabic>
					<text>fa</text>
				</lyric>
				<lyric number="2">
					<syllabic>middle</syllabic>
					<text>-ci</text>
				</lyric>
			</note>
			<note>
				<pitch>
					<step>B</step>
					<alter>-1</alter>
					<octave>4</octave>
				</pitch>
				<duration>20</duration>
				<voice>1</voice>
				<type>eighth</type>
				<accidental parentheses="no">flat</accidental>
				<time-modification>
					<actual-notes>3</actual-notes>
					<normal-notes>2</normal-notes>
				</time-modification>
				<stem>down</stem>
				<beam number="1">continue</beam>
				<notations></notations>
			</note>
			<note>
				<pitch>
					<step>A</step>
					<octave>4</octave>
				</pitch>
				<duration>20</duration>
				<voice>1</voice>
				<type>eighth</type>
				<time-modification>
					<actual-notes>3</actual-notes>
					<normal-notes>2</normal-notes>
				</time-modification>
				<stem>down</stem>
				<beam number="1">end</beam>
				<notations>
					<tuplet type="stop" number="1"></tuplet>
				</notations>
			</note>
			<direction placement="above">
				<direction-type>
					<words relative-x="18.9573" default-y="213.6761" font-family="Times New Roman" font-style="normal" font-size="12" font-weight="normal" color="#000000">Chri - sti</words>
				</direction-type>
				<staff>1</staff>
			</direction>
			<direction placement="above">
				<direction-type>
					<words relative-x="27.5115" default-y="190.1526" font-family="Times New Roman" font-style="normal" font-size="13" font-weight="normal" color="#000000">pos - sint</words>
				</direction-type>
				<staff>1</staff>
			</direction>
			<note>
				<pitch>
					<step>B</step>
					<alter>-1</alter>
					<octave>4</octave>
				</pitch>
				<duration>30</duration>
				<voice>1</voice>
				<type>eighth</type>
				<stem>up</stem>
				<beam number="1">begin</beam>
			</note>
			<note>
				<pitch>
					<step>G</step>
					<octave>4</octave>
				</pitch>
				<duration>30</duration>
				<voice>1</voice>
				<type>eighth</type>
				<stem>up</stem>
				<beam number="1">end</beam>
			</note>
			<note>
				<pitch>
					<step>A</step>
					<octave>4</octave>
				</pitch>
				<duration>60</duration>
				<voice>1</voice>
				<type>quarter</type>
				<stem>up</stem>
				<lyric number="1">
					<syllabic>end</syllabic>
					<text>-mu</text>
				</lyric>
				<lyric number="2">
					<syllabic>middle</syllabic>
					<text>-pe</text>
				</lyric>
			</note>
			<forward>
				<duration>60</duration>
			</forward>
		</measure><!--
===========================================================
-->

		<measure number="12" width="119">
			<print new-system="no"></print>
			<attributes></attributes>
			<note>
				<pitch>
					<step>B</step>
					<alter>-1</alter>
					<octave>4</octave>
				</pitch>
				<duration>120</duration>
				<voice>1</voice>
				<type>half</type>
				<accidental parentheses="no">flat</accidental>
				<stem>down</stem>
				<lyric number="1">
					<syllabic>single</syllabic>
					<text>lis</text>
				</lyric>
				<lyric number="2">
					<syllabic>end</syllabic>
					<text>-re</text>
				</lyric>
			</note>
			<direction placement="above">
				<direction-type>
					<words relative-x="-39.6216" default-y="190.7138" font-family="Times New Roman" font-style="normal" font-size="13" font-weight="normal" color="#000000">vi -</words>
				</direction-type>
				<staff>1</staff>
			</direction>
			<direction placement="above">
				<direction-type>
					<words relative-x="-38.4942" default-y="213.6761" font-family="Times New Roman" font-style="normal" font-size="12" font-weight="normal" color="#000000">no - - bi - - hs,</words>
				</direction-type>
				<staff>1</staff>
			</direction>
			<note>
				<rest/>
				<duration>60</duration>
				<voice>1</voice>
				<type>quarter</type>
			</note>
			<direction placement="above">
				<direction-type>
					<words relative-x="-4.4331" default-y="185.6630" font-family="Times New Roman" font-style="normal" font-size="13" font-weight="normal" color="#000000">ve - - re</words>
				</direction-type>
				<staff>1</staff>
			</direction>
			<forward>
				<duration>60</duration>
			</forward>
		</measure><!--
===========================================================
-->

		<measure number="13" width="143">
			<print new-system="no"></print>
			<attributes></attributes>
			<note>
				<pitch>
					<step>B</step>
					<alter>-1</alter>
					<octave>4</octave>
				</pitch>
				<duration>120</duration>
				<voice>1</voice>
				<type>half</type>
				<accidental parentheses="no">flat</accidental>
				<stem>down</stem>
				<lyric number="1">
					<syllabic>begin</syllabic>
					<text>mi</text>
				</lyric>
				<lyric number="2">
					<syllabic>begin</syllabic>
					<text>que</text>
				</lyric>
			</note>
			<note>
				<pitch>
					<step>B</step>
					<alter>-1</alter>
					<octave>4</octave>
				</pitch>
				<duration>60</duration>
				<voice>1</voice>
				<type>quarter</type>
				<stem>down</stem>
				<lyric number="1">
					<syllabic>middle</syllabic>
					<text>se</text>
				</lyric>
				<lyric number="2">
					<syllabic>end</syllabic>
					<text>ant</text>
				</lyric>
			</note>
			<forward>
				<duration>60</duration>
			</forward>
		</measure><!--
===========================================================
-->

		<measure number="14" width="159">
			<print new-system="no"></print>
			<attributes></attributes>
			<direction placement="above">
				<direction-type>
					<words relative-x="7.9809" default-y="191.2750" font-family="Times New Roman" font-style="normal" font-size="13" font-weight="normal" color="#000000">vi - - te</words>
				</direction-type>
				<staff>1</staff>
			</direction>
			<note>
				<pitch>
					<step>A</step>
					<octave>4</octave>
				</pitch>
				<duration>120</duration>
				<voice>1</voice>
				<type>half</type>
				<stem>up</stem>
				<lyric number="1">
					<syllabic>middle</syllabic>
					<text>-ra</text>
				</lyric>
				<lyric number="2">
					<syllabic>begin</syllabic>
					<text>ce</text>
				</lyric>
			</note>
			<direction placement="above">
				<direction-type>
					<words relative-x="-9.9664" default-y="214.2373" font-family="Times New Roman" font-style="normal" font-size="12" font-weight="normal" color="#000000">vir - - go</words>
				</direction-type>
				<staff>1</staff>
			</direction>
			<note>
				<pitch>
					<step>G</step>
					<octave>4</octave>
				</pitch>
				<duration>60</duration>
				<voice>1</voice>
				<type>quarter</type>
				<stem>up</stem>
				<lyric number="1">
					<syllabic>end</syllabic>
					<text>-trix</text>
				</lyric>
				<lyric number="2">
					<syllabic>end</syllabic>
					<text>-li</text>
				</lyric>
			</note>
			<direction placement="above">
				<direction-type>
					<words relative-x="27.8020" default-y="186.2242" font-family="Times New Roman" font-style="normal" font-size="13" font-weight="normal" color="#000000">v1 - - va</words>
				</direction-type>
				<staff>1</staff>
			</direction>
			<forward>
				<duration>60</duration>
			</forward>
		</measure><!--
===========================================================
-->

		<measure number="15" width="172">
			<print new-system="no"></print>
			<attributes></attributes>
			<direction placement="above">
				<direction-type>
					<words relative-x="1.7183" default-y="41.7157" font-family="Times New Roman" font-style="normal" font-size="12" font-weight="normal" color="#000000">l 5</words>
				</direction-type>
				<staff>1</staff>
			</direction>
			<note>
				<pitch>
					<step>F</step>
					<octave>4</octave>
				</pitch>
				<duration>30</duration>
				<voice>1</voice>
				<type>eighth</type>
				<stem>up</stem>
				<beam number="1">begin</beam>
				<lyric number="1">
					<syllabic>begin</syllabic>
					<text>pi</text>
				</lyric>
				<lyric number="2">
					<syllabic>begin</syllabic>
					<text>l</text>
				</lyric>
			</note>
			<note>
				<pitch>
					<step>E</step>
					<octave>4</octave>
				</pitch>
				<duration>30</duration>
				<voice>1</voice>
				<type>eighth</type>
				<stem>up</stem>
				<beam number="1">continue</beam>
			</note>
			<direction placement="above">
				<direction-type>
					<words relative-x="4.2826" default-y="215.3597" font-family="Times New Roman" font-style="normal" font-size="12" font-weight="normal" color="#000000">Ma - - ri -</words>
				</direction-type>
				<staff>1</staff>
			</direction>
			<note>
				<pitch>
					<step>F</step>
					<octave>4</octave>
				</pitch>
				<duration>30</duration>
				<voice>1</voice>
				<type>eighth</type>
				<stem>up</stem>
				<beam number="1">continue</beam>
			</note>
			<note>
				<pitch>
					<step>D</step>
					<octave>4</octave>
				</pitch>
				<duration>30</duration>
				<voice>1</voice>
				<type>eighth</type>
				<stem>up</stem>
				<beam number="1">end</beam>
			</note>
			<note>
				<pitch>
					<step>E</step>
					<octave>4</octave>
				</pitch>
				<duration>60</duration>
				<voice>1</voice>
				<type>quarter</type>
				<stem>up</stem>
			</note>
			<direction placement="above">
				<direction-type>
					<words relative-x="-8.2709" default-y="186.7854" font-family="Times New Roman" font-style="normal" font-size="13" font-weight="normal" color="#000000">me -</words>
				</direction-type>
				<staff>1</staff>
			</direction>
			<forward>
				<duration>60</duration>
			</forward>
		</measure><!--
===========================================================
-->

		<measure number="16" width="111">
			<print new-system="no"></print>
			<attributes></attributes>
			<note>
				<pitch>
					<step>F</step>
					<octave>4</octave>
				</pitch>
				<duration>180</duration>
				<voice>1</voice>
				<type>half</type>
				<dot/>
				<stem>up</stem>
				<lyric number="1">
					<syllabic>end</syllabic>
					<text>-a.</text>
				</lyric>
				<lyric number="2">
					<syllabic>end</syllabic>
					<text>-tal</text>
				</lyric>
			</note>
			<forward>
				<duration>60</duration>
			</forward>
			<barline location="right">
				<bar-style>light-heavy</bar-style>
				<repeat direction="backward"/>
			</barline>
		</measure>
	</part><!--
===========================================================
-->

	<part id="P2">
		<measure number="1" width="242">
			<print>
				<page-layout>
					<page-height>2104.96</page-height>
					<page-width>1727.54</page-width>
					<page-margins>
						<left-margin>271.39</left-margin>
						<right-margin>123.13</right-margin>
						<top-margin>127.00</top-margin>
						<bottom-margin>63.50</bottom-margin>
					</page-margins>
				</page-layout>
				<system-layout>
					<system-margins>
						<left-margin>267</left-margin>
						<right-margin>3</right-margin>
					</system-margins>
					<top-system-distance>313</top-system-distance>
				</system-layout>
				<staff-layout number="1">
					<staff-distance>108</staff-distance>
				</staff-layout>
			</print>
			<attributes>
				<divisions>60</divisions>
				<key>
					<fifths>0</fifths>
				</key>
				<time>
					<beats>4</beats>
					<beat-type>4</beat-type>
				</time>
				<clef>
					<sign>G</sign>
					<line>2</line>
				</clef>
				<staff-details number="1" print-object="yes">
					<staff-size>79</staff-size>
				</staff-details>
				<transpose>
					<diatonic>0</diatonic>
					<chromatic>0</chromatic>
					<octave-change>-1</octave-change>
				</transpose>
			</attributes>
			<attributes></attributes>
			<barline location="left">
				<bar-style>heavy-light</bar-style>
				<repeat direction="forward"/>
			</barline>
			<note>
				<pitch>
					<step>C</step>
					<octave>5</octave>
				</pitch>
				<duration>120</duration>
				<voice>1</voice>
				<type>half</type>
				<stem>down</stem>
				<lyric number="1">
					<syllabic>begin</syllabic>
					<text>Ma</text>
				</lyric>
				<lyric number="2">
					<syllabic>single</syllabic>
					<text>Ut</text>
				</lyric>
			</note>
			<note>
				<pitch>
					<step>C</step>
					<octave>5</octave>
				</pitch>
				<duration>30</duration>
				<voice>1</voice>
				<type>eighth</type>
				<stem>down</stem>
				<beam number="1">begin</beam>
				<notations>
					<slur type="start" number="1"></slur>
				</notations>
				<lyric number="1">
					<syllabic>end</syllabic>
					<text>-tcr</text>
				</lyric>
				<lyric number="2">
					<syllabic>single</syllabic>
					<text>sic</text>
				</lyric>
			</note>
			<note>
				<pitch>
					<step>D</step>
					<octave>5</octave>
				</pitch>
				<duration>30</duration>
				<voice>1</voice>
				<type>eighth</type>
				<stem>down</stem>
				<beam number="1">end</beam>
				<notations>
					<slur type="stop" number="1"></slur>
				</notations>
			</note>
			<forward>
				<duration>60</duration>
			</forward>
		</measure><!--
===========================================================
-->

		<measure number="2" width="133">
			<print new-system="no"></print>
			<attributes></attributes>
			<note>
				<pitch>
					<step>E</step>
					<alter>-1</alter>
					<octave>5</octave>
				</pitch>
				<duration>120</duration>
				<voice>1</voice>
				<type>half</type>
				<accidental parentheses="no">flat</accidental>
				<stem>down</stem>
				<lyric number="1">
					<syllabic>begin</syllabic>
					<text>Chri</text>
				</lyric>
				<lyric number="2">
					<syllabic>begin</syllabic>
					<text>po</text>
				</lyric>
			</note>
			<note>
				<pitch>
					<step>E</step>
					<alter>-1</alter>
					<octave>5</octave>
				</pitch>
				<duration>60</duration>
				<voice>1</voice>
				<type>quarter</type>
				<stem>down</stem>
				<lyric number="1">
					<syllabic>end</syllabic>
					<text>sti</text>
				</lyric>
				<lyric number="2">
					<syllabic>end</syllabic>
					<text>sint</text>
				</lyric>
			</note>
			<forward>
				<duration>60</duration>
			</forward>
		</measure><!--
===========================================================
-->

		<measure number="3" width="126">
			<print new-system="no"></print>
			<attributes></attributes>
			<note>
				<pitch>
					<step>C</step>
					<octave>5</octave>
				</pitch>
				<duration>120</duration>
				<voice>1</voice>
				<type>half</type>
				<stem>down</stem>
				<lyric number="1">
					<syllabic>begin</syllabic>
					<text>no</text>
				</lyric>
				<lyric number="2">
					<syllabic>begin</syllabic>
					<text>vi</text>
				</lyric>
			</note>
			<note>
				<pitch>
					<step>B</step>
					<octave>4</octave>
				</pitch>
				<duration>60</duration>
				<voice>1</voice>
				<type>quarter</type>
				<stem>down</stem>
				<lyric number="1">
					<syllabic>middle</syllabic>
					<text>-bi</text>
				</lyric>
				<lyric number="2">
					<syllabic>middle</syllabic>
					<text>-ve</text>
				</lyric>
			</note>
			<forward>
				<duration>60</duration>
			</forward>
		</measure><!--
===========================================================
-->

		<measure number="4" width="119">
			<print new-system="no"></print>
			<attributes></attributes>
			<note>
				<pitch>
					<step>C</step>
					<octave>5</octave>
				</pitch>
				<duration>120</duration>
				<voice>1</voice>
				<type>half</type>
				<stem>down</stem>
				<lyric number="1">
					<syllabic>end</syllabic>
					<text>-lis,</text>
				</lyric>
				<lyric number="2">
					<syllabic>end</syllabic>
					<text>-re</text>
				</lyric>
			</note>
			<note>
				<rest/>
				<duration>60</duration>
				<voice>1</voice>
				<type>quarter</type>
			</note>
			<forward>
				<duration>60</duration>
			</forward>
		</measure><!--
===========================================================
-->

		<measure number="5" width="133">
			<print new-system="no"></print>
			<attributes></attributes>
			<note>
				<pitch>
					<step>F</step>
					<octave>5</octave>
				</pitch>
				<duration>120</duration>
				<voice>1</voice>
				<type>half</type>
				<stem>down</stem>
				<lyric number="1">
					<syllabic>single</syllabic>
					<text>o</text>
				</lyric>
				<lyric number="2">
					<syllabic>begin</syllabic>
					<text>vi</text>
				</lyric>
			</note>
			<note>
				<pitch>
					<step>F</step>
					<octave>5</octave>
				</pitch>
				<duration>60</duration>
				<voice>1</voice>
				<type>quarter</type>
				<stem>down</stem>
				<lyric number="1">
					<syllabic>begin</syllabic>
					<text>vir</text>
				</lyric>
				<lyric number="2">
					<syllabic>end</syllabic>
					<text>-te</text>
				</lyric>
			</note>
			<forward>
				<duration>60</duration>
			</forward>
		</measure><!--
===========================================================
-->

		<measure number="6" width="133">
			<print new-system="no"></print>
			<attributes></attributes>
			<note>
				<pitch>
					<step>E</step>
					<octave>5</octave>
				</pitch>
				<duration>120</duration>
				<voice>1</voice>
				<type>half</type>
				<accidental parentheses="no">natural</accidental>
				<stem>down</stem>
				<lyric number="1">
					<syllabic>end</syllabic>
					<text>-go</text>
				</lyric>
				<lyric number="2">
					<syllabic>begin</syllabic>
					<text>vi</text>
				</lyric>
			</note>
			<note>
				<pitch>
					<step>F</step>
					<alter>1</alter>
					<octave>5</octave>
				</pitch>
				<duration>60</duration>
				<voice>1</voice>
				<type>quarter</type>
				<accidental parentheses="no">sharp</accidental>
				<stem>down</stem>
				<lyric number="1">
					<syllabic>begin</syllabic>
					<text>Ma</text>
				</lyric>
				<lyric number="2">
					<syllabic>end</syllabic>
					<text>-va</text>
				</lyric>
			</note>
			<forward>
				<duration>60</duration>
			</forward>
		</measure><!--
===========================================================
-->

		<measure number="7" width="171">
			<print new-system="no"></print>
			<attributes></attributes>
			<note>
				<pitch>
					<step>G</step>
					<octave>5</octave>
				</pitch>
				<duration>120</duration>
				<voice>1</voice>
				<type>half</type>
				<stem>down</stem>
				<lyric number="1">
					<syllabic>end</syllabic>
					<text>-ri</text>
				</lyric>
				<lyric number="2">
					<syllabic>begin</syllabic>
					<text>me</text>
				</lyric>
			</note>
			<note>
				<pitch>
					<step>F</step>
					<alter>1</alter>
					<octave>5</octave>
				</pitch>
				<duration>60</duration>
				<voice>1</voice>
				<type>quarter</type>
				<accidental parentheses="no">sharp</accidental>
				<stem>down</stem>
			</note>
			<forward>
				<duration>60</duration>
			</forward>
		</measure><!--
===========================================================
-->

		<measure number="8" width="174">
			<print new-system="yes">
				<system-layout>
					<system-margins>
						<left-margin>0</left-margin>
						<right-margin>0</right-margin>
					</system-margins>
					<system-distance>238</system-distance>
				</system-layout>
				<staff-layout number="1">
					<staff-distance>116</staff-distance>
				</staff-layout>
			</print>
			<attributes></attributes>
			<note>
				<pitch>
					<step>G</step>
					<octave>5</octave>
				</pitch>
				<duration>120</duration>
				<voice>1</voice>
				<type>half</type>
				<stem>down</stem>
				<lyric number="1">
					<syllabic>single</syllabic>
					<text>-a,</text>
				</lyric>
				<lyric number="2">
					<syllabic>end</syllabic>
					<text>-ta,</text>
				</lyric>
			</note>
			<note>
				<rest/>
				<duration>60</duration>
				<voice>1</voice>
				<type>quarter</type>
			</note>
			<forward>
				<duration>60</duration>
			</forward>
		</measure><!--
===========================================================
-->

		<measure number="9" width="145">
			<print new-system="no"></print>
			<attributes></attributes>
			<note>
				<pitch>
					<step>F</step>
					<octave>5</octave>
				</pitch>
				<duration>120</duration>
				<voice>1</voice>
				<type>half</type>
				<accidental parentheses="no">natural</accidental>
				<stem>down</stem>
				<lyric number="1">
					<syllabic>begin</syllabic>
					<text>tu</text>
				</lyric>
				<lyric number="2">
					<syllabic>begin</syllabic>
					<text>qua</text>
				</lyric>
			</note>
			<note>
				<pitch>
					<step>E</step>
					<octave>5</octave>
				</pitch>
				<duration>30</duration>
				<voice>1</voice>
				<type>eighth</type>
				<stem>down</stem>
				<beam number="1">begin</beam>
				<lyric number="1">
					<syllabic>end</syllabic>
					<text>is</text>
				</lyric>
				<lyric number="2">
					<syllabic>middle</syllabic>
					<text>-ti</text>
				</lyric>
			</note>
			<note>
				<pitch>
					<step>F</step>
					<octave>5</octave>
				</pitch>
				<duration>30</duration>
				<voice>1</voice>
				<type>eighth</type>
				<stem>down</stem>
				<beam number="1">end</beam>
			</note>
			<forward>
				<duration>60</duration>
			</forward>
		</measure><!--
===========================================================
-->

		<measure number="10" width="123">
			<print new-system="no"></print>
			<attributes></attributes>
			<note>
				<pitch>
					<step>G</step>
					<octave>5</octave>
				</pitch>
				<duration>120</duration>
				<voice>1</voice>
				<type>half</type>
				<stem>down</stem>
				<notations>
					<articulations>
						<tenuto placement="above"/>
					</articulations>
				</notations>
				<lyric number="1">
					<syllabic>begin</syllabic>
					<text>e</text>
				</lyric>
				<lyric number="2">
					<syllabic>end</syllabic>
					<text>-nus</text>
				</lyric>
			</note>
			<direction placement="above">
				<direction-type>
					<dynamics>
						<p/>
					</dynamics>
				</direction-type>
				<staff>1</staff>
				<sound dynamics="68"/>
			</direction>
			<note>
				<pitch>
					<step>E</step>
					<octave>5</octave>
				</pitch>
				<duration>60</duration>
				<voice>1</voice>
				<type>quarter</type>
				<stem>down</stem>
				<lyric number="1">
					<syllabic>end</syllabic>
					<text>-sto</text>
				</lyric>
				<lyric number="2">
					<syllabic>begin</syllabic>
					<text>per</text>
				</lyric>
			</note>
			<forward>
				<duration>60</duration>
			</forward>
		</measure><!--
===========================================================
-->

		<measure number="11" width="184">
			<print new-system="no"></print>
			<attributes></attributes>
			<note>
				<pitch>
					<step>F</step>
					<octave>5</octave>
				</pitch>
				<duration>30</duration>
				<voice>1</voice>
				<type>eighth</type>
				<stem>down</stem>
				<beam number="1">begin</beam>
				<lyric number="1">
					<syllabic>begin</syllabic>
					<text>fa</text>
				</lyric>
				<lyric number="2">
					<syllabic>middle</syllabic>
					<text>-ci</text>
				</lyric>
			</note>
			<note>
				<pitch>
					<step>E</step>
					<octave>5</octave>
				</pitch>
				<duration>30</duration>
				<voice>1</voice>
				<type>eighth</type>
				<stem>down</stem>
				<beam number="1">end</beam>
			</note>
			<note>
				<pitch>
					<step>F</step>
					<octave>5</octave>
				</pitch>
				<duration>30</duration>
				<voice>1</voice>
				<type>eighth</type>
				<stem>down</stem>
				<beam number="1">begin</beam>
			</note>
			<note>
				<pitch>
					<step>D</step>
					<octave>5</octave>
				</pitch>
				<duration>30</duration>
				<voice>1</voice>
				<type>eighth</type>
				<stem>down</stem>
				<beam number="1">end</beam>
			</note>
			<note>
				<pitch>
					<step>E</step>
					<octave>5</octave>
				</pitch>
				<duration>60</duration>
				<voice>1</voice>
				<type>quarter</type>
				<stem>down</stem>
				<lyric number="1">
					<syllabic>middle</syllabic>
					<text>-mu</text>
				</lyric>
				<lyric number="2">
					<syllabic>end</syllabic>
					<text>-</text>
				</lyric>
			</note>
			<forward>
				<duration>60</duration>
			</forward>
		</measure><!--
===========================================================
-->

		<measure number="12" width="119">
			<print new-system="no"></print>
			<attributes></attributes>
			<note>
				<pitch>
					<step>F</step>
					<octave>5</octave>
				</pitch>
				<duration>120</duration>
				<voice>1</voice>
				<type>half</type>
				<stem>down</stem>
				<notations>
					<articulations>
						<tenuto placement="above"/>
					</articulations>
				</notations>
				<lyric number="1">
					<syllabic>end</syllabic>
					<text>lis</text>
				</lyric>
				<lyric number="2">
					<syllabic>single</syllabic>
					<text>re</text>
				</lyric>
			</note>
			<note>
				<rest/>
				<duration>60</duration>
				<voice>1</voice>
				<type>quarter</type>
			</note>
			<forward>
				<duration>60</duration>
			</forward>
		</measure><!--
===========================================================
-->

		<measure number="13" width="143">
			<print new-system="no"></print>
			<attributes></attributes>
			<note>
				<pitch>
					<step>E</step>
					<alter>-1</alter>
					<octave>5</octave>
				</pitch>
				<duration>120</duration>
				<voice>1</voice>
				<type>half</type>
				<accidental parentheses="no">flat</accidental>
				<stem>down</stem>
				<lyric number="1">
					<syllabic>begin</syllabic>
					<text>mi</text>
				</lyric>
				<lyric number="2">
					<syllabic>begin</syllabic>
					<text>qu</text>
				</lyric>
			</note>
			<note>
				<pitch>
					<step>E</step>
					<alter>-1</alter>
					<octave>5</octave>
				</pitch>
				<duration>30</duration>
				<voice>1</voice>
				<type>eighth</type>
				<stem>down</stem>
				<beam number="1">begin</beam>
				<lyric number="1">
					<syllabic>middle</syllabic>
					<text>-s</text>
				</lyric>
				<lyric number="2">
					<syllabic>end</syllabic>
					<text>ant</text>
				</lyric>
			</note>
			<note>
				<pitch>
					<step>D</step>
					<octave>5</octave>
				</pitch>
				<duration>30</duration>
				<voice>1</voice>
				<type>eighth</type>
				<stem>down</stem>
				<beam number="1">end</beam>
				<notations></notations>
			</note>
			<forward>
				<duration>60</duration>
			</forward>
		</measure><!--
===========================================================
-->

		<measure number="14" width="159">
			<print new-system="no"></print>
			<attributes></attributes>
			<note>
				<pitch>
					<step>C</step>
					<octave>5</octave>
				</pitch>
				<duration>120</duration>
				<voice>1</voice>
				<type>half</type>
				<stem>down</stem>
				<lyric number="1">
					<syllabic>middle</syllabic>
					<text>-ra</text>
				</lyric>
				<lyric number="2">
					<syllabic>begin</syllabic>
					<text>ce</text>
				</lyric>
			</note>
			<note>
				<pitch>
					<step>B</step>
					<octave>4</octave>
				</pitch>
				<duration>60</duration>
				<voice>1</voice>
				<type>quarter</type>
				<stem>down</stem>
				<lyric number="1">
					<syllabic>end</syllabic>
					<text>-trix</text>
				</lyric>
				<lyric number="2">
					<syllabic>end</syllabic>
					<text>-li</text>
				</lyric>
			</note>
			<forward>
				<duration>60</duration>
			</forward>
		</measure><!--
===========================================================
-->

		<measure number="15" width="172">
			<print new-system="no"></print>
			<attributes></attributes>
			<note>
				<pitch>
					<step>C</step>
					<octave>5</octave>
				</pitch>
				<duration>30</duration>
				<voice>1</voice>
				<type>eighth</type>
				<stem>down</stem>
				<beam number="1">begin</beam>
				<lyric number="1">
					<syllabic>begin</syllabic>
					<text>pi</text>
				</lyric>
				<lyric number="2">
					<syllabic>begin</syllabic>
					<text>le</text>
				</lyric>
			</note>
			<note>
				<pitch>
					<step>B</step>
					<octave>4</octave>
				</pitch>
				<duration>30</duration>
				<voice>1</voice>
				<type>eighth</type>
				<stem>down</stem>
				<beam number="1">continue</beam>
			</note>
			<note>
				<pitch>
					<step>C</step>
					<octave>5</octave>
				</pitch>
				<duration>30</duration>
				<voice>1</voice>
				<type>eighth</type>
				<stem>down</stem>
				<beam number="1">continue</beam>
			</note>
			<note>
				<pitch>
					<step>A</step>
					<octave>4</octave>
				</pitch>
				<duration>30</duration>
				<voice>1</voice>
				<type>eighth</type>
				<stem>down</stem>
				<beam number="1">end</beam>
			</note>
			<note>
				<pitch>
					<step>B</step>
					<octave>4</octave>
				</pitch>
				<duration>60</duration>
				<voice>1</voice>
				<type>quarter</type>
				<stem>down</stem>
			</note>
			<forward>
				<duration>60</duration>
			</forward>
		</measure><!--
===========================================================
-->

		<measure number="16" width="111">
			<print new-system="no"></print>
			<attributes></attributes>
			<note>
				<pitch>
					<step>C</step>
					<octave>5</octave>
				</pitch>
				<duration>180</duration>
				<voice>1</voice>
				<type>half</type>
				<dot/>
				<stem>down</stem>
				<lyric number="1">
					<syllabic>end</syllabic>
					<text>-a.</text>
				</lyric>
				<lyric number="2">
					<syllabic>end</syllabic>
					<text>tal</text>
				</lyric>
			</note>
			<forward>
				<duration>60</duration>
			</forward>
			<barline location="right">
				<bar-style>light-heavy</bar-style>
				<repeat direction="backward"/>
			</barline>
		</measure>
	</part><!--
===========================================================
-->

	<part id="P3">
		<measure number="1" width="242">
			<print>
				<page-layout>
					<page-height>2104.96</page-height>
					<page-width>1727.54</page-width>
					<page-margins>
						<left-margin>271.39</left-margin>
						<right-margin>123.13</right-margin>
						<top-margin>127.00</top-margin>
						<bottom-margin>63.50</bottom-margin>
					</page-margins>
				</page-layout>
				<system-layout>
					<system-margins>
						<left-margin>267</left-margin>
						<right-margin>3</right-margin>
					</system-margins>
					<top-system-distance>313</top-system-distance>
				</system-layout>
				<staff-layout number="1">
					<staff-distance>110</staff-distance>
				</staff-layout>
			</print>
			<attributes>
				<divisions>60</divisions>
				<key>
					<fifths>0</fifths>
				</key>
				<time>
					<beats>4</beats>
					<beat-type>4</beat-type>
				</time>
				<clef>
					<sign>G</sign>
					<line>2</line>
				</clef>
				<staff-details number="1" print-object="yes">
					<staff-size>79</staff-size>
				</staff-details>
			</attributes>
			<attributes></attributes>
			<barline location="left">
				<bar-style>heavy-light</bar-style>
				<repeat direction="forward"/>
			</barline>
			<note>
				<pitch>
					<step>F</step>
					<octave>4</octave>
				</pitch>
				<duration>120</duration>
				<voice>1</voice>
				<type>half</type>
				<stem>up</stem>
			</note>
			<note>
				<pitch>
					<step>F</step>
					<octave>4</octave>
				</pitch>
				<duration>60</duration>
				<voice>1</voice>
				<type>quarter</type>
				<stem>up</stem>
			</note>
			<forward>
				<duration>60</duration>
			</forward>
		</measure><!--
===========================================================
-->

		<measure number="2" width="133">
			<print new-system="no"></print>
			<attributes></attributes>
			<note>
				<pitch>
					<step>E</step>
					<alter>-1</alter>
					<octave>4</octave>
				</pitch>
				<duration>120</duration>
				<voice>1</voice>
				<type>half</type>
				<accidental parentheses="no">flat</accidental>
				<stem>up</stem>
			</note>
			<note>
				<pitch>
					<step>E</step>
					<alter>-1</alter>
					<octave>4</octave>
				</pitch>
				<duration>60</duration>
				<voice>1</voice>
				<type>quarter</type>
				<stem>up</stem>
			</note>
			<forward>
				<duration>60</duration>
			</forward>
		</measure><!--
===========================================================
-->

		<measure number="3" width="126">
			<print new-system="no"></print>
			<attributes></attributes>
			<note>
				<pitch>
					<step>F</step>
					<octave>4</octave>
				</pitch>
				<duration>120</duration>
				<voice>1</voice>
				<type>half</type>
				<stem>up</stem>
			</note>
			<note>
				<pitch>
					<step>G</step>
					<octave>4</octave>
				</pitch>
				<duration>60</duration>
				<voice>1</voice>
				<type>quarter</type>
				<stem>up</stem>
			</note>
			<forward>
				<duration>60</duration>
			</forward>
		</measure><!--
===========================================================
-->

		<measure number="4" width="119">
			<print new-system="no"></print>
			<attributes></attributes>
			<note>
				<pitch>
					<step>F</step>
					<octave>4</octave>
				</pitch>
				<duration>120</duration>
				<voice>1</voice>
				<type>half</type>
				<stem>up</stem>
			</note>
			<note>
				<rest/>
				<duration>60</duration>
				<voice>1</voice>
				<type>quarter</type>
			</note>
			<forward>
				<duration>60</duration>
			</forward>
		</measure><!--
===========================================================
-->

		<measure number="5" width="133">
			<print new-system="no"></print>
			<attributes></attributes>
			<note>
				<pitch>
					<step>B</step>
					<alter>-1</alter>
					<octave>4</octave>
				</pitch>
				<duration>120</duration>
				<voice>1</voice>
				<type>half</type>
				<accidental parentheses="no">flat</accidental>
				<stem>down</stem>
			</note>
			<note>
				<pitch>
					<step>B</step>
					<alter>-1</alter>
					<octave>4</octave>
				</pitch>
				<duration>60</duration>
				<voice>1</voice>
				<type>quarter</type>
				<stem>down</stem>
			</note>
			<forward>
				<duration>60</duration>
			</forward>
		</measure><!--
===========================================================
-->

		<measure number="6" width="133">
			<print new-system="no"></print>
			<attributes></attributes>
			<note>
				<pitch>
					<step>C</step>
					<octave>5</octave>
				</pitch>
				<duration>120</duration>
				<voice>1</voice>
				<type>half</type>
				<stem>down</stem>
			</note>
			<note>
				<pitch>
					<step>D</step>
					<octave>5</octave>
				</pitch>
				<duration>60</duration>
				<voice>1</voice>
				<type>quarter</type>
				<stem>down</stem>
			</note>
			<forward>
				<duration>60</duration>
			</forward>
		</measure><!--
===========================================================
-->

		<measure number="7" width="171">
			<print new-system="no"></print>
			<attributes></attributes>
			<note>
				<pitch>
					<step>E</step>
					<alter>-1</alter>
					<octave>5</octave>
				</pitch>
				<duration>120</duration>
				<voice>1</voice>
				<type>half</type>
				<accidental parentheses="no">flat</accidental>
				<stem>down</stem>
			</note>
			<note>
				<pitch>
					<step>D</step>
					<octave>5</octave>
				</pitch>
				<duration>60</duration>
				<voice>1</voice>
				<type>quarter</type>
				<stem>down</stem>
			</note>
			<forward>
				<duration>60</duration>
			</forward>
		</measure><!--
===========================================================
-->

		<measure number="8" width="174">
			<print new-system="yes">
				<system-layout>
					<system-margins>
						<left-margin>0</left-margin>
						<right-margin>0</right-margin>
					</system-margins>
					<system-distance>238</system-distance>
				</system-layout>
				<staff-layout number="1">
					<staff-distance>108</staff-distance>
				</staff-layout>
			</print>
			<attributes></attributes>
			<direction placement="below">
				<direction-type>
					<words relative-x="26.5145" default-y="-78.1312" font-family="Times New Roman" font-style="normal" font-size="12" font-weight="normal" color="#000000">- ta,</words>
				</direction-type>
				<staff>1</staff>
			</direction>
			<direction placement="below">
				<direction-type>
					<words relative-x="27.1959" default-y="-56.2757" font-family="Times New Roman" font-style="normal" font-size="12" font-weight="normal" color="#000000">- a,</words>
				</direction-type>
				<staff>1</staff>
			</direction>
			<note>
				<pitch>
					<step>C</step>
					<octave>5</octave>
				</pitch>
				<duration>120</duration>
				<voice>1</voice>
				<type>half</type>
				<stem>down</stem>
			</note>
			<note>
				<rest/>
				<duration>60</duration>
				<voice>1</voice>
				<type>quarter</type>
			</note>
			<forward>
				<duration>60</duration>
			</forward>
		</measure><!--
===========================================================
-->

		<measure number="9" width="145">
			<print new-system="no"></print>
			<attributes></attributes>
			<direction placement="below">
				<direction-type>
					<words relative-x="7.9813" default-y="-74.7640" font-family="Times New Roman" font-style="normal" font-size="12" font-weight="normal" color="#000000">qua - - ti -</words>
				</direction-type>
				<staff>1</staff>
			</direction>
			<direction placement="below">
				<direction-type>
					<words relative-x="10.2573" default-y="-51.8017" font-family="Times New Roman" font-style="normal" font-size="12" font-weight="normal" color="#000000">tu - - is</words>
				</direction-type>
				<staff>1</staff>
			</direction>
			<note>
				<pitch>
					<step>B</step>
					<alter>-1</alter>
					<octave>4</octave>
				</pitch>
				<duration>120</duration>
				<voice>1</voice>
				<type>half</type>
				<accidental parentheses="no">flat</accidental>
				<stem>down</stem>
			</note>
			<note>
				<pitch>
					<step>A</step>
					<octave>4</octave>
				</pitch>
				<duration>60</duration>
				<voice>1</voice>
				<type>quarter</type>
				<stem>up</stem>
			</note>
			<forward>
				<duration>60</duration>
			</forward>
		</measure><!--
===========================================================
-->

		<measure number="10" width="123">
			<print new-system="no"></print>
			<attributes></attributes>
			<direction placement="below">
				<direction-type>
					<words relative-x="0.0000" default-y="-74.2028" font-family="Times New Roman" font-style="normal" font-size="12" font-weight="normal" color="#000000">nus per - - ci -</words>
				</direction-type>
				<staff>1</staff>
			</direction>
			<direction placement="below">
				<direction-type>
					<words relative-x="7.9786" default-y="-51.2405" font-family="Times New Roman" font-style="normal" font-size="12" font-weight="normal" color="#000000">e - sto fa -</words>
				</direction-type>
				<staff>1</staff>
			</direction>
			<note>
				<pitch>
					<step>G</step>
					<octave>4</octave>
				</pitch>
				<duration>120</duration>
				<voice>1</voice>
				<type>half</type>
				<stem>up</stem>
			</note>
			<note>
				<pitch>
					<step>A</step>
					<octave>4</octave>
				</pitch>
				<duration>60</duration>
				<voice>1</voice>
				<type>quarter</type>
				<stem>up</stem>
			</note>
			<forward>
				<duration>60</duration>
			</forward>
		</measure><!--
===========================================================
-->

		<measure number="11" width="184">
			<print new-system="no"></print>
			<attributes></attributes>
			<note>
				<pitch>
					<step>B</step>
					<alter>-1</alter>
					<octave>4</octave>
				</pitch>
				<duration>120</duration>
				<voice>1</voice>
				<type>half</type>
				<accidental parentheses="no">flat</accidental>
				<stem>down</stem>
				<notations>
					<articulations>
						<staccato placement="below"/>
					</articulations>
				</notations>
			</note>
			<direction placement="below">
				<direction-type>
					<words relative-x="24.2292" default-y="-51.8017" font-family="Times New Roman" font-style="normal" font-size="12" font-weight="normal" color="#000000">- mu - lis</words>
				</direction-type>
				<staff>1</staff>
			</direction>
			<direction placement="below">
				<direction-type>
					<words relative-x="26.5054" default-y="-79.8148" font-family="Times New Roman" font-style="normal" font-size="12" font-weight="normal" color="#000000">- pe - - re</words>
				</direction-type>
				<staff>1</staff>
			</direction>
			<direction placement="above">
				<direction-type>
					<dynamics>
						<p/>
					</dynamics>
				</direction-type>
				<staff>1</staff>
				<sound dynamics="68"/>
			</direction>
			<note>
				<pitch>
					<step>C</step>
					<octave>5</octave>
				</pitch>
				<duration>60</duration>
				<voice>1</voice>
				<type>quarter</type>
				<stem>down</stem>
			</note>
			<direction placement="below">
				<direction-type>
					<words relative-x="43.1865" default-y="-683.6014" font-family="Times New Roman" font-style="normal" font-size="10" font-weight="normal" color="#000000">o.l . 242</words>
				</direction-type>
				<staff>1</staff>
			</direction>
			<forward>
				<duration>60</duration>
			</forward>
		</measure><!--
===========================================================
-->

		<measure number="12" width="119">
			<print new-system="no"></print>
			<attributes></attributes>
			<note>
				<pitch>
					<step>B</step>
					<alter>-1</alter>
					<octave>4</octave>
				</pitch>
				<duration>120</duration>
				<voice>1</voice>
				<type>half</type>
				<accidental parentheses="no">flat</accidental>
				<stem>down</stem>
			</note>
			<note>
				<rest/>
				<duration>60</duration>
				<voice>1</voice>
				<type>quarter</type>
			</note>
			<forward>
				<duration>60</duration>
			</forward>
		</measure><!--
===========================================================
-->

		<measure number="13" width="143">
			<print new-system="no"></print>
			<attributes></attributes>
			<direction placement="below">
				<direction-type>
					<words relative-x="10.2577" default-y="-51.8017" font-family="Times New Roman" font-style="normal" font-size="12" font-weight="normal" color="#000000">mi - - se - - ra -</words>
				</direction-type>
				<staff>1</staff>
			</direction>
			<direction placement="below">
				<direction-type>
					<words relative-x="10.2577" default-y="-79.2536" font-family="Times New Roman" font-style="normal" font-size="12" font-weight="normal" color="#000000">qu - ant</words>
				</direction-type>
				<staff>1</staff>
			</direction>
			<note>
				<pitch>
					<step>E</step>
					<alter>-1</alter>
					<octave>4</octave>
				</pitch>
				<duration>120</duration>
				<voice>1</voice>
				<type>half</type>
				<accidental parentheses="no">flat</accidental>
				<stem>up</stem>
			</note>
			<note>
				<pitch>
					<step>E</step>
					<alter>-1</alter>
					<octave>4</octave>
				</pitch>
				<duration>60</duration>
				<voice>1</voice>
				<type>quarter</type>
				<stem>up</stem>
			</note>
			<forward>
				<duration>60</duration>
			</forward>
		</measure><!--
===========================================================
-->

		<measure number="14" width="159">
			<print new-system="no"></print>
			<attributes></attributes>
			<direction placement="below">
				<direction-type>
					<words relative-x="7.9809" default-y="-79.2536" font-family="Times New Roman" font-style="normal" font-size="12" font-weight="normal" color="#000000">ce -</words>
				</direction-type>
				<staff>1</staff>
			</direction>
			<note>
				<pitch>
					<step>F</step>
					<octave>4</octave>
				</pitch>
				<duration>30</duration>
				<voice>1</voice>
				<type>eighth</type>
				<stem>up</stem>
				<beam number="1">begin</beam>
			</note>
			<note>
				<pitch>
					<step>E</step>
					<alter>-1</alter>
					<octave>4</octave>
				</pitch>
				<duration>30</duration>
				<voice>1</voice>
				<type>eighth</type>
				<accidental parentheses="no">flat</accidental>
				<stem>up</stem>
				<beam number="1">end</beam>
			</note>
			<note>
				<pitch>
					<step>F</step>
					<octave>4</octave>
				</pitch>
				<duration>60</duration>
				<voice>1</voice>
				<type>quarter</type>
				<stem>up</stem>
			</note>
			<direction placement="below">
				<direction-type>
					<words relative-x="7.1265" default-y="-51.2405" font-family="Times New Roman" font-style="normal" font-size="12" font-weight="normal" color="#000000">- trix pi -</words>
				</direction-type>
				<staff>1</staff>
			</direction>
			<direction placement="below">
				<direction-type>
					<words relative-x="12.8306" default-y="-74.2028" font-family="Times New Roman" font-style="normal" font-size="12" font-weight="normal" color="#000000">- li</words>
				</direction-type>
				<staff>1</staff>
			</direction>
			<note>
				<pitch>
					<step>G</step>
					<octave>4</octave>
				</pitch>
				<duration>60</duration>
				<voice>1</voice>
				<type>quarter</type>
				<stem>up</stem>
			</note>
			<forward>
				<duration>60</duration>
			</forward>
		</measure><!--
===========================================================
-->

		<measure number="15" width="172">
			<print new-system="no"></print>
			<attributes></attributes>
			<direction placement="below">
				<direction-type>
					<words relative-x="9.1274" default-y="-74.2028" font-family="Times New Roman" font-style="normal" font-size="12" font-weight="normal" color="#000000">le -</words>
				</direction-type>
				<staff>1</staff>
			</direction>
			<note>
				<pitch>
					<step>A</step>
					<octave>4</octave>
				</pitch>
				<duration>30</duration>
				<voice>1</voice>
				<type>eighth</type>
				<stem>up</stem>
				<beam number="1">begin</beam>
			</note>
			<note>
				<pitch>
					<step>G</step>
					<octave>4</octave>
				</pitch>
				<duration>30</duration>
				<voice>1</voice>
				<type>eighth</type>
				<stem>up</stem>
				<beam number="1">end</beam>
			</note>
			<note>
				<pitch>
					<step>F</step>
					<octave>4</octave>
				</pitch>
				<duration>60</duration>
				<voice>1</voice>
				<type>quarter</type>
				<stem>up</stem>
			</note>
			<note>
				<pitch>
					<step>G</step>
					<octave>4</octave>
				</pitch>
				<duration>60</duration>
				<voice>1</voice>
				<type>quarter</type>
				<stem>up</stem>
			</note>
			<direction placement="below">
				<direction-type>
					<words relative-x="40.1930" default-y="-77.5700" font-family="Times New Roman" font-style="normal" font-size="12" font-weight="normal" color="#000000">- ta.</words>
				</direction-type>
				<staff>1</staff>
			</direction>
			<forward>
				<duration>60</duration>
			</forward>
		</measure><!--
===========================================================
-->

		<measure number="16" width="111">
			<print new-system="no"></print>
			<attributes></attributes>
			<note>
				<pitch>
					<step>F</step>
					<octave>4</octave>
				</pitch>
				<duration>180</duration>
				<voice>1</voice>
				<type>half</type>
				<dot/>
				<stem>up</stem>
			</note>
			<forward>
				<duration>60</duration>
			</forward>
			<barline location="right">
				<bar-style>light-heavy</bar-style>
				<repeat direction="backward"/>
			</barline>
		</measure>
	</part>
</score-partwise>