<?xml version="1.0" encoding="UTF-8" standalone="no"?>
<!DOCTYPE score-partwise PUBLIC "-//Recordare//DTD MusicXML 1.1 Partwise//EN" "http://www.musicxml.org/dtds/partwise.dtd">

<score-partwise version="2.0">
	<movement-title></movement-title>
	<identification>
		<creator type="composer"></creator>
		<encoding>
			<software>SmartScore X2 Pro</software>
			<encoding-date>2016-05-17</encoding-date>
			<supports attribute="new-system" element="print" type="yes" value="yes"/>
			<supports attribute="new-page" element="print" type="yes" value="yes"/>
		</encoding>
	</identification>
	<defaults>
		<scaling>
			<millimeters>6.00</millimeters>
			<tenths>40</tenths>
		</scaling>
	</defaults>
	<part-list>
		<score-part id="P1">
			<part-name>Piano</part-name>
			<part-abbreviation>Pno</part-abbreviation>
			<score-instrument id="P1-S0V0">
				<instrument-name>Grand Piano</instrument-name>
			</score-instrument>
			<score-instrument id="P1-S1V0">
				<instrument-name>Grand Piano</instrument-name>
			</score-instrument>
			<midi-instrument id="P1-S0V0">
				<midi-channel>1</midi-channel>
				<midi-program>1</midi-program>
				<volume>78</volume>
				<pan>0</pan>
			</midi-instrument>
			<midi-instrument id="P1-S1V0">
				<midi-channel>5</midi-channel>
				<midi-program>1</midi-program>
				<volume>78</volume>
				<pan>0</pan>
			</midi-instrument>
		</score-part>
	</part-list><!--
===========================================================
-->

	<part id="P1">
		<measure number="1" width="209">
			<print>
				<page-layout>
					<page-height>1881.48</page-height>
					<page-width>1453.87</page-width>
					<page-margins>
						<left-margin>327.54</left-margin>
						<right-margin>160.35</right-margin>
						<top-margin>127.00</top-margin>
						<bottom-margin>63.50</bottom-margin>
					</page-margins>
				</page-layout>
				<system-layout>
					<system-margins>
						<left-margin>65</left-margin>
						<right-margin>0</right-margin>
					</system-margins>
					<top-system-distance>755</top-system-distance>
				</system-layout>
				<staff-layout number="2">
					<staff-distance>51</staff-distance>
				</staff-layout>
			</print>
			<attributes>
				<divisions>40</divisions>
				<key>
					<fifths>0</fifths>
				</key>
				<time>
					<beats>6</beats>
					<beat-type>8</beat-type>
				</time>
				<staves>2</staves>
				<clef number="1">
					<sign>G</sign>
					<line>2</line>
				</clef>
				<clef number="2">
					<sign>F</sign>
					<line>4</line>
				</clef>
				<staff-details number="1" print-object="yes">
					<staff-size>59</staff-size>
				</staff-details>
				<staff-details number="2" print-object="yes">
					<staff-size>59</staff-size>
				</staff-details>
			</attributes>
			<attributes></attributes>
			<direction placement="above">
				<direction-type>
					<dynamics>
						<f/>
					</dynamics>
				</direction-type>
				<staff>1</staff>
				<sound dynamics="100"/>
			</direction>
			<note>
				<pitch>
					<step>A</step>
					<octave>4</octave>
				</pitch>
				<duration>160</duration>
				<instrument id="P1-S0V0"/>
				<voice>1</voice>
				<type>whole</type>
				<stem>none</stem>
				<staff>1</staff>
			</note>
			<note>
				<chord/>
				<pitch>
					<step>D</step>
					<octave>5</octave>
				</pitch>
				<duration>160</duration>
				<instrument id="P1-S0V0"/>
				<voice>1</voice>
				<type>whole</type>
				<stem>none</stem>
				<staff>1</staff>
			</note>
			<direction placement="above">
				<direction-type>
					<words relative-x="-268.7145" default-y="23.0965" font-family="Times New Roman" font-style="normal" font-size="12" font-weight="normal" color="#000000">1 5  I ( R 1S )</words>
				</direction-type>
				<staff>1</staff>
			</direction>
			<note>
				<pitch>
					<step>G</step>
					<octave>4</octave>
				</pitch>
				<duration>40</duration>
				<tie type="start"/>
				<instrument id="P1-S0V0"/>
				<voice>1</voice>
				<type>quarter</type>
				<stem>up</stem>
				<staff>1</staff>
				<notations>
					<tied type="start" number="1" orientation="under"/>
				</notations>
			</note>
			<note>
				<pitch>
					<step>G</step>
					<octave>4</octave>
				</pitch>
				<duration>40</duration>
				<tie type="stop"/>
				<instrument id="P1-S0V0"/>
				<voice>1</voice>
				<type>quarter</type>
				<stem>up</stem>
				<staff>1</staff>
				<notations>
					<tied type="stop" number="1" orientation="under"/>
				</notations>
			</note>
			<note>
				<pitch>
					<step>D</step>
					<octave>5</octave>
				</pitch>
				<duration>20</duration>
				<instrument id="P1-S0V0"/>
				<voice>1</voice>
				<type>eighth</type>
				<stem>down</stem>
				<staff>1</staff>
			</note>
			<backup>
				<duration>260</duration>
			</backup>
			<note>
				<pitch>
					<step>G</step>
					<octave>4</octave>
				</pitch>
				<duration>60</duration>
				<instrument id="P1-S1V0"/>
				<voice>5</voice>
				<type>quarter</type>
				<dot/>
				<stem>down</stem>
				<staff>2</staff>
			</note>
			<note>
				<pitch>
					<step>F</step>
					<octave>4</octave>
				</pitch>
				<duration>20</duration>
				<instrument id="P1-S1V0"/>
				<voice>5</voice>
				<type>eighth</type>
				<stem>down</stem>
				<staff>2</staff>
			</note>
			<note>
				<pitch>
					<step>E</step>
					<octave>4</octave>
				</pitch>
				<duration>40</duration>
				<instrument id="P1-S1V0"/>
				<voice>5</voice>
				<type>quarter</type>
				<stem>down</stem>
				<staff>2</staff>
			</note>
		</measure><!--
===========================================================
-->

		<measure number="2" width="162">
			<print new-system="no"></print>
			<attributes></attributes>
			<note>
				<pitch>
					<step>D</step>
					<octave>5</octave>
				</pitch>
				<duration>30</duration>
				<instrument id="P1-S0V0"/>
				<voice>1</voice>
				<type>eighth</type>
				<dot/>
				<stem>down</stem>
				<staff>1</staff>
				<beam number="1">begin</beam>
			</note>
			<note>
				<pitch>
					<step>C</step>
					<octave>5</octave>
				</pitch>
				<duration>10</duration>
				<instrument id="P1-S0V0"/>
				<voice>1</voice>
				<type>16th</type>
				<stem>down</stem>
				<staff>1</staff>
				<beam number="1">continue</beam>
				<beam number="2">begin</beam>
			</note>
			<note>
				<pitch>
					<step>B</step>
					<octave>4</octave>
				</pitch>
				<duration>10</duration>
				<instrument id="P1-S0V0"/>
				<voice>1</voice>
				<type>16th</type>
				<stem>down</stem>
				<staff>1</staff>
				<beam number="1">continue</beam>
				<beam number="2">continue</beam>
			</note>
			<note>
				<pitch>
					<step>C</step>
					<octave>5</octave>
				</pitch>
				<duration>10</duration>
				<instrument id="P1-S0V0"/>
				<voice>1</voice>
				<type>16th</type>
				<stem>down</stem>
				<staff>1</staff>
				<beam number="1">end</beam>
				<beam number="2">end</beam>
			</note>
			<note>
				<pitch>
					<step>A</step>
					<octave>4</octave>
				</pitch>
				<duration>40</duration>
				<instrument id="P1-S0V0"/>
				<voice>1</voice>
				<type>quarter</type>
				<stem>up</stem>
				<staff>1</staff>
			</note>
			<note>
				<pitch>
					<step>G</step>
					<octave>4</octave>
				</pitch>
				<duration>20</duration>
				<instrument id="P1-S0V0"/>
				<voice>1</voice>
				<type>eighth</type>
				<stem>up</stem>
				<staff>1</staff>
			</note>
			<backup>
				<duration>120</duration>
			</backup>
			<note>
				<pitch>
					<step>E</step>
					<octave>4</octave>
				</pitch>
				<duration>120</duration>
				<instrument id="P1-S1V0"/>
				<voice>5</voice>
				<type>half</type>
				<dot/>
				<stem>down</stem>
				<staff>2</staff>
			</note>
		</measure><!--
===========================================================
-->

		<measure number="3" width="162">
			<print new-system="no"></print>
			<attributes></attributes>
			<note>
				<pitch>
					<step>B</step>
					<octave>4</octave>
				</pitch>
				<duration>20</duration>
				<instrument id="P1-S0V0"/>
				<voice>1</voice>
				<type>eighth</type>
				<stem>down</stem>
				<staff>1</staff>
				<notations>
					<slur type="start" number="1"></slur>
				</notations>
				<lyric number="1">
					<syllabic>single</syllabic>
					<text>l</text>
				</lyric>
			</note>
			<harmony default-y="53.2959">
				<root>
					<root-step>B</root-step>
				</root>
				<kind>major</kind>
				<frame default-y="47.3378" valign="top">
					<frame-strings>6</frame-strings>
					<frame-frets>5</frame-frets>
					<frame-note>
						<string>6</string>
						<fret>0</fret>
					</frame-note>
					<frame-note>
						<string>5</string>
						<fret>2</fret>
					</frame-note>
					<frame-note>
						<string>4</string>
						<fret>4</fret>
					</frame-note>
					<frame-note>
						<string>3</string>
						<fret>4</fret>
					</frame-note>
					<frame-note>
						<string>2</string>
						<fret>4</fret>
					</frame-note>
					<frame-note>
						<string>1</string>
						<fret>2</fret>
					</frame-note>
				</frame>
				<offset>-9</offset>
				<staff>1</staff>
			</harmony>
			<note>
				<pitch>
					<step>A</step>
					<octave>4</octave>
				</pitch>
				<duration>40</duration>
				<instrument id="P1-S0V0"/>
				<voice>1</voice>
				<type>quarter</type>
				<stem>up</stem>
				<staff>1</staff>
				<notations>
					<slur type="stop" number="1"></slur>
				</notations>
			</note>
			<harmony default-y="53.2959">
				<root>
					<root-step>B</root-step>
				</root>
				<kind>major</kind>
				<frame default-y="47.3378" valign="top">
					<frame-strings>6</frame-strings>
					<frame-frets>5</frame-frets>
					<frame-note>
						<string>6</string>
						<fret>0</fret>
					</frame-note>
					<frame-note>
						<string>5</string>
						<fret>2</fret>
					</frame-note>
					<frame-note>
						<string>4</string>
						<fret>4</fret>
					</frame-note>
					<frame-note>
						<string>3</string>
						<fret>4</fret>
					</frame-note>
					<frame-note>
						<string>2</string>
						<fret>4</fret>
					</frame-note>
					<frame-note>
						<string>1</string>
						<fret>2</fret>
					</frame-note>
				</frame>
				<offset>-13</offset>
				<staff>1</staff>
			</harmony>
			<note>
				<pitch>
					<step>G</step>
					<octave>4</octave>
				</pitch>
				<duration>40</duration>
				<instrument id="P1-S0V0"/>
				<voice>1</voice>
				<type>quarter</type>
				<stem>up</stem>
				<staff>1</staff>
			</note>
			<note>
				<pitch>
					<step>F</step>
					<octave>4</octave>
				</pitch>
				<duration>20</duration>
				<instrument id="P1-S0V0"/>
				<voice>1</voice>
				<type>eighth</type>
				<stem>up</stem>
				<staff>1</staff>
			</note>
			<backup>
				<duration>120</duration>
			</backup>
			<note>
				<rest/>
				<duration>40</duration>
				<voice>5</voice>
				<type>quarter</type>
				<staff>2</staff>
			</note>
			<note>
				<pitch>
					<step>A</step>
					<octave>3</octave>
				</pitch>
				<duration>20</duration>
				<instrument id="P1-S1V0"/>
				<voice>5</voice>
				<type>eighth</type>
				<stem>down</stem>
				<staff>2</staff>
			</note>
			<note>
				<pitch>
					<step>C</step>
					<octave>4</octave>
				</pitch>
				<duration>20</duration>
				<instrument id="P1-S1V0"/>
				<voice>5</voice>
				<type>eighth</type>
				<stem>down</stem>
				<staff>2</staff>
			</note>
			<note>
				<pitch>
					<step>B</step>
					<octave>3</octave>
				</pitch>
				<duration>40</duration>
				<instrument id="P1-S1V0"/>
				<voice>5</voice>
				<type>quarter</type>
				<stem>down</stem>
				<staff>2</staff>
			</note>
		</measure><!--
===========================================================
-->

		<measure number="4" width="200">
			<print new-system="no"></print>
			<attributes></attributes>
			<note>
				<pitch>
					<step>E</step>
					<octave>4</octave>
				</pitch>
				<duration>10</duration>
				<instrument id="P1-S0V0"/>
				<voice>1</voice>
				<type>16th</type>
				<stem>up</stem>
				<staff>1</staff>
				<beam number="1">begin</beam>
				<beam number="2">begin</beam>
				<lyric number="1">
					<syllabic>single</syllabic>
					<text>i-</text>
				</lyric>
			</note>
			<note>
				<pitch>
					<step>F</step>
					<octave>4</octave>
				</pitch>
				<duration>10</duration>
				<instrument id="P1-S0V0"/>
				<voice>1</voice>
				<type>16th</type>
				<stem>up</stem>
				<staff>1</staff>
				<beam number="1">continue</beam>
				<beam number="2">continue</beam>
			</note>
			<note>
				<pitch>
					<step>G</step>
					<octave>4</octave>
				</pitch>
				<duration>10</duration>
				<instrument id="P1-S0V0"/>
				<voice>1</voice>
				<type>16th</type>
				<stem>up</stem>
				<staff>1</staff>
				<beam number="1">continue</beam>
				<beam number="2">continue</beam>
			</note>
			<note>
				<pitch>
					<step>F</step>
					<octave>4</octave>
				</pitch>
				<duration>10</duration>
				<instrument id="P1-S0V0"/>
				<voice>1</voice>
				<type>16th</type>
				<stem>up</stem>
				<staff>1</staff>
				<beam number="1">continue</beam>
				<beam number="2">continue</beam>
			</note>
			<note>
				<pitch>
					<step>E</step>
					<octave>4</octave>
				</pitch>
				<duration>10</duration>
				<instrument id="P1-S0V0"/>
				<voice>1</voice>
				<type>16th</type>
				<stem>up</stem>
				<staff>1</staff>
				<beam number="1">continue</beam>
				<beam number="2">continue</beam>
			</note>
			<note>
				<pitch>
					<step>F</step>
					<octave>4</octave>
				</pitch>
				<duration>10</duration>
				<instrument id="P1-S0V0"/>
				<voice>1</voice>
				<type>16th</type>
				<stem>up</stem>
				<staff>1</staff>
				<beam number="1">end</beam>
				<beam number="2">end</beam>
			</note>
			<note>
				<pitch>
					<step>D</step>
					<octave>4</octave>
				</pitch>
				<duration>40</duration>
				<instrument id="P1-S0V0"/>
				<voice>1</voice>
				<type>quarter</type>
				<stem>up</stem>
				<staff>1</staff>
			</note>
			<note>
				<pitch>
					<step>E</step>
					<octave>4</octave>
				</pitch>
				<duration>20</duration>
				<instrument id="P1-S0V0"/>
				<voice>1</voice>
				<type>eighth</type>
				<stem>up</stem>
				<staff>1</staff>
			</note>
			<backup>
				<duration>120</duration>
			</backup>
			<note>
				<pitch>
					<step>C</step>
					<octave>4</octave>
				</pitch>
				<duration>40</duration>
				<instrument id="P1-S1V0"/>
				<voice>5</voice>
				<type>quarter</type>
				<stem>down</stem>
				<staff>2</staff>
			</note>
			<note>
				<pitch>
					<step>A</step>
					<octave>3</octave>
				</pitch>
				<duration>40</duration>
				<instrument id="P1-S1V0"/>
				<voice>5</voice>
				<type>quarter</type>
				<stem>down</stem>
				<staff>2</staff>
			</note>
			<note>
				<pitch>
					<step>D</step>
					<octave>4</octave>
				</pitch>
				<duration>40</duration>
				<instrument id="P1-S1V0"/>
				<voice>5</voice>
				<type>quarter</type>
				<stem>down</stem>
				<staff>2</staff>
			</note>
		</measure><!--
===========================================================
-->

		<measure number="5" width="164">
			<print new-system="no"></print>
			<attributes></attributes>
			<note>
				<pitch>
					<step>F</step>
					<octave>4</octave>
				</pitch>
				<duration>20</duration>
				<instrument id="P1-S0V0"/>
				<voice>1</voice>
				<type>eighth</type>
				<stem>up</stem>
				<staff>1</staff>
			</note>
			<note>
				<pitch>
					<step>E</step>
					<octave>4</octave>
				</pitch>
				<duration>40</duration>
				<tie type="start"/>
				<instrument id="P1-S0V0"/>
				<voice>1</voice>
				<type>quarter</type>
				<stem>up</stem>
				<staff>1</staff>
				<notations>
					<tied type="start" number="1" orientation="under"/>
				</notations>
			</note>
			<note>
				<pitch>
					<step>E</step>
					<octave>4</octave>
				</pitch>
				<duration>40</duration>
				<tie type="stop"/>
				<instrument id="P1-S0V0"/>
				<voice>1</voice>
				<type>quarter</type>
				<stem>up</stem>
				<staff>1</staff>
				<notations>
					<tied type="stop" number="1" orientation="under"/>
				</notations>
			</note>
			<note>
				<pitch>
					<step>G</step>
					<octave>4</octave>
				</pitch>
				<duration>20</duration>
				<instrument id="P1-S0V0"/>
				<voice>1</voice>
				<type>eighth</type>
				<stem>up</stem>
				<staff>1</staff>
				<lyric number="1">
					<syllabic>single</syllabic>
					<text>-I</text>
				</lyric>
			</note>
			<backup>
				<duration>120</duration>
			</backup>
			<note>
				<pitch>
					<step>C</step>
					<octave>4</octave>
				</pitch>
				<duration>40</duration>
				<instrument id="P1-S1V0"/>
				<voice>5</voice>
				<type>quarter</type>
				<stem>down</stem>
				<staff>2</staff>
			</note>
			<note>
				<pitch>
					<step>D</step>
					<octave>4</octave>
				</pitch>
				<duration>40</duration>
				<instrument id="P1-S1V0"/>
				<voice>5</voice>
				<type>quarter</type>
				<stem>down</stem>
				<staff>2</staff>
			</note>
			<note>
				<pitch>
					<step>B</step>
					<octave>3</octave>
				</pitch>
				<duration>40</duration>
				<instrument id="P1-S1V0"/>
				<voice>5</voice>
				<type>quarter</type>
				<stem>down</stem>
				<staff>2</staff>
			</note>
		</measure><!--
===========================================================
-->

		<measure number="6" width="204">
			<print new-system="yes">
				<system-layout>
					<system-margins>
						<left-margin>0</left-margin>
						<right-margin>0</right-margin>
					</system-margins>
					<system-distance>65</system-distance>
				</system-layout>
				<staff-layout number="2">
					<staff-distance>103</staff-distance>
				</staff-layout>
			</print>
			<attributes></attributes>
			<note>
				<pitch>
					<step>A</step>
					<octave>4</octave>
				</pitch>
				<duration>40</duration>
				<instrument id="P1-S0V0"/>
				<voice>1</voice>
				<type>quarter</type>
				<stem>up</stem>
				<staff>1</staff>
			</note>
			<note>
				<pitch>
					<step>G</step>
					<octave>4</octave>
				</pitch>
				<duration>20</duration>
				<instrument id="P1-S0V0"/>
				<voice>1</voice>
				<type>eighth</type>
				<stem>up</stem>
				<staff>1</staff>
			</note>
			<note>
				<pitch>
					<step>F</step>
					<octave>4</octave>
				</pitch>
				<duration>20</duration>
				<instrument id="P1-S0V0"/>
				<voice>1</voice>
				<type>eighth</type>
				<stem>up</stem>
				<staff>1</staff>
			</note>
			<direction placement="above">
				<direction-type>
					<words relative-x="-0.3146" default-y="58.1325" font-family="Times New Roman" font-style="normal" font-size="7" font-weight="normal" color="#000000">r n0r</words>
				</direction-type>
				<staff>1</staff>
			</direction>
			<note>
				<pitch>
					<step>E</step>
					<octave>4</octave>
				</pitch>
				<duration>40</duration>
				<instrument id="P1-S0V0"/>
				<voice>1</voice>
				<type>quarter</type>
				<stem>up</stem>
				<staff>1</staff>
			</note>
			<backup>
				<duration>120</duration>
			</backup>
			<note>
				<pitch>
					<step>A</step>
					<octave>3</octave>
				</pitch>
				<duration>60</duration>
				<instrument id="P1-S1V0"/>
				<voice>5</voice>
				<type>quarter</type>
				<dot/>
				<stem>down</stem>
				<staff>2</staff>
				<notations></notations>
			</note>
			<note>
				<pitch>
					<step>C</step>
					<octave>4</octave>
				</pitch>
				<duration>60</duration>
				<instrument id="P1-S1V0"/>
				<voice>5</voice>
				<type>quarter</type>
				<dot/>
				<stem>down</stem>
				<staff>2</staff>
			</note>
		</measure><!--
===========================================================
-->

		<measure number="7" width="140">
			<print new-system="no"></print>
			<attributes></attributes>
			<note>
				<pitch>
					<step>D</step>
					<octave>4</octave>
				</pitch>
				<duration>60</duration>
				<instrument id="P1-S0V0"/>
				<voice>1</voice>
				<type>quarter</type>
				<dot/>
				<stem>up</stem>
				<staff>1</staff>
			</note>
			<note>
				<rest/>
				<duration>40</duration>
				<voice>1</voice>
				<type>quarter</type>
				<staff>1</staff>
				<lyric number="1">
					<syllabic>single</syllabic>
					<text>1.4.7.</text>
				</lyric>
				<lyric number="2">
					<syllabic>single</syllabic>
					<text>r-</text>
				</lyric>
			</note>
			<backup>
				<duration>100</duration>
			</backup>
			<note>
				<rest/>
				<duration>40</duration>
				<voice>5</voice>
				<type>quarter</type>
				<staff>2</staff>
			</note>
			<note>
				<pitch>
					<step>D</step>
					<octave>4</octave>
				</pitch>
				<duration>20</duration>
				<instrument id="P1-S1V0"/>
				<voice>5</voice>
				<type>eighth</type>
				<stem>down</stem>
				<staff>2</staff>
			</note>
			<note>
				<pitch>
					<step>G</step>
					<octave>3</octave>
				</pitch>
				<duration>60</duration>
				<instrument id="P1-S1V0"/>
				<voice>5</voice>
				<type>quarter</type>
				<dot/>
				<stem>down</stem>
				<staff>2</staff>
			</note>
		</measure><!--
===========================================================
-->

		<measure number="8" width="175">
			<print new-system="no"></print>
			<attributes></attributes>
			<note>
				<pitch>
					<step>C</step>
					<alter>1</alter>
					<octave>5</octave>
				</pitch>
				<duration>60</duration>
				<instrument id="P1-S0V0"/>
				<voice>1</voice>
				<type>quarter</type>
				<dot/>
				<accidental parentheses="no">sharp</accidental>
				<stem>down</stem>
				<staff>1</staff>
				<lyric number="1">
					<syllabic>single</syllabic>
					<text>o</text>
				</lyric>
				<lyric number="2">
					<syllabic>single</syllabic>
					<text>3.Si</text>
				</lyric>
				<lyric number="4">
					<syllabic>single</syllabic>
					<text>U</text>
				</lyric>
			</note>
			<note>
				<pitch>
					<step>C</step>
					<alter>1</alter>
					<octave>5</octave>
				</pitch>
				<duration>40</duration>
				<instrument id="P1-S0V0"/>
				<voice>1</voice>
				<type>quarter</type>
				<stem>down</stem>
				<staff>1</staff>
				<lyric number="1">
					<syllabic>single</syllabic>
					<text>gent</text>
				</lyric>
				<lyric number="2">
					<syllabic>single</syllabic>
					<text>vous</text>
				</lyric>
				<lyric number="3">
					<syllabic>single</syllabic>
					<text>me</text>
				</lyric>
			</note>
			<note>
				<pitch>
					<step>C</step>
					<alter>1</alter>
					<octave>5</octave>
				</pitch>
				<duration>20</duration>
				<instrument id="P1-S0V0"/>
				<voice>1</voice>
				<type>eighth</type>
				<stem>down</stem>
				<staff>1</staff>
				<lyric number="1">
					<syllabic>begin</syllabic>
					<text>a</text>
				</lyric>
				<lyric number="2">
					<syllabic>single</syllabic>
					<text>sup-</text>
				</lyric>
				<lyric number="3">
					<syllabic>begin</syllabic>
					<text>te</text>
				</lyric>
			</note>
			<backup>
				<duration>120</duration>
			</backup>
			<note>
				<pitch>
					<step>A</step>
					<octave>3</octave>
				</pitch>
				<duration>120</duration>
				<instrument id="P1-S1V0"/>
				<voice>5</voice>
				<type>half</type>
				<dot/>
				<stem>down</stem>
				<staff>2</staff>
			</note>
		</measure><!--
===========================================================
-->

		<measure number="9" width="183">
			<print new-system="no"></print>
			<attributes></attributes>
			<note>
				<rest/>
				<duration>20</duration>
				<voice>1</voice>
				<type>eighth</type>
				<staff>1</staff>
			</note>
			<note>
				<pitch>
					<step>D</step>
					<octave>5</octave>
				</pitch>
				<duration>40</duration>
				<instrument id="P1-S0V0"/>
				<voice>1</voice>
				<type>quarter</type>
				<stem>down</stem>
				<staff>1</staff>
				<lyric number="2">
					<syllabic>single</syllabic>
					<text>pli</text>
				</lyric>
				<lyric number="3">
					<syllabic>end</syllabic>
					<text>ncs</text>
				</lyric>
			</note>
			<note>
				<pitch>
					<step>A</step>
					<octave>4</octave>
				</pitch>
				<duration>40</duration>
				<instrument id="P1-S0V0"/>
				<voice>1</voice>
				<type>quarter</type>
				<stem>up</stem>
				<staff>1</staff>
				<lyric number="1">
					<syllabic>end</syllabic>
					<text>it</text>
				</lyric>
			</note>
			<note>
				<pitch>
					<step>B</step>
					<octave>4</octave>
				</pitch>
				<duration>40</duration>
				<instrument id="P1-S0V0"/>
				<voice>1</voice>
				<type>quarter</type>
				<stem>down</stem>
				<staff>1</staff>
				<lyric number="1">
					<syllabic>single</syllabic>
					<text>me</text>
				</lyric>
				<lyric number="2">
					<syllabic>begin</syllabic>
					<text>da</text>
				</lyric>
				<lyric number="3">
					<syllabic>begin</syllabic>
					<text>vos</text>
				</lyric>
			</note>
			<backup>
				<duration>140</duration>
			</backup>
			<note>
				<pitch>
					<step>G</step>
					<octave>3</octave>
				</pitch>
				<duration>40</duration>
				<instrument id="P1-S1V0"/>
				<voice>5</voice>
				<type>quarter</type>
				<stem>down</stem>
				<staff>2</staff>
			</note>
			<note>
				<pitch>
					<step>A</step>
					<octave>4</octave>
				</pitch>
				<duration>20</duration>
				<instrument id="P1-S1V0"/>
				<voice>5</voice>
				<type>eighth</type>
				<stem>down</stem>
				<staff>2</staff>
			</note>
			<note>
				<pitch>
					<step>E</step>
					<octave>4</octave>
				</pitch>
				<duration>40</duration>
				<instrument id="P1-S1V0"/>
				<voice>5</voice>
				<type>quarter</type>
				<stem>down</stem>
				<staff>2</staff>
			</note>
			<note>
				<pitch>
					<step>D</step>
					<octave>4</octave>
				</pitch>
				<duration>20</duration>
				<instrument id="P1-S1V0"/>
				<voice>5</voice>
				<type>eighth</type>
				<stem>down</stem>
				<staff>2</staff>
			</note>
		</measure><!--
===========================================================
-->

		<measure number="10" width="261">
			<print new-system="no"></print>
			<attributes></attributes>
			<direction placement="above">
				<direction-type>
					<words relative-x="3.4366" default-y="17.8393" font-family="Times New Roman" font-style="normal" font-size="9" font-weight="normal" color="#000000">1 O</words>
				</direction-type>
				<staff>1</staff>
			</direction>
			<direction placement="below">
				<direction-type>
					<dynamics>
						<f/>
					</dynamics>
				</direction-type>
				<staff>1</staff>
				<sound dynamics="100"/>
			</direction>
			<note>
				<pitch>
					<step>G</step>
					<octave>4</octave>
				</pitch>
				<duration>40</duration>
				<instrument id="P1-S0V0"/>
				<voice>1</voice>
				<type>quarter</type>
				<stem>up</stem>
				<staff>1</staff>
				<lyric number="1">
					<syllabic>single</syllabic>
					<text>t</text>
				</lyric>
				<lyric number="2">
					<syllabic>end</syllabic>
					<text>me</text>
				</lyric>
				<lyric number="3">
					<syllabic>end</syllabic>
					<text>tre,</text>
				</lyric>
				<lyric number="4">
					<syllabic>single</syllabic>
					<text>r</text>
				</lyric>
			</note>
			<note>
				<pitch>
					<step>C</step>
					<octave>5</octave>
				</pitch>
				<duration>20</duration>
				<instrument id="P1-S0V0"/>
				<voice>1</voice>
				<type>eighth</type>
				<stem>down</stem>
				<staff>1</staff>
				<lyric number="1">
					<syllabic>single</syllabic>
					<text>vos-tre</text>
				</lyric>
				<lyric number="2">
					<syllabic>single</syllabic>
					<text>que</text>
				</lyric>
				<lyric number="3">
					<syllabic>single</syllabic>
					<text>de</text>
				</lyric>
			</note>
			<note>
				<pitch>
					<step>D</step>
					<octave>2</octave>
				</pitch>
				<duration>40</duration>
				<instrument id="P1-S0V0"/>
				<voice>1</voice>
				<type>quarter</type>
				<stem>up</stem>
				<staff>1</staff>
			</note>
			<note>
				<pitch>
					<step>C</step>
					<octave>5</octave>
				</pitch>
				<duration>30</duration>
				<instrument id="P1-S0V0"/>
				<voice>1</voice>
				<type>eighth</type>
				<dot/>
				<stem>down</stem>
				<staff>1</staff>
				<beam number="1">begin</beam>
				<lyric number="2">
					<syllabic>begin</syllabic>
					<text>j&apos;a</text>
				</lyric>
				<lyric number="3">
					<syllabic>single</syllabic>
					<text>veuil</text>
				</lyric>
			</note>
			<note>
				<pitch>
					<step>B</step>
					<octave>4</octave>
				</pitch>
				<duration>20</duration>
				<instrument id="P1-S0V0"/>
				<voice>1</voice>
				<type>eighth</type>
				<stem>down</stem>
				<staff>1</staff>
				<beam number="1">end</beam>
			</note>
			<note>
				<pitch>
					<step>B</step>
					<octave>4</octave>
				</pitch>
				<duration>10</duration>
				<instrument id="P1-S0V0"/>
				<voice>1</voice>
				<type>16th</type>
				<stem>up</stem>
				<staff>1</staff>
				<beam number="1">begin</beam>
				<beam number="2">begin</beam>
				<lyric number="1">
					<syllabic>begin</syllabic>
					<text>ser</text>
				</lyric>
				<lyric number="2">
					<syllabic>end</syllabic>
					<text>me</text>
				</lyric>
				<lyric number="3">
					<syllabic>single</syllabic>
					<text>pl</text>
				</lyric>
				<lyric number="4">
					<syllabic>single</syllabic>
					<text>-I</text>
				</lyric>
			</note>
			<note>
				<pitch>
					<step>A</step>
					<octave>4</octave>
				</pitch>
				<duration>10</duration>
				<instrument id="P1-S0V0"/>
				<voice>1</voice>
				<type>16th</type>
				<stem>up</stem>
				<staff>1</staff>
				<beam number="1">end</beam>
				<beam number="2">end</beam>
				<lyric number="3">
					<syllabic>begin</syllabic>
					<text>i</text>
				</lyric>
			</note>
			<backup>
				<duration>170</duration>
			</backup>
			<note>
				<pitch>
					<step>C</step>
					<octave>4</octave>
				</pitch>
				<duration>40</duration>
				<instrument id="P1-S1V0"/>
				<voice>5</voice>
				<type>quarter</type>
				<stem>down</stem>
				<staff>2</staff>
			</note>
			<note>
				<pitch>
					<step>A</step>
					<octave>3</octave>
				</pitch>
				<duration>40</duration>
				<instrument id="P1-S1V0"/>
				<voice>5</voice>
				<type>quarter</type>
				<stem>down</stem>
				<staff>2</staff>
			</note>
			<note>
				<pitch>
					<step>G</step>
					<octave>3</octave>
				</pitch>
				<duration>40</duration>
				<instrument id="P1-S1V0"/>
				<voice>5</voice>
				<type>quarter</type>
				<stem>down</stem>
				<staff>2</staff>
			</note>
		</measure><!--
===========================================================
-->

		<measure number="11" width="210">
			<print new-system="yes">
				<system-layout>
					<system-margins>
						<left-margin>0</left-margin>
						<right-margin>0</right-margin>
					</system-margins>
					<system-distance>62</system-distance>
				</system-layout>
				<staff-layout number="2">
					<staff-distance>100</staff-distance>
				</staff-layout>
			</print>
			<attributes></attributes>
			<note>
				<pitch>
					<step>C</step>
					<octave>5</octave>
				</pitch>
				<duration>40</duration>
				<instrument id="P1-S0V0"/>
				<voice>1</voice>
				<type>quarter</type>
				<stem>down</stem>
				<staff>1</staff>
				<lyric number="1">
					<syllabic>end</syllabic>
					<text>-vlnt,</text>
				</lyric>
				<lyric number="2">
					<syllabic>single</syllabic>
					<text>tsnt,</text>
					<extend/>
				</lyric>
				<lyric number="3">
					<syllabic>end</syllabic>
					<text>-snt,</text>
				</lyric>
			</note>
			<note>
				<pitch>
					<step>B</step>
					<octave>4</octave>
				</pitch>
				<duration>10</duration>
				<instrument id="P1-S0V0"/>
				<voice>1</voice>
				<type>16th</type>
				<stem>up</stem>
				<staff>1</staff>
				<beam number="1">begin</beam>
				<beam number="2">begin</beam>
			</note>
			<note>
				<pitch>
					<step>A</step>
					<octave>4</octave>
				</pitch>
				<duration>10</duration>
				<instrument id="P1-S0V0"/>
				<voice>1</voice>
				<type>16th</type>
				<stem>up</stem>
				<staff>1</staff>
				<beam number="1">end</beam>
				<beam number="2">end</beam>
				<lyric number="4">
					<syllabic>single</syllabic>
					<text>_.</text>
				</lyric>
			</note>
			<note>
				<pitch>
					<step>G</step>
					<octave>4</octave>
				</pitch>
				<duration>20</duration>
				<instrument id="P1-S0V0"/>
				<voice>1</voice>
				<type>eighth</type>
				<stem>up</stem>
				<staff>1</staff>
			</note>
			<note>
				<pitch>
					<step>F</step>
					<octave>4</octave>
				</pitch>
				<duration>40</duration>
				<instrument id="P1-S0V0"/>
				<voice>1</voice>
				<type>quarter</type>
				<stem>up</stem>
				<staff>1</staff>
			</note>
			<backup>
				<duration>120</duration>
			</backup>
			<note>
				<pitch>
					<step>F</step>
					<octave>3</octave>
				</pitch>
				<duration>40</duration>
				<instrument id="P1-S1V0"/>
				<voice>5</voice>
				<type>quarter</type>
				<stem>down</stem>
				<staff>2</staff>
			</note>
			<note>
				<pitch>
					<step>B</step>
					<octave>3</octave>
				</pitch>
				<duration>60</duration>
				<instrument id="P1-S1V0"/>
				<voice>5</voice>
				<type>quarter</type>
				<dot/>
				<accidental parentheses="no">natural</accidental>
				<stem>down</stem>
				<staff>2</staff>
			</note>
			<forward>
				<duration>20</duration>
			</forward>
		</measure><!--
===========================================================
-->

		<measure number="12" width="180">
			<print new-system="no"></print>
			<attributes></attributes>
			<note>
				<pitch>
					<step>E</step>
					<octave>4</octave>
				</pitch>
				<duration>40</duration>
				<instrument id="P1-S0V0"/>
				<voice>1</voice>
				<type>quarter</type>
				<stem>up</stem>
				<staff>1</staff>
				<lyric number="1">
					<syllabic>single</syllabic>
					<text>Tres</text>
				</lyric>
				<lyric number="2">
					<syllabic>single</syllabic>
					<text>Puis</text>
				</lyric>
				<lyric number="3">
					<syllabic>single</syllabic>
					<text>Car</text>
				</lyric>
			</note>
			<note>
				<pitch>
					<step>D</step>
					<octave>4</octave>
				</pitch>
				<duration>10</duration>
				<instrument id="P1-S0V0"/>
				<voice>1</voice>
				<type>16th</type>
				<stem>up</stem>
				<staff>1</staff>
				<beam number="1">begin</beam>
				<beam number="2">begin</beam>
			</note>
			<note>
				<pitch>
					<step>E</step>
					<octave>4</octave>
				</pitch>
				<duration>10</duration>
				<instrument id="P1-S0V0"/>
				<voice>1</voice>
				<type>16th</type>
				<stem>up</stem>
				<staff>1</staff>
				<beam number="1">end</beam>
				<beam number="2">end</beam>
			</note>
			<note>
				<pitch>
					<step>D</step>
					<octave>4</octave>
				</pitch>
				<duration>20</duration>
				<instrument id="P1-S0V0"/>
				<voice>1</voice>
				<type>eighth</type>
				<stem>up</stem>
				<staff>1</staff>
				<lyric number="1">
					<syllabic>single</syllabic>
					<text>dou_ce</text>
				</lyric>
				<lyric number="2">
					<syllabic>single</syllabic>
					<text>qu&apos;ainsi</text>
				</lyric>
				<lyric number="3">
					<syllabic>begin</syllabic>
					<text>vrai-e</text>
				</lyric>
			</note>
			<note>
				<pitch>
					<step>A</step>
					<octave>3</octave>
				</pitch>
				<duration>40</duration>
				<instrument id="P1-S0V0"/>
				<voice>1</voice>
				<type>quarter</type>
				<stem>up</stem>
				<staff>1</staff>
			</note>
			<backup>
				<duration>120</duration>
			</backup>
			<note>
				<pitch>
					<step>C</step>
					<octave>4</octave>
				</pitch>
				<duration>60</duration>
				<instrument id="P1-S1V0"/>
				<voice>5</voice>
				<type>quarter</type>
				<dot/>
				<stem>down</stem>
				<staff>2</staff>
			</note>
			<note>
				<pitch>
					<step>A</step>
					<octave>3</octave>
				</pitch>
				<duration>60</duration>
				<instrument id="P1-S1V0"/>
				<voice>5</voice>
				<type>quarter</type>
				<dot/>
				<stem>down</stem>
				<staff>2</staff>
			</note>
		</measure><!--
===========================================================
-->

		<measure number="13" width="201">
			<print new-system="no"></print>
			<attributes></attributes>
			<note>
				<pitch>
					<step>D</step>
					<octave>4</octave>
				</pitch>
				<duration>20</duration>
				<instrument id="P1-S0V0"/>
				<voice>1</voice>
				<type>eighth</type>
				<stem>up</stem>
				<staff>1</staff>
				<lyric number="1">
					<syllabic>single</syllabic>
					<text>flour</text>
				</lyric>
				<lyric number="2">
					<syllabic>single</syllabic>
					<text>fors</text>
				</lyric>
				<lyric number="3">
					<syllabic>end</syllabic>
					<text>ment</text>
				</lyric>
			</note>
			<note>
				<rest/>
				<duration>20</duration>
				<voice>1</voice>
				<type>eighth</type>
				<staff>1</staff>
			</note>
			<note>
				<pitch>
					<step>D</step>
					<octave>4</octave>
				</pitch>
				<duration>20</duration>
				<instrument id="P1-S0V0"/>
				<voice>1</voice>
				<type>eighth</type>
				<stem>up</stem>
				<staff>1</staff>
				<lyric number="1">
					<syllabic>single</syllabic>
					<text>di_gnement</text>
				</lyric>
				<lyric number="3">
					<syllabic>single</syllabic>
					<text>m</text>
				</lyric>
			</note>
			<note>
				<pitch>
					<step>E</step>
					<octave>4</octave>
				</pitch>
				<duration>20</duration>
				<instrument id="P1-S0V0"/>
				<voice>1</voice>
				<type>eighth</type>
				<stem>up</stem>
				<staff>1</staff>
				<lyric number="2">
					<syllabic>single</syllabic>
					<text>pardroi-te</text>
				</lyric>
				<lyric number="3">
					<syllabic>single</syllabic>
					<text>v</text>
				</lyric>
				<lyric number="4">
					<syllabic>single</syllabic>
					<text>I-</text>
				</lyric>
			</note>
			<note>
				<pitch>
					<step>F</step>
					<octave>4</octave>
				</pitch>
				<duration>40</duration>
				<instrument id="P1-S0V0"/>
				<voice>1</voice>
				<type>quarter</type>
				<stem>up</stem>
				<staff>1</staff>
				<lyric number="3">
					<syllabic>begin</syllabic>
					<text>_len</text>
				</lyric>
			</note>
			<backup>
				<duration>120</duration>
			</backup>
			<note>
				<pitch>
					<step>G</step>
					<octave>3</octave>
				</pitch>
				<duration>60</duration>
				<instrument id="P1-S1V0"/>
				<voice>5</voice>
				<type>quarter</type>
				<dot/>
				<stem>down</stem>
				<staff>2</staff>
			</note>
			<note>
				<pitch>
					<step>C</step>
					<octave>4</octave>
				</pitch>
				<duration>40</duration>
				<instrument id="P1-S1V0"/>
				<voice>5</voice>
				<type>quarter</type>
				<stem>down</stem>
				<staff>2</staff>
			</note>
			<note>
				<pitch>
					<step>B</step>
					<octave>3</octave>
				</pitch>
				<duration>20</duration>
				<instrument id="P1-S1V0"/>
				<voice>5</voice>
				<type>eighth</type>
				<stem>down</stem>
				<staff>2</staff>
			</note>
		</measure><!--
===========================================================
-->

		<measure number="14" width="190">
			<print new-system="no"></print>
			<attributes></attributes>
			<note>
				<pitch>
					<step>G</step>
					<octave>4</octave>
				</pitch>
				<duration>40</duration>
				<instrument id="P1-S0V0"/>
				<voice>1</voice>
				<type>quarter</type>
				<stem>up</stem>
				<staff>1</staff>
				<lyric number="1">
					<syllabic>single</syllabic>
					<text>hon</text>
				</lyric>
				<lyric number="2">
					<syllabic>begin</syllabic>
					<text>de</text>
				</lyric>
				<lyric number="3">
					<syllabic>end</syllabic>
					<text>te</text>
				</lyric>
			</note>
			<note>
				<pitch>
					<step>F</step>
					<octave>4</octave>
				</pitch>
				<duration>20</duration>
				<instrument id="P1-S0V0"/>
				<voice>1</voice>
				<type>eighth</type>
				<stem>up</stem>
				<staff>1</staff>
				<lyric number="1">
					<syllabic>begin</syllabic>
					<text>_nou-re</text>
				</lyric>
				<lyric number="2">
					<syllabic>middle</syllabic>
					<text>sti-ne</text>
				</lyric>
				<lyric number="3">
					<syllabic>begin</syllabic>
					<text>don-ne</text>
				</lyric>
				<lyric number="4">
					<syllabic>single</syllabic>
					<text>-I</text>
				</lyric>
			</note>
			<note>
				<pitch>
					<step>G</step>
					<octave>4</octave>
				</pitch>
				<duration>20</duration>
				<instrument id="P1-S0V0"/>
				<voice>1</voice>
				<type>eighth</type>
				<stem>up</stem>
				<staff>1</staff>
			</note>
			<note>
				<rest/>
				<duration>20</duration>
				<voice>1</voice>
				<type>eighth</type>
				<staff>1</staff>
			</note>
			<note>
				<pitch>
					<step>C</step>
					<octave>5</octave>
				</pitch>
				<duration>20</duration>
				<instrument id="P1-S0V0"/>
				<voice>1</voice>
				<type>eighth</type>
				<stem>down</stem>
				<staff>1</staff>
			</note>
			<backup>
				<duration>120</duration>
			</backup>
			<note>
				<pitch>
					<step>B</step>
					<octave>3</octave>
				</pitch>
				<duration>20</duration>
				<instrument id="P1-S1V0"/>
				<voice>5</voice>
				<type>eighth</type>
				<stem>down</stem>
				<staff>2</staff>
			</note>
			<note>
				<pitch>
					<step>A</step>
					<octave>3</octave>
				</pitch>
				<duration>40</duration>
				<instrument id="P1-S1V0"/>
				<voice>5</voice>
				<type>quarter</type>
				<stem>down</stem>
				<staff>2</staff>
			</note>
			<note>
				<pitch>
					<step>G</step>
					<octave>3</octave>
				</pitch>
				<duration>20</duration>
				<instrument id="P1-S1V0"/>
				<voice>5</voice>
				<type>eighth</type>
				<stem>down</stem>
				<staff>2</staff>
			</note>
			<note>
				<pitch>
					<step>D</step>
					<octave>4</octave>
				</pitch>
				<duration>40</duration>
				<instrument id="P1-S1V0"/>
				<voice>5</voice>
				<type>quarter</type>
				<stem>down</stem>
				<staff>2</staff>
			</note>
		</measure><!--
===========================================================
-->

		<measure number="15" width="183">
			<print new-system="no"></print>
			<attributes></attributes>
			<direction placement="above">
				<direction-type>
					<words relative-x="4.2771" default-y="16.5776" font-family="Times New Roman" font-style="normal" font-size="9" font-weight="normal" color="#000000">l 5</words>
				</direction-type>
				<staff>1</staff>
			</direction>
			<note>
				<pitch>
					<step>C</step>
					<octave>5</octave>
				</pitch>
				<duration>40</duration>
				<instrument id="P1-S0V0"/>
				<voice>1</voice>
				<type>quarter</type>
				<stem>down</stem>
				<staff>1</staff>
			</note>
			<note>
				<pitch>
					<step>B</step>
					<octave>4</octave>
				</pitch>
				<duration>10</duration>
				<instrument id="P1-S0V0"/>
				<voice>1</voice>
				<type>16th</type>
				<stem>up</stem>
				<staff>1</staff>
				<beam number="1">begin</beam>
				<beam number="2">begin</beam>
			</note>
			<note>
				<pitch>
					<step>A</step>
					<octave>4</octave>
				</pitch>
				<duration>10</duration>
				<instrument id="P1-S0V0"/>
				<voice>1</voice>
				<type>16th</type>
				<stem>up</stem>
				<staff>1</staff>
				<beam number="1">end</beam>
				<beam number="2">end</beam>
				<lyric number="1">
					<syllabic>middle</syllabic>
					<text>-</text>
				</lyric>
				<lyric number="2">
					<syllabic>middle</syllabic>
					<text>-</text>
				</lyric>
				<lyric number="3">
					<syllabic>middle</syllabic>
					<text>-</text>
				</lyric>
			</note>
			<note>
				<pitch>
					<step>G</step>
					<octave>4</octave>
				</pitch>
				<duration>40</duration>
				<instrument id="P1-S0V0"/>
				<voice>1</voice>
				<type>quarter</type>
				<stem>up</stem>
				<staff>1</staff>
			</note>
			<note>
				<pitch>
					<step>F</step>
					<octave>4</octave>
				</pitch>
				<duration>10</duration>
				<instrument id="P1-S0V0"/>
				<voice>1</voice>
				<type>16th</type>
				<stem>up</stem>
				<staff>1</staff>
				<beam number="1">begin</beam>
				<beam number="2">begin</beam>
			</note>
			<note>
				<pitch>
					<step>E</step>
					<octave>4</octave>
				</pitch>
				<duration>10</duration>
				<instrument id="P1-S0V0"/>
				<voice>1</voice>
				<type>16th</type>
				<stem>up</stem>
				<staff>1</staff>
				<beam number="1">end</beam>
				<beam number="2">end</beam>
			</note>
			<backup>
				<duration>120</duration>
			</backup>
			<note>
				<pitch>
					<step>F</step>
					<octave>3</octave>
				</pitch>
				<duration>60</duration>
				<instrument id="P1-S1V0"/>
				<voice>5</voice>
				<type>quarter</type>
				<dot/>
				<stem>down</stem>
				<staff>2</staff>
			</note>
			<note>
				<rest/>
				<duration>40</duration>
				<voice>5</voice>
				<type>quarter</type>
				<staff>2</staff>
			</note>
			<note>
				<pitch>
					<step>G</step>
					<octave>3</octave>
				</pitch>
				<duration>20</duration>
				<instrument id="P1-S1V0"/>
				<voice>5</voice>
				<type>eighth</type>
				<stem>down</stem>
				<staff>2</staff>
			</note>
		</measure><!--
===========================================================
-->

		<measure number="16" width="238">
			<print new-system="yes">
				<system-layout>
					<system-margins>
						<left-margin>0</left-margin>
						<right-margin>2</right-margin>
					</system-margins>
					<system-distance>62</system-distance>
				</system-layout>
				<staff-layout number="2">
					<staff-distance>90</staff-distance>
				</staff-layout>
			</print>
			<attributes></attributes>
			<note>
				<pitch>
					<step>D</step>
					<octave>4</octave>
				</pitch>
				<duration>40</duration>
				<instrument id="P1-S0V0"/>
				<voice>1</voice>
				<type>quarter</type>
				<stem>up</stem>
				<staff>1</staff>
				<lyric number="1">
					<syllabic>middle</syllabic>
					<text>-</text>
					<extend/>
				</lyric>
			</note>
			<note>
				<pitch>
					<step>B</step>
					<octave>3</octave>
				</pitch>
				<duration>20</duration>
				<instrument id="P1-S0V0"/>
				<voice>1</voice>
				<type>eighth</type>
				<stem>up</stem>
				<staff>1</staff>
			</note>
			<note>
				<pitch>
					<step>E</step>
					<octave>4</octave>
				</pitch>
				<duration>20</duration>
				<instrument id="P1-S0V0"/>
				<voice>1</voice>
				<type>eighth</type>
				<stem>up</stem>
				<staff>1</staff>
			</note>
			<note>
				<pitch>
					<step>F</step>
					<octave>4</octave>
				</pitch>
				<duration>40</duration>
				<instrument id="P1-S0V0"/>
				<voice>1</voice>
				<type>quarter</type>
				<stem>up</stem>
				<staff>1</staff>
			</note>
			<backup>
				<duration>120</duration>
			</backup>
			<note>
				<pitch>
					<step>A</step>
					<octave>3</octave>
				</pitch>
				<duration>40</duration>
				<tie type="start"/>
				<instrument id="P1-S1V0"/>
				<voice>5</voice>
				<type>quarter</type>
				<stem>down</stem>
				<staff>2</staff>
				<notations>
					<tied type="start" number="1" orientation="over"/>
				</notations>
			</note>
			<note>
				<pitch>
					<step>A</step>
					<octave>3</octave>
				</pitch>
				<duration>40</duration>
				<tie type="stop"/>
				<instrument id="P1-S1V0"/>
				<voice>5</voice>
				<type>quarter</type>
				<stem>down</stem>
				<staff>2</staff>
				<notations>
					<tied type="stop" number="1" orientation="over"/>
				</notations>
			</note>
			<note>
				<pitch>
					<step>B</step>
					<octave>3</octave>
				</pitch>
				<duration>20</duration>
				<instrument id="P1-S1V0"/>
				<voice>5</voice>
				<type>eighth</type>
				<stem>down</stem>
				<staff>2</staff>
			</note>
			<forward>
				<duration>20</duration>
			</forward>
		</measure><!--
===========================================================
-->

		<measure number="17" width="237">
			<print new-system="no"></print>
			<attributes></attributes>
			<note>
				<pitch>
					<step>G</step>
					<octave>4</octave>
				</pitch>
				<duration>10</duration>
				<instrument id="P1-S0V0"/>
				<voice>1</voice>
				<type>16th</type>
				<stem>up</stem>
				<staff>1</staff>
				<beam number="1">begin</beam>
				<beam number="2">begin</beam>
				<lyric number="3">
					<syllabic>end</syllabic>
					<text>r</text>
				</lyric>
			</note>
			<note>
				<pitch>
					<step>A</step>
					<octave>4</octave>
				</pitch>
				<duration>10</duration>
				<instrument id="P1-S0V0"/>
				<voice>1</voice>
				<type>16th</type>
				<stem>up</stem>
				<staff>1</staff>
				<beam number="1">continue</beam>
				<beam number="2">end</beam>
			</note>
			<note>
				<pitch>
					<step>B</step>
					<octave>4</octave>
				</pitch>
				<duration>20</duration>
				<instrument id="P1-S0V0"/>
				<voice>1</voice>
				<type>eighth</type>
				<stem>up</stem>
				<staff>1</staff>
				<beam number="1">continue</beam>
			</note>
			<note>
				<pitch>
					<step>A</step>
					<octave>4</octave>
				</pitch>
				<duration>20</duration>
				<instrument id="P1-S0V0"/>
				<voice>1</voice>
				<type>eighth</type>
				<stem>up</stem>
				<staff>1</staff>
				<beam number="1">end</beam>
			</note>
			<note>
				<pitch>
					<step>A</step>
					<octave>4</octave>
				</pitch>
				<duration>30</duration>
				<instrument id="P1-S0V0"/>
				<voice>1</voice>
				<type>eighth</type>
				<dot/>
				<stem>up</stem>
				<staff>1</staff>
				<beam number="1">begin</beam>
			</note>
			<note>
				<pitch>
					<step>G</step>
					<octave>4</octave>
				</pitch>
				<duration>20</duration>
				<instrument id="P1-S0V0"/>
				<voice>1</voice>
				<type>eighth</type>
				<stem>up</stem>
				<staff>1</staff>
				<beam number="1">continue</beam>
			</note>
			<note>
				<pitch>
					<step>F</step>
					<octave>4</octave>
				</pitch>
				<duration>10</duration>
				<instrument id="P1-S0V0"/>
				<voice>1</voice>
				<type>16th</type>
				<stem>up</stem>
				<staff>1</staff>
				<beam number="1">end</beam>
				<beam number="2">backward hook</beam>
				<lyric number="1">
					<syllabic>end</syllabic>
					<text>-</text>
				</lyric>
				<lyric number="3">
					<syllabic>single</syllabic>
					<text>-I</text>
				</lyric>
			</note>
			<backup>
				<duration>120</duration>
			</backup>
			<note>
				<pitch>
					<step>G</step>
					<octave>3</octave>
				</pitch>
				<duration>40</duration>
				<instrument id="P1-S1V0"/>
				<voice>5</voice>
				<type>quarter</type>
				<stem>down</stem>
				<staff>2</staff>
			</note>
			<note>
				<pitch>
					<step>C</step>
					<octave>4</octave>
				</pitch>
				<duration>40</duration>
				<instrument id="P1-S1V0"/>
				<voice>5</voice>
				<type>quarter</type>
				<stem>down</stem>
				<staff>2</staff>
			</note>
			<note>
				<pitch>
					<step>B</step>
					<octave>3</octave>
				</pitch>
				<duration>40</duration>
				<instrument id="P1-S1V0"/>
				<voice>5</voice>
				<type>quarter</type>
				<stem>down</stem>
				<staff>2</staff>
			</note>
			<direction placement="below">
				<direction-type>
					<words relative-x="-40.6178" default-y="-58.9854" font-family="Times New Roman" font-style="normal" font-size="10" font-weight="normal" color="#000000">c lu 2 4</words>
				</direction-type>
				<staff>2</staff>
			</direction>
		</measure><!--
===========================================================
-->

		<measure number="18" width="131">
			<print new-system="no"></print>
			<attributes></attributes>
			<note>
				<pitch>
					<step>A</step>
					<octave>4</octave>
				</pitch>
				<duration>40</duration>
				<instrument id="P1-S0V0"/>
				<voice>1</voice>
				<type>quarter</type>
				<stem>up</stem>
				<staff>1</staff>
				<notations>
					<fermata type="upright"/>
				</notations>
				<lyric number="1">
					<syllabic>single</syllabic>
					<text>_e,</text>
				</lyric>
				<lyric number="2">
					<syllabic>end</syllabic>
					<text>e,</text>
				</lyric>
				<lyric number="3">
					<syllabic>single</syllabic>
					<text>e</text>
				</lyric>
			</note>
			<note>
				<rest/>
				<duration>60</duration>
				<voice>1</voice>
				<type>quarter</type>
				<dot/>
				<staff>1</staff>
			</note>
			<note>
				<rest/>
				<duration>20</duration>
				<voice>1</voice>
				<type>eighth</type>
				<staff>1</staff>
				<lyric number="1">
					<syllabic>single</syllabic>
					<text>2.S.</text>
				</lyric>
				<lyric number="2">
					<syllabic>begin</syllabic>
					<text>G</text>
				</lyric>
			</note>
			<backup>
				<duration>120</duration>
			</backup>
			<note>
				<pitch>
					<step>A</step>
					<octave>3</octave>
				</pitch>
				<duration>120</duration>
				<instrument id="P1-S1V0"/>
				<voice>5</voice>
				<type>half</type>
				<dot/>
				<stem>down</stem>
				<staff>2</staff>
				<notations>
					<fermata type="upright"/>
				</notations>
			</note>
		</measure><!--
===========================================================
-->

		<measure number="19" width="174">
			<print new-system="no"></print>
			<attributes></attributes>
			<note>
				<pitch>
					<step>A</step>
					<octave>4</octave>
				</pitch>
				<duration>40</duration>
				<instrument id="P1-S0V0"/>
				<voice>1</voice>
				<type>quarter</type>
				<stem>up</stem>
				<staff>1</staff>
				<lyric number="1">
					<syllabic>single</syllabic>
					<text>N&apos;en</text>
				</lyric>
				<lyric number="2">
					<syllabic>end</syllabic>
					<text>_Ai</text>
				</lyric>
			</note>
			<note>
				<pitch>
					<step>B</step>
					<octave>4</octave>
				</pitch>
				<duration>40</duration>
				<instrument id="P1-S0V0"/>
				<voice>1</voice>
				<type>quarter</type>
				<stem>down</stem>
				<staff>1</staff>
				<lyric number="1">
					<syllabic>begin</syllabic>
					<text>au</text>
				</lyric>
				<lyric number="2">
					<syllabic>single</syllabic>
					<text>en</text>
				</lyric>
			</note>
			<note>
				<pitch>
					<step>B</step>
					<octave>4</octave>
				</pitch>
				<duration>20</duration>
				<instrument id="P1-S0V0"/>
				<voice>1</voice>
				<type>eighth</type>
				<stem>down</stem>
				<staff>1</staff>
				<lyric number="1">
					<syllabic>end</syllabic>
					<text>tre</text>
				</lyric>
				<lyric number="2">
					<syllabic>single</syllabic>
					<text>os</text>
				</lyric>
			</note>
			<backup>
				<duration>100</duration>
			</backup>
			<note>
				<pitch>
					<step>D</step>
					<octave>4</octave>
				</pitch>
				<duration>120</duration>
				<instrument id="P1-S1V0"/>
				<voice>5</voice>
				<type>half</type>
				<dot/>
				<stem>down</stem>
				<staff>2</staff>
				<notations>
					<slur type="start" number="1"></slur>
				</notations>
			</note>
		</measure><!--
===========================================================
-->

		<measure number="20" width="180">
			<print new-system="no"></print>
			<attributes></attributes>
			<note>
				<pitch>
					<step>C</step>
					<alter>1</alter>
					<octave>5</octave>
				</pitch>
				<duration>60</duration>
				<instrument id="P1-S0V0"/>
				<voice>1</voice>
				<type>quarter</type>
				<dot/>
				<accidental parentheses="no">sharp</accidental>
				<stem>down</stem>
				<staff>1</staff>
				<lyric number="1">
					<syllabic>begin</syllabic>
					<text>nulle___</text>
					<extend/>
				</lyric>
				<lyric number="2">
					<syllabic>single</syllabic>
					<text>mins,</text>
				</lyric>
			</note>
			<note>
				<pitch>
					<step>C</step>
					<alter>1</alter>
					<octave>5</octave>
				</pitch>
				<duration>40</duration>
				<instrument id="P1-S0V0"/>
				<voice>1</voice>
				<type>quarter</type>
				<stem>down</stem>
				<staff>1</staff>
				<notations></notations>
			</note>
			<note>
				<pitch>
					<step>B</step>
					<octave>4</octave>
				</pitch>
				<duration>20</duration>
				<instrument id="P1-S0V0"/>
				<voice>1</voice>
				<type>eighth</type>
				<stem>down</stem>
				<staff>1</staff>
				<lyric number="1">
					<syllabic>end</syllabic>
					<text>ai</text>
				</lyric>
				<lyric number="2">
					<syllabic>begin</syllabic>
					<text>$el</text>
				</lyric>
			</note>
			<backup>
				<duration>120</duration>
			</backup>
			<note>
				<pitch>
					<step>A</step>
					<octave>3</octave>
				</pitch>
				<duration>120</duration>
				<instrument id="P1-S1V0"/>
				<voice>5</voice>
				<type>half</type>
				<dot/>
				<stem>down</stem>
				<staff>2</staff>
				<notations>
					<slur type="stop" number="1"></slur>
				</notations>
			</note>
		</measure><!--
===========================================================
-->

		<measure number="21" width="222">
			<print new-system="yes" new-page="yes">
				<page-layout>
					<page-height>1881.48</page-height>
					<page-width>1453.87</page-width>
					<page-margins>
						<left-margin>172.31</left-margin>
						<right-margin>315.15</right-margin>
						<top-margin>127.00</top-margin>
						<bottom-margin>63.50</bottom-margin>
					</page-margins>
				</page-layout>
				<system-layout>
					<system-margins>
						<left-margin>2</left-margin>
						<right-margin>0</right-margin>
					</system-margins>
					<top-system-distance>139</top-system-distance>
				</system-layout>
				<staff-layout number="2">
					<staff-distance>73</staff-distance>
				</staff-layout>
			</print>
			<attributes></attributes>
			<note>
				<pitch>
					<step>D</step>
					<octave>5</octave>
				</pitch>
				<duration>40</duration>
				<instrument id="P1-S0V0"/>
				<voice>1</voice>
				<type>quarter</type>
				<stem>down</stem>
				<staff>1</staff>
				<lyric number="2">
					<syllabic>middle</syllabic>
					<text>mi</text>
				</lyric>
				<lyric number="3">
					<syllabic>single</syllabic>
					<text>te,s</text>
				</lyric>
			</note>
			<note>
				<pitch>
					<step>C</step>
					<octave>5</octave>
				</pitch>
				<duration>40</duration>
				<instrument id="P1-S0V0"/>
				<voice>1</voice>
				<type>quarter</type>
				<stem>down</stem>
				<staff>1</staff>
				<lyric number="1">
					<syllabic>single</syllabic>
					<text>l</text>
				</lyric>
				<lyric number="2">
					<syllabic>end</syllabic>
					<text>sema</text>
				</lyric>
				<lyric number="3">
					<syllabic>begin</syllabic>
					<text>nsde</text>
				</lyric>
			</note>
			<backup>
				<duration>80</duration>
			</backup>
			<forward>
				<duration>120</duration>
			</forward>
		</measure><!--
===========================================================
-->

		<measure number="22" width="158">
			<print new-system="no"></print>
			<attributes></attributes>
			<note>
				<pitch>
					<step>D</step>
					<octave>5</octave>
				</pitch>
				<duration>60</duration>
				<instrument id="P1-S0V0"/>
				<voice>1</voice>
				<type>quarter</type>
				<dot/>
				<stem>down</stem>
				<staff>1</staff>
				<lyric number="1">
					<syllabic>begin</syllabic>
					<text>pen-se</text>
				</lyric>
				<lyric number="2">
					<syllabic>begin</syllabic>
					<text>mou-.re</text>
				</lyric>
			</note>
			<note>
				<rest/>
				<duration>40</duration>
				<voice>1</voice>
				<type>quarter</type>
				<staff>1</staff>
			</note>
			<note>
				<pitch>
					<step>A</step>
					<octave>4</octave>
				</pitch>
				<duration>20</duration>
				<instrument id="P1-S0V0"/>
				<voice>1</voice>
				<type>eighth</type>
				<stem>up</stem>
				<staff>1</staff>
				<lyric number="1">
					<syllabic>middle</syllabic>
					<text>-</text>
					<extend/>
				</lyric>
			</note>
			<backup>
				<duration>120</duration>
			</backup>
			<note>
				<rest/>
				<duration>40</duration>
				<voice>5</voice>
				<type>quarter</type>
				<staff>2</staff>
			</note>
			<forward>
				<duration>80</duration>
			</forward>
		</measure><!--
===========================================================
-->

		<measure number="23" width="197">
			<print new-system="no"></print>
			<attributes></attributes>
			<note>
				<pitch>
					<step>A</step>
					<octave>4</octave>
				</pitch>
				<duration>30</duration>
				<instrument id="P1-S0V0"/>
				<voice>1</voice>
				<type>eighth</type>
				<dot/>
				<stem>up</stem>
				<staff>1</staff>
				<beam number="1">begin</beam>
			</note>
			<note>
				<pitch>
					<step>G</step>
					<octave>4</octave>
				</pitch>
				<duration>10</duration>
				<instrument id="P1-S0V0"/>
				<voice>1</voice>
				<type>16th</type>
				<stem>up</stem>
				<staff>1</staff>
				<beam number="1">continue</beam>
				<beam number="2">begin</beam>
			</note>
			<note>
				<pitch>
					<step>A</step>
					<octave>4</octave>
				</pitch>
				<duration>10</duration>
				<instrument id="P1-S0V0"/>
				<voice>1</voice>
				<type>16th</type>
				<stem>up</stem>
				<staff>1</staff>
				<beam number="1">continue</beam>
				<beam number="2">continue</beam>
				<lyric number="1">
					<syllabic>end</syllabic>
					<text>--</text>
				</lyric>
			</note>
			<note>
				<pitch>
					<step>B</step>
					<octave>4</octave>
				</pitch>
				<duration>10</duration>
				<instrument id="P1-S0V0"/>
				<voice>1</voice>
				<type>16th</type>
				<stem>up</stem>
				<staff>1</staff>
				<beam number="1">end</beam>
				<beam number="2">end</beam>
			</note>
			<note>
				<pitch>
					<step>A</step>
					<octave>4</octave>
				</pitch>
				<duration>20</duration>
				<instrument id="P1-S0V0"/>
				<voice>1</voice>
				<type>eighth</type>
				<stem>up</stem>
				<staff>1</staff>
				<beam number="1">begin</beam>
			</note>
			<note>
				<pitch>
					<step>G</step>
					<octave>4</octave>
				</pitch>
				<duration>20</duration>
				<instrument id="P1-S0V0"/>
				<voice>1</voice>
				<type>eighth</type>
				<stem>up</stem>
				<staff>1</staff>
				<beam number="1">continue</beam>
			</note>
			<note>
				<pitch>
					<step>F</step>
					<octave>4</octave>
				</pitch>
				<duration>20</duration>
				<instrument id="P1-S0V0"/>
				<voice>1</voice>
				<type>eighth</type>
				<stem>up</stem>
				<staff>1</staff>
				<beam number="1">end</beam>
			</note>
			<backup>
				<duration>120</duration>
			</backup>
			<note>
				<pitch>
					<step>G</step>
					<octave>4</octave>
				</pitch>
				<duration>60</duration>
				<instrument id="P1-S1V0"/>
				<voice>5</voice>
				<type>quarter</type>
				<dot/>
				<stem>down</stem>
				<staff>2</staff>
			</note>
			<forward>
				<duration>60</duration>
			</forward>
		</measure><!--
===========================================================
-->

		<measure number="24" width="233">
			<print new-system="no"></print>
			<attributes></attributes>
			<note>
				<pitch>
					<step>A</step>
					<octave>4</octave>
				</pitch>
				<duration>30</duration>
				<instrument id="P1-S0V0"/>
				<voice>1</voice>
				<type>eighth</type>
				<dot/>
				<stem>up</stem>
				<staff>1</staff>
				<beam number="1">begin</beam>
			</note>
			<note>
				<pitch>
					<step>G</step>
					<octave>4</octave>
				</pitch>
				<duration>10</duration>
				<instrument id="P1-S0V0"/>
				<voice>1</voice>
				<type>16th</type>
				<stem>up</stem>
				<staff>1</staff>
				<beam number="1">continue</beam>
				<beam number="2">begin</beam>
				<lyric number="3">
					<syllabic>middle</syllabic>
					<text></text>
					<extend/>
				</lyric>
			</note>
			<note>
				<pitch>
					<step>F</step>
					<octave>4</octave>
				</pitch>
				<duration>10</duration>
				<instrument id="P1-S0V0"/>
				<voice>1</voice>
				<type>16th</type>
				<stem>up</stem>
				<staff>1</staff>
				<beam number="1">continue</beam>
				<beam number="2">continue</beam>
			</note>
			<note>
				<pitch>
					<step>G</step>
					<octave>4</octave>
				</pitch>
				<duration>10</duration>
				<instrument id="P1-S0V0"/>
				<voice>1</voice>
				<type>16th</type>
				<stem>up</stem>
				<staff>1</staff>
				<beam number="1">end</beam>
				<beam number="2">end</beam>
			</note>
			<note>
				<pitch>
					<step>E</step>
					<octave>4</octave>
				</pitch>
				<duration>10</duration>
				<instrument id="P1-S0V0"/>
				<voice>1</voice>
				<type>16th</type>
				<stem>up</stem>
				<staff>1</staff>
				<beam number="1">begin</beam>
				<beam number="2">begin</beam>
			</note>
			<note>
				<pitch>
					<step>F</step>
					<octave>4</octave>
				</pitch>
				<duration>10</duration>
				<instrument id="P1-S0V0"/>
				<voice>1</voice>
				<type>16th</type>
				<stem>up</stem>
				<staff>1</staff>
				<beam number="1">continue</beam>
				<beam number="2">continue</beam>
			</note>
			<note>
				<pitch>
					<step>G</step>
					<octave>4</octave>
				</pitch>
				<duration>10</duration>
				<instrument id="P1-S0V0"/>
				<voice>1</voice>
				<type>16th</type>
				<stem>up</stem>
				<staff>1</staff>
				<beam number="1">continue</beam>
				<beam number="2">continue</beam>
			</note>
			<note>
				<pitch>
					<step>F</step>
					<octave>4</octave>
				</pitch>
				<duration>10</duration>
				<instrument id="P1-S0V0"/>
				<voice>1</voice>
				<type>16th</type>
				<stem>up</stem>
				<staff>1</staff>
				<beam number="1">continue</beam>
				<beam number="2">continue</beam>
			</note>
			<note>
				<pitch>
					<step>E</step>
					<octave>4</octave>
				</pitch>
				<duration>10</duration>
				<instrument id="P1-S0V0"/>
				<voice>1</voice>
				<type>16th</type>
				<stem>up</stem>
				<staff>1</staff>
				<beam number="1">continue</beam>
				<beam number="2">continue</beam>
				<lyric number="3">
					<syllabic>end</syllabic>
					<text>-I</text>
				</lyric>
			</note>
			<note>
				<pitch>
					<step>D</step>
					<octave>4</octave>
				</pitch>
				<duration>10</duration>
				<instrument id="P1-S0V0"/>
				<voice>1</voice>
				<type>16th</type>
				<stem>up</stem>
				<staff>1</staff>
				<beam number="1">end</beam>
				<beam number="2">end</beam>
			</note>
			<backup>
				<duration>120</duration>
			</backup>
			<note>
				<pitch>
					<step>D</step>
					<octave>4</octave>
				</pitch>
				<duration>40</duration>
				<instrument id="P1-S1V0"/>
				<voice>5</voice>
				<type>quarter</type>
				<stem>down</stem>
				<staff>2</staff>
			</note>
			<forward>
				<duration>80</duration>
			</forward>
		</measure><!--
===========================================================
-->

		<measure number="25" width="150">
			<print new-system="no"></print>
			<attributes></attributes>
			<note>
				<pitch>
					<step>C</step>
					<octave>4</octave>
				</pitch>
				<duration>40</duration>
				<instrument id="P1-S0V0"/>
				<voice>1</voice>
				<type>quarter</type>
				<stem>up</stem>
				<staff>1</staff>
				<lyric number="1">
					<syllabic>single</syllabic>
					<text>-e,</text>
				</lyric>
				<lyric number="2">
					<syllabic>end</syllabic>
					<text>-e,</text>
				</lyric>
			</note>
			<note>
				<rest/>
				<duration>20</duration>
				<voice>1</voice>
				<type>eighth</type>
				<staff>1</staff>
			</note>
			<note>
				<pitch>
					<step>F</step>
					<octave>4</octave>
				</pitch>
				<duration>20</duration>
				<instrument id="P1-S0V0"/>
				<voice>1</voice>
				<type>eighth</type>
				<stem>up</stem>
				<staff>1</staff>
				<beam number="1">begin</beam>
				<lyric number="1">
					<syllabic>single</syllabic>
					<text>Fors</text>
				</lyric>
				<lyric number="2">
					<syllabic>single</syllabic>
					<text>De</text>
				</lyric>
			</note>
			<note>
				<pitch>
					<step>G</step>
					<octave>4</octave>
				</pitch>
				<duration>20</duration>
				<instrument id="P1-S0V0"/>
				<voice>1</voice>
				<type>eighth</type>
				<stem>up</stem>
				<staff>1</staff>
				<beam number="1">end</beam>
			</note>
			<direction placement="above">
				<direction-type>
					<words relative-x="-2.1957" default-y="53.6230" font-family="Times New Roman" font-style="italic" font-size="12" font-weight="normal" color="#000000">4 l</words>
				</direction-type>
				<staff>1</staff>
			</direction>
			<backup>
				<duration>100</duration>
			</backup>
			<forward>
				<duration>120</duration>
			</forward>
		</measure><!--
===========================================================
-->

		<measure number="26" width="288">
			<print new-system="yes">
				<system-layout>
					<system-margins>
						<left-margin>0</left-margin>
						<right-margin>2</right-margin>
					</system-margins>
					<system-distance>65</system-distance>
				</system-layout>
				<staff-layout number="2">
					<staff-distance>74</staff-distance>
				</staff-layout>
			</print>
			<attributes></attributes>
			<note>
				<pitch>
					<step>B</step>
					<octave>4</octave>
				</pitch>
				<duration>40</duration>
				<instrument id="P1-S0V0"/>
				<voice>1</voice>
				<type>quarter</type>
				<stem>down</stem>
				<staff>1</staff>
				<lyric number="1">
					<syllabic>single</syllabic>
					<text>u&apos;envous,dnme</text>
				</lyric>
				<lyric number="2">
					<syllabic>single</syllabic>
					<text>sfincu</text>
				</lyric>
			</note>
			<backup>
				<duration>40</duration>
			</backup>
			<forward>
				<duration>120</duration>
			</forward>
		</measure><!--
===========================================================
-->

		<measure number="27" width="171">
			<print new-system="no"></print>
			<attributes></attributes>
			<note>
				<pitch>
					<step>D</step>
					<octave>5</octave>
				</pitch>
				<duration>40</duration>
				<instrument id="P1-S0V0"/>
				<voice>1</voice>
				<type>quarter</type>
				<stem>down</stem>
				<staff>1</staff>
				<lyric number="1">
					<syllabic>single</syllabic>
					<text>dequisui</text>
				</lyric>
				<lyric number="2">
					<syllabic>single</syllabic>
					<text>ripourluoidi</text>
				</lyric>
			</note>
			<note>
				<rest/>
				<duration>160</duration>
				<voice>1</voice>
				<type>whole</type>
				<staff>1</staff>
				<lyric number="1">
					<syllabic>begin</syllabic>
					<text>rai</text>
				</lyric>
				<lyric number="2">
					<syllabic>single</syllabic>
					<text>ench</text>
				</lyric>
			</note>
			<backup>
				<duration>200</duration>
			</backup>
			<note>
				<pitch>
					<step>G</step>
					<octave>3</octave>
				</pitch>
				<duration>60</duration>
				<instrument id="P1-S1V0"/>
				<voice>5</voice>
				<type>quarter</type>
				<dot/>
				<stem>down</stem>
				<staff>2</staff>
				<notations></notations>
			</note>
			<forward>
				<duration>60</duration>
			</forward>
		</measure><!--
===========================================================
-->

		<measure number="28" width="192">
			<print new-system="no"></print>
			<attributes></attributes>
			<note>
				<pitch>
					<step>C</step>
					<octave>5</octave>
				</pitch>
				<duration>10</duration>
				<instrument id="P1-S0V0"/>
				<voice>1</voice>
				<type>16th</type>
				<stem>down</stem>
				<staff>1</staff>
				<beam number="1">begin</beam>
				<beam number="2">forward hook</beam>
				<lyric number="1">
					<syllabic>end</syllabic>
					<text>mnt.</text>
				</lyric>
				<lyric number="2">
					<syllabic>single</syllabic>
					<text>n-tant:</text>
				</lyric>
			</note>
			<note>
				<pitch>
					<step>B</step>
					<octave>4</octave>
				</pitch>
				<duration>20</duration>
				<instrument id="P1-S0V0"/>
				<voice>1</voice>
				<type>eighth</type>
				<stem>down</stem>
				<staff>1</staff>
				<beam number="1">end</beam>
			</note>
			<backup>
				<duration>30</duration>
			</backup>
			<note>
				<pitch>
					<step>D</step>
					<octave>4</octave>
				</pitch>
				<duration>40</duration>
				<instrument id="P1-S1V0"/>
				<voice>5</voice>
				<type>quarter</type>
				<stem>down</stem>
				<staff>2</staff>
			</note>
			<note>
				<pitch>
					<step>A</step>
					<octave>3</octave>
				</pitch>
				<duration>60</duration>
				<instrument id="P1-S1V0"/>
				<voice>5</voice>
				<type>quarter</type>
				<dot/>
				<stem>down</stem>
				<staff>2</staff>
			</note>
			<forward>
				<duration>20</duration>
			</forward>
		</measure><!--
===========================================================
-->

		<measure number="29" width="224">
			<print new-system="no"></print>
			<attributes></attributes>
			<note>
				<pitch>
					<step>B</step>
					<octave>4</octave>
				</pitch>
				<duration>20</duration>
				<instrument id="P1-S0V0"/>
				<voice>1</voice>
				<type>eighth</type>
				<stem>up</stem>
				<staff>1</staff>
				<beam number="1">begin</beam>
			</note>
			<note>
				<pitch>
					<step>G</step>
					<octave>4</octave>
				</pitch>
				<duration>10</duration>
				<instrument id="P1-S0V0"/>
				<voice>1</voice>
				<type>16th</type>
				<stem>up</stem>
				<staff>1</staff>
				<beam number="1">continue</beam>
				<beam number="2">begin</beam>
			</note>
			<note>
				<pitch>
					<step>A</step>
					<octave>4</octave>
				</pitch>
				<duration>10</duration>
				<instrument id="P1-S0V0"/>
				<voice>1</voice>
				<type>16th</type>
				<stem>up</stem>
				<staff>1</staff>
				<beam number="1">end</beam>
				<beam number="2">end</beam>
			</note>
			<note>
				<pitch>
					<step>G</step>
					<octave>4</octave>
				</pitch>
				<duration>20</duration>
				<instrument id="P1-S0V0"/>
				<voice>1</voice>
				<type>eighth</type>
				<stem>up</stem>
				<staff>1</staff>
				<beam number="1">begin</beam>
			</note>
			<note>
				<chord/>
				<pitch>
					<step>D</step>
					<octave>5</octave>
				</pitch>
				<duration>20</duration>
				<instrument id="P1-S0V0"/>
				<voice>1</voice>
				<type>eighth</type>
				<stem>up</stem>
				<staff>1</staff>
				<beam number="1">begin</beam>
			</note>
			<note>
				<pitch>
					<step>F</step>
					<octave>4</octave>
				</pitch>
				<duration>20</duration>
				<instrument id="P1-S0V0"/>
				<voice>1</voice>
				<type>eighth</type>
				<stem>up</stem>
				<staff>1</staff>
				<beam number="1">continue</beam>
			</note>
			<note>
				<pitch>
					<step>E</step>
					<octave>4</octave>
				</pitch>
				<duration>10</duration>
				<instrument id="P1-S0V0"/>
				<voice>1</voice>
				<type>16th</type>
				<stem>up</stem>
				<staff>1</staff>
				<beam number="1">end</beam>
				<beam number="2">backward hook</beam>
			</note>
			<backup>
				<duration>90</duration>
			</backup>
			<note>
				<pitch>
					<step>A</step>
					<octave>3</octave>
				</pitch>
				<duration>40</duration>
				<instrument id="P1-S1V0"/>
				<voice>5</voice>
				<type>quarter</type>
				<stem>down</stem>
				<staff>2</staff>
			</note>
			<forward>
				<duration>80</duration>
			</forward>
		</measure><!--
===========================================================
-->

		<measure number="30" width="87">
			<print new-system="no"></print>
			<attributes></attributes>
			<direction placement="above">
				<direction-type>
					<words relative-x="3.4258" default-y="18.1430" font-family="Times New Roman" font-style="italic" font-size="9" font-weight="normal" color="#000000">3 O</words>
				</direction-type>
				<staff>1</staff>
			</direction>
			<note>
				<pitch>
					<step>G</step>
					<octave>4</octave>
				</pitch>
				<duration>160</duration>
				<instrument id="P1-S0V0"/>
				<voice>1</voice>
				<type>whole</type>
				<stem>none</stem>
				<staff>1</staff>
			</note>
			<backup>
				<duration>160</duration>
			</backup>
			<note>
				<pitch>
					<step>G</step>
					<octave>3</octave>
				</pitch>
				<duration>160</duration>
				<instrument id="P1-S1V0"/>
				<voice>5</voice>
				<type>whole</type>
				<stem>none</stem>
				<staff>2</staff>
			</note>
			<backup>
				<duration>40</duration>
			</backup>
			<barline location="right">
				<bar-style>light-heavy</bar-style>
			</barline>
		</measure>
	</part>
</score-partwise>