<?xml version="1.0" encoding="UTF-8" standalone="no"?>
<!DOCTYPE score-partwise PUBLIC "-//Recordare//DTD MusicXML 1.1 Partwise//EN" "http://www.musicxml.org/dtds/partwise.dtd">

<score-partwise version="2.0">
	<movement-title></movement-title>
	<identification>
		<creator type="composer"></creator>
		<encoding>
			<software>SmartScore X2 Pro</software>
			<encoding-date>2016-05-09</encoding-date>
			<supports attribute="new-system" element="print" type="yes" value="yes"/>
			<supports attribute="new-page" element="print" type="yes" value="yes"/>
		</encoding>
	</identification>
	<defaults>
		<scaling>
			<millimeters>6.00</millimeters>
			<tenths>40</tenths>
		</scaling>
	</defaults>
	<part-list>
		<score-part id="P1">
			<part-name>Piano</part-name>
			<part-abbreviation>Pno</part-abbreviation>
			<score-instrument id="P1-S0V0">
				<instrument-name>Grand Piano</instrument-name>
			</score-instrument>
			<score-instrument id="P1-S1V0">
				<instrument-name>Grand Piano</instrument-name>
			</score-instrument>
			<midi-instrument id="P1-S1V0">
				<midi-channel>5</midi-channel>
				<midi-program>1</midi-program>
				<volume>78</volume>
				<pan>0</pan>
			</midi-instrument>
			<midi-instrument id="P1-S0V0">
				<midi-channel>1</midi-channel>
				<midi-program>1</midi-program>
				<volume>78</volume>
				<pan>0</pan>
			</midi-instrument>
		</score-part>
	</part-list><!--
===========================================================
-->

	<part id="P1">
		<measure number="1" width="183">
			<print>
				<page-layout>
					<page-height>2104.96</page-height>
					<page-width>1727.54</page-width>
					<page-margins>
						<left-margin>139.11</left-margin>
						<right-margin>256.57</right-margin>
						<top-margin>127.00</top-margin>
						<bottom-margin>63.50</bottom-margin>
					</page-margins>
				</page-layout>
				<system-layout>
					<system-margins>
						<left-margin>248</left-margin>
						<right-margin>2</right-margin>
					</system-margins>
					<top-system-distance>366</top-system-distance>
				</system-layout>
				<staff-layout number="2">
					<staff-distance>110</staff-distance>
				</staff-layout>
			</print>
			<attributes>
				<divisions>20</divisions>
				<key>
					<fifths>0</fifths>
				</key>
				<time>
					<beats>4</beats>
					<beat-type>4</beat-type>
				</time>
				<staves>2</staves>
				<clef number="1">
					<sign>G</sign>
					<line>2</line>
				</clef>
				<clef number="2">
					<sign>F</sign>
					<line>4</line>
				</clef>
				<staff-details number="1" print-object="yes">
					<staff-size>79</staff-size>
				</staff-details>
				<staff-details number="2" print-object="yes">
					<staff-size>79</staff-size>
				</staff-details>
			</attributes>
			<attributes></attributes>
			<note>
				<pitch>
					<step>F</step>
					<octave>4</octave>
				</pitch>
				<duration>60</duration>
				<instrument id="P1-S0V0"/>
				<voice>1</voice>
				<type>half</type>
				<dot/>
				<stem>up</stem>
				<staff>1</staff>
			</note>
			<backup>
				<duration>60</duration>
			</backup>
			<note>
				<pitch>
					<step>F</step>
					<octave>3</octave>
				</pitch>
				<duration>60</duration>
				<instrument id="P1-S1V0"/>
				<voice>5</voice>
				<type>half</type>
				<dot/>
				<stem>down</stem>
				<staff>2</staff>
			</note>
			<forward>
				<duration>20</duration>
			</forward>
		</measure><!--
===========================================================
-->

		<measure number="2" width="213">
			<print new-system="no"></print>
			<attributes></attributes>
			<note>
				<pitch>
					<step>D</step>
					<octave>4</octave>
				</pitch>
				<duration>20</duration>
				<instrument id="P1-S0V0"/>
				<voice>1</voice>
				<type>quarter</type>
				<stem>up</stem>
				<staff>1</staff>
			</note>
			<direction placement="above">
				<direction-type>
					<words relative-x="-16.7961" default-y="316.9677" font-family="Times New Roman" font-style="normal" font-size="22" font-weight="normal" color="#000000">62. FELIX NAMQUE</words>
				</direction-type>
				<staff>1</staff>
			</direction>
			<note>
				<pitch>
					<step>E</step>
					<octave>4</octave>
				</pitch>
				<duration>10</duration>
				<instrument id="P1-S0V0"/>
				<voice>1</voice>
				<type>eighth</type>
				<stem>up</stem>
				<staff>1</staff>
			</note>
			<note>
				<pitch>
					<step>E</step>
					<octave>4</octave>
				</pitch>
				<duration>20</duration>
				<instrument id="P1-S0V0"/>
				<voice>1</voice>
				<type>quarter</type>
				<stem>up</stem>
				<staff>1</staff>
			</note>
			<direction placement="above">
				<direction-type>
					<words relative-x="13.2755" default-y="279.3519" font-family="Times New Roman" font-style="normal" font-size="16" font-weight="normal" color="#000000">(i nc omP l ete)</words>
				</direction-type>
				<staff>1</staff>
			</direction>
			<note>
				<pitch>
					<step>D</step>
					<octave>4</octave>
				</pitch>
				<duration>10</duration>
				<instrument id="P1-S0V0"/>
				<voice>1</voice>
				<type>eighth</type>
				<stem>up</stem>
				<staff>1</staff>
			</note>
			<backup>
				<duration>60</duration>
			</backup>
			<note>
				<pitch>
					<step>F</step>
					<octave>3</octave>
				</pitch>
				<duration>60</duration>
				<instrument id="P1-S1V0"/>
				<voice>5</voice>
				<type>half</type>
				<dot/>
				<stem>down</stem>
				<staff>2</staff>
			</note>
			<forward>
				<duration>20</duration>
			</forward>
		</measure><!--
===========================================================
-->

		<measure number="3" width="131">
			<print new-system="no"></print>
			<attributes></attributes>
			<note>
				<pitch>
					<step>C</step>
					<octave>4</octave>
				</pitch>
				<duration>60</duration>
				<instrument id="P1-S0V0"/>
				<voice>1</voice>
				<type>half</type>
				<dot/>
				<stem>up</stem>
				<staff>1</staff>
			</note>
			<backup>
				<duration>60</duration>
			</backup>
			<note>
				<pitch>
					<step>F</step>
					<octave>3</octave>
				</pitch>
				<duration>60</duration>
				<instrument id="P1-S1V0"/>
				<voice>5</voice>
				<type>half</type>
				<dot/>
				<stem>down</stem>
				<staff>2</staff>
			</note>
			<forward>
				<duration>20</duration>
			</forward>
		</measure><!--
===========================================================
-->

		<measure number="4" width="213">
			<print new-system="no"></print>
			<attributes></attributes>
			<note>
				<pitch>
					<step>D</step>
					<octave>4</octave>
				</pitch>
				<duration>20</duration>
				<instrument id="P1-S0V0"/>
				<voice>1</voice>
				<type>quarter</type>
				<stem>up</stem>
				<staff>1</staff>
			</note>
			<note>
				<pitch>
					<step>A</step>
					<octave>3</octave>
				</pitch>
				<duration>10</duration>
				<instrument id="P1-S0V0"/>
				<voice>1</voice>
				<type>eighth</type>
				<stem>up</stem>
				<staff>1</staff>
			</note>
			<note>
				<pitch>
					<step>A</step>
					<octave>3</octave>
				</pitch>
				<duration>20</duration>
				<instrument id="P1-S0V0"/>
				<voice>1</voice>
				<type>quarter</type>
				<stem>up</stem>
				<staff>1</staff>
			</note>
			<note>
				<pitch>
					<step>B</step>
					<octave>3</octave>
				</pitch>
				<duration>10</duration>
				<instrument id="P1-S0V0"/>
				<voice>1</voice>
				<type>eighth</type>
				<stem>up</stem>
				<staff>1</staff>
			</note>
			<backup>
				<duration>60</duration>
			</backup>
			<note>
				<pitch>
					<step>D</step>
					<octave>3</octave>
				</pitch>
				<duration>60</duration>
				<instrument id="P1-S1V0"/>
				<voice>5</voice>
				<type>half</type>
				<dot/>
				<stem>down</stem>
				<staff>2</staff>
			</note>
			<forward>
				<duration>20</duration>
			</forward>
		</measure><!--
===========================================================
-->

		<measure number="5" width="193">
			<print new-system="no"></print>
			<attributes></attributes>
			<note>
				<pitch>
					<step>C</step>
					<octave>4</octave>
				</pitch>
				<duration>20</duration>
				<instrument id="P1-S0V0"/>
				<voice>1</voice>
				<type>quarter</type>
				<stem>up</stem>
				<staff>1</staff>
			</note>
			<note>
				<pitch>
					<step>D</step>
					<octave>4</octave>
				</pitch>
				<duration>10</duration>
				<instrument id="P1-S0V0"/>
				<voice>1</voice>
				<type>eighth</type>
				<stem>up</stem>
				<staff>1</staff>
			</note>
			<note>
				<pitch>
					<step>E</step>
					<octave>4</octave>
				</pitch>
				<duration>30</duration>
				<instrument id="P1-S0V0"/>
				<voice>1</voice>
				<type>quarter</type>
				<dot/>
				<stem>up</stem>
				<staff>1</staff>
			</note>
			<backup>
				<duration>60</duration>
			</backup>
			<note>
				<pitch>
					<step>C</step>
					<octave>3</octave>
				</pitch>
				<duration>60</duration>
				<instrument id="P1-S1V0"/>
				<voice>5</voice>
				<type>half</type>
				<dot/>
				<stem>up</stem>
				<staff>2</staff>
			</note>
			<forward>
				<duration>20</duration>
			</forward>
		</measure><!--
===========================================================
-->

		<measure number="6" width="146">
			<print new-system="no"></print>
			<attributes></attributes>
			<note>
				<pitch>
					<step>D</step>
					<octave>4</octave>
				</pitch>
				<duration>60</duration>
				<instrument id="P1-S0V0"/>
				<voice>1</voice>
				<type>half</type>
				<dot/>
				<stem>up</stem>
				<staff>1</staff>
			</note>
			<backup>
				<duration>60</duration>
			</backup>
			<note>
				<pitch>
					<step>D</step>
					<octave>3</octave>
				</pitch>
				<duration>60</duration>
				<instrument id="P1-S1V0"/>
				<voice>5</voice>
				<type>half</type>
				<dot/>
				<stem>down</stem>
				<staff>2</staff>
			</note>
			<forward>
				<duration>20</duration>
			</forward>
		</measure><!--
===========================================================
-->

		<measure number="7" width="262">
			<print new-system="yes">
				<system-layout>
					<system-margins>
						<left-margin>0</left-margin>
						<right-margin>1</right-margin>
					</system-margins>
					<system-distance>220</system-distance>
				</system-layout>
				<staff-layout number="2">
					<staff-distance>102</staff-distance>
				</staff-layout>
			</print>
			<attributes></attributes>
			<note>
				<pitch>
					<step>C</step>
					<octave>4</octave>
				</pitch>
				<duration>30</duration>
				<instrument id="P1-S0V0"/>
				<voice>1</voice>
				<type>quarter</type>
				<dot/>
				<stem>up</stem>
				<staff>1</staff>
			</note>
			<note>
				<pitch>
					<step>D</step>
					<octave>4</octave>
				</pitch>
				<duration>20</duration>
				<instrument id="P1-S0V0"/>
				<voice>1</voice>
				<type>quarter</type>
				<stem>up</stem>
				<staff>1</staff>
			</note>
			<note>
				<pitch>
					<step>E</step>
					<octave>4</octave>
				</pitch>
				<duration>10</duration>
				<instrument id="P1-S0V0"/>
				<voice>1</voice>
				<type>eighth</type>
				<stem>up</stem>
				<staff>1</staff>
			</note>
			<backup>
				<duration>60</duration>
			</backup>
			<note>
				<pitch>
					<step>F</step>
					<octave>3</octave>
				</pitch>
				<duration>60</duration>
				<instrument id="P1-S1V0"/>
				<voice>5</voice>
				<type>half</type>
				<dot/>
				<stem>down</stem>
				<staff>2</staff>
			</note>
			<forward>
				<duration>20</duration>
			</forward>
		</measure><!--
===========================================================
-->

		<measure number="8" width="228">
			<print new-system="no"></print>
			<attributes></attributes>
			<note>
				<pitch>
					<step>F</step>
					<octave>4</octave>
				</pitch>
				<duration>20</duration>
				<instrument id="P1-S0V0"/>
				<voice>1</voice>
				<type>quarter</type>
				<stem>up</stem>
				<staff>1</staff>
			</note>
			<direction placement="above">
				<direction-type>
					<words relative-x="-14.9731" default-y="202.3742" font-family="Times New Roman" font-style="normal" font-size="8" font-weight="normal" color="#000000">l-e-</words>
				</direction-type>
				<staff>1</staff>
			</direction>
			<note>
				<pitch>
					<step>D</step>
					<octave>4</octave>
				</pitch>
				<duration>10</duration>
				<instrument id="P1-S0V0"/>
				<voice>1</voice>
				<type>eighth</type>
				<stem>up</stem>
				<staff>1</staff>
			</note>
			<note>
				<pitch>
					<step>D</step>
					<octave>4</octave>
				</pitch>
				<duration>20</duration>
				<instrument id="P1-S0V0"/>
				<voice>1</voice>
				<type>quarter</type>
				<stem>up</stem>
				<staff>1</staff>
			</note>
			<note>
				<pitch>
					<step>C</step>
					<octave>4</octave>
				</pitch>
				<duration>10</duration>
				<instrument id="P1-S0V0"/>
				<voice>1</voice>
				<type>eighth</type>
				<stem>up</stem>
				<staff>1</staff>
			</note>
			<backup>
				<duration>60</duration>
			</backup>
			<note>
				<pitch>
					<step>F</step>
					<octave>3</octave>
				</pitch>
				<duration>60</duration>
				<instrument id="P1-S1V0"/>
				<voice>5</voice>
				<type>half</type>
				<dot/>
				<stem>down</stem>
				<staff>2</staff>
			</note>
			<forward>
				<duration>20</duration>
			</forward>
		</measure><!--
===========================================================
-->

		<measure number="9" width="184">
			<print new-system="no"></print>
			<attributes></attributes>
			<note>
				<pitch>
					<step>E</step>
					<octave>4</octave>
				</pitch>
				<duration>30</duration>
				<instrument id="P1-S0V0"/>
				<voice>1</voice>
				<type>quarter</type>
				<dot/>
				<stem>up</stem>
				<staff>1</staff>
			</note>
			<note>
				<pitch>
					<step>F</step>
					<octave>4</octave>
				</pitch>
				<duration>30</duration>
				<instrument id="P1-S0V0"/>
				<voice>1</voice>
				<type>quarter</type>
				<dot/>
				<stem>up</stem>
				<staff>1</staff>
			</note>
			<backup>
				<duration>60</duration>
			</backup>
			<note>
				<pitch>
					<step>A</step>
					<octave>3</octave>
				</pitch>
				<duration>60</duration>
				<instrument id="P1-S1V0"/>
				<voice>5</voice>
				<type>half</type>
				<dot/>
				<stem>down</stem>
				<staff>2</staff>
			</note>
			<forward>
				<duration>20</duration>
			</forward>
		</measure><!--
===========================================================
-->

		<measure number="10" width="227">
			<print new-system="no"></print>
			<attributes></attributes>
			<note>
				<pitch>
					<step>G</step>
					<octave>4</octave>
				</pitch>
				<duration>20</duration>
				<instrument id="P1-S0V0"/>
				<voice>1</voice>
				<type>quarter</type>
				<stem>up</stem>
				<staff>1</staff>
			</note>
			<note>
				<pitch>
					<step>A</step>
					<octave>4</octave>
				</pitch>
				<duration>10</duration>
				<instrument id="P1-S0V0"/>
				<voice>1</voice>
				<type>eighth</type>
				<stem>up</stem>
				<staff>1</staff>
			</note>
			<note>
				<pitch>
					<step>G</step>
					<octave>4</octave>
				</pitch>
				<duration>20</duration>
				<instrument id="P1-S0V0"/>
				<voice>1</voice>
				<type>quarter</type>
				<stem>up</stem>
				<staff>1</staff>
			</note>
			<note>
				<pitch>
					<step>F</step>
					<octave>4</octave>
				</pitch>
				<duration>10</duration>
				<instrument id="P1-S0V0"/>
				<voice>1</voice>
				<type>eighth</type>
				<stem>up</stem>
				<staff>1</staff>
			</note>
			<backup>
				<duration>60</duration>
			</backup>
			<note>
				<pitch>
					<step>G</step>
					<octave>3</octave>
				</pitch>
				<duration>60</duration>
				<instrument id="P1-S1V0"/>
				<voice>5</voice>
				<type>half</type>
				<dot/>
				<stem>down</stem>
				<staff>2</staff>
			</note>
			<forward>
				<duration>20</duration>
			</forward>
		</measure><!--
===========================================================
-->

		<measure number="11" width="184">
			<print new-system="no"></print>
			<attributes></attributes>
			<note>
				<pitch>
					<step>E</step>
					<octave>4</octave>
				</pitch>
				<duration>30</duration>
				<instrument id="P1-S0V0"/>
				<voice>1</voice>
				<type>quarter</type>
				<dot/>
				<stem>up</stem>
				<staff>1</staff>
			</note>
			<note>
				<pitch>
					<step>F</step>
					<octave>4</octave>
				</pitch>
				<duration>30</duration>
				<instrument id="P1-S0V0"/>
				<voice>1</voice>
				<type>quarter</type>
				<dot/>
				<stem>up</stem>
				<staff>1</staff>
			</note>
			<backup>
				<duration>60</duration>
			</backup>
			<note>
				<pitch>
					<step>A</step>
					<octave>3</octave>
				</pitch>
				<duration>60</duration>
				<instrument id="P1-S1V0"/>
				<voice>5</voice>
				<type>half</type>
				<dot/>
				<stem>down</stem>
				<staff>2</staff>
			</note>
			<forward>
				<duration>20</duration>
			</forward>
		</measure><!--
===========================================================
-->

		<measure number="12" width="243">
			<print new-system="no"></print>
			<attributes></attributes>
			<note>
				<pitch>
					<step>G</step>
					<octave>4</octave>
				</pitch>
				<duration>20</duration>
				<instrument id="P1-S0V0"/>
				<voice>1</voice>
				<type>quarter</type>
				<stem>up</stem>
				<staff>1</staff>
			</note>
			<note>
				<pitch>
					<step>D</step>
					<octave>4</octave>
				</pitch>
				<duration>10</duration>
				<instrument id="P1-S0V0"/>
				<voice>1</voice>
				<type>eighth</type>
				<stem>up</stem>
				<staff>1</staff>
			</note>
			<note>
				<pitch>
					<step>D</step>
					<octave>4</octave>
				</pitch>
				<duration>20</duration>
				<instrument id="P1-S0V0"/>
				<voice>1</voice>
				<type>quarter</type>
				<stem>up</stem>
				<staff>1</staff>
			</note>
			<note>
				<pitch>
					<step>E</step>
					<octave>4</octave>
				</pitch>
				<duration>10</duration>
				<instrument id="P1-S0V0"/>
				<voice>1</voice>
				<type>eighth</type>
				<stem>up</stem>
				<staff>1</staff>
			</note>
			<backup>
				<duration>60</duration>
			</backup>
			<note>
				<pitch>
					<step>G</step>
					<octave>3</octave>
				</pitch>
				<duration>60</duration>
				<instrument id="P1-S1V0"/>
				<voice>5</voice>
				<type>half</type>
				<dot/>
				<stem>down</stem>
				<staff>2</staff>
			</note>
			<forward>
				<duration>20</duration>
			</forward>
		</measure><!--
===========================================================
-->

		<measure number="13" width="205">
			<print new-system="yes">
				<system-layout>
					<system-margins>
						<left-margin>1</left-margin>
						<right-margin>0</right-margin>
					</system-margins>
					<system-distance>220</system-distance>
				</system-layout>
				<staff-layout number="2">
					<staff-distance>101</staff-distance>
				</staff-layout>
			</print>
			<attributes></attributes>
			<note>
				<pitch>
					<step>F</step>
					<octave>4</octave>
				</pitch>
				<duration>60</duration>
				<instrument id="P1-S0V0"/>
				<voice>1</voice>
				<type>half</type>
				<dot/>
				<stem>up</stem>
				<staff>1</staff>
			</note>
			<backup>
				<duration>60</duration>
			</backup>
			<note>
				<pitch>
					<step>F</step>
					<octave>3</octave>
				</pitch>
				<duration>60</duration>
				<instrument id="P1-S1V0"/>
				<voice>5</voice>
				<type>half</type>
				<dot/>
				<stem>down</stem>
				<staff>2</staff>
			</note>
			<forward>
				<duration>20</duration>
			</forward>
		</measure><!--
===========================================================
-->

		<measure number="14" width="239">
			<print new-system="no"></print>
			<attributes></attributes>
			<note>
				<pitch>
					<step>C</step>
					<octave>4</octave>
				</pitch>
				<duration>20</duration>
				<instrument id="P1-S0V0"/>
				<voice>1</voice>
				<type>quarter</type>
				<stem>up</stem>
				<staff>1</staff>
			</note>
			<note>
				<pitch>
					<step>F</step>
					<octave>4</octave>
				</pitch>
				<duration>10</duration>
				<instrument id="P1-S0V0"/>
				<voice>1</voice>
				<type>eighth</type>
				<stem>up</stem>
				<staff>1</staff>
			</note>
			<note>
				<pitch>
					<step>F</step>
					<octave>4</octave>
				</pitch>
				<duration>20</duration>
				<instrument id="P1-S0V0"/>
				<voice>1</voice>
				<type>quarter</type>
				<stem>up</stem>
				<staff>1</staff>
			</note>
			<note>
				<pitch>
					<step>E</step>
					<octave>4</octave>
				</pitch>
				<duration>10</duration>
				<instrument id="P1-S0V0"/>
				<voice>1</voice>
				<type>eighth</type>
				<stem>up</stem>
				<staff>1</staff>
			</note>
			<backup>
				<duration>60</duration>
			</backup>
			<note>
				<pitch>
					<step>F</step>
					<octave>3</octave>
				</pitch>
				<duration>60</duration>
				<instrument id="P1-S1V0"/>
				<voice>5</voice>
				<type>half</type>
				<dot/>
				<stem>down</stem>
				<staff>2</staff>
			</note>
			<forward>
				<duration>20</duration>
			</forward>
		</measure><!--
===========================================================
-->

		<measure number="15" width="240">
			<print new-system="no"></print>
			<attributes></attributes>
			<direction placement="above">
				<direction-type>
					<words relative-x="5.1424" default-y="29.9617" font-family="Times New Roman" font-style="normal" font-size="12" font-weight="normal" color="#000000">l 5</words>
				</direction-type>
				<staff>1</staff>
			</direction>
			<note>
				<pitch>
					<step>D</step>
					<octave>4</octave>
				</pitch>
				<duration>20</duration>
				<instrument id="P1-S0V0"/>
				<voice>1</voice>
				<type>quarter</type>
				<stem>up</stem>
				<staff>1</staff>
			</note>
			<note>
				<pitch>
					<step>G</step>
					<octave>4</octave>
				</pitch>
				<duration>10</duration>
				<instrument id="P1-S0V0"/>
				<voice>1</voice>
				<type>eighth</type>
				<stem>up</stem>
				<staff>1</staff>
			</note>
			<note>
				<pitch>
					<step>G</step>
					<octave>4</octave>
				</pitch>
				<duration>20</duration>
				<instrument id="P1-S0V0"/>
				<voice>1</voice>
				<type>quarter</type>
				<stem>up</stem>
				<staff>1</staff>
			</note>
			<note>
				<pitch>
					<step>F</step>
					<octave>4</octave>
				</pitch>
				<duration>10</duration>
				<instrument id="P1-S0V0"/>
				<voice>1</voice>
				<type>eighth</type>
				<stem>up</stem>
				<staff>1</staff>
			</note>
			<backup>
				<duration>60</duration>
			</backup>
			<note>
				<pitch>
					<step>G</step>
					<octave>3</octave>
				</pitch>
				<duration>60</duration>
				<instrument id="P1-S1V0"/>
				<voice>5</voice>
				<type>half</type>
				<dot/>
				<stem>down</stem>
				<staff>2</staff>
			</note>
			<forward>
				<duration>20</duration>
			</forward>
		</measure><!--
===========================================================
-->

		<measure number="16" width="240">
			<print new-system="no"></print>
			<attributes></attributes>
			<note>
				<pitch>
					<step>E</step>
					<octave>4</octave>
				</pitch>
				<duration>20</duration>
				<instrument id="P1-S0V0"/>
				<voice>1</voice>
				<type>quarter</type>
				<stem>up</stem>
				<staff>1</staff>
			</note>
			<note>
				<pitch>
					<step>D</step>
					<octave>4</octave>
				</pitch>
				<duration>10</duration>
				<instrument id="P1-S0V0"/>
				<voice>1</voice>
				<type>eighth</type>
				<stem>up</stem>
				<staff>1</staff>
			</note>
			<note>
				<pitch>
					<step>E</step>
					<octave>4</octave>
				</pitch>
				<duration>20</duration>
				<instrument id="P1-S0V0"/>
				<voice>1</voice>
				<type>quarter</type>
				<stem>up</stem>
				<staff>1</staff>
			</note>
			<note>
				<pitch>
					<step>D</step>
					<octave>4</octave>
				</pitch>
				<duration>10</duration>
				<instrument id="P1-S0V0"/>
				<voice>1</voice>
				<type>eighth</type>
				<stem>up</stem>
				<staff>1</staff>
			</note>
			<backup>
				<duration>60</duration>
			</backup>
			<note>
				<pitch>
					<step>A</step>
					<octave>3</octave>
				</pitch>
				<duration>60</duration>
				<instrument id="P1-S1V0"/>
				<voice>5</voice>
				<type>half</type>
				<dot/>
				<stem>down</stem>
				<staff>2</staff>
			</note>
			<forward>
				<duration>20</duration>
			</forward>
		</measure><!--
===========================================================
-->

		<measure number="17" width="240">
			<print new-system="no"></print>
			<attributes></attributes>
			<note>
				<pitch>
					<step>C</step>
					<octave>4</octave>
				</pitch>
				<duration>20</duration>
				<instrument id="P1-S0V0"/>
				<voice>1</voice>
				<type>quarter</type>
				<stem>up</stem>
				<staff>1</staff>
			</note>
			<note>
				<pitch>
					<step>D</step>
					<octave>4</octave>
				</pitch>
				<duration>10</duration>
				<instrument id="P1-S0V0"/>
				<voice>1</voice>
				<type>eighth</type>
				<stem>up</stem>
				<staff>1</staff>
			</note>
			<note>
				<pitch>
					<step>E</step>
					<octave>4</octave>
				</pitch>
				<duration>20</duration>
				<instrument id="P1-S0V0"/>
				<voice>1</voice>
				<type>quarter</type>
				<stem>up</stem>
				<staff>1</staff>
			</note>
			<direction placement="above">
				<direction-type>
					<words relative-x="17.0314" default-y="198.5549" font-family="Times New Roman" font-style="normal" font-size="12" font-weight="normal" color="#000000">l i</words>
				</direction-type>
				<staff>1</staff>
			</direction>
			<note>
				<pitch>
					<step>D</step>
					<octave>4</octave>
				</pitch>
				<duration>10</duration>
				<instrument id="P1-S0V0"/>
				<voice>1</voice>
				<type>eighth</type>
				<stem>up</stem>
				<staff>1</staff>
			</note>
			<backup>
				<duration>60</duration>
			</backup>
			<note>
				<pitch>
					<step>A</step>
					<octave>3</octave>
				</pitch>
				<duration>60</duration>
				<instrument id="P1-S1V0"/>
				<voice>5</voice>
				<type>half</type>
				<dot/>
				<stem>down</stem>
				<staff>2</staff>
			</note>
			<forward>
				<duration>20</duration>
			</forward>
		</measure><!--
===========================================================
-->

		<measure number="18" width="163">
			<print new-system="no"></print>
			<attributes></attributes>
			<note>
				<pitch>
					<step>F</step>
					<octave>4</octave>
				</pitch>
				<duration>60</duration>
				<instrument id="P1-S0V0"/>
				<voice>1</voice>
				<type>half</type>
				<dot/>
				<stem>up</stem>
				<staff>1</staff>
			</note>
			<backup>
				<duration>60</duration>
			</backup>
			<note>
				<pitch>
					<step>F</step>
					<octave>3</octave>
				</pitch>
				<duration>60</duration>
				<instrument id="P1-S1V0"/>
				<voice>5</voice>
				<type>half</type>
				<dot/>
				<stem>down</stem>
				<staff>2</staff>
			</note>
			<forward>
				<duration>20</duration>
			</forward>
		</measure><!--
===========================================================
-->

		<measure number="19" width="245">
			<print new-system="yes">
				<system-layout>
					<system-margins>
						<left-margin>3</left-margin>
						<right-margin>0</right-margin>
					</system-margins>
					<system-distance>220</system-distance>
				</system-layout>
				<staff-layout number="2">
					<staff-distance>101</staff-distance>
				</staff-layout>
			</print>
			<attributes></attributes>
			<note>
				<pitch>
					<step>E</step>
					<octave>4</octave>
				</pitch>
				<duration>30</duration>
				<instrument id="P1-S0V0"/>
				<voice>1</voice>
				<type>quarter</type>
				<dot/>
				<stem>up</stem>
				<staff>1</staff>
			</note>
			<note>
				<pitch>
					<step>C</step>
					<octave>4</octave>
				</pitch>
				<duration>30</duration>
				<instrument id="P1-S0V0"/>
				<voice>1</voice>
				<type>quarter</type>
				<dot/>
				<stem>up</stem>
				<staff>1</staff>
			</note>
			<direction placement="above">
				<direction-type>
					<words relative-x="19.0846" default-y="195.1878" font-family="Times New Roman" font-style="normal" font-size="13" font-weight="normal" color="#000000">nam -</words>
				</direction-type>
				<staff>1</staff>
			</direction>
			<backup>
				<duration>60</duration>
			</backup>
			<note>
				<pitch>
					<step>A</step>
					<octave>3</octave>
				</pitch>
				<duration>60</duration>
				<instrument id="P1-S1V0"/>
				<voice>5</voice>
				<type>half</type>
				<dot/>
				<stem>down</stem>
				<staff>2</staff>
			</note>
			<forward>
				<duration>20</duration>
			</forward>
		</measure><!--
===========================================================
-->

		<measure number="20" width="220">
			<print new-system="no"></print>
			<attributes></attributes>
			<note>
				<pitch>
					<step>B</step>
					<octave>3</octave>
				</pitch>
				<duration>30</duration>
				<tie type="start"/>
				<instrument id="P1-S0V0"/>
				<voice>1</voice>
				<type>quarter</type>
				<dot/>
				<stem>up</stem>
				<staff>1</staff>
				<notations>
					<tied type="start" number="1" orientation="under"/>
				</notations>
			</note>
			<note>
				<pitch>
					<step>B</step>
					<octave>3</octave>
				</pitch>
				<duration>20</duration>
				<tie type="stop"/>
				<instrument id="P1-S0V0"/>
				<voice>1</voice>
				<type>quarter</type>
				<stem>up</stem>
				<staff>1</staff>
				<notations>
					<tied type="stop" number="1" orientation="under"/>
				</notations>
			</note>
			<note>
				<pitch>
					<step>C</step>
					<octave>4</octave>
				</pitch>
				<duration>10</duration>
				<instrument id="P1-S0V0"/>
				<voice>1</voice>
				<type>eighth</type>
				<stem>up</stem>
				<staff>1</staff>
			</note>
			<direction placement="above">
				<direction-type>
					<words relative-x="38.4968" default-y="195.7490" font-family="Times New Roman" font-style="normal" font-size="13" font-weight="normal" color="#000000">que</words>
				</direction-type>
				<staff>1</staff>
			</direction>
			<backup>
				<duration>60</duration>
			</backup>
			<note>
				<pitch>
					<step>B</step>
					<alter>-1</alter>
					<octave>3</octave>
				</pitch>
				<duration>60</duration>
				<instrument id="P1-S1V0"/>
				<voice>5</voice>
				<type>half</type>
				<dot/>
				<accidental parentheses="no">flat</accidental>
				<stem>down</stem>
				<staff>2</staff>
			</note>
			<forward>
				<duration>20</duration>
			</forward>
		</measure><!--
===========================================================
-->

		<measure number="21" width="189">
			<print new-system="no"></print>
			<attributes></attributes>
			<note>
				<pitch>
					<step>D</step>
					<octave>4</octave>
				</pitch>
				<duration>30</duration>
				<instrument id="P1-S0V0"/>
				<voice>1</voice>
				<type>quarter</type>
				<dot/>
				<stem>up</stem>
				<staff>1</staff>
			</note>
			<note>
				<pitch>
					<step>E</step>
					<octave>4</octave>
				</pitch>
				<duration>30</duration>
				<instrument id="P1-S0V0"/>
				<voice>1</voice>
				<type>quarter</type>
				<dot/>
				<stem>up</stem>
				<staff>1</staff>
			</note>
			<backup>
				<duration>60</duration>
			</backup>
			<note>
				<pitch>
					<step>G</step>
					<octave>3</octave>
				</pitch>
				<duration>60</duration>
				<instrument id="P1-S1V0"/>
				<voice>5</voice>
				<type>half</type>
				<dot/>
				<stem>down</stem>
				<staff>2</staff>
			</note>
			<direction placement="below">
				<direction-type>
					<words relative-x="14.2631" default-y="-149.9334" font-family="Times New Roman" font-style="normal" font-size="12" font-weight="normal" color="#000000">o.1..242</words>
				</direction-type>
				<staff>2</staff>
			</direction>
			<forward>
				<duration>20</duration>
			</forward>
		</measure><!--
===========================================================
-->

		<measure number="22" width="234">
			<print new-system="no"></print>
			<attributes></attributes>
			<note>
				<pitch>
					<step>F</step>
					<octave>4</octave>
				</pitch>
				<duration>20</duration>
				<instrument id="P1-S0V0"/>
				<voice>1</voice>
				<type>quarter</type>
				<stem>up</stem>
				<staff>1</staff>
			</note>
			<note>
				<pitch>
					<step>E</step>
					<octave>4</octave>
				</pitch>
				<duration>10</duration>
				<instrument id="P1-S0V0"/>
				<voice>1</voice>
				<type>eighth</type>
				<stem>up</stem>
				<staff>1</staff>
			</note>
			<note>
				<pitch>
					<step>D</step>
					<octave>4</octave>
				</pitch>
				<duration>20</duration>
				<instrument id="P1-S0V0"/>
				<voice>1</voice>
				<type>quarter</type>
				<stem>up</stem>
				<staff>1</staff>
			</note>
			<note>
				<pitch>
					<step>E</step>
					<octave>4</octave>
				</pitch>
				<duration>10</duration>
				<instrument id="P1-S0V0"/>
				<voice>1</voice>
				<type>eighth</type>
				<stem>up</stem>
				<staff>1</staff>
			</note>
			<backup>
				<duration>60</duration>
			</backup>
			<note>
				<pitch>
					<step>F</step>
					<octave>3</octave>
				</pitch>
				<duration>60</duration>
				<instrument id="P1-S1V0"/>
				<voice>5</voice>
				<type>half</type>
				<dot/>
				<stem>down</stem>
				<staff>2</staff>
			</note>
			<forward>
				<duration>20</duration>
			</forward>
		</measure><!--
===========================================================
-->

		<measure number="23" width="188">
			<print new-system="no"></print>
			<attributes></attributes>
			<note>
				<pitch>
					<step>C</step>
					<octave>4</octave>
				</pitch>
				<duration>30</duration>
				<instrument id="P1-S0V0"/>
				<voice>1</voice>
				<type>quarter</type>
				<dot/>
				<stem>up</stem>
				<staff>1</staff>
				<notations>
					<slur type="start" number="1"></slur>
				</notations>
			</note>
			<note>
				<pitch>
					<step>D</step>
					<octave>4</octave>
				</pitch>
				<duration>30</duration>
				<instrument id="P1-S0V0"/>
				<voice>1</voice>
				<type>quarter</type>
				<dot/>
				<stem>up</stem>
				<staff>1</staff>
				<notations>
					<slur type="stop" number="1"></slur>
				</notations>
			</note>
			<backup>
				<duration>60</duration>
			</backup>
			<note>
				<pitch>
					<step>F</step>
					<octave>3</octave>
				</pitch>
				<duration>60</duration>
				<instrument id="P1-S1V0"/>
				<voice>5</voice>
				<type>half</type>
				<dot/>
				<stem>down</stem>
				<staff>2</staff>
			</note>
			<forward>
				<duration>20</duration>
			</forward>
		</measure><!--
===========================================================
-->

		<measure number="24" width="249">
			<print new-system="no"></print>
			<attributes></attributes>
			<note>
				<pitch>
					<step>E</step>
					<octave>4</octave>
				</pitch>
				<duration>20</duration>
				<instrument id="P1-S0V0"/>
				<voice>1</voice>
				<type>quarter</type>
				<stem>up</stem>
				<staff>1</staff>
			</note>
			<note>
				<pitch>
					<step>B</step>
					<octave>3</octave>
				</pitch>
				<duration>10</duration>
				<instrument id="P1-S0V0"/>
				<voice>1</voice>
				<type>eighth</type>
				<stem>up</stem>
				<staff>1</staff>
			</note>
			<note>
				<pitch>
					<step>B</step>
					<octave>3</octave>
				</pitch>
				<duration>20</duration>
				<instrument id="P1-S0V0"/>
				<voice>1</voice>
				<type>quarter</type>
				<stem>up</stem>
				<staff>1</staff>
			</note>
			<note>
				<pitch>
					<step>C</step>
					<octave>4</octave>
				</pitch>
				<duration>10</duration>
				<instrument id="P1-S0V0"/>
				<voice>1</voice>
				<type>eighth</type>
				<stem>up</stem>
				<staff>1</staff>
			</note>
			<backup>
				<duration>60</duration>
			</backup>
			<note>
				<pitch>
					<step>E</step>
					<octave>3</octave>
				</pitch>
				<duration>60</duration>
				<instrument id="P1-S1V0"/>
				<voice>5</voice>
				<type>half</type>
				<dot/>
				<stem>down</stem>
				<staff>2</staff>
			</note>
			<forward>
				<duration>20</duration>
			</forward>
		</measure><!--
===========================================================
-->

		<measure number="25" width="192">
			<print new-system="yes" new-page="yes">
				<page-layout>
					<page-height>2104.96</page-height>
					<page-width>1727.54</page-width>
					<page-margins>
						<left-margin>281.07</left-margin>
						<right-margin>111.17</right-margin>
						<top-margin>127.00</top-margin>
						<bottom-margin>63.50</bottom-margin>
					</page-margins>
				</page-layout>
				<system-layout>
					<system-margins>
						<left-margin>0</left-margin>
						<right-margin>4</right-margin>
					</system-margins>
					<top-system-distance>85</top-system-distance>
				</system-layout>
				<staff-layout number="2">
					<staff-distance>104</staff-distance>
				</staff-layout>
			</print>
			<attributes></attributes>
			<direction placement="above">
				<direction-type>
					<words relative-x="23.1660" default-y="26.2204" font-family="Times New Roman" font-style="normal" font-size="11" font-weight="normal" color="#000000">2</words>
				</direction-type>
				<staff>1</staff>
			</direction>
			<direction placement="above">
				<direction-type>
					<words relative-x="38.1468" default-y="25.6436" font-family="Times New Roman" font-style="normal" font-size="11" font-weight="normal" color="#000000">5</words>
				</direction-type>
				<staff>1</staff>
			</direction>
			<note>
				<pitch>
					<step>D</step>
					<octave>4</octave>
				</pitch>
				<duration>60</duration>
				<instrument id="P1-S0V0"/>
				<voice>1</voice>
				<type>half</type>
				<dot/>
				<stem>up</stem>
				<staff>1</staff>
			</note>
			<backup>
				<duration>60</duration>
			</backup>
			<note>
				<pitch>
					<step>D</step>
					<octave>3</octave>
				</pitch>
				<duration>60</duration>
				<instrument id="P1-S1V0"/>
				<voice>5</voice>
				<type>half</type>
				<dot/>
				<stem>down</stem>
				<staff>2</staff>
				<notations></notations>
			</note>
			<forward>
				<duration>20</duration>
			</forward>
		</measure><!--
===========================================================
-->

		<measure number="26" width="173">
			<print new-system="no"></print>
			<attributes></attributes>
			<note>
				<pitch>
					<step>B</step>
					<octave>3</octave>
				</pitch>
				<duration>30</duration>
				<instrument id="P1-S0V0"/>
				<voice>1</voice>
				<type>quarter</type>
				<dot/>
				<stem>up</stem>
				<staff>1</staff>
			</note>
			<note>
				<pitch>
					<step>C</step>
					<octave>4</octave>
				</pitch>
				<duration>30</duration>
				<instrument id="P1-S0V0"/>
				<voice>1</voice>
				<type>quarter</type>
				<dot/>
				<stem>up</stem>
				<staff>1</staff>
			</note>
			<backup>
				<duration>60</duration>
			</backup>
			<note>
				<pitch>
					<step>E</step>
					<octave>3</octave>
				</pitch>
				<duration>60</duration>
				<instrument id="P1-S1V0"/>
				<voice>5</voice>
				<type>half</type>
				<dot/>
				<stem>down</stem>
				<staff>2</staff>
			</note>
			<forward>
				<duration>20</duration>
			</forward>
		</measure><!--
===========================================================
-->

		<measure number="27" width="132">
			<print new-system="no"></print>
			<attributes></attributes>
			<note>
				<pitch>
					<step>D</step>
					<octave>4</octave>
				</pitch>
				<duration>60</duration>
				<instrument id="P1-S0V0"/>
				<voice>1</voice>
				<type>half</type>
				<dot/>
				<stem>up</stem>
				<staff>1</staff>
				<notations>
					<articulations>
						<tenuto placement="below"/>
					</articulations>
				</notations>
			</note>
			<backup>
				<duration>60</duration>
			</backup>
			<note>
				<pitch>
					<step>D</step>
					<octave>3</octave>
				</pitch>
				<duration>60</duration>
				<instrument id="P1-S1V0"/>
				<voice>5</voice>
				<type>half</type>
				<dot/>
				<stem>down</stem>
				<staff>2</staff>
			</note>
			<forward>
				<duration>20</duration>
			</forward>
		</measure><!--
===========================================================
-->

		<measure number="28" width="214">
			<print new-system="no"></print>
			<attributes></attributes>
			<note>
				<pitch>
					<step>A</step>
					<octave>3</octave>
				</pitch>
				<duration>20</duration>
				<instrument id="P1-S0V0"/>
				<voice>1</voice>
				<type>quarter</type>
				<stem>up</stem>
				<staff>1</staff>
			</note>
			<note>
				<pitch>
					<step>B</step>
					<octave>3</octave>
				</pitch>
				<duration>10</duration>
				<instrument id="P1-S0V0"/>
				<voice>1</voice>
				<type>eighth</type>
				<stem>up</stem>
				<staff>1</staff>
			</note>
			<note>
				<pitch>
					<step>C</step>
					<octave>4</octave>
				</pitch>
				<duration>20</duration>
				<instrument id="P1-S0V0"/>
				<voice>1</voice>
				<type>quarter</type>
				<stem>up</stem>
				<staff>1</staff>
			</note>
			<note>
				<pitch>
					<step>B</step>
					<octave>3</octave>
				</pitch>
				<duration>10</duration>
				<instrument id="P1-S0V0"/>
				<voice>1</voice>
				<type>eighth</type>
				<stem>up</stem>
				<staff>1</staff>
			</note>
			<backup>
				<duration>60</duration>
			</backup>
			<note>
				<pitch>
					<step>D</step>
					<octave>3</octave>
				</pitch>
				<duration>60</duration>
				<instrument id="P1-S1V0"/>
				<voice>5</voice>
				<type>half</type>
				<dot/>
				<stem>down</stem>
				<staff>2</staff>
			</note>
			<forward>
				<duration>20</duration>
			</forward>
		</measure><!--
===========================================================
-->

		<measure number="29" width="214">
			<print new-system="no"></print>
			<attributes></attributes>
			<note>
				<pitch>
					<step>D</step>
					<octave>4</octave>
				</pitch>
				<duration>20</duration>
				<instrument id="P1-S0V0"/>
				<voice>1</voice>
				<type>quarter</type>
				<stem>up</stem>
				<staff>1</staff>
			</note>
			<note>
				<pitch>
					<step>C</step>
					<octave>4</octave>
				</pitch>
				<duration>10</duration>
				<instrument id="P1-S0V0"/>
				<voice>1</voice>
				<type>eighth</type>
				<stem>up</stem>
				<staff>1</staff>
			</note>
			<note>
				<pitch>
					<step>B</step>
					<octave>3</octave>
				</pitch>
				<duration>20</duration>
				<instrument id="P1-S0V0"/>
				<voice>1</voice>
				<type>quarter</type>
				<stem>up</stem>
				<staff>1</staff>
			</note>
			<note>
				<pitch>
					<step>C</step>
					<octave>4</octave>
				</pitch>
				<duration>10</duration>
				<instrument id="P1-S0V0"/>
				<voice>1</voice>
				<type>eighth</type>
				<stem>up</stem>
				<staff>1</staff>
			</note>
			<backup>
				<duration>60</duration>
			</backup>
			<note>
				<pitch>
					<step>D</step>
					<octave>3</octave>
				</pitch>
				<duration>60</duration>
				<instrument id="P1-S1V0"/>
				<voice>5</voice>
				<type>half</type>
				<dot/>
				<stem>down</stem>
				<staff>2</staff>
			</note>
			<forward>
				<duration>20</duration>
			</forward>
		</measure><!--
===========================================================
-->

		<measure number="30" width="214">
			<print new-system="no"></print>
			<attributes></attributes>
			<note>
				<pitch>
					<step>A</step>
					<octave>3</octave>
				</pitch>
				<duration>20</duration>
				<instrument id="P1-S0V0"/>
				<voice>1</voice>
				<type>quarter</type>
				<stem>up</stem>
				<staff>1</staff>
			</note>
			<note>
				<pitch>
					<step>B</step>
					<octave>3</octave>
				</pitch>
				<duration>10</duration>
				<instrument id="P1-S0V0"/>
				<voice>1</voice>
				<type>eighth</type>
				<stem>up</stem>
				<staff>1</staff>
			</note>
			<note>
				<pitch>
					<step>B</step>
					<octave>3</octave>
				</pitch>
				<duration>20</duration>
				<instrument id="P1-S0V0"/>
				<voice>1</voice>
				<type>quarter</type>
				<stem>up</stem>
				<staff>1</staff>
			</note>
			<note>
				<pitch>
					<step>A</step>
					<octave>3</octave>
				</pitch>
				<duration>10</duration>
				<instrument id="P1-S0V0"/>
				<voice>1</voice>
				<type>eighth</type>
				<stem>up</stem>
				<staff>1</staff>
			</note>
			<backup>
				<duration>60</duration>
			</backup>
			<note>
				<pitch>
					<step>D</step>
					<octave>3</octave>
				</pitch>
				<duration>60</duration>
				<instrument id="P1-S1V0"/>
				<voice>5</voice>
				<type>half</type>
				<dot/>
				<stem>down</stem>
				<staff>2</staff>
			</note>
			<forward>
				<duration>20</duration>
			</forward>
		</measure><!--
===========================================================
-->

		<measure number="31" width="189">
			<print new-system="no"></print>
			<attributes></attributes>
			<note>
				<pitch>
					<step>G</step>
					<octave>3</octave>
				</pitch>
				<duration>30</duration>
				<instrument id="P1-S0V0"/>
				<voice>1</voice>
				<type>quarter</type>
				<dot/>
				<stem>up</stem>
				<staff>1</staff>
			</note>
			<note>
				<pitch>
					<step>A</step>
					<octave>3</octave>
				</pitch>
				<duration>30</duration>
				<instrument id="P1-S0V0"/>
				<voice>1</voice>
				<type>quarter</type>
				<dot/>
				<stem>up</stem>
				<staff>1</staff>
			</note>
			<direction placement="above">
				<direction-type>
					<words relative-x="14.2617" default-y="102.0445" font-family="Times New Roman" font-style="normal" font-size="11" font-weight="normal" color="#000000">1</words>
				</direction-type>
				<staff>1</staff>
			</direction>
			<direction placement="above">
				<direction-type>
					<words relative-x="26.2244" default-y="102.6057" font-family="Times New Roman" font-style="normal" font-size="11" font-weight="normal" color="#000000">5</words>
				</direction-type>
				<staff>1</staff>
			</direction>
			<backup>
				<duration>60</duration>
			</backup>
			<note>
				<pitch>
					<step>G</step>
					<octave>3</octave>
				</pitch>
				<duration>60</duration>
				<instrument id="P1-S1V0"/>
				<voice>5</voice>
				<type>half</type>
				<dot/>
				<stem>down</stem>
				<staff>2</staff>
			</note>
			<forward>
				<duration>20</duration>
			</forward>
		</measure><!--
===========================================================
-->

		<measure number="32" width="271">
			<print new-system="yes">
				<system-layout>
					<system-margins>
						<left-margin>0</left-margin>
						<right-margin>3</right-margin>
					</system-margins>
					<system-distance>202</system-distance>
				</system-layout>
				<staff-layout number="2">
					<staff-distance>95</staff-distance>
				</staff-layout>
			</print>
			<attributes></attributes>
			<note>
				<pitch>
					<step>C</step>
					<octave>4</octave>
				</pitch>
				<duration>30</duration>
				<instrument id="P1-S0V0"/>
				<voice>1</voice>
				<type>quarter</type>
				<dot/>
				<stem>up</stem>
				<staff>1</staff>
			</note>
			<note>
				<pitch>
					<step>F</step>
					<octave>4</octave>
				</pitch>
				<duration>20</duration>
				<instrument id="P1-S0V0"/>
				<voice>1</voice>
				<type>quarter</type>
				<stem>up</stem>
				<staff>1</staff>
			</note>
			<note>
				<pitch>
					<step>E</step>
					<octave>4</octave>
				</pitch>
				<duration>10</duration>
				<instrument id="P1-S0V0"/>
				<voice>1</voice>
				<type>eighth</type>
				<stem>up</stem>
				<staff>1</staff>
			</note>
			<backup>
				<duration>60</duration>
			</backup>
			<note>
				<pitch>
					<step>F</step>
					<octave>3</octave>
				</pitch>
				<duration>60</duration>
				<instrument id="P1-S1V0"/>
				<voice>5</voice>
				<type>half</type>
				<dot/>
				<stem>down</stem>
				<staff>2</staff>
			</note>
			<forward>
				<duration>20</duration>
			</forward>
		</measure><!--
===========================================================
-->

		<measure number="33" width="191">
			<print new-system="no"></print>
			<attributes></attributes>
			<note>
				<pitch>
					<step>D</step>
					<octave>4</octave>
				</pitch>
				<duration>30</duration>
				<instrument id="P1-S0V0"/>
				<voice>1</voice>
				<type>quarter</type>
				<dot/>
				<stem>up</stem>
				<staff>1</staff>
			</note>
			<note>
				<pitch>
					<step>E</step>
					<octave>4</octave>
				</pitch>
				<duration>30</duration>
				<instrument id="P1-S0V0"/>
				<voice>1</voice>
				<type>quarter</type>
				<dot/>
				<stem>up</stem>
				<staff>1</staff>
			</note>
			<backup>
				<duration>60</duration>
			</backup>
			<note>
				<pitch>
					<step>G</step>
					<octave>3</octave>
				</pitch>
				<duration>60</duration>
				<instrument id="P1-S1V0"/>
				<voice>5</voice>
				<type>half</type>
				<dot/>
				<stem>down</stem>
				<staff>2</staff>
			</note>
			<forward>
				<duration>20</duration>
			</forward>
		</measure><!--
===========================================================
-->

		<measure number="34" width="213">
			<print new-system="no"></print>
			<attributes></attributes>
			<note>
				<pitch>
					<step>F</step>
					<octave>4</octave>
				</pitch>
				<duration>30</duration>
				<tie type="start"/>
				<instrument id="P1-S0V0"/>
				<voice>1</voice>
				<type>quarter</type>
				<dot/>
				<stem>up</stem>
				<staff>1</staff>
				<notations>
					<tied type="start" number="1" orientation="under"/>
				</notations>
			</note>
			<direction placement="above">
				<direction-type>
					<words relative-x="-39.1311" default-y="175.0314" font-family="Times New Roman" font-style="normal" font-size="8" font-weight="normal" color="#000000">es</words>
				</direction-type>
				<staff>1</staff>
			</direction>
			<note>
				<pitch>
					<step>F</step>
					<octave>4</octave>
				</pitch>
				<duration>20</duration>
				<tie type="stop"/>
				<instrument id="P1-S0V0"/>
				<voice>1</voice>
				<type>quarter</type>
				<stem>up</stem>
				<staff>1</staff>
				<notations>
					<tied type="stop" number="1" orientation="under"/>
				</notations>
			</note>
			<note>
				<pitch>
					<step>E</step>
					<octave>4</octave>
				</pitch>
				<duration>10</duration>
				<instrument id="P1-S0V0"/>
				<voice>1</voice>
				<type>eighth</type>
				<stem>up</stem>
				<staff>1</staff>
			</note>
			<backup>
				<duration>60</duration>
			</backup>
			<note>
				<pitch>
					<step>D</step>
					<octave>3</octave>
				</pitch>
				<duration>60</duration>
				<instrument id="P1-S1V0"/>
				<voice>5</voice>
				<type>half</type>
				<dot/>
				<stem>down</stem>
				<staff>2</staff>
			</note>
			<forward>
				<duration>20</duration>
			</forward>
		</measure><!--
===========================================================
-->

		<measure number="35" width="189">
			<print new-system="no"></print>
			<attributes></attributes>
			<note>
				<pitch>
					<step>D</step>
					<octave>4</octave>
				</pitch>
				<duration>30</duration>
				<instrument id="P1-S0V0"/>
				<voice>1</voice>
				<type>quarter</type>
				<dot/>
				<stem>up</stem>
				<staff>1</staff>
			</note>
			<direction placement="above">
				<direction-type>
					<words relative-x="-55.5911" default-y="41.1545" font-family="Times New Roman" font-style="normal" font-size="11" font-weight="normal" color="#000000">5</words>
				</direction-type>
				<staff>1</staff>
			</direction>
			<direction placement="above">
				<direction-type>
					<words relative-x="-29.3725" default-y="175.0314" font-family="Times New Roman" font-style="normal" font-size="8" font-weight="normal" color="#000000">sa -</words>
				</direction-type>
				<staff>1</staff>
			</direction>
			<note>
				<pitch>
					<step>E</step>
					<octave>4</octave>
				</pitch>
				<duration>30</duration>
				<instrument id="P1-S0V0"/>
				<voice>1</voice>
				<type>quarter</type>
				<dot/>
				<stem>up</stem>
				<staff>1</staff>
			</note>
			<backup>
				<duration>60</duration>
			</backup>
			<note>
				<pitch>
					<step>G</step>
					<octave>3</octave>
				</pitch>
				<duration>60</duration>
				<instrument id="P1-S1V0"/>
				<voice>5</voice>
				<type>half</type>
				<dot/>
				<stem>down</stem>
				<staff>2</staff>
			</note>
			<forward>
				<duration>20</duration>
			</forward>
		</measure><!--
===========================================================
-->

		<measure number="36" width="235">
			<print new-system="no"></print>
			<attributes></attributes>
			<note>
				<pitch>
					<step>F</step>
					<octave>4</octave>
				</pitch>
				<duration>20</duration>
				<instrument id="P1-S0V0"/>
				<voice>1</voice>
				<type>quarter</type>
				<stem>up</stem>
				<staff>1</staff>
			</note>
			<direction placement="above">
				<direction-type>
					<words relative-x="5.5546" default-y="175.0314" font-family="Times New Roman" font-style="normal" font-size="8" font-weight="normal" color="#000000">cra</words>
				</direction-type>
				<staff>1</staff>
			</direction>
			<note>
				<pitch>
					<step>C</step>
					<octave>4</octave>
				</pitch>
				<duration>10</duration>
				<instrument id="P1-S0V0"/>
				<voice>1</voice>
				<type>eighth</type>
				<stem>up</stem>
				<staff>1</staff>
			</note>
			<note>
				<pitch>
					<step>C</step>
					<octave>4</octave>
				</pitch>
				<duration>20</duration>
				<instrument id="P1-S0V0"/>
				<voice>1</voice>
				<type>quarter</type>
				<stem>up</stem>
				<staff>1</staff>
			</note>
			<note>
				<pitch>
					<step>D</step>
					<octave>4</octave>
				</pitch>
				<duration>10</duration>
				<instrument id="P1-S0V0"/>
				<voice>1</voice>
				<type>eighth</type>
				<stem>up</stem>
				<staff>1</staff>
			</note>
			<backup>
				<duration>60</duration>
			</backup>
			<note>
				<pitch>
					<step>F</step>
					<octave>3</octave>
				</pitch>
				<duration>60</duration>
				<instrument id="P1-S1V0"/>
				<voice>5</voice>
				<type>half</type>
				<dot/>
				<stem>down</stem>
				<staff>2</staff>
			</note>
			<forward>
				<duration>20</duration>
			</forward>
		</measure><!--
===========================================================
-->

		<measure number="37" width="229">
			<print new-system="no"></print>
			<attributes></attributes>
			<note>
				<pitch>
					<step>E</step>
					<octave>4</octave>
				</pitch>
				<duration>30</duration>
				<tie type="start"/>
				<instrument id="P1-S0V0"/>
				<voice>1</voice>
				<type>quarter</type>
				<dot/>
				<stem>up</stem>
				<staff>1</staff>
				<notations>
					<tied type="start" number="1" orientation="under"/>
				</notations>
			</note>
			<note>
				<pitch>
					<step>E</step>
					<octave>4</octave>
				</pitch>
				<duration>20</duration>
				<tie type="stop"/>
				<instrument id="P1-S0V0"/>
				<voice>1</voice>
				<type>quarter</type>
				<stem>up</stem>
				<staff>1</staff>
				<notations>
					<tied type="stop" number="1" orientation="under"/>
				</notations>
			</note>
			<note>
				<pitch>
					<step>D</step>
					<octave>4</octave>
				</pitch>
				<duration>10</duration>
				<instrument id="P1-S0V0"/>
				<voice>1</voice>
				<type>eighth</type>
				<stem>up</stem>
				<staff>1</staff>
			</note>
			<backup>
				<duration>60</duration>
			</backup>
			<note>
				<pitch>
					<step>E</step>
					<octave>3</octave>
				</pitch>
				<duration>60</duration>
				<instrument id="P1-S1V0"/>
				<voice>5</voice>
				<type>half</type>
				<dot/>
				<stem>down</stem>
				<staff>2</staff>
			</note>
			<forward>
				<duration>20</duration>
			</forward>
		</measure><!--
===========================================================
-->

		<measure number="38" width="200">
			<print new-system="yes">
				<system-layout>
					<system-margins>
						<left-margin>0</left-margin>
						<right-margin>3</right-margin>
					</system-margins>
					<system-distance>201</system-distance>
				</system-layout>
				<staff-layout number="2">
					<staff-distance>105</staff-distance>
				</staff-layout>
			</print>
			<attributes></attributes>
			<note>
				<pitch>
					<step>C</step>
					<octave>4</octave>
				</pitch>
				<duration>60</duration>
				<instrument id="P1-S0V0"/>
				<voice>1</voice>
				<type>half</type>
				<dot/>
				<stem>up</stem>
				<staff>1</staff>
			</note>
			<backup>
				<duration>60</duration>
			</backup>
			<note>
				<pitch>
					<step>F</step>
					<octave>3</octave>
				</pitch>
				<duration>60</duration>
				<instrument id="P1-S1V0"/>
				<voice>5</voice>
				<type>half</type>
				<dot/>
				<stem>down</stem>
				<staff>2</staff>
			</note>
			<forward>
				<duration>20</duration>
			</forward>
		</measure><!--
===========================================================
-->

		<measure number="39" width="230">
			<print new-system="no"></print>
			<attributes></attributes>
			<note>
				<pitch>
					<step>D</step>
					<octave>4</octave>
				</pitch>
				<duration>20</duration>
				<instrument id="P1-S0V0"/>
				<voice>1</voice>
				<type>quarter</type>
				<stem>up</stem>
				<staff>1</staff>
			</note>
			<note>
				<pitch>
					<step>E</step>
					<octave>4</octave>
				</pitch>
				<duration>10</duration>
				<instrument id="P1-S0V0"/>
				<voice>1</voice>
				<type>eighth</type>
				<stem>up</stem>
				<staff>1</staff>
			</note>
			<note>
				<pitch>
					<step>D</step>
					<octave>4</octave>
				</pitch>
				<duration>20</duration>
				<instrument id="P1-S0V0"/>
				<voice>1</voice>
				<type>quarter</type>
				<stem>up</stem>
				<staff>1</staff>
			</note>
			<note>
				<pitch>
					<step>C</step>
					<octave>4</octave>
				</pitch>
				<duration>10</duration>
				<instrument id="P1-S0V0"/>
				<voice>1</voice>
				<type>eighth</type>
				<stem>up</stem>
				<staff>1</staff>
			</note>
			<backup>
				<duration>60</duration>
			</backup>
			<note>
				<pitch>
					<step>D</step>
					<octave>3</octave>
				</pitch>
				<duration>60</duration>
				<instrument id="P1-S1V0"/>
				<voice>5</voice>
				<type>half</type>
				<dot/>
				<stem>down</stem>
				<staff>2</staff>
			</note>
			<forward>
				<duration>20</duration>
			</forward>
		</measure><!--
===========================================================
-->

		<measure number="40" width="186">
			<print new-system="no"></print>
			<attributes></attributes>
			<direction placement="above">
				<direction-type>
					<words relative-x="2.2759" default-y="36.6805" font-family="Times New Roman" font-style="normal" font-size="11" font-weight="normal" color="#000000">4</words>
				</direction-type>
				<staff>1</staff>
			</direction>
			<note>
				<pitch>
					<step>B</step>
					<octave>3</octave>
				</pitch>
				<duration>30</duration>
				<instrument id="P1-S0V0"/>
				<voice>1</voice>
				<type>quarter</type>
				<dot/>
				<stem>up</stem>
				<staff>1</staff>
				<notations>
					<slur type="start" number="1"></slur>
				</notations>
			</note>
			<note>
				<pitch>
					<step>C</step>
					<octave>4</octave>
				</pitch>
				<duration>30</duration>
				<instrument id="P1-S0V0"/>
				<voice>1</voice>
				<type>quarter</type>
				<dot/>
				<stem>up</stem>
				<staff>1</staff>
				<notations>
					<slur type="stop" number="1"></slur>
				</notations>
			</note>
			<backup>
				<duration>60</duration>
			</backup>
			<note>
				<pitch>
					<step>E</step>
					<octave>3</octave>
				</pitch>
				<duration>60</duration>
				<instrument id="P1-S1V0"/>
				<voice>5</voice>
				<type>half</type>
				<dot/>
				<stem>down</stem>
				<staff>2</staff>
			</note>
			<forward>
				<duration>20</duration>
			</forward>
		</measure><!--
===========================================================
-->

		<measure number="41" width="140">
			<print new-system="no"></print>
			<attributes></attributes>
			<note>
				<pitch>
					<step>D</step>
					<octave>4</octave>
				</pitch>
				<duration>60</duration>
				<instrument id="P1-S0V0"/>
				<voice>1</voice>
				<type>half</type>
				<dot/>
				<stem>up</stem>
				<staff>1</staff>
				<notations>
					<articulations>
						<tenuto placement="below"/>
					</articulations>
				</notations>
			</note>
			<backup>
				<duration>60</duration>
			</backup>
			<note>
				<pitch>
					<step>D</step>
					<octave>3</octave>
				</pitch>
				<duration>60</duration>
				<instrument id="P1-S1V0"/>
				<voice>5</voice>
				<type>half</type>
				<dot/>
				<stem>down</stem>
				<staff>2</staff>
			</note>
			<forward>
				<duration>20</duration>
			</forward>
		</measure><!--
===========================================================
-->

		<measure number="42" width="187">
			<print new-system="no"></print>
			<attributes></attributes>
			<note>
				<pitch>
					<step>A</step>
					<octave>3</octave>
				</pitch>
				<duration>30</duration>
				<instrument id="P1-S0V0"/>
				<voice>1</voice>
				<type>quarter</type>
				<dot/>
				<stem>up</stem>
				<staff>1</staff>
			</note>
			<note>
				<pitch>
					<step>B</step>
					<octave>3</octave>
				</pitch>
				<duration>30</duration>
				<instrument id="P1-S0V0"/>
				<voice>1</voice>
				<type>quarter</type>
				<dot/>
				<stem>up</stem>
				<staff>1</staff>
			</note>
			<backup>
				<duration>60</duration>
			</backup>
			<note>
				<pitch>
					<step>D</step>
					<octave>3</octave>
				</pitch>
				<duration>60</duration>
				<instrument id="P1-S1V0"/>
				<voice>5</voice>
				<type>half</type>
				<dot/>
				<stem>down</stem>
				<staff>2</staff>
			</note>
			<forward>
				<duration>20</duration>
			</forward>
		</measure><!--
===========================================================
-->

		<measure number="43" width="140">
			<print new-system="no"></print>
			<attributes></attributes>
			<note>
				<pitch>
					<step>C</step>
					<octave>4</octave>
				</pitch>
				<duration>60</duration>
				<instrument id="P1-S0V0"/>
				<voice>1</voice>
				<type>half</type>
				<dot/>
				<stem>up</stem>
				<staff>1</staff>
			</note>
			<backup>
				<duration>60</duration>
			</backup>
			<note>
				<pitch>
					<step>C</step>
					<octave>3</octave>
				</pitch>
				<duration>60</duration>
				<instrument id="P1-S1V0"/>
				<voice>5</voice>
				<type>half</type>
				<dot/>
				<stem>up</stem>
				<staff>2</staff>
			</note>
			<forward>
				<duration>20</duration>
			</forward>
		</measure><!--
===========================================================
-->

		<measure number="44" width="245">
			<print new-system="no"></print>
			<attributes></attributes>
			<note>
				<pitch>
					<step>A</step>
					<octave>3</octave>
				</pitch>
				<duration>20</duration>
				<instrument id="P1-S0V0"/>
				<voice>1</voice>
				<type>quarter</type>
				<stem>up</stem>
				<staff>1</staff>
			</note>
			<note>
				<pitch>
					<step>G</step>
					<octave>3</octave>
				</pitch>
				<duration>10</duration>
				<instrument id="P1-S0V0"/>
				<voice>1</voice>
				<type>eighth</type>
				<stem>up</stem>
				<staff>1</staff>
			</note>
			<note>
				<pitch>
					<step>F</step>
					<octave>3</octave>
				</pitch>
				<duration>20</duration>
				<instrument id="P1-S0V0"/>
				<voice>1</voice>
				<type>quarter</type>
				<stem>up</stem>
				<staff>1</staff>
			</note>
			<note>
				<pitch>
					<step>G</step>
					<octave>3</octave>
				</pitch>
				<duration>10</duration>
				<instrument id="P1-S0V0"/>
				<voice>1</voice>
				<type>eighth</type>
				<stem>up</stem>
				<staff>1</staff>
			</note>
			<backup>
				<duration>60</duration>
			</backup>
			<note>
				<pitch>
					<step>D</step>
					<octave>3</octave>
				</pitch>
				<duration>60</duration>
				<instrument id="P1-S1V0"/>
				<voice>5</voice>
				<type>half</type>
				<dot/>
				<stem>down</stem>
				<staff>2</staff>
			</note>
			<forward>
				<duration>20</duration>
			</forward>
		</measure><!--
===========================================================
-->

		<measure number="45" width="192">
			<print new-system="yes">
				<system-layout>
					<system-margins>
						<left-margin>2</left-margin>
						<right-margin>1</right-margin>
					</system-margins>
					<system-distance>201</system-distance>
				</system-layout>
				<staff-layout number="2">
					<staff-distance>103</staff-distance>
				</staff-layout>
			</print>
			<attributes></attributes>
			<direction placement="above">
				<direction-type>
					<words relative-x="28.0443" default-y="30.7724" font-family="Times New Roman" font-style="normal" font-size="11" font-weight="normal" color="#000000">4</words>
				</direction-type>
				<staff>1</staff>
			</direction>
			<note>
				<pitch>
					<step>A</step>
					<octave>3</octave>
				</pitch>
				<duration>60</duration>
				<instrument id="P1-S0V0"/>
				<voice>1</voice>
				<type>half</type>
				<dot/>
				<stem>up</stem>
				<staff>1</staff>
			</note>
			<direction placement="above">
				<direction-type>
					<words relative-x="-100.3275" default-y="30.2112" font-family="Times New Roman" font-style="normal" font-size="11" font-weight="normal" color="#000000">5</words>
				</direction-type>
				<staff>1</staff>
			</direction>
			<backup>
				<duration>60</duration>
			</backup>
			<note>
				<pitch>
					<step>D</step>
					<octave>3</octave>
				</pitch>
				<duration>60</duration>
				<instrument id="P1-S1V0"/>
				<voice>5</voice>
				<type>half</type>
				<dot/>
				<stem>down</stem>
				<staff>2</staff>
			</note>
			<forward>
				<duration>20</duration>
			</forward>
		</measure><!--
===========================================================
-->

		<measure number="46" width="214">
			<print new-system="no"></print>
			<attributes></attributes>
			<note>
				<pitch>
					<step>D</step>
					<octave>4</octave>
				</pitch>
				<duration>20</duration>
				<instrument id="P1-S0V0"/>
				<voice>1</voice>
				<type>quarter</type>
				<stem>up</stem>
				<staff>1</staff>
			</note>
			<note>
				<pitch>
					<step>A</step>
					<octave>3</octave>
				</pitch>
				<duration>10</duration>
				<instrument id="P1-S0V0"/>
				<voice>1</voice>
				<type>eighth</type>
				<stem>up</stem>
				<staff>1</staff>
			</note>
			<note>
				<pitch>
					<step>A</step>
					<octave>3</octave>
				</pitch>
				<duration>20</duration>
				<instrument id="P1-S0V0"/>
				<voice>1</voice>
				<type>quarter</type>
				<stem>up</stem>
				<staff>1</staff>
			</note>
			<note>
				<pitch>
					<step>B</step>
					<octave>3</octave>
				</pitch>
				<duration>10</duration>
				<instrument id="P1-S0V0"/>
				<voice>1</voice>
				<type>eighth</type>
				<stem>up</stem>
				<staff>1</staff>
			</note>
			<backup>
				<duration>60</duration>
			</backup>
			<note>
				<pitch>
					<step>D</step>
					<octave>3</octave>
				</pitch>
				<duration>60</duration>
				<instrument id="P1-S1V0"/>
				<voice>5</voice>
				<type>half</type>
				<dot/>
				<stem>down</stem>
				<staff>2</staff>
			</note>
			<forward>
				<duration>20</duration>
			</forward>
		</measure><!--
===========================================================
-->

		<measure number="47" width="173">
			<print new-system="no"></print>
			<attributes></attributes>
			<note>
				<pitch>
					<step>C</step>
					<octave>4</octave>
				</pitch>
				<duration>30</duration>
				<instrument id="P1-S0V0"/>
				<voice>1</voice>
				<type>quarter</type>
				<dot/>
				<stem>up</stem>
				<staff>1</staff>
			</note>
			<note>
				<pitch>
					<step>E</step>
					<octave>4</octave>
				</pitch>
				<duration>30</duration>
				<instrument id="P1-S0V0"/>
				<voice>1</voice>
				<type>quarter</type>
				<dot/>
				<stem>up</stem>
				<staff>1</staff>
			</note>
			<backup>
				<duration>60</duration>
			</backup>
			<note>
				<pitch>
					<step>C</step>
					<octave>3</octave>
				</pitch>
				<duration>60</duration>
				<instrument id="P1-S1V0"/>
				<voice>5</voice>
				<type>half</type>
				<dot/>
				<stem>up</stem>
				<staff>2</staff>
			</note>
			<forward>
				<duration>20</duration>
			</forward>
		</measure><!--
===========================================================
-->

		<measure number="48" width="132">
			<print new-system="no"></print>
			<attributes></attributes>
			<note>
				<pitch>
					<step>D</step>
					<octave>4</octave>
				</pitch>
				<duration>60</duration>
				<instrument id="P1-S0V0"/>
				<voice>1</voice>
				<type>half</type>
				<dot/>
				<stem>up</stem>
				<staff>1</staff>
			</note>
			<backup>
				<duration>60</duration>
			</backup>
			<note>
				<pitch>
					<step>D</step>
					<octave>3</octave>
				</pitch>
				<duration>60</duration>
				<instrument id="P1-S1V0"/>
				<voice>5</voice>
				<type>half</type>
				<dot/>
				<stem>down</stem>
				<staff>2</staff>
			</note>
			<forward>
				<duration>20</duration>
			</forward>
		</measure><!--
===========================================================
-->

		<measure number="49" width="173">
			<print new-system="no"></print>
			<attributes></attributes>
			<note>
				<pitch>
					<step>C</step>
					<octave>4</octave>
				</pitch>
				<duration>30</duration>
				<instrument id="P1-S0V0"/>
				<voice>1</voice>
				<type>quarter</type>
				<dot/>
				<stem>up</stem>
				<staff>1</staff>
			</note>
			<direction placement="above">
				<direction-type>
					<words relative-x="-4.7654" default-y="182.9973" font-family="Times New Roman" font-style="normal" font-size="8" font-weight="normal" color="#000000">i r</words>
				</direction-type>
				<staff>1</staff>
			</direction>
			<note>
				<pitch>
					<step>D</step>
					<octave>4</octave>
				</pitch>
				<duration>30</duration>
				<instrument id="P1-S0V0"/>
				<voice>1</voice>
				<type>quarter</type>
				<dot/>
				<stem>up</stem>
				<staff>1</staff>
			</note>
			<backup>
				<duration>60</duration>
			</backup>
			<note>
				<pitch>
					<step>F</step>
					<octave>3</octave>
				</pitch>
				<duration>60</duration>
				<instrument id="P1-S1V0"/>
				<voice>5</voice>
				<type>half</type>
				<dot/>
				<stem>down</stem>
				<staff>2</staff>
			</note>
			<forward>
				<duration>20</duration>
			</forward>
		</measure><!--
===========================================================
-->

		<measure number="50" width="215">
			<print new-system="no"></print>
			<attributes></attributes>
			<note>
				<pitch>
					<step>E</step>
					<octave>4</octave>
				</pitch>
				<duration>20</duration>
				<instrument id="P1-S0V0"/>
				<voice>1</voice>
				<type>quarter</type>
				<stem>up</stem>
				<staff>1</staff>
			</note>
			<note>
				<pitch>
					<step>D</step>
					<octave>4</octave>
				</pitch>
				<duration>10</duration>
				<instrument id="P1-S0V0"/>
				<voice>1</voice>
				<type>eighth</type>
				<stem>up</stem>
				<staff>1</staff>
			</note>
			<note>
				<pitch>
					<step>E</step>
					<octave>4</octave>
				</pitch>
				<duration>20</duration>
				<instrument id="P1-S0V0"/>
				<voice>1</voice>
				<type>quarter</type>
				<stem>up</stem>
				<staff>1</staff>
			</note>
			<note>
				<pitch>
					<step>D</step>
					<octave>4</octave>
				</pitch>
				<duration>10</duration>
				<instrument id="P1-S0V0"/>
				<voice>1</voice>
				<type>eighth</type>
				<stem>up</stem>
				<staff>1</staff>
			</note>
			<backup>
				<duration>60</duration>
			</backup>
			<note>
				<pitch>
					<step>E</step>
					<octave>3</octave>
				</pitch>
				<duration>60</duration>
				<instrument id="P1-S1V0"/>
				<voice>5</voice>
				<type>half</type>
				<dot/>
				<stem>down</stem>
				<staff>2</staff>
			</note>
			<forward>
				<duration>20</duration>
			</forward>
		</measure><!--
===========================================================
-->

		<measure number="51" width="228">
			<print new-system="no"></print>
			<attributes></attributes>
			<note>
				<pitch>
					<step>C</step>
					<octave>4</octave>
				</pitch>
				<duration>20</duration>
				<instrument id="P1-S0V0"/>
				<voice>1</voice>
				<type>quarter</type>
				<stem>up</stem>
				<staff>1</staff>
			</note>
			<note>
				<pitch>
					<step>B</step>
					<octave>3</octave>
				</pitch>
				<duration>10</duration>
				<instrument id="P1-S0V0"/>
				<voice>1</voice>
				<type>eighth</type>
				<stem>up</stem>
				<staff>1</staff>
			</note>
			<note>
				<pitch>
					<step>B</step>
					<octave>3</octave>
				</pitch>
				<duration>20</duration>
				<instrument id="P1-S0V0"/>
				<voice>1</voice>
				<type>quarter</type>
				<stem>up</stem>
				<staff>1</staff>
			</note>
			<note>
				<pitch>
					<step>C</step>
					<octave>4</octave>
				</pitch>
				<duration>10</duration>
				<instrument id="P1-S0V0"/>
				<voice>1</voice>
				<type>eighth</type>
				<stem>up</stem>
				<staff>1</staff>
			</note>
			<backup>
				<duration>60</duration>
			</backup>
			<note>
				<pitch>
					<step>F</step>
					<octave>3</octave>
				</pitch>
				<duration>60</duration>
				<instrument id="P1-S1V0"/>
				<voice>5</voice>
				<type>half</type>
				<dot/>
				<stem>down</stem>
				<staff>2</staff>
			</note>
			<forward>
				<duration>20</duration>
			</forward>
		</measure><!--
===========================================================
-->

		<measure number="52" width="328">
			<print new-system="yes">
				<system-layout>
					<system-margins>
						<left-margin>2</left-margin>
						<right-margin>0</right-margin>
					</system-margins>
					<system-distance>201</system-distance>
				</system-layout>
				<staff-layout number="2">
					<staff-distance>103</staff-distance>
				</staff-layout>
			</print>
			<attributes></attributes>
			<direction placement="above">
				<direction-type>
					<words relative-x="15.7640" default-y="175.0314" font-family="Times New Roman" font-style="normal" font-size="11" font-weight="normal" color="#000000">- gO</words>
				</direction-type>
				<staff>1</staff>
			</direction>
			<note>
				<pitch>
					<step>A</step>
					<octave>3</octave>
				</pitch>
				<duration>20</duration>
				<instrument id="P1-S0V0"/>
				<voice>1</voice>
				<type>quarter</type>
				<stem>up</stem>
				<staff>1</staff>
			</note>
			<note>
				<pitch>
					<step>B</step>
					<octave>3</octave>
				</pitch>
				<duration>10</duration>
				<instrument id="P1-S0V0"/>
				<voice>1</voice>
				<type>eighth</type>
				<stem>up</stem>
				<staff>1</staff>
			</note>
			<direction placement="above">
				<direction-type>
					<words relative-x="53.9865" default-y="178.3830" font-family="Times New Roman" font-style="normal" font-size="11" font-weight="normal" color="#000000">Ma -</words>
				</direction-type>
				<staff>1</staff>
			</direction>
			<note>
				<pitch>
					<step>C</step>
					<octave>4</octave>
				</pitch>
				<duration>20</duration>
				<instrument id="P1-S0V0"/>
				<voice>1</voice>
				<type>quarter</type>
				<stem>up</stem>
				<staff>1</staff>
			</note>
			<note>
				<pitch>
					<step>B</step>
					<octave>3</octave>
				</pitch>
				<duration>10</duration>
				<instrument id="P1-S0V0"/>
				<voice>1</voice>
				<type>eighth</type>
				<stem>up</stem>
				<staff>1</staff>
			</note>
			<backup>
				<duration>60</duration>
			</backup>
			<note>
				<pitch>
					<step>A</step>
					<octave>3</octave>
				</pitch>
				<duration>60</duration>
				<instrument id="P1-S1V0"/>
				<voice>5</voice>
				<type>half</type>
				<dot/>
				<stem>down</stem>
				<staff>2</staff>
			</note>
			<forward>
				<duration>20</duration>
			</forward>
		</measure><!--
===========================================================
-->

		<measure number="53" width="165">
			<print new-system="no"></print>
			<attributes></attributes>
			<note>
				<pitch>
					<step>D</step>
					<octave>4</octave>
				</pitch>
				<duration>60</duration>
				<instrument id="P1-S0V0"/>
				<voice>1</voice>
				<type>half</type>
				<dot/>
				<stem>up</stem>
				<staff>1</staff>
			</note>
			<direction placement="above">
				<direction-type>
					<words relative-x="-45.3295" default-y="180.0666" font-family="Times New Roman" font-style="normal" font-size="11" font-weight="normal" color="#000000">- ri -</words>
				</direction-type>
				<staff>1</staff>
			</direction>
			<backup>
				<duration>60</duration>
			</backup>
			<note>
				<pitch>
					<step>G</step>
					<octave>3</octave>
				</pitch>
				<duration>60</duration>
				<instrument id="P1-S1V0"/>
				<voice>5</voice>
				<type>half</type>
				<dot/>
				<stem>down</stem>
				<staff>2</staff>
			</note>
			<forward>
				<duration>20</duration>
			</forward>
		</measure><!--
===========================================================
-->

		<measure number="54" width="166">
			<print new-system="no"></print>
			<attributes></attributes>
			<note>
				<pitch>
					<step>E</step>
					<octave>4</octave>
				</pitch>
				<duration>60</duration>
				<instrument id="P1-S0V0"/>
				<voice>1</voice>
				<type>half</type>
				<dot/>
				<stem>up</stem>
				<staff>1</staff>
			</note>
			<backup>
				<duration>60</duration>
			</backup>
			<note>
				<pitch>
					<step>E</step>
					<octave>3</octave>
				</pitch>
				<duration>60</duration>
				<instrument id="P1-S1V0"/>
				<voice>5</voice>
				<type>half</type>
				<dot/>
				<stem>down</stem>
				<staff>2</staff>
			</note>
			<direction placement="below">
				<direction-type>
					<words relative-x="5.7106" default-y="-148.0627" font-family="Times New Roman" font-style="normal" font-size="12" font-weight="normal" color="#000000">o I.</words>
				</direction-type>
				<staff>2</staff>
			</direction>
			<forward>
				<duration>20</duration>
			</forward>
		</measure><!--
===========================================================
-->

		<measure number="55" width="164">
			<print new-system="no"></print>
			<attributes></attributes>
			<note>
				<pitch>
					<step>C</step>
					<octave>4</octave>
				</pitch>
				<duration>60</duration>
				<instrument id="P1-S0V0"/>
				<voice>1</voice>
				<type>half</type>
				<dot/>
				<stem>up</stem>
				<staff>1</staff>
			</note>
			<direction placement="above">
				<direction-type>
					<words relative-x="-106.4760" default-y="24.9110" font-family="Times New Roman" font-style="normal" font-size="11" font-weight="normal" color="#000000">5</words>
				</direction-type>
				<staff>1</staff>
			</direction>
			<backup>
				<duration>60</duration>
			</backup>
			<note>
				<pitch>
					<step>F</step>
					<octave>3</octave>
				</pitch>
				<duration>60</duration>
				<instrument id="P1-S1V0"/>
				<voice>5</voice>
				<type>half</type>
				<dot/>
				<stem>down</stem>
				<staff>2</staff>
			</note>
			<direction placement="below">
				<direction-type>
					<words relative-x="-109.9005" default-y="-148.0627" font-family="Times New Roman" font-style="normal" font-size="11" font-weight="normal" color="#000000">2</words>
				</direction-type>
				<staff>2</staff>
			</direction>
			<direction placement="below">
				<direction-type>
					<words relative-x="-98.4956" default-y="-148.0627" font-family="Times New Roman" font-style="normal" font-size="11" font-weight="normal" color="#000000">4</words>
				</direction-type>
				<staff>2</staff>
			</direction>
			<direction placement="below">
				<direction-type>
					<words relative-x="-85.3809" default-y="-148.0627" font-family="Times New Roman" font-style="normal" font-size="11" font-weight="normal" color="#000000">2</words>
				</direction-type>
				<staff>2</staff>
			</direction>
			<forward>
				<duration>20</duration>
			</forward>
		</measure><!--
===========================================================
-->

		<measure number="56" width="268">
			<print new-system="no"></print>
			<attributes></attributes>
			<note>
				<pitch>
					<step>D</step>
					<octave>4</octave>
				</pitch>
				<duration>20</duration>
				<instrument id="P1-S0V0"/>
				<voice>1</voice>
				<type>quarter</type>
				<stem>up</stem>
				<staff>1</staff>
			</note>
			<note>
				<pitch>
					<step>A</step>
					<octave>3</octave>
				</pitch>
				<duration>10</duration>
				<instrument id="P1-S0V0"/>
				<voice>1</voice>
				<type>eighth</type>
				<stem>up</stem>
				<staff>1</staff>
			</note>
			<note>
				<pitch>
					<step>A</step>
					<octave>3</octave>
				</pitch>
				<duration>20</duration>
				<instrument id="P1-S0V0"/>
				<voice>1</voice>
				<type>quarter</type>
				<stem>up</stem>
				<staff>1</staff>
			</note>
			<note>
				<pitch>
					<step>B</step>
					<octave>3</octave>
				</pitch>
				<duration>10</duration>
				<instrument id="P1-S0V0"/>
				<voice>1</voice>
				<type>eighth</type>
				<stem>up</stem>
				<staff>1</staff>
			</note>
			<backup>
				<duration>60</duration>
			</backup>
			<note>
				<pitch>
					<step>D</step>
					<octave>3</octave>
				</pitch>
				<duration>60</duration>
				<instrument id="P1-S1V0"/>
				<voice>5</voice>
				<type>half</type>
				<dot/>
				<stem>down</stem>
				<staff>2</staff>
			</note>
			<forward>
				<duration>20</duration>
			</forward>
		</measure><!--
===========================================================
-->

		<measure number="57" width="238">
			<print new-system="no"></print>
			<attributes>
				<time symbol="common">
					<beats>4</beats>
					<beat-type>4</beat-type>
				</time>
			</attributes>
			<note>
				<pitch>
					<step>C</step>
					<octave>4</octave>
				</pitch>
				<duration>30</duration>
				<instrument id="P1-S0V0"/>
				<voice>1</voice>
				<type>quarter</type>
				<dot/>
				<stem>up</stem>
				<staff>1</staff>
			</note>
			<backup>
				<duration>30</duration>
			</backup>
			<note>
				<pitch>
					<step>C</step>
					<octave>3</octave>
				</pitch>
				<duration>60</duration>
				<instrument id="P1-S1V0"/>
				<voice>5</voice>
				<type>half</type>
				<dot/>
				<stem>up</stem>
				<staff>2</staff>
			</note>
			<forward>
				<duration>20</duration>
			</forward>
		</measure>
	</part>
</score-partwise>