<?xml version="1.0" encoding="UTF-8" standalone="no"?>
<!DOCTYPE score-partwise PUBLIC "-//Recordare//DTD MusicXML 1.1 Partwise//EN" "http://www.musicxml.org/dtds/partwise.dtd">

<score-partwise version="2.0">
	<movement-title></movement-title>
	<identification>
		<creator type="composer"></creator>
		<encoding>
			<software>SmartScore X2 Pro</software>
			<encoding-date>2016-05-14</encoding-date>
			<supports attribute="new-system" element="print" type="yes" value="yes"/>
			<supports attribute="new-page" element="print" type="yes" value="yes"/>
		</encoding>
	</identification>
	<defaults>
		<scaling>
			<millimeters>6.00</millimeters>
			<tenths>40</tenths>
		</scaling>
	</defaults>
	<part-list>
		<score-part id="P1">
			<part-name>Piano</part-name>
			<part-abbreviation>Pno</part-abbreviation>
			<score-instrument id="P1-S0V0">
				<instrument-name>Grand Piano</instrument-name>
			</score-instrument>
			<score-instrument id="P1-S1V0">
				<instrument-name>Grand Piano</instrument-name>
			</score-instrument>
			<score-instrument id="P1-S1V1">
				<instrument-name>Grand Piano</instrument-name>
			</score-instrument>
			<midi-instrument id="P1-S1V1">
				<midi-channel>6</midi-channel>
				<midi-program>1</midi-program>
				<volume>78</volume>
				<pan>0</pan>
			</midi-instrument>
			<midi-instrument id="P1-S0V0">
				<midi-channel>1</midi-channel>
				<midi-program>1</midi-program>
				<volume>78</volume>
				<pan>0</pan>
			</midi-instrument>
			<midi-instrument id="P1-S1V0">
				<midi-channel>5</midi-channel>
				<midi-program>1</midi-program>
				<volume>78</volume>
				<pan>0</pan>
			</midi-instrument>
		</score-part>
	</part-list><!--
===========================================================
-->

	<part id="P1">
		<measure number="1" width="313">
			<print>
				<page-layout>
					<page-height>2306.22</page-height>
					<page-width>1600.96</page-width>
					<page-margins>
						<left-margin>157.93</left-margin>
						<right-margin>224.07</right-margin>
						<top-margin>127.00</top-margin>
						<bottom-margin>63.50</bottom-margin>
					</page-margins>
				</page-layout>
				<system-layout>
					<system-margins>
						<left-margin>3</left-margin>
						<right-margin>0</right-margin>
					</system-margins>
					<top-system-distance>333</top-system-distance>
				</system-layout>
				<staff-layout number="2">
					<staff-distance>90</staff-distance>
				</staff-layout>
			</print>
			<attributes>
				<divisions>20</divisions>
				<key>
					<fifths>0</fifths>
				</key>
				<time>
					<beats>2</beats>
					<beat-type>4</beat-type>
				</time>
				<staves>2</staves>
				<clef number="1">
					<sign>G</sign>
					<line>2</line>
				</clef>
				<clef number="2">
					<sign>G</sign>
					<line>2</line>
				</clef>
				<staff-details number="1" print-object="yes">
					<staff-size>79</staff-size>
				</staff-details>
				<staff-details number="2" print-object="yes">
					<staff-size>79</staff-size>
				</staff-details>
			</attributes>
			<attributes></attributes>
			<note>
				<pitch>
					<step>D</step>
					<octave>5</octave>
				</pitch>
				<duration>30</duration>
				<instrument id="P1-S0V0"/>
				<voice>1</voice>
				<type>quarter</type>
				<dot/>
				<stem>down</stem>
				<staff>1</staff>
			</note>
			<note>
				<pitch>
					<step>C</step>
					<octave>5</octave>
				</pitch>
				<duration>10</duration>
				<instrument id="P1-S0V0"/>
				<voice>1</voice>
				<type>eighth</type>
				<stem>down</stem>
				<staff>1</staff>
			</note>
			<backup>
				<duration>40</duration>
			</backup>
			<note>
				<pitch>
					<step>D</step>
					<octave>4</octave>
				</pitch>
				<duration>20</duration>
				<instrument id="P1-S1V0"/>
				<voice>5</voice>
				<type>quarter</type>
				<stem>up</stem>
				<staff>2</staff>
			</note>
			<note>
				<pitch>
					<step>F</step>
					<octave>4</octave>
				</pitch>
				<duration>20</duration>
				<instrument id="P1-S1V0"/>
				<voice>5</voice>
				<type>quarter</type>
				<stem>up</stem>
				<staff>2</staff>
			</note>
		</measure><!--
===========================================================
-->

		<measure number="2" width="214">
			<print new-system="no"></print>
			<attributes></attributes>
			<note>
				<pitch>
					<step>B</step>
					<octave>4</octave>
				</pitch>
				<duration>10</duration>
				<instrument id="P1-S0V0"/>
				<voice>1</voice>
				<type>eighth</type>
				<stem>down</stem>
				<staff>1</staff>
				<beam number="1">begin</beam>
			</note>
			<note>
				<pitch>
					<step>C</step>
					<octave>5</octave>
				</pitch>
				<duration>10</duration>
				<instrument id="P1-S0V0"/>
				<voice>1</voice>
				<type>eighth</type>
				<stem>down</stem>
				<staff>1</staff>
				<beam number="1">end</beam>
			</note>
			<note>
				<pitch>
					<step>A</step>
					<octave>4</octave>
				</pitch>
				<duration>20</duration>
				<instrument id="P1-S0V0"/>
				<voice>1</voice>
				<type>quarter</type>
				<stem>up</stem>
				<staff>1</staff>
			</note>
			<backup>
				<duration>40</duration>
			</backup>
			<note>
				<pitch>
					<step>G</step>
					<octave>4</octave>
				</pitch>
				<duration>20</duration>
				<instrument id="P1-S1V0"/>
				<voice>5</voice>
				<type>quarter</type>
				<stem>up</stem>
				<staff>2</staff>
			</note>
			<note>
				<pitch>
					<step>F</step>
					<octave>4</octave>
				</pitch>
				<duration>20</duration>
				<instrument id="P1-S1V0"/>
				<voice>5</voice>
				<type>quarter</type>
				<stem>up</stem>
				<staff>2</staff>
			</note>
		</measure><!--
===========================================================
-->

		<measure number="3" width="214">
			<print new-system="no"></print>
			<attributes></attributes>
			<note>
				<pitch>
					<step>G</step>
					<octave>4</octave>
				</pitch>
				<duration>20</duration>
				<instrument id="P1-S0V0"/>
				<voice>1</voice>
				<type>quarter</type>
				<stem>up</stem>
				<staff>1</staff>
			</note>
			<note>
				<rest/>
				<duration>10</duration>
				<voice>1</voice>
				<type>eighth</type>
				<staff>1</staff>
				<lyric number="1">
					<syllabic>single</syllabic>
					<text>1.5.</text>
				</lyric>
				<lyric number="2">
					<syllabic>single</syllabic>
					<text>4.</text>
				</lyric>
			</note>
			<note>
				<pitch>
					<step>C</step>
					<octave>5</octave>
				</pitch>
				<duration>10</duration>
				<instrument id="P1-S0V0"/>
				<voice>1</voice>
				<type>eighth</type>
				<stem>down</stem>
				<staff>1</staff>
				<lyric number="1">
					<syllabic>single</syllabic>
					<text>De!</text>
				</lyric>
				<lyric number="2">
					<syllabic>single</syllabic>
					<text>Por</text>
				</lyric>
			</note>
			<backup>
				<duration>40</duration>
			</backup>
			<note>
				<pitch>
					<step>G</step>
					<octave>4</octave>
				</pitch>
				<duration>20</duration>
				<instrument id="P1-S1V0"/>
				<voice>5</voice>
				<type>quarter</type>
				<stem>up</stem>
				<staff>2</staff>
			</note>
			<note>
				<rest/>
				<duration>10</duration>
				<voice>5</voice>
				<type>eighth</type>
				<staff>2</staff>
			</note>
			<note>
				<pitch>
					<step>E</step>
					<octave>4</octave>
				</pitch>
				<duration>10</duration>
				<instrument id="P1-S1V0"/>
				<voice>5</voice>
				<type>eighth</type>
				<stem>up</stem>
				<staff>2</staff>
			</note>
		</measure><!--
===========================================================
-->

		<measure number="4" width="230">
			<print new-system="no"></print>
			<attributes></attributes>
			<note>
				<pitch>
					<step>D</step>
					<octave>5</octave>
				</pitch>
				<duration>20</duration>
				<instrument id="P1-S0V0"/>
				<voice>1</voice>
				<type>quarter</type>
				<stem>down</stem>
				<staff>1</staff>
				<lyric number="1">
					<syllabic>begin</syllabic>
					<text>gat</text>
				</lyric>
				<lyric number="2">
					<syllabic>single</syllabic>
					<text>diu</text>
				</lyric>
			</note>
			<note>
				<pitch>
					<step>E</step>
					<octave>5</octave>
				</pitch>
				<duration>20</duration>
				<instrument id="P1-S0V0"/>
				<voice>1</voice>
				<type>quarter</type>
				<stem>down</stem>
				<staff>1</staff>
				<lyric number="1">
					<syllabic>end</syllabic>
					<text>des</text>
				</lyric>
				<lyric number="2">
					<syllabic>begin</syllabic>
					<text>soy</text>
				</lyric>
			</note>
			<backup>
				<duration>40</duration>
			</backup>
			<note>
				<pitch>
					<step>D</step>
					<octave>4</octave>
				</pitch>
				<duration>20</duration>
				<instrument id="P1-S1V0"/>
				<voice>5</voice>
				<type>quarter</type>
				<stem>up</stem>
				<staff>2</staff>
			</note>
			<note>
				<pitch>
					<step>C</step>
					<octave>4</octave>
				</pitch>
				<duration>20</duration>
				<instrument id="P1-S1V0"/>
				<voice>5</voice>
				<type>quarter</type>
				<stem>up</stem>
				<staff>2</staff>
			</note>
			<backup>
				<duration>20</duration>
			</backup>
			<note>
				<pitch>
					<step>C</step>
					<octave>4</octave>
				</pitch>
				<duration>20</duration>
				<instrument id="P1-S1V1"/>
				<voice>6</voice>
				<type>quarter</type>
				<stem>down</stem>
				<staff>2</staff>
			</note>
		</measure><!--
===========================================================
-->

		<measure number="5" width="242">
			<print new-system="no"></print>
			<attributes></attributes>
			<note>
				<pitch>
					<step>D</step>
					<octave>5</octave>
				</pitch>
				<duration>10</duration>
				<instrument id="P1-S0V0"/>
				<voice>1</voice>
				<type>eighth</type>
				<stem>down</stem>
				<staff>1</staff>
				<beam number="1">begin</beam>
				<lyric number="1">
					<syllabic>single</syllabic>
					<text>vous</text>
				</lyric>
				<lyric number="2">
					<syllabic>end</syllabic>
					<text>s</text>
				</lyric>
			</note>
			<note>
				<pitch>
					<step>D</step>
					<octave>5</octave>
				</pitch>
				<duration>10</duration>
				<instrument id="P1-S0V0"/>
				<voice>1</voice>
				<type>eighth</type>
				<stem>down</stem>
				<staff>1</staff>
				<beam number="1">end</beam>
				<lyric number="1">
					<syllabic>single</syllabic>
					<text>de</text>
				</lyric>
				<lyric number="2">
					<syllabic>single</syllabic>
					<text>luy</text>
				</lyric>
			</note>
			<note>
				<pitch>
					<step>C</step>
					<octave>5</octave>
				</pitch>
				<duration>10</duration>
				<instrument id="P1-S0V0"/>
				<voice>1</voice>
				<type>eighth</type>
				<stem>down</stem>
				<staff>1</staff>
				<beam number="1">begin</beam>
				<lyric number="1">
					<syllabic>single</syllabic>
					<text>le</text>
				</lyric>
				<lyric number="2">
					<syllabic>begin</syllabic>
					<text>com</text>
				</lyric>
			</note>
			<note>
				<pitch>
					<step>C</step>
					<octave>5</octave>
				</pitch>
				<duration>10</duration>
				<instrument id="P1-S0V0"/>
				<voice>1</voice>
				<type>eighth</type>
				<stem>down</stem>
				<staff>1</staff>
				<beam number="1">end</beam>
				<lyric number="1">
					<syllabic>begin</syllabic>
					<text>cor</text>
				</lyric>
				<lyric number="2">
					<syllabic>middle</syllabic>
					<text>pa</text>
				</lyric>
			</note>
			<direction placement="above">
				<direction-type>
					<words relative-x="-25.6301" default-y="218.8672" font-family="Times New Roman" font-style="normal" font-size="15" font-weight="normal" color="#000000">9 l</words>
				</direction-type>
				<staff>1</staff>
			</direction>
			<backup>
				<duration>40</duration>
			</backup>
			<note>
				<pitch>
					<step>G</step>
					<octave>4</octave>
				</pitch>
				<duration>10</duration>
				<instrument id="P1-S1V0"/>
				<voice>5</voice>
				<type>eighth</type>
				<stem>up</stem>
				<staff>2</staff>
				<beam number="1">begin</beam>
			</note>
			<note>
				<rest/>
				<duration>10</duration>
				<voice>5</voice>
				<type>eighth</type>
				<staff>2</staff>
			</note>
			<note>
				<pitch>
					<step>F</step>
					<octave>4</octave>
				</pitch>
				<duration>10</duration>
				<instrument id="P1-S1V0"/>
				<voice>5</voice>
				<type>eighth</type>
				<stem>up</stem>
				<staff>2</staff>
				<beam number="1">end</beam>
			</note>
			<note>
				<pitch>
					<step>E</step>
					<octave>4</octave>
				</pitch>
				<duration>10</duration>
				<instrument id="P1-S1V0"/>
				<voice>5</voice>
				<type>eighth</type>
				<stem>up</stem>
				<staff>2</staff>
				<beam number="1">begin</beam>
			</note>
			<note>
				<pitch>
					<step>E</step>
					<octave>4</octave>
				</pitch>
				<duration>10</duration>
				<instrument id="P1-S1V0"/>
				<voice>5</voice>
				<type>eighth</type>
				<stem>up</stem>
				<staff>2</staff>
				<beam number="1">end</beam>
			</note>
			<backup>
				<duration>10</duration>
			</backup>
		</measure><!--
===========================================================
-->

		<measure number="6" width="290">
			<print new-system="yes">
				<system-layout>
					<system-margins>
						<left-margin>2</left-margin>
						<right-margin>2</right-margin>
					</system-margins>
					<system-distance>184</system-distance>
				</system-layout>
				<staff-layout number="2">
					<staff-distance>92</staff-distance>
				</staff-layout>
			</print>
			<attributes></attributes>
			<note>
				<pitch>
					<step>D</step>
					<octave>5</octave>
				</pitch>
				<duration>30</duration>
				<instrument id="P1-S0V0"/>
				<voice>1</voice>
				<type>quarter</type>
				<dot/>
				<stem>down</stem>
				<staff>1</staff>
				<lyric number="1">
					<syllabic>end</syllabic>
					<text>don,//</text>
				</lyric>
				<lyric number="2">
					<syllabic>end</syllabic>
					<text>gnon,/f</text>
				</lyric>
			</note>
			<note>
				<pitch>
					<step>C</step>
					<octave>5</octave>
				</pitch>
				<duration>10</duration>
				<instrument id="P1-S0V0"/>
				<voice>1</voice>
				<type>eighth</type>
				<stem>down</stem>
				<staff>1</staff>
				<lyric number="1">
					<syllabic>begin</syllabic>
					<text>a</text>
				</lyric>
				<lyric number="2">
					<syllabic>begin</syllabic>
					<text>n&apos;ai</text>
				</lyric>
			</note>
			<backup>
				<duration>40</duration>
			</backup>
			<note>
				<pitch>
					<step>D</step>
					<octave>4</octave>
				</pitch>
				<duration>20</duration>
				<instrument id="P1-S1V0"/>
				<voice>5</voice>
				<type>quarter</type>
				<stem>up</stem>
				<staff>2</staff>
			</note>
			<note>
				<pitch>
					<step>F</step>
					<octave>4</octave>
				</pitch>
				<duration>20</duration>
				<instrument id="P1-S1V0"/>
				<voice>5</voice>
				<type>quarter</type>
				<stem>up</stem>
				<staff>2</staff>
			</note>
		</measure><!--
===========================================================
-->

		<measure number="7" width="228">
			<print new-system="no"></print>
			<attributes></attributes>
			<note>
				<pitch>
					<step>B</step>
					<octave>4</octave>
				</pitch>
				<duration>20</duration>
				<instrument id="P1-S0V0"/>
				<voice>1</voice>
				<type>quarter</type>
				<stem>down</stem>
				<staff>1</staff>
				<lyric number="1">
					<syllabic>end</syllabic>
					<text>mans</text>
				</lyric>
				<lyric number="2">
					<syllabic>end</syllabic>
					<text>es</text>
				</lyric>
			</note>
			<note>
				<pitch>
					<step>A</step>
					<octave>4</octave>
				</pitch>
				<duration>20</duration>
				<instrument id="P1-S0V0"/>
				<voice>1</voice>
				<type>quarter</type>
				<stem>up</stem>
				<staff>1</staff>
				<lyric number="1">
					<syllabic>begin</syllabic>
					<text>qu&apos;a</text>
				</lyric>
				<lyric number="2">
					<syllabic>single</syllabic>
					<text>sa</text>
				</lyric>
			</note>
			<backup>
				<duration>40</duration>
			</backup>
			<note>
				<pitch>
					<step>G</step>
					<octave>4</octave>
				</pitch>
				<duration>20</duration>
				<instrument id="P1-S1V0"/>
				<voice>5</voice>
				<type>quarter</type>
				<stem>up</stem>
				<staff>2</staff>
			</note>
			<note>
				<pitch>
					<step>D</step>
					<octave>4</octave>
				</pitch>
				<duration>20</duration>
				<instrument id="P1-S1V0"/>
				<voice>5</voice>
				<type>quarter</type>
				<stem>up</stem>
				<staff>2</staff>
			</note>
		</measure><!--
===========================================================
-->

		<measure number="8" width="225">
			<print new-system="no"></print>
			<attributes></attributes>
			<note>
				<pitch>
					<step>B</step>
					<alter>-1</alter>
					<octave>4</octave>
				</pitch>
				<duration>10</duration>
				<instrument id="P1-S0V0"/>
				<voice>1</voice>
				<type>eighth</type>
				<accidental parentheses="no">flat</accidental>
				<stem>up</stem>
				<staff>1</staff>
				<beam number="1">begin</beam>
				<lyric number="1">
					<syllabic>end</syllabic>
					<text>ves</text>
				</lyric>
				<lyric number="2">
					<syllabic>begin</syllabic>
					<text>com</text>
				</lyric>
			</note>
			<note>
				<pitch>
					<step>A</step>
					<octave>4</octave>
				</pitch>
				<duration>10</duration>
				<instrument id="P1-S0V0"/>
				<voice>1</voice>
				<type>eighth</type>
				<stem>up</stem>
				<staff>1</staff>
				<beam number="1">end</beam>
				<lyric number="1">
					<syllabic>begin</syllabic>
					<text>a</text>
				</lyric>
				<lyric number="2">
					<syllabic>middle</syllabic>
					<text>pa</text>
				</lyric>
			</note>
			<direction placement="above">
				<direction-type>
					<words relative-x="-9.4018" default-y="160.4402" font-family="Times New Roman" font-style="normal" font-size="14" font-weight="normal" color="#000000">I. 5. De</words>
				</direction-type>
				<staff>1</staff>
			</direction>
			<note>
				<pitch>
					<step>A</step>
					<octave>4</octave>
				</pitch>
				<duration>10</duration>
				<instrument id="P1-S0V0"/>
				<voice>1</voice>
				<type>eighth</type>
				<stem>up</stem>
				<staff>1</staff>
				<beam number="1">begin</beam>
				<lyric number="1">
					<syllabic>middle</syllabic>
					<text>my</text>
				</lyric>
				<lyric number="2">
					<syllabic>middle</syllabic>
					<text>gny</text>
				</lyric>
			</note>
			<direction placement="above">
				<direction-type>
					<words relative-x="-44.0332" default-y="137.7117" font-family="Times New Roman" font-style="italic" font-size="13" font-weight="normal" color="#000000">4. Por</words>
				</direction-type>
				<staff>1</staff>
			</direction>
			<note>
				<pitch>
					<step>G</step>
					<octave>4</octave>
				</pitch>
				<duration>10</duration>
				<instrument id="P1-S0V0"/>
				<voice>1</voice>
				<type>eighth</type>
				<stem>up</stem>
				<staff>1</staff>
				<beam number="1">end</beam>
			</note>
			<backup>
				<duration>40</duration>
			</backup>
			<note>
				<pitch>
					<step>C</step>
					<octave>4</octave>
				</pitch>
				<duration>10</duration>
				<instrument id="P1-S1V0"/>
				<voice>5</voice>
				<type>eighth</type>
				<stem>up</stem>
				<staff>2</staff>
				<beam number="1">begin</beam>
			</note>
			<note>
				<pitch>
					<step>C</step>
					<octave>4</octave>
				</pitch>
				<duration>10</duration>
				<instrument id="P1-S1V0"/>
				<voice>5</voice>
				<type>eighth</type>
				<stem>up</stem>
				<staff>2</staff>
				<beam number="1">end</beam>
			</note>
			<note>
				<pitch>
					<step>B</step>
					<octave>3</octave>
				</pitch>
				<duration>20</duration>
				<instrument id="P1-S1V0"/>
				<voice>5</voice>
				<type>quarter</type>
				<stem>up</stem>
				<staff>2</staff>
			</note>
		</measure><!--
===========================================================
-->

		<measure number="9" width="230">
			<print new-system="no"></print>
			<attributes></attributes>
			<direction placement="above">
				<direction-type>
					<words relative-x="12.5502" default-y="137.7117" font-family="Times New Roman" font-style="italic" font-size="13" font-weight="normal" color="#000000">iiu</words>
				</direction-type>
				<staff>1</staff>
			</direction>
			<direction placement="above">
				<direction-type>
					<words relative-x="17.1095" default-y="155.0153" font-family="Times New Roman" font-style="normal" font-size="14" font-weight="normal" color="#000000">gar -</words>
				</direction-type>
				<staff>1</staff>
			</direction>
			<note>
				<pitch>
					<step>A</step>
					<octave>4</octave>
				</pitch>
				<duration>30</duration>
				<instrument id="P1-S0V0"/>
				<voice>1</voice>
				<type>quarter</type>
				<dot/>
				<stem>up</stem>
				<staff>1</staff>
				<lyric number="1">
					<syllabic>end</syllabic>
					<text>a,//</text>
				</lyric>
				<lyric number="2">
					<syllabic>end</syllabic>
					<text>a,//</text>
				</lyric>
			</note>
			<direction placement="above">
				<direction-type>
					<words relative-x="-53.4424" default-y="159.8946" font-family="Times New Roman" font-style="normal" font-size="14" font-weight="normal" color="#000000">d s</words>
				</direction-type>
				<staff>1</staff>
			</direction>
			<direction placement="above">
				<direction-type>
					<words relative-x="-38.0524" default-y="132.3024" font-family="Times New Roman" font-style="italic" font-size="13" font-weight="normal" color="#000000"> oy _</words>
				</direction-type>
				<staff>1</staff>
			</direction>
			<note>
				<pitch>
					<step>G</step>
					<octave>4</octave>
				</pitch>
				<duration>10</duration>
				<instrument id="P1-S0V0"/>
				<voice>1</voice>
				<type>eighth</type>
				<stem>up</stem>
				<staff>1</staff>
			</note>
			<backup>
				<duration>40</duration>
			</backup>
			<note>
				<pitch>
					<step>A</step>
					<octave>3</octave>
				</pitch>
				<duration>10</duration>
				<instrument id="P1-S1V0"/>
				<voice>5</voice>
				<type>eighth</type>
				<stem>up</stem>
				<staff>2</staff>
			</note>
			<note>
				<pitch>
					<step>D</step>
					<octave>4</octave>
				</pitch>
				<duration>20</duration>
				<instrument id="P1-S1V0"/>
				<voice>5</voice>
				<type>quarter</type>
				<stem>up</stem>
				<staff>2</staff>
			</note>
			<note>
				<pitch>
					<step>C</step>
					<octave>4</octave>
				</pitch>
				<duration>10</duration>
				<instrument id="P1-S1V0"/>
				<voice>5</voice>
				<type>eighth</type>
				<stem>up</stem>
				<staff>2</staff>
			</note>
		</measure><!--
===========================================================
-->

		<measure number="10" width="239">
			<print new-system="no"></print>
			<attributes></attributes>
			<direction placement="above">
				<direction-type>
					<words relative-x="3.4201" default-y="20.8267" font-family="Times New Roman" font-style="italic" font-size="12" font-weight="normal" color="#000000">l O</words>
				</direction-type>
				<staff>1</staff>
			</direction>
			<direction placement="above">
				<direction-type>
					<words relative-x="7.9802" default-y="159.3490" font-family="Times New Roman" font-style="normal" font-size="14" font-weight="normal" color="#000000">vous de le cor -</words>
				</direction-type>
				<staff>1</staff>
			</direction>
			<direction placement="above">
				<direction-type>
					<words relative-x="13.6803" default-y="137.1661" font-family="Times New Roman" font-style="italic" font-size="13" font-weight="normal" color="#000000">c luy com _ pa _</words>
				</direction-type>
				<staff>1</staff>
			</direction>
			<note>
				<pitch>
					<step>E</step>
					<octave>4</octave>
				</pitch>
				<duration>20</duration>
				<instrument id="P1-S0V0"/>
				<voice>1</voice>
				<type>quarter</type>
				<stem>up</stem>
				<staff>1</staff>
			</note>
			<note>
				<pitch>
					<step>E</step>
					<octave>4</octave>
				</pitch>
				<duration>20</duration>
				<instrument id="P1-S0V0"/>
				<voice>1</voice>
				<type>quarter</type>
				<stem>up</stem>
				<staff>1</staff>
			</note>
			<backup>
				<duration>40</duration>
			</backup>
			<note>
				<pitch>
					<step>D</step>
					<octave>4</octave>
				</pitch>
				<duration>20</duration>
				<instrument id="P1-S1V0"/>
				<voice>5</voice>
				<type>quarter</type>
				<stem>up</stem>
				<staff>2</staff>
			</note>
			<note>
				<pitch>
					<step>C</step>
					<octave>4</octave>
				</pitch>
				<duration>20</duration>
				<instrument id="P1-S1V0"/>
				<voice>5</voice>
				<type>quarter</type>
				<stem>up</stem>
				<staff>2</staff>
			</note>
		</measure><!--
===========================================================
-->

		<measure number="11" width="290">
			<print new-system="yes">
				<system-layout>
					<system-margins>
						<left-margin>2</left-margin>
						<right-margin>3</right-margin>
					</system-margins>
					<system-distance>187</system-distance>
				</system-layout>
				<staff-layout number="2">
					<staff-distance>94</staff-distance>
				</staff-layout>
			</print>
			<attributes>
				<staff-details number="1" print-object="yes">
					<staff-size>74</staff-size>
				</staff-details>
			</attributes>
			<direction placement="above">
				<direction-type>
					<words relative-x="43.9627" default-y="137.1672" font-family="Times New Roman" font-style="italic" font-size="19" font-weight="normal" color="#000000">gnon // n ai -</words>
				</direction-type>
				<staff>1</staff>
			</direction>
			<direction placement="above">
				<direction-type>
					<words relative-x="52.1194" default-y="160.2141" font-family="Times New Roman" font-style="normal" font-size="13" font-weight="normal" color="#000000">don, // a</words>
				</direction-type>
				<staff>1</staff>
			</direction>
			<note>
				<pitch>
					<step>D</step>
					<octave>4</octave>
				</pitch>
				<duration>20</duration>
				<instrument id="P1-S0V0"/>
				<voice>1</voice>
				<type>quarter</type>
				<stem>up</stem>
				<staff>1</staff>
			</note>
			<note>
				<rest/>
				<duration>10</duration>
				<voice>1</voice>
				<type>eighth</type>
				<staff>1</staff>
			</note>
			<note>
				<pitch>
					<step>D</step>
					<octave>4</octave>
				</pitch>
				<duration>10</duration>
				<instrument id="P1-S0V0"/>
				<voice>1</voice>
				<type>eighth</type>
				<stem>up</stem>
				<staff>1</staff>
				<lyric number="1">
					<syllabic>single</syllabic>
					<text>qu&apos;il</text>
				</lyric>
				<lyric number="2">
					<syllabic>single</syllabic>
					<text>je</text>
				</lyric>
			</note>
			<direction placement="above">
				<direction-type>
					<words relative-x="-45.8669" default-y="154.1811" font-family="Times New Roman" font-style="normal" font-size="13" font-weight="normal" color="#000000">- mans</words>
				</direction-type>
				<staff>1</staff>
			</direction>
			<backup>
				<duration>40</duration>
			</backup>
			<note>
				<pitch>
					<step>D</step>
					<octave>4</octave>
				</pitch>
				<duration>20</duration>
				<instrument id="P1-S1V0"/>
				<voice>5</voice>
				<type>quarter</type>
				<stem>up</stem>
				<staff>2</staff>
			</note>
			<note>
				<rest/>
				<duration>10</duration>
				<voice>5</voice>
				<type>eighth</type>
				<staff>2</staff>
			</note>
			<note>
				<pitch>
					<step>B</step>
					<octave>3</octave>
				</pitch>
				<duration>10</duration>
				<instrument id="P1-S1V0"/>
				<voice>5</voice>
				<type>eighth</type>
				<stem>up</stem>
				<staff>2</staff>
			</note>
		</measure><!--
===========================================================
-->

		<measure number="12" width="222">
			<print new-system="no"></print>
			<attributes></attributes>
			<direction placement="above">
				<direction-type>
					<words relative-x="14.2526" default-y="136.0677" font-family="Times New Roman" font-style="italic" font-size="19" font-weight="normal" color="#000000"> s</words>
				</direction-type>
				<staff>1</staff>
			</direction>
			<note>
				<pitch>
					<step>E</step>
					<octave>4</octave>
				</pitch>
				<duration>20</duration>
				<instrument id="P1-S0V0"/>
				<voice>1</voice>
				<type>quarter</type>
				<stem>up</stem>
				<staff>1</staff>
				<lyric number="1">
					<syllabic>single</syllabic>
					<text>vous</text>
				</lyric>
				<lyric number="2">
					<syllabic>single</syllabic>
					<text>ne</text>
				</lyric>
			</note>
			<direction placement="above">
				<direction-type>
					<words relative-x="1.4219" default-y="159.6644" font-family="Times New Roman" font-style="normal" font-size="13" font-weight="normal" color="#000000">qu&apos;a -</words>
				</direction-type>
				<staff>1</staff>
			</direction>
			<direction placement="above">
				<direction-type>
					<words relative-x="4.2724" default-y="131.6840" font-family="Times New Roman" font-style="italic" font-size="19" font-weight="normal" color="#000000">sa</words>
				</direction-type>
				<staff>1</staff>
			</direction>
			<note>
				<pitch>
					<step>F</step>
					<octave>4</octave>
				</pitch>
				<duration>20</duration>
				<instrument id="P1-S0V0"/>
				<voice>1</voice>
				<type>quarter</type>
				<stem>up</stem>
				<staff>1</staff>
				<lyric number="1">
					<syllabic>begin</syllabic>
					<text>fe</text>
				</lyric>
				<lyric number="2">
					<syllabic>single</syllabic>
					<text>le</text>
				</lyric>
			</note>
			<backup>
				<duration>40</duration>
			</backup>
			<note>
				<pitch>
					<step>A</step>
					<octave>3</octave>
				</pitch>
				<duration>20</duration>
				<instrument id="P1-S1V0"/>
				<voice>5</voice>
				<type>quarter</type>
				<stem>up</stem>
				<staff>2</staff>
			</note>
			<note>
				<pitch>
					<step>D</step>
					<octave>4</octave>
				</pitch>
				<duration>20</duration>
				<instrument id="P1-S1V0"/>
				<voice>5</voice>
				<type>quarter</type>
				<stem>up</stem>
				<staff>2</staff>
			</note>
		</measure><!--
===========================================================
-->

		<measure number="13" width="230">
			<print new-system="no"></print>
			<attributes></attributes>
			<direction placement="above">
				<direction-type>
					<words relative-x="11.4014" default-y="131.6840" font-family="Times New Roman" font-style="italic" font-size="19" font-weight="normal" color="#000000">c3m - Pa - gv -</words>
				</direction-type>
				<staff>1</staff>
			</direction>
			<direction placement="above">
				<direction-type>
					<words relative-x="15.3870" default-y="154.1811" font-family="Times New Roman" font-style="normal" font-size="13" font-weight="normal" color="#000000">ves a - my</words>
				</direction-type>
				<staff>1</staff>
			</direction>
			<note>
				<pitch>
					<step>G</step>
					<octave>4</octave>
				</pitch>
				<duration>10</duration>
				<instrument id="P1-S0V0"/>
				<voice>1</voice>
				<type>eighth</type>
				<stem>up</stem>
				<staff>1</staff>
				<beam number="1">begin</beam>
				<lyric number="1">
					<syllabic>end</syllabic>
					<text>ra</text>
				</lyric>
				<lyric number="2">
					<syllabic>begin</syllabic>
					<text>di</text>
				</lyric>
			</note>
			<note>
				<pitch>
					<step>A</step>
					<octave>4</octave>
				</pitch>
				<duration>10</duration>
				<instrument id="P1-S0V0"/>
				<voice>1</voice>
				<type>eighth</type>
				<stem>up</stem>
				<staff>1</staff>
				<beam number="1">end</beam>
				<lyric number="1">
					<syllabic>begin</syllabic>
					<text>a</text>
				</lyric>
				<lyric number="2">
					<syllabic>end</syllabic>
					<text>sois</text>
				</lyric>
			</note>
			<note>
				<pitch>
					<step>F</step>
					<octave>4</octave>
				</pitch>
				<duration>10</duration>
				<instrument id="P1-S0V0"/>
				<voice>1</voice>
				<type>eighth</type>
				<stem>up</stem>
				<staff>1</staff>
				<beam number="1">begin</beam>
				<lyric number="1">
					<syllabic>end</syllabic>
					<text>voir</text>
				</lyric>
				<lyric number="2">
					<syllabic>begin</syllabic>
					<text>oc</text>
				</lyric>
			</note>
			<note>
				<pitch>
					<step>E</step>
					<octave>4</octave>
				</pitch>
				<duration>10</duration>
				<instrument id="P1-S0V0"/>
				<voice>1</voice>
				<type>eighth</type>
				<stem>up</stem>
				<staff>1</staff>
				<beam number="1">end</beam>
				<lyric number="1">
					<syllabic>begin</syllabic>
					<text>pas</text>
				</lyric>
				<lyric number="2">
					<syllabic>middle</syllabic>
					<text>ca</text>
				</lyric>
			</note>
			<backup>
				<duration>40</duration>
			</backup>
			<note>
				<pitch>
					<step>C</step>
					<octave>4</octave>
				</pitch>
				<duration>10</duration>
				<instrument id="P1-S1V0"/>
				<voice>5</voice>
				<type>eighth</type>
				<stem>up</stem>
				<staff>2</staff>
				<beam number="1">begin</beam>
			</note>
			<note>
				<pitch>
					<step>C</step>
					<octave>4</octave>
				</pitch>
				<duration>10</duration>
				<instrument id="P1-S1V0"/>
				<voice>5</voice>
				<type>eighth</type>
				<stem>up</stem>
				<staff>2</staff>
				<beam number="1">end</beam>
			</note>
			<note>
				<pitch>
					<step>A</step>
					<octave>3</octave>
				</pitch>
				<duration>10</duration>
				<instrument id="P1-S1V0"/>
				<voice>5</voice>
				<type>eighth</type>
				<stem>up</stem>
				<staff>2</staff>
				<beam number="1">begin</beam>
			</note>
			<note>
				<pitch>
					<step>A</step>
					<octave>3</octave>
				</pitch>
				<duration>10</duration>
				<instrument id="P1-S1V0"/>
				<voice>5</voice>
				<type>eighth</type>
				<stem>up</stem>
				<staff>2</staff>
				<beam number="1">end</beam>
			</note>
		</measure><!--
===========================================================
-->

		<measure number="14" width="230">
			<print new-system="no"></print>
			<attributes></attributes>
			<note>
				<pitch>
					<step>G</step>
					<octave>4</octave>
				</pitch>
				<duration>20</duration>
				<instrument id="P1-S0V0"/>
				<voice>1</voice>
				<type>quarter</type>
				<stem>up</stem>
				<staff>1</staff>
				<lyric number="1">
					<syllabic>end</syllabic>
					<text>sion,</text>
				</lyric>
				<lyric number="2">
					<syllabic>end</syllabic>
					<text>sion,</text>
				</lyric>
			</note>
			<direction placement="above">
				<direction-type>
					<words relative-x="-92.6434" default-y="138.2668" font-family="Times New Roman" font-style="italic" font-size="19" font-weight="normal" color="#000000">a /f</words>
				</direction-type>
				<staff>1</staff>
			</direction>
			<note>
				<rest/>
				<duration>10</duration>
				<voice>1</voice>
				<type>eighth</type>
				<staff>1</staff>
				<lyric number="1">
					<syllabic>single</syllabic>
					<text>//</text>
				</lyric>
				<lyric number="2">
					<syllabic>single</syllabic>
					<text>//</text>
				</lyric>
			</note>
			<note>
				<pitch>
					<step>C</step>
					<octave>5</octave>
				</pitch>
				<duration>10</duration>
				<instrument id="P1-S0V0"/>
				<voice>1</voice>
				<type>eighth</type>
				<stem>down</stem>
				<staff>1</staff>
				<lyric number="1">
					<syllabic>begin</syllabic>
					<text>poy</text>
				</lyric>
				<lyric number="2">
					<syllabic>single</syllabic>
					<text>le</text>
				</lyric>
			</note>
			<backup>
				<duration>40</duration>
			</backup>
			<note>
				<pitch>
					<step>G</step>
					<octave>3</octave>
				</pitch>
				<duration>20</duration>
				<instrument id="P1-S1V0"/>
				<voice>5</voice>
				<type>quarter</type>
				<stem>up</stem>
				<staff>2</staff>
				<notations>
					<articulations>
						<staccato placement="below"/>
					</articulations>
				</notations>
			</note>
			<note>
				<rest/>
				<duration>10</duration>
				<voice>5</voice>
				<type>eighth</type>
				<staff>2</staff>
			</note>
			<note>
				<pitch>
					<step>A</step>
					<octave>4</octave>
				</pitch>
				<duration>10</duration>
				<instrument id="P1-S1V0"/>
				<voice>5</voice>
				<type>eighth</type>
				<stem>up</stem>
				<staff>2</staff>
			</note>
		</measure><!--
===========================================================
-->

		<measure number="15" width="238">
			<print new-system="no"></print>
			<attributes></attributes>
			<note>
				<pitch>
					<step>B</step>
					<octave>4</octave>
				</pitch>
				<duration>10</duration>
				<instrument id="P1-S0V0"/>
				<voice>1</voice>
				<type>eighth</type>
				<stem>down</stem>
				<staff>1</staff>
				<lyric number="1">
					<syllabic>end</syllabic>
					<text>ne</text>
				</lyric>
				<lyric number="2">
					<syllabic>single</syllabic>
					<text>grmt</text>
				</lyric>
			</note>
			<note>
				<pitch>
					<step>D</step>
					<octave>5</octave>
				</pitch>
				<duration>20</duration>
				<instrument id="P1-S0V0"/>
				<voice>1</voice>
				<type>quarter</type>
				<stem>down</stem>
				<staff>1</staff>
				<lyric number="1">
					<syllabic>single</syllabic>
					<text>et</text>
				</lyric>
			</note>
			<note>
				<pitch>
					<step>C</step>
					<octave>5</octave>
				</pitch>
				<duration>10</duration>
				<instrument id="P1-S0V0"/>
				<voice>1</voice>
				<type>eighth</type>
				<stem>down</stem>
				<staff>1</staff>
				<lyric number="1">
					<syllabic>begin</syllabic>
					<text>ma</text>
				</lyric>
				<lyric number="2">
					<syllabic>single</syllabic>
					<text>sa</text>
				</lyric>
			</note>
			<backup>
				<duration>40</duration>
			</backup>
			<note>
				<pitch>
					<step>D</step>
					<octave>4</octave>
				</pitch>
				<duration>20</duration>
				<instrument id="P1-S1V0"/>
				<voice>5</voice>
				<type>quarter</type>
				<stem>up</stem>
				<staff>2</staff>
			</note>
			<note>
				<pitch>
					<step>F</step>
					<octave>4</octave>
				</pitch>
				<duration>20</duration>
				<instrument id="P1-S1V0"/>
				<voice>5</voice>
				<type>quarter</type>
				<stem>up</stem>
				<staff>2</staff>
			</note>
		</measure><!--
===========================================================
-->

		<measure number="16" width="288">
			<print new-system="yes">
				<system-layout>
					<system-margins>
						<left-margin>1</left-margin>
						<right-margin>3</right-margin>
					</system-margins>
					<system-distance>201</system-distance>
				</system-layout>
				<staff-layout number="2">
					<staff-distance>87</staff-distance>
				</staff-layout>
			</print>
			<attributes>
				<staff-details number="1" print-object="yes">
					<staff-size>79</staff-size>
				</staff-details>
				<staff-details number="2" print-object="yes">
					<staff-size>85</staff-size>
				</staff-details>
			</attributes>
			<note>
				<pitch>
					<step>B</step>
					<octave>4</octave>
				</pitch>
				<duration>20</duration>
				<instrument id="P1-S0V0"/>
				<voice>1</voice>
				<type>quarter</type>
				<stem>down</stem>
				<staff>1</staff>
				<lyric number="1">
					<syllabic>middle</syllabic>
					<text>ran</text>
				</lyric>
				<lyric number="2">
					<syllabic>begin</syllabic>
					<text>fa</text>
				</lyric>
			</note>
			<note>
				<pitch>
					<step>A</step>
					<octave>4</octave>
				</pitch>
				<duration>20</duration>
				<instrument id="P1-S0V0"/>
				<voice>1</voice>
				<type>quarter</type>
				<stem>up</stem>
				<staff>1</staff>
				<lyric number="1">
					<syllabic>middle</syllabic>
					<text>cho</text>
				</lyric>
				<lyric number="2">
					<syllabic>middle</syllabic>
					<text>lo</text>
				</lyric>
			</note>
			<direction placement="above">
				<direction-type>
					<words relative-x="-71.3192" default-y="170.5418" font-family="Times New Roman" font-style="normal" font-size="13" font-weight="normal" color="#000000">qu&apos;il vous</words>
				</direction-type>
				<staff>1</staff>
			</direction>
			<direction placement="above">
				<direction-type>
					<words relative-x="-67.5512" default-y="146.4571" font-family="Times New Roman" font-style="italic" font-size="12" font-weight="normal" color="#000000">ie</words>
				</direction-type>
				<staff>1</staff>
			</direction>
			<backup>
				<duration>40</duration>
			</backup>
			<note>
				<pitch>
					<step>G</step>
					<octave>4</octave>
				</pitch>
				<duration>30</duration>
				<instrument id="P1-S1V0"/>
				<voice>5</voice>
				<type>quarter</type>
				<dot/>
				<stem>up</stem>
				<staff>2</staff>
			</note>
			<note>
				<pitch>
					<step>D</step>
					<octave>4</octave>
				</pitch>
				<duration>10</duration>
				<instrument id="P1-S1V0"/>
				<voice>5</voice>
				<type>eighth</type>
				<stem>up</stem>
				<staff>2</staff>
			</note>
		</measure><!--
===========================================================
-->

		<measure number="17" width="229">
			<print new-system="no"></print>
			<attributes></attributes>
			<direction placement="above">
				<direction-type>
					<words relative-x="16.5489" default-y="141.9831" font-family="Times New Roman" font-style="italic" font-size="12" font-weight="normal" color="#000000">ne</words>
				</direction-type>
				<staff>1</staff>
			</direction>
			<note>
				<pitch>
					<step>G</step>
					<octave>4</octave>
				</pitch>
				<duration>10</duration>
				<instrument id="P1-S0V0"/>
				<voice>1</voice>
				<type>eighth</type>
				<stem>up</stem>
				<staff>1</staff>
				<beam number="1">begin</beam>
				<lyric number="1">
					<syllabic>middle</syllabic>
					<text>li</text>
				</lyric>
				<lyric number="2">
					<syllabic>middle</syllabic>
					<text>ni</text>
				</lyric>
			</note>
			<note>
				<pitch>
					<step>A</step>
					<octave>4</octave>
				</pitch>
				<duration>10</duration>
				<instrument id="P1-S0V0"/>
				<voice>1</voice>
				<type>eighth</type>
				<stem>up</stem>
				<staff>1</staff>
				<beam number="1">end</beam>
			</note>
			<note>
				<pitch>
					<step>F</step>
					<octave>4</octave>
				</pitch>
				<duration>10</duration>
				<instrument id="P1-S0V0"/>
				<voice>1</voice>
				<type>eighth</type>
				<stem>up</stem>
				<staff>1</staff>
				<beam number="1">begin</beam>
			</note>
			<direction placement="above">
				<direction-type>
					<words relative-x="-49.7450" default-y="171.1030" font-family="Times New Roman" font-style="normal" font-size="13" font-weight="normal" color="#000000">fe</words>
				</direction-type>
				<staff>1</staff>
			</direction>
			<direction placement="above">
				<direction-type>
					<words relative-x="-48.0200" default-y="147.5795" font-family="Times New Roman" font-style="italic" font-size="12" font-weight="normal" color="#000000">le</words>
				</direction-type>
				<staff>1</staff>
			</direction>
			<note>
				<pitch>
					<step>E</step>
					<octave>4</octave>
				</pitch>
				<duration>10</duration>
				<instrument id="P1-S0V0"/>
				<voice>1</voice>
				<type>eighth</type>
				<stem>up</stem>
				<staff>1</staff>
				<beam number="1">end</beam>
				<lyric number="1">
					<syllabic>end</syllabic>
					<text>-</text>
				</lyric>
				<lyric number="2">
					<syllabic>end</syllabic>
					<text>-</text>
				</lyric>
			</note>
			<backup>
				<duration>40</duration>
			</backup>
			<note>
				<pitch>
					<step>B</step>
					<octave>3</octave>
				</pitch>
				<duration>10</duration>
				<instrument id="P1-S1V0"/>
				<voice>5</voice>
				<type>eighth</type>
				<stem>up</stem>
				<staff>2</staff>
				<beam number="1">begin</beam>
				<notations>
					<articulations>
						<staccato placement="below"/>
					</articulations>
				</notations>
			</note>
			<note>
				<pitch>
					<step>C</step>
					<octave>4</octave>
				</pitch>
				<duration>10</duration>
				<instrument id="P1-S1V0"/>
				<voice>5</voice>
				<type>eighth</type>
				<stem>up</stem>
				<staff>2</staff>
				<beam number="1">end</beam>
			</note>
			<note>
				<pitch>
					<step>A</step>
					<octave>3</octave>
				</pitch>
				<duration>20</duration>
				<instrument id="P1-S1V0"/>
				<voice>5</voice>
				<type>quarter</type>
				<stem>up</stem>
				<staff>2</staff>
			</note>
		</measure><!--
===========================================================
-->

		<measure number="18" width="208">
			<print new-system="no"></print>
			<attributes></attributes>
			<direction placement="above">
				<direction-type>
					<words relative-x="13.1074" default-y="149.2631" font-family="Times New Roman" font-style="italic" font-size="12" font-weight="normal" color="#000000">di -  ois oc - ca - sion //</words>
				</direction-type>
				<staff>1</staff>
			</direction>
			<direction placement="above">
				<direction-type>
					<words relative-x="15.9588" default-y="172.2254" font-family="Times New Roman" font-style="normal" font-size="13" font-weight="normal" color="#000000">ra a - voir pas - sion, //</words>
				</direction-type>
				<staff>1</staff>
			</direction>
			<note>
				<pitch>
					<step>G</step>
					<octave>4</octave>
				</pitch>
				<duration>80</duration>
				<instrument id="P1-S0V0"/>
				<voice>1</voice>
				<type>whole</type>
				<stem>none</stem>
				<staff>1</staff>
				<lyric number="1">
					<syllabic>single</syllabic>
					<text>e./f</text>
				</lyric>
				<lyric number="2">
					<syllabic>single</syllabic>
					<text>e.//</text>
				</lyric>
			</note>
			<backup>
				<duration>80</duration>
			</backup>
			<note>
				<pitch>
					<step>G</step>
					<octave>3</octave>
				</pitch>
				<duration>80</duration>
				<instrument id="P1-S1V0"/>
				<voice>5</voice>
				<type>whole</type>
				<stem>none</stem>
				<staff>2</staff>
			</note>
			<backup>
				<duration>40</duration>
			</backup>
		</measure><!--
===========================================================
-->

		<measure number="19" width="244">
			<print new-system="no"></print>
			<attributes></attributes>
			<barline location="left">
				<bar-style>heavy-light</bar-style>
				<repeat direction="forward"/>
			</barline>
			<note>
				<pitch>
					<step>C</step>
					<octave>5</octave>
				</pitch>
				<duration>20</duration>
				<instrument id="P1-S0V0"/>
				<voice>1</voice>
				<type>quarter</type>
				<stem>down</stem>
				<staff>1</staff>
				<lyric number="1">
					<syllabic>begin</syllabic>
					<text>2.Sa</text>
				</lyric>
				<lyric number="2">
					<syllabic>single</syllabic>
					<text>3.se</text>
				</lyric>
			</note>
			<note>
				<pitch>
					<step>C</step>
					<octave>5</octave>
				</pitch>
				<duration>10</duration>
				<instrument id="P1-S0V0"/>
				<voice>1</voice>
				<type>eighth</type>
				<stem>down</stem>
				<staff>1</staff>
				<beam number="1">begin</beam>
				<notations>
					<articulations>
						<staccato placement="below"/>
					</articulations>
				</notations>
				<lyric number="1">
					<syllabic>end</syllabic>
					<text>chies</text>
				</lyric>
				<lyric number="2">
					<syllabic>single</syllabic>
					<text>vous</text>
				</lyric>
			</note>
			<direction placement="above">
				<direction-type>
					<words relative-x="-3.4032" default-y="168.8582" font-family="Times New Roman" font-style="normal" font-size="13" font-weight="normal" color="#000000">poy - ne et</words>
				</direction-type>
				<staff>1</staff>
			</direction>
			<direction placement="above">
				<direction-type>
					<words relative-x="5.7266" default-y="147.5795" font-family="Times New Roman" font-style="italic" font-size="12" font-weight="normal" color="#000000">le</words>
				</direction-type>
				<staff>1</staff>
			</direction>
			<note>
				<pitch>
					<step>C</step>
					<octave>5</octave>
				</pitch>
				<duration>10</duration>
				<instrument id="P1-S0V0"/>
				<voice>1</voice>
				<type>eighth</type>
				<stem>down</stem>
				<staff>1</staff>
				<beam number="1">end</beam>
				<lyric number="1">
					<syllabic>single</syllabic>
					<text>qu&apos;il</text>
				</lyric>
				<lyric number="2">
					<syllabic>single</syllabic>
					<text>ne</text>
				</lyric>
			</note>
			<backup>
				<duration>40</duration>
			</backup>
			<note>
				<pitch>
					<step>F</step>
					<octave>4</octave>
				</pitch>
				<duration>20</duration>
				<instrument id="P1-S1V0"/>
				<voice>5</voice>
				<type>quarter</type>
				<stem>up</stem>
				<staff>2</staff>
			</note>
			<note>
				<pitch>
					<step>A</step>
					<octave>4</octave>
				</pitch>
				<duration>10</duration>
				<instrument id="P1-S1V0"/>
				<voice>5</voice>
				<type>eighth</type>
				<stem>up</stem>
				<staff>2</staff>
				<beam number="1">begin</beam>
			</note>
			<note>
				<pitch>
					<step>A</step>
					<octave>4</octave>
				</pitch>
				<duration>10</duration>
				<instrument id="P1-S1V0"/>
				<voice>5</voice>
				<type>eighth</type>
				<stem>up</stem>
				<staff>2</staff>
				<beam number="1">end</beam>
			</note>
		</measure><!--
===========================================================
-->

		<measure number="20" width="243">
			<print new-system="no"></print>
			<attributes>
				<time>
					<beats>2</beats>
					<beat-type>4</beat-type>
				</time>
			</attributes>
			<direction placement="above">
				<direction-type>
					<words relative-x="-32.2829" default-y="144.7735" font-family="Times New Roman" font-style="italic" font-size="12" font-weight="normal" color="#000000">grant</words>
				</direction-type>
				<staff>1</staff>
			</direction>
			<note>
				<pitch>
					<step>G</step>
					<octave>4</octave>
				</pitch>
				<duration>20</duration>
				<instrument id="P1-S0V0"/>
				<voice>1</voice>
				<type>quarter</type>
				<stem>up</stem>
				<staff>1</staff>
				<lyric number="1">
					<syllabic>single</syllabic>
					<text>est</text>
				</lyric>
				<lyric number="2">
					<syllabic>single</syllabic>
					<text>vous</text>
				</lyric>
			</note>
			<direction placement="above">
				<direction-type>
					<words relative-x="-25.5514" default-y="165.5066" font-family="Times New Roman" font-style="normal" font-size="13" font-weight="normal" color="#000000">ma</words>
				</direction-type>
				<staff>1</staff>
			</direction>
			<direction placement="above">
				<direction-type>
					<words relative-x="-15.4616" default-y="142.5443" font-family="Times New Roman" font-style="italic" font-size="12" font-weight="normal" color="#000000">stl</words>
				</direction-type>
				<staff>1</staff>
			</direction>
			<note>
				<pitch>
					<step>D</step>
					<octave>5</octave>
				</pitch>
				<duration>10</duration>
				<instrument id="P1-S0V0"/>
				<voice>1</voice>
				<type>eighth</type>
				<stem>down</stem>
				<staff>1</staff>
				<lyric number="1">
					<syllabic>single</syllabic>
					<text>un</text>
				</lyric>
				<lyric number="2">
					<syllabic>begin</syllabic>
					<text>sa</text>
				</lyric>
			</note>
			<backup>
				<duration>30</duration>
			</backup>
			<note>
				<pitch>
					<step>A</step>
					<octave>4</octave>
				</pitch>
				<duration>20</duration>
				<instrument id="P1-S1V0"/>
				<voice>5</voice>
				<type>quarter</type>
				<stem>up</stem>
				<staff>2</staff>
			</note>
			<note>
				<pitch>
					<step>G</step>
					<octave>4</octave>
				</pitch>
				<duration>10</duration>
				<instrument id="P1-S1V0"/>
				<voice>5</voice>
				<type>eighth</type>
				<stem>up</stem>
				<staff>2</staff>
			</note>
			<forward>
				<duration>10</duration>
			</forward>
		</measure><!--
===========================================================
-->

		<measure number="21" width="262">
			<print new-system="yes">
				<system-layout>
					<system-margins>
						<left-margin>0</left-margin>
						<right-margin>3</right-margin>
					</system-margins>
					<system-distance>175</system-distance>
				</system-layout>
				<staff-layout number="2">
					<staff-distance>87</staff-distance>
				</staff-layout>
			</print>
			<attributes>
				<staff-details number="2" print-object="yes">
					<staff-size>79</staff-size>
				</staff-details>
			</attributes>
			<direction placement="above">
				<direction-type>
					<words relative-x="53.3354" default-y="134.9993" font-family="Times New Roman" font-style="normal" font-size="13" font-weight="normal" color="#000000">ran</words>
				</direction-type>
				<staff>1</staff>
			</direction>
			<direction placement="above">
				<direction-type>
					<words relative-x="54.6160" default-y="117.6801" font-family="Times New Roman" font-style="italic" font-size="14" font-weight="normal" color="#000000">fa</words>
				</direction-type>
				<staff>1</staff>
			</direction>
			<note>
				<pitch>
					<step>D</step>
					<octave>5</octave>
				</pitch>
				<duration>20</duration>
				<instrument id="P1-S0V0"/>
				<voice>1</voice>
				<type>quarter</type>
				<stem>down</stem>
				<staff>1</staff>
				<lyric number="1">
					<syllabic>single</syllabic>
					<text>Faulx</text>
				</lyric>
				<lyric number="2">
					<syllabic>end</syllabic>
					<text>ves</text>
				</lyric>
			</note>
			<note>
				<pitch>
					<step>C</step>
					<alter>1</alter>
					<octave>5</octave>
				</pitch>
				<duration>20</duration>
				<instrument id="P1-S0V0"/>
				<voice>1</voice>
				<type>quarter</type>
				<accidental parentheses="no">sharp</accidental>
				<stem>down</stem>
				<staff>1</staff>
				<lyric number="1">
					<syllabic>begin</syllabic>
					<text>Dan</text>
				</lyric>
				<lyric number="2">
					<syllabic>begin</syllabic>
					<text>gar</text>
				</lyric>
			</note>
			<direction placement="above">
				<direction-type>
					<words relative-x="-41.2741" default-y="139.8786" font-family="Times New Roman" font-style="normal" font-size="13" font-weight="normal" color="#000000">cho - li</words>
				</direction-type>
				<staff>1</staff>
			</direction>
			<direction placement="above">
				<direction-type>
					<words relative-x="-34.9274" default-y="117.6801" font-family="Times New Roman" font-style="italic" font-size="14" font-weight="normal" color="#000000"> o - ni -</words>
				</direction-type>
				<staff>1</staff>
			</direction>
			<backup>
				<duration>40</duration>
			</backup>
			<direction placement="below">
				<direction-type>
					<words relative-x="-29.8451" default-y="-145.8647" font-family="Times New Roman" font-style="normal" font-size="11" font-weight="normal" color="#000000">CMM l I-V</words>
				</direction-type>
				<staff>2</staff>
			</direction>
			<direction placement="below">
				<direction-type>
					<words relative-x="38.7290" default-y="-58.3334" font-family="Times New Roman" font-style="normal" font-size="13" font-weight="normal" color="#000000">Faulx Dan</words>
				</direction-type>
				<staff>2</staff>
			</direction>
			<direction placement="below">
				<direction-type>
					<words relative-x="51.4386" default-y="-85.3177" font-family="Times New Roman" font-style="italic" font-size="12" font-weight="normal" color="#000000">v s</words>
				</direction-type>
				<staff>2</staff>
			</direction>
			<note>
				<pitch>
					<step>F</step>
					<octave>4</octave>
				</pitch>
				<duration>20</duration>
				<instrument id="P1-S1V0"/>
				<voice>5</voice>
				<type>quarter</type>
				<stem>up</stem>
				<staff>2</staff>
			</note>
			<direction placement="below">
				<direction-type>
					<words relative-x="15.5588" default-y="-79.2536" font-family="Times New Roman" font-style="italic" font-size="12" font-weight="normal" color="#000000">gar - der, //</words>
				</direction-type>
				<staff>2</staff>
			</direction>
			<note>
				<pitch>
					<step>E</step>
					<octave>4</octave>
				</pitch>
				<duration>20</duration>
				<instrument id="P1-S1V0"/>
				<voice>5</voice>
				<type>quarter</type>
				<stem>up</stem>
				<staff>2</staff>
			</note>
			<direction placement="below">
				<direction-type>
					<words relative-x="-29.8531" default-y="-56.6810" font-family="Times New Roman" font-style="normal" font-size="13" font-weight="normal" color="#000000">- gier //</words>
				</direction-type>
				<staff>2</staff>
			</direction>
		</measure><!--
===========================================================
-->

		<measure number="22" width="205">
			<print new-system="no"></print>
			<attributes></attributes>
			<note>
				<pitch>
					<step>D</step>
					<octave>5</octave>
				</pitch>
				<duration>20</duration>
				<instrument id="P1-S0V0"/>
				<voice>1</voice>
				<type>quarter</type>
				<stem>down</stem>
				<staff>1</staff>
				<lyric number="1">
					<syllabic>end</syllabic>
					<text>gier//</text>
				</lyric>
				<lyric number="2">
					<syllabic>end</syllabic>
					<text>der//</text>
				</lyric>
			</note>
			<note>
				<rest/>
				<duration>10</duration>
				<voice>1</voice>
				<type>eighth</type>
				<staff>1</staff>
			</note>
			<direction placement="below">
				<direction-type>
					<dynamics>
						<p/>
					</dynamics>
				</direction-type>
				<staff>1</staff>
				<sound dynamics="68"/>
			</direction>
			<note>
				<pitch>
					<step>B</step>
					<octave>4</octave>
				</pitch>
				<duration>10</duration>
				<instrument id="P1-S0V0"/>
				<voice>1</voice>
				<type>eighth</type>
				<stem>down</stem>
				<staff>1</staff>
				<lyric number="1">
					<syllabic>begin</syllabic>
					<text>ay</text>
				</lyric>
				<lyric number="2">
					<syllabic>single</syllabic>
					<text>il</text>
				</lyric>
			</note>
			<backup>
				<duration>40</duration>
			</backup>
			<note>
				<pitch>
					<step>D</step>
					<octave>4</octave>
				</pitch>
				<duration>20</duration>
				<instrument id="P1-S1V0"/>
				<voice>5</voice>
				<type>quarter</type>
				<stem>up</stem>
				<staff>2</staff>
			</note>
			<note>
				<rest/>
				<duration>10</duration>
				<voice>5</voice>
				<type>eighth</type>
				<staff>2</staff>
			</note>
			<direction placement="below">
				<direction-type>
					<dynamics>
						<p/>
					</dynamics>
				</direction-type>
				<staff>2</staff>
				<sound dynamics="68"/>
			</direction>
			<note>
				<pitch>
					<step>G</step>
					<octave>3</octave>
				</pitch>
				<duration>10</duration>
				<instrument id="P1-S1V0"/>
				<voice>5</voice>
				<type>eighth</type>
				<stem>up</stem>
				<staff>2</staff>
			</note>
			<backup>
				<duration>10</duration>
			</backup>
			<note>
				<pitch>
					<step>G</step>
					<octave>3</octave>
				</pitch>
				<duration>20</duration>
				<instrument id="P1-S1V1"/>
				<voice>6</voice>
				<type>quarter</type>
				<stem>down</stem>
				<staff>2</staff>
				<notations>
					<articulations>
						<staccato placement="below"/>
					</articulations>
				</notations>
			</note>
			<backup>
				<duration>10</duration>
			</backup>
			<direction placement="below">
				<direction-type>
					<words relative-x="-49.5945" default-y="-80.3604" font-family="Times New Roman" font-style="italic" font-size="12" font-weight="normal" color="#000000">il</words>
				</direction-type>
				<staff>2</staff>
			</direction>
			<direction placement="below">
				<direction-type>
					<words relative-x="-43.3198" default-y="-63.2907" font-family="Times New Roman" font-style="normal" font-size="13" font-weight="normal" color="#000000">ay - ne</words>
				</direction-type>
				<staff>2</staff>
			</direction>
		</measure><!--
===========================================================
-->

		<measure number="23" width="201">
			<print new-system="no"></print>
			<attributes></attributes>
			<note>
				<pitch>
					<step>C</step>
					<octave>5</octave>
				</pitch>
				<duration>20</duration>
				<instrument id="P1-S0V0"/>
				<voice>1</voice>
				<type>quarter</type>
				<stem>down</stem>
				<staff>1</staff>
				<lyric number="1">
					<syllabic>end</syllabic>
					<text>ne</text>
				</lyric>
				<lyric number="2">
					<syllabic>single</syllabic>
					<text>vous</text>
				</lyric>
			</note>
			<direction placement="above">
				<direction-type>
					<words relative-x="-30.7727" default-y="140.9542" font-family="Times New Roman" font-style="normal" font-size="13" font-weight="normal" color="#000000">e. //</words>
				</direction-type>
				<staff>1</staff>
			</direction>
			<note>
				<pitch>
					<step>B</step>
					<octave>4</octave>
				</pitch>
				<duration>20</duration>
				<instrument id="P1-S0V0"/>
				<voice>1</voice>
				<type>quarter</type>
				<stem>down</stem>
				<staff>1</staff>
				<lyric number="1">
					<syllabic>single</syllabic>
					<text>e</text>
				</lyric>
				<lyric number="2">
					<syllabic>begin</syllabic>
					<text>tra</text>
				</lyric>
			</note>
			<backup>
				<duration>40</duration>
			</backup>
			<direction placement="below">
				<direction-type>
					<words relative-x="13.6986" default-y="-85.3177" font-family="Times New Roman" font-style="italic" font-size="12" font-weight="normal" color="#000000">vous</words>
				</direction-type>
				<staff>2</staff>
			</direction>
			<note>
				<pitch>
					<step>E</step>
					<octave>3</octave>
				</pitch>
				<duration>20</duration>
				<instrument id="P1-S1V0"/>
				<voice>5</voice>
				<type>quarter</type>
				<stem>up</stem>
				<staff>2</staff>
			</note>
			<backup>
				<duration>20</duration>
			</backup>
			<note>
				<pitch>
					<step>E</step>
					<octave>3</octave>
				</pitch>
				<duration>20</duration>
				<instrument id="P1-S1V1"/>
				<voice>6</voice>
				<type>quarter</type>
				<stem>down</stem>
				<staff>2</staff>
			</note>
			<direction placement="below">
				<direction-type>
					<words relative-x="2.8580" default-y="-83.1041" font-family="Times New Roman" font-style="italic" font-size="12" font-weight="normal" color="#000000">tra -</words>
				</direction-type>
				<staff>2</staff>
			</direction>
			<note>
				<pitch>
					<step>G</step>
					<octave>3</octave>
				</pitch>
				<duration>20</duration>
				<instrument id="P1-S1V0"/>
				<voice>5</voice>
				<type>quarter</type>
				<stem>up</stem>
				<staff>2</staff>
			</note>
		</measure><!--
===========================================================
-->

		<measure number="24" width="205">
			<print new-system="no"></print>
			<attributes></attributes>
			<note>
				<pitch>
					<step>A</step>
					<octave>4</octave>
				</pitch>
				<duration>10</duration>
				<instrument id="P1-S0V0"/>
				<voice>1</voice>
				<type>eighth</type>
				<stem>up</stem>
				<staff>1</staff>
				<lyric number="1">
					<syllabic>begin</syllabic>
					<text>ra</text>
				</lyric>
				<lyric number="2">
					<syllabic>middle</syllabic>
					<text>y</text>
				</lyric>
			</note>
			<direction placement="above">
				<direction-type>
					<words relative-x="-12.6824" default-y="117.6801" font-family="Times New Roman" font-style="italic" font-size="14" font-weight="normal" color="#000000">3  e</words>
				</direction-type>
				<staff>1</staff>
			</direction>
			<direction placement="above">
				<direction-type>
					<words relative-x="-12.1108" default-y="140.4086" font-family="Times New Roman" font-style="normal" font-size="13" font-weight="normal" color="#000000">2. Sa - chies qu&apos;il est</words>
				</direction-type>
				<staff>1</staff>
			</direction>
			<note>
				<pitch>
					<step>C</step>
					<octave>5</octave>
				</pitch>
				<duration>20</duration>
				<instrument id="P1-S0V0"/>
				<voice>1</voice>
				<type>quarter</type>
				<stem>down</stem>
				<staff>1</staff>
			</note>
			<note>
				<pitch>
					<step>B</step>
					<octave>4</octave>
				</pitch>
				<duration>10</duration>
				<instrument id="P1-S0V0"/>
				<voice>1</voice>
				<type>eighth</type>
				<stem>down</stem>
				<staff>1</staff>
				<notations></notations>
				<lyric number="1">
					<syllabic>end</syllabic>
					<text>geet</text>
				</lyric>
				<lyric number="2">
					<syllabic>end</syllabic>
					<text>ra</text>
				</lyric>
			</note>
			<direction placement="above">
				<direction-type>
					<words relative-x="-18.8195" default-y="112.8164" font-family="Times New Roman" font-style="italic" font-size="14" font-weight="normal" color="#000000">vou  e</words>
				</direction-type>
				<staff>1</staff>
			</direction>
			<backup>
				<duration>40</duration>
			</backup>
			<direction placement="below">
				<direction-type>
					<words relative-x="18.8320" default-y="-59.9858" font-family="Times New Roman" font-style="normal" font-size="13" font-weight="normal" color="#000000">ra - ge et</words>
				</direction-type>
				<staff>2</staff>
			</direction>
			<direction placement="below">
				<direction-type>
					<words relative-x="18.8320" default-y="-84.7565" font-family="Times New Roman" font-style="italic" font-size="12" font-weight="normal" color="#000000">y - ra</words>
				</direction-type>
				<staff>2</staff>
			</direction>
			<note>
				<pitch>
					<step>A</step>
					<octave>3</octave>
				</pitch>
				<duration>20</duration>
				<instrument id="P1-S1V0"/>
				<voice>5</voice>
				<type>quarter</type>
				<stem>up</stem>
				<staff>2</staff>
			</note>
			<note>
				<pitch>
					<step>C</step>
					<octave>4</octave>
				</pitch>
				<duration>20</duration>
				<instrument id="P1-S1V0"/>
				<voice>5</voice>
				<type>quarter</type>
				<stem>up</stem>
				<staff>2</staff>
				<notations></notations>
			</note>
		</measure><!--
===========================================================
-->

		<measure number="25" width="193">
			<print new-system="no"></print>
			<attributes></attributes>
			<note>
				<pitch>
					<step>A</step>
					<octave>4</octave>
				</pitch>
				<duration>20</duration>
				<instrument id="P1-S0V0"/>
				<voice>1</voice>
				<type>quarter</type>
				<stem>up</stem>
				<staff>1</staff>
				<lyric number="1">
					<syllabic>single</syllabic>
					<text>mal</text>
				</lyric>
				<lyric number="2">
					<syllabic>begin</syllabic>
					<text>mV</text>
				</lyric>
			</note>
			<note>
				<pitch>
					<step>E</step>
					<octave>4</octave>
				</pitch>
				<duration>20</duration>
				<instrument id="P1-S0V0"/>
				<voice>1</voice>
				<type>quarter</type>
				<stem>up</stem>
				<staff>1</staff>
				<lyric number="1">
					<syllabic>begin</syllabic>
					<text>di</text>
				</lyric>
				<lyric number="2">
					<syllabic>middle</syllabic>
					<text>a</text>
				</lyric>
			</note>
			<direction placement="above">
				<direction-type>
					<words relative-x="-86.0939" default-y="112.8164" font-family="Times New Roman" font-style="italic" font-size="14" font-weight="normal" color="#000000">vous</words>
				</direction-type>
				<staff>1</staff>
			</direction>
			<backup>
				<duration>40</duration>
			</backup>
			<direction placement="below">
				<direction-type>
					<words relative-x="8.5544" default-y="-57.7878" font-family="Times New Roman" font-style="normal" font-size="13" font-weight="normal" color="#000000">m l</words>
				</direction-type>
				<staff>2</staff>
			</direction>
			<direction placement="below">
				<direction-type>
					<words relative-x="10.2582" default-y="-79.2536" font-family="Times New Roman" font-style="italic" font-size="12" font-weight="normal" color="#000000">ma - la - ment //</words>
				</direction-type>
				<staff>2</staff>
			</direction>
			<note>
				<pitch>
					<step>D</step>
					<octave>4</octave>
				</pitch>
				<duration>20</duration>
				<instrument id="P1-S1V0"/>
				<voice>5</voice>
				<type>quarter</type>
				<stem>up</stem>
				<staff>2</staff>
			</note>
			<direction placement="below">
				<direction-type>
					<words relative-x="4.5552" default-y="-57.7878" font-family="Times New Roman" font-style="normal" font-size="13" font-weight="normal" color="#000000">di -</words>
				</direction-type>
				<staff>2</staff>
			</direction>
			<note>
				<pitch>
					<step>C</step>
					<octave>4</octave>
				</pitch>
				<duration>20</duration>
				<instrument id="P1-S1V0"/>
				<voice>5</voice>
				<type>quarter</type>
				<stem>up</stem>
				<staff>2</staff>
			</note>
		</measure><!--
===========================================================
-->

		<measure number="26" width="145">
			<print new-system="no"></print>
			<attributes></attributes>
			<note>
				<pitch>
					<step>D</step>
					<octave>4</octave>
				</pitch>
				<duration>80</duration>
				<instrument id="P1-S0V0"/>
				<voice>1</voice>
				<type>whole</type>
				<stem>none</stem>
				<staff>1</staff>
				<lyric number="1">
					<syllabic>end</syllabic>
					<text>sant;//</text>
				</lyric>
				<lyric number="2">
					<syllabic>end</syllabic>
					<text>ment.//</text>
				</lyric>
			</note>
			<direction placement="above">
				<direction-type>
					<words relative-x="-219.4823" default-y="134.4537" font-family="Times New Roman" font-style="normal" font-size="13" font-weight="normal" color="#000000">un</words>
				</direction-type>
				<staff>1</staff>
			</direction>
			<direction placement="above">
				<direction-type>
					<words relative-x="-218.9078" default-y="112.2708" font-family="Times New Roman" font-style="italic" font-size="14" font-weight="normal" color="#000000">sa -</words>
				</direction-type>
				<staff>1</staff>
			</direction>
			<backup>
				<duration>80</duration>
			</backup>
			<note>
				<pitch>
					<step>D</step>
					<octave>4</octave>
				</pitch>
				<duration>80</duration>
				<instrument id="P1-S1V0"/>
				<voice>5</voice>
				<type>whole</type>
				<stem>none</stem>
				<staff>2</staff>
			</note>
			<direction placement="below">
				<direction-type>
					<words relative-x="-269.6507" default-y="-56.6810" font-family="Times New Roman" font-style="normal" font-size="13" font-weight="normal" color="#000000">sant, //</words>
				</direction-type>
				<staff>2</staff>
			</direction>
			<backup>
				<duration>40</duration>
			</backup>
			<barline location="right">
				<bar-style>light-heavy</bar-style>
				<repeat direction="backward"/>
			</barline>
		</measure>
	</part>
</score-partwise>