<?xml version="1.0" encoding="UTF-8" standalone="no"?>
<!DOCTYPE score-partwise PUBLIC "-//Recordare//DTD MusicXML 1.1 Partwise//EN" "http://www.musicxml.org/dtds/partwise.dtd">

<score-partwise version="2.0">
	<movement-title></movement-title>
	<identification>
		<creator type="composer"></creator>
		<encoding>
			<software>SmartScore X2 Pro</software>
			<encoding-date>2016-05-17</encoding-date>
			<supports attribute="new-system" element="print" type="yes" value="yes"/>
			<supports attribute="new-page" element="print" type="yes" value="yes"/>
		</encoding>
	</identification>
	<defaults>
		<scaling>
			<millimeters>6.00</millimeters>
			<tenths>40</tenths>
		</scaling>
	</defaults>
	<part-list>
		<score-part id="P1">
			<part-name>Piano</part-name>
			<part-abbreviation>Pno</part-abbreviation>
			<score-instrument id="P1-S0V0">
				<instrument-name>Grand Piano</instrument-name>
			</score-instrument>
			<score-instrument id="P1-S1V0">
				<instrument-name>Grand Piano</instrument-name>
			</score-instrument>
			<score-instrument id="P1-S1V1">
				<instrument-name>Grand Piano</instrument-name>
			</score-instrument>
			<midi-instrument id="P1-S0V0">
				<midi-channel>1</midi-channel>
				<midi-program>1</midi-program>
				<volume>78</volume>
				<pan>0</pan>
			</midi-instrument>
			<midi-instrument id="P1-S1V0">
				<midi-channel>5</midi-channel>
				<midi-program>1</midi-program>
				<volume>78</volume>
				<pan>0</pan>
			</midi-instrument>
			<midi-instrument id="P1-S1V1">
				<midi-channel>6</midi-channel>
				<midi-program>1</midi-program>
				<volume>78</volume>
				<pan>0</pan>
			</midi-instrument>
		</score-part>
	</part-list><!--
===========================================================
-->

	<part id="P1">
		<measure number="1" width="177">
			<print>
				<page-layout>
					<page-height>1881.48</page-height>
					<page-width>1453.87</page-width>
					<page-margins>
						<left-margin>316.43</left-margin>
						<right-margin>177.89</right-margin>
						<top-margin>127.00</top-margin>
						<bottom-margin>63.50</bottom-margin>
					</page-margins>
				</page-layout>
				<system-layout>
					<system-margins>
						<left-margin>66</left-margin>
						<right-margin>0</right-margin>
					</system-margins>
					<top-system-distance>768</top-system-distance>
				</system-layout>
				<staff-layout number="2">
					<staff-distance>98</staff-distance>
				</staff-layout>
			</print>
			<attributes>
				<divisions>80</divisions>
				<key>
					<fifths>0</fifths>
				</key>
				<time>
					<beats>6</beats>
					<beat-type>8</beat-type>
				</time>
				<staves>2</staves>
				<clef number="1">
					<sign>F</sign>
					<line>4</line>
				</clef>
				<clef number="2">
					<sign>F</sign>
					<line>4</line>
				</clef>
				<staff-details number="1" print-object="yes">
					<staff-size>59</staff-size>
				</staff-details>
				<staff-details number="2" print-object="yes">
					<staff-size>59</staff-size>
				</staff-details>
			</attributes>
			<attributes></attributes>
			<direction placement="above">
				<direction-type>
					<dynamics>
						<f/>
					</dynamics>
				</direction-type>
				<staff>1</staff>
				<sound dynamics="100"/>
			</direction>
			<direction placement="above">
				<direction-type>
					<words relative-x="13.5109" default-y="47.6416" font-family="Times New Roman" font-style="normal" font-size="12" font-weight="normal" color="#000000">152 v(R 23.)</words>
				</direction-type>
				<staff>1</staff>
			</direction>
			<note>
				<pitch>
					<step>E</step>
					<octave>4</octave>
				</pitch>
				<duration>240</duration>
				<instrument id="P1-S0V0"/>
				<voice>1</voice>
				<type>half</type>
				<dot/>
				<stem>down</stem>
				<staff>1</staff>
				<lyric number="1">
					<syllabic>single</syllabic>
					<text>1.4.7.ui</text>
				</lyric>
				<lyric number="2">
					<syllabic>begin</syllabic>
					<text>3.P1ui</text>
				</lyric>
				<lyric number="3">
					<syllabic>begin</syllabic>
					<text>3.Au</text>
				</lyric>
			</note>
			<backup>
				<duration>240</duration>
			</backup>
			<note>
				<pitch>
					<step>D</step>
					<octave>3</octave>
				</pitch>
				<duration>120</duration>
				<instrument id="P1-S1V0"/>
				<voice>5</voice>
				<type>quarter</type>
				<dot/>
				<stem>down</stem>
				<staff>2</staff>
				<notations>
					<articulations>
						<strong-accent placement="above"/>
					</articulations>
				</notations>
			</note>
			<note>
				<pitch>
					<step>D</step>
					<octave>4</octave>
				</pitch>
				<duration>120</duration>
				<instrument id="P1-S1V0"/>
				<voice>5</voice>
				<type>quarter</type>
				<dot/>
				<stem>down</stem>
				<staff>2</staff>
			</note>
		</measure><!--
===========================================================
-->

		<measure number="2" width="154">
			<print new-system="no"></print>
			<attributes></attributes>
			<direction placement="above">
				<direction-type>
					<words relative-x="10.2747" default-y="22.8745" font-family="Times New Roman" font-style="normal" font-size="8" font-weight="normal" color="#000000">I-</words>
				</direction-type>
				<staff>1</staff>
			</direction>
			<note>
				<pitch>
					<step>E</step>
					<octave>4</octave>
				</pitch>
				<duration>160</duration>
				<instrument id="P1-S0V0"/>
				<voice>1</voice>
				<type>half</type>
				<stem>down</stem>
				<staff>1</staff>
				<lyric number="1">
					<syllabic>single</syllabic>
					<text>na</text>
				</lyric>
				<lyric number="2">
					<syllabic>end</syllabic>
					<text>seurs</text>
					<extend/>
				</lyric>
				<lyric number="3">
					<syllabic>end</syllabic>
					<text>tre</text>
					<extend/>
				</lyric>
			</note>
			<note>
				<pitch>
					<step>F</step>
					<octave>4</octave>
				</pitch>
				<duration>80</duration>
				<instrument id="P1-S0V0"/>
				<voice>1</voice>
				<type>quarter</type>
				<stem>down</stem>
				<staff>1</staff>
			</note>
			<backup>
				<duration>240</duration>
			</backup>
			<note>
				<pitch>
					<step>C</step>
					<alter>1</alter>
					<octave>4</octave>
				</pitch>
				<duration>120</duration>
				<instrument id="P1-S1V0"/>
				<voice>5</voice>
				<type>quarter</type>
				<dot/>
				<accidental parentheses="no">sharp</accidental>
				<stem>down</stem>
				<staff>2</staff>
			</note>
			<note>
				<pitch>
					<step>D</step>
					<octave>4</octave>
				</pitch>
				<duration>120</duration>
				<instrument id="P1-S1V0"/>
				<voice>5</voice>
				<type>quarter</type>
				<dot/>
				<stem>down</stem>
				<staff>2</staff>
			</note>
		</measure><!--
===========================================================
-->

		<measure number="3" width="136">
			<print new-system="no"></print>
			<attributes></attributes>
			<note>
				<pitch>
					<step>E</step>
					<octave>4</octave>
				</pitch>
				<duration>160</duration>
				<instrument id="P1-S0V0"/>
				<voice>1</voice>
				<type>half</type>
				<stem>down</stem>
				<staff>1</staff>
			</note>
			<direction placement="above">
				<direction-type>
					<words relative-x="-40.7616" default-y="82.4790" font-family="Times New Roman" font-style="italic" font-size="29" font-weight="normal" color="#000000">B O</words>
				</direction-type>
				<staff>1</staff>
			</direction>
			<backup>
				<duration>160</duration>
			</backup>
			<note>
				<pitch>
					<step>A</step>
					<octave>3</octave>
				</pitch>
				<duration>120</duration>
				<instrument id="P1-S1V0"/>
				<voice>5</voice>
				<type>quarter</type>
				<dot/>
				<stem>down</stem>
				<staff>2</staff>
			</note>
			<note>
				<rest/>
				<duration>80</duration>
				<voice>5</voice>
				<type>quarter</type>
				<staff>2</staff>
			</note>
			<note>
				<pitch>
					<step>C</step>
					<octave>4</octave>
				</pitch>
				<duration>40</duration>
				<instrument id="P1-S1V0"/>
				<voice>5</voice>
				<type>eighth</type>
				<stem>down</stem>
				<staff>2</staff>
			</note>
		</measure><!--
===========================================================
-->

		<measure number="4" width="112">
			<print new-system="no"></print>
			<attributes></attributes>
			<note>
				<pitch>
					<step>E</step>
					<octave>4</octave>
				</pitch>
				<duration>240</duration>
				<instrument id="P1-S0V0"/>
				<voice>1</voice>
				<type>half</type>
				<dot/>
				<stem>down</stem>
				<staff>1</staff>
				<lyric number="1">
					<syllabic>single</syllabic>
					<text>r</text>
				</lyric>
			</note>
			<backup>
				<duration>240</duration>
			</backup>
			<note>
				<pitch>
					<step>E</step>
					<octave>4</octave>
				</pitch>
				<duration>160</duration>
				<instrument id="P1-S1V0"/>
				<voice>5</voice>
				<type>half</type>
				<stem>down</stem>
				<staff>2</staff>
			</note>
			<note>
				<pitch>
					<step>F</step>
					<octave>4</octave>
				</pitch>
				<duration>80</duration>
				<instrument id="P1-S1V0"/>
				<voice>5</voice>
				<type>quarter</type>
				<stem>down</stem>
				<staff>2</staff>
			</note>
		</measure><!--
===========================================================
-->

		<measure number="5" width="117">
			<print new-system="no"></print>
			<attributes></attributes>
			<note>
				<pitch>
					<step>C</step>
					<alter>1</alter>
					<octave>4</octave>
				</pitch>
				<duration>120</duration>
				<instrument id="P1-S0V0"/>
				<voice>1</voice>
				<type>quarter</type>
				<dot/>
				<accidental parentheses="no">sharp</accidental>
				<stem>down</stem>
				<staff>1</staff>
				<lyric number="1">
					<syllabic>single</syllabic>
					<text>-I</text>
				</lyric>
			</note>
			<note>
				<rest/>
				<duration>120</duration>
				<voice>1</voice>
				<type>quarter</type>
				<dot/>
				<staff>1</staff>
			</note>
			<backup>
				<duration>240</duration>
			</backup>
			<note>
				<pitch>
					<step>E</step>
					<octave>4</octave>
				</pitch>
				<duration>240</duration>
				<instrument id="P1-S1V0"/>
				<voice>5</voice>
				<type>half</type>
				<dot/>
				<stem>down</stem>
				<staff>2</staff>
			</note>
		</measure><!--
===========================================================
-->

		<measure number="6" width="194">
			<print new-system="no"></print>
			<attributes></attributes>
			<note>
				<pitch>
					<step>D</step>
					<octave>4</octave>
				</pitch>
				<duration>120</duration>
				<instrument id="P1-S0V0"/>
				<voice>1</voice>
				<type>quarter</type>
				<dot/>
				<stem>down</stem>
				<staff>1</staff>
				<lyric number="1">
					<syllabic>begin</syllabic>
					<text>le</text>
					<extend/>
				</lyric>
				<lyric number="2">
					<syllabic>single</syllabic>
					<text>e</text>
				</lyric>
				<lyric number="3">
					<syllabic>single</syllabic>
					<text>ne</text>
					<extend/>
				</lyric>
			</note>
			<note>
				<pitch>
					<step>E</step>
					<octave>4</octave>
				</pitch>
				<duration>40</duration>
				<instrument id="P1-S0V0"/>
				<voice>1</voice>
				<type>eighth</type>
				<stem>down</stem>
				<staff>1</staff>
				<beam number="1">begin</beam>
				<lyric number="2">
					<syllabic>begin</syllabic>
					<text>I</text>
					<extend/>
				</lyric>
			</note>
			<note>
				<pitch>
					<step>C</step>
					<octave>4</octave>
				</pitch>
				<duration>40</duration>
				<instrument id="P1-S0V0"/>
				<voice>1</voice>
				<type>eighth</type>
				<stem>down</stem>
				<staff>1</staff>
				<beam number="1">continue</beam>
			</note>
			<note>
				<pitch>
					<step>B</step>
					<octave>3</octave>
				</pitch>
				<duration>20</duration>
				<instrument id="P1-S0V0"/>
				<voice>1</voice>
				<type>16th</type>
				<stem>down</stem>
				<staff>1</staff>
				<beam number="1">end</beam>
				<beam number="2">backward hook</beam>
			</note>
			<backup>
				<duration>220</duration>
			</backup>
			<note>
				<rest/>
				<duration>80</duration>
				<voice>5</voice>
				<type>quarter</type>
				<staff>2</staff>
			</note>
			<note>
				<pitch>
					<step>D</step>
					<octave>4</octave>
				</pitch>
				<duration>40</duration>
				<instrument id="P1-S1V0"/>
				<voice>5</voice>
				<type>eighth</type>
				<stem>down</stem>
				<staff>2</staff>
			</note>
			<note>
				<pitch>
					<step>D</step>
					<octave>3</octave>
				</pitch>
				<duration>120</duration>
				<instrument id="P1-S1V0"/>
				<voice>5</voice>
				<type>quarter</type>
				<dot/>
				<stem>down</stem>
				<staff>2</staff>
			</note>
		</measure><!--
===========================================================
-->

		<measure number="7" width="257">
			<print new-system="yes">
				<system-layout>
					<system-margins>
						<left-margin>1</left-margin>
						<right-margin>1</right-margin>
					</system-margins>
					<system-distance>111</system-distance>
				</system-layout>
				<staff-layout number="2">
					<staff-distance>94</staff-distance>
				</staff-layout>
			</print>
			<attributes></attributes>
			<note>
				<pitch>
					<step>A</step>
					<octave>3</octave>
				</pitch>
				<duration>80</duration>
				<instrument id="P1-S0V0"/>
				<voice>1</voice>
				<type>quarter</type>
				<stem>down</stem>
				<staff>1</staff>
				<lyric number="1">
					<syllabic>end</syllabic>
					<text>cuer</text>
				</lyric>
				<lyric number="2">
					<syllabic>end</syllabic>
					<text>sont</text>
				</lyric>
				<lyric number="3">
					<syllabic>single</syllabic>
					<text>sai,</text>
				</lyric>
			</note>
			<direction placement="above">
				<direction-type>
					<words relative-x="-26.4354" default-y="101.0660" font-family="Times New Roman" font-style="normal" font-size="10" font-weight="normal" color="#000000">1. 7. u i</words>
				</direction-type>
				<staff>1</staff>
			</direction>
			<direction placement="above">
				<direction-type>
					<words relative-x="4.7316" default-y="82.0818" font-family="Times New Roman" font-style="normal" font-size="10" font-weight="normal" color="#000000">3. Plui</words>
				</direction-type>
				<staff>1</staff>
			</direction>
			<direction placement="above">
				<direction-type>
					<words relative-x="6.1479" default-y="63.5182" font-family="Times New Roman" font-style="normal" font-size="10" font-weight="normal" color="#000000">5. Au -</words>
				</direction-type>
				<staff>1</staff>
			</direction>
			<note>
				<pitch>
					<step>G</step>
					<octave>3</octave>
				</pitch>
				<duration>80</duration>
				<instrument id="P1-S0V0"/>
				<voice>1</voice>
				<type>quarter</type>
				<stem>up</stem>
				<staff>1</staff>
			</note>
			<note>
				<pitch>
					<step>F</step>
					<octave>3</octave>
				</pitch>
				<duration>80</duration>
				<instrument id="P1-S0V0"/>
				<voice>1</voice>
				<type>quarter</type>
				<stem>down</stem>
				<staff>1</staff>
				<lyric number="1">
					<syllabic>begin</syllabic>
					<text>rin</text>
				</lyric>
				<lyric number="2">
					<syllabic>single</syllabic>
					<text>en</text>
				</lyric>
				<lyric number="3">
					<syllabic>begin</syllabic>
					<text>er</text>
				</lyric>
			</note>
			<direction placement="above">
				<direction-type>
					<words relative-x="-27.3665" default-y="77.5490" font-family="Times New Roman" font-style="normal" font-size="10" font-weight="normal" color="#000000">- seurs</words>
				</direction-type>
				<staff>1</staff>
			</direction>
			<direction placement="above">
				<direction-type>
					<words relative-x="-17.9401" default-y="62.7004" font-family="Times New Roman" font-style="normal" font-size="10" font-weight="normal" color="#000000">_ tre</words>
				</direction-type>
				<staff>1</staff>
			</direction>
			<backup>
				<duration>240</duration>
			</backup>
			<note>
				<rest/>
				<duration>40</duration>
				<voice>5</voice>
				<type>eighth</type>
				<staff>2</staff>
			</note>
			<note>
				<pitch>
					<step>C</step>
					<octave>4</octave>
				</pitch>
				<duration>80</duration>
				<instrument id="P1-S1V0"/>
				<voice>5</voice>
				<type>quarter</type>
				<stem>down</stem>
				<staff>2</staff>
				<notations></notations>
			</note>
			<note>
				<pitch>
					<step>D</step>
					<octave>4</octave>
				</pitch>
				<duration>40</duration>
				<instrument id="P1-S1V0"/>
				<voice>5</voice>
				<type>eighth</type>
				<stem>down</stem>
				<staff>2</staff>
			</note>
			<forward>
				<duration>80</duration>
			</forward>
		</measure><!--
===========================================================
-->

		<measure number="8" width="97">
			<print new-system="no"></print>
			<attributes></attributes>
			<note>
				<pitch>
					<step>E</step>
					<octave>3</octave>
				</pitch>
				<duration>240</duration>
				<instrument id="P1-S0V0"/>
				<voice>1</voice>
				<type>half</type>
				<dot/>
				<stem>down</stem>
				<staff>1</staff>
				<lyric number="1">
					<syllabic>end</syllabic>
					<text>pli</text>
				</lyric>
				<lyric number="2">
					<syllabic>begin</syllabic>
					<text>es</text>
				</lyric>
				<lyric number="3">
					<syllabic>end</syllabic>
					<text>tes,</text>
				</lyric>
			</note>
			<backup>
				<duration>240</duration>
			</backup>
			<note>
				<pitch>
					<step>C</step>
					<octave>4</octave>
				</pitch>
				<duration>160</duration>
				<instrument id="P1-S1V0"/>
				<voice>5</voice>
				<type>half</type>
				<stem>up</stem>
				<staff>2</staff>
			</note>
			<backup>
				<duration>160</duration>
			</backup>
			<note>
				<pitch>
					<step>C</step>
					<octave>4</octave>
				</pitch>
				<duration>240</duration>
				<instrument id="P1-S1V1"/>
				<voice>6</voice>
				<type>half</type>
				<dot/>
				<stem>down</stem>
				<staff>2</staff>
			</note>
			<backup>
				<duration>80</duration>
			</backup>
			<forward>
				<duration>80</duration>
			</forward>
		</measure><!--
===========================================================
-->

		<measure number="9" width="260">
			<print new-system="no"></print>
			<attributes></attributes>
			<note>
				<pitch>
					<step>E</step>
					<octave>4</octave>
				</pitch>
				<duration>40</duration>
				<instrument id="P1-S0V0"/>
				<voice>1</voice>
				<type>eighth</type>
				<stem>down</stem>
				<staff>1</staff>
				<lyric number="2">
					<syllabic>end</syllabic>
					<text>de</text>
				</lyric>
				<lyric number="3">
					<syllabic>single</syllabic>
					<text>te</text>
				</lyric>
				<lyric number="4">
					<syllabic>single</syllabic>
					<text>que</text>
				</lyric>
			</note>
			<note>
				<pitch>
					<step>G</step>
					<octave>4</octave>
				</pitch>
				<duration>40</duration>
				<instrument id="P1-S0V0"/>
				<voice>1</voice>
				<type>eighth</type>
				<stem>down</stem>
				<staff>1</staff>
				<beam number="1">begin</beam>
				<lyric number="2">
					<syllabic>begin</syllabic>
					<text>vrai</text>
				</lyric>
				<lyric number="3">
					<syllabic>begin</syllabic>
					<text>pro</text>
				</lyric>
				<lyric number="4">
					<syllabic>begin</syllabic>
					<text>di</text>
				</lyric>
			</note>
			<note>
				<pitch>
					<step>E</step>
					<octave>4</octave>
				</pitch>
				<duration>40</duration>
				<instrument id="P1-S0V0"/>
				<voice>1</voice>
				<type>eighth</type>
				<stem>down</stem>
				<staff>1</staff>
				<beam number="1">end</beam>
			</note>
			<note>
				<pitch>
					<step>D</step>
					<octave>4</octave>
				</pitch>
				<duration>60</duration>
				<instrument id="P1-S0V0"/>
				<voice>1</voice>
				<type>eighth</type>
				<dot/>
				<stem>down</stem>
				<staff>1</staff>
				<beam number="1">begin</beam>
				<lyric number="2">
					<syllabic>end</syllabic>
					<text>e</text>
				</lyric>
				<lyric number="3">
					<syllabic>end</syllabic>
					<text>pre</text>
				</lyric>
				<lyric number="4">
					<syllabic>end</syllabic>
					<text>re</text>
				</lyric>
			</note>
			<note>
				<pitch>
					<step>C</step>
					<octave>4</octave>
				</pitch>
				<duration>20</duration>
				<instrument id="P1-S0V0"/>
				<voice>1</voice>
				<type>16th</type>
				<stem>down</stem>
				<staff>1</staff>
				<beam number="1">end</beam>
				<beam number="2">backward hook</beam>
			</note>
			<direction placement="above">
				<direction-type>
					<dynamics>
						<f/>
					</dynamics>
				</direction-type>
				<staff>1</staff>
				<sound dynamics="100"/>
			</direction>
			<note>
				<pitch>
					<step>F</step>
					<octave>1</octave>
				</pitch>
				<duration>80</duration>
				<instrument id="P1-S0V0"/>
				<voice>1</voice>
				<type>quarter</type>
				<stem>up</stem>
				<staff>1</staff>
				<notations>
					<articulations>
						<strong-accent placement="below"/>
					</articulations>
				</notations>
			</note>
			<note>
				<pitch>
					<step>C</step>
					<octave>4</octave>
				</pitch>
				<duration>30</duration>
				<instrument id="P1-S0V0"/>
				<voice>1</voice>
				<type>16th</type>
				<dot/>
				<stem>down</stem>
				<staff>1</staff>
				<beam number="1">begin</beam>
				<beam number="2">forward hook</beam>
				<lyric number="1">
					<syllabic>begin</syllabic>
					<text>joi</text>
				</lyric>
				<lyric number="3">
					<syllabic>begin</syllabic>
					<text>voi</text>
				</lyric>
				<lyric number="4">
					<syllabic>begin</syllabic>
					<text>doi</text>
				</lyric>
			</note>
			<note>
				<pitch>
					<step>B</step>
					<octave>3</octave>
				</pitch>
				<duration>40</duration>
				<instrument id="P1-S0V0"/>
				<voice>1</voice>
				<type>eighth</type>
				<stem>down</stem>
				<staff>1</staff>
				<beam number="1">end</beam>
			</note>
			<backup>
				<duration>350</duration>
			</backup>
			<note>
				<pitch>
					<step>D</step>
					<octave>3</octave>
				</pitch>
				<duration>80</duration>
				<instrument id="P1-S1V0"/>
				<voice>5</voice>
				<type>quarter</type>
				<stem>down</stem>
				<staff>2</staff>
			</note>
			<note>
				<pitch>
					<step>G</step>
					<octave>3</octave>
				</pitch>
				<duration>40</duration>
				<instrument id="P1-S1V0"/>
				<voice>5</voice>
				<type>eighth</type>
				<stem>down</stem>
				<staff>2</staff>
			</note>
			<note>
				<pitch>
					<step>F</step>
					<octave>3</octave>
				</pitch>
				<duration>40</duration>
				<instrument id="P1-S1V0"/>
				<voice>5</voice>
				<type>eighth</type>
				<stem>down</stem>
				<staff>2</staff>
			</note>
			<note>
				<pitch>
					<step>F</step>
					<octave>1</octave>
				</pitch>
				<duration>80</duration>
				<instrument id="P1-S1V0"/>
				<voice>5</voice>
				<type>quarter</type>
				<stem>up</stem>
				<staff>2</staff>
			</note>
			<note>
				<pitch>
					<step>E</step>
					<octave>3</octave>
				</pitch>
				<duration>80</duration>
				<instrument id="P1-S1V0"/>
				<voice>5</voice>
				<type>quarter</type>
				<stem>down</stem>
				<staff>2</staff>
			</note>
			<backup>
				<duration>80</duration>
			</backup>
		</measure><!--
===========================================================
-->

		<measure number="10" width="128">
			<print new-system="no"></print>
			<attributes></attributes>
			<direction placement="above">
				<direction-type>
					<words relative-x="0.0157" default-y="29.2882" font-family="Times New Roman" font-style="normal" font-size="10" font-weight="normal" color="#000000">1o</words>
				</direction-type>
				<staff>1</staff>
			</direction>
			<note>
				<pitch>
					<step>E</step>
					<octave>4</octave>
				</pitch>
				<duration>120</duration>
				<instrument id="P1-S0V0"/>
				<voice>1</voice>
				<type>quarter</type>
				<dot/>
				<stem>down</stem>
				<staff>1</staff>
				<lyric number="1">
					<syllabic>end</syllabic>
					<text>e</text>
				</lyric>
				<lyric number="2">
					<syllabic>single</syllabic>
					<text>e,</text>
				</lyric>
				<lyric number="3">
					<syllabic>end</syllabic>
					<text>e,</text>
				</lyric>
			</note>
			<note>
				<rest/>
				<duration>120</duration>
				<voice>1</voice>
				<type>quarter</type>
				<dot/>
				<staff>1</staff>
			</note>
			<backup>
				<duration>240</duration>
			</backup>
			<note>
				<pitch>
					<step>D</step>
					<octave>3</octave>
				</pitch>
				<duration>240</duration>
				<instrument id="P1-S1V0"/>
				<voice>5</voice>
				<type>half</type>
				<dot/>
				<stem>down</stem>
				<staff>2</staff>
			</note>
		</measure><!--
===========================================================
-->

		<measure number="11" width="212">
			<print new-system="no"></print>
			<attributes></attributes>
			<note>
				<pitch>
					<step>G</step>
					<octave>4</octave>
				</pitch>
				<duration>120</duration>
				<instrument id="P1-S0V0"/>
				<voice>1</voice>
				<type>quarter</type>
				<dot/>
				<stem>down</stem>
				<staff>1</staff>
				<lyric number="1">
					<syllabic>begin</syllabic>
					<text>Mal</text>
				</lyric>
				<lyric number="2">
					<syllabic>begin</syllabic>
					<text>es</text>
				</lyric>
				<lyric number="3">
					<syllabic>single</syllabic>
					<text>Fors</text>
				</lyric>
			</note>
			<direction placement="above">
				<direction-type>
					<words relative-x="-26.2989" default-y="81.2640" font-family="Times New Roman" font-style="normal" font-size="9" font-weight="normal" color="#000000">ensont</words>
				</direction-type>
				<staff>1</staff>
			</direction>
			<direction placement="above">
				<direction-type>
					<words relative-x="-23.3026" default-y="101.0660" font-family="Times New Roman" font-style="normal" font-size="7" font-weight="normal" color="#000000">lecuer</words>
				</direction-type>
				<staff>1</staff>
			</direction>
			<note>
				<pitch>
					<step>D</step>
					<octave>4</octave>
				</pitch>
				<duration>40</duration>
				<instrument id="P1-S0V0"/>
				<voice>1</voice>
				<type>eighth</type>
				<stem>down</stem>
				<staff>1</staff>
				<lyric number="1">
					<syllabic>end</syllabic>
					<text>le_ment</text>
				</lyric>
				<lyric number="2">
					<syllabic>end</syllabic>
					<text>$uels</text>
				</lyric>
				<lyric number="3">
					<syllabic>single</syllabic>
					<text>que</text>
				</lyric>
			</note>
			<direction placement="above">
				<direction-type>
					<words relative-x="-50.1614" default-y="63.9388" font-family="Times New Roman" font-style="normal" font-size="10" font-weight="normal" color="#000000">e sai,</words>
				</direction-type>
				<staff>1</staff>
			</direction>
			<note>
				<pitch>
					<step>G</step>
					<octave>4</octave>
				</pitch>
				<duration>80</duration>
				<instrument id="P1-S0V0"/>
				<voice>1</voice>
				<type>quarter</type>
				<stem>down</stem>
				<staff>1</staff>
				<lyric number="2">
					<syllabic>single</syllabic>
					<text>di--</text>
				</lyric>
				<lyric number="3">
					<syllabic>single</syllabic>
					<text>Dieu</text>
				</lyric>
			</note>
			<backup>
				<duration>240</duration>
			</backup>
			<note>
				<pitch>
					<step>E</step>
					<octave>4</octave>
				</pitch>
				<duration>120</duration>
				<instrument id="P1-S1V0"/>
				<voice>5</voice>
				<type>quarter</type>
				<dot/>
				<stem>down</stem>
				<staff>2</staff>
			</note>
			<note>
				<pitch>
					<step>G</step>
					<octave>4</octave>
				</pitch>
				<duration>80</duration>
				<instrument id="P1-S1V0"/>
				<voice>5</voice>
				<type>quarter</type>
				<stem>down</stem>
				<staff>2</staff>
			</note>
			<note>
				<pitch>
					<step>D</step>
					<octave>4</octave>
				</pitch>
				<duration>40</duration>
				<instrument id="P1-S1V0"/>
				<voice>5</voice>
				<type>eighth</type>
				<stem>down</stem>
				<staff>2</staff>
			</note>
		</measure><!--
===========================================================
-->

		<measure number="12" width="184">
			<print new-system="yes">
				<system-layout>
					<system-margins>
						<left-margin>0</left-margin>
						<right-margin>4</right-margin>
					</system-margins>
					<system-distance>236</system-distance>
				</system-layout>
				<staff-layout number="1">
					<staff-distance>312</staff-distance>
				</staff-layout>
			</print>
			<attributes>
				<staff-details number="1" print-object="no"></staff-details>
			</attributes>
			<direction placement="above">
				<direction-type>
					<words relative-x="12.9246" default-y="60.2237" font-family="Times New Roman" font-style="normal" font-size="9" font-weight="normal" color="#000000">-re</words>
				</direction-type>
				<staff>2</staff>
			</direction>
			<direction placement="above">
				<direction-type>
					<words relative-x="12.9246" default-y="45.3751" font-family="Times New Roman" font-style="normal" font-size="10" font-weight="normal" color="#000000">to ,s</words>
				</direction-type>
				<staff>2</staff>
			</direction>
			<direction placement="above">
				<direction-type>
					<words relative-x="13.9145" default-y="80.0257" font-family="Times New Roman" font-style="normal" font-size="9" font-weight="normal" color="#000000">peut</words>
				</direction-type>
				<staff>2</staff>
			</direction>
			<direction placement="below">
				<direction-type>
					<words relative-x="14.9043" default-y="-72.5956" font-family="Times New Roman" font-style="normal" font-size="10" font-weight="normal" color="#000000">t  s</words>
				</direction-type>
				<staff>2</staff>
			</direction>
			<direction placement="below">
				<direction-type>
					<words relative-x="15.8942" default-y="-34.2300" font-family="Times New Roman" font-style="normal" font-size="10" font-weight="normal" color="#000000">peut</words>
				</direction-type>
				<staff>2</staff>
			</direction>
			<direction placement="below">
				<direction-type>
					<words relative-x="15.8942" default-y="-56.9175" font-family="Times New Roman" font-style="normal" font-size="10" font-weight="normal" color="#000000">-re</words>
				</direction-type>
				<staff>2</staff>
			</direction>
			<note>
				<pitch>
					<step>C</step>
					<octave>4</octave>
				</pitch>
				<duration>120</duration>
				<instrument id="P1-S1V0"/>
				<voice>5</voice>
				<type>quarter</type>
				<dot/>
				<stem>down</stem>
				<staff>2</staff>
			</note>
			<note>
				<pitch>
					<step>A</step>
					<octave>3</octave>
				</pitch>
				<duration>80</duration>
				<instrument id="P1-S1V0"/>
				<voice>5</voice>
				<type>quarter</type>
				<stem>down</stem>
				<staff>2</staff>
			</note>
			<note>
				<pitch>
					<step>G</step>
					<octave>3</octave>
				</pitch>
				<duration>80</duration>
				<instrument id="P1-S1V0"/>
				<voice>5</voice>
				<type>quarter</type>
				<stem>down</stem>
				<staff>2</staff>
			</note>
			<direction placement="above">
				<direction-type>
					<words relative-x="-79.8947" default-y="217.7984" font-family="Times New Roman" font-style="normal" font-size="10" font-weight="normal" color="#000000">r in</words>
				</direction-type>
				<staff>2</staff>
			</direction>
			<direction placement="above">
				<direction-type>
					<words relative-x="-77.4200" default-y="176.9677" font-family="Times New Roman" font-style="normal" font-size="10" font-weight="normal" color="#000000">cer</words>
				</direction-type>
				<staff>2</staff>
			</direction>
			<direction placement="above">
				<direction-type>
					<words relative-x="-71.9589" default-y="195.1108" font-family="Times New Roman" font-style="normal" font-size="9" font-weight="normal" color="#000000">en</words>
				</direction-type>
				<staff>2</staff>
			</direction>
			<direction placement="above">
				<direction-type>
					<words relative-x="-48.5956" default-y="23.5054" font-family="Times New Roman" font-style="normal" font-size="8" font-weight="normal" color="#000000">-I</words>
				</direction-type>
				<staff>2</staff>
			</direction>
			<backup>
				<duration>40</duration>
			</backup>
		</measure><!--
===========================================================
-->

		<measure number="13" width="186">
			<print new-system="no"></print>
			<attributes></attributes>
			<direction placement="below">
				<direction-type>
					<words relative-x="2.1286" default-y="-71.7778" font-family="Times New Roman" font-style="normal" font-size="10" font-weight="normal" color="#000000">tels</words>
				</direction-type>
				<staff>2</staff>
			</direction>
			<direction placement="above">
				<direction-type>
					<words relative-x="5.1257" default-y="45.3751" font-family="Times New Roman" font-style="normal" font-size="10" font-weight="normal" color="#000000">telscuers re</words>
				</direction-type>
				<staff>2</staff>
			</direction>
			<direction placement="below">
				<direction-type>
					<words relative-x="7.2770" default-y="-32.9916" font-family="Times New Roman" font-style="normal" font-size="10" font-weight="normal" color="#000000">gra _  i _ eus  haus</words>
				</direction-type>
				<staff>2</staff>
			</direction>
			<direction placement="above">
				<direction-type>
					<words relative-x="8.1284" default-y="84.1496" font-family="Times New Roman" font-style="normal" font-size="9" font-weight="normal" color="#000000"> r _ ci _ eus</words>
				</direction-type>
				<staff>2</staff>
			</direction>
			<direction placement="below">
				<direction-type>
					<words relative-x="8.5541" default-y="-51.9758" font-family="Times New Roman" font-style="normal" font-size="10" font-weight="normal" color="#000000">por - roi - ent sans</words>
				</direction-type>
				<staff>2</staff>
			</direction>
			<direction placement="above">
				<direction-type>
					<words relative-x="8.9799" default-y="63.9388" font-family="Times New Roman" font-style="normal" font-size="9" font-weight="normal" color="#000000">por_ roi _ eut</words>
				</direction-type>
				<staff>2</staff>
			</direction>
			<note>
				<pitch>
					<step>F</step>
					<octave>3</octave>
				</pitch>
				<duration>120</duration>
				<instrument id="P1-S1V0"/>
				<voice>5</voice>
				<type>quarter</type>
				<dot/>
				<stem>down</stem>
				<staff>2</staff>
				<notations>
					<articulations>
						<accent placement="below"/>
					</articulations>
				</notations>
			</note>
			<direction placement="below">
				<direction-type>
					<words relative-x="-13.4641" default-y="-70.1189" font-family="Times New Roman" font-style="normal" font-size="10" font-weight="normal" color="#000000">cuers re - con _ for _  ter</words>
				</direction-type>
				<staff>2</staff>
			</direction>
			<direction placement="above">
				<direction-type>
					<words relative-x="-1.5042" default-y="197.5875" font-family="Times New Roman" font-style="normal" font-size="9" font-weight="normal" color="#000000">ces _ te</words>
				</direction-type>
				<staff>2</staff>
			</direction>
			<direction placement="above">
				<direction-type>
					<words relative-x="-1.5042" default-y="178.6150" font-family="Times New Roman" font-style="normal" font-size="10" font-weight="normal" color="#000000">tes,</words>
				</direction-type>
				<staff>2</staff>
			</direction>
			<direction placement="above">
				<direction-type>
					<words relative-x="-0.2043" default-y="217.3895" font-family="Times New Roman" font-style="normal" font-size="10" font-weight="normal" color="#000000">pli</words>
				</direction-type>
				<staff>2</staff>
			</direction>
			<note>
				<pitch>
					<step>E</step>
					<octave>3</octave>
				</pitch>
				<duration>80</duration>
				<instrument id="P1-S1V0"/>
				<voice>5</voice>
				<type>quarter</type>
				<stem>down</stem>
				<staff>2</staff>
			</note>
			<note>
				<pitch>
					<step>G</step>
					<octave>3</octave>
				</pitch>
				<duration>40</duration>
				<instrument id="P1-S1V0"/>
				<voice>5</voice>
				<type>eighth</type>
				<stem>down</stem>
				<staff>2</staff>
			</note>
			<direction placement="above">
				<direction-type>
					<words relative-x="-10.6884" default-y="217.7984" font-family="Times New Roman" font-style="normal" font-size="10" font-weight="normal" color="#000000">.de</words>
				</direction-type>
				<staff>2</staff>
			</direction>
			<direction placement="above">
				<direction-type>
					<words relative-x="-9.3942" default-y="176.5472" font-family="Times New Roman" font-style="normal" font-size="10" font-weight="normal" color="#000000">que</words>
				</direction-type>
				<staff>2</staff>
			</direction>
		</measure><!--
===========================================================
-->

		<measure number="14" width="25">
			<print new-system="no"></print>
			<attributes></attributes>
			<direction placement="above">
				<direction-type>
					<words relative-x="5.1477" default-y="84.5585" font-family="Times New Roman" font-style="normal" font-size="9" font-weight="normal" color="#000000"> hans tro</words>
				</direction-type>
				<staff>2</staff>
			</direction>
			<direction placement="above">
				<direction-type>
					<words relative-x="7.7036" default-y="63.9388" font-family="Times New Roman" font-style="normal" font-size="9" font-weight="normal" color="#000000">sans faus _ ser. </words>
				</direction-type>
				<staff>2</staff>
			</direction>
			<direction placement="above">
				<direction-type>
					<words relative-x="14.5550" default-y="45.7840" font-family="Times New Roman" font-style="normal" font-size="10" font-weight="normal" color="#000000">con- for</words>
				</direction-type>
				<staff>2</staff>
			</direction>
			<forward>
				<duration>240</duration>
			</forward>
		</measure><!--
===========================================================
-->

		<measure number="15" width="126">
			<print new-system="no"></print>
			<attributes></attributes>
			<direction placement="below">
				<direction-type>
					<words relative-x="38.9055" default-y="-113.4379" font-family="Times New Roman" font-style="normal" font-size="10" font-weight="normal" color="#000000">CMM 214</words>
				</direction-type>
				<staff>2</staff>
			</direction>
			<direction placement="above">
				<direction-type>
					<words relative-x="42.7566" default-y="217.7984" font-family="Times New Roman" font-style="normal" font-size="10" font-weight="normal" color="#000000">vrai_e J i</words>
				</direction-type>
				<staff>2</staff>
			</direction>
			<direction placement="above">
				<direction-type>
					<words relative-x="45.7579" default-y="198.8258" font-family="Times New Roman" font-style="normal" font-size="9" font-weight="normal" color="#000000">pro_pre voi</words>
				</direction-type>
				<staff>2</staff>
			</direction>
			<direction placement="above">
				<direction-type>
					<words relative-x="50.4628" default-y="180.6711" font-family="Times New Roman" font-style="normal" font-size="10" font-weight="normal" color="#000000">di_ re doi</words>
				</direction-type>
				<staff>2</staff>
			</direction>
			<direction placement="below">
				<direction-type>
					<dynamics>
						<f/>
					</dynamics>
				</direction-type>
				<staff>2</staff>
				<sound dynamics="100"/>
			</direction>
			<direction placement="below">
				<direction-type>
					<words relative-x="73.5542" default-y="-33.4122" font-family="Times New Roman" font-style="normal" font-size="10" font-weight="normal" color="#000000">tro _ ver,</words>
				</direction-type>
				<staff>2</staff>
			</direction>
			<note>
				<pitch>
					<step>E</step>
					<octave>4</octave>
				</pitch>
				<duration>80</duration>
				<instrument id="P1-S1V0"/>
				<voice>5</voice>
				<type>quarter</type>
				<stem>down</stem>
				<staff>2</staff>
			</note>
			<direction placement="below">
				<direction-type>
					<words relative-x="46.3271" default-y="-54.4408" font-family="Times New Roman" font-style="normal" font-size="10" font-weight="normal" color="#000000">us_ ser-</words>
				</direction-type>
				<staff>2</staff>
			</direction>
			<direction placement="above">
				<direction-type>
					<words relative-x="60.0089" default-y="82.0818" font-family="Times New Roman" font-style="normal" font-size="9" font-weight="normal" color="#000000">_ veri</words>
				</direction-type>
				<staff>2</staff>
			</direction>
			<direction placement="above">
				<direction-type>
					<words relative-x="63.8639" default-y="21.4492" font-family="Times New Roman" font-style="normal" font-size="8" font-weight="normal" color="#000000">-I</words>
				</direction-type>
				<staff>2</staff>
			</direction>
			<forward>
				<duration>160</duration>
			</forward>
		</measure><!--
===========================================================
-->

		<measure number="16" width="120">
			<print new-system="no"></print>
			<attributes></attributes>
			<direction placement="above">
				<direction-type>
					<words relative-x="6.4056" default-y="44.9546" font-family="Times New Roman" font-style="normal" font-size="10" font-weight="normal" color="#000000">ter</words>
				</direction-type>
				<staff>2</staff>
			</direction>
			<note>
				<pitch>
					<step>C</step>
					<alter>1</alter>
					<octave>4</octave>
				</pitch>
				<duration>120</duration>
				<instrument id="P1-S1V0"/>
				<voice>5</voice>
				<type>quarter</type>
				<dot/>
				<accidental parentheses="no">sharp</accidental>
				<stem>down</stem>
				<staff>2</staff>
				<notations>
					<fermata type="upright"/>
				</notations>
			</note>
			<note>
				<rest/>
				<duration>120</duration>
				<voice>5</voice>
				<type>quarter</type>
				<dot/>
				<staff>2</staff>
			</note>
			<direction placement="below">
				<direction-type>
					<words relative-x="-16.2432" default-y="-30.9355" font-family="Times New Roman" font-style="normal" font-size="10" font-weight="normal" color="#000000"> _. S. Je</words>
				</direction-type>
				<staff>2</staff>
			</direction>
			<direction placement="above">
				<direction-type>
					<words relative-x="-13.6692" default-y="85.7969" font-family="Times New Roman" font-style="normal" font-size="9" font-weight="normal" color="#000000"> _.S. ,le</words>
				</direction-type>
				<staff>2</staff>
			</direction>
			<direction placement="above">
				<direction-type>
					<words relative-x="-5.9839" default-y="195.9402" font-family="Times New Roman" font-style="normal" font-size="9" font-weight="normal" color="#000000">e,</words>
				</direction-type>
				<staff>2</staff>
			</direction>
			<direction placement="above">
				<direction-type>
					<words relative-x="-5.1333" default-y="176.5472" font-family="Times New Roman" font-style="normal" font-size="10" font-weight="normal" color="#000000">e,</words>
				</direction-type>
				<staff>2</staff>
			</direction>
		</measure><!--
===========================================================
-->

		<measure number="17" width="159">
			<print new-system="no"></print>
			<attributes></attributes>
			<direction placement="above">
				<direction-type>
					<words relative-x="3.8497" default-y="65.5860" font-family="Times New Roman" font-style="normal" font-size="9" font-weight="normal" color="#000000">6.Veu1 - le,</words>
				</direction-type>
				<staff>2</staff>
			</direction>
			<direction placement="below">
				<direction-type>
					<words relative-x="5.5730" default-y="-49.0785" font-family="Times New Roman" font-style="normal" font-size="10" font-weight="normal" color="#000000">6.Yeu1 _ le, qui</words>
				</direction-type>
				<staff>2</staff>
			</direction>
			<note>
				<pitch>
					<step>G</step>
					<octave>4</octave>
				</pitch>
				<duration>160</duration>
				<instrument id="P1-S1V0"/>
				<voice>5</voice>
				<type>half</type>
				<stem>down</stem>
				<staff>2</staff>
			</note>
			<direction placement="above">
				<direction-type>
					<words relative-x="-18.3858" default-y="85.3880" font-family="Times New Roman" font-style="normal" font-size="9" font-weight="normal" color="#000000">le</words>
				</direction-type>
				<staff>2</staff>
			</direction>
			<direction placement="above">
				<direction-type>
					<words relative-x="5.5617" default-y="181.0917" font-family="Times New Roman" font-style="normal" font-size="10" font-weight="normal" color="#000000">Fors lue</words>
				</direction-type>
				<staff>2</staff>
			</direction>
			<direction placement="below">
				<direction-type>
					<words relative-x="5.5617" default-y="-30.5149" font-family="Times New Roman" font-style="normal" font-size="10" font-weight="normal" color="#000000">le</words>
				</direction-type>
				<staff>2</staff>
			</direction>
			<note>
				<pitch>
					<step>E</step>
					<octave>4</octave>
				</pitch>
				<duration>80</duration>
				<instrument id="P1-S1V0"/>
				<voice>5</voice>
				<type>quarter</type>
				<stem>down</stem>
				<staff>2</staff>
			</note>
			<direction placement="above">
				<direction-type>
					<words relative-x="-41.4822" default-y="219.0367" font-family="Times New Roman" font-style="normal" font-size="10" font-weight="normal" color="#000000"> lal _ le _ ment</words>
				</direction-type>
				<staff>2</staff>
			</direction>
			<direction placement="above">
				<direction-type>
					<words relative-x="-41.0404" default-y="199.6553" font-family="Times New Roman" font-style="normal" font-size="9" font-weight="normal" color="#000000">Les_quels</words>
				</direction-type>
				<staff>2</staff>
			</direction>
		</measure><!--
===========================================================
-->

		<measure number="18" width="153">
			<print new-system="no"></print>
			<attributes></attributes>
			<direction placement="below">
				<direction-type>
					<words relative-x="4.2774" default-y="-31.3444" font-family="Times New Roman" font-style="normal" font-size="10" font-weight="normal" color="#000000">s i</words>
				</direction-type>
				<staff>2</staff>
			</direction>
			<direction placement="above">
				<direction-type>
					<words relative-x="5.1254" default-y="64.7565" font-family="Times New Roman" font-style="normal" font-size="9" font-weight="normal" color="#000000">$ui</words>
				</direction-type>
				<staff>2</staff>
			</direction>
			<direction placement="above">
				<direction-type>
					<words relative-x="5.5517" default-y="85.3880" font-family="Times New Roman" font-style="normal" font-size="9" font-weight="normal" color="#000000">sai</words>
				</direction-type>
				<staff>2</staff>
			</direction>
			<note>
				<pitch>
					<step>D</step>
					<octave>4</octave>
				</pitch>
				<duration>160</duration>
				<instrument id="P1-S1V0"/>
				<voice>5</voice>
				<type>half</type>
				<stem>down</stem>
				<staff>2</staff>
			</note>
			<direction placement="above">
				<direction-type>
					<words relative-x="-15.9587" default-y="64.3477" font-family="Times New Roman" font-style="normal" font-size="9" font-weight="normal" color="#000000">peut</words>
				</direction-type>
				<staff>2</staff>
			</direction>
			<direction placement="below">
				<direction-type>
					<words relative-x="-15.9587" default-y="-30.1060" font-family="Times New Roman" font-style="normal" font-size="10" font-weight="normal" color="#000000">bien</words>
				</direction-type>
				<staff>2</staff>
			</direction>
			<direction placement="below">
				<direction-type>
					<words relative-x="-15.9587" default-y="-49.4991" font-family="Times New Roman" font-style="normal" font-size="10" font-weight="normal" color="#000000">peut</words>
				</direction-type>
				<staff>2</staff>
			</direction>
			<direction placement="above">
				<direction-type>
					<words relative-x="-14.6797" default-y="86.2058" font-family="Times New Roman" font-style="normal" font-size="9" font-weight="normal" color="#000000">bien</words>
				</direction-type>
				<staff>2</staff>
			</direction>
			<direction placement="above">
				<direction-type>
					<words relative-x="-8.7016" default-y="181.5006" font-family="Times New Roman" font-style="normal" font-size="10" font-weight="normal" color="#000000">Dieu</words>
				</direction-type>
				<staff>2</staff>
			</direction>
			<direction placement="above">
				<direction-type>
					<words relative-x="1.5585" default-y="201.7114" font-family="Times New Roman" font-style="normal" font-size="9" font-weight="normal" color="#000000">di -</words>
				</direction-type>
				<staff>2</staff>
			</direction>
			<forward>
				<duration>80</duration>
			</forward>
		</measure><!--
===========================================================
-->

		<measure number="19" width="192">
			<print new-system="yes" new-page="yes">
				<page-layout>
					<page-height>1881.48</page-height>
					<page-width>1453.87</page-width>
					<page-margins>
						<left-margin>172.74</left-margin>
						<right-margin>320.28</right-margin>
						<top-margin>127.00</top-margin>
						<bottom-margin>63.50</bottom-margin>
					</page-margins>
				</page-layout>
				<system-layout>
					<system-margins>
						<left-margin>3</left-margin>
						<right-margin>0</right-margin>
					</system-margins>
					<top-system-distance>144</top-system-distance>
				</system-layout>
				<staff-layout number="2">
					<staff-distance>85</staff-distance>
				</staff-layout>
			</print>
			<attributes>
				<staff-details number="1" print-object="yes">
					<staff-size>59</staff-size>
				</staff-details>
			</attributes>
			<note>
				<pitch>
					<step>E</step>
					<octave>4</octave>
				</pitch>
				<duration>160</duration>
				<instrument id="P1-S0V0"/>
				<voice>1</voice>
				<type>half</type>
				<stem>down</stem>
				<staff>1</staff>
				<lyric number="1">
					<syllabic>single</syllabic>
					<text>et</text>
				</lyric>
				<lyric number="2">
					<syllabic>begin</syllabic>
					<text>tau</text>
				</lyric>
			</note>
			<note>
				<pitch>
					<step>C</step>
					<octave>4</octave>
				</pitch>
				<duration>80</duration>
				<instrument id="P1-S0V0"/>
				<voice>1</voice>
				<type>quarter</type>
				<stem>down</stem>
				<staff>1</staff>
				<lyric number="1">
					<syllabic>single</syllabic>
					<text>si</text>
				</lyric>
				<lyric number="2">
					<syllabic>end</syllabic>
					<text>e</text>
				</lyric>
			</note>
			<direction placement="above">
				<direction-type>
					<words relative-x="-31.1617" default-y="21.4492" font-family="Times New Roman" font-style="normal" font-size="9" font-weight="normal" color="#000000">-I</words>
				</direction-type>
				<staff>1</staff>
			</direction>
			<backup>
				<duration>240</duration>
			</backup>
			<note>
				<pitch>
					<step>B</step>
					<octave>3</octave>
				</pitch>
				<duration>120</duration>
				<instrument id="P1-S1V0"/>
				<voice>5</voice>
				<type>quarter</type>
				<dot/>
				<stem>down</stem>
				<staff>2</staff>
			</note>
			<note>
				<pitch>
					<step>A</step>
					<octave>3</octave>
				</pitch>
				<duration>120</duration>
				<instrument id="P1-S1V0"/>
				<voice>5</voice>
				<type>quarter</type>
				<dot/>
				<stem>down</stem>
				<staff>2</staff>
			</note>
		</measure><!--
===========================================================
-->

		<measure number="20" width="98">
			<print new-system="no"></print>
			<attributes></attributes>
			<note>
				<pitch>
					<step>B</step>
					<alter>-1</alter>
					<octave>3</octave>
				</pitch>
				<duration>240</duration>
				<instrument id="P1-S0V0"/>
				<voice>1</voice>
				<type>half</type>
				<dot/>
				<accidental parentheses="no">flat</accidental>
				<stem>down</stem>
				<staff>1</staff>
				<lyric number="1">
					<syllabic>single</syllabic>
					<text>le</text>
				</lyric>
				<lyric number="2">
					<syllabic>begin</syllabic>
					<text>g.r</text>
				</lyric>
			</note>
			<backup>
				<duration>240</duration>
			</backup>
			<note>
				<pitch>
					<step>G</step>
					<alter>1</alter>
					<octave>3</octave>
				</pitch>
				<duration>240</duration>
				<instrument id="P1-S1V0"/>
				<voice>5</voice>
				<type>half</type>
				<dot/>
				<accidental parentheses="no">sharp</accidental>
				<stem>down</stem>
				<staff>2</staff>
			</note>
		</measure><!--
===========================================================
-->

		<measure number="21" width="175">
			<print new-system="no"></print>
			<attributes></attributes>
			<direction placement="above">
				<direction-type>
					<words relative-x="8.1438" default-y="19.3814" font-family="Times New Roman" font-style="normal" font-size="9" font-weight="normal" color="#000000">r_</words>
				</direction-type>
				<staff>1</staff>
			</direction>
			<direction placement="above">
				<direction-type>
					<words relative-x="13.2752" default-y="35.0594" font-family="Times New Roman" font-style="normal" font-size="10" font-weight="normal" color="#000000">2 O</words>
				</direction-type>
				<staff>1</staff>
			</direction>
			<note>
				<pitch>
					<step>A</step>
					<octave>3</octave>
				</pitch>
				<duration>80</duration>
				<instrument id="P1-S0V0"/>
				<voice>1</voice>
				<type>quarter</type>
				<stem>down</stem>
				<staff>1</staff>
				<lyric number="1">
					<syllabic>single</syllabic>
					<text>pe.us</text>
				</lyric>
				<lyric number="2">
					<syllabic>end</syllabic>
					<text>ce</text>
				</lyric>
			</note>
			<note>
				<pitch>
					<step>F</step>
					<octave>3</octave>
				</pitch>
				<duration>80</duration>
				<instrument id="P1-S0V0"/>
				<voice>1</voice>
				<type>quarter</type>
				<stem>down</stem>
				<staff>1</staff>
			</note>
			<note>
				<pitch>
					<step>E</step>
					<octave>3</octave>
				</pitch>
				<duration>80</duration>
				<instrument id="P1-S0V0"/>
				<voice>1</voice>
				<type>quarter</type>
				<stem>down</stem>
				<staff>1</staff>
				<lyric number="1">
					<syllabic>begin</syllabic>
					<text>pro</text>
				</lyric>
				<lyric number="2">
					<syllabic>begin</syllabic>
					<text>don</text>
				</lyric>
			</note>
			<backup>
				<duration>240</duration>
			</backup>
			<note>
				<pitch>
					<step>A</step>
					<octave>3</octave>
				</pitch>
				<duration>120</duration>
				<instrument id="P1-S1V0"/>
				<voice>5</voice>
				<type>quarter</type>
				<dot/>
				<stem>down</stem>
				<staff>2</staff>
			</note>
			<note>
				<pitch>
					<step>C</step>
					<octave>4</octave>
				</pitch>
				<duration>120</duration>
				<instrument id="P1-S1V0"/>
				<voice>5</voice>
				<type>quarter</type>
				<dot/>
				<stem>down</stem>
				<staff>2</staff>
			</note>
		</measure><!--
===========================================================
-->

		<measure number="22" width="124">
			<print new-system="no"></print>
			<attributes></attributes>
			<note>
				<pitch>
					<step>D</step>
					<octave>3</octave>
				</pitch>
				<duration>240</duration>
				<instrument id="P1-S0V0"/>
				<voice>1</voice>
				<type>half</type>
				<dot/>
				<stem>down</stem>
				<staff>1</staff>
				<lyric number="1">
					<syllabic>end</syllabic>
					<text>ver,</text>
				</lyric>
				<lyric number="2">
					<syllabic>end</syllabic>
					<text>ner,</text>
				</lyric>
			</note>
			<backup>
				<duration>240</duration>
			</backup>
			<note>
				<pitch>
					<step>D</step>
					<octave>4</octave>
				</pitch>
				<duration>120</duration>
				<instrument id="P1-S1V0"/>
				<voice>5</voice>
				<type>quarter</type>
				<dot/>
				<stem>down</stem>
				<staff>2</staff>
			</note>
			<note>
				<rest/>
				<duration>120</duration>
				<voice>5</voice>
				<type>quarter</type>
				<dot/>
				<staff>2</staff>
			</note>
		</measure><!--
===========================================================
-->

		<measure number="23" width="187">
			<print new-system="no"></print>
			<attributes></attributes>
			<note>
				<pitch>
					<step>D</step>
					<octave>4</octave>
				</pitch>
				<duration>120</duration>
				<instrument id="P1-S0V0"/>
				<voice>1</voice>
				<type>quarter</type>
				<dot/>
				<stem>down</stem>
				<staff>1</staff>
				<lyric number="1">
					<syllabic>single</syllabic>
					<text>b1ut</text>
				</lyric>
				<lyric number="2">
					<syllabic>single</syllabic>
					<text>Ca</text>
				</lyric>
			</note>
			<note>
				<pitch>
					<step>B</step>
					<octave>3</octave>
				</pitch>
				<duration>80</duration>
				<instrument id="P1-S0V0"/>
				<voice>1</voice>
				<type>quarter</type>
				<stem>down</stem>
				<staff>1</staff>
				<lyric number="1">
					<syllabic>single</syllabic>
					<text>me</text>
				</lyric>
				<lyric number="2">
					<syllabic>single</syllabic>
					<text>on</text>
				</lyric>
			</note>
			<note>
				<pitch>
					<step>A</step>
					<octave>3</octave>
				</pitch>
				<duration>40</duration>
				<instrument id="P1-S0V0"/>
				<voice>1</voice>
				<type>eighth</type>
				<stem>down</stem>
				<staff>1</staff>
				<lyric number="1">
					<syllabic>single</syllabic>
					<text>des-</text>
				</lyric>
				<lyric number="2">
					<syllabic>single</syllabic>
					<text>peut</text>
				</lyric>
			</note>
			<backup>
				<duration>240</duration>
			</backup>
			<note>
				<pitch>
					<step>D</step>
					<octave>3</octave>
				</pitch>
				<duration>120</duration>
				<instrument id="P1-S1V0"/>
				<voice>5</voice>
				<type>quarter</type>
				<dot/>
				<stem>down</stem>
				<staff>2</staff>
			</note>
			<note>
				<pitch>
					<step>D</step>
					<octave>3</octave>
				</pitch>
				<duration>40</duration>
				<instrument id="P1-S1V0"/>
				<voice>5</voice>
				<type>eighth</type>
				<stem>down</stem>
				<staff>2</staff>
			</note>
			<note>
				<pitch>
					<step>D</step>
					<octave>3</octave>
				</pitch>
				<duration>80</duration>
				<instrument id="P1-S1V0"/>
				<voice>5</voice>
				<type>quarter</type>
				<stem>down</stem>
				<staff>2</staff>
			</note>
		</measure><!--
===========================================================
-->

		<measure number="24" width="179">
			<print new-system="no"></print>
			<attributes></attributes>
			<note>
				<pitch>
					<step>G</step>
					<octave>3</octave>
				</pitch>
				<duration>120</duration>
				<instrument id="P1-S0V0"/>
				<voice>1</voice>
				<type>quarter</type>
				<dot/>
				<stem>down</stem>
				<staff>1</staff>
				<lyric number="1">
					<syllabic>single</syllabic>
					<text>plaist,m</text>
				</lyric>
				<lyric number="2">
					<syllabic>single</syllabic>
					<text>bien</text>
				</lyric>
			</note>
			<note>
				<pitch>
					<step>E</step>
					<octave>4</octave>
				</pitch>
				<duration>40</duration>
				<instrument id="P1-S0V0"/>
				<voice>1</voice>
				<type>eighth</type>
				<stem>down</stem>
				<staff>1</staff>
				<lyric number="1">
					<syllabic>single</syllabic>
					<text>is</text>
				</lyric>
				<lyric number="2">
					<syllabic>single</syllabic>
					<text>di--</text>
				</lyric>
			</note>
			<backup>
				<duration>160</duration>
			</backup>
			<note>
				<pitch>
					<step>E</step>
					<octave>3</octave>
				</pitch>
				<duration>160</duration>
				<instrument id="P1-S1V0"/>
				<voice>5</voice>
				<type>half</type>
				<stem>down</stem>
				<staff>2</staff>
			</note>
			<note>
				<pitch>
					<step>F</step>
					<octave>3</octave>
				</pitch>
				<duration>80</duration>
				<instrument id="P1-S1V0"/>
				<voice>5</voice>
				<type>quarter</type>
				<stem>down</stem>
				<staff>2</staff>
			</note>
		</measure><!--
===========================================================
-->

		<measure number="25" width="220">
			<print new-system="yes">
				<system-layout>
					<system-margins>
						<left-margin>0</left-margin>
						<right-margin>3</right-margin>
					</system-margins>
					<system-distance>114</system-distance>
				</system-layout>
				<staff-layout number="2">
					<staff-distance>73</staff-distance>
				</staff-layout>
			</print>
			<attributes></attributes>
			<note>
				<pitch>
					<step>E</step>
					<octave>4</octave>
				</pitch>
				<duration>80</duration>
				<instrument id="P1-S0V0"/>
				<voice>1</voice>
				<type>quarter</type>
				<stem>down</stem>
				<staff>1</staff>
				<lyric number="1">
					<syllabic>begin</syllabic>
					<text>sin</text>
				</lyric>
				<lyric number="2">
					<syllabic>single</syllabic>
					<text>-re</text>
				</lyric>
			</note>
			<direction placement="above">
				<direction-type>
					<words relative-x="-25.9538" default-y="98.9982" font-family="Times New Roman" font-style="normal" font-size="10" font-weight="normal" color="#000000">t .si</words>
				</direction-type>
				<staff>1</staff>
			</direction>
			<direction placement="above">
				<direction-type>
					<words relative-x="-20.1701" default-y="78.3668" font-family="Times New Roman" font-style="normal" font-size="10" font-weight="normal" color="#000000">n - .te</words>
				</direction-type>
				<staff>1</staff>
			</direction>
			<note>
				<pitch>
					<step>C</step>
					<octave>4</octave>
				</pitch>
				<duration>40</duration>
				<instrument id="P1-S0V0"/>
				<voice>1</voice>
				<type>eighth</type>
				<stem>down</stem>
				<staff>1</staff>
			</note>
			<note>
				<pitch>
					<step>D</step>
					<octave>4</octave>
				</pitch>
				<duration>40</duration>
				<instrument id="P1-S0V0"/>
				<voice>1</voice>
				<type>eighth</type>
				<stem>down</stem>
				<staff>1</staff>
				<lyric number="1">
					<syllabic>end</syllabic>
					<text>-si</text>
				</lyric>
				<lyric number="2">
					<syllabic>single</syllabic>
					<text>si</text>
				</lyric>
			</note>
			<note>
				<pitch>
					<step>A</step>
					<octave>3</octave>
				</pitch>
				<duration>80</duration>
				<instrument id="P1-S0V0"/>
				<voice>1</voice>
				<type>quarter</type>
				<stem>down</stem>
				<staff>1</staff>
			</note>
			<direction placement="above">
				<direction-type>
					<words relative-x="-12.4764" default-y="75.9017" font-family="Times New Roman" font-style="normal" font-size="10" font-weight="normal" color="#000000">gra -</words>
				</direction-type>
				<staff>1</staff>
			</direction>
			<direction placement="above">
				<direction-type>
					<words relative-x="-2.8548" default-y="98.5893" font-family="Times New Roman" font-style="normal" font-size="10" font-weight="normal" color="#000000">le</words>
				</direction-type>
				<staff>1</staff>
			</direction>
			<backup>
				<duration>240</duration>
			</backup>
			<direction placement="below">
				<direction-type>
					<words relative-x="20.2733" default-y="-57.3381" font-family="Times New Roman" font-style="normal" font-size="10" font-weight="normal" color="#000000">-re</words>
				</direction-type>
				<staff>2</staff>
			</direction>
			<direction placement="below">
				<direction-type>
					<words relative-x="25.9291" default-y="-35.0594" font-family="Times New Roman" font-style="normal" font-size="10" font-weight="normal" color="#000000">ain</words>
				</direction-type>
				<staff>2</staff>
			</direction>
			<note>
				<pitch>
					<step>E</step>
					<octave>3</octave>
				</pitch>
				<duration>120</duration>
				<instrument id="P1-S1V0"/>
				<voice>5</voice>
				<type>quarter</type>
				<dot/>
				<stem>down</stem>
				<staff>2</staff>
				<notations>
					<articulations>
						<staccato placement="below"/>
					</articulations>
				</notations>
			</note>
			<direction placement="below">
				<direction-type>
					<words relative-x="7.5411" default-y="-35.4683" font-family="Times New Roman" font-style="normal" font-size="10" font-weight="normal" color="#000000">si</words>
				</direction-type>
				<staff>2</staff>
			</direction>
			<direction placement="below">
				<direction-type>
					<words relative-x="8.0124" default-y="-54.4408" font-family="Times New Roman" font-style="normal" font-size="10" font-weight="normal" color="#000000">si</words>
				</direction-type>
				<staff>2</staff>
			</direction>
			<note>
				<pitch>
					<step>D</step>
					<octave>3</octave>
				</pitch>
				<duration>80</duration>
				<instrument id="P1-S1V0"/>
				<voice>5</voice>
				<type>quarter</type>
				<stem>down</stem>
				<staff>2</staff>
			</note>
			<note>
				<pitch>
					<step>A</step>
					<octave>3</octave>
				</pitch>
				<duration>40</duration>
				<instrument id="P1-S1V0"/>
				<voice>5</voice>
				<type>eighth</type>
				<stem>down</stem>
				<staff>2</staff>
			</note>
		</measure><!--
===========================================================
-->

		<measure number="26" width="194">
			<print new-system="no"></print>
			<attributes></attributes>
			<note>
				<pitch>
					<step>G</step>
					<octave>3</octave>
				</pitch>
				<duration>80</duration>
				<instrument id="P1-S0V0"/>
				<voice>1</voice>
				<type>quarter</type>
				<stem>down</stem>
				<staff>1</staff>
				<lyric number="1">
					<syllabic>single</syllabic>
					<text>faut</text>
				</lyric>
				<lyric number="2">
					<syllabic>single</syllabic>
					<text>hut</text>
				</lyric>
			</note>
			<direction placement="above">
				<direction-type>
					<words relative-x="12.1391" default-y="93.6359" font-family="Times New Roman" font-style="normal" font-size="10" font-weight="normal" color="#000000">pells</words>
				</direction-type>
				<staff>1</staff>
			</direction>
			<direction placement="above">
				<direction-type>
					<words relative-x="26.2476" default-y="74.6634" font-family="Times New Roman" font-style="normal" font-size="10" font-weight="normal" color="#000000">ce</words>
				</direction-type>
				<staff>1</staff>
			</direction>
			<note>
				<pitch>
					<step>F</step>
					<octave>3</octave>
				</pitch>
				<duration>40</duration>
				<instrument id="P1-S0V0"/>
				<voice>1</voice>
				<type>eighth</type>
				<stem>down</stem>
				<staff>1</staff>
				<lyric number="1">
					<syllabic>single</syllabic>
					<text>$ne</text>
				</lyric>
				<lyric number="2">
					<syllabic>begin</syllabic>
					<text>llu&apos;onloi</text>
				</lyric>
			</note>
			<note>
				<pitch>
					<step>E</step>
					<octave>3</octave>
				</pitch>
				<duration>120</duration>
				<instrument id="P1-S0V0"/>
				<voice>1</voice>
				<type>quarter</type>
				<dot/>
				<stem>down</stem>
				<staff>1</staff>
				<lyric number="1">
					<syllabic>begin</syllabic>
					<text>so</text>
				</lyric>
			</note>
			<direction placement="above">
				<direction-type>
					<words relative-x="-37.6168" default-y="78.7873" font-family="Times New Roman" font-style="normal" font-size="10" font-weight="normal" color="#000000">don - ner,</words>
				</direction-type>
				<staff>1</staff>
			</direction>
			<direction placement="above">
				<direction-type>
					<words relative-x="-36.7617" default-y="94.0448" font-family="Times New Roman" font-style="normal" font-size="10" font-weight="normal" color="#000000">pro</words>
				</direction-type>
				<staff>1</staff>
			</direction>
			<backup>
				<duration>240</duration>
			</backup>
			<direction placement="below">
				<direction-type>
					<words relative-x="6.8702" default-y="-51.1463" font-family="Times New Roman" font-style="normal" font-size="10" font-weight="normal" color="#000000"> autllu&apos;on loi _</words>
				</direction-type>
				<staff>2</staff>
			</direction>
			<direction placement="below">
				<direction-type>
					<words relative-x="7.7193" default-y="-35.4683" font-family="Times New Roman" font-style="normal" font-size="10" font-weight="normal" color="#000000">faut I e</words>
				</direction-type>
				<staff>2</staff>
			</direction>
			<note>
				<pitch>
					<step>C</step>
					<octave>4</octave>
				</pitch>
				<duration>40</duration>
				<instrument id="P1-S1V0"/>
				<voice>5</voice>
				<type>eighth</type>
				<stem>down</stem>
				<staff>2</staff>
			</note>
			<note>
				<pitch>
					<step>D</step>
					<octave>4</octave>
				</pitch>
				<duration>80</duration>
				<instrument id="P1-S1V0"/>
				<voice>5</voice>
				<type>quarter</type>
				<stem>down</stem>
				<staff>2</staff>
			</note>
			<direction placement="below">
				<direction-type>
					<words relative-x="30.5803" default-y="-40.0128" font-family="Times New Roman" font-style="normal" font-size="10" font-weight="normal" color="#000000">so  _</words>
				</direction-type>
				<staff>2</staff>
			</direction>
			<note>
				<pitch>
					<step>C</step>
					<alter>1</alter>
					<octave>4</octave>
				</pitch>
				<duration>120</duration>
				<instrument id="P1-S1V0"/>
				<voice>5</voice>
				<type>quarter</type>
				<dot/>
				<accidental parentheses="no">sharp</accidental>
				<stem>down</stem>
				<staff>2</staff>
			</note>
		</measure><!--
===========================================================
-->

		<measure number="27" width="192">
			<print new-system="no"></print>
			<attributes></attributes>
			<note>
				<rest/>
				<duration>80</duration>
				<voice>1</voice>
				<type>quarter</type>
				<staff>1</staff>
			</note>
			<direction placement="above">
				<direction-type>
					<words relative-x="-2.1238" default-y="94.4654" font-family="Times New Roman" font-style="normal" font-size="10" font-weight="normal" color="#000000">ver,</words>
				</direction-type>
				<staff>1</staff>
			</direction>
			<note>
				<pitch>
					<step>D</step>
					<octave>3</octave>
				</pitch>
				<duration>40</duration>
				<instrument id="P1-S0V0"/>
				<voice>1</voice>
				<type>eighth</type>
				<stem>down</stem>
				<staff>1</staff>
			</note>
			<note>
				<pitch>
					<step>D</step>
					<octave>3</octave>
				</pitch>
				<duration>120</duration>
				<instrument id="P1-S0V0"/>
				<voice>1</voice>
				<type>quarter</type>
				<dot/>
				<stem>down</stem>
				<staff>1</staff>
				<lyric number="1">
					<syllabic>middle</syllabic>
					<text>&apos;</text>
					<extend/>
				</lyric>
			</note>
			<direction placement="above">
				<direction-type>
					<words relative-x="-5.5611" default-y="98.9982" font-family="Times New Roman" font-style="normal" font-size="10" font-weight="normal" color="#000000">nout me des _ plaist,</words>
				</direction-type>
				<staff>1</staff>
			</direction>
			<backup>
				<duration>240</duration>
			</backup>
			<note>
				<pitch>
					<step>D</step>
					<octave>4</octave>
				</pitch>
				<duration>40</duration>
				<instrument id="P1-S1V0"/>
				<voice>5</voice>
				<type>eighth</type>
				<stem>down</stem>
				<staff>2</staff>
			</note>
			<note>
				<pitch>
					<step>A</step>
					<octave>3</octave>
				</pitch>
				<duration>80</duration>
				<tie type="start"/>
				<instrument id="P1-S1V0"/>
				<voice>5</voice>
				<type>quarter</type>
				<stem>down</stem>
				<staff>2</staff>
				<notations>
					<tied type="start" number="1" orientation="over"/>
				</notations>
			</note>
			<note>
				<pitch>
					<step>A</step>
					<octave>3</octave>
				</pitch>
				<duration>80</duration>
				<tie type="stop"/>
				<instrument id="P1-S1V0"/>
				<voice>5</voice>
				<type>quarter</type>
				<stem>down</stem>
				<staff>2</staff>
				<notations>
					<tied type="stop" number="1" orientation="over"/>
				</notations>
			</note>
			<note>
				<pitch>
					<step>D</step>
					<octave>4</octave>
				</pitch>
				<duration>40</duration>
				<instrument id="P1-S1V0"/>
				<voice>5</voice>
				<type>eighth</type>
				<stem>down</stem>
				<staff>2</staff>
			</note>
		</measure><!--
===========================================================
-->

		<measure number="28" width="120">
			<print new-system="no"></print>
			<attributes></attributes>
			<direction placement="above">
				<direction-type>
					<words relative-x="2.5740" default-y="78.7873" font-family="Times New Roman" font-style="normal" font-size="10" font-weight="normal" color="#000000">Car</words>
				</direction-type>
				<staff>1</staff>
			</direction>
			<note>
				<pitch>
					<step>A</step>
					<octave>3</octave>
				</pitch>
				<duration>120</duration>
				<instrument id="P1-S0V0"/>
				<voice>1</voice>
				<type>quarter</type>
				<dot/>
				<stem>down</stem>
				<staff>1</staff>
			</note>
			<direction placement="above">
				<direction-type>
					<words relative-x="6.6476" default-y="77.9579" font-family="Times New Roman" font-style="normal" font-size="10" font-weight="normal" color="#000000">on peut</words>
				</direction-type>
				<staff>1</staff>
			</direction>
			<note>
				<pitch>
					<step>D</step>
					<octave>4</octave>
				</pitch>
				<duration>120</duration>
				<instrument id="P1-S0V0"/>
				<voice>1</voice>
				<type>quarter</type>
				<dot/>
				<stem>down</stem>
				<staff>1</staff>
			</note>
			<backup>
				<duration>240</duration>
			</backup>
			<note>
				<pitch>
					<step>C</step>
					<octave>4</octave>
				</pitch>
				<duration>120</duration>
				<instrument id="P1-S1V0"/>
				<voice>5</voice>
				<type>quarter</type>
				<dot/>
				<stem>down</stem>
				<staff>2</staff>
			</note>
			<note>
				<pitch>
					<step>B</step>
					<octave>3</octave>
				</pitch>
				<duration>120</duration>
				<instrument id="P1-S1V0"/>
				<voice>5</voice>
				<type>quarter</type>
				<dot/>
				<stem>down</stem>
				<staff>2</staff>
			</note>
		</measure><!--
===========================================================
-->

		<measure number="29" width="138">
			<print new-system="no"></print>
			<attributes></attributes>
			<note>
				<pitch>
					<step>C</step>
					<octave>4</octave>
				</pitch>
				<duration>240</duration>
				<instrument id="P1-S0V0"/>
				<voice>1</voice>
				<type>half</type>
				<dot/>
				<stem>down</stem>
				<staff>1</staff>
				<lyric number="1">
					<syllabic>end</syllabic>
					<text>-</text>
				</lyric>
				<lyric number="2">
					<syllabic>middle</syllabic>
					<text>-</text>
				</lyric>
			</note>
			<direction placement="above">
				<direction-type>
					<words relative-x="-76.1115" default-y="78.3668" font-family="Times New Roman" font-style="normal" font-size="10" font-weight="normal" color="#000000">bien</words>
				</direction-type>
				<staff>1</staff>
			</direction>
			<backup>
				<duration>240</duration>
			</backup>
			<note>
				<pitch>
					<step>A</step>
					<octave>3</octave>
				</pitch>
				<duration>80</duration>
				<instrument id="P1-S1V0"/>
				<voice>5</voice>
				<type>quarter</type>
				<stem>down</stem>
				<staff>2</staff>
			</note>
			<note>
				<pitch>
					<step>F</step>
					<octave>3</octave>
				</pitch>
				<duration>80</duration>
				<instrument id="P1-S1V0"/>
				<voice>5</voice>
				<type>quarter</type>
				<stem>down</stem>
				<staff>2</staff>
			</note>
			<note>
				<pitch>
					<step>E</step>
					<octave>3</octave>
				</pitch>
				<duration>80</duration>
				<instrument id="P1-S1V0"/>
				<voice>5</voice>
				<type>quarter</type>
				<stem>down</stem>
				<staff>2</staff>
			</note>
		</measure><!--
===========================================================
-->

		<measure number="30" width="91">
			<print new-system="no"></print>
			<attributes></attributes>
			<direction placement="above">
				<direction-type>
					<words relative-x="19.2582" default-y="98.9982" font-family="Times New Roman" font-style="normal" font-size="10" font-weight="normal" color="#000000">m is</words>
				</direction-type>
				<staff>1</staff>
			</direction>
			<note>
				<pitch>
					<step>D</step>
					<octave>4</octave>
				</pitch>
				<duration>320</duration>
				<instrument id="P1-S0V0"/>
				<voice>1</voice>
				<type>whole</type>
				<stem>none</stem>
				<staff>1</staff>
				<lyric number="1">
					<syllabic>single</syllabic>
					<text>-ie.</text>
				</lyric>
				<lyric number="2">
					<syllabic>end</syllabic>
					<text>e:</text>
				</lyric>
				<lyric number="3">
					<syllabic>single</syllabic>
					<text>-I</text>
				</lyric>
			</note>
			<direction placement="above">
				<direction-type>
					<words relative-x="-92.3405" default-y="79.6051" font-family="Times New Roman" font-style="normal" font-size="10" font-weight="normal" color="#000000">di -</words>
				</direction-type>
				<staff>1</staff>
			</direction>
			<backup>
				<duration>320</duration>
			</backup>
			<direction placement="below">
				<direction-type>
					<words relative-x="6.4259" default-y="-34.6505" font-family="Times New Roman" font-style="normal" font-size="10" font-weight="normal" color="#000000">- ie.</words>
				</direction-type>
				<staff>2</staff>
			</direction>
			<note>
				<pitch>
					<step>D</step>
					<octave>3</octave>
				</pitch>
				<duration>320</duration>
				<instrument id="P1-S1V0"/>
				<voice>5</voice>
				<type>whole</type>
				<stem>none</stem>
				<staff>2</staff>
			</note>
			<backup>
				<duration>80</duration>
			</backup>
			<barline location="right">
				<bar-style>light-heavy</bar-style>
			</barline>
		</measure>
	</part>
</score-partwise>