<?xml version="1.0" encoding="UTF-8" standalone="no"?>
<!DOCTYPE score-partwise PUBLIC "-//Recordare//DTD MusicXML 1.1 Partwise//EN" "http://www.musicxml.org/dtds/partwise.dtd">

<score-partwise version="2.0">
	<movement-title></movement-title>
	<identification>
		<creator type="composer"></creator>
		<encoding>
			<software>SmartScore X2 Pro</software>
			<encoding-date>2018-07-24</encoding-date>
			<supports attribute="new-system" element="print" type="yes" value="yes"/>
			<supports attribute="new-page" element="print" type="yes" value="yes"/>
		</encoding>
	</identification>
	<defaults>
		<scaling>
			<millimeters>6.00</millimeters>
			<tenths>40</tenths>
		</scaling>
		<page-layout>
			<page-height>1862.67</page-height>
			<page-width>1439.33</page-width>
			<page-margins type="both">
				<left-margin>100.76</left-margin>
				<right-margin>100.76</right-margin>
				<top-margin>192.93</top-margin>
				<bottom-margin>192.93</bottom-margin>
			</page-margins>
		</page-layout>
	</defaults>
	<part-list>
		<score-part id="P1">
			<part-name>Piano</part-name>
			<part-abbreviation>Pno</part-abbreviation>
			<score-instrument id="P1-S0V0">
				<instrument-name>Grand Piano</instrument-name>
			</score-instrument>
			<score-instrument id="P1-S1V0">
				<instrument-name>Grand Piano</instrument-name>
			</score-instrument>
			<midi-instrument id="P1-S1V0">
				<midi-channel>5</midi-channel>
				<midi-program>1</midi-program>
				<volume>78</volume>
				<pan>0</pan>
			</midi-instrument>
			<midi-instrument id="P1-S0V0">
				<midi-channel>1</midi-channel>
				<midi-program>1</midi-program>
				<volume>78</volume>
				<pan>0</pan>
			</midi-instrument>
		</score-part>
	</part-list><!--
===========================================================
-->

	<part id="P1">
		<measure number="1" width="195">
			<print>
				<page-layout>
					<page-height>1862.67</page-height>
					<page-width>1439.33</page-width>
					<page-margins>
						<left-margin>100.76</left-margin>
						<right-margin>100.76</right-margin>
						<top-margin>192.93</top-margin>
						<bottom-margin>96.46</bottom-margin>
					</page-margins>
				</page-layout>
				<system-layout>
					<system-margins>
						<left-margin>169</left-margin>
						<right-margin>0</right-margin>
					</system-margins>
					<top-system-distance>0</top-system-distance>
				</system-layout>
				<staff-layout number="2">
					<staff-distance>96</staff-distance>
				</staff-layout>
			</print>
			<attributes>
				<divisions>20</divisions>
				<key>
					<fifths>0</fifths>
				</key>
				<time>
					<beats>2</beats>
					<beat-type>4</beat-type>
				</time>
				<staves>2</staves>
				<clef number="1">
					<sign>F</sign>
					<line>4</line>
				</clef>
				<clef number="2">
					<sign>F</sign>
					<line>4</line>
				</clef>
				<staff-details number="1" print-object="yes">
					<staff-size>85</staff-size>
				</staff-details>
				<staff-details number="2" print-object="yes">
					<staff-size>85</staff-size>
				</staff-details>
			</attributes>
			<attributes></attributes>
			<note>
				<pitch>
					<step>G</step>
					<octave>3</octave>
				</pitch>
				<duration>20</duration>
				<instrument id="P1-S0V0"/>
				<voice>1</voice>
				<type>quarter</type>
				<stem>down</stem>
				<staff>1</staff>
			</note>
			<note>
				<pitch>
					<step>F</step>
					<octave>3</octave>
				</pitch>
				<duration>20</duration>
				<instrument id="P1-S0V0"/>
				<voice>1</voice>
				<type>quarter</type>
				<stem>down</stem>
				<staff>1</staff>
			</note>
			<backup>
				<duration>40</duration>
			</backup>
			<note>
				<pitch>
					<step>C</step>
					<octave>3</octave>
				</pitch>
				<duration>20</duration>
				<instrument id="P1-S1V0"/>
				<voice>5</voice>
				<type>quarter</type>
				<stem>up</stem>
				<staff>2</staff>
			</note>
			<note>
				<pitch>
					<step>D</step>
					<octave>3</octave>
				</pitch>
				<duration>20</duration>
				<instrument id="P1-S1V0"/>
				<voice>5</voice>
				<type>quarter</type>
				<stem>down</stem>
				<staff>2</staff>
			</note>
		</measure><!--
===========================================================
-->

		<measure number="2" width="122">
			<print new-system="no"></print>
			<attributes></attributes>
			<note>
				<pitch>
					<step>E</step>
					<octave>3</octave>
				</pitch>
				<duration>30</duration>
				<instrument id="P1-S0V0"/>
				<voice>1</voice>
				<type>quarter</type>
				<dot/>
				<stem>down</stem>
				<staff>1</staff>
			</note>
			<note>
				<pitch>
					<step>F</step>
					<octave>3</octave>
				</pitch>
				<duration>10</duration>
				<instrument id="P1-S0V0"/>
				<voice>1</voice>
				<type>eighth</type>
				<stem>down</stem>
				<staff>1</staff>
			</note>
			<backup>
				<duration>40</duration>
			</backup>
			<note>
				<pitch>
					<step>E</step>
					<octave>3</octave>
				</pitch>
				<duration>30</duration>
				<instrument id="P1-S1V0"/>
				<voice>5</voice>
				<type>quarter</type>
				<dot/>
				<stem>down</stem>
				<staff>2</staff>
			</note>
			<note>
				<pitch>
					<step>D</step>
					<octave>3</octave>
				</pitch>
				<duration>10</duration>
				<instrument id="P1-S1V0"/>
				<voice>5</voice>
				<type>eighth</type>
				<stem>down</stem>
				<staff>2</staff>
			</note>
		</measure><!--
===========================================================
-->

		<measure number="3" width="124">
			<print new-system="no"></print>
			<attributes></attributes>
			<note>
				<pitch>
					<step>A</step>
					<octave>3</octave>
				</pitch>
				<duration>20</duration>
				<instrument id="P1-S0V0"/>
				<voice>1</voice>
				<type>quarter</type>
				<stem>down</stem>
				<staff>1</staff>
			</note>
			<note>
				<pitch>
					<step>G</step>
					<octave>3</octave>
				</pitch>
				<duration>20</duration>
				<instrument id="P1-S0V0"/>
				<voice>1</voice>
				<type>quarter</type>
				<stem>down</stem>
				<staff>1</staff>
			</note>
			<backup>
				<duration>40</duration>
			</backup>
			<note>
				<pitch>
					<step>C</step>
					<octave>3</octave>
				</pitch>
				<duration>20</duration>
				<instrument id="P1-S1V0"/>
				<voice>5</voice>
				<type>quarter</type>
				<stem>up</stem>
				<staff>2</staff>
			</note>
			<note>
				<pitch>
					<step>C</step>
					<octave>3</octave>
				</pitch>
				<duration>20</duration>
				<instrument id="P1-S1V0"/>
				<voice>5</voice>
				<type>quarter</type>
				<stem>up</stem>
				<staff>2</staff>
			</note>
		</measure><!--
===========================================================
-->

		<measure number="4" width="120">
			<print new-system="no"></print>
			<attributes></attributes>
			<note>
				<pitch>
					<step>F</step>
					<octave>3</octave>
				</pitch>
				<duration>20</duration>
				<instrument id="P1-S0V0"/>
				<voice>1</voice>
				<type>quarter</type>
				<stem>down</stem>
				<staff>1</staff>
			</note>
			<note>
				<pitch>
					<step>E</step>
					<octave>3</octave>
				</pitch>
				<duration>20</duration>
				<instrument id="P1-S0V0"/>
				<voice>1</voice>
				<type>quarter</type>
				<stem>down</stem>
				<staff>1</staff>
			</note>
			<backup>
				<duration>40</duration>
			</backup>
			<note>
				<pitch>
					<step>D</step>
					<octave>3</octave>
				</pitch>
				<duration>20</duration>
				<instrument id="P1-S1V0"/>
				<voice>5</voice>
				<type>quarter</type>
				<stem>down</stem>
				<staff>2</staff>
			</note>
			<note>
				<pitch>
					<step>C</step>
					<octave>3</octave>
				</pitch>
				<duration>20</duration>
				<instrument id="P1-S1V0"/>
				<voice>5</voice>
				<type>quarter</type>
				<stem>up</stem>
				<staff>2</staff>
			</note>
		</measure><!--
===========================================================
-->

		<measure number="5" width="109">
			<print new-system="no"></print>
			<attributes></attributes>
			<note>
				<pitch>
					<step>D</step>
					<octave>3</octave>
				</pitch>
				<duration>20</duration>
				<instrument id="P1-S0V0"/>
				<voice>1</voice>
				<type>quarter</type>
				<stem>down</stem>
				<staff>1</staff>
			</note>
			<note>
				<rest/>
				<duration>20</duration>
				<voice>1</voice>
				<type>quarter</type>
				<staff>1</staff>
			</note>
			<backup>
				<duration>40</duration>
			</backup>
			<note>
				<pitch>
					<step>D</step>
					<octave>3</octave>
				</pitch>
				<duration>20</duration>
				<instrument id="P1-S1V0"/>
				<voice>5</voice>
				<type>quarter</type>
				<stem>down</stem>
				<staff>2</staff>
			</note>
			<note>
				<rest/>
				<duration>20</duration>
				<voice>5</voice>
				<type>quarter</type>
				<staff>2</staff>
			</note>
		</measure><!--
===========================================================
-->

		<measure number="6" width="119">
			<print new-system="no"></print>
			<attributes></attributes>
			<note>
				<pitch>
					<step>A</step>
					<octave>3</octave>
				</pitch>
				<duration>20</duration>
				<instrument id="P1-S0V0"/>
				<voice>1</voice>
				<type>quarter</type>
				<stem>down</stem>
				<staff>1</staff>
			</note>
			<note>
				<pitch>
					<step>G</step>
					<octave>3</octave>
				</pitch>
				<duration>20</duration>
				<instrument id="P1-S0V0"/>
				<voice>1</voice>
				<type>quarter</type>
				<stem>down</stem>
				<staff>1</staff>
			</note>
			<backup>
				<duration>40</duration>
			</backup>
			<note>
				<pitch>
					<step>D</step>
					<octave>3</octave>
				</pitch>
				<duration>20</duration>
				<instrument id="P1-S1V0"/>
				<voice>5</voice>
				<type>quarter</type>
				<stem>down</stem>
				<staff>2</staff>
			</note>
			<note>
				<pitch>
					<step>E</step>
					<octave>3</octave>
				</pitch>
				<duration>20</duration>
				<instrument id="P1-S1V0"/>
				<voice>5</voice>
				<type>quarter</type>
				<stem>down</stem>
				<staff>2</staff>
			</note>
		</measure><!--
===========================================================
-->

		<measure number="7" width="145">
			<print new-system="no"></print>
			<attributes></attributes>
			<note>
				<pitch>
					<step>F</step>
					<octave>3</octave>
				</pitch>
				<duration>20</duration>
				<instrument id="P1-S0V0"/>
				<voice>1</voice>
				<type>quarter</type>
				<stem>down</stem>
				<staff>1</staff>
			</note>
			<note>
				<rest/>
				<duration>10</duration>
				<voice>1</voice>
				<type>eighth</type>
				<staff>1</staff>
			</note>
			<note>
				<pitch>
					<step>A</step>
					<octave>3</octave>
				</pitch>
				<duration>10</duration>
				<instrument id="P1-S0V0"/>
				<voice>1</voice>
				<type>eighth</type>
				<stem>down</stem>
				<staff>1</staff>
			</note>
			<backup>
				<duration>40</duration>
			</backup>
			<note>
				<pitch>
					<step>F</step>
					<octave>3</octave>
				</pitch>
				<duration>20</duration>
				<instrument id="P1-S1V0"/>
				<voice>5</voice>
				<type>quarter</type>
				<stem>down</stem>
				<staff>2</staff>
			</note>
			<note>
				<pitch>
					<step>F</step>
					<octave>3</octave>
				</pitch>
				<duration>20</duration>
				<instrument id="P1-S1V0"/>
				<voice>5</voice>
				<type>quarter</type>
				<stem>down</stem>
				<staff>2</staff>
			</note>
		</measure><!--
===========================================================
-->

		<measure number="8" width="128">
			<print new-system="no"></print>
			<attributes></attributes>
			<note>
				<pitch>
					<step>G</step>
					<octave>3</octave>
				</pitch>
				<duration>20</duration>
				<instrument id="P1-S0V0"/>
				<voice>1</voice>
				<type>quarter</type>
				<stem>down</stem>
				<staff>1</staff>
			</note>
			<note>
				<pitch>
					<step>F</step>
					<octave>3</octave>
				</pitch>
				<duration>20</duration>
				<instrument id="P1-S0V0"/>
				<voice>1</voice>
				<type>quarter</type>
				<stem>down</stem>
				<staff>1</staff>
			</note>
			<backup>
				<duration>40</duration>
			</backup>
			<note>
				<pitch>
					<step>C</step>
					<octave>3</octave>
				</pitch>
				<duration>20</duration>
				<instrument id="P1-S1V0"/>
				<voice>5</voice>
				<type>quarter</type>
				<stem>up</stem>
				<staff>2</staff>
			</note>
			<note>
				<pitch>
					<step>D</step>
					<octave>3</octave>
				</pitch>
				<duration>20</duration>
				<instrument id="P1-S1V0"/>
				<voice>5</voice>
				<type>quarter</type>
				<stem>down</stem>
				<staff>2</staff>
			</note>
		</measure><!--
===========================================================
-->

		<measure number="9" width="203">
			<print new-system="yes">
				<system-layout>
					<system-margins>
						<left-margin>14</left-margin>
						<right-margin>0</right-margin>
					</system-margins>
					<system-distance>132</system-distance>
				</system-layout>
				<staff-layout number="2">
					<staff-distance>101</staff-distance>
				</staff-layout>
			</print>
			<attributes></attributes>
			<note>
				<pitch>
					<step>E</step>
					<octave>3</octave>
				</pitch>
				<duration>10</duration>
				<instrument id="P1-S0V0"/>
				<voice>1</voice>
				<type>eighth</type>
				<stem>down</stem>
				<staff>1</staff>
				<beam number="1">begin</beam>
			</note>
			<note>
				<pitch>
					<step>G</step>
					<octave>3</octave>
				</pitch>
				<duration>10</duration>
				<instrument id="P1-S0V0"/>
				<voice>1</voice>
				<type>eighth</type>
				<stem>down</stem>
				<staff>1</staff>
				<beam number="1">end</beam>
			</note>
			<note>
				<pitch>
					<step>F</step>
					<octave>3</octave>
				</pitch>
				<duration>10</duration>
				<instrument id="P1-S0V0"/>
				<voice>1</voice>
				<type>eighth</type>
				<stem>down</stem>
				<staff>1</staff>
				<beam number="1">begin</beam>
			</note>
			<note>
				<pitch>
					<step>E</step>
					<octave>3</octave>
				</pitch>
				<duration>10</duration>
				<instrument id="P1-S0V0"/>
				<voice>1</voice>
				<type>eighth</type>
				<stem>down</stem>
				<staff>1</staff>
				<beam number="1">end</beam>
			</note>
			<backup>
				<duration>40</duration>
			</backup>
			<note>
				<pitch>
					<step>G</step>
					<octave>3</octave>
				</pitch>
				<duration>10</duration>
				<instrument id="P1-S1V0"/>
				<voice>5</voice>
				<type>eighth</type>
				<stem>down</stem>
				<staff>2</staff>
				<beam number="1">begin</beam>
			</note>
			<note>
				<pitch>
					<step>E</step>
					<octave>3</octave>
				</pitch>
				<duration>10</duration>
				<instrument id="P1-S1V0"/>
				<voice>5</voice>
				<type>eighth</type>
				<stem>down</stem>
				<staff>2</staff>
				<beam number="1">end</beam>
			</note>
			<note>
				<pitch>
					<step>D</step>
					<octave>3</octave>
				</pitch>
				<duration>10</duration>
				<instrument id="P1-S1V0"/>
				<voice>5</voice>
				<type>eighth</type>
				<stem>down</stem>
				<staff>2</staff>
				<beam number="1">begin</beam>
			</note>
			<note>
				<pitch>
					<step>E</step>
					<octave>3</octave>
				</pitch>
				<duration>10</duration>
				<instrument id="P1-S1V0"/>
				<voice>5</voice>
				<type>eighth</type>
				<stem>down</stem>
				<staff>2</staff>
				<beam number="1">end</beam>
			</note>
		</measure><!--
===========================================================
-->

		<measure number="10" width="106">
			<print new-system="no"></print>
			<attributes></attributes>
			<note>
				<pitch>
					<step>D</step>
					<octave>3</octave>
				</pitch>
				<duration>20</duration>
				<instrument id="P1-S0V0"/>
				<voice>1</voice>
				<type>quarter</type>
				<stem>down</stem>
				<staff>1</staff>
			</note>
			<note>
				<pitch>
					<step>C</step>
					<octave>3</octave>
				</pitch>
				<duration>20</duration>
				<instrument id="P1-S0V0"/>
				<voice>1</voice>
				<type>quarter</type>
				<stem>up</stem>
				<staff>1</staff>
			</note>
			<backup>
				<duration>40</duration>
			</backup>
			<note>
				<pitch>
					<step>F</step>
					<octave>3</octave>
				</pitch>
				<duration>20</duration>
				<instrument id="P1-S1V0"/>
				<voice>5</voice>
				<type>quarter</type>
				<stem>down</stem>
				<staff>2</staff>
			</note>
			<note>
				<pitch>
					<step>E</step>
					<octave>3</octave>
				</pitch>
				<duration>20</duration>
				<instrument id="P1-S1V0"/>
				<voice>5</voice>
				<type>quarter</type>
				<stem>down</stem>
				<staff>2</staff>
			</note>
		</measure><!--
===========================================================
-->

		<measure number="11" width="101">
			<print new-system="no"></print>
			<attributes></attributes>
			<note>
				<pitch>
					<step>D</step>
					<octave>3</octave>
				</pitch>
				<duration>20</duration>
				<instrument id="P1-S0V0"/>
				<voice>1</voice>
				<type>quarter</type>
				<stem>down</stem>
				<staff>1</staff>
			</note>
			<note>
				<rest/>
				<duration>20</duration>
				<voice>1</voice>
				<type>quarter</type>
				<staff>1</staff>
			</note>
			<backup>
				<duration>40</duration>
			</backup>
			<note>
				<pitch>
					<step>D</step>
					<octave>3</octave>
				</pitch>
				<duration>20</duration>
				<instrument id="P1-S1V0"/>
				<voice>5</voice>
				<type>quarter</type>
				<stem>down</stem>
				<staff>2</staff>
			</note>
			<note>
				<rest/>
				<duration>20</duration>
				<voice>5</voice>
				<type>quarter</type>
				<staff>2</staff>
			</note>
		</measure><!--
===========================================================
-->

		<measure number="12" width="80">
			<print new-system="no"></print>
			<attributes></attributes>
			<note>
				<pitch>
					<step>A</step>
					<octave>3</octave>
				</pitch>
				<duration>40</duration>
				<instrument id="P1-S0V0"/>
				<voice>1</voice>
				<type>half</type>
				<stem>down</stem>
				<staff>1</staff>
			</note>
			<backup>
				<duration>40</duration>
			</backup>
			<note>
				<pitch>
					<step>D</step>
					<octave>3</octave>
				</pitch>
				<duration>40</duration>
				<instrument id="P1-S1V0"/>
				<voice>5</voice>
				<type>half</type>
				<stem>down</stem>
				<staff>2</staff>
			</note>
		</measure><!--
===========================================================
-->

		<measure number="13" width="106">
			<print new-system="no"></print>
			<attributes></attributes>
			<note>
				<pitch>
					<step>G</step>
					<octave>3</octave>
				</pitch>
				<duration>40</duration>
				<instrument id="P1-S0V0"/>
				<voice>1</voice>
				<type>half</type>
				<stem>down</stem>
				<staff>1</staff>
			</note>
			<backup>
				<duration>40</duration>
			</backup>
			<note>
				<pitch>
					<step>E</step>
					<octave>3</octave>
				</pitch>
				<duration>20</duration>
				<instrument id="P1-S1V0"/>
				<voice>5</voice>
				<type>quarter</type>
				<stem>down</stem>
				<staff>2</staff>
			</note>
			<note>
				<pitch>
					<step>E</step>
					<octave>3</octave>
				</pitch>
				<duration>20</duration>
				<instrument id="P1-S1V0"/>
				<voice>5</voice>
				<type>quarter</type>
				<stem>down</stem>
				<staff>2</staff>
			</note>
		</measure><!--
===========================================================
-->

		<measure number="14" width="105">
			<print new-system="no"></print>
			<attributes></attributes>
			<note>
				<pitch>
					<step>F</step>
					<octave>3</octave>
				</pitch>
				<duration>30</duration>
				<instrument id="P1-S0V0"/>
				<voice>1</voice>
				<type>quarter</type>
				<dot/>
				<stem>down</stem>
				<staff>1</staff>
			</note>
			<note>
				<pitch>
					<step>E</step>
					<octave>3</octave>
				</pitch>
				<duration>10</duration>
				<instrument id="P1-S0V0"/>
				<voice>1</voice>
				<type>eighth</type>
				<stem>down</stem>
				<staff>1</staff>
			</note>
			<backup>
				<duration>40</duration>
			</backup>
			<note>
				<pitch>
					<step>F</step>
					<octave>3</octave>
				</pitch>
				<duration>30</duration>
				<instrument id="P1-S1V0"/>
				<voice>5</voice>
				<type>quarter</type>
				<dot/>
				<stem>down</stem>
				<staff>2</staff>
			</note>
			<note>
				<pitch>
					<step>G</step>
					<octave>3</octave>
				</pitch>
				<duration>10</duration>
				<instrument id="P1-S1V0"/>
				<voice>5</voice>
				<type>eighth</type>
				<stem>down</stem>
				<staff>2</staff>
			</note>
		</measure><!--
===========================================================
-->

		<measure number="15" width="122">
			<print new-system="no"></print>
			<attributes></attributes>
			<note>
				<pitch>
					<step>F</step>
					<octave>3</octave>
				</pitch>
				<duration>20</duration>
				<instrument id="P1-S0V0"/>
				<voice>1</voice>
				<type>quarter</type>
				<stem>down</stem>
				<staff>1</staff>
			</note>
			<note>
				<rest/>
				<duration>10</duration>
				<voice>1</voice>
				<type>eighth</type>
				<staff>1</staff>
			</note>
			<note>
				<pitch>
					<step>E</step>
					<octave>3</octave>
				</pitch>
				<duration>10</duration>
				<instrument id="P1-S0V0"/>
				<voice>1</voice>
				<type>eighth</type>
				<stem>down</stem>
				<staff>1</staff>
			</note>
			<backup>
				<duration>40</duration>
			</backup>
			<note>
				<pitch>
					<step>F</step>
					<octave>3</octave>
				</pitch>
				<duration>20</duration>
				<instrument id="P1-S1V0"/>
				<voice>5</voice>
				<type>quarter</type>
				<stem>down</stem>
				<staff>2</staff>
			</note>
			<note>
				<rest/>
				<duration>10</duration>
				<voice>5</voice>
				<type>eighth</type>
				<staff>2</staff>
			</note>
			<note>
				<pitch>
					<step>G</step>
					<octave>3</octave>
				</pitch>
				<duration>10</duration>
				<instrument id="P1-S1V0"/>
				<voice>5</voice>
				<type>eighth</type>
				<stem>down</stem>
				<staff>2</staff>
			</note>
		</measure><!--
===========================================================
-->

		<measure number="16" width="183">
			<print new-system="no"></print>
			<attributes></attributes>
			<note>
				<pitch>
					<step>D</step>
					<octave>3</octave>
				</pitch>
				<duration>10</duration>
				<instrument id="P1-S0V0"/>
				<voice>1</voice>
				<type>eighth</type>
				<stem>down</stem>
				<staff>1</staff>
				<beam number="1">begin</beam>
			</note>
			<note>
				<pitch>
					<step>D</step>
					<octave>3</octave>
				</pitch>
				<duration>10</duration>
				<instrument id="P1-S0V0"/>
				<voice>1</voice>
				<type>eighth</type>
				<stem>down</stem>
				<staff>1</staff>
				<beam number="1">end</beam>
			</note>
			<note>
				<pitch>
					<step>E</step>
					<octave>3</octave>
				</pitch>
				<duration>10</duration>
				<instrument id="P1-S0V0"/>
				<voice>1</voice>
				<type>eighth</type>
				<stem>down</stem>
				<staff>1</staff>
				<beam number="1">begin</beam>
			</note>
			<note>
				<pitch>
					<step>E</step>
					<octave>3</octave>
				</pitch>
				<duration>10</duration>
				<instrument id="P1-S0V0"/>
				<voice>1</voice>
				<type>eighth</type>
				<stem>down</stem>
				<staff>1</staff>
				<beam number="1">end</beam>
			</note>
			<backup>
				<duration>40</duration>
			</backup>
			<note>
				<pitch>
					<step>A</step>
					<octave>3</octave>
				</pitch>
				<duration>10</duration>
				<instrument id="P1-S1V0"/>
				<voice>5</voice>
				<type>eighth</type>
				<stem>down</stem>
				<staff>2</staff>
				<beam number="1">begin</beam>
			</note>
			<note>
				<pitch>
					<step>A</step>
					<octave>3</octave>
				</pitch>
				<duration>10</duration>
				<instrument id="P1-S1V0"/>
				<voice>5</voice>
				<type>eighth</type>
				<stem>down</stem>
				<staff>2</staff>
				<beam number="1">end</beam>
			</note>
			<note>
				<pitch>
					<step>G</step>
					<octave>3</octave>
				</pitch>
				<duration>10</duration>
				<instrument id="P1-S1V0"/>
				<voice>5</voice>
				<type>eighth</type>
				<stem>down</stem>
				<staff>2</staff>
				<beam number="1">begin</beam>
			</note>
			<note>
				<pitch>
					<step>G</step>
					<octave>3</octave>
				</pitch>
				<duration>10</duration>
				<instrument id="P1-S1V0"/>
				<voice>5</voice>
				<type>eighth</type>
				<stem>down</stem>
				<staff>2</staff>
				<beam number="1">end</beam>
			</note>
		</measure><!--
===========================================================
-->

		<measure number="17" width="106">
			<print new-system="no"></print>
			<attributes></attributes>
			<note>
				<pitch>
					<step>F</step>
					<octave>3</octave>
				</pitch>
				<duration>20</duration>
				<instrument id="P1-S0V0"/>
				<voice>1</voice>
				<type>quarter</type>
				<stem>down</stem>
				<staff>1</staff>
			</note>
			<note>
				<pitch>
					<step>G</step>
					<octave>3</octave>
				</pitch>
				<duration>10</duration>
				<instrument id="P1-S0V0"/>
				<voice>1</voice>
				<type>eighth</type>
				<stem>down</stem>
				<staff>1</staff>
				<beam number="1">begin</beam>
			</note>
			<note>
				<pitch>
					<step>F</step>
					<octave>3</octave>
				</pitch>
				<duration>10</duration>
				<instrument id="P1-S0V0"/>
				<voice>1</voice>
				<type>eighth</type>
				<stem>down</stem>
				<staff>1</staff>
				<beam number="1">end</beam>
			</note>
			<backup>
				<duration>40</duration>
			</backup>
			<note>
				<pitch>
					<step>F</step>
					<octave>3</octave>
				</pitch>
				<duration>20</duration>
				<instrument id="P1-S1V0"/>
				<voice>5</voice>
				<type>quarter</type>
				<stem>down</stem>
				<staff>2</staff>
			</note>
			<note>
				<pitch>
					<step>D</step>
					<octave>3</octave>
				</pitch>
				<duration>10</duration>
				<instrument id="P1-S1V0"/>
				<voice>5</voice>
				<type>eighth</type>
				<stem>down</stem>
				<staff>2</staff>
			</note>
			<note>
				<pitch>
					<step>C</step>
					<octave>3</octave>
				</pitch>
				<duration>10</duration>
				<instrument id="P1-S1V0"/>
				<voice>5</voice>
				<type>eighth</type>
				<stem>down</stem>
				<staff>2</staff>
			</note>
		</measure><!--
===========================================================
-->

		<measure number="18" width="106">
			<print new-system="no"></print>
			<attributes></attributes>
			<note>
				<pitch>
					<step>E</step>
					<octave>3</octave>
				</pitch>
				<duration>20</duration>
				<instrument id="P1-S0V0"/>
				<voice>1</voice>
				<type>quarter</type>
				<stem>down</stem>
				<staff>1</staff>
			</note>
			<note>
				<rest/>
				<duration>10</duration>
				<voice>1</voice>
				<type>eighth</type>
				<staff>1</staff>
			</note>
			<note>
				<pitch>
					<step>G</step>
					<octave>3</octave>
				</pitch>
				<duration>10</duration>
				<instrument id="P1-S0V0"/>
				<voice>1</voice>
				<type>eighth</type>
				<stem>down</stem>
				<staff>1</staff>
			</note>
			<backup>
				<duration>40</duration>
			</backup>
			<note>
				<pitch>
					<step>E</step>
					<octave>3</octave>
				</pitch>
				<duration>20</duration>
				<instrument id="P1-S1V0"/>
				<voice>5</voice>
				<type>quarter</type>
				<stem>down</stem>
				<staff>2</staff>
			</note>
			<note>
				<rest/>
				<duration>10</duration>
				<voice>5</voice>
				<type>eighth</type>
				<staff>2</staff>
			</note>
			<note>
				<pitch>
					<step>E</step>
					<octave>3</octave>
				</pitch>
				<duration>10</duration>
				<instrument id="P1-S1V0"/>
				<voice>5</voice>
				<type>eighth</type>
				<stem>down</stem>
				<staff>2</staff>
			</note>
		</measure><!--
===========================================================
-->

		<measure number="19" width="232">
			<print new-system="yes">
				<system-layout>
					<system-margins>
						<left-margin>9</left-margin>
						<right-margin>5</right-margin>
					</system-margins>
					<system-distance>141</system-distance>
				</system-layout>
				<staff-layout number="2">
					<staff-distance>102</staff-distance>
				</staff-layout>
			</print>
			<attributes>
				<staff-details number="1" print-object="yes">
					<staff-size>91</staff-size>
				</staff-details>
			</attributes>
			<note>
				<pitch>
					<step>A</step>
					<octave>3</octave>
				</pitch>
				<duration>10</duration>
				<instrument id="P1-S0V0"/>
				<voice>1</voice>
				<type>eighth</type>
				<stem>down</stem>
				<staff>1</staff>
				<beam number="1">begin</beam>
			</note>
			<note>
				<pitch>
					<step>G</step>
					<octave>3</octave>
				</pitch>
				<duration>10</duration>
				<instrument id="P1-S0V0"/>
				<voice>1</voice>
				<type>eighth</type>
				<stem>down</stem>
				<staff>1</staff>
				<beam number="1">end</beam>
			</note>
			<note>
				<pitch>
					<step>F</step>
					<octave>3</octave>
				</pitch>
				<duration>10</duration>
				<instrument id="P1-S0V0"/>
				<voice>1</voice>
				<type>eighth</type>
				<stem>down</stem>
				<staff>1</staff>
				<beam number="1">begin</beam>
			</note>
			<note>
				<pitch>
					<step>E</step>
					<octave>3</octave>
				</pitch>
				<duration>10</duration>
				<instrument id="P1-S0V0"/>
				<voice>1</voice>
				<type>eighth</type>
				<stem>down</stem>
				<staff>1</staff>
				<beam number="1">end</beam>
			</note>
			<backup>
				<duration>40</duration>
			</backup>
			<note>
				<pitch>
					<step>D</step>
					<octave>3</octave>
				</pitch>
				<duration>10</duration>
				<instrument id="P1-S1V0"/>
				<voice>5</voice>
				<type>eighth</type>
				<stem>down</stem>
				<staff>2</staff>
				<beam number="1">begin</beam>
			</note>
			<note>
				<pitch>
					<step>E</step>
					<octave>3</octave>
				</pitch>
				<duration>10</duration>
				<instrument id="P1-S1V0"/>
				<voice>5</voice>
				<type>eighth</type>
				<stem>down</stem>
				<staff>2</staff>
				<beam number="1">end</beam>
			</note>
			<note>
				<pitch>
					<step>F</step>
					<octave>3</octave>
				</pitch>
				<duration>10</duration>
				<instrument id="P1-S1V0"/>
				<voice>5</voice>
				<type>eighth</type>
				<stem>down</stem>
				<staff>2</staff>
				<beam number="1">begin</beam>
			</note>
			<note>
				<pitch>
					<step>G</step>
					<octave>3</octave>
				</pitch>
				<duration>10</duration>
				<instrument id="P1-S1V0"/>
				<voice>5</voice>
				<type>eighth</type>
				<stem>down</stem>
				<staff>2</staff>
				<beam number="1">end</beam>
			</note>
		</measure><!--
===========================================================
-->

		<measure number="20" width="198">
			<print new-system="no"></print>
			<attributes></attributes>
			<note>
				<pitch>
					<step>D</step>
					<octave>3</octave>
				</pitch>
				<duration>10</duration>
				<instrument id="P1-S0V0"/>
				<voice>1</voice>
				<type>eighth</type>
				<stem>down</stem>
				<staff>1</staff>
				<beam number="1">begin</beam>
			</note>
			<note>
				<pitch>
					<step>E</step>
					<octave>3</octave>
				</pitch>
				<duration>10</duration>
				<instrument id="P1-S0V0"/>
				<voice>1</voice>
				<type>eighth</type>
				<stem>down</stem>
				<staff>1</staff>
				<beam number="1">end</beam>
				<notations>
					<articulations>
						<staccato placement="below"/>
					</articulations>
				</notations>
			</note>
			<note>
				<pitch>
					<step>D</step>
					<octave>3</octave>
				</pitch>
				<duration>10</duration>
				<instrument id="P1-S0V0"/>
				<voice>1</voice>
				<type>eighth</type>
				<stem>down</stem>
				<staff>1</staff>
				<beam number="1">begin</beam>
			</note>
			<note>
				<pitch>
					<step>C</step>
					<octave>3</octave>
				</pitch>
				<duration>10</duration>
				<instrument id="P1-S0V0"/>
				<voice>1</voice>
				<type>eighth</type>
				<stem>down</stem>
				<staff>1</staff>
				<beam number="1">end</beam>
			</note>
			<backup>
				<duration>40</duration>
			</backup>
			<note>
				<pitch>
					<step>A</step>
					<octave>3</octave>
				</pitch>
				<duration>10</duration>
				<instrument id="P1-S1V0"/>
				<voice>5</voice>
				<type>eighth</type>
				<stem>down</stem>
				<staff>2</staff>
				<beam number="1">begin</beam>
			</note>
			<note>
				<pitch>
					<step>G</step>
					<octave>3</octave>
				</pitch>
				<duration>10</duration>
				<instrument id="P1-S1V0"/>
				<voice>5</voice>
				<type>eighth</type>
				<stem>down</stem>
				<staff>2</staff>
				<beam number="1">end</beam>
			</note>
			<note>
				<pitch>
					<step>F</step>
					<octave>3</octave>
				</pitch>
				<duration>10</duration>
				<instrument id="P1-S1V0"/>
				<voice>5</voice>
				<type>eighth</type>
				<stem>down</stem>
				<staff>2</staff>
				<beam number="1">begin</beam>
			</note>
			<note>
				<pitch>
					<step>E</step>
					<octave>3</octave>
				</pitch>
				<duration>10</duration>
				<instrument id="P1-S1V0"/>
				<voice>5</voice>
				<type>eighth</type>
				<stem>down</stem>
				<staff>2</staff>
				<beam number="1">end</beam>
			</note>
		</measure><!--
===========================================================
-->

		<measure number="21" width="123">
			<print new-system="no"></print>
			<attributes></attributes>
			<note>
				<pitch>
					<step>D</step>
					<octave>3</octave>
				</pitch>
				<duration>20</duration>
				<instrument id="P1-S0V0"/>
				<voice>1</voice>
				<type>quarter</type>
				<stem>down</stem>
				<staff>1</staff>
			</note>
			<note>
				<rest/>
				<duration>10</duration>
				<voice>1</voice>
				<type>eighth</type>
				<staff>1</staff>
			</note>
			<note>
				<pitch>
					<step>A</step>
					<octave>3</octave>
				</pitch>
				<duration>10</duration>
				<instrument id="P1-S0V0"/>
				<voice>1</voice>
				<type>eighth</type>
				<stem>down</stem>
				<staff>1</staff>
			</note>
			<backup>
				<duration>40</duration>
			</backup>
			<note>
				<pitch>
					<step>D</step>
					<octave>3</octave>
				</pitch>
				<duration>20</duration>
				<instrument id="P1-S1V0"/>
				<voice>5</voice>
				<type>quarter</type>
				<stem>down</stem>
				<staff>2</staff>
			</note>
			<note>
				<rest/>
				<duration>10</duration>
				<voice>5</voice>
				<type>eighth</type>
				<staff>2</staff>
			</note>
			<note>
				<pitch>
					<step>C</step>
					<octave>3</octave>
				</pitch>
				<duration>10</duration>
				<instrument id="P1-S1V0"/>
				<voice>5</voice>
				<type>eighth</type>
				<stem>up</stem>
				<staff>2</staff>
			</note>
		</measure><!--
===========================================================
-->

		<measure number="22" width="106">
			<print new-system="no"></print>
			<attributes></attributes>
			<note>
				<pitch>
					<step>A</step>
					<octave>3</octave>
				</pitch>
				<duration>20</duration>
				<instrument id="P1-S0V0"/>
				<voice>1</voice>
				<type>quarter</type>
				<stem>down</stem>
				<staff>1</staff>
			</note>
			<note>
				<pitch>
					<step>G</step>
					<octave>3</octave>
				</pitch>
				<duration>20</duration>
				<instrument id="P1-S0V0"/>
				<voice>1</voice>
				<type>quarter</type>
				<stem>down</stem>
				<staff>1</staff>
			</note>
			<backup>
				<duration>40</duration>
			</backup>
			<note>
				<pitch>
					<step>D</step>
					<octave>3</octave>
				</pitch>
				<duration>20</duration>
				<instrument id="P1-S1V0"/>
				<voice>5</voice>
				<type>quarter</type>
				<stem>down</stem>
				<staff>2</staff>
			</note>
			<note>
				<pitch>
					<step>E</step>
					<octave>3</octave>
				</pitch>
				<duration>20</duration>
				<instrument id="P1-S1V0"/>
				<voice>5</voice>
				<type>quarter</type>
				<stem>down</stem>
				<staff>2</staff>
			</note>
		</measure><!--
===========================================================
-->

		<measure number="23" width="112">
			<print new-system="no"></print>
			<attributes></attributes>
			<note>
				<pitch>
					<step>F</step>
					<octave>3</octave>
				</pitch>
				<duration>20</duration>
				<instrument id="P1-S0V0"/>
				<voice>1</voice>
				<type>quarter</type>
				<stem>down</stem>
				<staff>1</staff>
			</note>
			<note>
				<rest/>
				<duration>10</duration>
				<voice>1</voice>
				<type>eighth</type>
				<staff>1</staff>
			</note>
			<note>
				<pitch>
					<step>A</step>
					<octave>3</octave>
				</pitch>
				<duration>10</duration>
				<instrument id="P1-S0V0"/>
				<voice>1</voice>
				<type>eighth</type>
				<stem>down</stem>
				<staff>1</staff>
			</note>
			<backup>
				<duration>40</duration>
			</backup>
			<note>
				<pitch>
					<step>F</step>
					<octave>3</octave>
				</pitch>
				<duration>40</duration>
				<instrument id="P1-S1V0"/>
				<voice>5</voice>
				<type>half</type>
				<stem>down</stem>
				<staff>2</staff>
			</note>
		</measure><!--
===========================================================
-->

		<measure number="24" width="110">
			<print new-system="no"></print>
			<attributes></attributes>
			<note>
				<pitch>
					<step>G</step>
					<octave>3</octave>
				</pitch>
				<duration>20</duration>
				<instrument id="P1-S0V0"/>
				<voice>1</voice>
				<type>quarter</type>
				<stem>down</stem>
				<staff>1</staff>
			</note>
			<note>
				<pitch>
					<step>F</step>
					<octave>3</octave>
				</pitch>
				<duration>20</duration>
				<instrument id="P1-S0V0"/>
				<voice>1</voice>
				<type>quarter</type>
				<stem>down</stem>
				<staff>1</staff>
			</note>
			<backup>
				<duration>40</duration>
			</backup>
			<note>
				<pitch>
					<step>C</step>
					<octave>3</octave>
				</pitch>
				<duration>20</duration>
				<instrument id="P1-S1V0"/>
				<voice>5</voice>
				<type>quarter</type>
				<stem>up</stem>
				<staff>2</staff>
			</note>
			<note>
				<pitch>
					<step>D</step>
					<octave>3</octave>
				</pitch>
				<duration>20</duration>
				<instrument id="P1-S1V0"/>
				<voice>5</voice>
				<type>quarter</type>
				<stem>down</stem>
				<staff>2</staff>
			</note>
		</measure><!--
===========================================================
-->

		<measure number="25" width="103">
			<print new-system="no"></print>
			<attributes></attributes>
			<note>
				<pitch>
					<step>E</step>
					<octave>3</octave>
				</pitch>
				<duration>30</duration>
				<instrument id="P1-S0V0"/>
				<voice>1</voice>
				<type>quarter</type>
				<dot/>
				<stem>down</stem>
				<staff>1</staff>
			</note>
			<note>
				<pitch>
					<step>F</step>
					<octave>3</octave>
				</pitch>
				<duration>10</duration>
				<instrument id="P1-S0V0"/>
				<voice>1</voice>
				<type>eighth</type>
				<stem>down</stem>
				<staff>1</staff>
			</note>
			<backup>
				<duration>40</duration>
			</backup>
			<note>
				<pitch>
					<step>E</step>
					<octave>3</octave>
				</pitch>
				<duration>30</duration>
				<instrument id="P1-S1V0"/>
				<voice>5</voice>
				<type>quarter</type>
				<dot/>
				<stem>down</stem>
				<staff>2</staff>
			</note>
			<note>
				<pitch>
					<step>D</step>
					<octave>3</octave>
				</pitch>
				<duration>10</duration>
				<instrument id="P1-S1V0"/>
				<voice>5</voice>
				<type>eighth</type>
				<stem>down</stem>
				<staff>2</staff>
			</note>
		</measure><!--
===========================================================
-->

		<measure number="26" width="103">
			<print new-system="no"></print>
			<attributes></attributes>
			<note>
				<pitch>
					<step>G</step>
					<octave>3</octave>
				</pitch>
				<duration>20</duration>
				<instrument id="P1-S0V0"/>
				<voice>1</voice>
				<type>quarter</type>
				<stem>down</stem>
				<staff>1</staff>
			</note>
			<note>
				<pitch>
					<step>E</step>
					<octave>3</octave>
				</pitch>
				<duration>20</duration>
				<instrument id="P1-S0V0"/>
				<voice>1</voice>
				<type>quarter</type>
				<stem>down</stem>
				<staff>1</staff>
			</note>
			<backup>
				<duration>40</duration>
			</backup>
			<note>
				<pitch>
					<step>C</step>
					<octave>3</octave>
				</pitch>
				<duration>20</duration>
				<instrument id="P1-S1V0"/>
				<voice>5</voice>
				<type>quarter</type>
				<stem>up</stem>
				<staff>2</staff>
			</note>
			<note>
				<pitch>
					<step>D</step>
					<octave>3</octave>
				</pitch>
				<duration>20</duration>
				<instrument id="P1-S1V0"/>
				<voice>5</voice>
				<type>quarter</type>
				<stem>up</stem>
				<staff>2</staff>
			</note>
		</measure><!--
===========================================================
-->

		<measure number="27" width="62">
			<print new-system="no"></print>
			<attributes></attributes>
			<note>
				<pitch>
					<step>E</step>
					<octave>3</octave>
				</pitch>
				<duration>40</duration>
				<tie type="start"/>
				<instrument id="P1-S0V0"/>
				<voice>1</voice>
				<type>half</type>
				<stem>down</stem>
				<staff>1</staff>
				<notations>
					<tied type="start" number="1" orientation="over"/>
				</notations>
			</note>
			<backup>
				<duration>40</duration>
			</backup>
			<note>
				<pitch>
					<step>E</step>
					<octave>3</octave>
				</pitch>
				<duration>40</duration>
				<instrument id="P1-S1V0"/>
				<voice>5</voice>
				<type>half</type>
				<stem>down</stem>
				<staff>2</staff>
			</note>
		</measure><!--
===========================================================
-->

		<measure number="28" width="69">
			<print new-system="no"></print>
			<attributes></attributes>
			<note>
				<pitch>
					<step>E</step>
					<octave>3</octave>
				</pitch>
				<duration>40</duration>
				<tie type="stop"/>
				<instrument id="P1-S0V0"/>
				<voice>1</voice>
				<type>half</type>
				<stem>down</stem>
				<staff>1</staff>
				<notations>
					<tied type="stop" number="1" orientation="over"/>
				</notations>
			</note>
			<backup>
				<duration>40</duration>
			</backup>
			<note>
				<pitch>
					<step>E</step>
					<octave>3</octave>
				</pitch>
				<duration>40</duration>
				<instrument id="P1-S1V0"/>
				<voice>5</voice>
				<type>half</type>
				<stem>down</stem>
				<staff>2</staff>
				<notations></notations>
			</note>
			<barline location="right">
				<bar-style>light-light</bar-style>
			</barline>
		</measure><!--
===========================================================
-->

		<measure number="29" width="126">
			<print new-system="yes">
				<system-layout>
					<system-margins>
						<left-margin>4</left-margin>
						<right-margin>11</right-margin>
					</system-margins>
					<system-distance>139</system-distance>
				</system-layout>
				<staff-layout number="2">
					<staff-distance>105</staff-distance>
				</staff-layout>
			</print>
			<attributes>
				<staff-details number="1" print-object="yes">
					<staff-size>85</staff-size>
				</staff-details>
			</attributes>
			<note>
				<pitch>
					<step>G</step>
					<octave>3</octave>
				</pitch>
				<duration>40</duration>
				<instrument id="P1-S0V0"/>
				<voice>1</voice>
				<type>half</type>
				<stem>down</stem>
				<staff>1</staff>
			</note>
			<backup>
				<duration>40</duration>
			</backup>
			<note>
				<pitch>
					<step>C</step>
					<octave>3</octave>
				</pitch>
				<duration>40</duration>
				<instrument id="P1-S1V0"/>
				<voice>5</voice>
				<type>half</type>
				<stem>up</stem>
				<staff>2</staff>
			</note>
		</measure><!--
===========================================================
-->

		<measure number="30" width="109">
			<print new-system="no"></print>
			<attributes></attributes>
			<note>
				<pitch>
					<step>F</step>
					<octave>3</octave>
				</pitch>
				<duration>20</duration>
				<instrument id="P1-S0V0"/>
				<voice>1</voice>
				<type>quarter</type>
				<stem>down</stem>
				<staff>1</staff>
			</note>
			<note>
				<pitch>
					<step>E</step>
					<octave>3</octave>
				</pitch>
				<duration>20</duration>
				<instrument id="P1-S0V0"/>
				<voice>1</voice>
				<type>quarter</type>
				<stem>down</stem>
				<staff>1</staff>
			</note>
			<backup>
				<duration>40</duration>
			</backup>
			<note>
				<pitch>
					<step>D</step>
					<octave>3</octave>
				</pitch>
				<duration>20</duration>
				<instrument id="P1-S1V0"/>
				<voice>5</voice>
				<type>quarter</type>
				<stem>down</stem>
				<staff>2</staff>
			</note>
			<note>
				<pitch>
					<step>C</step>
					<octave>3</octave>
				</pitch>
				<duration>20</duration>
				<instrument id="P1-S1V0"/>
				<voice>5</voice>
				<type>quarter</type>
				<stem>up</stem>
				<staff>2</staff>
			</note>
		</measure><!--
===========================================================
-->

		<measure number="31" width="124">
			<print new-system="no"></print>
			<attributes></attributes>
			<note>
				<pitch>
					<step>D</step>
					<octave>3</octave>
				</pitch>
				<duration>20</duration>
				<instrument id="P1-S0V0"/>
				<voice>1</voice>
				<type>quarter</type>
				<stem>down</stem>
				<staff>1</staff>
			</note>
			<note>
				<rest/>
				<duration>10</duration>
				<voice>1</voice>
				<type>eighth</type>
				<staff>1</staff>
			</note>
			<note>
				<pitch>
					<step>A</step>
					<octave>3</octave>
				</pitch>
				<duration>10</duration>
				<instrument id="P1-S0V0"/>
				<voice>1</voice>
				<type>eighth</type>
				<stem>down</stem>
				<staff>1</staff>
			</note>
			<backup>
				<duration>40</duration>
			</backup>
			<note>
				<pitch>
					<step>D</step>
					<octave>3</octave>
				</pitch>
				<duration>20</duration>
				<instrument id="P1-S1V0"/>
				<voice>5</voice>
				<type>quarter</type>
				<stem>down</stem>
				<staff>2</staff>
			</note>
			<note>
				<pitch>
					<step>D</step>
					<octave>3</octave>
				</pitch>
				<duration>20</duration>
				<instrument id="P1-S1V0"/>
				<voice>5</voice>
				<type>quarter</type>
				<stem>down</stem>
				<staff>2</staff>
			</note>
		</measure><!--
===========================================================
-->

		<measure number="32" width="104">
			<print new-system="no"></print>
			<attributes></attributes>
			<note>
				<pitch>
					<step>F</step>
					<octave>3</octave>
				</pitch>
				<duration>20</duration>
				<instrument id="P1-S0V0"/>
				<voice>1</voice>
				<type>quarter</type>
				<stem>down</stem>
				<staff>1</staff>
			</note>
			<note>
				<pitch>
					<step>G</step>
					<octave>3</octave>
				</pitch>
				<duration>20</duration>
				<instrument id="P1-S0V0"/>
				<voice>1</voice>
				<type>quarter</type>
				<stem>down</stem>
				<staff>1</staff>
			</note>
			<backup>
				<duration>40</duration>
			</backup>
			<note>
				<pitch>
					<step>F</step>
					<octave>3</octave>
				</pitch>
				<duration>20</duration>
				<instrument id="P1-S1V0"/>
				<voice>5</voice>
				<type>quarter</type>
				<stem>down</stem>
				<staff>2</staff>
			</note>
			<note>
				<pitch>
					<step>E</step>
					<octave>3</octave>
				</pitch>
				<duration>20</duration>
				<instrument id="P1-S1V0"/>
				<voice>5</voice>
				<type>quarter</type>
				<stem>down</stem>
				<staff>2</staff>
			</note>
		</measure><!--
===========================================================
-->

		<measure number="33" width="145">
			<print new-system="no"></print>
			<attributes></attributes>
			<note>
				<pitch>
					<step>A</step>
					<octave>3</octave>
				</pitch>
				<duration>20</duration>
				<instrument id="P1-S0V0"/>
				<voice>1</voice>
				<type>quarter</type>
				<stem>down</stem>
				<staff>1</staff>
			</note>
			<note>
				<rest/>
				<duration>10</duration>
				<voice>1</voice>
				<type>eighth</type>
				<staff>1</staff>
			</note>
			<note>
				<pitch>
					<step>G</step>
					<octave>3</octave>
				</pitch>
				<duration>10</duration>
				<instrument id="P1-S0V0"/>
				<voice>1</voice>
				<type>eighth</type>
				<stem>down</stem>
				<staff>1</staff>
			</note>
			<backup>
				<duration>40</duration>
			</backup>
			<note>
				<pitch>
					<step>D</step>
					<octave>3</octave>
				</pitch>
				<duration>10</duration>
				<instrument id="P1-S1V0"/>
				<voice>5</voice>
				<type>eighth</type>
				<stem>down</stem>
				<staff>2</staff>
				<beam number="1">begin</beam>
			</note>
			<note>
				<pitch>
					<step>D</step>
					<octave>3</octave>
				</pitch>
				<duration>10</duration>
				<instrument id="P1-S1V0"/>
				<voice>5</voice>
				<type>eighth</type>
				<stem>down</stem>
				<staff>2</staff>
				<beam number="1">end</beam>
			</note>
			<note>
				<pitch>
					<step>E</step>
					<octave>3</octave>
				</pitch>
				<duration>20</duration>
				<instrument id="P1-S1V0"/>
				<voice>5</voice>
				<type>quarter</type>
				<stem>down</stem>
				<staff>2</staff>
			</note>
		</measure><!--
===========================================================
-->

		<measure number="34" width="114">
			<print new-system="no"></print>
			<attributes></attributes>
			<note>
				<pitch>
					<step>F</step>
					<octave>3</octave>
				</pitch>
				<duration>20</duration>
				<instrument id="P1-S0V0"/>
				<voice>1</voice>
				<type>quarter</type>
				<stem>down</stem>
				<staff>1</staff>
			</note>
			<note>
				<rest/>
				<duration>10</duration>
				<voice>1</voice>
				<type>eighth</type>
				<staff>1</staff>
			</note>
			<note>
				<pitch>
					<step>E</step>
					<octave>3</octave>
				</pitch>
				<duration>10</duration>
				<instrument id="P1-S0V0"/>
				<voice>1</voice>
				<type>eighth</type>
				<stem>down</stem>
				<staff>1</staff>
			</note>
			<backup>
				<duration>40</duration>
			</backup>
			<note>
				<rest/>
				<duration>10</duration>
				<voice>5</voice>
				<type>eighth</type>
				<staff>2</staff>
			</note>
			<note>
				<pitch>
					<step>F</step>
					<octave>3</octave>
				</pitch>
				<duration>10</duration>
				<instrument id="P1-S1V0"/>
				<voice>5</voice>
				<type>eighth</type>
				<stem>down</stem>
				<staff>2</staff>
			</note>
			<note>
				<pitch>
					<step>G</step>
					<octave>3</octave>
				</pitch>
				<duration>20</duration>
				<instrument id="P1-S1V0"/>
				<voice>5</voice>
				<type>quarter</type>
				<stem>down</stem>
				<staff>2</staff>
			</note>
		</measure><!--
===========================================================
-->

		<measure number="35" width="135">
			<print new-system="no"></print>
			<attributes></attributes>
			<note>
				<pitch>
					<step>D</step>
					<octave>3</octave>
				</pitch>
				<duration>20</duration>
				<instrument id="P1-S0V0"/>
				<voice>1</voice>
				<type>quarter</type>
				<stem>down</stem>
				<staff>1</staff>
			</note>
			<note>
				<rest/>
				<duration>10</duration>
				<voice>1</voice>
				<type>eighth</type>
				<staff>1</staff>
			</note>
			<note>
				<pitch>
					<step>E</step>
					<octave>3</octave>
				</pitch>
				<duration>10</duration>
				<instrument id="P1-S0V0"/>
				<voice>1</voice>
				<type>eighth</type>
				<stem>down</stem>
				<staff>1</staff>
			</note>
			<backup>
				<duration>40</duration>
			</backup>
			<note>
				<rest/>
				<duration>10</duration>
				<voice>5</voice>
				<type>eighth</type>
				<staff>2</staff>
			</note>
			<note>
				<pitch>
					<step>A</step>
					<octave>3</octave>
				</pitch>
				<duration>10</duration>
				<instrument id="P1-S1V0"/>
				<voice>5</voice>
				<type>eighth</type>
				<stem>down</stem>
				<staff>2</staff>
			</note>
			<note>
				<pitch>
					<step>G</step>
					<octave>3</octave>
				</pitch>
				<duration>10</duration>
				<instrument id="P1-S1V0"/>
				<voice>5</voice>
				<type>eighth</type>
				<stem>down</stem>
				<staff>2</staff>
				<beam number="1">begin</beam>
			</note>
			<note>
				<pitch>
					<step>G</step>
					<octave>3</octave>
				</pitch>
				<duration>10</duration>
				<instrument id="P1-S1V0"/>
				<voice>5</voice>
				<type>eighth</type>
				<stem>down</stem>
				<staff>2</staff>
				<beam number="1">end</beam>
			</note>
		</measure><!--
===========================================================
-->

		<measure number="36" width="188">
			<print new-system="no"></print>
			<attributes></attributes>
			<note>
				<pitch>
					<step>F</step>
					<octave>3</octave>
				</pitch>
				<duration>10</duration>
				<instrument id="P1-S0V0"/>
				<voice>1</voice>
				<type>eighth</type>
				<stem>down</stem>
				<staff>1</staff>
				<beam number="1">begin</beam>
			</note>
			<note>
				<pitch>
					<step>F</step>
					<octave>3</octave>
				</pitch>
				<duration>10</duration>
				<instrument id="P1-S0V0"/>
				<voice>1</voice>
				<type>eighth</type>
				<stem>down</stem>
				<staff>1</staff>
				<beam number="1">end</beam>
			</note>
			<note>
				<pitch>
					<step>G</step>
					<octave>3</octave>
				</pitch>
				<duration>10</duration>
				<instrument id="P1-S0V0"/>
				<voice>1</voice>
				<type>eighth</type>
				<stem>down</stem>
				<staff>1</staff>
				<beam number="1">begin</beam>
			</note>
			<note>
				<pitch>
					<step>F</step>
					<octave>3</octave>
				</pitch>
				<duration>10</duration>
				<instrument id="P1-S0V0"/>
				<voice>1</voice>
				<type>eighth</type>
				<stem>down</stem>
				<staff>1</staff>
				<beam number="1">end</beam>
			</note>
			<backup>
				<duration>40</duration>
			</backup>
			<note>
				<pitch>
					<step>F</step>
					<octave>3</octave>
				</pitch>
				<duration>10</duration>
				<instrument id="P1-S1V0"/>
				<voice>5</voice>
				<type>eighth</type>
				<stem>down</stem>
				<staff>2</staff>
				<beam number="1">begin</beam>
			</note>
			<note>
				<pitch>
					<step>F</step>
					<octave>3</octave>
				</pitch>
				<duration>10</duration>
				<instrument id="P1-S1V0"/>
				<voice>5</voice>
				<type>eighth</type>
				<stem>down</stem>
				<staff>2</staff>
				<beam number="1">end</beam>
			</note>
			<note>
				<pitch>
					<step>E</step>
					<octave>3</octave>
				</pitch>
				<duration>20</duration>
				<instrument id="P1-S1V0"/>
				<voice>5</voice>
				<type>quarter</type>
				<stem>down</stem>
				<staff>2</staff>
			</note>
		</measure><!--
===========================================================
-->

		<measure number="37" width="89">
			<print new-system="no"></print>
			<attributes></attributes>
			<note>
				<pitch>
					<step>A</step>
					<octave>3</octave>
				</pitch>
				<duration>30</duration>
				<instrument id="P1-S0V0"/>
				<voice>1</voice>
				<type>quarter</type>
				<dot/>
				<stem>down</stem>
				<staff>1</staff>
			</note>
			<note>
				<pitch>
					<step>F</step>
					<octave>3</octave>
				</pitch>
				<duration>10</duration>
				<instrument id="P1-S0V0"/>
				<voice>1</voice>
				<type>eighth</type>
				<stem>down</stem>
				<staff>1</staff>
			</note>
			<backup>
				<duration>40</duration>
			</backup>
			<note>
				<pitch>
					<step>D</step>
					<octave>3</octave>
				</pitch>
				<duration>30</duration>
				<instrument id="P1-S1V0"/>
				<voice>5</voice>
				<type>quarter</type>
				<dot/>
				<stem>up</stem>
				<staff>2</staff>
			</note>
			<note>
				<pitch>
					<step>E</step>
					<octave>3</octave>
				</pitch>
				<duration>10</duration>
				<instrument id="P1-S1V0"/>
				<voice>5</voice>
				<type>eighth</type>
				<stem>down</stem>
				<staff>2</staff>
			</note>
		</measure><!--
===========================================================
-->

		<measure number="38" width="84">
			<print new-system="no"></print>
			<attributes></attributes>
			<note>
				<pitch>
					<step>F</step>
					<octave>3</octave>
				</pitch>
				<duration>20</duration>
				<instrument id="P1-S0V0"/>
				<voice>1</voice>
				<type>quarter</type>
				<stem>down</stem>
				<staff>1</staff>
			</note>
			<note>
				<pitch>
					<step>E</step>
					<octave>3</octave>
				</pitch>
				<duration>20</duration>
				<instrument id="P1-S0V0"/>
				<voice>1</voice>
				<type>quarter</type>
				<stem>down</stem>
				<staff>1</staff>
			</note>
			<backup>
				<duration>40</duration>
			</backup>
			<note>
				<pitch>
					<step>C</step>
					<octave>3</octave>
				</pitch>
				<duration>20</duration>
				<instrument id="P1-S1V0"/>
				<voice>5</voice>
				<type>quarter</type>
				<stem>down</stem>
				<staff>2</staff>
			</note>
			<note>
				<pitch>
					<step>C</step>
					<octave>3</octave>
				</pitch>
				<duration>20</duration>
				<instrument id="P1-S1V0"/>
				<voice>5</voice>
				<type>quarter</type>
				<stem>up</stem>
				<staff>2</staff>
			</note>
		</measure><!--
===========================================================
-->

		<measure number="39" width="147">
			<print new-system="yes">
				<system-layout>
					<system-margins>
						<left-margin>0</left-margin>
						<right-margin>17</right-margin>
					</system-margins>
					<system-distance>132</system-distance>
				</system-layout>
				<staff-layout number="2">
					<staff-distance>108</staff-distance>
				</staff-layout>
			</print>
			<attributes></attributes>
			<note>
				<pitch>
					<step>D</step>
					<octave>3</octave>
				</pitch>
				<duration>20</duration>
				<instrument id="P1-S0V0"/>
				<voice>1</voice>
				<type>quarter</type>
				<stem>down</stem>
				<staff>1</staff>
			</note>
			<note>
				<rest/>
				<duration>20</duration>
				<voice>1</voice>
				<type>quarter</type>
				<staff>1</staff>
			</note>
			<backup>
				<duration>40</duration>
			</backup>
			<note>
				<pitch>
					<step>D</step>
					<octave>3</octave>
				</pitch>
				<duration>40</duration>
				<instrument id="P1-S1V0"/>
				<voice>5</voice>
				<type>half</type>
				<stem>down</stem>
				<staff>2</staff>
			</note>
		</measure><!--
===========================================================
-->

		<measure number="40" width="107">
			<print new-system="no"></print>
			<attributes></attributes>
			<note>
				<pitch>
					<step>D</step>
					<octave>3</octave>
				</pitch>
				<duration>20</duration>
				<instrument id="P1-S0V0"/>
				<voice>1</voice>
				<type>quarter</type>
				<stem>down</stem>
				<staff>1</staff>
			</note>
			<note>
				<pitch>
					<step>E</step>
					<octave>3</octave>
				</pitch>
				<duration>20</duration>
				<instrument id="P1-S0V0"/>
				<voice>1</voice>
				<type>quarter</type>
				<stem>down</stem>
				<staff>1</staff>
			</note>
			<backup>
				<duration>40</duration>
			</backup>
			<note>
				<pitch>
					<step>A</step>
					<octave>3</octave>
				</pitch>
				<duration>30</duration>
				<instrument id="P1-S1V0"/>
				<voice>5</voice>
				<type>quarter</type>
				<dot/>
				<stem>down</stem>
				<staff>2</staff>
			</note>
			<note>
				<pitch>
					<step>G</step>
					<octave>3</octave>
				</pitch>
				<duration>10</duration>
				<instrument id="P1-S1V0"/>
				<voice>5</voice>
				<type>eighth</type>
				<stem>down</stem>
				<staff>2</staff>
			</note>
		</measure><!--
===========================================================
-->

		<measure number="41" width="106">
			<print new-system="no"></print>
			<attributes></attributes>
			<note>
				<pitch>
					<step>F</step>
					<octave>3</octave>
				</pitch>
				<duration>30</duration>
				<instrument id="P1-S0V0"/>
				<voice>1</voice>
				<type>quarter</type>
				<dot/>
				<stem>down</stem>
				<staff>1</staff>
			</note>
			<note>
				<pitch>
					<step>G</step>
					<octave>3</octave>
				</pitch>
				<duration>10</duration>
				<instrument id="P1-S0V0"/>
				<voice>1</voice>
				<type>eighth</type>
				<stem>down</stem>
				<staff>1</staff>
			</note>
			<backup>
				<duration>40</duration>
			</backup>
			<note>
				<pitch>
					<step>F</step>
					<octave>3</octave>
				</pitch>
				<duration>30</duration>
				<instrument id="P1-S1V0"/>
				<voice>5</voice>
				<type>quarter</type>
				<dot/>
				<stem>down</stem>
				<staff>2</staff>
			</note>
			<note>
				<pitch>
					<step>E</step>
					<octave>3</octave>
				</pitch>
				<duration>10</duration>
				<instrument id="P1-S1V0"/>
				<voice>5</voice>
				<type>eighth</type>
				<stem>down</stem>
				<staff>2</staff>
			</note>
		</measure><!--
===========================================================
-->

		<measure number="42" width="110">
			<print new-system="no"></print>
			<attributes></attributes>
			<note>
				<pitch>
					<step>A</step>
					<octave>3</octave>
				</pitch>
				<duration>20</duration>
				<instrument id="P1-S0V0"/>
				<voice>1</voice>
				<type>quarter</type>
				<stem>down</stem>
				<staff>1</staff>
			</note>
			<note>
				<pitch>
					<step>G</step>
					<octave>3</octave>
				</pitch>
				<duration>20</duration>
				<instrument id="P1-S0V0"/>
				<voice>1</voice>
				<type>quarter</type>
				<stem>down</stem>
				<staff>1</staff>
			</note>
			<backup>
				<duration>40</duration>
			</backup>
			<note>
				<pitch>
					<step>D</step>
					<octave>3</octave>
				</pitch>
				<duration>20</duration>
				<instrument id="P1-S1V0"/>
				<voice>5</voice>
				<type>quarter</type>
				<stem>down</stem>
				<staff>2</staff>
			</note>
			<note>
				<pitch>
					<step>E</step>
					<octave>3</octave>
				</pitch>
				<duration>20</duration>
				<instrument id="P1-S1V0"/>
				<voice>5</voice>
				<type>quarter</type>
				<stem>down</stem>
				<staff>2</staff>
			</note>
		</measure><!--
===========================================================
-->

		<measure number="43" width="188">
			<print new-system="no"></print>
			<attributes></attributes>
			<note>
				<pitch>
					<step>F</step>
					<octave>3</octave>
				</pitch>
				<duration>10</duration>
				<instrument id="P1-S0V0"/>
				<voice>1</voice>
				<type>eighth</type>
				<stem>down</stem>
				<staff>1</staff>
				<beam number="1">begin</beam>
			</note>
			<note>
				<pitch>
					<step>G</step>
					<octave>3</octave>
				</pitch>
				<duration>10</duration>
				<instrument id="P1-S0V0"/>
				<voice>1</voice>
				<type>eighth</type>
				<stem>down</stem>
				<staff>1</staff>
				<beam number="1">end</beam>
			</note>
			<note>
				<pitch>
					<step>F</step>
					<octave>3</octave>
				</pitch>
				<duration>10</duration>
				<instrument id="P1-S0V0"/>
				<voice>1</voice>
				<type>eighth</type>
				<stem>down</stem>
				<staff>1</staff>
				<beam number="1">begin</beam>
			</note>
			<note>
				<pitch>
					<step>E</step>
					<octave>3</octave>
				</pitch>
				<duration>10</duration>
				<instrument id="P1-S0V0"/>
				<voice>1</voice>
				<type>eighth</type>
				<stem>down</stem>
				<staff>1</staff>
				<beam number="1">end</beam>
			</note>
			<backup>
				<duration>40</duration>
			</backup>
			<note>
				<pitch>
					<step>F</step>
					<octave>3</octave>
				</pitch>
				<duration>10</duration>
				<instrument id="P1-S1V0"/>
				<voice>5</voice>
				<type>eighth</type>
				<stem>down</stem>
				<staff>2</staff>
				<beam number="1">begin</beam>
			</note>
			<note>
				<pitch>
					<step>E</step>
					<octave>3</octave>
				</pitch>
				<duration>10</duration>
				<instrument id="P1-S1V0"/>
				<voice>5</voice>
				<type>eighth</type>
				<stem>down</stem>
				<staff>2</staff>
				<beam number="1">end</beam>
			</note>
			<note>
				<pitch>
					<step>D</step>
					<octave>3</octave>
				</pitch>
				<duration>10</duration>
				<instrument id="P1-S1V0"/>
				<voice>5</voice>
				<type>eighth</type>
				<stem>down</stem>
				<staff>2</staff>
				<beam number="1">begin</beam>
			</note>
			<note>
				<pitch>
					<step>C</step>
					<octave>3</octave>
				</pitch>
				<duration>10</duration>
				<instrument id="P1-S1V0"/>
				<voice>5</voice>
				<type>eighth</type>
				<stem>down</stem>
				<staff>2</staff>
				<beam number="1">end</beam>
			</note>
		</measure><!--
===========================================================
-->

		<measure number="44" width="112">
			<print new-system="no"></print>
			<attributes></attributes>
			<note>
				<pitch>
					<step>D</step>
					<octave>3</octave>
				</pitch>
				<duration>20</duration>
				<instrument id="P1-S0V0"/>
				<voice>1</voice>
				<type>quarter</type>
				<stem>down</stem>
				<staff>1</staff>
			</note>
			<note>
				<rest/>
				<duration>10</duration>
				<voice>1</voice>
				<type>eighth</type>
				<staff>1</staff>
			</note>
			<note>
				<pitch>
					<step>A</step>
					<octave>3</octave>
				</pitch>
				<duration>10</duration>
				<instrument id="P1-S0V0"/>
				<voice>1</voice>
				<type>eighth</type>
				<stem>down</stem>
				<staff>1</staff>
			</note>
			<backup>
				<duration>40</duration>
			</backup>
			<note>
				<pitch>
					<step>D</step>
					<octave>3</octave>
				</pitch>
				<duration>40</duration>
				<instrument id="P1-S1V0"/>
				<voice>5</voice>
				<type>half</type>
				<stem>down</stem>
				<staff>2</staff>
			</note>
		</measure><!--
===========================================================
-->

		<measure number="45" width="104">
			<print new-system="no"></print>
			<attributes></attributes>
			<note>
				<pitch>
					<step>F</step>
					<octave>3</octave>
				</pitch>
				<duration>20</duration>
				<instrument id="P1-S0V0"/>
				<voice>1</voice>
				<type>quarter</type>
				<stem>down</stem>
				<staff>1</staff>
			</note>
			<note>
				<pitch>
					<step>G</step>
					<octave>3</octave>
				</pitch>
				<duration>20</duration>
				<instrument id="P1-S0V0"/>
				<voice>1</voice>
				<type>quarter</type>
				<stem>down</stem>
				<staff>1</staff>
			</note>
			<backup>
				<duration>40</duration>
			</backup>
			<note>
				<pitch>
					<step>F</step>
					<octave>3</octave>
				</pitch>
				<duration>20</duration>
				<instrument id="P1-S1V0"/>
				<voice>5</voice>
				<type>quarter</type>
				<stem>down</stem>
				<staff>2</staff>
			</note>
			<note>
				<pitch>
					<step>E</step>
					<octave>3</octave>
				</pitch>
				<duration>20</duration>
				<instrument id="P1-S1V0"/>
				<voice>5</voice>
				<type>quarter</type>
				<stem>down</stem>
				<staff>2</staff>
			</note>
		</measure><!--
===========================================================
-->

		<measure number="46" width="112">
			<print new-system="no"></print>
			<attributes></attributes>
			<note>
				<pitch>
					<step>F</step>
					<octave>3</octave>
				</pitch>
				<duration>20</duration>
				<instrument id="P1-S0V0"/>
				<voice>1</voice>
				<type>quarter</type>
				<stem>down</stem>
				<staff>1</staff>
			</note>
			<note>
				<rest/>
				<duration>10</duration>
				<voice>1</voice>
				<type>eighth</type>
				<staff>1</staff>
			</note>
			<note>
				<pitch>
					<step>A</step>
					<octave>3</octave>
				</pitch>
				<duration>10</duration>
				<instrument id="P1-S0V0"/>
				<voice>1</voice>
				<type>eighth</type>
				<stem>down</stem>
				<staff>1</staff>
			</note>
			<backup>
				<duration>40</duration>
			</backup>
			<note>
				<pitch>
					<step>F</step>
					<octave>3</octave>
				</pitch>
				<duration>40</duration>
				<instrument id="P1-S1V0"/>
				<voice>5</voice>
				<type>half</type>
				<stem>down</stem>
				<staff>2</staff>
			</note>
		</measure><!--
===========================================================
-->

		<measure number="47" width="95">
			<print new-system="no"></print>
			<attributes></attributes>
			<note>
				<pitch>
					<step>G</step>
					<octave>3</octave>
				</pitch>
				<duration>20</duration>
				<instrument id="P1-S0V0"/>
				<voice>1</voice>
				<type>quarter</type>
				<stem>down</stem>
				<staff>1</staff>
			</note>
			<note>
				<pitch>
					<step>E</step>
					<octave>3</octave>
				</pitch>
				<duration>20</duration>
				<instrument id="P1-S0V0"/>
				<voice>1</voice>
				<type>quarter</type>
				<stem>down</stem>
				<staff>1</staff>
			</note>
			<backup>
				<duration>40</duration>
			</backup>
			<note>
				<pitch>
					<step>C</step>
					<octave>3</octave>
				</pitch>
				<duration>20</duration>
				<instrument id="P1-S1V0"/>
				<voice>5</voice>
				<type>quarter</type>
				<stem>up</stem>
				<staff>2</staff>
			</note>
			<note>
				<pitch>
					<step>D</step>
					<octave>3</octave>
				</pitch>
				<duration>20</duration>
				<instrument id="P1-S1V0"/>
				<voice>5</voice>
				<type>quarter</type>
				<stem>up</stem>
				<staff>2</staff>
			</note>
		</measure><!--
===========================================================
-->

		<measure number="48" width="68">
			<print new-system="no"></print>
			<attributes></attributes>
			<note>
				<pitch>
					<step>E</step>
					<octave>3</octave>
				</pitch>
				<duration>40</duration>
				<tie type="start"/>
				<instrument id="P1-S0V0"/>
				<voice>1</voice>
				<type>half</type>
				<stem>down</stem>
				<staff>1</staff>
				<notations>
					<tied type="start" number="1" orientation="over"/>
				</notations>
			</note>
			<backup>
				<duration>40</duration>
			</backup>
			<note>
				<pitch>
					<step>E</step>
					<octave>3</octave>
				</pitch>
				<duration>40</duration>
				<instrument id="P1-S1V0"/>
				<voice>5</voice>
				<type>half</type>
				<stem>down</stem>
				<staff>2</staff>
				<notations>
					<slur type="start" number="1"></slur>
				</notations>
			</note>
		</measure><!--
===========================================================
-->

		<measure number="49" width="66">
			<print new-system="no"></print>
			<attributes></attributes>
			<note>
				<pitch>
					<step>E</step>
					<octave>3</octave>
				</pitch>
				<duration>40</duration>
				<tie type="stop"/>
				<instrument id="P1-S0V0"/>
				<voice>1</voice>
				<type>half</type>
				<stem>down</stem>
				<staff>1</staff>
				<notations>
					<tied type="stop" number="1" orientation="over"/>
				</notations>
			</note>
			<backup>
				<duration>40</duration>
			</backup>
			<note>
				<pitch>
					<step>E</step>
					<octave>3</octave>
				</pitch>
				<duration>40</duration>
				<instrument id="P1-S1V0"/>
				<voice>5</voice>
				<type>half</type>
				<stem>down</stem>
				<staff>2</staff>
				<notations>
					<slur type="stop" number="1"></slur>
				</notations>
			</note>
			<barline location="right">
				<bar-style>light-light</bar-style>
			</barline>
		</measure>
	</part>
</score-partwise>