<?xml version="1.0" encoding="UTF-8" standalone="no"?>
<!DOCTYPE score-partwise PUBLIC "-//Recordare//DTD MusicXML 1.1 Partwise//EN" "http://www.musicxml.org/dtds/partwise.dtd">

<score-partwise version="2.0">
	<movement-title></movement-title>
	<identification>
		<creator type="composer"></creator>
		<encoding>
			<software>SmartScore X2 Pro</software>
			<encoding-date>2016-05-17</encoding-date>
			<supports attribute="new-system" element="print" type="yes" value="yes"/>
			<supports attribute="new-page" element="print" type="yes" value="yes"/>
		</encoding>
	</identification>
	<defaults>
		<scaling>
			<millimeters>6.00</millimeters>
			<tenths>40</tenths>
		</scaling>
	</defaults>
	<part-list>
		<score-part id="P1">
			<part-name>Womens Voices</part-name>
			<part-abbreviation>Wmn</part-abbreviation>
			<score-instrument id="P1-S0V0">
				<instrument-name>Voice Oohs</instrument-name>
			</score-instrument>
			<midi-instrument id="P1-S0V0">
				<midi-channel>1</midi-channel>
				<midi-program>54</midi-program>
				<volume>78</volume>
				<pan>0</pan>
			</midi-instrument>
		</score-part>
		<score-part id="P2">
			<part-name>Mens Voices</part-name>
			<part-abbreviation>Men</part-abbreviation>
			<score-instrument id="P2-S0V0">
				<instrument-name>Choir Aahs</instrument-name>
			</score-instrument>
			<midi-instrument id="P2-S0V0">
				<midi-channel>2</midi-channel>
				<midi-program>53</midi-program>
				<volume>78</volume>
				<pan>0</pan>
			</midi-instrument>
		</score-part>
		<score-part id="P3">
			<part-name>Piano</part-name>
			<part-abbreviation>Pno</part-abbreviation>
			<score-instrument id="P3-S0V0">
				<instrument-name>Grand Piano</instrument-name>
			</score-instrument>
			<midi-instrument id="P3-S0V0">
				<midi-channel>3</midi-channel>
				<midi-program>1</midi-program>
				<volume>78</volume>
				<pan>0</pan>
			</midi-instrument>
		</score-part>
		<score-part id="P4">
			<part-name>Piano</part-name>
			<part-abbreviation>Pno</part-abbreviation>
			<score-instrument id="P4-S0V0">
				<instrument-name>Grand Piano</instrument-name>
			</score-instrument>
			<score-instrument id="P4-S0V1">
				<instrument-name>Grand Piano</instrument-name>
			</score-instrument>
			<midi-instrument id="P4-S0V1">
				<midi-channel>8</midi-channel>
				<midi-program>1</midi-program>
				<volume>78</volume>
				<pan>0</pan>
			</midi-instrument>
			<midi-instrument id="P4-S0V0">
				<midi-channel>7</midi-channel>
				<midi-program>1</midi-program>
				<volume>78</volume>
				<pan>0</pan>
			</midi-instrument>
		</score-part>
	</part-list><!--
===========================================================
-->

	<part id="P1">
		<measure number="1" width="268">
			<print>
				<page-layout>
					<page-height>1881.48</page-height>
					<page-width>1453.87</page-width>
					<page-margins>
						<left-margin>159.06</left-margin>
						<right-margin>321.13</right-margin>
						<top-margin>127.00</top-margin>
						<bottom-margin>63.50</bottom-margin>
					</page-margins>
				</page-layout>
				<system-layout>
					<system-margins>
						<left-margin>7</left-margin>
						<right-margin>0</right-margin>
					</system-margins>
					<top-system-distance>190</top-system-distance>
				</system-layout>
			</print>
			<attributes>
				<divisions>80</divisions>
				<key>
					<fifths>0</fifths>
				</key>
				<time>
					<beats>6</beats>
					<beat-type>8</beat-type>
				</time>
				<clef>
					<sign>G</sign>
					<line>2</line>
				</clef>
				<staff-details number="1" print-object="yes">
					<staff-size>59</staff-size>
				</staff-details>
			</attributes>
			<attributes></attributes>
			<barline location="left">
				<ending number="1, 2, 3, 4, 5, 6, 7, 8" type="start"></ending>
			</barline>
			<direction placement="above">
				<direction-type>
					<dynamics>
						<f/>
					</dynamics>
				</direction-type>
				<staff>1</staff>
				<sound dynamics="100"/>
			</direction>
			<direction placement="above">
				<direction-type>
					<words relative-x="27.9240" default-y="27.2204" font-family="Times New Roman" font-style="normal" font-size="12" font-weight="normal" color="#000000">151  (I  _1.)</words>
				</direction-type>
				<staff>1</staff>
			</direction>
			<note>
				<pitch>
					<step>D</step>
					<octave>4</octave>
				</pitch>
				<duration>80</duration>
				<voice>1</voice>
				<type>quarter</type>
				<stem>up</stem>
				<lyric number="1">
					<syllabic>begin</syllabic>
					<text>I..7.llai</text>
				</lyric>
				<lyric number="2">
					<syllabic>single</syllabic>
					<text>J.Car</text>
				</lyric>
				<lyric number="3">
					<syllabic>single</syllabic>
					<text>ui</text>
				</lyric>
				<lyric number="4">
					<syllabic>single</syllabic>
					<text>I-</text>
				</lyric>
			</note>
			<forward>
				<duration>160</duration>
			</forward>
			<barline location="right">
				<ending number="1, 2, 3, 4, 5, 6, 7, 8" type="stop"></ending>
			</barline>
		</measure><!--
===========================================================
-->

		<measure number="2" width="697">
			<print new-system="no"></print>
			<attributes></attributes>
			<note>
				<pitch>
					<step>A</step>
					<octave>4</octave>
				</pitch>
				<duration>40</duration>
				<voice>1</voice>
				<type>eighth</type>
				<stem>up</stem>
				<lyric number="1">
					<syllabic>middle</syllabic>
					<text>saltre</text>
				</lyric>
				<lyric number="2">
					<syllabic>single</syllabic>
					<text>lul-le</text>
				</lyric>
				<lyric number="3">
					<syllabic>single</syllabic>
					<text>toutnon</text>
				</lyric>
				<lyric number="4">
					<syllabic>single</syllabic>
					<text>n</text>
				</lyric>
			</note>
			<note>
				<pitch>
					<step>A</step>
					<octave>4</octave>
				</pitch>
				<duration>40</duration>
				<voice>1</voice>
				<type>eighth</type>
				<stem>up</stem>
				<beam number="1">begin</beam>
				<lyric number="1">
					<syllabic>end</syllabic>
					<text>gart</text>
				</lyric>
				<lyric number="2">
					<syllabic>single</syllabic>
					<text>rien</text>
				</lyric>
				<lyric number="3">
					<syllabic>single</syllabic>
					<text>cuer</text>
				</lyric>
			</note>
			<note>
				<pitch>
					<step>G</step>
					<octave>4</octave>
				</pitch>
				<duration>40</duration>
				<voice>1</voice>
				<type>eighth</type>
				<stem>up</stem>
				<beam number="1">continue</beam>
			</note>
			<note>
				<pitch>
					<step>F</step>
					<octave>4</octave>
				</pitch>
				<duration>40</duration>
				<voice>1</voice>
				<type>eighth</type>
				<stem>up</stem>
				<beam number="1">end</beam>
				<lyric number="1">
					<syllabic>single</syllabic>
					<text>et</text>
				</lyric>
				<lyric number="2">
					<syllabic>begin</syllabic>
					<text>fai</text>
				</lyric>
				<lyric number="3">
					<syllabic>begin</syllabic>
					<text>tien</text>
				</lyric>
			</note>
			<direction placement="above">
				<direction-type>
					<words relative-x="-271.4006" default-y="70.9483" font-family="Times New Roman" font-style="normal" font-size="29" font-weight="normal" color="#000000">-3 G</words>
				</direction-type>
				<staff>1</staff>
			</direction>
			<note>
				<pitch>
					<step>E</step>
					<octave>4</octave>
				</pitch>
				<duration>40</duration>
				<voice>1</voice>
				<type>eighth</type>
				<stem>up</stem>
				<notations>
					<articulations>
						<tenuto placement="above"/>
					</articulations>
				</notations>
			</note>
			<note>
				<pitch>
					<step>G</step>
					<octave>4</octave>
				</pitch>
				<duration>40</duration>
				<voice>1</voice>
				<type>eighth</type>
				<stem>up</stem>
				<beam number="1">begin</beam>
				<lyric number="1">
					<syllabic>single</syllabic>
					<text>geot</text>
				</lyric>
				<lyric number="2">
					<syllabic>end</syllabic>
					<text>re</text>
				</lyric>
				<lyric number="3">
					<syllabic>end</syllabic>
					<text>_lllt</text>
				</lyric>
				<lyric number="4">
					<syllabic>begin</syllabic>
					<text></text>
					<extend/>
				</lyric>
			</note>
			<note>
				<pitch>
					<step>F</step>
					<octave>4</octave>
				</pitch>
				<duration>40</duration>
				<voice>1</voice>
				<type>eighth</type>
				<stem>up</stem>
				<beam number="1">end</beam>
				<lyric number="2">
					<syllabic>single</syllabic>
					<text>l</text>
				</lyric>
			</note>
			<note>
				<pitch>
					<step>D</step>
					<octave>4</octave>
				</pitch>
				<duration>120</duration>
				<voice>1</voice>
				<type>quarter</type>
				<dot/>
				<stem>up</stem>
				<lyric number="1">
					<syllabic>begin</syllabic>
					<text>corsa</text>
				</lyric>
				<lyric number="2">
					<syllabic>single</syllabic>
					<text>eme</text>
				</lyric>
				<lyric number="3">
					<syllabic>begin</syllabic>
					<text>forti</text>
				</lyric>
			</note>
			<note>
				<pitch>
					<step>C</step>
					<octave>4</octave>
				</pitch>
				<duration>20</duration>
				<voice>1</voice>
				<type>16th</type>
				<stem>up</stem>
				<beam number="1">begin</beam>
				<beam number="2">begin</beam>
				<lyric number="1">
					<syllabic>middle</syllabic>
					<text>mou</text>
				</lyric>
				<lyric number="2">
					<syllabic>single</syllabic>
					<text>peut</text>
				</lyric>
				<lyric number="3">
					<syllabic>middle</syllabic>
					<text>li</text>
				</lyric>
			</note>
			<note>
				<pitch>
					<step>B</step>
					<octave>3</octave>
				</pitch>
				<duration>20</duration>
				<voice>1</voice>
				<type>16th</type>
				<stem>up</stem>
				<beam number="1">end</beam>
				<beam number="2">end</beam>
				<notations>
					<articulations>
						<tenuto placement="above"/>
					</articulations>
				</notations>
			</note>
			<note>
				<rest/>
				<duration>120</duration>
				<voice>1</voice>
				<type>quarter</type>
				<dot/>
				<lyric number="1">
					<syllabic>end</syllabic>
					<text>reus</text>
				</lyric>
				<lyric number="2">
					<syllabic>single</syllabic>
					<text>mieus,</text>
				</lyric>
				<lyric number="3">
					<syllabic>end</syllabic>
					<text>teus</text>
				</lyric>
				<lyric number="4">
					<syllabic>middle</syllabic>
					<text></text>
				</lyric>
			</note>
			<direction placement="above">
				<direction-type>
					<words relative-x="-947.2858" default-y="96.5215" font-family="Times New Roman" font-style="italic" font-size="12" font-weight="normal" color="#000000">l 3</words>
				</direction-type>
				<staff>1</staff>
			</direction>
			<backup>
				<duration>320</duration>
			</backup>
		</measure><!--
===========================================================
-->

		<measure number="3" width="281">
			<print new-system="yes">
				<system-layout>
					<system-margins>
						<left-margin>3</left-margin>
						<right-margin>5</right-margin>
					</system-margins>
					<system-distance>72</system-distance>
				</system-layout>
				<staff-layout number="1">
					<staff-distance>57</staff-distance>
				</staff-layout>
			</print>
			<attributes>
				<staff-details number="1" print-object="no"></staff-details>
			</attributes>
			<forward>
				<duration>240</duration>
			</forward>
		</measure><!--
===========================================================
-->

		<measure number="4" width="149">
			<print new-system="no"></print>
			<attributes></attributes>
			<forward>
				<duration>240</duration>
			</forward>
		</measure><!--
===========================================================
-->

		<measure number="5" width="187">
			<print new-system="no"></print>
			<attributes></attributes>
			<forward>
				<duration>240</duration>
			</forward>
		</measure><!--
===========================================================
-->

		<measure number="6" width="110">
			<print new-system="no"></print>
			<attributes></attributes>
			<forward>
				<duration>240</duration>
			</forward>
		</measure><!--
===========================================================
-->

		<measure number="7" width="236">
			<print new-system="no"></print>
			<attributes></attributes>
			<forward>
				<duration>240</duration>
			</forward>
		</measure><!--
===========================================================
-->

		<measure number="8" width="205">
			<print new-system="yes">
				<system-layout>
					<system-margins>
						<left-margin>1</left-margin>
						<right-margin>8</right-margin>
					</system-margins>
					<system-distance>73</system-distance>
				</system-layout>
				<staff-layout number="1">
					<staff-distance>59</staff-distance>
				</staff-layout>
			</print>
			<attributes></attributes>
			<forward>
				<duration>240</duration>
			</forward>
		</measure><!--
===========================================================
-->

		<measure number="9" width="212">
			<print new-system="no"></print>
			<attributes></attributes>
			<forward>
				<duration>240</duration>
			</forward>
		</measure><!--
===========================================================
-->

		<measure number="10" width="162">
			<print new-system="no"></print>
			<attributes></attributes>
			<forward>
				<duration>240</duration>
			</forward>
		</measure><!--
===========================================================
-->

		<measure number="11" width="144">
			<print new-system="no"></print>
			<attributes></attributes>
			<forward>
				<duration>240</duration>
			</forward>
		</measure><!--
===========================================================
-->

		<measure number="12" width="238">
			<print new-system="no"></print>
			<attributes></attributes>
			<forward>
				<duration>240</duration>
			</forward>
		</measure><!--
===========================================================
-->

		<measure number="13" width="198">
			<print new-system="yes">
				<system-layout>
					<system-margins>
						<left-margin>0</left-margin>
						<right-margin>11</right-margin>
					</system-margins>
					<system-distance>78</system-distance>
				</system-layout>
				<staff-layout number="1">
					<staff-distance>133</staff-distance>
				</staff-layout>
			</print>
			<attributes></attributes>
			<forward>
				<duration>240</duration>
			</forward>
		</measure><!--
===========================================================
-->

		<measure number="14" width="244">
			<print new-system="no"></print>
			<attributes></attributes>
			<forward>
				<duration>240</duration>
			</forward>
		</measure><!--
===========================================================
-->

		<measure number="15" width="191">
			<print new-system="no"></print>
			<attributes></attributes>
			<forward>
				<duration>240</duration>
			</forward>
		</measure><!--
===========================================================
-->

		<measure number="16" width="238">
			<print new-system="no"></print>
			<attributes></attributes>
			<forward>
				<duration>240</duration>
			</forward>
		</measure><!--
===========================================================
-->

		<measure number="17" width="89">
			<print new-system="no"></print>
			<attributes></attributes>
			<forward>
				<duration>240</duration>
			</forward>
			<barline location="right">
				<bar-style>light-heavy</bar-style>
			</barline>
		</measure>
	</part><!--
===========================================================
-->

	<part id="P2">
		<measure number="1" width="268">
			<print>
				<page-layout>
					<page-height>1881.48</page-height>
					<page-width>1453.87</page-width>
					<page-margins>
						<left-margin>159.06</left-margin>
						<right-margin>321.13</right-margin>
						<top-margin>127.00</top-margin>
						<bottom-margin>63.50</bottom-margin>
					</page-margins>
				</page-layout>
				<system-layout>
					<system-margins>
						<left-margin>7</left-margin>
						<right-margin>0</right-margin>
					</system-margins>
					<top-system-distance>190</top-system-distance>
				</system-layout>
				<staff-layout number="1">
					<staff-distance>94</staff-distance>
				</staff-layout>
			</print>
			<attributes>
				<divisions>80</divisions>
				<key>
					<fifths>0</fifths>
				</key>
				<time>
					<beats>6</beats>
					<beat-type>8</beat-type>
				</time>
				<clef>
					<sign>F</sign>
					<line>4</line>
				</clef>
				<staff-details number="1" print-object="yes">
					<staff-size>59</staff-size>
				</staff-details>
			</attributes>
			<attributes></attributes>
			<barline location="left">
				<ending number="1, 2, 3, 4, 5, 6, 7, 8" type="start"></ending>
			</barline>
			<note>
				<pitch>
					<step>A</step>
					<octave>3</octave>
				</pitch>
				<duration>160</duration>
				<voice>1</voice>
				<type>half</type>
				<stem>down</stem>
				<lyric number="1">
					<syllabic>single</syllabic>
					<text>Coutrateuo</text>
				</lyric>
			</note>
			<forward>
				<duration>80</duration>
			</forward>
			<barline location="right">
				<ending number="1, 2, 3, 4, 5, 6, 7, 8" type="stop"></ending>
			</barline>
		</measure><!--
===========================================================
-->

		<measure number="2" width="697">
			<print new-system="no"></print>
			<attributes></attributes>
			<note>
				<pitch>
					<step>D</step>
					<octave>4</octave>
				</pitch>
				<duration>80</duration>
				<voice>1</voice>
				<type>quarter</type>
				<stem>down</stem>
				<lyric number="1">
					<syllabic>single</syllabic>
					<text>r</text>
				</lyric>
			</note>
			<note>
				<pitch>
					<step>A</step>
					<octave>3</octave>
				</pitch>
				<duration>80</duration>
				<voice>1</voice>
				<type>quarter</type>
				<stem>down</stem>
				<lyric number="1">
					<syllabic>single</syllabic>
					<text>r-</text>
				</lyric>
			</note>
			<note>
				<pitch>
					<step>G</step>
					<octave>3</octave>
				</pitch>
				<duration>40</duration>
				<voice>1</voice>
				<type>eighth</type>
				<stem>down</stem>
				<lyric number="1">
					<syllabic>single</syllabic>
					<text>-I</text>
				</lyric>
			</note>
			<forward>
				<duration>40</duration>
			</forward>
		</measure><!--
===========================================================
-->

		<measure number="3" width="281">
			<print new-system="yes">
				<system-layout>
					<system-margins>
						<left-margin>3</left-margin>
						<right-margin>5</right-margin>
					</system-margins>
					<system-distance>72</system-distance>
				</system-layout>
			</print>
			<attributes></attributes>
			<attributes>
				<clef>
					<sign>G</sign>
					<line>2</line>
				</clef>
			</attributes>
			<note>
				<pitch>
					<step>A</step>
					<octave>4</octave>
				</pitch>
				<duration>40</duration>
				<voice>1</voice>
				<type>eighth</type>
				<stem>up</stem>
				<beam number="1">begin</beam>
				<lyric number="1">
					<syllabic>begin</syllabic>
					<text>-</text>
				</lyric>
				<lyric number="2">
					<syllabic>begin</syllabic>
					<text>-</text>
				</lyric>
			</note>
			<note>
				<pitch>
					<step>G</step>
					<octave>4</octave>
				</pitch>
				<duration>20</duration>
				<voice>1</voice>
				<type>16th</type>
				<stem>up</stem>
				<beam number="1">continue</beam>
				<beam number="2">begin</beam>
			</note>
			<note>
				<pitch>
					<step>F</step>
					<octave>4</octave>
				</pitch>
				<duration>20</duration>
				<voice>1</voice>
				<type>16th</type>
				<stem>up</stem>
				<beam number="1">continue</beam>
				<beam number="2">continue</beam>
			</note>
			<note>
				<pitch>
					<step>G</step>
					<octave>4</octave>
				</pitch>
				<duration>20</duration>
				<voice>1</voice>
				<type>16th</type>
				<stem>up</stem>
				<beam number="1">end</beam>
				<beam number="2">end</beam>
			</note>
			<note>
				<pitch>
					<step>E</step>
					<octave>4</octave>
				</pitch>
				<duration>40</duration>
				<voice>1</voice>
				<type>eighth</type>
				<stem>up</stem>
				<beam number="1">begin</beam>
			</note>
			<note>
				<pitch>
					<step>E</step>
					<octave>4</octave>
				</pitch>
				<duration>20</duration>
				<voice>1</voice>
				<type>16th</type>
				<stem>up</stem>
				<beam number="1">continue</beam>
				<beam number="2">begin</beam>
			</note>
			<note>
				<pitch>
					<step>D</step>
					<octave>4</octave>
				</pitch>
				<duration>20</duration>
				<voice>1</voice>
				<type>16th</type>
				<stem>up</stem>
				<beam number="1">end</beam>
				<beam number="2">end</beam>
				<lyric number="1">
					<syllabic>middle</syllabic>
					<text>-</text>
					<extend/>
				</lyric>
				<lyric number="2">
					<syllabic>middle</syllabic>
					<text>-</text>
				</lyric>
			</note>
			<forward>
				<duration>60</duration>
			</forward>
		</measure><!--
===========================================================
-->

		<measure number="4" width="149">
			<print new-system="no"></print>
			<attributes></attributes>
			<direction placement="above">
				<direction-type>
					<words relative-x="5.1465" default-y="16.5776" font-family="Times New Roman" font-style="normal" font-size="9" font-weight="normal" color="#000000">lo</words>
				</direction-type>
				<staff>1</staff>
			</direction>
			<note>
				<rest/>
				<duration>40</duration>
				<voice>1</voice>
				<type>eighth</type>
			</note>
			<note>
				<pitch>
					<step>E</step>
					<octave>4</octave>
				</pitch>
				<duration>40</duration>
				<voice>1</voice>
				<type>eighth</type>
				<stem>up</stem>
				<beam number="1">begin</beam>
				<notations>
					<slur type="start" number="1"></slur>
				</notations>
			</note>
			<note>
				<pitch>
					<step>F</step>
					<octave>4</octave>
				</pitch>
				<duration>40</duration>
				<voice>1</voice>
				<type>eighth</type>
				<stem>up</stem>
				<beam number="1">end</beam>
				<notations>
					<slur type="stop" number="1"></slur>
				</notations>
			</note>
			<forward>
				<duration>120</duration>
			</forward>
		</measure><!--
===========================================================
-->

		<measure number="5" width="187">
			<print new-system="no"></print>
			<attributes></attributes>
			<note>
				<pitch>
					<step>G</step>
					<octave>4</octave>
				</pitch>
				<duration>80</duration>
				<voice>1</voice>
				<type>quarter</type>
				<stem>up</stem>
			</note>
			<note>
				<pitch>
					<step>F</step>
					<octave>4</octave>
				</pitch>
				<duration>60</duration>
				<voice>1</voice>
				<type>eighth</type>
				<dot/>
				<stem>up</stem>
				<beam number="1">begin</beam>
			</note>
			<note>
				<pitch>
					<step>E</step>
					<octave>4</octave>
				</pitch>
				<duration>20</duration>
				<voice>1</voice>
				<type>16th</type>
				<stem>up</stem>
				<beam number="1">continue</beam>
				<beam number="2">begin</beam>
			</note>
			<note>
				<pitch>
					<step>E</step>
					<octave>4</octave>
				</pitch>
				<duration>20</duration>
				<voice>1</voice>
				<type>16th</type>
				<stem>up</stem>
				<beam number="1">continue</beam>
				<beam number="2">continue</beam>
			</note>
			<note>
				<pitch>
					<step>D</step>
					<octave>4</octave>
				</pitch>
				<duration>20</duration>
				<voice>1</voice>
				<type>16th</type>
				<stem>up</stem>
				<beam number="1">end</beam>
				<beam number="2">end</beam>
			</note>
			<forward>
				<duration>40</duration>
			</forward>
		</measure><!--
===========================================================
-->

		<measure number="6" width="110">
			<print new-system="no"></print>
			<attributes></attributes>
			<note>
				<pitch>
					<step>F</step>
					<octave>4</octave>
				</pitch>
				<duration>120</duration>
				<voice>1</voice>
				<type>quarter</type>
				<dot/>
				<stem>up</stem>
				<notations>
					<fermata type="upright"/>
				</notations>
				<lyric number="1">
					<syllabic>end</syllabic>
					<text>e,</text>
				</lyric>
				<lyric number="2">
					<syllabic>end</syllabic>
					<text>e,</text>
				</lyric>
				<lyric number="3">
					<syllabic>single</syllabic>
					<text>e,</text>
				</lyric>
			</note>
			<note>
				<rest/>
				<duration>80</duration>
				<voice>1</voice>
				<type>quarter</type>
			</note>
			<forward>
				<duration>40</duration>
			</forward>
		</measure><!--
===========================================================
-->

		<measure number="7" width="236">
			<print new-system="no"></print>
			<attributes></attributes>
			<note>
				<pitch>
					<step>C</step>
					<octave>4</octave>
				</pitch>
				<duration>40</duration>
				<voice>1</voice>
				<type>eighth</type>
				<stem>up</stem>
				<beam number="1">begin</beam>
				<lyric number="1">
					<syllabic>single</syllabic>
					<text>2.S.Mo11</text>
				</lyric>
				<lyric number="2">
					<syllabic>single</syllabic>
					<text>$ui</text>
				</lyric>
			</note>
			<note>
				<pitch>
					<step>D</step>
					<octave>4</octave>
				</pitch>
				<duration>10</duration>
				<voice>1</voice>
				<type>32nd</type>
				<stem>up</stem>
				<beam number="1">continue</beam>
				<beam number="2">begin</beam>
				<beam number="3">forward hook</beam>
			</note>
			<note>
				<pitch>
					<step>E</step>
					<octave>4</octave>
				</pitch>
				<duration>20</duration>
				<voice>1</voice>
				<type>16th</type>
				<stem>up</stem>
				<beam number="1">continue</beam>
				<beam number="2">continue</beam>
			</note>
			<note>
				<pitch>
					<step>F</step>
					<octave>4</octave>
				</pitch>
				<duration>20</duration>
				<voice>1</voice>
				<type>16th</type>
				<stem>up</stem>
				<beam number="1">end</beam>
				<beam number="2">end</beam>
				<lyric number="1">
					<syllabic>single</syllabic>
					<text>cucron</text>
				</lyric>
				<lyric number="2">
					<syllabic>begin</syllabic>
					<text>necon</text>
				</lyric>
			</note>
			<forward>
				<duration>150</duration>
			</forward>
		</measure><!--
===========================================================
-->

		<measure number="8" width="205">
			<print new-system="yes">
				<system-layout>
					<system-margins>
						<left-margin>1</left-margin>
						<right-margin>8</right-margin>
					</system-margins>
					<system-distance>73</system-distance>
				</system-layout>
			</print>
			<attributes></attributes>
			<note>
				<pitch>
					<step>D</step>
					<octave>4</octave>
				</pitch>
				<duration>120</duration>
				<voice>1</voice>
				<type>quarter</type>
				<dot/>
				<stem>up</stem>
				<lyric number="1">
					<syllabic>single</syllabic>
					<text>pris</text>
				</lyric>
				<lyric number="2">
					<syllabic>end</syllabic>
					<text>-stri</text>
				</lyric>
				<lyric number="3">
					<syllabic>single</syllabic>
					<text>I-</text>
				</lyric>
			</note>
			<note>
				<rest/>
				<duration>80</duration>
				<voice>1</voice>
				<type>quarter</type>
				<lyric number="1">
					<syllabic>single</syllabic>
					<text>en</text>
				</lyric>
				<lyric number="2">
					<syllabic>single</syllabic>
					<text>lttous</text>
				</lyric>
				<lyric number="3">
					<syllabic>single</syllabic>
					<text>l</text>
				</lyric>
			</note>
			<forward>
				<duration>40</duration>
			</forward>
		</measure><!--
===========================================================
-->

		<measure number="9" width="212">
			<print new-system="no"></print>
			<attributes></attributes>
			<direction placement="above">
				<direction-type>
					<words relative-x="9.4040" default-y="23.9259" font-family="Times New Roman" font-style="normal" font-size="9" font-weight="normal" color="#000000">l 5</words>
				</direction-type>
				<staff>1</staff>
			</direction>
			<note>
				<pitch>
					<step>G</step>
					<octave>4</octave>
				</pitch>
				<duration>40</duration>
				<voice>1</voice>
				<type>eighth</type>
				<stem>up</stem>
				<lyric number="1">
					<syllabic>single</syllabic>
					<text>leurllo-ble</text>
				</lyric>
				<lyric number="2">
					<syllabic>single</syllabic>
					<text>les</text>
				</lyric>
			</note>
			<note>
				<pitch>
					<step>G</step>
					<octave>4</octave>
				</pitch>
				<duration>80</duration>
				<voice>1</voice>
				<type>quarter</type>
				<stem>up</stem>
				<lyric number="1">
					<syllabic>single</syllabic>
					<text>b</text>
				</lyric>
				<lyric number="2">
					<syllabic>single</syllabic>
					<text>joursque</text>
				</lyric>
			</note>
			<forward>
				<duration>120</duration>
			</forward>
		</measure><!--
===========================================================
-->

		<measure number="10" width="162">
			<print new-system="no"></print>
			<attributes></attributes>
			<note>
				<pitch>
					<step>F</step>
					<octave>4</octave>
				</pitch>
				<duration>80</duration>
				<voice>1</voice>
				<type>quarter</type>
				<stem>up</stem>
				<lyric number="1">
					<syllabic>begin</syllabic>
					<text>l-ly</text>
				</lyric>
				<lyric number="2">
					<syllabic>begin</syllabic>
					<text>jedi</text>
				</lyric>
			</note>
			<note>
				<pitch>
					<step>E</step>
					<octave>4</octave>
				</pitch>
				<duration>40</duration>
				<voice>1</voice>
				<type>eighth</type>
				<stem>up</stem>
			</note>
			<note>
				<pitch>
					<step>E</step>
					<octave>4</octave>
				</pitch>
				<duration>40</duration>
				<voice>1</voice>
				<type>eighth</type>
				<stem>up</stem>
			</note>
			<note>
				<pitch>
					<step>D</step>
					<octave>4</octave>
				</pitch>
				<duration>80</duration>
				<voice>1</voice>
				<type>quarter</type>
				<stem>up</stem>
				<lyric number="2">
					<syllabic>end</syllabic>
					<text>-</text>
				</lyric>
			</note>
		</measure><!--
===========================================================
-->

		<measure number="11" width="144">
			<print new-system="no"></print>
			<attributes></attributes>
			<note>
				<rest/>
				<duration>40</duration>
				<voice>1</voice>
				<type>eighth</type>
				<lyric number="1">
					<syllabic>end</syllabic>
					<text>_-e,</text>
				</lyric>
				<lyric number="2">
					<syllabic>single</syllabic>
					<text>-e,</text>
				</lyric>
			</note>
			<note>
				<pitch>
					<step>E</step>
					<octave>4</octave>
				</pitch>
				<duration>40</duration>
				<voice>1</voice>
				<type>eighth</type>
				<stem>up</stem>
				<beam number="1">begin</beam>
				<lyric number="1">
					<syllabic>single</syllabic>
					<text>l&apos;our</text>
				</lyric>
				<lyric number="2">
					<syllabic>begin</syllabic>
					<text>Joi</text>
				</lyric>
			</note>
			<note>
				<pitch>
					<step>F</step>
					<octave>4</octave>
				</pitch>
				<duration>40</duration>
				<voice>1</voice>
				<type>eighth</type>
				<stem>up</stem>
				<beam number="1">end</beam>
			</note>
			<forward>
				<duration>120</duration>
			</forward>
		</measure><!--
===========================================================
-->

		<measure number="12" width="238">
			<print new-system="no"></print>
			<attributes></attributes>
			<note>
				<pitch>
					<step>G</step>
					<octave>4</octave>
				</pitch>
				<duration>80</duration>
				<voice>1</voice>
				<type>quarter</type>
				<stem>up</stem>
				<lyric number="1">
					<syllabic>begin</syllabic>
					<text>quoim&apos;es</text>
				</lyric>
				<lyric number="2">
					<syllabic>end</syllabic>
					<text>se--</text>
				</lyric>
			</note>
			<forward>
				<duration>160</duration>
			</forward>
		</measure><!--
===========================================================
-->

		<measure number="13" width="198">
			<print new-system="yes">
				<system-layout>
					<system-margins>
						<left-margin>0</left-margin>
						<right-margin>11</right-margin>
					</system-margins>
					<system-distance>78</system-distance>
				</system-layout>
			</print>
			<attributes></attributes>
			<note>
				<rest/>
				<duration>80</duration>
				<voice>1</voice>
				<type>quarter</type>
				<lyric number="1">
					<syllabic>end</syllabic>
					<text>tuet</text>
				</lyric>
				<lyric number="2">
					<syllabic>single</syllabic>
					<text>-nlent</text>
				</lyric>
			</note>
			<forward>
				<duration>160</duration>
			</forward>
		</measure><!--
===========================================================
-->

		<measure number="14" width="244">
			<print new-system="no"></print>
			<attributes></attributes>
			<note>
				<pitch>
					<step>G</step>
					<octave>4</octave>
				</pitch>
				<duration>40</duration>
				<voice>1</voice>
				<type>eighth</type>
				<stem>up</stem>
				<beam number="1">begin</beam>
				<lyric number="1">
					<syllabic>single</syllabic>
					<text>es-tre</text>
				</lyric>
				<lyric number="2">
					<syllabic>single</syllabic>
					<text>etde</text>
				</lyric>
				<lyric number="3">
					<syllabic>single</syllabic>
					<text>I-</text>
				</lyric>
			</note>
			<note>
				<pitch>
					<step>F</step>
					<octave>4</octave>
				</pitch>
				<duration>40</duration>
				<voice>1</voice>
				<type>eighth</type>
				<stem>up</stem>
				<beam number="1">end</beam>
			</note>
			<note>
				<pitch>
					<step>E</step>
					<octave>4</octave>
				</pitch>
				<duration>20</duration>
				<voice>1</voice>
				<type>16th</type>
				<stem>up</stem>
				<beam number="1">begin</beam>
				<beam number="2">begin</beam>
				<lyric number="1">
					<syllabic>begin</syllabic>
					<text>tous-joursjoi</text>
				</lyric>
				<lyric number="2">
					<syllabic>single</syllabic>
					<text>cue</text>
				</lyric>
			</note>
			<note>
				<pitch>
					<step>D</step>
					<octave>4</octave>
				</pitch>
				<duration>20</duration>
				<voice>1</voice>
				<type>16th</type>
				<stem>up</stem>
				<beam number="1">end</beam>
				<beam number="2">end</beam>
				<lyric number="2">
					<syllabic>begin</syllabic>
					<text>rtressoio</text>
				</lyric>
				<lyric number="3">
					<syllabic>begin</syllabic>
					<text>-I</text>
				</lyric>
			</note>
			<forward>
				<duration>120</duration>
			</forward>
		</measure><!--
===========================================================
-->

		<measure number="15" width="191">
			<print new-system="no"></print>
			<attributes></attributes>
			<note>
				<rest/>
				<duration>40</duration>
				<voice>1</voice>
				<type>eighth</type>
				<lyric number="1">
					<syllabic>end</syllabic>
					<text>eus</text>
				</lyric>
				<lyric number="2">
					<syllabic>end</syllabic>
					<text>glleus</text>
				</lyric>
			</note>
			<note>
				<pitch>
					<step>E</step>
					<octave>4</octave>
				</pitch>
				<duration>40</duration>
				<voice>1</voice>
				<type>eighth</type>
				<stem>up</stem>
				<beam number="1">begin</beam>
			</note>
			<note>
				<pitch>
					<step>D</step>
					<octave>4</octave>
				</pitch>
				<duration>40</duration>
				<voice>1</voice>
				<type>eighth</type>
				<stem>up</stem>
				<beam number="1">end</beam>
			</note>
			<forward>
				<duration>120</duration>
			</forward>
		</measure><!--
===========================================================
-->

		<measure number="16" width="238">
			<print new-system="no"></print>
			<attributes></attributes>
			<note>
				<pitch>
					<step>G</step>
					<octave>4</octave>
				</pitch>
				<duration>40</duration>
				<voice>1</voice>
				<type>eighth</type>
				<stem>up</stem>
				<beam number="1">begin</beam>
			</note>
			<note>
				<pitch>
					<step>F</step>
					<octave>4</octave>
				</pitch>
				<duration>40</duration>
				<voice>1</voice>
				<type>eighth</type>
				<stem>up</stem>
				<beam number="1">continue</beam>
			</note>
			<note>
				<pitch>
					<step>E</step>
					<octave>4</octave>
				</pitch>
				<duration>20</duration>
				<voice>1</voice>
				<type>16th</type>
				<stem>up</stem>
				<beam number="1">continue</beam>
				<beam number="2">begin</beam>
			</note>
			<note>
				<pitch>
					<step>D</step>
					<octave>4</octave>
				</pitch>
				<duration>20</duration>
				<voice>1</voice>
				<type>16th</type>
				<stem>up</stem>
				<beam number="1">end</beam>
				<beam number="2">end</beam>
			</note>
			<note>
				<pitch>
					<step>D</step>
					<octave>4</octave>
				</pitch>
				<duration>60</duration>
				<voice>1</voice>
				<type>eighth</type>
				<dot/>
				<stem>up</stem>
				<beam number="1">begin</beam>
			</note>
			<note>
				<pitch>
					<step>C</step>
					<octave>4</octave>
				</pitch>
				<duration>20</duration>
				<voice>1</voice>
				<type>16th</type>
				<stem>up</stem>
				<beam number="1">continue</beam>
				<beam number="2">begin</beam>
			</note>
			<note>
				<pitch>
					<step>C</step>
					<octave>4</octave>
				</pitch>
				<duration>20</duration>
				<voice>1</voice>
				<type>16th</type>
				<stem>up</stem>
				<beam number="1">continue</beam>
				<beam number="2">continue</beam>
			</note>
			<note>
				<pitch>
					<step>B</step>
					<octave>3</octave>
				</pitch>
				<duration>20</duration>
				<voice>1</voice>
				<type>16th</type>
				<stem>up</stem>
				<beam number="1">end</beam>
				<beam number="2">end</beam>
			</note>
		</measure><!--
===========================================================
-->

		<measure number="17" width="89">
			<print new-system="no"></print>
			<attributes></attributes>
			<note>
				<pitch>
					<step>D</step>
					<octave>4</octave>
				</pitch>
				<duration>320</duration>
				<voice>1</voice>
				<type>whole</type>
				<stem>none</stem>
			</note>
			<backup>
				<duration>80</duration>
			</backup>
			<barline location="right">
				<bar-style>light-heavy</bar-style>
			</barline>
		</measure>
	</part><!--
===========================================================
-->

	<part id="P3">
		<measure number="1" width="268">
			<print>
				<page-layout>
					<page-height>1881.48</page-height>
					<page-width>1453.87</page-width>
					<page-margins>
						<left-margin>159.06</left-margin>
						<right-margin>321.13</right-margin>
						<top-margin>127.00</top-margin>
						<bottom-margin>63.50</bottom-margin>
					</page-margins>
				</page-layout>
				<system-layout>
					<system-margins>
						<left-margin>7</left-margin>
						<right-margin>0</right-margin>
					</system-margins>
					<top-system-distance>190</top-system-distance>
				</system-layout>
				<staff-layout number="1">
					<staff-distance>40</staff-distance>
				</staff-layout>
			</print>
			<attributes>
				<divisions>80</divisions>
				<key>
					<fifths>0</fifths>
				</key>
				<time>
					<beats>6</beats>
					<beat-type>8</beat-type>
				</time>
				<clef>
					<sign>none</sign>
				</clef>
				<staff-details number="1" print-object="yes">
					<staff-size>59</staff-size>
				</staff-details>
			</attributes>
			<attributes></attributes>
			<barline location="left">
				<ending number="1, 2, 3, 4, 5, 6, 7, 8" type="start"></ending>
			</barline>
			<note>
				<pitch>
					<step>E</step>
					<octave>5</octave>
				</pitch>
				<duration>320</duration>
				<voice>1</voice>
				<type>whole</type>
				<stem>none</stem>
			</note>
			<note>
				<pitch>
					<step>B</step>
					<octave>4</octave>
				</pitch>
				<duration>240</duration>
				<voice>1</voice>
				<type>half</type>
				<dot/>
				<stem>down</stem>
				<lyric number="1">
					<syllabic>single</syllabic>
					<text>l</text>
				</lyric>
				<lyric number="2">
					<syllabic>single</syllabic>
					<text>cuor</text>
				</lyric>
			</note>
			<backup>
				<duration>320</duration>
			</backup>
			<barline location="right">
				<ending number="1, 2, 3, 4, 5, 6, 7, 8" type="stop"></ending>
			</barline>
		</measure><!--
===========================================================
-->

		<measure number="2" width="697">
			<print new-system="no"></print>
			<attributes></attributes>
			<note>
				<pitch>
					<step>F</step>
					<octave>5</octave>
				</pitch>
				<duration>80</duration>
				<voice>1</voice>
				<type>quarter</type>
				<stem>down</stem>
			</note>
			<note>
				<pitch>
					<step>A</step>
					<octave>5</octave>
				</pitch>
				<duration>40</duration>
				<voice>1</voice>
				<type>eighth</type>
				<stem>down</stem>
			</note>
			<note>
				<pitch>
					<step>E</step>
					<octave>5</octave>
				</pitch>
				<duration>80</duration>
				<voice>1</voice>
				<type>quarter</type>
				<stem>down</stem>
			</note>
			<note>
				<pitch>
					<step>D</step>
					<octave>5</octave>
				</pitch>
				<duration>80</duration>
				<voice>1</voice>
				<type>quarter</type>
				<stem>down</stem>
				<notations>
					<slur type="start" number="1"></slur>
				</notations>
			</note>
			<note>
				<pitch>
					<step>C</step>
					<octave>5</octave>
				</pitch>
				<duration>80</duration>
				<voice>1</voice>
				<type>quarter</type>
				<stem>down</stem>
				<notations>
					<slur type="stop" number="1"></slur>
				</notations>
			</note>
			<note>
				<pitch>
					<step>B</step>
					<octave>4</octave>
				</pitch>
				<duration>120</duration>
				<voice>1</voice>
				<type>quarter</type>
				<dot/>
				<stem>down</stem>
			</note>
			<note>
				<pitch>
					<step>B</step>
					<octave>4</octave>
				</pitch>
				<duration>80</duration>
				<voice>1</voice>
				<type>quarter</type>
				<stem>down</stem>
				<notations></notations>
			</note>
			<note>
				<pitch>
					<step>C</step>
					<octave>6</octave>
				</pitch>
				<duration>40</duration>
				<voice>1</voice>
				<type>eighth</type>
				<stem>down</stem>
			</note>
			<backup>
				<duration>360</duration>
			</backup>
		</measure><!--
===========================================================
-->

		<measure number="3" width="281">
			<print new-system="yes">
				<system-layout>
					<system-margins>
						<left-margin>3</left-margin>
						<right-margin>5</right-margin>
					</system-margins>
					<system-distance>72</system-distance>
				</system-layout>
				<staff-layout number="1">
					<staff-distance>109</staff-distance>
				</staff-layout>
			</print>
			<attributes></attributes>
			<attributes>
				<clef>
					<sign>F</sign>
					<line>4</line>
				</clef>
			</attributes>
			<note>
				<pitch>
					<step>D</step>
					<octave>3</octave>
				</pitch>
				<duration>40</duration>
				<voice>1</voice>
				<type>eighth</type>
				<stem>down</stem>
			</note>
			<note>
				<pitch>
					<step>F</step>
					<octave>3</octave>
				</pitch>
				<duration>80</duration>
				<voice>1</voice>
				<type>quarter</type>
				<stem>down</stem>
			</note>
			<forward>
				<duration>120</duration>
			</forward>
		</measure><!--
===========================================================
-->

		<measure number="4" width="149">
			<print new-system="no"></print>
			<attributes></attributes>
			<note>
				<pitch>
					<step>F</step>
					<octave>3</octave>
				</pitch>
				<duration>120</duration>
				<voice>1</voice>
				<type>quarter</type>
				<dot/>
				<stem>down</stem>
			</note>
			<note>
				<rest/>
				<duration>40</duration>
				<voice>1</voice>
				<type>eighth</type>
			</note>
			<note>
				<pitch>
					<step>D</step>
					<octave>4</octave>
				</pitch>
				<duration>80</duration>
				<voice>1</voice>
				<type>quarter</type>
				<stem>down</stem>
			</note>
		</measure><!--
===========================================================
-->

		<measure number="5" width="187">
			<print new-system="no"></print>
			<attributes></attributes>
			<note>
				<pitch>
					<step>F</step>
					<octave>4</octave>
				</pitch>
				<duration>120</duration>
				<voice>1</voice>
				<type>quarter</type>
				<dot/>
				<stem>down</stem>
				<lyric number="1">
					<syllabic>single</syllabic>
					<text>r</text>
				</lyric>
			</note>
			<note>
				<pitch>
					<step>B</step>
					<octave>3</octave>
				</pitch>
				<duration>120</duration>
				<voice>1</voice>
				<type>quarter</type>
				<dot/>
				<stem>down</stem>
			</note>
		</measure><!--
===========================================================
-->

		<measure number="6" width="110">
			<print new-system="no"></print>
			<attributes></attributes>
			<note>
				<pitch>
					<step>C</step>
					<octave>4</octave>
				</pitch>
				<duration>240</duration>
				<voice>1</voice>
				<type>half</type>
				<dot/>
				<stem>down</stem>
				<notations>
					<fermata type="upright"/>
				</notations>
			</note>
		</measure><!--
===========================================================
-->

		<measure number="7" width="236">
			<print new-system="no"></print>
			<attributes></attributes>
			<note>
				<pitch>
					<step>A</step>
					<octave>3</octave>
				</pitch>
				<duration>120</duration>
				<voice>1</voice>
				<type>quarter</type>
				<dot/>
				<stem>down</stem>
				<notations>
					<slur type="start" number="1"></slur>
				</notations>
			</note>
			<note>
				<pitch>
					<step>G</step>
					<octave>3</octave>
				</pitch>
				<duration>120</duration>
				<voice>1</voice>
				<type>quarter</type>
				<dot/>
				<stem>down</stem>
				<notations>
					<slur type="stop" number="1"></slur>
				</notations>
			</note>
		</measure><!--
===========================================================
-->

		<measure number="8" width="205">
			<print new-system="yes">
				<system-layout>
					<system-margins>
						<left-margin>1</left-margin>
						<right-margin>8</right-margin>
					</system-margins>
					<system-distance>73</system-distance>
				</system-layout>
				<staff-layout number="1">
					<staff-distance>79</staff-distance>
				</staff-layout>
			</print>
			<attributes></attributes>
			<note>
				<pitch>
					<step>E</step>
					<octave>4</octave>
				</pitch>
				<duration>80</duration>
				<voice>1</voice>
				<type>quarter</type>
				<stem>down</stem>
			</note>
			<forward>
				<duration>160</duration>
			</forward>
		</measure><!--
===========================================================
-->

		<measure number="9" width="212">
			<print new-system="no"></print>
			<attributes></attributes>
			<note>
				<pitch>
					<step>D</step>
					<octave>4</octave>
				</pitch>
				<duration>120</duration>
				<voice>1</voice>
				<type>quarter</type>
				<dot/>
				<stem>down</stem>
				<lyric number="1">
					<syllabic>single</syllabic>
					<text>S</text>
				</lyric>
			</note>
			<note>
				<pitch>
					<step>C</step>
					<octave>5</octave>
				</pitch>
				<duration>80</duration>
				<voice>1</voice>
				<type>quarter</type>
				<stem>up</stem>
			</note>
			<note>
				<pitch>
					<step>C</step>
					<octave>3</octave>
				</pitch>
				<duration>40</duration>
				<voice>1</voice>
				<type>eighth</type>
				<stem>up</stem>
			</note>
			<note>
				<pitch>
					<step>C</step>
					<octave>5</octave>
				</pitch>
				<duration>80</duration>
				<voice>1</voice>
				<type>quarter</type>
				<stem>up</stem>
			</note>
			<backup>
				<duration>80</duration>
			</backup>
		</measure><!--
===========================================================
-->

		<measure number="10" width="162">
			<print new-system="no"></print>
			<attributes></attributes>
			<note>
				<pitch>
					<step>D</step>
					<octave>3</octave>
				</pitch>
				<duration>120</duration>
				<voice>1</voice>
				<type>quarter</type>
				<dot/>
				<stem>down</stem>
			</note>
			<note>
				<pitch>
					<step>G</step>
					<octave>3</octave>
				</pitch>
				<duration>120</duration>
				<voice>1</voice>
				<type>quarter</type>
				<dot/>
				<stem>down</stem>
			</note>
		</measure><!--
===========================================================
-->

		<measure number="11" width="144">
			<print new-system="no"></print>
			<attributes></attributes>
			<note>
				<pitch>
					<step>A</step>
					<octave>3</octave>
				</pitch>
				<duration>40</duration>
				<voice>1</voice>
				<type>eighth</type>
				<stem>down</stem>
			</note>
			<note>
				<pitch>
					<step>A</step>
					<octave>3</octave>
				</pitch>
				<duration>80</duration>
				<voice>1</voice>
				<type>quarter</type>
				<stem>down</stem>
			</note>
			<note>
				<pitch>
					<step>D</step>
					<octave>3</octave>
				</pitch>
				<duration>40</duration>
				<voice>1</voice>
				<type>eighth</type>
				<stem>down</stem>
			</note>
			<forward>
				<duration>80</duration>
			</forward>
		</measure><!--
===========================================================
-->

		<measure number="12" width="238">
			<print new-system="no"></print>
			<attributes></attributes>
			<note>
				<pitch>
					<step>E</step>
					<octave>3</octave>
				</pitch>
				<duration>40</duration>
				<voice>1</voice>
				<type>eighth</type>
				<stem>down</stem>
				<lyric number="1">
					<syllabic>single</syllabic>
					<text>I-</text>
				</lyric>
			</note>
			<note>
				<rest/>
				<duration>480</duration>
				<voice>1</voice>
				<type>whole</type>
				<dot/>
			</note>
			<note>
				<pitch>
					<step>C</step>
					<octave>3</octave>
				</pitch>
				<duration>40</duration>
				<voice>1</voice>
				<type>eighth</type>
				<stem>down</stem>
				<beam number="1">begin</beam>
			</note>
			<note>
				<pitch>
					<step>F</step>
					<octave>3</octave>
				</pitch>
				<duration>40</duration>
				<voice>1</voice>
				<type>eighth</type>
				<stem>down</stem>
				<beam number="1">end</beam>
			</note>
			<backup>
				<duration>360</duration>
			</backup>
		</measure><!--
===========================================================
-->

		<measure number="13" width="198">
			<print new-system="yes">
				<system-layout>
					<system-margins>
						<left-margin>0</left-margin>
						<right-margin>11</right-margin>
					</system-margins>
					<system-distance>78</system-distance>
				</system-layout>
				<staff-layout number="1">
					<staff-distance>74</staff-distance>
				</staff-layout>
			</print>
			<attributes></attributes>
			<note>
				<pitch>
					<step>D</step>
					<octave>3</octave>
				</pitch>
				<duration>120</duration>
				<voice>1</voice>
				<type>quarter</type>
				<dot/>
				<stem>down</stem>
			</note>
			<note>
				<pitch>
					<step>A</step>
					<octave>3</octave>
				</pitch>
				<duration>40</duration>
				<voice>1</voice>
				<type>eighth</type>
				<stem>down</stem>
			</note>
			<forward>
				<duration>80</duration>
			</forward>
		</measure><!--
===========================================================
-->

		<measure number="14" width="244">
			<print new-system="no"></print>
			<attributes></attributes>
			<forward>
				<duration>240</duration>
			</forward>
		</measure><!--
===========================================================
-->

		<measure number="15" width="191">
			<print new-system="no"></print>
			<attributes></attributes>
			<note>
				<pitch>
					<step>A</step>
					<octave>3</octave>
				</pitch>
				<duration>80</duration>
				<voice>1</voice>
				<type>quarter</type>
				<stem>down</stem>
			</note>
			<note>
				<pitch>
					<step>G</step>
					<octave>3</octave>
				</pitch>
				<duration>40</duration>
				<voice>1</voice>
				<type>eighth</type>
				<stem>down</stem>
			</note>
			<forward>
				<duration>120</duration>
			</forward>
		</measure><!--
===========================================================
-->

		<measure number="16" width="238">
			<print new-system="no"></print>
			<attributes></attributes>
			<note>
				<rest/>
				<duration>40</duration>
				<voice>1</voice>
				<type>eighth</type>
				<lyric number="1">
					<syllabic>single</syllabic>
					<text>I-</text>
				</lyric>
			</note>
			<note>
				<pitch>
					<step>B</step>
					<octave>3</octave>
				</pitch>
				<duration>120</duration>
				<voice>1</voice>
				<type>quarter</type>
				<dot/>
				<stem>down</stem>
			</note>
			<note>
				<pitch>
					<step>G</step>
					<octave>3</octave>
				</pitch>
				<duration>80</duration>
				<voice>1</voice>
				<type>quarter</type>
				<stem>down</stem>
				<lyric number="1">
					<syllabic>single</syllabic>
					<text>-I</text>
				</lyric>
			</note>
		</measure><!--
===========================================================
-->

		<measure number="17" width="89">
			<print new-system="no"></print>
			<attributes></attributes>
			<note>
				<pitch>
					<step>A</step>
					<octave>3</octave>
				</pitch>
				<duration>320</duration>
				<voice>1</voice>
				<type>whole</type>
				<stem>none</stem>
			</note>
			<backup>
				<duration>80</duration>
			</backup>
			<barline location="right">
				<bar-style>light-heavy</bar-style>
			</barline>
		</measure>
	</part><!--
===========================================================
-->

	<part id="P4">
		<measure number="1" width="268">
			<print>
				<page-layout>
					<page-height>1881.48</page-height>
					<page-width>1453.87</page-width>
					<page-margins>
						<left-margin>159.06</left-margin>
						<right-margin>321.13</right-margin>
						<top-margin>127.00</top-margin>
						<bottom-margin>63.50</bottom-margin>
					</page-margins>
				</page-layout>
				<system-layout>
					<system-margins>
						<left-margin>7</left-margin>
						<right-margin>0</right-margin>
					</system-margins>
					<top-system-distance>190</top-system-distance>
				</system-layout>
				<staff-layout number="1">
					<staff-distance>258</staff-distance>
				</staff-layout>
			</print>
			<attributes>
				<divisions>80</divisions>
				<key>
					<fifths>0</fifths>
				</key>
				<time>
					<beats>6</beats>
					<beat-type>8</beat-type>
				</time>
				<clef>
					<sign>F</sign>
					<line>4</line>
				</clef>
				<staff-details number="1" print-object="yes">
					<staff-size>59</staff-size>
				</staff-details>
			</attributes>
			<attributes></attributes>
			<barline location="left">
				<ending number="1, 2, 3, 4, 5, 6, 7, 8" type="start"></ending>
			</barline>
			<direction placement="above">
				<direction-type>
					<words relative-x="-149.5680" default-y="138.1816" font-family="Times New Roman" font-style="normal" font-size="10" font-weight="normal" color="#000000">Tres</words>
				</direction-type>
				<staff>1</staff>
			</direction>
			<direction placement="above">
				<direction-type>
					<words relative-x="-144.1260" default-y="120.8563" font-family="Times New Roman" font-style="normal" font-size="9" font-weight="normal" color="#000000">Puis</words>
				</direction-type>
				<staff>1</staff>
			</direction>
			<direction placement="above">
				<direction-type>
					<words relative-x="-128.6209" default-y="100.2365" font-family="Times New Roman" font-style="normal" font-size="9" font-weight="normal" color="#000000">u a l l t</words>
				</direction-type>
				<staff>1</staff>
			</direction>
			<direction placement="above">
				<direction-type>
					<words relative-x="75.9906" default-y="138.1816" font-family="Times New Roman" font-style="normal" font-size="10" font-weight="normal" color="#000000">dous</words>
				</direction-type>
				<staff>1</staff>
			</direction>
			<direction placement="above">
				<direction-type>
					<words relative-x="81.3915" default-y="115.9146" font-family="Times New Roman" font-style="normal" font-size="9" font-weight="normal" color="#000000">$ue</words>
				</direction-type>
				<staff>1</staff>
			</direction>
			<direction placement="above">
				<direction-type>
					<words relative-x="87.6050" default-y="97.7598" font-family="Times New Roman" font-style="normal" font-size="9" font-weight="normal" color="#000000">l e</words>
				</direction-type>
				<staff>1</staff>
			</direction>
			<note>
				<pitch>
					<step>G</step>
					<octave>6</octave>
				</pitch>
				<duration>40</duration>
				<instrument id="P4-S0V0"/>
				<voice>1</voice>
				<type>eighth</type>
				<stem>down</stem>
				<beam number="1">begin</beam>
			</note>
			<backup>
				<duration>40</duration>
			</backup>
			<note>
				<pitch>
					<step>A</step>
					<octave>3</octave>
				</pitch>
				<duration>40</duration>
				<instrument id="P4-S0V1"/>
				<voice>2</voice>
				<type>eighth</type>
				<stem>down</stem>
			</note>
			<note>
				<pitch>
					<step>D</step>
					<octave>7</octave>
				</pitch>
				<duration>40</duration>
				<instrument id="P4-S0V0"/>
				<voice>1</voice>
				<type>eighth</type>
				<stem>down</stem>
				<beam number="1">end</beam>
			</note>
			<backup>
				<duration>40</duration>
			</backup>
			<note>
				<pitch>
					<step>B</step>
					<octave>3</octave>
				</pitch>
				<duration>80</duration>
				<instrument id="P4-S0V1"/>
				<voice>2</voice>
				<type>quarter</type>
				<stem>down</stem>
			</note>
			<backup>
				<duration>40</duration>
			</backup>
			<direction placement="above">
				<direction-type>
					<words relative-x="120.3991" default-y="101.0660" font-family="Times New Roman" font-style="normal" font-size="9" font-weight="normal" color="#000000">s o u - v i c n t</words>
				</direction-type>
				<staff>1</staff>
			</direction>
			<direction placement="above">
				<direction-type>
					<words relative-x="124.2898" default-y="119.2091" font-family="Times New Roman" font-style="normal" font-size="9" font-weight="normal" color="#000000">Ve - oir</words>
				</direction-type>
				<staff>1</staff>
			</direction>
			<direction placement="above">
				<direction-type>
					<words relative-x="132.8180" default-y="136.9549" font-family="Times New Roman" font-style="normal" font-size="10" font-weight="normal" color="#000000">a _ trait</words>
				</direction-type>
				<staff>1</staff>
			</direction>
			<forward>
				<duration>160</duration>
			</forward>
			<barline location="right">
				<ending number="1, 2, 3, 4, 5, 6, 7, 8" type="stop"></ending>
			</barline>
		</measure><!--
===========================================================
-->

		<measure number="2" width="697">
			<print new-system="no"></print>
			<attributes></attributes>
			<note>
				<pitch>
					<step>A</step>
					<octave>6</octave>
				</pitch>
				<duration>40</duration>
				<instrument id="P4-S0V0"/>
				<voice>1</voice>
				<type>eighth</type>
				<stem>down</stem>
			</note>
			<backup>
				<duration>40</duration>
			</backup>
			<note>
				<pitch>
					<step>D</step>
					<octave>4</octave>
				</pitch>
				<duration>160</duration>
				<instrument id="P4-S0V1"/>
				<voice>2</voice>
				<type>half</type>
				<stem>down</stem>
			</note>
			<backup>
				<duration>120</duration>
			</backup>
			<direction placement="above">
				<direction-type>
					<words relative-x="33.4943" default-y="118.3913" font-family="Times New Roman" font-style="normal" font-size="9" font-weight="normal" color="#000000">puis,</words>
				</direction-type>
				<staff>1</staff>
			</direction>
			<direction placement="above">
				<direction-type>
					<words relative-x="42.4706" default-y="135.7165" font-family="Times New Roman" font-style="normal" font-size="10" font-weight="normal" color="#000000">et</words>
				</direction-type>
				<staff>1</staff>
			</direction>
			<direction placement="above">
				<direction-type>
					<words relative-x="42.4706" default-y="101.0660" font-family="Times New Roman" font-style="normal" font-size="9" font-weight="normal" color="#000000">d e</words>
				</direction-type>
				<staff>1</staff>
			</direction>
			<direction placement="above">
				<direction-type>
					<words relative-x="136.9766" default-y="132.0015" font-family="Times New Roman" font-style="normal" font-size="10" font-weight="normal" color="#000000">l ln</words>
				</direction-type>
				<staff>1</staff>
			</direction>
			<direction placement="above">
				<direction-type>
					<words relative-x="143.8045" default-y="99.8277" font-family="Times New Roman" font-style="normal" font-size="9" font-weight="normal" color="#000000">l u r</words>
				</direction-type>
				<staff>1</staff>
			</direction>
			<direction placement="above">
				<direction-type>
					<words relative-x="148.5053" default-y="119.2091" font-family="Times New Roman" font-style="normal" font-size="9" font-weight="normal" color="#000000">de chie_ re</words>
				</direction-type>
				<staff>1</staff>
			</direction>
			<direction placement="above">
				<direction-type>
					<words relative-x="149.8028" default-y="10.7246" font-family="Times New Roman" font-style="normal" font-size="0" font-weight="normal" color="#000000">I-</words>
				</direction-type>
				<staff>1</staff>
			</direction>
			<direction placement="above">
				<direction-type>
					<words relative-x="187.8562" default-y="136.5343" font-family="Times New Roman" font-style="normal" font-size="10" font-weight="normal" color="#000000">- lic_ rc</words>
				</direction-type>
				<staff>1</staff>
			</direction>
			<direction placement="above">
				<direction-type>
					<dynamics>
						<f/>
					</dynamics>
				</direction-type>
				<staff>1</staff>
				<sound dynamics="100"/>
			</direction>
			<direction placement="above">
				<direction-type>
					<words relative-x="219.9325" default-y="96.9304" font-family="Times New Roman" font-style="normal" font-size="9" font-weight="normal" color="#000000">a s _ s o l</words>
				</direction-type>
				<staff>1</staff>
			</direction>
			<direction placement="above">
				<direction-type>
					<words relative-x="251.1367" default-y="51.9758" font-family="Times New Roman" font-style="normal" font-size="9" font-weight="normal" color="#000000">- l</words>
				</direction-type>
				<staff>1</staff>
			</direction>
			<direction placement="above">
				<direction-type>
					<words relative-x="299.8892" default-y="55.6792" font-family="Times New Roman" font-style="normal" font-size="9" font-weight="normal" color="#000000">l - - -</words>
				</direction-type>
				<staff>1</staff>
			</direction>
			<note>
				<pitch>
					<step>A</step>
					<octave>3</octave>
				</pitch>
				<duration>80</duration>
				<instrument id="P4-S0V0"/>
				<voice>1</voice>
				<type>quarter</type>
				<stem>down</stem>
			</note>
			<direction placement="above">
				<direction-type>
					<words relative-x="103.4609" default-y="117.5618" font-family="Times New Roman" font-style="normal" font-size="9" font-weight="normal" color="#000000">tres</words>
				</direction-type>
				<staff>1</staff>
			</direction>
			<direction placement="above">
				<direction-type>
					<words relative-x="111.1822" default-y="136.9549" font-family="Times New Roman" font-style="normal" font-size="10" font-weight="normal" color="#000000">jo - ly -</words>
				</direction-type>
				<staff>1</staff>
			</direction>
			<direction placement="above">
				<direction-type>
					<words relative-x="123.5831" default-y="101.0660" font-family="Times New Roman" font-style="normal" font-size="9" font-weight="normal" color="#000000">o - l y -</words>
				</direction-type>
				<staff>1</staff>
			</direction>
			<direction placement="above">
				<direction-type>
					<words relative-x="179.1635" default-y="119.2091" font-family="Times New Roman" font-style="normal" font-size="9" font-weight="normal" color="#000000">ly -</words>
				</direction-type>
				<staff>1</staff>
			</direction>
			<note>
				<pitch>
					<step>G</step>
					<octave>3</octave>
				</pitch>
				<duration>80</duration>
				<instrument id="P4-S0V0"/>
				<voice>1</voice>
				<type>quarter</type>
				<stem>down</stem>
			</note>
			<backup>
				<duration>40</duration>
			</backup>
			<note>
				<pitch>
					<step>B</step>
					<octave>3</octave>
				</pitch>
				<duration>40</duration>
				<instrument id="P4-S0V1"/>
				<voice>2</voice>
				<type>eighth</type>
				<stem>down</stem>
			</note>
			<note>
				<pitch>
					<step>D</step>
					<octave>4</octave>
				</pitch>
				<duration>40</duration>
				<instrument id="P4-S0V1"/>
				<voice>2</voice>
				<type>eighth</type>
				<stem>down</stem>
			</note>
			<note>
				<pitch>
					<step>B</step>
					<octave>3</octave>
				</pitch>
				<duration>80</duration>
				<instrument id="P4-S0V1"/>
				<voice>2</voice>
				<type>quarter</type>
				<stem>down</stem>
			</note>
			<note>
				<pitch>
					<step>F</step>
					<octave>6</octave>
				</pitch>
				<duration>40</duration>
				<instrument id="P4-S0V1"/>
				<voice>2</voice>
				<type>eighth</type>
				<stem>down</stem>
			</note>
			<backup>
				<duration>120</duration>
			</backup>
		</measure><!--
===========================================================
-->

		<measure number="3" width="281">
			<print new-system="yes">
				<system-layout>
					<system-margins>
						<left-margin>3</left-margin>
						<right-margin>5</right-margin>
					</system-margins>
					<system-distance>72</system-distance>
				</system-layout>
				<staff-layout number="1">
					<staff-distance>41</staff-distance>
				</staff-layout>
			</print>
			<attributes></attributes>
			<forward>
				<duration>240</duration>
			</forward>
		</measure><!--
===========================================================
-->

		<measure number="4" width="149">
			<print new-system="no"></print>
			<attributes></attributes>
			<note>
				<pitch>
					<step>A</step>
					<octave>3</octave>
				</pitch>
				<duration>240</duration>
				<instrument id="P4-S0V0"/>
				<voice>1</voice>
				<type>half</type>
				<dot/>
				<stem>down</stem>
			</note>
		</measure><!--
===========================================================
-->

		<measure number="5" width="187">
			<print new-system="no"></print>
			<attributes></attributes>
			<note>
				<pitch>
					<step>A</step>
					<octave>3</octave>
				</pitch>
				<duration>80</duration>
				<instrument id="P4-S0V0"/>
				<voice>1</voice>
				<type>quarter</type>
				<stem>down</stem>
			</note>
			<note>
				<pitch>
					<step>G</step>
					<octave>3</octave>
				</pitch>
				<duration>80</duration>
				<instrument id="P4-S0V0"/>
				<voice>1</voice>
				<type>quarter</type>
				<stem>down</stem>
			</note>
			<forward>
				<duration>80</duration>
			</forward>
		</measure><!--
===========================================================
-->

		<measure number="6" width="110">
			<print new-system="no"></print>
			<attributes></attributes>
			<note>
				<pitch>
					<step>F</step>
					<octave>3</octave>
				</pitch>
				<duration>240</duration>
				<instrument id="P4-S0V0"/>
				<voice>1</voice>
				<type>half</type>
				<dot/>
				<stem>down</stem>
				<notations>
					<fermata type="upright"/>
				</notations>
			</note>
		</measure><!--
===========================================================
-->

		<measure number="7" width="236">
			<print new-system="no"></print>
			<attributes></attributes>
			<note>
				<rest/>
				<duration>80</duration>
				<voice>1</voice>
				<type>quarter</type>
			</note>
			<note>
				<pitch>
					<step>E</step>
					<octave>3</octave>
				</pitch>
				<duration>40</duration>
				<instrument id="P4-S0V0"/>
				<voice>1</voice>
				<type>eighth</type>
				<stem>down</stem>
			</note>
			<forward>
				<duration>120</duration>
			</forward>
		</measure><!--
===========================================================
-->

		<measure number="8" width="205">
			<print new-system="yes">
				<system-layout>
					<system-margins>
						<left-margin>1</left-margin>
						<right-margin>8</right-margin>
					</system-margins>
					<system-distance>73</system-distance>
				</system-layout>
				<staff-layout number="1">
					<staff-distance>39</staff-distance>
				</staff-layout>
			</print>
			<attributes></attributes>
			<note>
				<pitch>
					<step>D</step>
					<octave>3</octave>
				</pitch>
				<duration>120</duration>
				<instrument id="P4-S0V0"/>
				<voice>1</voice>
				<type>quarter</type>
				<dot/>
				<stem>down</stem>
			</note>
			<note>
				<pitch>
					<step>D</step>
					<octave>3</octave>
				</pitch>
				<duration>80</duration>
				<instrument id="P4-S0V0"/>
				<voice>1</voice>
				<type>quarter</type>
				<stem>down</stem>
			</note>
			<forward>
				<duration>40</duration>
			</forward>
		</measure><!--
===========================================================
-->

		<measure number="9" width="212">
			<print new-system="no"></print>
			<attributes></attributes>
			<forward>
				<duration>240</duration>
			</forward>
		</measure><!--
===========================================================
-->

		<measure number="10" width="162">
			<print new-system="no"></print>
			<attributes></attributes>
			<note>
				<pitch>
					<step>D</step>
					<octave>4</octave>
				</pitch>
				<duration>120</duration>
				<instrument id="P4-S0V0"/>
				<voice>1</voice>
				<type>quarter</type>
				<dot/>
				<stem>down</stem>
			</note>
			<forward>
				<duration>120</duration>
			</forward>
		</measure><!--
===========================================================
-->

		<measure number="11" width="144">
			<print new-system="no"></print>
			<attributes></attributes>
			<note>
				<pitch>
					<step>A</step>
					<octave>3</octave>
				</pitch>
				<duration>120</duration>
				<instrument id="P4-S0V0"/>
				<voice>1</voice>
				<type>quarter</type>
				<dot/>
				<stem>down</stem>
			</note>
			<forward>
				<duration>120</duration>
			</forward>
		</measure><!--
===========================================================
-->

		<measure number="12" width="238">
			<print new-system="no"></print>
			<attributes></attributes>
			<note>
				<pitch>
					<step>A</step>
					<octave>3</octave>
				</pitch>
				<duration>80</duration>
				<instrument id="P4-S0V0"/>
				<voice>1</voice>
				<type>quarter</type>
				<stem>down</stem>
			</note>
			<note>
				<pitch>
					<step>G</step>
					<octave>3</octave>
				</pitch>
				<duration>80</duration>
				<instrument id="P4-S0V0"/>
				<voice>1</voice>
				<type>quarter</type>
				<stem>down</stem>
			</note>
			<forward>
				<duration>80</duration>
			</forward>
		</measure><!--
===========================================================
-->

		<measure number="13" width="198">
			<print new-system="yes">
				<system-layout>
					<system-margins>
						<left-margin>0</left-margin>
						<right-margin>11</right-margin>
					</system-margins>
					<system-distance>78</system-distance>
				</system-layout>
				<staff-layout number="1">
					<staff-distance>36</staff-distance>
				</staff-layout>
			</print>
			<attributes></attributes>
			<note>
				<pitch>
					<step>D</step>
					<octave>3</octave>
				</pitch>
				<duration>80</duration>
				<instrument id="P4-S0V0"/>
				<voice>1</voice>
				<type>quarter</type>
				<stem>down</stem>
			</note>
			<forward>
				<duration>160</duration>
			</forward>
		</measure><!--
===========================================================
-->

		<measure number="14" width="244">
			<print new-system="no"></print>
			<attributes></attributes>
			<direction placement="below">
				<direction-type>
					<words relative-x="237.3263" default-y="-63.4598" font-family="Times New Roman" font-style="normal" font-size="10" font-weight="normal" color="#000000">CUU  _I</words>
				</direction-type>
				<staff>1</staff>
			</direction>
			<forward>
				<duration>240</duration>
			</forward>
		</measure><!--
===========================================================
-->

		<measure number="15" width="191">
			<print new-system="no"></print>
			<attributes></attributes>
			<note>
				<pitch>
					<step>G</step>
					<octave>3</octave>
				</pitch>
				<duration>80</duration>
				<instrument id="P4-S0V0"/>
				<voice>1</voice>
				<type>quarter</type>
				<stem>down</stem>
			</note>
			<note>
				<pitch>
					<step>D</step>
					<octave>3</octave>
				</pitch>
				<duration>120</duration>
				<instrument id="P4-S0V0"/>
				<voice>1</voice>
				<type>quarter</type>
				<dot/>
				<stem>down</stem>
			</note>
			<forward>
				<duration>40</duration>
			</forward>
		</measure><!--
===========================================================
-->

		<measure number="16" width="238">
			<print new-system="no"></print>
			<attributes></attributes>
			<note>
				<pitch>
					<step>F</step>
					<octave>3</octave>
				</pitch>
				<duration>80</duration>
				<instrument id="P4-S0V0"/>
				<voice>1</voice>
				<type>quarter</type>
				<stem>down</stem>
				<notations>
					<articulations>
						<tenuto placement="above"/>
					</articulations>
				</notations>
			</note>
			<note>
				<pitch>
					<step>E</step>
					<octave>3</octave>
				</pitch>
				<duration>80</duration>
				<instrument id="P4-S0V0"/>
				<voice>1</voice>
				<type>quarter</type>
				<stem>down</stem>
			</note>
			<forward>
				<duration>80</duration>
			</forward>
		</measure><!--
===========================================================
-->

		<measure number="17" width="89">
			<print new-system="no"></print>
			<attributes></attributes>
			<note>
				<pitch>
					<step>D</step>
					<octave>3</octave>
				</pitch>
				<duration>320</duration>
				<instrument id="P4-S0V0"/>
				<voice>1</voice>
				<type>whole</type>
				<stem>none</stem>
			</note>
			<backup>
				<duration>80</duration>
			</backup>
			<barline location="right">
				<bar-style>light-heavy</bar-style>
			</barline>
		</measure>
	</part>
</score-partwise>