<?xml version="1.0" encoding="UTF-8" standalone="no"?>
<!DOCTYPE score-partwise PUBLIC "-//Recordare//DTD MusicXML 1.1 Partwise//EN" "http://www.musicxml.org/dtds/partwise.dtd">

<score-partwise version="2.0">
	<movement-title></movement-title>
	<identification>
		<creator type="composer"></creator>
		<encoding>
			<software>SmartScore X2 Pro</software>
			<encoding-date>2018-08-13</encoding-date>
			<supports attribute="new-system" element="print" type="yes" value="yes"/>
			<supports attribute="new-page" element="print" type="yes" value="yes"/>
		</encoding>
	</identification>
	<defaults>
		<scaling>
			<millimeters>6.00</millimeters>
			<tenths>40</tenths>
		</scaling>
		<page-layout>
			<page-height>1862.67</page-height>
			<page-width>1439.33</page-width>
			<page-margins type="both">
				<left-margin>144.57</left-margin>
				<right-margin>144.57</right-margin>
				<top-margin>162.93</top-margin>
				<bottom-margin>162.93</bottom-margin>
			</page-margins>
		</page-layout>
	</defaults>
	<part-list>
		<score-part id="P1">
			<part-name>Soprano</part-name>
			<part-abbreviation>Sop</part-abbreviation>
			<score-instrument id="P1-S0V0">
				<instrument-name>Voice Oohs</instrument-name>
			</score-instrument>
			<midi-instrument id="P1-S0V0">
				<midi-channel>1</midi-channel>
				<midi-program>54</midi-program>
				<volume>78</volume>
				<pan>0</pan>
			</midi-instrument>
		</score-part>
		<score-part id="P2">
			<part-name>Tenor</part-name>
			<part-abbreviation>Ten</part-abbreviation>
			<score-instrument id="P2-S0V0">
				<instrument-name>Choir Aahs</instrument-name>
			</score-instrument>
			<midi-instrument id="P2-S0V0">
				<midi-channel>2</midi-channel>
				<midi-program>53</midi-program>
				<volume>78</volume>
				<pan>0</pan>
			</midi-instrument>
		</score-part>
	</part-list><!--
===========================================================
-->

	<part id="P1">
		<measure number="1" width="198">
			<print>
				<page-layout>
					<page-height>1862.67</page-height>
					<page-width>1439.33</page-width>
					<page-margins>
						<left-margin>144.57</left-margin>
						<right-margin>144.57</right-margin>
						<top-margin>162.93</top-margin>
						<bottom-margin>81.46</bottom-margin>
					</page-margins>
				</page-layout>
				<system-layout>
					<system-margins>
						<left-margin>64</left-margin>
						<right-margin>2</right-margin>
					</system-margins>
					<top-system-distance>139</top-system-distance>
				</system-layout>
			</print>
			<attributes>
				<divisions>60</divisions>
				<key>
					<fifths>0</fifths>
				</key>
				<time>
					<beats>3</beats>
					<beat-type>4</beat-type>
				</time>
				<clef>
					<sign>G</sign>
					<line>2</line>
					<clef-octave-change>-1</clef-octave-change>
				</clef>
				<staff-details number="1" print-object="yes">
					<staff-size>65</staff-size>
				</staff-details>
			</attributes>
			<attributes></attributes>
			<direction placement="above">
				<direction-type>
					<words relative-x="-99.3059" default-y="97.8459" font-family="Times New Roman" font-style="normal" font-size="16" font-weight="normal" color="#000000">20. (39) ADE COSTA DORMIENTIS.</words>
				</direction-type>
				<staff>1</staff>
			</direction>
			<note>
				<pitch>
					<step>C</step>
					<octave>4</octave>
				</pitch>
				<duration>120</duration>
				<voice>1</voice>
				<type>half</type>
				<stem>down</stem>
				<lyric number="1">
					<syllabic>begin</syllabic>
					<text>A</text>
				</lyric>
			</note>
			<note>
				<pitch>
					<step>D</step>
					<octave>4</octave>
				</pitch>
				<duration>30</duration>
				<voice>1</voice>
				<type>eighth</type>
				<stem>down</stem>
				<beam number="1">begin</beam>
				<lyric number="1">
					<syllabic>end</syllabic>
					<text>de</text>
				</lyric>
			</note>
			<note>
				<pitch>
					<step>E</step>
					<octave>4</octave>
				</pitch>
				<duration>30</duration>
				<voice>1</voice>
				<type>eighth</type>
				<stem>down</stem>
				<beam number="1">end</beam>
			</note>
		</measure><!--
===========================================================
-->

		<measure number="2" width="131">
			<print new-system="no"></print>
			<attributes></attributes>
			<note>
				<pitch>
					<step>F</step>
					<octave>4</octave>
				</pitch>
				<duration>120</duration>
				<voice>1</voice>
				<type>half</type>
				<stem>down</stem>
				<notations>
					<articulations>
						<tenuto placement="above"/>
					</articulations>
				</notations>
				<lyric number="1">
					<syllabic>begin</syllabic>
					<text>co</text>
				</lyric>
			</note>
			<note>
				<pitch>
					<step>E</step>
					<octave>4</octave>
				</pitch>
				<duration>60</duration>
				<voice>1</voice>
				<type>quarter</type>
				<stem>down</stem>
				<lyric number="1">
					<syllabic>end</syllabic>
					<text>sta</text>
				</lyric>
			</note>
		</measure><!--
===========================================================
-->

		<measure number="3" width="132">
			<print new-system="no"></print>
			<attributes></attributes>
			<note>
				<pitch>
					<step>D</step>
					<octave>4</octave>
				</pitch>
				<duration>120</duration>
				<voice>1</voice>
				<type>half</type>
				<stem>down</stem>
				<lyric number="1">
					<syllabic>begin</syllabic>
					<text>dor</text>
				</lyric>
			</note>
			<note>
				<pitch>
					<step>E</step>
					<octave>4</octave>
				</pitch>
				<duration>60</duration>
				<voice>1</voice>
				<type>quarter</type>
				<stem>down</stem>
				<lyric number="1">
					<syllabic>end</syllabic>
					<text>mi</text>
				</lyric>
			</note>
		</measure><!--
===========================================================
-->

		<measure number="4" width="169">
			<print new-system="no"></print>
			<attributes></attributes>
			<note>
				<pitch>
					<step>C</step>
					<octave>4</octave>
				</pitch>
				<duration>30</duration>
				<voice>1</voice>
				<type>eighth</type>
				<stem>down</stem>
				<beam number="1">begin</beam>
				<lyric number="1">
					<syllabic>begin</syllabic>
					<text>en</text>
				</lyric>
			</note>
			<note>
				<pitch>
					<step>B</step>
					<octave>3</octave>
				</pitch>
				<duration>30</duration>
				<voice>1</voice>
				<type>eighth</type>
				<stem>down</stem>
				<beam number="1">end</beam>
			</note>
			<note>
				<pitch>
					<step>A</step>
					<octave>3</octave>
				</pitch>
				<duration>60</duration>
				<voice>1</voice>
				<type>quarter</type>
				<stem>up</stem>
			</note>
			<note>
				<pitch>
					<step>G</step>
					<octave>3</octave>
				</pitch>
				<duration>60</duration>
				<voice>1</voice>
				<type>quarter</type>
				<stem>up</stem>
				<lyric number="1">
					<syllabic>end</syllabic>
					<text>_tis</text>
				</lyric>
			</note>
		</measure><!--
===========================================================
-->

		<measure number="5" width="131">
			<print new-system="no"></print>
			<attributes></attributes>
			<note>
				<pitch>
					<step>C</step>
					<octave>4</octave>
				</pitch>
				<duration>120</duration>
				<voice>1</voice>
				<type>half</type>
				<stem>down</stem>
				<lyric number="1">
					<syllabic>begin</syllabic>
					<text>ma</text>
				</lyric>
			</note>
			<note>
				<pitch>
					<step>D</step>
					<octave>4</octave>
				</pitch>
				<duration>60</duration>
				<voice>1</voice>
				<type>quarter</type>
				<stem>down</stem>
				<lyric number="1">
					<syllabic>end</syllabic>
					<text>ter</text>
				</lyric>
			</note>
		</measure><!--
===========================================================
-->

		<measure number="6" width="129">
			<print new-system="no"></print>
			<attributes></attributes>
			<note>
				<pitch>
					<step>E</step>
					<octave>4</octave>
				</pitch>
				<duration>120</duration>
				<voice>1</voice>
				<type>half</type>
				<stem>down</stem>
				<lyric number="1">
					<syllabic>single</syllabic>
					<text>fit</text>
				</lyric>
			</note>
			<note>
				<pitch>
					<step>F</step>
					<octave>4</octave>
				</pitch>
				<duration>60</duration>
				<voice>1</voice>
				<type>quarter</type>
				<stem>down</stem>
				<lyric number="1">
					<syllabic>begin</syllabic>
					<text>mi</text>
				</lyric>
			</note>
		</measure><!--
===========================================================
-->

		<measure number="7" width="189">
			<print new-system="no"></print>
			<attributes></attributes>
			<note>
				<pitch>
					<step>G</step>
					<octave>4</octave>
				</pitch>
				<duration>60</duration>
				<voice>1</voice>
				<type>quarter</type>
				<stem>down</stem>
				<lyric number="1">
					<syllabic>middle</syllabic>
					<text>se</text>
				</lyric>
			</note>
			<note>
				<pitch>
					<step>B</step>
					<octave>3</octave>
				</pitch>
				<duration>60</duration>
				<voice>1</voice>
				<type>quarter</type>
				<stem>down</stem>
				<notations></notations>
			</note>
			<note>
				<chord/>
				<pitch>
					<step>F</step>
					<octave>4</octave>
				</pitch>
				<duration>60</duration>
				<voice>1</voice>
				<type>quarter</type>
				<stem>down</stem>
				<notations></notations>
			</note>
			<note>
				<pitch>
					<step>E</step>
					<octave>4</octave>
				</pitch>
				<duration>20</duration>
				<voice>1</voice>
				<type>eighth</type>
				<time-modification>
					<actual-notes>3</actual-notes>
					<normal-notes>2</normal-notes>
				</time-modification>
				<stem>down</stem>
				<beam number="1">begin</beam>
				<notations>
					<tuplet type="start" number="1">
						<tuplet-actual>
							<tuplet-number>3</tuplet-number>
							<tuplet-type>eighth</tuplet-type>
						</tuplet-actual>
						<tuplet-normal>
							<tuplet-number>2</tuplet-number>
							<tuplet-type>eighth</tuplet-type>
						</tuplet-normal>
					</tuplet>
				</notations>
				<lyric number="1">
					<syllabic>middle</syllabic>
					<text>ri</text>
				</lyric>
			</note>
			<direction placement="above">
				<direction-type>
					<words relative-x="-31.2728" default-y="50.6548" font-family="Times New Roman" font-style="normal" font-size="11" font-weight="normal" color="#000000">Fo I. 8</words>
				</direction-type>
				<staff>1</staff>
			</direction>
			<note>
				<pitch>
					<step>D</step>
					<octave>4</octave>
				</pitch>
				<duration>20</duration>
				<voice>1</voice>
				<type>eighth</type>
				<time-modification>
					<actual-notes>3</actual-notes>
					<normal-notes>2</normal-notes>
				</time-modification>
				<stem>down</stem>
				<beam number="1">continue</beam>
				<notations>
					<articulations>
						<tenuto placement="above"/>
					</articulations>
				</notations>
			</note>
			<note>
				<pitch>
					<step>C</step>
					<octave>4</octave>
				</pitch>
				<duration>20</duration>
				<voice>1</voice>
				<type>eighth</type>
				<time-modification>
					<actual-notes>3</actual-notes>
					<normal-notes>2</normal-notes>
				</time-modification>
				<stem>down</stem>
				<beam number="1">end</beam>
				<notations>
					<tuplet type="stop" number="1"></tuplet>
				</notations>
			</note>
		</measure><!--
===========================================================
-->

		<measure number="8" width="168">
			<print new-system="yes">
				<system-layout>
					<system-margins>
						<left-margin>0</left-margin>
						<right-margin>0</right-margin>
					</system-margins>
					<system-distance>145</system-distance>
				</system-layout>
			</print>
			<attributes></attributes>
			<note>
				<pitch>
					<step>D</step>
					<octave>4</octave>
				</pitch>
				<duration>120</duration>
				<voice>1</voice>
				<type>half</type>
				<stem>down</stem>
				<lyric number="1">
					<syllabic>end</syllabic>
					<text>e.</text>
					<extend/>
				</lyric>
			</note>
			<direction placement="above">
				<direction-type>
					<words relative-x="-1.1645" default-y="124.3579" font-family="Times New Roman" font-style="normal" font-size="11" font-weight="normal" color="#000000">TenOr</words>
				</direction-type>
				<staff>1</staff>
			</direction>
			<note>
				<rest/>
				<duration>60</duration>
				<voice>1</voice>
				<type>quarter</type>
			</note>
		</measure><!--
===========================================================
-->

		<measure number="9" width="127">
			<print new-system="no"></print>
			<attributes></attributes>
			<note>
				<pitch>
					<step>E</step>
					<octave>4</octave>
				</pitch>
				<duration>120</duration>
				<voice>1</voice>
				<type>half</type>
				<stem>down</stem>
				<lyric number="1">
					<syllabic>begin</syllabic>
					<text>Chri</text>
				</lyric>
			</note>
			<note>
				<pitch>
					<step>A</step>
					<octave>3</octave>
				</pitch>
				<duration>60</duration>
				<voice>1</voice>
				<type>quarter</type>
				<stem>up</stem>
				<lyric number="1">
					<syllabic>end</syllabic>
					<text>sti</text>
				</lyric>
			</note>
		</measure><!--
===========================================================
-->

		<measure number="10" width="126">
			<print new-system="no"></print>
			<attributes></attributes>
			<direction placement="above">
				<direction-type>
					<words relative-x="0.0000" default-y="22.4431" font-family="Times New Roman" font-style="normal" font-size="10" font-weight="normal" color="#000000">1o</words>
				</direction-type>
				<staff>1</staff>
			</direction>
			<note>
				<pitch>
					<step>D</step>
					<octave>4</octave>
				</pitch>
				<duration>120</duration>
				<voice>1</voice>
				<type>half</type>
				<stem>down</stem>
				<lyric number="1">
					<syllabic>begin</syllabic>
					<text>la</text>
				</lyric>
			</note>
			<note>
				<pitch>
					<step>G</step>
					<octave>4</octave>
				</pitch>
				<duration>60</duration>
				<voice>1</voice>
				<type>quarter</type>
				<stem>down</stem>
				<lyric number="1">
					<syllabic>end</syllabic>
					<text>to</text>
				</lyric>
			</note>
		</measure><!--
===========================================================
-->

		<measure number="11" width="144">
			<print new-system="no"></print>
			<attributes></attributes>
			<note>
				<pitch>
					<step>E</step>
					<octave>4</octave>
				</pitch>
				<duration>120</duration>
				<voice>1</voice>
				<type>half</type>
				<stem>down</stem>
				<lyric number="1">
					<syllabic>begin</syllabic>
					<text>mo</text>
				</lyric>
			</note>
			<note>
				<pitch>
					<step>D</step>
					<octave>4</octave>
				</pitch>
				<duration>30</duration>
				<voice>1</voice>
				<type>eighth</type>
				<stem>down</stem>
				<beam number="1">begin</beam>
				<lyric number="1">
					<syllabic>middle</syllabic>
					<text>ri</text>
				</lyric>
			</note>
			<note>
				<pitch>
					<step>E</step>
					<octave>4</octave>
				</pitch>
				<duration>30</duration>
				<voice>1</voice>
				<type>eighth</type>
				<stem>down</stem>
				<beam number="1">end</beam>
			</note>
		</measure><!--
===========================================================
-->

		<measure number="12" width="164">
			<print new-system="no"></print>
			<attributes></attributes>
			<note>
				<pitch>
					<step>F</step>
					<octave>4</octave>
				</pitch>
				<duration>120</duration>
				<voice>1</voice>
				<type>half</type>
				<stem>down</stem>
				<lyric number="1">
					<syllabic>middle</syllabic>
					<text>en</text>
				</lyric>
			</note>
			<note>
				<pitch>
					<step>E</step>
					<octave>4</octave>
				</pitch>
				<duration>20</duration>
				<voice>1</voice>
				<type>eighth</type>
				<time-modification>
					<actual-notes>3</actual-notes>
					<normal-notes>2</normal-notes>
				</time-modification>
				<stem>down</stem>
				<beam number="1">begin</beam>
				<notations>
					<tuplet type="start" number="1">
						<tuplet-actual>
							<tuplet-number>3</tuplet-number>
							<tuplet-type>eighth</tuplet-type>
						</tuplet-actual>
						<tuplet-normal>
							<tuplet-number>2</tuplet-number>
							<tuplet-type>eighth</tuplet-type>
						</tuplet-normal>
					</tuplet>
				</notations>
				<lyric number="1">
					<syllabic>end</syllabic>
					<text>tis</text>
				</lyric>
			</note>
			<note>
				<pitch>
					<step>D</step>
					<octave>4</octave>
				</pitch>
				<duration>20</duration>
				<voice>1</voice>
				<type>eighth</type>
				<time-modification>
					<actual-notes>3</actual-notes>
					<normal-notes>2</normal-notes>
				</time-modification>
				<stem>down</stem>
				<beam number="1">continue</beam>
				<notations>
					<articulations>
						<staccato placement="above"/>
						<tenuto placement="above"/>
					</articulations>
				</notations>
			</note>
			<note>
				<pitch>
					<step>C</step>
					<octave>4</octave>
				</pitch>
				<duration>20</duration>
				<voice>1</voice>
				<type>eighth</type>
				<time-modification>
					<actual-notes>3</actual-notes>
					<normal-notes>2</normal-notes>
				</time-modification>
				<stem>down</stem>
				<beam number="1">end</beam>
				<notations>
					<tuplet type="stop" number="1"></tuplet>
				</notations>
			</note>
		</measure><!--
===========================================================
-->

		<measure number="13" width="131">
			<print new-system="no"></print>
			<attributes></attributes>
			<note>
				<pitch>
					<step>D</step>
					<octave>4</octave>
				</pitch>
				<duration>120</duration>
				<voice>1</voice>
				<type>half</type>
				<stem>down</stem>
				<lyric number="1">
					<syllabic>begin</syllabic>
					<text>ma</text>
				</lyric>
			</note>
			<note>
				<pitch>
					<step>D</step>
					<octave>4</octave>
				</pitch>
				<duration>60</duration>
				<voice>1</voice>
				<type>quarter</type>
				<stem>down</stem>
				<lyric number="1">
					<syllabic>end</syllabic>
					<text>trem</text>
				</lyric>
			</note>
		</measure><!--
===========================================================
-->

		<measure number="14" width="129">
			<print new-system="no"></print>
			<attributes></attributes>
			<note>
				<pitch>
					<step>E</step>
					<octave>4</octave>
				</pitch>
				<duration>120</duration>
				<voice>1</voice>
				<type>half</type>
				<stem>down</stem>
				<lyric number="1">
					<syllabic>begin</syllabic>
					<text>cre</text>
				</lyric>
			</note>
			<note>
				<pitch>
					<step>F</step>
					<octave>4</octave>
				</pitch>
				<duration>60</duration>
				<voice>1</voice>
				<type>quarter</type>
				<stem>down</stem>
				<lyric number="1">
					<syllabic>end</syllabic>
					<text>at</text>
				</lyric>
			</note>
		</measure><!--
===========================================================
-->

		<measure number="15" width="157">
			<print new-system="no"></print>
			<attributes></attributes>
			<note>
				<pitch>
					<step>D</step>
					<octave>4</octave>
				</pitch>
				<duration>120</duration>
				<voice>1</voice>
				<type>half</type>
				<stem>down</stem>
				<lyric number="1">
					<syllabic>begin</syllabic>
					<text>gra</text>
				</lyric>
			</note>
			<note>
				<pitch>
					<step>C</step>
					<octave>4</octave>
				</pitch>
				<duration>30</duration>
				<voice>1</voice>
				<type>eighth</type>
				<stem>down</stem>
				<beam number="1">begin</beam>
				<lyric number="1">
					<syllabic>middle</syllabic>
					<text>Ci</text>
				</lyric>
			</note>
			<note>
				<pitch>
					<step>B</step>
					<octave>3</octave>
				</pitch>
				<duration>30</duration>
				<voice>1</voice>
				<type>eighth</type>
				<stem>down</stem>
				<beam number="1">end</beam>
			</note>
		</measure><!--
===========================================================
-->

		<measure number="16" width="156">
			<print new-system="yes">
				<system-layout>
					<system-margins>
						<left-margin>2</left-margin>
						<right-margin>0</right-margin>
					</system-margins>
					<system-distance>134</system-distance>
				</system-layout>
			</print>
			<attributes></attributes>
			<note>
				<pitch>
					<step>A</step>
					<octave>3</octave>
				</pitch>
				<duration>120</duration>
				<voice>1</voice>
				<type>half</type>
				<stem>up</stem>
				<lyric number="1">
					<syllabic>end</syllabic>
					<text>e.</text>
					<extend/>
				</lyric>
			</note>
			<note>
				<rest/>
				<duration>60</duration>
				<voice>1</voice>
				<type>quarter</type>
			</note>
		</measure><!--
===========================================================
-->

		<measure number="17" width="130">
			<print new-system="no"></print>
			<attributes></attributes>
			<note>
				<pitch>
					<step>G</step>
					<octave>4</octave>
				</pitch>
				<duration>120</duration>
				<voice>1</voice>
				<type>half</type>
				<stem>down</stem>
				<lyric number="1">
					<syllabic>begin</syllabic>
					<text>San</text>
				</lyric>
			</note>
			<note>
				<pitch>
					<step>E</step>
					<octave>4</octave>
				</pitch>
				<duration>30</duration>
				<voice>1</voice>
				<type>eighth</type>
				<stem>down</stem>
				<beam number="1">begin</beam>
				<lyric number="1">
					<syllabic>end</syllabic>
					<text>guis,</text>
				</lyric>
			</note>
			<note>
				<pitch>
					<step>D</step>
					<octave>4</octave>
				</pitch>
				<duration>30</duration>
				<voice>1</voice>
				<type>eighth</type>
				<stem>down</stem>
				<beam number="1">end</beam>
			</note>
		</measure><!--
===========================================================
-->

		<measure number="18" width="109">
			<print new-system="no"></print>
			<attributes></attributes>
			<note>
				<pitch>
					<step>C</step>
					<octave>4</octave>
				</pitch>
				<duration>120</duration>
				<voice>1</voice>
				<type>half</type>
				<stem>down</stem>
				<lyric number="1">
					<syllabic>begin</syllabic>
					<text>a</text>
				</lyric>
			</note>
			<note>
				<pitch>
					<step>A</step>
					<octave>3</octave>
				</pitch>
				<duration>60</duration>
				<voice>1</voice>
				<type>quarter</type>
				<stem>up</stem>
				<lyric number="1">
					<syllabic>end</syllabic>
					<text>qua</text>
				</lyric>
			</note>
		</measure><!--
===========================================================
-->

		<measure number="19" width="110">
			<print new-system="no"></print>
			<attributes></attributes>
			<note>
				<pitch>
					<step>D</step>
					<octave>4</octave>
				</pitch>
				<duration>120</duration>
				<voice>1</voice>
				<type>half</type>
				<stem>down</stem>
			</note>
			<note>
				<pitch>
					<step>C</step>
					<octave>4</octave>
				</pitch>
				<duration>60</duration>
				<voice>1</voice>
				<type>quarter</type>
				<stem>down</stem>
				<lyric number="1">
					<syllabic>single</syllabic>
					<text>ens</text>
				</lyric>
			</note>
		</measure><!--
===========================================================
-->

		<measure number="20" width="148">
			<print new-system="no"></print>
			<attributes></attributes>
			<direction placement="above">
				<direction-type>
					<words relative-x="0.0000" default-y="35.2678" font-family="Times New Roman" font-style="normal" font-size="11" font-weight="normal" color="#000000">2 O</words>
				</direction-type>
				<staff>1</staff>
			</direction>
			<note>
				<pitch>
					<step>B</step>
					<octave>3</octave>
				</pitch>
				<duration>30</duration>
				<voice>1</voice>
				<type>eighth</type>
				<stem>up</stem>
				<beam number="1">begin</beam>
				<lyric number="1">
					<syllabic>begin</syllabic>
					<text>in</text>
				</lyric>
			</note>
			<note>
				<pitch>
					<step>A</step>
					<octave>3</octave>
				</pitch>
				<duration>30</duration>
				<voice>1</voice>
				<type>eighth</type>
				<stem>up</stem>
				<beam number="1">end</beam>
			</note>
			<note>
				<pitch>
					<step>G</step>
					<octave>3</octave>
				</pitch>
				<duration>60</duration>
				<voice>1</voice>
				<type>quarter</type>
				<stem>up</stem>
			</note>
			<note>
				<pitch>
					<step>D</step>
					<octave>4</octave>
				</pitch>
				<duration>60</duration>
				<voice>1</voice>
				<type>quarter</type>
				<stem>down</stem>
				<lyric number="1">
					<syllabic>end</syllabic>
					<text>de</text>
				</lyric>
			</note>
		</measure><!--
===========================================================
-->

		<measure number="21" width="112">
			<print new-system="no"></print>
			<attributes></attributes>
			<note>
				<pitch>
					<step>C</step>
					<octave>4</octave>
				</pitch>
				<duration>120</duration>
				<voice>1</voice>
				<type>half</type>
				<stem>down</stem>
				<lyric number="1">
					<syllabic>begin</syllabic>
					<text>vir</text>
				</lyric>
			</note>
			<note>
				<pitch>
					<step>B</step>
					<octave>3</octave>
				</pitch>
				<duration>60</duration>
				<voice>1</voice>
				<type>quarter</type>
				<stem>down</stem>
				<lyric number="1">
					<syllabic>end</syllabic>
					<text>tus</text>
				</lyric>
			</note>
		</measure><!--
===========================================================
-->

		<measure number="22" width="109">
			<print new-system="no"></print>
			<attributes></attributes>
			<note>
				<pitch>
					<step>A</step>
					<octave>3</octave>
				</pitch>
				<duration>120</duration>
				<voice>1</voice>
				<type>half</type>
				<stem>up</stem>
				<lyric number="1">
					<syllabic>single</syllabic>
					<text>est</text>
				</lyric>
			</note>
			<note>
				<pitch>
					<step>B</step>
					<octave>3</octave>
				</pitch>
				<duration>60</duration>
				<voice>1</voice>
				<type>quarter</type>
				<stem>down</stem>
				<lyric number="1">
					<syllabic>begin</syllabic>
					<text>ec</text>
				</lyric>
			</note>
		</measure><!--
===========================================================
-->

		<measure number="23" width="114">
			<print new-system="no"></print>
			<attributes></attributes>
			<note>
				<pitch>
					<step>C</step>
					<octave>4</octave>
				</pitch>
				<duration>120</duration>
				<voice>1</voice>
				<type>half</type>
				<stem>down</stem>
				<lyric number="1">
					<syllabic>middle</syllabic>
					<text>_cle</text>
				</lyric>
			</note>
			<note>
				<pitch>
					<step>D</step>
					<octave>4</octave>
				</pitch>
				<duration>60</duration>
				<voice>1</voice>
				<type>quarter</type>
				<stem>down</stem>
				<lyric number="1">
					<syllabic>middle</syllabic>
					<text>si</text>
				</lyric>
			</note>
		</measure><!--
===========================================================
-->

		<measure number="24" width="155">
			<print new-system="no"></print>
			<attributes></attributes>
			<note>
				<pitch>
					<step>E</step>
					<octave>4</octave>
				</pitch>
				<duration>30</duration>
				<voice>1</voice>
				<type>eighth</type>
				<stem>down</stem>
				<beam number="1">begin</beam>
				<lyric number="1">
					<syllabic>end</syllabic>
					<text>e,</text>
				</lyric>
			</note>
			<note>
				<pitch>
					<step>D</step>
					<octave>4</octave>
				</pitch>
				<duration>30</duration>
				<voice>1</voice>
				<type>eighth</type>
				<stem>down</stem>
				<beam number="1">end</beam>
			</note>
			<note>
				<pitch>
					<step>C</step>
					<octave>4</octave>
				</pitch>
				<duration>60</duration>
				<voice>1</voice>
				<type>quarter</type>
				<stem>down</stem>
			</note>
			<note>
				<pitch>
					<step>B</step>
					<octave>3</octave>
				</pitch>
				<duration>60</duration>
				<voice>1</voice>
				<type>quarter</type>
				<stem>down</stem>
			</note>
		</measure><!--
===========================================================
-->

		<measure number="25" width="159">
			<print new-system="yes">
				<system-layout>
					<system-margins>
						<left-margin>2</left-margin>
						<right-margin>0</right-margin>
					</system-margins>
					<system-distance>136</system-distance>
				</system-layout>
			</print>
			<attributes></attributes>
			<note>
				<pitch>
					<step>E</step>
					<octave>4</octave>
				</pitch>
				<duration>120</duration>
				<voice>1</voice>
				<type>half</type>
				<stem>down</stem>
				<lyric number="1">
					<syllabic>single</syllabic>
					<text>que</text>
				</lyric>
			</note>
			<note>
				<pitch>
					<step>D</step>
					<octave>4</octave>
				</pitch>
				<duration>60</duration>
				<voice>1</voice>
				<type>quarter</type>
				<stem>down</stem>
			</note>
		</measure><!--
===========================================================
-->

		<measure number="26" width="110">
			<print new-system="no"></print>
			<attributes></attributes>
			<note>
				<pitch>
					<step>F</step>
					<octave>4</octave>
				</pitch>
				<duration>120</duration>
				<voice>1</voice>
				<type>half</type>
				<stem>down</stem>
				<lyric number="1">
					<syllabic>begin</syllabic>
					<text>_ga</text>
				</lyric>
			</note>
			<note>
				<pitch>
					<step>E</step>
					<octave>4</octave>
				</pitch>
				<duration>60</duration>
				<voice>1</voice>
				<type>quarter</type>
				<stem>down</stem>
				<lyric number="1">
					<syllabic>end</syllabic>
					<text>tos</text>
				</lyric>
			</note>
		</measure><!--
===========================================================
-->

		<measure number="27" width="126">
			<print new-system="no"></print>
			<attributes></attributes>
			<note>
				<pitch>
					<step>D</step>
					<octave>4</octave>
				</pitch>
				<duration>120</duration>
				<voice>1</voice>
				<type>half</type>
				<stem>down</stem>
				<lyric number="1">
					<syllabic>single</syllabic>
					<text>a</text>
				</lyric>
			</note>
			<note>
				<pitch>
					<step>D</step>
					<octave>4</octave>
				</pitch>
				<duration>30</duration>
				<voice>1</voice>
				<type>eighth</type>
				<stem>down</stem>
				<beam number="1">begin</beam>
				<lyric number="1">
					<syllabic>begin</syllabic>
					<text>ec</text>
				</lyric>
			</note>
			<note>
				<pitch>
					<step>E</step>
					<octave>4</octave>
				</pitch>
				<duration>30</duration>
				<voice>1</voice>
				<type>eighth</type>
				<stem>down</stem>
				<beam number="1">end</beam>
			</note>
		</measure><!--
===========================================================
-->

		<measure number="28" width="131">
			<print new-system="no"></print>
			<attributes></attributes>
			<note>
				<pitch>
					<step>D</step>
					<octave>4</octave>
				</pitch>
				<duration>60</duration>
				<voice>1</voice>
				<type>quarter</type>
				<stem>down</stem>
				<lyric number="1">
					<syllabic>middle</syllabic>
					<text>a</text>
				</lyric>
			</note>
			<note>
				<pitch>
					<step>C</step>
					<octave>4</octave>
				</pitch>
				<duration>60</duration>
				<voice>1</voice>
				<type>quarter</type>
				<stem>down</stem>
			</note>
			<note>
				<pitch>
					<step>D</step>
					<octave>4</octave>
				</pitch>
				<duration>60</duration>
				<voice>1</voice>
				<type>quarter</type>
				<stem>down</stem>
				<lyric number="1">
					<syllabic>end</syllabic>
					<text>tis</text>
				</lyric>
			</note>
		</measure><!--
===========================================================
-->

		<measure number="29" width="113">
			<print new-system="no"></print>
			<attributes></attributes>
			<note>
				<pitch>
					<step>D</step>
					<octave>4</octave>
				</pitch>
				<duration>120</duration>
				<voice>1</voice>
				<type>half</type>
				<stem>down</stem>
				<lyric number="1">
					<syllabic>begin</syllabic>
					<text>red</text>
				</lyric>
			</note>
			<note>
				<pitch>
					<step>E</step>
					<octave>4</octave>
				</pitch>
				<duration>60</duration>
				<voice>1</voice>
				<type>quarter</type>
				<stem>down</stem>
				<lyric number="1">
					<syllabic>end</syllabic>
					<text>dit</text>
				</lyric>
			</note>
		</measure><!--
===========================================================
-->

		<measure number="30" width="114">
			<print new-system="no"></print>
			<attributes></attributes>
			<direction placement="above">
				<direction-type>
					<words relative-x="0.7399" default-y="26.0098" font-family="Times New Roman" font-style="normal" font-size="10" font-weight="normal" color="#000000">3o</words>
				</direction-type>
				<staff>1</staff>
			</direction>
			<note>
				<pitch>
					<step>F</step>
					<octave>4</octave>
				</pitch>
				<duration>120</duration>
				<voice>1</voice>
				<type>half</type>
				<stem>down</stem>
				<lyric number="1">
					<syllabic>begin</syllabic>
					<text>re</text>
				</lyric>
			</note>
			<note>
				<pitch>
					<step>E</step>
					<octave>4</octave>
				</pitch>
				<duration>60</duration>
				<voice>1</voice>
				<type>quarter</type>
				<stem>down</stem>
				<lyric number="1">
					<syllabic>end</syllabic>
					<text>gi</text>
				</lyric>
			</note>
		</measure><!--
===========================================================
-->

		<measure number="31" width="129">
			<print new-system="no"></print>
			<attributes></attributes>
			<note>
				<pitch>
					<step>D</step>
					<octave>4</octave>
				</pitch>
				<duration>60</duration>
				<voice>1</voice>
				<type>quarter</type>
				<stem>down</stem>
			</note>
			<note>
				<pitch>
					<step>C</step>
					<octave>4</octave>
				</pitch>
				<duration>60</duration>
				<voice>1</voice>
				<type>quarter</type>
				<stem>down</stem>
			</note>
			<note>
				<pitch>
					<step>D</step>
					<octave>4</octave>
				</pitch>
				<duration>60</duration>
				<voice>1</voice>
				<type>quarter</type>
				<stem>down</stem>
				<lyric number="1">
					<syllabic>begin</syllabic>
					<text>glo</text>
				</lyric>
			</note>
		</measure><!--
===========================================================
-->

		<measure number="32" width="148">
			<print new-system="no"></print>
			<attributes></attributes>
			<note>
				<pitch>
					<step>C</step>
					<octave>4</octave>
				</pitch>
				<duration>60</duration>
				<voice>1</voice>
				<type>quarter</type>
				<stem>down</stem>
			</note>
			<note>
				<pitch>
					<step>D</step>
					<octave>4</octave>
				</pitch>
				<duration>60</duration>
				<voice>1</voice>
				<type>quarter</type>
				<stem>down</stem>
				<notations></notations>
			</note>
			<note>
				<pitch>
					<step>C</step>
					<octave>4</octave>
				</pitch>
				<duration>30</duration>
				<voice>1</voice>
				<type>eighth</type>
				<stem>down</stem>
				<beam number="1">begin</beam>
				<lyric number="1">
					<syllabic>middle</syllabic>
					<text>_ri</text>
				</lyric>
			</note>
			<note>
				<pitch>
					<step>B</step>
					<octave>3</octave>
				</pitch>
				<duration>30</duration>
				<voice>1</voice>
				<type>eighth</type>
				<stem>down</stem>
				<beam number="1">end</beam>
			</note>
		</measure><!--
===========================================================
-->

		<measure number="33" width="112">
			<print new-system="no"></print>
			<attributes></attributes>
			<note>
				<pitch>
					<step>C</step>
					<octave>4</octave>
				</pitch>
				<duration>180</duration>
				<voice>1</voice>
				<type>half</type>
				<dot/>
				<stem>down</stem>
				<lyric number="1">
					<syllabic>end</syllabic>
					<text>e.</text>
				</lyric>
			</note>
			<barline location="right">
				<bar-style>light-light</bar-style>
			</barline>
		</measure><!--
===========================================================
-->

		<measure number="34" width="186">
			<print new-system="yes">
				<system-layout>
					<system-margins>
						<left-margin>2</left-margin>
						<right-margin>0</right-margin>
					</system-margins>
					<system-distance>134</system-distance>
				</system-layout>
			</print>
			<attributes></attributes>
			<attributes>
				<clef>
					<sign>G</sign>
					<line>2</line>
					<clef-octave-change>-1</clef-octave-change>
				</clef>
			</attributes>
			<note>
				<pitch>
					<step>G</step>
					<octave>3</octave>
				</pitch>
				<duration>120</duration>
				<voice>1</voice>
				<type>half</type>
				<stem>up</stem>
			</note>
			<note>
				<pitch>
					<step>A</step>
					<octave>3</octave>
				</pitch>
				<duration>60</duration>
				<voice>1</voice>
				<type>quarter</type>
				<stem>up</stem>
			</note>
		</measure><!--
===========================================================
-->

		<measure number="35" width="140">
			<print new-system="no"></print>
			<attributes></attributes>
			<direction placement="above">
				<direction-type>
					<words relative-x="1.4612" default-y="19.2627" font-family="Times New Roman" font-style="normal" font-size="10" font-weight="normal" color="#000000">ss</words>
				</direction-type>
				<staff>1</staff>
			</direction>
			<note>
				<pitch>
					<step>C</step>
					<octave>4</octave>
				</pitch>
				<duration>120</duration>
				<voice>1</voice>
				<type>half</type>
				<stem>down</stem>
			</note>
			<note>
				<pitch>
					<step>D</step>
					<octave>4</octave>
				</pitch>
				<duration>60</duration>
				<voice>1</voice>
				<type>quarter</type>
				<stem>down</stem>
			</note>
		</measure><!--
===========================================================
-->

		<measure number="36" width="139">
			<print new-system="no"></print>
			<attributes></attributes>
			<note>
				<pitch>
					<step>E</step>
					<octave>4</octave>
				</pitch>
				<duration>120</duration>
				<voice>1</voice>
				<type>half</type>
				<stem>down</stem>
			</note>
			<note>
				<pitch>
					<step>C</step>
					<octave>4</octave>
				</pitch>
				<duration>60</duration>
				<voice>1</voice>
				<type>quarter</type>
				<stem>down</stem>
			</note>
		</measure><!--
===========================================================
-->

		<measure number="37" width="121">
			<print new-system="no"></print>
			<attributes></attributes>
			<note>
				<pitch>
					<step>D</step>
					<octave>4</octave>
				</pitch>
				<duration>180</duration>
				<voice>1</voice>
				<type>half</type>
				<dot/>
				<stem>down</stem>
			</note>
		</measure><!--
===========================================================
-->

		<measure number="38" width="138">
			<print new-system="no"></print>
			<attributes></attributes>
			<note>
				<pitch>
					<step>A</step>
					<octave>3</octave>
				</pitch>
				<duration>120</duration>
				<voice>1</voice>
				<type>half</type>
				<stem>up</stem>
			</note>
			<note>
				<pitch>
					<step>B</step>
					<octave>3</octave>
				</pitch>
				<duration>60</duration>
				<voice>1</voice>
				<type>quarter</type>
				<stem>up</stem>
			</note>
		</measure><!--
===========================================================
-->

		<measure number="39" width="137">
			<print new-system="no"></print>
			<attributes></attributes>
			<note>
				<pitch>
					<step>A</step>
					<octave>3</octave>
				</pitch>
				<duration>120</duration>
				<voice>1</voice>
				<type>half</type>
				<stem>up</stem>
			</note>
			<note>
				<rest/>
				<duration>60</duration>
				<voice>1</voice>
				<type>quarter</type>
			</note>
		</measure><!--
===========================================================
-->

		<measure number="40" width="138">
			<print new-system="no"></print>
			<attributes></attributes>
			<note>
				<pitch>
					<step>G</step>
					<octave>3</octave>
				</pitch>
				<duration>120</duration>
				<voice>1</voice>
				<type>half</type>
				<stem>up</stem>
			</note>
			<note>
				<pitch>
					<step>A</step>
					<octave>3</octave>
				</pitch>
				<duration>60</duration>
				<voice>1</voice>
				<type>quarter</type>
				<stem>up</stem>
			</note>
		</measure><!--
===========================================================
-->

		<measure number="41" width="145">
			<print new-system="no"></print>
			<attributes></attributes>
			<note>
				<pitch>
					<step>C</step>
					<octave>4</octave>
				</pitch>
				<duration>120</duration>
				<voice>1</voice>
				<type>half</type>
				<stem>down</stem>
			</note>
			<note>
				<pitch>
					<step>D</step>
					<octave>4</octave>
				</pitch>
				<duration>60</duration>
				<voice>1</voice>
				<type>quarter</type>
				<stem>down</stem>
			</note>
		</measure><!--
===========================================================
-->

		<measure number="42" width="178">
			<print new-system="yes">
				<system-layout>
					<system-margins>
						<left-margin>4</left-margin>
						<right-margin>0</right-margin>
					</system-margins>
					<system-distance>131</system-distance>
				</system-layout>
			</print>
			<attributes></attributes>
			<attributes>
				<clef>
					<sign>G</sign>
					<line>2</line>
					<clef-octave-change>-1</clef-octave-change>
				</clef>
			</attributes>
			<direction placement="below">
				<direction-type>
					<words relative-x="35.4232" default-y="-50.6548" font-family="Times New Roman" font-style="normal" font-size="11" font-weight="normal" color="#000000">su _ e</words>
				</direction-type>
				<staff>1</staff>
			</direction>
			<note>
				<pitch>
					<step>E</step>
					<octave>4</octave>
				</pitch>
				<duration>120</duration>
				<voice>1</voice>
				<type>half</type>
				<stem>down</stem>
			</note>
			<direction placement="above">
				<direction-type>
					<words relative-x="-6.9173" default-y="104.7862" font-family="Times New Roman" font-style="normal" font-size="13" font-weight="normal" color="#000000">Fau</words>
				</direction-type>
				<staff>1</staff>
			</direction>
			<note>
				<pitch>
					<step>C</step>
					<octave>4</octave>
				</pitch>
				<duration>60</duration>
				<voice>1</voice>
				<type>quarter</type>
				<stem>down</stem>
			</note>
		</measure><!--
===========================================================
-->

		<measure number="43" width="134">
			<print new-system="no"></print>
			<attributes></attributes>
			<direction placement="below">
				<direction-type>
					<words relative-x="8.0731" default-y="-45.1052" font-family="Times New Roman" font-style="normal" font-size="11" font-weight="normal" color="#000000">ple _ ni _ tu _ di _ ne</words>
				</direction-type>
				<staff>1</staff>
			</direction>
			<note>
				<pitch>
					<step>F</step>
					<octave>4</octave>
				</pitch>
				<duration>120</duration>
				<voice>1</voice>
				<type>half</type>
				<stem>down</stem>
			</note>
			<direction placement="above">
				<direction-type>
					<words relative-x="-70.3792" default-y="104.7862" font-family="Times New Roman" font-style="normal" font-size="13" font-weight="normal" color="#000000">vel _ h</words>
				</direction-type>
				<staff>1</staff>
			</direction>
			<note>
				<pitch>
					<step>E</step>
					<octave>4</octave>
				</pitch>
				<duration>60</duration>
				<voice>1</voice>
				<type>quarter</type>
				<stem>down</stem>
			</note>
		</measure><!--
===========================================================
-->

		<measure number="44" width="153">
			<print new-system="no"></print>
			<attributes></attributes>
			<note>
				<pitch>
					<step>D</step>
					<octave>4</octave>
				</pitch>
				<duration>120</duration>
				<voice>1</voice>
				<type>half</type>
				<stem>down</stem>
			</note>
			<direction placement="above">
				<direction-type>
					<words relative-x="-77.7067" default-y="105.4815" font-family="Times New Roman" font-style="normal" font-size="13" font-weight="normal" color="#000000">du _ eis</words>
				</direction-type>
				<staff>1</staff>
			</direction>
			<note>
				<pitch>
					<step>E</step>
					<octave>4</octave>
				</pitch>
				<duration>60</duration>
				<voice>1</voice>
				<type>quarter</type>
				<stem>down</stem>
			</note>
		</measure><!--
===========================================================
-->

		<measure number="45" width="112">
			<print new-system="no"></print>
			<attributes></attributes>
			<note>
				<pitch>
					<step>F</step>
					<octave>4</octave>
				</pitch>
				<duration>120</duration>
				<voice>1</voice>
				<type>half</type>
				<stem>down</stem>
			</note>
			<direction placement="above">
				<direction-type>
					<words relative-x="-47.6388" default-y="100.6143" font-family="Times New Roman" font-style="normal" font-size="13" font-weight="normal" color="#000000">ne _</words>
				</direction-type>
				<staff>1</staff>
			</direction>
			<note>
				<rest/>
				<duration>60</duration>
				<voice>1</voice>
				<type>quarter</type>
			</note>
		</measure><!--
===========================================================
-->

		<measure number="46" width="116">
			<print new-system="no"></print>
			<attributes></attributes>
			<direction placement="above">
				<direction-type>
					<words relative-x="17.5893" default-y="104.7862" font-family="Times New Roman" font-style="normal" font-size="13" font-weight="normal" color="#000000">qui _. ci _ e</words>
				</direction-type>
				<staff>1</staff>
			</direction>
			<direction placement="below">
				<direction-type>
					<words relative-x="26.3858" default-y="-46.4829" font-family="Times New Roman" font-style="normal" font-size="11" font-weight="normal" color="#000000">Po _ te _</words>
				</direction-type>
				<staff>1</staff>
			</direction>
			<note>
				<pitch>
					<step>G</step>
					<octave>4</octave>
				</pitch>
				<duration>180</duration>
				<voice>1</voice>
				<type>half</type>
				<dot/>
				<stem>down</stem>
			</note>
		</measure><!--
===========================================================
-->

		<measure number="47" width="150">
			<print new-system="no"></print>
			<attributes></attributes>
			<note>
				<pitch>
					<step>F</step>
					<octave>4</octave>
				</pitch>
				<duration>30</duration>
				<voice>1</voice>
				<type>eighth</type>
				<stem>down</stem>
				<beam number="1">begin</beam>
			</note>
			<note>
				<pitch>
					<step>E</step>
					<octave>4</octave>
				</pitch>
				<duration>30</duration>
				<voice>1</voice>
				<type>eighth</type>
				<stem>down</stem>
				<beam number="1">end</beam>
			</note>
			<note>
				<pitch>
					<step>D</step>
					<octave>4</octave>
				</pitch>
				<duration>120</duration>
				<voice>1</voice>
				<type>half</type>
				<stem>down</stem>
			</note>
			<direction placement="below">
				<direction-type>
					<words relative-x="-22.7242" default-y="-46.4829" font-family="Times New Roman" font-style="normal" font-size="11" font-weight="normal" color="#000000">_ sta _</words>
				</direction-type>
				<staff>1</staff>
			</direction>
		</measure><!--
===========================================================
-->

		<measure number="48" width="167">
			<print new-system="no"></print>
			<attributes></attributes>
			<note>
				<pitch>
					<step>C</step>
					<octave>4</octave>
				</pitch>
				<duration>30</duration>
				<voice>1</voice>
				<type>eighth</type>
				<stem>down</stem>
				<beam number="1">begin</beam>
			</note>
			<direction placement="above">
				<direction-type>
					<words relative-x="-3.7978" default-y="104.0909" font-family="Times New Roman" font-style="normal" font-size="13" font-weight="normal" color="#000000">vim</words>
				</direction-type>
				<staff>1</staff>
			</direction>
			<note>
				<pitch>
					<step>B</step>
					<octave>3</octave>
				</pitch>
				<duration>30</duration>
				<voice>1</voice>
				<type>eighth</type>
				<stem>down</stem>
				<beam number="1">end</beam>
			</note>
			<note>
				<pitch>
					<step>C</step>
					<octave>4</octave>
				</pitch>
				<duration>60</duration>
				<voice>1</voice>
				<type>quarter</type>
				<stem>down</stem>
			</note>
			<direction placement="above">
				<direction-type>
					<words relative-x="-11.4926" default-y="103.3955" font-family="Times New Roman" font-style="normal" font-size="13" font-weight="normal" color="#000000">des _ tru _ at</words>
				</direction-type>
				<staff>1</staff>
			</direction>
			<note>
				<pitch>
					<step>D</step>
					<octave>4</octave>
				</pitch>
				<duration>60</duration>
				<voice>1</voice>
				<type>quarter</type>
				<stem>down</stem>
			</note>
			<direction placement="below">
				<direction-type>
					<words relative-x="-5.1332" default-y="-47.8736" font-family="Times New Roman" font-style="normal" font-size="11" font-weight="normal" color="#000000">_ tis !</words>
				</direction-type>
				<staff>1</staff>
			</direction>
		</measure><!--
===========================================================
-->

		<measure number="49" width="131">
			<print new-system="no"></print>
			<attributes></attributes>
			<note>
				<pitch>
					<step>C</step>
					<octave>4</octave>
				</pitch>
				<duration>180</duration>
				<voice>1</voice>
				<type>half</type>
				<dot/>
				<stem>down</stem>
			</note>
		</measure>
	</part><!--
===========================================================
-->

	<part id="P2">
		<measure number="1" width="198">
			<print>
				<page-layout>
					<page-height>1862.67</page-height>
					<page-width>1439.33</page-width>
					<page-margins>
						<left-margin>144.57</left-margin>
						<right-margin>144.57</right-margin>
						<top-margin>162.93</top-margin>
						<bottom-margin>81.46</bottom-margin>
					</page-margins>
				</page-layout>
				<system-layout>
					<system-margins>
						<left-margin>64</left-margin>
						<right-margin>2</right-margin>
					</system-margins>
					<top-system-distance>139</top-system-distance>
				</system-layout>
				<staff-layout number="1">
					<staff-distance>87</staff-distance>
				</staff-layout>
			</print>
			<attributes>
				<divisions>60</divisions>
				<key>
					<fifths>0</fifths>
				</key>
				<time>
					<beats>3</beats>
					<beat-type>4</beat-type>
				</time>
				<clef>
					<sign>F</sign>
					<line>4</line>
				</clef>
				<staff-details number="1" print-object="yes">
					<staff-size>65</staff-size>
				</staff-details>
			</attributes>
			<attributes></attributes>
			<note>
				<pitch>
					<step>A</step>
					<octave>3</octave>
				</pitch>
				<duration>120</duration>
				<voice>1</voice>
				<type>half</type>
				<stem>down</stem>
			</note>
			<note>
				<pitch>
					<step>G</step>
					<octave>3</octave>
				</pitch>
				<duration>60</duration>
				<voice>1</voice>
				<type>quarter</type>
				<stem>down</stem>
			</note>
		</measure><!--
===========================================================
-->

		<measure number="2" width="131">
			<print new-system="no"></print>
			<attributes></attributes>
			<note>
				<pitch>
					<step>F</step>
					<octave>3</octave>
				</pitch>
				<duration>120</duration>
				<voice>1</voice>
				<type>half</type>
				<stem>down</stem>
			</note>
			<note>
				<pitch>
					<step>B</step>
					<octave>2</octave>
				</pitch>
				<duration>60</duration>
				<voice>1</voice>
				<type>quarter</type>
				<stem>up</stem>
			</note>
		</measure><!--
===========================================================
-->

		<measure number="3" width="132">
			<print new-system="no"></print>
			<attributes></attributes>
			<note>
				<pitch>
					<step>G</step>
					<octave>3</octave>
				</pitch>
				<duration>120</duration>
				<voice>1</voice>
				<type>half</type>
				<stem>down</stem>
			</note>
			<note>
				<pitch>
					<step>A</step>
					<octave>3</octave>
				</pitch>
				<duration>60</duration>
				<voice>1</voice>
				<type>quarter</type>
				<stem>down</stem>
			</note>
		</measure><!--
===========================================================
-->

		<measure number="4" width="169">
			<print new-system="no"></print>
			<attributes></attributes>
			<note>
				<pitch>
					<step>C</step>
					<octave>4</octave>
				</pitch>
				<duration>120</duration>
				<voice>1</voice>
				<type>half</type>
				<stem>down</stem>
			</note>
			<note>
				<pitch>
					<step>B</step>
					<octave>3</octave>
				</pitch>
				<duration>60</duration>
				<voice>1</voice>
				<type>quarter</type>
				<stem>down</stem>
			</note>
		</measure><!--
===========================================================
-->

		<measure number="5" width="131">
			<print new-system="no"></print>
			<attributes></attributes>
			<note>
				<pitch>
					<step>A</step>
					<octave>3</octave>
				</pitch>
				<duration>120</duration>
				<voice>1</voice>
				<type>half</type>
				<stem>down</stem>
			</note>
			<note>
				<pitch>
					<step>G</step>
					<octave>3</octave>
				</pitch>
				<duration>60</duration>
				<voice>1</voice>
				<type>quarter</type>
				<stem>down</stem>
			</note>
		</measure><!--
===========================================================
-->

		<measure number="6" width="129">
			<print new-system="no"></print>
			<attributes></attributes>
			<note>
				<pitch>
					<step>E</step>
					<octave>3</octave>
				</pitch>
				<duration>120</duration>
				<voice>1</voice>
				<type>half</type>
				<stem>down</stem>
			</note>
			<note>
				<rest/>
				<duration>60</duration>
				<voice>1</voice>
				<type>quarter</type>
			</note>
		</measure><!--
===========================================================
-->

		<measure number="7" width="189">
			<print new-system="no"></print>
			<attributes></attributes>
			<note>
				<pitch>
					<step>G</step>
					<octave>3</octave>
				</pitch>
				<duration>120</duration>
				<voice>1</voice>
				<type>half</type>
				<stem>down</stem>
			</note>
			<note>
				<pitch>
					<step>A</step>
					<octave>3</octave>
				</pitch>
				<duration>60</duration>
				<voice>1</voice>
				<type>quarter</type>
				<stem>down</stem>
			</note>
		</measure><!--
===========================================================
-->

		<measure number="8" width="168">
			<print new-system="yes">
				<system-layout>
					<system-margins>
						<left-margin>0</left-margin>
						<right-margin>0</right-margin>
					</system-margins>
					<system-distance>145</system-distance>
				</system-layout>
				<staff-layout number="1">
					<staff-distance>92</staff-distance>
				</staff-layout>
			</print>
			<attributes></attributes>
			<note>
				<pitch>
					<step>G</step>
					<octave>3</octave>
				</pitch>
				<duration>120</duration>
				<voice>1</voice>
				<type>half</type>
				<stem>down</stem>
			</note>
			<note>
				<pitch>
					<step>B</step>
					<octave>2</octave>
				</pitch>
				<duration>60</duration>
				<voice>1</voice>
				<type>quarter</type>
				<stem>up</stem>
			</note>
		</measure><!--
===========================================================
-->

		<measure number="9" width="127">
			<print new-system="no"></print>
			<attributes></attributes>
			<note>
				<pitch>
					<step>A</step>
					<octave>3</octave>
				</pitch>
				<duration>120</duration>
				<voice>1</voice>
				<type>half</type>
				<stem>down</stem>
			</note>
			<note>
				<pitch>
					<step>A</step>
					<octave>3</octave>
				</pitch>
				<duration>60</duration>
				<voice>1</voice>
				<type>quarter</type>
				<stem>down</stem>
			</note>
		</measure><!--
===========================================================
-->

		<measure number="10" width="126">
			<print new-system="no"></print>
			<attributes></attributes>
			<note>
				<pitch>
					<step>G</step>
					<octave>3</octave>
				</pitch>
				<duration>120</duration>
				<voice>1</voice>
				<type>half</type>
				<stem>down</stem>
			</note>
			<note>
				<pitch>
					<step>G</step>
					<octave>3</octave>
				</pitch>
				<duration>60</duration>
				<voice>1</voice>
				<type>quarter</type>
				<stem>down</stem>
			</note>
		</measure><!--
===========================================================
-->

		<measure number="11" width="144">
			<print new-system="no"></print>
			<attributes></attributes>
			<note>
				<pitch>
					<step>A</step>
					<octave>3</octave>
				</pitch>
				<duration>120</duration>
				<voice>1</voice>
				<type>half</type>
				<stem>down</stem>
			</note>
			<note>
				<pitch>
					<step>G</step>
					<octave>3</octave>
				</pitch>
				<duration>60</duration>
				<voice>1</voice>
				<type>quarter</type>
				<stem>down</stem>
			</note>
		</measure><!--
===========================================================
-->

		<measure number="12" width="164">
			<print new-system="no"></print>
			<attributes></attributes>
			<note>
				<pitch>
					<step>F</step>
					<octave>3</octave>
				</pitch>
				<duration>120</duration>
				<voice>1</voice>
				<type>half</type>
				<stem>down</stem>
			</note>
			<note>
				<rest/>
				<duration>60</duration>
				<voice>1</voice>
				<type>quarter</type>
			</note>
		</measure><!--
===========================================================
-->

		<measure number="13" width="131">
			<print new-system="no"></print>
			<attributes></attributes>
			<note>
				<pitch>
					<step>D</step>
					<octave>3</octave>
				</pitch>
				<duration>120</duration>
				<voice>1</voice>
				<type>half</type>
				<stem>down</stem>
			</note>
			<note>
				<pitch>
					<step>G</step>
					<octave>3</octave>
				</pitch>
				<duration>60</duration>
				<voice>1</voice>
				<type>quarter</type>
				<stem>down</stem>
			</note>
		</measure><!--
===========================================================
-->

		<measure number="14" width="129">
			<print new-system="no"></print>
			<attributes></attributes>
			<note>
				<pitch>
					<step>E</step>
					<octave>3</octave>
				</pitch>
				<duration>120</duration>
				<voice>1</voice>
				<type>half</type>
				<stem>down</stem>
			</note>
			<note>
				<rest/>
				<duration>60</duration>
				<voice>1</voice>
				<type>quarter</type>
			</note>
		</measure><!--
===========================================================
-->

		<measure number="15" width="157">
			<print new-system="no"></print>
			<attributes></attributes>
			<note>
				<pitch>
					<step>G</step>
					<octave>3</octave>
				</pitch>
				<duration>120</duration>
				<voice>1</voice>
				<type>half</type>
				<stem>down</stem>
			</note>
			<note>
				<pitch>
					<step>G</step>
					<octave>3</octave>
				</pitch>
				<duration>60</duration>
				<voice>1</voice>
				<type>quarter</type>
				<stem>down</stem>
			</note>
		</measure><!--
===========================================================
-->

		<measure number="16" width="156">
			<print new-system="yes">
				<system-layout>
					<system-margins>
						<left-margin>2</left-margin>
						<right-margin>0</right-margin>
					</system-margins>
					<system-distance>134</system-distance>
				</system-layout>
				<staff-layout number="1">
					<staff-distance>94</staff-distance>
				</staff-layout>
			</print>
			<attributes></attributes>
			<note>
				<pitch>
					<step>A</step>
					<octave>3</octave>
				</pitch>
				<duration>120</duration>
				<voice>1</voice>
				<type>half</type>
				<stem>down</stem>
			</note>
			<note>
				<pitch>
					<step>G</step>
					<octave>3</octave>
				</pitch>
				<duration>60</duration>
				<voice>1</voice>
				<type>quarter</type>
				<stem>down</stem>
			</note>
		</measure><!--
===========================================================
-->

		<measure number="17" width="130">
			<print new-system="no"></print>
			<attributes></attributes>
			<note>
				<pitch>
					<step>F</step>
					<octave>3</octave>
				</pitch>
				<duration>120</duration>
				<voice>1</voice>
				<type>half</type>
				<stem>down</stem>
			</note>
			<note>
				<pitch>
					<step>E</step>
					<octave>3</octave>
				</pitch>
				<duration>60</duration>
				<voice>1</voice>
				<type>quarter</type>
				<stem>down</stem>
			</note>
		</measure><!--
===========================================================
-->

		<measure number="18" width="109">
			<print new-system="no"></print>
			<attributes></attributes>
			<note>
				<pitch>
					<step>F</step>
					<octave>3</octave>
				</pitch>
				<duration>120</duration>
				<voice>1</voice>
				<type>half</type>
				<stem>down</stem>
			</note>
			<note>
				<rest/>
				<duration>60</duration>
				<voice>1</voice>
				<type>quarter</type>
			</note>
		</measure><!--
===========================================================
-->

		<measure number="19" width="110">
			<print new-system="no"></print>
			<attributes></attributes>
			<note>
				<pitch>
					<step>D</step>
					<octave>3</octave>
				</pitch>
				<duration>120</duration>
				<voice>1</voice>
				<type>half</type>
				<stem>down</stem>
				<notations>
					<slur type="start" number="1"></slur>
				</notations>
			</note>
			<note>
				<pitch>
					<step>F</step>
					<octave>3</octave>
				</pitch>
				<duration>60</duration>
				<voice>1</voice>
				<type>quarter</type>
				<stem>down</stem>
				<notations>
					<slur type="stop" number="1"></slur>
				</notations>
			</note>
		</measure><!--
===========================================================
-->

		<measure number="20" width="148">
			<print new-system="no"></print>
			<attributes></attributes>
			<note>
				<pitch>
					<step>G</step>
					<octave>3</octave>
				</pitch>
				<duration>120</duration>
				<voice>1</voice>
				<type>half</type>
				<stem>down</stem>
			</note>
			<note>
				<rest/>
				<duration>60</duration>
				<voice>1</voice>
				<type>quarter</type>
			</note>
		</measure><!--
===========================================================
-->

		<measure number="21" width="112">
			<print new-system="no"></print>
			<attributes></attributes>
			<note>
				<pitch>
					<step>F</step>
					<octave>3</octave>
				</pitch>
				<duration>120</duration>
				<voice>1</voice>
				<type>half</type>
				<stem>down</stem>
			</note>
			<note>
				<pitch>
					<step>G</step>
					<octave>3</octave>
				</pitch>
				<duration>60</duration>
				<voice>1</voice>
				<type>quarter</type>
				<stem>down</stem>
			</note>
		</measure><!--
===========================================================
-->

		<measure number="22" width="109">
			<print new-system="no"></print>
			<attributes></attributes>
			<note>
				<pitch>
					<step>A</step>
					<octave>3</octave>
				</pitch>
				<duration>120</duration>
				<voice>1</voice>
				<type>half</type>
				<stem>down</stem>
			</note>
			<note>
				<pitch>
					<step>B</step>
					<octave>3</octave>
				</pitch>
				<duration>60</duration>
				<voice>1</voice>
				<type>quarter</type>
				<stem>down</stem>
			</note>
		</measure><!--
===========================================================
-->

		<measure number="23" width="114">
			<print new-system="no"></print>
			<attributes></attributes>
			<note>
				<pitch>
					<step>C</step>
					<octave>4</octave>
				</pitch>
				<duration>120</duration>
				<voice>1</voice>
				<type>half</type>
				<stem>down</stem>
			</note>
			<note>
				<pitch>
					<step>B</step>
					<octave>3</octave>
				</pitch>
				<duration>60</duration>
				<voice>1</voice>
				<type>quarter</type>
				<stem>down</stem>
			</note>
		</measure><!--
===========================================================
-->

		<measure number="24" width="155">
			<print new-system="no"></print>
			<attributes></attributes>
			<note>
				<pitch>
					<step>A</step>
					<octave>3</octave>
				</pitch>
				<duration>120</duration>
				<voice>1</voice>
				<type>half</type>
				<stem>down</stem>
			</note>
			<note>
				<rest/>
				<duration>60</duration>
				<voice>1</voice>
				<type>quarter</type>
			</note>
		</measure><!--
===========================================================
-->

		<measure number="25" width="159">
			<print new-system="yes">
				<system-layout>
					<system-margins>
						<left-margin>2</left-margin>
						<right-margin>0</right-margin>
					</system-margins>
					<system-distance>136</system-distance>
				</system-layout>
				<staff-layout number="1">
					<staff-distance>84</staff-distance>
				</staff-layout>
			</print>
			<attributes></attributes>
			<note>
				<pitch>
					<step>A</step>
					<octave>3</octave>
				</pitch>
				<duration>120</duration>
				<voice>1</voice>
				<type>half</type>
				<stem>down</stem>
			</note>
			<note>
				<pitch>
					<step>G</step>
					<octave>3</octave>
				</pitch>
				<duration>60</duration>
				<voice>1</voice>
				<type>quarter</type>
				<stem>down</stem>
			</note>
		</measure><!--
===========================================================
-->

		<measure number="26" width="110">
			<print new-system="no"></print>
			<attributes></attributes>
			<note>
				<pitch>
					<step>F</step>
					<octave>3</octave>
				</pitch>
				<duration>120</duration>
				<voice>1</voice>
				<type>half</type>
				<stem>down</stem>
			</note>
			<note>
				<rest/>
				<duration>60</duration>
				<voice>1</voice>
				<type>quarter</type>
			</note>
		</measure><!--
===========================================================
-->

		<measure number="27" width="126">
			<print new-system="no"></print>
			<attributes></attributes>
			<note>
				<pitch>
					<step>G</step>
					<octave>3</octave>
				</pitch>
				<duration>120</duration>
				<voice>1</voice>
				<type>half</type>
				<stem>down</stem>
			</note>
			<note>
				<pitch>
					<step>D</step>
					<octave>3</octave>
				</pitch>
				<duration>60</duration>
				<voice>1</voice>
				<type>quarter</type>
				<stem>down</stem>
			</note>
		</measure><!--
===========================================================
-->

		<measure number="28" width="131">
			<print new-system="no"></print>
			<attributes></attributes>
			<note>
				<pitch>
					<step>F</step>
					<octave>3</octave>
				</pitch>
				<duration>120</duration>
				<voice>1</voice>
				<type>half</type>
				<stem>down</stem>
			</note>
			<note>
				<pitch>
					<step>E</step>
					<octave>3</octave>
				</pitch>
				<duration>60</duration>
				<voice>1</voice>
				<type>quarter</type>
				<stem>down</stem>
				<notations>
					<slur type="start" number="1"></slur>
				</notations>
			</note>
		</measure><!--
===========================================================
-->

		<measure number="29" width="113">
			<print new-system="no"></print>
			<attributes></attributes>
			<note>
				<pitch>
					<step>G</step>
					<octave>3</octave>
				</pitch>
				<duration>120</duration>
				<voice>1</voice>
				<type>half</type>
				<stem>down</stem>
				<notations>
					<slur type="stop" number="1"></slur>
				</notations>
			</note>
			<note>
				<pitch>
					<step>A</step>
					<octave>3</octave>
				</pitch>
				<duration>60</duration>
				<voice>1</voice>
				<type>quarter</type>
				<stem>down</stem>
			</note>
		</measure><!--
===========================================================
-->

		<measure number="30" width="114">
			<print new-system="no"></print>
			<attributes></attributes>
			<note>
				<pitch>
					<step>F</step>
					<octave>3</octave>
				</pitch>
				<duration>120</duration>
				<voice>1</voice>
				<type>half</type>
				<stem>down</stem>
			</note>
			<note>
				<rest/>
				<duration>60</duration>
				<voice>1</voice>
				<type>quarter</type>
			</note>
		</measure><!--
===========================================================
-->

		<measure number="31" width="129">
			<print new-system="no"></print>
			<attributes></attributes>
			<note>
				<pitch>
					<step>G</step>
					<octave>3</octave>
				</pitch>
				<duration>180</duration>
				<voice>1</voice>
				<type>half</type>
				<dot/>
				<stem>down</stem>
			</note>
		</measure><!--
===========================================================
-->

		<measure number="32" width="148">
			<print new-system="no"></print>
			<attributes></attributes>
			<note>
				<pitch>
					<step>G</step>
					<octave>3</octave>
				</pitch>
				<duration>180</duration>
				<voice>1</voice>
				<type>half</type>
				<dot/>
				<stem>down</stem>
			</note>
		</measure><!--
===========================================================
-->

		<measure number="33" width="112">
			<print new-system="no"></print>
			<attributes></attributes>
			<note>
				<pitch>
					<step>F</step>
					<octave>3</octave>
				</pitch>
				<duration>180</duration>
				<voice>1</voice>
				<type>half</type>
				<dot/>
				<stem>down</stem>
			</note>
			<barline location="right">
				<bar-style>light-light</bar-style>
			</barline>
		</measure><!--
===========================================================
-->

		<measure number="34" width="186">
			<print new-system="yes">
				<system-layout>
					<system-margins>
						<left-margin>2</left-margin>
						<right-margin>0</right-margin>
					</system-margins>
					<system-distance>134</system-distance>
				</system-layout>
				<staff-layout number="1">
					<staff-distance>133</staff-distance>
				</staff-layout>
			</print>
			<attributes>
				<staff-details number="1" print-object="no"></staff-details>
			</attributes>
			<forward>
				<duration>180</duration>
			</forward>
		</measure><!--
===========================================================
-->

		<measure number="35" width="140">
			<print new-system="no"></print>
			<attributes></attributes>
			<forward>
				<duration>180</duration>
			</forward>
		</measure><!--
===========================================================
-->

		<measure number="36" width="139">
			<print new-system="no"></print>
			<attributes></attributes>
			<forward>
				<duration>180</duration>
			</forward>
		</measure><!--
===========================================================
-->

		<measure number="37" width="121">
			<print new-system="no"></print>
			<attributes></attributes>
			<forward>
				<duration>180</duration>
			</forward>
		</measure><!--
===========================================================
-->

		<measure number="38" width="138">
			<print new-system="no"></print>
			<attributes></attributes>
			<forward>
				<duration>180</duration>
			</forward>
		</measure><!--
===========================================================
-->

		<measure number="39" width="137">
			<print new-system="no"></print>
			<attributes></attributes>
			<forward>
				<duration>180</duration>
			</forward>
		</measure><!--
===========================================================
-->

		<measure number="40" width="138">
			<print new-system="no"></print>
			<attributes></attributes>
			<forward>
				<duration>180</duration>
			</forward>
		</measure><!--
===========================================================
-->

		<measure number="41" width="145">
			<print new-system="no"></print>
			<attributes></attributes>
			<forward>
				<duration>180</duration>
			</forward>
		</measure><!--
===========================================================
-->

		<measure number="42" width="178">
			<print new-system="yes">
				<system-layout>
					<system-margins>
						<left-margin>4</left-margin>
						<right-margin>0</right-margin>
					</system-margins>
					<system-distance>131</system-distance>
				</system-layout>
				<staff-layout number="1">
					<staff-distance>143</staff-distance>
				</staff-layout>
			</print>
			<attributes></attributes>
			<forward>
				<duration>180</duration>
			</forward>
		</measure><!--
===========================================================
-->

		<measure number="43" width="134">
			<print new-system="no"></print>
			<attributes></attributes>
			<forward>
				<duration>180</duration>
			</forward>
		</measure><!--
===========================================================
-->

		<measure number="44" width="153">
			<print new-system="no"></print>
			<attributes></attributes>
			<forward>
				<duration>180</duration>
			</forward>
		</measure><!--
===========================================================
-->

		<measure number="45" width="112">
			<print new-system="no"></print>
			<attributes></attributes>
			<forward>
				<duration>180</duration>
			</forward>
		</measure><!--
===========================================================
-->

		<measure number="46" width="116">
			<print new-system="no"></print>
			<attributes></attributes>
			<forward>
				<duration>180</duration>
			</forward>
		</measure><!--
===========================================================
-->

		<measure number="47" width="150">
			<print new-system="no"></print>
			<attributes></attributes>
			<forward>
				<duration>180</duration>
			</forward>
		</measure><!--
===========================================================
-->

		<measure number="48" width="167">
			<print new-system="no"></print>
			<attributes></attributes>
			<forward>
				<duration>180</duration>
			</forward>
		</measure><!--
===========================================================
-->

		<measure number="49" width="131">
			<print new-system="no"></print>
			<attributes></attributes>
			<forward>
				<duration>180</duration>
			</forward>
		</measure>
	</part>
</score-partwise>