<?xml version="1.0" encoding="UTF-8" standalone="no"?>
<!DOCTYPE score-partwise PUBLIC "-//Recordare//DTD MusicXML 1.1 Partwise//EN" "http://www.musicxml.org/dtds/partwise.dtd">

<score-partwise version="2.0">
	<movement-title></movement-title>
	<identification>
		<creator type="composer"></creator>
		<encoding>
			<software>SmartScore X2 Pro</software>
			<encoding-date>2016-05-17</encoding-date>
			<supports attribute="new-system" element="print" type="yes" value="yes"/>
			<supports attribute="new-page" element="print" type="yes" value="yes"/>
		</encoding>
	</identification>
	<defaults>
		<scaling>
			<millimeters>6.00</millimeters>
			<tenths>40</tenths>
		</scaling>
	</defaults>
	<part-list>
		<score-part id="P1">
			<part-name>Flute</part-name>
			<part-abbreviation>Flu</part-abbreviation>
			<score-instrument id="P1-S0V0">
				<instrument-name>Flute</instrument-name>
			</score-instrument>
			<score-instrument id="P1-S0V1">
				<instrument-name>Flute</instrument-name>
			</score-instrument>
			<midi-instrument id="P1-S0V0">
				<midi-channel>1</midi-channel>
				<midi-program>74</midi-program>
				<volume>78</volume>
				<pan>0</pan>
			</midi-instrument>
			<midi-instrument id="P1-S0V1">
				<midi-channel>2</midi-channel>
				<midi-program>74</midi-program>
				<volume>78</volume>
				<pan>0</pan>
			</midi-instrument>
		</score-part>
		<score-part id="P2">
			<part-name>Nylon Guitar</part-name>
			<part-abbreviation>GuitNyl</part-abbreviation>
			<score-instrument id="P2-S0V0">
				<instrument-name>Nylon String Guit.</instrument-name>
			</score-instrument>
			<midi-instrument id="P2-S0V0">
				<midi-channel>3</midi-channel>
				<midi-program>25</midi-program>
				<volume>78</volume>
				<pan>0</pan>
			</midi-instrument>
		</score-part>
		<score-part id="P3">
			<part-name>Trombone</part-name>
			<part-abbreviation>Trbn</part-abbreviation>
			<score-instrument id="P3-S0V0">
				<instrument-name>Trombone</instrument-name>
			</score-instrument>
			<midi-instrument id="P3-S0V0">
				<midi-channel>4</midi-channel>
				<midi-program>58</midi-program>
				<volume>78</volume>
				<pan>0</pan>
			</midi-instrument>
		</score-part>
	</part-list><!--
===========================================================
-->

	<part id="P1">
		<measure number="1" width="248">
			<print>
				<page-layout>
					<page-height>1881.48</page-height>
					<page-width>1453.87</page-width>
					<page-margins>
						<left-margin>160.35</left-margin>
						<right-margin>326.26</right-margin>
						<top-margin>127.00</top-margin>
						<bottom-margin>63.50</bottom-margin>
					</page-margins>
				</page-layout>
				<system-layout>
					<system-margins>
						<left-margin>75</left-margin>
						<right-margin>0</right-margin>
					</system-margins>
					<top-system-distance>180</top-system-distance>
				</system-layout>
			</print>
			<attributes>
				<divisions>40</divisions>
				<key>
					<fifths>0</fifths>
				</key>
				<time>
					<beats>6</beats>
					<beat-type>8</beat-type>
				</time>
				<clef>
					<sign>G</sign>
					<line>2</line>
				</clef>
				<staff-details number="1" print-object="yes">
					<staff-size>59</staff-size>
				</staff-details>
			</attributes>
			<attributes></attributes>
			<direction placement="above">
				<direction-type>
					<dynamics>
						<f/>
					</dynamics>
				</direction-type>
				<staff>1</staff>
				<sound dynamics="100"/>
			</direction>
			<note>
				<rest/>
				<duration>60</duration>
				<voice>1</voice>
				<type>quarter</type>
				<dot/>
				<lyric number="1">
					<syllabic>single</syllabic>
					<text>1.4</text>
				</lyric>
			</note>
			<note>
				<rest/>
				<duration>30</duration>
				<voice>1</voice>
				<type>eighth</type>
				<dot/>
				<lyric number="1">
					<syllabic>single</syllabic>
					<text>7.</text>
				</lyric>
				<lyric number="2">
					<syllabic>single</syllabic>
					<text>3.</text>
				</lyric>
				<lyric number="3">
					<syllabic>single</syllabic>
					<text>5.</text>
				</lyric>
			</note>
			<direction placement="above">
				<direction-type>
					<words relative-x="-163.4305" default-y="23.7156" font-family="Times New Roman" font-style="normal" font-size="12" font-weight="normal" color="#000000">14S(R 9.)</words>
				</direction-type>
				<staff>1</staff>
			</direction>
			<note>
				<pitch>
					<step>B</step>
					<octave>3</octave>
				</pitch>
				<duration>40</duration>
				<instrument id="P1-S0V0"/>
				<voice>1</voice>
				<type>quarter</type>
				<stem>up</stem>
				<lyric number="1">
					<syllabic>single</syllabic>
					<text>Int</text>
				</lyric>
				<lyric number="2">
					<syllabic>single</syllabic>
					<text>Se</text>
				</lyric>
				<lyric number="3">
					<syllabic>single</syllabic>
					<text>Si</text>
				</lyric>
			</note>
			<note>
				<pitch>
					<step>B</step>
					<octave>3</octave>
				</pitch>
				<duration>40</duration>
				<instrument id="P1-S0V0"/>
				<voice>1</voice>
				<type>quarter</type>
				<stem>up</stem>
				<lyric number="1">
					<syllabic>single</syllabic>
					<text>me</text>
				</lyric>
				<lyric number="2">
					<syllabic>single</syllabic>
					<text>par</text>
				</lyric>
				<lyric number="3">
					<syllabic>single</syllabic>
					<text>vous</text>
				</lyric>
			</note>
			<note>
				<pitch>
					<step>D</step>
					<octave>4</octave>
				</pitch>
				<duration>20</duration>
				<instrument id="P1-S0V0"/>
				<voice>1</voice>
				<type>eighth</type>
				<stem>up</stem>
				<lyric number="1">
					<syllabic>single</syllabic>
					<text>sou</text>
				</lyric>
				<lyric number="2">
					<syllabic>single</syllabic>
					<text>vous</text>
				</lyric>
				<lyric number="3">
					<syllabic>begin</syllabic>
					<text>sup</text>
				</lyric>
			</note>
			<backup>
				<duration>70</duration>
			</backup>
		</measure><!--
===========================================================
-->

		<measure number="2" width="182">
			<print new-system="no"></print>
			<attributes></attributes>
			<note>
				<pitch>
					<step>E</step>
					<octave>4</octave>
				</pitch>
				<duration>40</duration>
				<tie type="start"/>
				<instrument id="P1-S0V0"/>
				<voice>1</voice>
				<type>quarter</type>
				<stem>up</stem>
				<notations>
					<tied type="start" number="1" orientation="under"/>
				</notations>
				<lyric number="1">
					<syllabic>begin</syllabic>
					<text>vient</text>
					<extend/>
				</lyric>
				<lyric number="2">
					<syllabic>begin</syllabic>
					<text>n&apos;en</text>
					<extend/>
				</lyric>
				<lyric number="3">
					<syllabic>end</syllabic>
					<text>pli</text>
				</lyric>
			</note>
			<note>
				<pitch>
					<step>E</step>
					<octave>4</octave>
				</pitch>
				<duration>20</duration>
				<tie type="stop"/>
				<instrument id="P1-S0V0"/>
				<voice>1</voice>
				<type>eighth</type>
				<stem>up</stem>
				<notations>
					<tied type="stop" number="1" orientation="under"/>
				</notations>
			</note>
			<note>
				<pitch>
					<step>F</step>
					<octave>4</octave>
				</pitch>
				<duration>20</duration>
				<instrument id="P1-S0V0"/>
				<voice>1</voice>
				<type>eighth</type>
				<stem>up</stem>
				<beam number="1">begin</beam>
				<lyric number="1">
					<syllabic>end</syllabic>
					<text>de</text>
				</lyric>
				<lyric number="2">
					<syllabic>middle</syllabic>
					<text>soi</text>
				</lyric>
				<lyric number="3">
					<syllabic>single</syllabic>
					<text>$ue</text>
				</lyric>
			</note>
			<note>
				<pitch>
					<step>E</step>
					<octave>4</octave>
				</pitch>
				<duration>20</duration>
				<instrument id="P1-S0V0"/>
				<voice>1</voice>
				<type>eighth</type>
				<stem>up</stem>
				<beam number="1">end</beam>
				<lyric number="4">
					<syllabic>single</syllabic>
					<text>I</text>
				</lyric>
			</note>
			<forward>
				<duration>20</duration>
			</forward>
		</measure><!--
===========================================================
-->

		<measure number="3" width="254">
			<print new-system="no"></print>
			<attributes></attributes>
			<note>
				<pitch>
					<step>G</step>
					<octave>4</octave>
				</pitch>
				<duration>20</duration>
				<instrument id="P1-S0V0"/>
				<voice>1</voice>
				<type>eighth</type>
				<stem>up</stem>
				<beam number="1">begin</beam>
				<lyric number="1">
					<syllabic>begin</syllabic>
					<text>vos</text>
				</lyric>
				<lyric number="2">
					<syllabic>end</syllabic>
					<text>e</text>
				</lyric>
				<lyric number="3">
					<syllabic>single</syllabic>
					<text>vo</text>
				</lyric>
			</note>
			<note>
				<pitch>
					<step>F</step>
					<octave>4</octave>
				</pitch>
				<duration>10</duration>
				<instrument id="P1-S0V0"/>
				<voice>1</voice>
				<type>16th</type>
				<stem>up</stem>
				<beam number="1">continue</beam>
				<beam number="2">begin</beam>
			</note>
			<note>
				<pitch>
					<step>E</step>
					<octave>4</octave>
				</pitch>
				<duration>10</duration>
				<instrument id="P1-S0V0"/>
				<voice>1</voice>
				<type>16th</type>
				<stem>up</stem>
				<beam number="1">end</beam>
				<beam number="2">end</beam>
			</note>
			<note>
				<pitch>
					<step>D</step>
					<octave>4</octave>
				</pitch>
				<duration>20</duration>
				<instrument id="P1-S0V0"/>
				<voice>1</voice>
				<type>eighth</type>
				<stem>up</stem>
				<lyric number="1">
					<syllabic>end</syllabic>
					<text>tre</text>
				</lyric>
				<lyric number="2">
					<syllabic>single</syllabic>
					<text>bien</text>
				</lyric>
				<lyric number="3">
					<syllabic>single</syllabic>
					<text>vis</text>
				</lyric>
			</note>
			<note>
				<pitch>
					<step>D</step>
					<octave>4</octave>
				</pitch>
				<duration>20</duration>
				<instrument id="P1-S0V0"/>
				<voice>1</voice>
				<type>eighth</type>
				<stem>up</stem>
				<lyric number="1">
					<syllabic>single</syllabic>
					<text>noble</text>
				</lyric>
				<lyric number="2">
					<syllabic>single</syllabic>
					<text>tost</text>
				</lyric>
				<lyric number="3">
					<syllabic>single</syllabic>
					<text>$ui</text>
				</lyric>
			</note>
			<note>
				<pitch>
					<step>B</step>
					<octave>3</octave>
				</pitch>
				<duration>40</duration>
				<instrument id="P1-S0V0"/>
				<voice>1</voice>
				<type>quarter</type>
				<stem>up</stem>
				<lyric number="1">
					<syllabic>begin</syllabic>
					<text>a</text>
				</lyric>
				<lyric number="2">
					<syllabic>begin</syllabic>
					<text>re,</text>
				</lyric>
				<lyric number="3">
					<syllabic>single</syllabic>
					<text>me</text>
				</lyric>
			</note>
		</measure><!--
===========================================================
-->

		<measure number="4" width="206">
			<print new-system="no"></print>
			<attributes></attributes>
			<note>
				<pitch>
					<step>D</step>
					<octave>4</octave>
				</pitch>
				<duration>40</duration>
				<instrument id="P1-S0V0"/>
				<voice>1</voice>
				<type>quarter</type>
				<stem>up</stem>
				<lyric number="1">
					<syllabic>end</syllabic>
					<text>tour,</text>
				</lyric>
				<lyric number="2">
					<syllabic>end</syllabic>
					<text>_trait</text>
				</lyric>
				<lyric number="3">
					<syllabic>single</syllabic>
					<text>trait,</text>
				</lyric>
			</note>
			<note>
				<rest/>
				<duration>40</duration>
				<voice>1</voice>
				<type>quarter</type>
			</note>
			<note>
				<pitch>
					<step>F</step>
					<octave>4</octave>
				</pitch>
				<duration>20</duration>
				<instrument id="P1-S0V0"/>
				<voice>1</voice>
				<type>eighth</type>
				<stem>up</stem>
				<lyric number="1">
					<syllabic>single</syllabic>
					<text>Tres</text>
				</lyric>
				<lyric number="2">
					<syllabic>single</syllabic>
					<text>De</text>
				</lyric>
				<lyric number="3">
					<syllabic>begin</syllabic>
					<text>Chie</text>
				</lyric>
				<lyric number="4">
					<syllabic>single</syllabic>
					<text>-I</text>
				</lyric>
			</note>
			<forward>
				<duration>20</duration>
			</forward>
		</measure><!--
===========================================================
-->

		<measure number="5" width="212">
			<print new-system="yes">
				<system-layout>
					<system-margins>
						<left-margin>3</left-margin>
						<right-margin>1</right-margin>
					</system-margins>
					<system-distance>70</system-distance>
				</system-layout>
			</print>
			<attributes></attributes>
			<note>
				<pitch>
					<step>G</step>
					<octave>4</octave>
				</pitch>
				<duration>80</duration>
				<instrument id="P1-S0V0"/>
				<voice>1</voice>
				<type>half</type>
				<stem>up</stem>
				<lyric number="1">
					<syllabic>begin</syllabic>
					<text>gen</text>
				</lyric>
				<lyric number="2">
					<syllabic>single</syllabic>
					<text>celle</text>
				</lyric>
				<lyric number="3">
					<syllabic>end</syllabic>
					<text>re</text>
				</lyric>
			</note>
			<direction placement="above">
				<direction-type>
					<words relative-x="2.4364" default-y="63.5883" font-family="Times New Roman" font-style="normal" font-size="10" font-weight="normal" color="#000000">T n0r</words>
				</direction-type>
				<staff>1</staff>
			</direction>
			<note>
				<pitch>
					<step>E</step>
					<octave>4</octave>
				</pitch>
				<duration>40</duration>
				<instrument id="P1-S0V0"/>
				<voice>1</voice>
				<type>quarter</type>
				<stem>up</stem>
				<lyric number="1">
					<syllabic>end</syllabic>
					<text>te</text>
				</lyric>
				<lyric number="2">
					<syllabic>begin</syllabic>
					<text>ar</text>
				</lyric>
				<lyric number="3">
					<syllabic>begin</syllabic>
					<text>da</text>
					<extend/>
				</lyric>
			</note>
		</measure><!--
===========================================================
-->

		<measure number="6" width="157">
			<print new-system="no"></print>
			<attributes></attributes>
			<note>
				<pitch>
					<step>F</step>
					<octave>4</octave>
				</pitch>
				<duration>60</duration>
				<tie type="start"/>
				<instrument id="P1-S0V0"/>
				<voice>1</voice>
				<type>quarter</type>
				<dot/>
				<stem>up</stem>
				<notations>
					<tied type="start" number="1" orientation="under"/>
				</notations>
			</note>
			<note>
				<rest/>
				<duration>20</duration>
				<voice>1</voice>
				<type>eighth</type>
				<lyric number="1">
					<syllabic>begin</syllabic>
					<text>flour</text>
					<extend/>
				</lyric>
				<lyric number="2">
					<syllabic>middle</syllabic>
					<text>dour</text>
					<extend/>
				</lyric>
				<lyric number="3">
					<syllabic>middle</syllabic>
					<text>me</text>
					<extend/>
				</lyric>
			</note>
			<note>
				<pitch>
					<step>F</step>
					<octave>4</octave>
				</pitch>
				<duration>40</duration>
				<tie type="stop"/>
				<instrument id="P1-S0V0"/>
				<voice>1</voice>
				<type>quarter</type>
				<stem>up</stem>
				<notations>
					<tied type="stop" number="1" orientation="under"/>
				</notations>
			</note>
			<note>
				<pitch>
					<step>G</step>
					<octave>4</octave>
				</pitch>
				<duration>20</duration>
				<instrument id="P1-S0V0"/>
				<voice>1</voice>
				<type>eighth</type>
				<stem>up</stem>
				<lyric number="1">
					<syllabic>end</syllabic>
					<text>$ue</text>
				</lyric>
				<lyric number="2">
					<syllabic>end</syllabic>
					<text>qui</text>
				</lyric>
				<lyric number="3">
					<syllabic>middle</syllabic>
					<text>di</text>
				</lyric>
			</note>
			<backup>
				<duration>20</duration>
			</backup>
		</measure><!--
===========================================================
-->

		<measure number="7" width="190">
			<print new-system="no"></print>
			<attributes></attributes>
			<note>
				<pitch>
					<step>E</step>
					<octave>4</octave>
				</pitch>
				<duration>40</duration>
				<instrument id="P1-S0V0"/>
				<voice>1</voice>
				<type>quarter</type>
				<stem>up</stem>
				<lyric number="2">
					<syllabic>single</syllabic>
					<text>slr</text>
				</lyric>
				<lyric number="3">
					<syllabic>end</syllabic>
					<text>me</text>
				</lyric>
				<lyric number="4">
					<syllabic>single</syllabic>
					<text>_gne</text>
				</lyric>
			</note>
			<note>
				<pitch>
					<step>D</step>
					<octave>4</octave>
				</pitch>
				<duration>20</duration>
				<instrument id="P1-S0V0"/>
				<voice>1</voice>
				<type>eighth</type>
				<stem>up</stem>
				<lyric number="2">
					<syllabic>single</syllabic>
					<text>too-</text>
				</lyric>
				<lyric number="4">
					<syllabic>single</syllabic>
					<text>de</text>
				</lyric>
			</note>
			<note>
				<pitch>
					<step>D</step>
					<octave>4</octave>
				</pitch>
				<duration>40</duration>
				<instrument id="P1-S0V0"/>
				<voice>1</voice>
				<type>quarter</type>
				<stem>up</stem>
				<lyric number="2">
					<syllabic>single</syllabic>
					<text>tes</text>
				</lyric>
				<lyric number="3">
					<syllabic>single</syllabic>
					<text>tienttres_tout</text>
				</lyric>
			</note>
			<note>
				<pitch>
					<step>C</step>
					<octave>4</octave>
				</pitch>
				<duration>20</duration>
				<instrument id="P1-S0V0"/>
				<voice>1</voice>
				<type>eighth</type>
				<stem>up</stem>
				<lyric number="1">
					<syllabic>single</syllabic>
					<text>je</text>
				</lyric>
				<lyric number="4">
					<syllabic>single</syllabic>
					<text>tresgrant</text>
				</lyric>
			</note>
			<backup>
				<duration>20</duration>
			</backup>
			<note>
				<pitch>
					<step>C</step>
					<octave>3</octave>
				</pitch>
				<duration>40</duration>
				<instrument id="P1-S0V1"/>
				<voice>2</voice>
				<type>quarter</type>
				<stem>up</stem>
			</note>
			<backup>
				<duration>20</duration>
			</backup>
		</measure><!--
===========================================================
-->

		<measure number="8" width="85">
			<print new-system="no"></print>
			<attributes></attributes>
			<note>
				<pitch>
					<step>E</step>
					<octave>4</octave>
				</pitch>
				<duration>60</duration>
				<instrument id="P1-S0V0"/>
				<voice>1</voice>
				<type>quarter</type>
				<dot/>
				<stem>up</stem>
				<notations>
					<fermata type="upright"/>
				</notations>
				<lyric number="1">
					<syllabic>single</syllabic>
					<text>pris,</text>
				</lyric>
				<lyric number="2">
					<syllabic>single</syllabic>
					<text>pris.</text>
				</lyric>
				<lyric number="3">
					<syllabic>single</syllabic>
					<text>pris,</text>
				</lyric>
			</note>
			<note>
				<rest/>
				<duration>40</duration>
				<voice>1</voice>
				<type>quarter</type>
			</note>
			<forward>
				<duration>20</duration>
			</forward>
		</measure><!--
===========================================================
-->

		<measure number="9" width="165">
			<print new-system="no"></print>
			<attributes></attributes>
			<note>
				<pitch>
					<step>F</step>
					<octave>4</octave>
				</pitch>
				<duration>60</duration>
				<instrument id="P1-S0V0"/>
				<voice>1</voice>
				<type>quarter</type>
				<dot/>
				<stem>up</stem>
				<lyric number="1">
					<syllabic>single</syllabic>
					<text>2.S.Je</text>
				</lyric>
				<lyric number="2">
					<syllabic>single</syllabic>
					<text>6.Pnis_se</text>
				</lyric>
			</note>
			<note>
				<pitch>
					<step>F</step>
					<octave>4</octave>
				</pitch>
				<duration>40</duration>
				<instrument id="P1-S0V0"/>
				<voice>1</voice>
				<type>quarter</type>
				<stem>up</stem>
				<lyric number="1">
					<syllabic>single</syllabic>
					<text>me</text>
				</lyric>
			</note>
			<note>
				<pitch>
					<step>D</step>
					<octave>4</octave>
				</pitch>
				<duration>20</duration>
				<instrument id="P1-S0V0"/>
				<voice>1</voice>
				<type>eighth</type>
				<stem>up</stem>
				<lyric number="1">
					<syllabic>single</syllabic>
					<text>sens</text>
				</lyric>
				<lyric number="2">
					<syllabic>begin</syllabic>
					<text>ve</text>
				</lyric>
			</note>
		</measure><!--
===========================================================
-->

		<measure number="10" width="150">
			<print new-system="no"></print>
			<attributes></attributes>
			<direction placement="above">
				<direction-type>
					<words relative-x="5.5738" default-y="16.5776" font-family="Times New Roman" font-style="normal" font-size="9" font-weight="normal" color="#000000">l O</words>
				</direction-type>
				<staff>1</staff>
			</direction>
			<note>
				<pitch>
					<step>E</step>
					<octave>4</octave>
				</pitch>
				<duration>60</duration>
				<tie type="start"/>
				<instrument id="P1-S0V0"/>
				<voice>1</voice>
				<type>quarter</type>
				<dot/>
				<stem>up</stem>
				<notations>
					<tied type="start" number="1" orientation="under"/>
				</notations>
				<lyric number="1">
					<syllabic>begin</syllabic>
					<text>tout</text>
					<extend/>
				</lyric>
				<lyric number="2">
					<syllabic>middle</syllabic>
					<text>oir,</text>
					<extend/>
				</lyric>
			</note>
			<note>
				<pitch>
					<step>E</step>
					<octave>4</octave>
				</pitch>
				<duration>40</duration>
				<tie type="stop"/>
				<instrument id="P1-S0V0"/>
				<voice>1</voice>
				<type>quarter</type>
				<stem>up</stem>
				<notations>
					<tied type="stop" number="1" orientation="under"/>
				</notations>
			</note>
			<note>
				<pitch>
					<step>D</step>
					<octave>4</octave>
				</pitch>
				<duration>20</duration>
				<instrument id="P1-S0V0"/>
				<voice>1</voice>
				<type>eighth</type>
				<stem>up</stem>
				<lyric number="1">
					<syllabic>end</syllabic>
					<text>si</text>
				</lyric>
				<lyric number="2">
					<syllabic>middle</syllabic>
					<text>om</text>
				</lyric>
			</note>
		</measure><!--
===========================================================
-->

		<measure number="11" width="237">
			<print new-system="yes">
				<system-layout>
					<system-margins>
						<left-margin>2</left-margin>
						<right-margin>3</right-margin>
					</system-margins>
					<system-distance>73</system-distance>
				</system-layout>
			</print>
			<attributes></attributes>
			<note>
				<pitch>
					<step>D</step>
					<octave>4</octave>
				</pitch>
				<duration>40</duration>
				<instrument id="P1-S0V0"/>
				<voice>1</voice>
				<type>quarter</type>
				<stem>up</stem>
				<lyric number="1">
					<syllabic>begin</syllabic>
					<text>grn</text>
				</lyric>
				<lyric number="2">
					<syllabic>end</syllabic>
					<text>-me</text>
				</lyric>
			</note>
			<note>
				<pitch>
					<step>B</step>
					<octave>3</octave>
				</pitch>
				<duration>20</duration>
				<instrument id="P1-S0V0"/>
				<voice>1</voice>
				<type>eighth</type>
				<stem>up</stem>
				<lyric number="1">
					<syllabic>middle</syllabic>
					<text>de</text>
				</lyric>
				<lyric number="2">
					<syllabic>single</syllabic>
					<text>vostre</text>
				</lyric>
			</note>
			<note>
				<pitch>
					<step>C</step>
					<octave>4</octave>
				</pitch>
				<duration>40</duration>
				<instrument id="P1-S0V0"/>
				<voice>1</voice>
				<type>quarter</type>
				<stem>up</stem>
				<lyric number="1">
					<syllabic>end</syllabic>
					<text>ment</text>
				</lyric>
				<lyric number="2">
					<syllabic>single</syllabic>
					<text>hlm__ble</text>
				</lyric>
			</note>
			<note>
				<pitch>
					<step>A</step>
					<octave>3</octave>
				</pitch>
				<duration>20</duration>
				<instrument id="P1-S0V0"/>
				<voice>1</voice>
				<type>eighth</type>
				<stem>up</stem>
				<lyric number="1">
					<syllabic>single</syllabic>
					<text>es_pris</text>
				</lyric>
			</note>
		</measure><!--
===========================================================
-->

		<measure number="12" width="147">
			<print new-system="no"></print>
			<attributes></attributes>
			<note>
				<pitch>
					<step>C</step>
					<octave>4</octave>
				</pitch>
				<duration>40</duration>
				<instrument id="P1-S0V0"/>
				<voice>1</voice>
				<type>quarter</type>
				<stem>up</stem>
				<lyric number="2">
					<syllabic>single</syllabic>
					<text>prls;</text>
				</lyric>
			</note>
			<note>
				<rest/>
				<duration>40</duration>
				<voice>1</voice>
				<type>quarter</type>
			</note>
			<note>
				<pitch>
					<step>D</step>
					<octave>4</octave>
				</pitch>
				<duration>20</duration>
				<instrument id="P1-S0V0"/>
				<voice>1</voice>
				<type>eighth</type>
				<stem>up</stem>
				<lyric number="1">
					<syllabic>single</syllabic>
					<text>De</text>
				</lyric>
				<lyric number="2">
					<syllabic>single</syllabic>
					<text>Car</text>
				</lyric>
			</note>
			<forward>
				<duration>20</duration>
			</forward>
		</measure><!--
===========================================================
-->

		<measure number="13" width="185">
			<print new-system="no"></print>
			<attributes></attributes>
			<note>
				<pitch>
					<step>C</step>
					<octave>4</octave>
				</pitch>
				<duration>20</duration>
				<instrument id="P1-S0V0"/>
				<voice>1</voice>
				<type>eighth</type>
				<stem>up</stem>
				<beam number="1">begin</beam>
				<lyric number="1">
					<syllabic>begin</syllabic>
					<text>vostre</text>
				</lyric>
				<lyric number="2">
					<syllabic>single</syllabic>
					<text>par</text>
				</lyric>
			</note>
			<note>
				<pitch>
					<step>B</step>
					<octave>3</octave>
				</pitch>
				<duration>10</duration>
				<instrument id="P1-S0V0"/>
				<voice>1</voice>
				<type>16th</type>
				<stem>up</stem>
				<beam number="1">continue</beam>
				<beam number="2">backward hook</beam>
			</note>
			<note>
				<pitch>
					<step>G</step>
					<octave>3</octave>
				</pitch>
				<duration>20</duration>
				<instrument id="P1-S0V0"/>
				<voice>1</voice>
				<type>eighth</type>
				<stem>up</stem>
				<beam number="1">end</beam>
			</note>
			<note>
				<pitch>
					<step>A</step>
					<octave>3</octave>
				</pitch>
				<duration>20</duration>
				<instrument id="P1-S0V0"/>
				<voice>1</voice>
				<type>eighth</type>
				<stem>up</stem>
				<lyric number="2">
					<syllabic>single</syllabic>
					<text>m</text>
				</lyric>
			</note>
			<note>
				<pitch>
					<step>F</step>
					<octave>3</octave>
				</pitch>
				<duration>40</duration>
				<instrument id="P1-S0V0"/>
				<voice>1</voice>
				<type>quarter</type>
				<stem>up</stem>
			</note>
			<forward>
				<duration>10</duration>
			</forward>
		</measure><!--
===========================================================
-->

		<measure number="14" width="92">
			<print new-system="no"></print>
			<attributes></attributes>
			<note>
				<pitch>
					<step>F</step>
					<octave>3</octave>
				</pitch>
				<duration>60</duration>
				<instrument id="P1-S0V0"/>
				<voice>1</voice>
				<type>quarter</type>
				<dot/>
				<stem>up</stem>
				<lyric number="1">
					<syllabic>end</syllabic>
					<text>mour</text>
				</lyric>
				<lyric number="2">
					<syllabic>single</syllabic>
					<text>foi,</text>
				</lyric>
			</note>
			<note>
				<rest/>
				<duration>60</duration>
				<voice>1</voice>
				<type>quarter</type>
				<dot/>
			</note>
		</measure><!--
===========================================================
-->

		<measure number="15" width="148">
			<print new-system="no"></print>
			<attributes></attributes>
			<direction placement="above">
				<direction-type>
					<coda/>
				</direction-type>
			</direction>
			<direction placement="above">
				<direction-type>
					<words relative-x="1.7206" default-y="14.8486" font-family="Times New Roman" font-style="normal" font-size="9" font-weight="normal" color="#000000">l 5</words>
				</direction-type>
				<staff>1</staff>
			</direction>
			<note>
				<pitch>
					<step>A</step>
					<octave>3</octave>
				</pitch>
				<duration>60</duration>
				<instrument id="P1-S0V0"/>
				<voice>1</voice>
				<type>quarter</type>
				<dot/>
				<stem>up</stem>
				<lyric number="1">
					<syllabic>single</syllabic>
					<text>llne</text>
				</lyric>
				<lyric number="2">
					<syllabic>single</syllabic>
					<text>si</text>
				</lyric>
			</note>
			<note>
				<pitch>
					<step>C</step>
					<octave>4</octave>
				</pitch>
				<duration>40</duration>
				<instrument id="P1-S0V0"/>
				<voice>1</voice>
				<type>quarter</type>
				<stem>up</stem>
				<lyric number="1">
					<syllabic>single</syllabic>
					<text>sui</text>
				</lyric>
				<lyric number="2">
					<syllabic>single</syllabic>
					<text>com</text>
				</lyric>
			</note>
			<forward>
				<duration>20</duration>
			</forward>
		</measure><!--
===========================================================
-->

		<measure number="16" width="149">
			<print new-system="no"></print>
			<attributes></attributes>
			<note>
				<pitch>
					<step>D</step>
					<octave>4</octave>
				</pitch>
				<duration>60</duration>
				<instrument id="P1-S0V0"/>
				<voice>1</voice>
				<type>quarter</type>
				<dot/>
				<stem>up</stem>
				<lyric number="1">
					<syllabic>single</syllabic>
					<text>a</text>
				</lyric>
				<lyric number="2">
					<syllabic>single</syllabic>
					<text>vous</text>
				</lyric>
			</note>
			<note>
				<rest/>
				<duration>40</duration>
				<voice>1</voice>
				<type>quarter</type>
			</note>
			<note>
				<pitch>
					<step>F</step>
					<octave>4</octave>
				</pitch>
				<duration>20</duration>
				<instrument id="P1-S0V0"/>
				<voice>1</voice>
				<type>eighth</type>
				<stem>up</stem>
				<lyric number="1">
					<syllabic>single</syllabic>
					<text>la</text>
				</lyric>
				<lyric number="2">
					<syllabic>single</syllabic>
					<text>ay</text>
				</lyric>
			</note>
		</measure><!--
===========================================================
-->

		<measure number="17" width="243">
			<print new-system="yes">
				<system-layout>
					<system-margins>
						<left-margin>0</left-margin>
						<right-margin>3</right-margin>
					</system-margins>
					<system-distance>71</system-distance>
				</system-layout>
			</print>
			<attributes></attributes>
			<note>
				<pitch>
					<step>D</step>
					<octave>4</octave>
				</pitch>
				<duration>60</duration>
				<instrument id="P1-S0V0"/>
				<voice>1</voice>
				<type>quarter</type>
				<dot/>
				<stem>up</stem>
				<lyric number="1">
					<syllabic>begin</syllabic>
					<text>mort.</text>
				</lyric>
				<lyric number="2">
					<syllabic>begin</syllabic>
					<text>re</text>
				</lyric>
			</note>
			<note>
				<pitch>
					<step>D</step>
					<octave>4</octave>
				</pitch>
				<duration>10</duration>
				<instrument id="P1-S0V0"/>
				<voice>1</voice>
				<type>16th</type>
				<stem>up</stem>
				<beam number="1">begin</beam>
				<beam number="2">begin</beam>
			</note>
			<note>
				<pitch>
					<step>E</step>
					<octave>4</octave>
				</pitch>
				<duration>10</duration>
				<instrument id="P1-S0V0"/>
				<voice>1</voice>
				<type>16th</type>
				<stem>up</stem>
				<beam number="1">continue</beam>
				<beam number="2">continue</beam>
			</note>
			<note>
				<pitch>
					<step>F</step>
					<octave>4</octave>
				</pitch>
				<duration>10</duration>
				<instrument id="P1-S0V0"/>
				<voice>1</voice>
				<type>16th</type>
				<stem>up</stem>
				<beam number="1">continue</beam>
				<beam number="2">continue</beam>
			</note>
			<note>
				<pitch>
					<step>E</step>
					<octave>4</octave>
				</pitch>
				<duration>10</duration>
				<instrument id="P1-S0V0"/>
				<voice>1</voice>
				<type>16th</type>
				<stem>up</stem>
				<beam number="1">continue</beam>
				<beam number="2">continue</beam>
			</note>
			<note>
				<pitch>
					<step>F</step>
					<octave>4</octave>
				</pitch>
				<duration>10</duration>
				<instrument id="P1-S0V0"/>
				<voice>1</voice>
				<type>16th</type>
				<stem>up</stem>
				<beam number="1">continue</beam>
				<beam number="2">continue</beam>
			</note>
			<note>
				<pitch>
					<step>D</step>
					<octave>4</octave>
				</pitch>
				<duration>10</duration>
				<instrument id="P1-S0V0"/>
				<voice>1</voice>
				<type>16th</type>
				<stem>up</stem>
				<beam number="1">end</beam>
				<beam number="2">end</beam>
			</note>
		</measure><!--
===========================================================
-->

		<measure number="18" width="115">
			<print new-system="no"></print>
			<attributes></attributes>
			<note>
				<pitch>
					<step>E</step>
					<octave>4</octave>
				</pitch>
				<duration>40</duration>
				<tie type="start"/>
				<instrument id="P1-S0V0"/>
				<voice>1</voice>
				<type>quarter</type>
				<stem>up</stem>
				<notations>
					<tied type="start" number="1" orientation="under"/>
				</notations>
			</note>
			<note>
				<pitch>
					<step>E</step>
					<octave>4</octave>
				</pitch>
				<duration>40</duration>
				<tie type="stop"/>
				<instrument id="P1-S0V0"/>
				<voice>1</voice>
				<type>quarter</type>
				<stem>up</stem>
				<notations>
					<tied type="stop" number="1" orientation="under"/>
				</notations>
			</note>
			<note>
				<pitch>
					<step>G</step>
					<octave>4</octave>
				</pitch>
				<duration>20</duration>
				<instrument id="P1-S0V0"/>
				<voice>1</voice>
				<type>eighth</type>
				<stem>up</stem>
				<lyric number="1">
					<syllabic>middle</syllabic>
					<text>_.</text>
				</lyric>
			</note>
			<forward>
				<duration>20</duration>
			</forward>
		</measure><!--
===========================================================
-->

		<measure number="19" width="181">
			<print new-system="no"></print>
			<attributes></attributes>
			<note>
				<pitch>
					<step>G</step>
					<octave>4</octave>
				</pitch>
				<duration>20</duration>
				<instrument id="P1-S0V0"/>
				<voice>1</voice>
				<type>eighth</type>
				<stem>up</stem>
				<beam number="1">begin</beam>
			</note>
			<note>
				<pitch>
					<step>F</step>
					<octave>4</octave>
				</pitch>
				<duration>20</duration>
				<instrument id="P1-S0V0"/>
				<voice>1</voice>
				<type>eighth</type>
				<stem>up</stem>
				<beam number="1">continue</beam>
			</note>
			<note>
				<pitch>
					<step>E</step>
					<octave>4</octave>
				</pitch>
				<duration>20</duration>
				<instrument id="P1-S0V0"/>
				<voice>1</voice>
				<type>eighth</type>
				<stem>up</stem>
				<beam number="1">end</beam>
			</note>
			<note>
				<pitch>
					<step>E</step>
					<octave>4</octave>
				</pitch>
				<duration>10</duration>
				<instrument id="P1-S0V0"/>
				<voice>1</voice>
				<type>16th</type>
				<stem>up</stem>
				<beam number="1">begin</beam>
				<beam number="2">begin</beam>
			</note>
			<note>
				<pitch>
					<step>D</step>
					<octave>4</octave>
				</pitch>
				<duration>10</duration>
				<instrument id="P1-S0V0"/>
				<voice>1</voice>
				<type>16th</type>
				<stem>up</stem>
				<beam number="1">continue</beam>
				<beam number="2">end</beam>
			</note>
			<note>
				<pitch>
					<step>E</step>
					<octave>4</octave>
				</pitch>
				<duration>20</duration>
				<instrument id="P1-S0V0"/>
				<voice>1</voice>
				<type>eighth</type>
				<stem>up</stem>
				<beam number="1">continue</beam>
			</note>
			<note>
				<pitch>
					<step>C</step>
					<octave>4</octave>
				</pitch>
				<duration>20</duration>
				<instrument id="P1-S0V0"/>
				<voice>1</voice>
				<type>eighth</type>
				<stem>up</stem>
				<beam number="1">end</beam>
			</note>
		</measure><!--
===========================================================
-->

		<measure number="20" width="116">
			<print new-system="no"></print>
			<attributes></attributes>
			<direction placement="above">
				<direction-type>
					<words relative-x="2.5722" default-y="15.6663" font-family="Times New Roman" font-style="normal" font-size="11" font-weight="normal" color="#000000">2o</words>
				</direction-type>
				<staff>1</staff>
			</direction>
			<note>
				<pitch>
					<step>B</step>
					<octave>3</octave>
				</pitch>
				<duration>40</duration>
				<tie type="start"/>
				<instrument id="P1-S0V0"/>
				<voice>1</voice>
				<type>quarter</type>
				<accidental parentheses="no">natural</accidental>
				<stem>up</stem>
				<notations>
					<tied type="start" number="1" orientation="under"/>
				</notations>
			</note>
			<note>
				<pitch>
					<step>B</step>
					<octave>3</octave>
				</pitch>
				<duration>40</duration>
				<tie type="stop"/>
				<instrument id="P1-S0V0"/>
				<voice>1</voice>
				<type>quarter</type>
				<stem>up</stem>
				<notations>
					<tied type="stop" number="1" orientation="under"/>
				</notations>
			</note>
			<note>
				<pitch>
					<step>C</step>
					<octave>4</octave>
				</pitch>
				<duration>20</duration>
				<instrument id="P1-S0V0"/>
				<voice>1</voice>
				<type>eighth</type>
				<stem>up</stem>
			</note>
			<forward>
				<duration>20</duration>
			</forward>
		</measure><!--
===========================================================
-->

		<measure number="21" width="219">
			<print new-system="no"></print>
			<attributes></attributes>
			<note>
				<pitch>
					<step>D</step>
					<octave>4</octave>
				</pitch>
				<duration>20</duration>
				<instrument id="P1-S0V0"/>
				<voice>1</voice>
				<type>eighth</type>
				<stem>up</stem>
				<beam number="1">begin</beam>
			</note>
			<note>
				<pitch>
					<step>C</step>
					<octave>4</octave>
				</pitch>
				<duration>10</duration>
				<instrument id="P1-S0V0"/>
				<voice>1</voice>
				<type>16th</type>
				<stem>up</stem>
				<beam number="1">continue</beam>
				<beam number="2">begin</beam>
				<lyric number="2">
					<syllabic>middle</syllabic>
					<text></text>
					<extend/>
				</lyric>
			</note>
			<note>
				<pitch>
					<step>B</step>
					<octave>3</octave>
				</pitch>
				<duration>10</duration>
				<instrument id="P1-S0V0"/>
				<voice>1</voice>
				<type>16th</type>
				<stem>up</stem>
				<beam number="1">continue</beam>
				<beam number="2">end</beam>
				<lyric number="1">
					<syllabic>middle</syllabic>
					<text>-</text>
				</lyric>
			</note>
			<note>
				<pitch>
					<step>A</step>
					<octave>3</octave>
				</pitch>
				<duration>20</duration>
				<instrument id="P1-S0V0"/>
				<voice>1</voice>
				<type>eighth</type>
				<stem>up</stem>
				<beam number="1">end</beam>
			</note>
			<note>
				<pitch>
					<step>G</step>
					<octave>3</octave>
				</pitch>
				<duration>10</duration>
				<instrument id="P1-S0V0"/>
				<voice>1</voice>
				<type>16th</type>
				<stem>up</stem>
				<beam number="1">begin</beam>
				<beam number="2">begin</beam>
			</note>
			<note>
				<pitch>
					<step>A</step>
					<octave>3</octave>
				</pitch>
				<duration>10</duration>
				<instrument id="P1-S0V0"/>
				<voice>1</voice>
				<type>16th</type>
				<stem>up</stem>
				<beam number="1">continue</beam>
				<beam number="2">continue</beam>
			</note>
			<note>
				<pitch>
					<step>A</step>
					<octave>3</octave>
				</pitch>
				<duration>10</duration>
				<instrument id="P1-S0V0"/>
				<voice>1</voice>
				<type>16th</type>
				<stem>up</stem>
				<beam number="1">continue</beam>
				<beam number="2">continue</beam>
			</note>
			<note>
				<pitch>
					<step>C</step>
					<octave>4</octave>
				</pitch>
				<duration>10</duration>
				<instrument id="P1-S0V0"/>
				<voice>1</voice>
				<type>16th</type>
				<stem>up</stem>
				<beam number="1">continue</beam>
				<beam number="2">continue</beam>
			</note>
			<note>
				<pitch>
					<step>D</step>
					<octave>4</octave>
				</pitch>
				<duration>10</duration>
				<instrument id="P1-S0V0"/>
				<voice>1</voice>
				<type>16th</type>
				<stem>up</stem>
				<beam number="1">continue</beam>
				<beam number="2">continue</beam>
				<lyric number="2">
					<syllabic>end</syllabic>
					<text>_I</text>
				</lyric>
			</note>
			<note>
				<pitch>
					<step>B</step>
					<octave>3</octave>
				</pitch>
				<duration>10</duration>
				<instrument id="P1-S0V0"/>
				<voice>1</voice>
				<type>16th</type>
				<stem>up</stem>
				<beam number="1">end</beam>
				<beam number="2">end</beam>
			</note>
		</measure><!--
===========================================================
-->

		<measure number="22" width="86">
			<print new-system="no"></print>
			<attributes></attributes>
			<note>
				<pitch>
					<step>C</step>
					<octave>4</octave>
				</pitch>
				<duration>160</duration>
				<instrument id="P1-S0V0"/>
				<voice>1</voice>
				<type>whole</type>
				<stem>none</stem>
				<lyric number="1">
					<syllabic>end</syllabic>
					<text>it.</text>
				</lyric>
				<lyric number="2">
					<syllabic>single</syllabic>
					<text>trait,</text>
				</lyric>
			</note>
			<backup>
				<duration>40</duration>
			</backup>
		</measure>
	</part><!--
===========================================================
-->

	<part id="P2">
		<measure number="1" width="248">
			<print>
				<page-layout>
					<page-height>1881.48</page-height>
					<page-width>1453.87</page-width>
					<page-margins>
						<left-margin>160.35</left-margin>
						<right-margin>326.26</right-margin>
						<top-margin>127.00</top-margin>
						<bottom-margin>63.50</bottom-margin>
					</page-margins>
				</page-layout>
				<system-layout>
					<system-margins>
						<left-margin>75</left-margin>
						<right-margin>0</right-margin>
					</system-margins>
					<top-system-distance>180</top-system-distance>
				</system-layout>
				<staff-layout number="1">
					<staff-distance>97</staff-distance>
				</staff-layout>
			</print>
			<attributes>
				<divisions>40</divisions>
				<key>
					<fifths>0</fifths>
				</key>
				<time>
					<beats>6</beats>
					<beat-type>8</beat-type>
				</time>
				<clef>
					<sign>F</sign>
					<line>4</line>
				</clef>
				<staff-details number="1" print-object="yes">
					<staff-size>59</staff-size>
				</staff-details>
				<transpose>
					<diatonic>0</diatonic>
					<chromatic>0</chromatic>
					<octave-change>-1</octave-change>
				</transpose>
			</attributes>
			<attributes></attributes>
			<note>
				<pitch>
					<step>C</step>
					<octave>4</octave>
				</pitch>
				<duration>60</duration>
				<voice>1</voice>
				<type>quarter</type>
				<dot/>
				<stem>down</stem>
				<lyric number="1">
					<syllabic>single</syllabic>
					<text>Colltrat</text>
				</lyric>
			</note>
			<note>
				<pitch>
					<step>A</step>
					<octave>3</octave>
				</pitch>
				<duration>60</duration>
				<voice>1</voice>
				<type>quarter</type>
				<dot/>
				<stem>down</stem>
				<lyric number="1">
					<syllabic>single</syllabic>
					<text>nr</text>
				</lyric>
			</note>
		</measure><!--
===========================================================
-->

		<measure number="2" width="182">
			<print new-system="no"></print>
			<attributes></attributes>
			<note>
				<pitch>
					<step>G</step>
					<octave>3</octave>
				</pitch>
				<duration>80</duration>
				<voice>1</voice>
				<type>half</type>
				<stem>down</stem>
			</note>
			<note>
				<pitch>
					<step>C</step>
					<octave>4</octave>
				</pitch>
				<duration>40</duration>
				<voice>1</voice>
				<type>quarter</type>
				<stem>down</stem>
			</note>
		</measure><!--
===========================================================
-->

		<measure number="3" width="254">
			<print new-system="no"></print>
			<attributes></attributes>
			<note>
				<pitch>
					<step>B</step>
					<octave>3</octave>
				</pitch>
				<duration>60</duration>
				<voice>1</voice>
				<type>quarter</type>
				<dot/>
				<stem>down</stem>
			</note>
			<note>
				<rest/>
				<duration>40</duration>
				<voice>1</voice>
				<type>quarter</type>
			</note>
			<note>
				<pitch>
					<step>G</step>
					<octave>3</octave>
				</pitch>
				<duration>20</duration>
				<voice>1</voice>
				<type>eighth</type>
				<stem>down</stem>
			</note>
		</measure><!--
===========================================================
-->

		<measure number="4" width="206">
			<print new-system="no"></print>
			<attributes></attributes>
			<note>
				<pitch>
					<step>A</step>
					<octave>3</octave>
				</pitch>
				<duration>80</duration>
				<voice>1</voice>
				<type>half</type>
				<stem>down</stem>
			</note>
			<note>
				<pitch>
					<step>B</step>
					<octave>3</octave>
				</pitch>
				<duration>40</duration>
				<voice>1</voice>
				<type>quarter</type>
				<stem>down</stem>
			</note>
		</measure><!--
===========================================================
-->

		<measure number="5" width="212">
			<print new-system="yes">
				<system-layout>
					<system-margins>
						<left-margin>3</left-margin>
						<right-margin>1</right-margin>
					</system-margins>
					<system-distance>70</system-distance>
				</system-layout>
				<staff-layout number="1">
					<staff-distance>102</staff-distance>
				</staff-layout>
			</print>
			<attributes></attributes>
			<note>
				<pitch>
					<step>C</step>
					<octave>4</octave>
				</pitch>
				<duration>40</duration>
				<voice>1</voice>
				<type>quarter</type>
				<stem>down</stem>
			</note>
			<note>
				<pitch>
					<step>C</step>
					<octave>3</octave>
				</pitch>
				<duration>20</duration>
				<voice>1</voice>
				<type>eighth</type>
				<stem>up</stem>
			</note>
			<note>
				<pitch>
					<step>C</step>
					<octave>3</octave>
				</pitch>
				<duration>10</duration>
				<voice>1</voice>
				<type>16th</type>
				<stem>up</stem>
				<beam number="1">begin</beam>
				<beam number="2">begin</beam>
			</note>
			<note>
				<pitch>
					<step>D</step>
					<octave>3</octave>
				</pitch>
				<duration>10</duration>
				<voice>1</voice>
				<type>16th</type>
				<stem>up</stem>
				<beam number="1">continue</beam>
				<beam number="2">end</beam>
			</note>
			<note>
				<pitch>
					<step>E</step>
					<octave>3</octave>
				</pitch>
				<duration>20</duration>
				<voice>1</voice>
				<type>eighth</type>
				<stem>up</stem>
				<beam number="1">continue</beam>
			</note>
			<note>
				<pitch>
					<step>C</step>
					<octave>3</octave>
				</pitch>
				<duration>20</duration>
				<voice>1</voice>
				<type>eighth</type>
				<stem>up</stem>
				<beam number="1">end</beam>
			</note>
		</measure><!--
===========================================================
-->

		<measure number="6" width="157">
			<print new-system="no"></print>
			<attributes></attributes>
			<note>
				<pitch>
					<step>D</step>
					<octave>3</octave>
				</pitch>
				<duration>20</duration>
				<voice>1</voice>
				<type>eighth</type>
				<stem>down</stem>
				<beam number="1">begin</beam>
			</note>
			<note>
				<pitch>
					<step>A</step>
					<octave>3</octave>
				</pitch>
				<duration>20</duration>
				<voice>1</voice>
				<type>eighth</type>
				<stem>down</stem>
				<beam number="1">continue</beam>
			</note>
			<note>
				<pitch>
					<step>D</step>
					<octave>3</octave>
				</pitch>
				<duration>20</duration>
				<voice>1</voice>
				<type>eighth</type>
				<stem>down</stem>
				<beam number="1">end</beam>
			</note>
			<note>
				<pitch>
					<step>D</step>
					<octave>3</octave>
				</pitch>
				<duration>40</duration>
				<voice>1</voice>
				<type>quarter</type>
				<stem>down</stem>
			</note>
			<note>
				<pitch>
					<step>A</step>
					<octave>3</octave>
				</pitch>
				<duration>20</duration>
				<voice>1</voice>
				<type>eighth</type>
				<stem>down</stem>
			</note>
		</measure><!--
===========================================================
-->

		<measure number="7" width="190">
			<print new-system="no"></print>
			<attributes></attributes>
			<note>
				<pitch>
					<step>B</step>
					<octave>3</octave>
				</pitch>
				<duration>60</duration>
				<voice>1</voice>
				<type>quarter</type>
				<dot/>
				<stem>down</stem>
			</note>
			<note>
				<rest/>
				<duration>20</duration>
				<voice>1</voice>
				<type>eighth</type>
			</note>
			<note>
				<pitch>
					<step>A</step>
					<octave>3</octave>
				</pitch>
				<duration>40</duration>
				<voice>1</voice>
				<type>quarter</type>
				<stem>down</stem>
			</note>
		</measure><!--
===========================================================
-->

		<measure number="8" width="85">
			<print new-system="no"></print>
			<attributes></attributes>
			<note>
				<pitch>
					<step>B</step>
					<octave>3</octave>
				</pitch>
				<duration>120</duration>
				<voice>1</voice>
				<type>half</type>
				<dot/>
				<stem>down</stem>
				<notations>
					<fermata type="upright"/>
				</notations>
			</note>
		</measure><!--
===========================================================
-->

		<measure number="9" width="165">
			<print new-system="no"></print>
			<attributes></attributes>
			<note>
				<pitch>
					<step>D</step>
					<octave>4</octave>
				</pitch>
				<duration>60</duration>
				<voice>1</voice>
				<type>quarter</type>
				<dot/>
				<stem>down</stem>
			</note>
			<note>
				<pitch>
					<step>A</step>
					<octave>3</octave>
				</pitch>
				<duration>60</duration>
				<voice>1</voice>
				<type>quarter</type>
				<dot/>
				<stem>down</stem>
			</note>
		</measure><!--
===========================================================
-->

		<measure number="10" width="150">
			<print new-system="no"></print>
			<attributes></attributes>
			<note>
				<pitch>
					<step>G</step>
					<octave>3</octave>
				</pitch>
				<duration>60</duration>
				<voice>1</voice>
				<type>quarter</type>
				<dot/>
				<stem>down</stem>
			</note>
			<note>
				<pitch>
					<step>C</step>
					<octave>3</octave>
				</pitch>
				<duration>60</duration>
				<voice>1</voice>
				<type>quarter</type>
				<dot/>
				<stem>up</stem>
			</note>
		</measure><!--
===========================================================
-->

		<measure number="11" width="237">
			<print new-system="yes">
				<system-layout>
					<system-margins>
						<left-margin>2</left-margin>
						<right-margin>3</right-margin>
					</system-margins>
					<system-distance>73</system-distance>
				</system-layout>
				<staff-layout number="1">
					<staff-distance>77</staff-distance>
				</staff-layout>
			</print>
			<attributes></attributes>
			<note>
				<pitch>
					<step>D</step>
					<octave>3</octave>
				</pitch>
				<duration>60</duration>
				<voice>1</voice>
				<type>quarter</type>
				<dot/>
				<stem>down</stem>
			</note>
			<note>
				<pitch>
					<step>F</step>
					<octave>3</octave>
				</pitch>
				<duration>60</duration>
				<voice>1</voice>
				<type>quarter</type>
				<dot/>
				<stem>down</stem>
			</note>
		</measure><!--
===========================================================
-->

		<measure number="12" width="147">
			<print new-system="no"></print>
			<attributes></attributes>
			<note>
				<pitch>
					<step>G</step>
					<octave>3</octave>
				</pitch>
				<duration>40</duration>
				<voice>1</voice>
				<type>quarter</type>
				<stem>down</stem>
			</note>
			<note>
				<pitch>
					<step>A</step>
					<octave>3</octave>
				</pitch>
				<duration>40</duration>
				<voice>1</voice>
				<type>quarter</type>
				<stem>down</stem>
			</note>
			<note>
				<pitch>
					<step>A</step>
					<octave>3</octave>
				</pitch>
				<duration>20</duration>
				<voice>1</voice>
				<type>eighth</type>
				<stem>down</stem>
			</note>
			<forward>
				<duration>20</duration>
			</forward>
		</measure><!--
===========================================================
-->

		<measure number="13" width="185">
			<print new-system="no"></print>
			<attributes></attributes>
			<note>
				<pitch>
					<step>D</step>
					<octave>3</octave>
				</pitch>
				<duration>60</duration>
				<voice>1</voice>
				<type>quarter</type>
				<dot/>
				<stem>down</stem>
			</note>
			<note>
				<rest/>
				<duration>40</duration>
				<voice>1</voice>
				<type>quarter</type>
			</note>
			<note>
				<pitch>
					<step>E</step>
					<octave>3</octave>
				</pitch>
				<duration>20</duration>
				<voice>1</voice>
				<type>eighth</type>
				<stem>down</stem>
			</note>
		</measure><!--
===========================================================
-->

		<measure number="14" width="92">
			<print new-system="no"></print>
			<attributes></attributes>
			<note>
				<pitch>
					<step>D</step>
					<octave>3</octave>
				</pitch>
				<duration>120</duration>
				<voice>1</voice>
				<type>half</type>
				<dot/>
				<stem>down</stem>
			</note>
		</measure><!--
===========================================================
-->

		<measure number="15" width="148">
			<print new-system="no"></print>
			<attributes></attributes>
			<direction placement="above">
				<direction-type>
					<coda/>
				</direction-type>
			</direction>
			<note>
				<rest/>
				<duration>40</duration>
				<voice>1</voice>
				<type>quarter</type>
			</note>
			<note>
				<pitch>
					<step>B</step>
					<octave>3</octave>
				</pitch>
				<duration>20</duration>
				<voice>1</voice>
				<type>eighth</type>
				<stem>down</stem>
			</note>
			<note>
				<pitch>
					<step>G</step>
					<octave>3</octave>
				</pitch>
				<duration>40</duration>
				<voice>1</voice>
				<type>quarter</type>
				<stem>down</stem>
			</note>
			<note>
				<pitch>
					<step>A</step>
					<octave>3</octave>
				</pitch>
				<duration>20</duration>
				<voice>1</voice>
				<type>eighth</type>
				<stem>down</stem>
			</note>
		</measure><!--
===========================================================
-->

		<measure number="16" width="149">
			<print new-system="no"></print>
			<attributes></attributes>
			<note>
				<pitch>
					<step>D</step>
					<octave>3</octave>
				</pitch>
				<duration>20</duration>
				<voice>1</voice>
				<type>eighth</type>
				<stem>down</stem>
			</note>
			<note>
				<pitch>
					<step>A</step>
					<octave>3</octave>
				</pitch>
				<duration>40</duration>
				<voice>1</voice>
				<type>quarter</type>
				<stem>down</stem>
			</note>
			<note>
				<pitch>
					<step>D</step>
					<octave>4</octave>
				</pitch>
				<duration>60</duration>
				<voice>1</voice>
				<type>quarter</type>
				<dot/>
				<stem>down</stem>
			</note>
		</measure><!--
===========================================================
-->

		<measure number="17" width="243">
			<print new-system="yes">
				<system-layout>
					<system-margins>
						<left-margin>0</left-margin>
						<right-margin>3</right-margin>
					</system-margins>
					<system-distance>71</system-distance>
				</system-layout>
				<staff-layout number="1">
					<staff-distance>66</staff-distance>
				</staff-layout>
			</print>
			<attributes></attributes>
			<note>
				<pitch>
					<step>C</step>
					<octave>4</octave>
				</pitch>
				<duration>20</duration>
				<voice>1</voice>
				<type>eighth</type>
				<stem>down</stem>
				<beam number="1">begin</beam>
			</note>
			<note>
				<pitch>
					<step>A</step>
					<octave>3</octave>
				</pitch>
				<duration>20</duration>
				<voice>1</voice>
				<type>eighth</type>
				<stem>down</stem>
				<beam number="1">end</beam>
			</note>
			<note>
				<pitch>
					<step>C</step>
					<octave>4</octave>
				</pitch>
				<duration>60</duration>
				<voice>1</voice>
				<type>quarter</type>
				<dot/>
				<stem>down</stem>
			</note>
			<note>
				<pitch>
					<step>A</step>
					<octave>3</octave>
				</pitch>
				<duration>20</duration>
				<voice>1</voice>
				<type>eighth</type>
				<stem>down</stem>
			</note>
		</measure><!--
===========================================================
-->

		<measure number="18" width="115">
			<print new-system="no"></print>
			<attributes></attributes>
			<note>
				<pitch>
					<step>G</step>
					<octave>3</octave>
				</pitch>
				<duration>120</duration>
				<voice>1</voice>
				<type>half</type>
				<dot/>
				<stem>down</stem>
			</note>
		</measure><!--
===========================================================
-->

		<measure number="19" width="181">
			<print new-system="no"></print>
			<attributes></attributes>
			<note>
				<pitch>
					<step>G</step>
					<octave>3</octave>
				</pitch>
				<duration>20</duration>
				<voice>1</voice>
				<type>eighth</type>
				<stem>down</stem>
			</note>
			<note>
				<pitch>
					<step>C</step>
					<octave>3</octave>
				</pitch>
				<duration>40</duration>
				<tie type="start"/>
				<voice>1</voice>
				<type>quarter</type>
				<stem>up</stem>
				<notations>
					<tied type="start" number="1" orientation="under"/>
				</notations>
			</note>
			<note>
				<pitch>
					<step>C</step>
					<octave>3</octave>
				</pitch>
				<duration>40</duration>
				<tie type="stop"/>
				<voice>1</voice>
				<type>quarter</type>
				<stem>up</stem>
				<notations>
					<tied type="stop" number="1" orientation="under"/>
					<articulations>
						<tenuto placement="above"/>
					</articulations>
				</notations>
			</note>
			<forward>
				<duration>20</duration>
			</forward>
		</measure><!--
===========================================================
-->

		<measure number="20" width="116">
			<print new-system="no"></print>
			<attributes></attributes>
			<note>
				<pitch>
					<step>E</step>
					<octave>3</octave>
				</pitch>
				<duration>40</duration>
				<voice>1</voice>
				<type>quarter</type>
				<stem>up</stem>
			</note>
			<note>
				<rest/>
				<duration>40</duration>
				<voice>1</voice>
				<type>quarter</type>
			</note>
			<forward>
				<duration>40</duration>
			</forward>
		</measure><!--
===========================================================
-->

		<measure number="21" width="219">
			<print new-system="no"></print>
			<attributes></attributes>
			<note>
				<pitch>
					<step>C</step>
					<octave>3</octave>
				</pitch>
				<duration>40</duration>
				<voice>1</voice>
				<type>quarter</type>
				<stem>up</stem>
			</note>
			<note>
				<pitch>
					<step>G</step>
					<octave>3</octave>
				</pitch>
				<duration>40</duration>
				<voice>1</voice>
				<type>quarter</type>
				<stem>down</stem>
			</note>
			<note>
				<pitch>
					<step>F</step>
					<octave>3</octave>
				</pitch>
				<duration>40</duration>
				<voice>1</voice>
				<type>quarter</type>
				<stem>down</stem>
			</note>
		</measure><!--
===========================================================
-->

		<measure number="22" width="86">
			<print new-system="no"></print>
			<attributes></attributes>
			<note>
				<pitch>
					<step>G</step>
					<octave>3</octave>
				</pitch>
				<duration>160</duration>
				<voice>1</voice>
				<type>whole</type>
				<stem>none</stem>
				<notations>
					<ornaments>
						<trill-mark/>
					</ornaments>
				</notations>
			</note>
			<backup>
				<duration>40</duration>
			</backup>
		</measure>
	</part><!--
===========================================================
-->

	<part id="P3">
		<measure number="1" width="248">
			<print>
				<page-layout>
					<page-height>1881.48</page-height>
					<page-width>1453.87</page-width>
					<page-margins>
						<left-margin>160.35</left-margin>
						<right-margin>326.26</right-margin>
						<top-margin>127.00</top-margin>
						<bottom-margin>63.50</bottom-margin>
					</page-margins>
				</page-layout>
				<system-layout>
					<system-margins>
						<left-margin>75</left-margin>
						<right-margin>0</right-margin>
					</system-margins>
					<top-system-distance>180</top-system-distance>
				</system-layout>
				<staff-layout number="1">
					<staff-distance>38</staff-distance>
				</staff-layout>
			</print>
			<attributes>
				<divisions>40</divisions>
				<key>
					<fifths>0</fifths>
				</key>
				<time>
					<beats>6</beats>
					<beat-type>8</beat-type>
				</time>
				<clef>
					<sign>F</sign>
					<line>4</line>
				</clef>
				<staff-details number="1" print-object="yes">
					<staff-size>59</staff-size>
				</staff-details>
			</attributes>
			<attributes></attributes>
			<note>
				<pitch>
					<step>F</step>
					<octave>3</octave>
				</pitch>
				<duration>80</duration>
				<voice>1</voice>
				<type>half</type>
				<stem>down</stem>
			</note>
			<forward>
				<duration>40</duration>
			</forward>
		</measure><!--
===========================================================
-->

		<measure number="2" width="182">
			<print new-system="no"></print>
			<attributes></attributes>
			<note>
				<pitch>
					<step>C</step>
					<octave>3</octave>
				</pitch>
				<duration>60</duration>
				<voice>1</voice>
				<type>quarter</type>
				<dot/>
				<stem>up</stem>
				<notations>
					<slur type="start" number="1"></slur>
				</notations>
			</note>
			<note>
				<pitch>
					<step>C</step>
					<octave>3</octave>
				</pitch>
				<duration>40</duration>
				<voice>1</voice>
				<type>quarter</type>
				<stem>up</stem>
				<notations>
					<slur type="stop" number="1"></slur>
				</notations>
			</note>
			<note>
				<pitch>
					<step>G</step>
					<octave>3</octave>
				</pitch>
				<duration>20</duration>
				<voice>1</voice>
				<type>eighth</type>
				<stem>down</stem>
			</note>
		</measure><!--
===========================================================
-->

		<measure number="3" width="254">
			<print new-system="no"></print>
			<attributes></attributes>
			<note>
				<pitch>
					<step>G</step>
					<octave>3</octave>
				</pitch>
				<duration>80</duration>
				<voice>1</voice>
				<type>half</type>
				<stem>down</stem>
			</note>
			<note>
				<pitch>
					<step>E</step>
					<octave>3</octave>
				</pitch>
				<duration>40</duration>
				<voice>1</voice>
				<type>quarter</type>
				<stem>down</stem>
			</note>
		</measure><!--
===========================================================
-->

		<measure number="4" width="206">
			<print new-system="no"></print>
			<attributes></attributes>
			<note>
				<pitch>
					<step>D</step>
					<octave>3</octave>
				</pitch>
				<duration>40</duration>
				<voice>1</voice>
				<type>quarter</type>
				<stem>down</stem>
			</note>
			<note>
				<pitch>
					<step>F</step>
					<octave>3</octave>
				</pitch>
				<duration>20</duration>
				<voice>1</voice>
				<type>eighth</type>
				<stem>down</stem>
			</note>
			<note>
				<pitch>
					<step>E</step>
					<octave>3</octave>
				</pitch>
				<duration>20</duration>
				<voice>1</voice>
				<type>eighth</type>
				<stem>down</stem>
			</note>
			<note>
				<pitch>
					<step>D</step>
					<octave>3</octave>
				</pitch>
				<duration>40</duration>
				<voice>1</voice>
				<type>quarter</type>
				<stem>down</stem>
			</note>
		</measure><!--
===========================================================
-->

		<measure number="5" width="212">
			<print new-system="yes">
				<system-layout>
					<system-margins>
						<left-margin>3</left-margin>
						<right-margin>1</right-margin>
					</system-margins>
					<system-distance>70</system-distance>
				</system-layout>
				<staff-layout number="1">
					<staff-distance>37</staff-distance>
				</staff-layout>
			</print>
			<attributes></attributes>
			<note>
				<pitch>
					<step>C</step>
					<octave>3</octave>
				</pitch>
				<duration>60</duration>
				<voice>1</voice>
				<type>quarter</type>
				<dot/>
				<stem>up</stem>
			</note>
			<note>
				<pitch>
					<step>G</step>
					<octave>3</octave>
				</pitch>
				<duration>60</duration>
				<voice>1</voice>
				<type>quarter</type>
				<dot/>
				<stem>down</stem>
			</note>
		</measure><!--
===========================================================
-->

		<measure number="6" width="157">
			<print new-system="no"></print>
			<attributes></attributes>
			<note>
				<pitch>
					<step>D</step>
					<octave>3</octave>
				</pitch>
				<duration>60</duration>
				<voice>1</voice>
				<type>quarter</type>
				<dot/>
				<stem>down</stem>
			</note>
			<note>
				<pitch>
					<step>A</step>
					<octave>3</octave>
				</pitch>
				<duration>60</duration>
				<voice>1</voice>
				<type>quarter</type>
				<dot/>
				<stem>down</stem>
			</note>
		</measure><!--
===========================================================
-->

		<measure number="7" width="190">
			<print new-system="no"></print>
			<attributes></attributes>
			<note>
				<pitch>
					<step>G</step>
					<octave>3</octave>
				</pitch>
				<duration>60</duration>
				<voice>1</voice>
				<type>quarter</type>
				<dot/>
				<stem>down</stem>
				<notations>
					<slur type="start" number="1"></slur>
				</notations>
			</note>
			<note>
				<pitch>
					<step>F</step>
					<octave>3</octave>
				</pitch>
				<duration>60</duration>
				<voice>1</voice>
				<type>quarter</type>
				<dot/>
				<stem>down</stem>
				<notations></notations>
			</note>
		</measure><!--
===========================================================
-->

		<measure number="8" width="85">
			<print new-system="no"></print>
			<attributes></attributes>
			<note>
				<pitch>
					<step>E</step>
					<octave>3</octave>
				</pitch>
				<duration>120</duration>
				<voice>1</voice>
				<type>half</type>
				<dot/>
				<stem>down</stem>
				<notations>
					<slur type="stop" number="1"></slur>
					<fermata type="upright"/>
				</notations>
			</note>
		</measure><!--
===========================================================
-->

		<measure number="9" width="165">
			<print new-system="no"></print>
			<attributes></attributes>
			<note>
				<pitch>
					<step>D</step>
					<octave>3</octave>
				</pitch>
				<duration>80</duration>
				<voice>1</voice>
				<type>half</type>
				<stem>down</stem>
			</note>
			<note>
				<pitch>
					<step>F</step>
					<octave>3</octave>
				</pitch>
				<duration>40</duration>
				<voice>1</voice>
				<type>quarter</type>
				<stem>down</stem>
			</note>
		</measure><!--
===========================================================
-->

		<measure number="10" width="150">
			<print new-system="no"></print>
			<attributes></attributes>
			<note>
				<pitch>
					<step>C</step>
					<octave>3</octave>
				</pitch>
				<duration>40</duration>
				<voice>1</voice>
				<type>quarter</type>
				<stem>up</stem>
			</note>
			<note>
				<pitch>
					<step>E</step>
					<octave>3</octave>
				</pitch>
				<duration>20</duration>
				<voice>1</voice>
				<type>eighth</type>
				<stem>down</stem>
			</note>
			<note>
				<pitch>
					<step>E</step>
					<octave>3</octave>
				</pitch>
				<duration>20</duration>
				<voice>1</voice>
				<type>eighth</type>
				<stem>down</stem>
			</note>
			<note>
				<pitch>
					<step>G</step>
					<octave>3</octave>
				</pitch>
				<duration>40</duration>
				<voice>1</voice>
				<type>quarter</type>
				<stem>down</stem>
			</note>
		</measure><!--
===========================================================
-->

		<measure number="11" width="237">
			<print new-system="yes">
				<system-layout>
					<system-margins>
						<left-margin>2</left-margin>
						<right-margin>3</right-margin>
					</system-margins>
					<system-distance>73</system-distance>
				</system-layout>
				<staff-layout number="1">
					<staff-distance>34</staff-distance>
				</staff-layout>
			</print>
			<attributes></attributes>
			<note>
				<pitch>
					<step>F</step>
					<octave>3</octave>
				</pitch>
				<duration>60</duration>
				<voice>1</voice>
				<type>quarter</type>
				<dot/>
				<stem>down</stem>
			</note>
			<note>
				<rest/>
				<duration>40</duration>
				<voice>1</voice>
				<type>quarter</type>
			</note>
			<note>
				<pitch>
					<step>D</step>
					<octave>3</octave>
				</pitch>
				<duration>20</duration>
				<voice>1</voice>
				<type>eighth</type>
				<stem>down</stem>
			</note>
		</measure><!--
===========================================================
-->

		<measure number="12" width="147">
			<print new-system="no"></print>
			<attributes></attributes>
			<note>
				<pitch>
					<step>C</step>
					<octave>3</octave>
				</pitch>
				<duration>40</duration>
				<voice>1</voice>
				<type>quarter</type>
				<stem>up</stem>
			</note>
			<note>
				<pitch>
					<step>E</step>
					<octave>3</octave>
				</pitch>
				<duration>20</duration>
				<voice>1</voice>
				<type>eighth</type>
				<stem>down</stem>
			</note>
			<note>
				<pitch>
					<step>D</step>
					<octave>3</octave>
				</pitch>
				<duration>60</duration>
				<voice>1</voice>
				<type>quarter</type>
				<dot/>
				<stem>down</stem>
			</note>
		</measure><!--
===========================================================
-->

		<measure number="13" width="185">
			<print new-system="no"></print>
			<attributes></attributes>
			<note>
				<pitch>
					<step>B</step>
					<octave>2</octave>
				</pitch>
				<duration>40</duration>
				<voice>1</voice>
				<type>quarter</type>
				<stem>up</stem>
			</note>
			<note>
				<pitch>
					<step>F</step>
					<octave>3</octave>
				</pitch>
				<duration>20</duration>
				<voice>1</voice>
				<type>eighth</type>
				<stem>down</stem>
				<notations></notations>
			</note>
			<note>
				<pitch>
					<step>D</step>
					<octave>3</octave>
				</pitch>
				<duration>60</duration>
				<voice>1</voice>
				<type>quarter</type>
				<dot/>
				<stem>down</stem>
			</note>
		</measure><!--
===========================================================
-->

		<measure number="14" width="92">
			<print new-system="no"></print>
			<attributes></attributes>
			<note>
				<pitch>
					<step>F</step>
					<octave>3</octave>
				</pitch>
				<duration>60</duration>
				<voice>1</voice>
				<type>quarter</type>
				<dot/>
				<stem>down</stem>
			</note>
			<note>
				<pitch>
					<step>A</step>
					<octave>3</octave>
				</pitch>
				<duration>60</duration>
				<voice>1</voice>
				<type>quarter</type>
				<dot/>
				<stem>down</stem>
			</note>
		</measure><!--
===========================================================
-->

		<measure number="15" width="148">
			<print new-system="no"></print>
			<attributes></attributes>
			<direction placement="above">
				<direction-type>
					<coda/>
				</direction-type>
			</direction>
			<note>
				<pitch>
					<step>G</step>
					<octave>3</octave>
				</pitch>
				<duration>40</duration>
				<voice>1</voice>
				<type>quarter</type>
				<stem>down</stem>
			</note>
			<note>
				<pitch>
					<step>E</step>
					<octave>3</octave>
				</pitch>
				<duration>80</duration>
				<voice>1</voice>
				<type>half</type>
				<stem>down</stem>
			</note>
		</measure><!--
===========================================================
-->

		<measure number="16" width="149">
			<print new-system="no"></print>
			<attributes></attributes>
			<note>
				<pitch>
					<step>D</step>
					<octave>3</octave>
				</pitch>
				<duration>120</duration>
				<voice>1</voice>
				<type>half</type>
				<dot/>
				<stem>down</stem>
				<notations></notations>
			</note>
		</measure><!--
===========================================================
-->

		<measure number="17" width="243">
			<print new-system="yes">
				<system-layout>
					<system-margins>
						<left-margin>0</left-margin>
						<right-margin>3</right-margin>
					</system-margins>
					<system-distance>71</system-distance>
				</system-layout>
				<staff-layout number="1">
					<staff-distance>38</staff-distance>
				</staff-layout>
			</print>
			<attributes></attributes>
			<note>
				<pitch>
					<step>F</step>
					<octave>3</octave>
				</pitch>
				<duration>120</duration>
				<voice>1</voice>
				<type>half</type>
				<dot/>
				<stem>down</stem>
			</note>
		</measure><!--
===========================================================
-->

		<measure number="18" width="115">
			<print new-system="no"></print>
			<attributes></attributes>
			<note>
				<pitch>
					<step>C</step>
					<octave>3</octave>
				</pitch>
				<duration>120</duration>
				<voice>1</voice>
				<type>half</type>
				<dot/>
				<stem>up</stem>
			</note>
		</measure><!--
===========================================================
-->

		<measure number="19" width="181">
			<print new-system="no"></print>
			<attributes></attributes>
			<note>
				<pitch>
					<step>G</step>
					<octave>3</octave>
				</pitch>
				<duration>120</duration>
				<voice>1</voice>
				<type>half</type>
				<dot/>
				<stem>down</stem>
			</note>
		</measure><!--
===========================================================
-->

		<measure number="20" width="116">
			<print new-system="no"></print>
			<attributes></attributes>
			<note>
				<pitch>
					<step>D</step>
					<octave>3</octave>
				</pitch>
				<duration>120</duration>
				<voice>1</voice>
				<type>half</type>
				<dot/>
				<stem>down</stem>
			</note>
		</measure><!--
===========================================================
-->

		<measure number="21" width="219">
			<print new-system="no"></print>
			<attributes></attributes>
			<note>
				<pitch>
					<step>G</step>
					<octave>3</octave>
				</pitch>
				<duration>40</duration>
				<voice>1</voice>
				<type>quarter</type>
				<stem>down</stem>
			</note>
			<note>
				<pitch>
					<step>F</step>
					<octave>3</octave>
				</pitch>
				<duration>20</duration>
				<voice>1</voice>
				<type>eighth</type>
				<stem>down</stem>
			</note>
			<note>
				<pitch>
					<step>E</step>
					<octave>3</octave>
				</pitch>
				<duration>20</duration>
				<voice>1</voice>
				<type>eighth</type>
				<stem>down</stem>
			</note>
			<note>
				<pitch>
					<step>D</step>
					<octave>3</octave>
				</pitch>
				<duration>40</duration>
				<voice>1</voice>
				<type>quarter</type>
				<stem>down</stem>
			</note>
		</measure><!--
===========================================================
-->

		<measure number="22" width="86">
			<print new-system="no"></print>
			<attributes></attributes>
			<note>
				<pitch>
					<step>C</step>
					<octave>3</octave>
				</pitch>
				<duration>160</duration>
				<voice>1</voice>
				<type>whole</type>
				<stem>none</stem>
			</note>
			<backup>
				<duration>40</duration>
			</backup>
		</measure>
	</part>
</score-partwise>