<?xml version="1.0" encoding="UTF-8" standalone="no"?>
<!DOCTYPE score-partwise PUBLIC "-//Recordare//DTD MusicXML 1.1 Partwise//EN" "http://www.musicxml.org/dtds/partwise.dtd">

<score-partwise version="2.0">
	<movement-title></movement-title>
	<identification>
		<creator type="composer"></creator>
		<encoding>
			<software>SmartScore X2 Pro</software>
			<encoding-date>2016-05-17</encoding-date>
			<supports attribute="new-system" element="print" type="yes" value="yes"/>
			<supports attribute="new-page" element="print" type="yes" value="yes"/>
		</encoding>
	</identification>
	<defaults>
		<scaling>
			<millimeters>6.00</millimeters>
			<tenths>40</tenths>
		</scaling>
	</defaults>
	<part-list>
		<score-part id="P1">
			<part-name>Flute</part-name>
			<part-abbreviation>Flu</part-abbreviation>
			<score-instrument id="P1-S0V0">
				<instrument-name>Flute</instrument-name>
			</score-instrument>
			<score-instrument id="P1-S0V1">
				<instrument-name>Flute</instrument-name>
			</score-instrument>
			<midi-instrument id="P1-S0V0">
				<midi-channel>1</midi-channel>
				<midi-program>74</midi-program>
				<volume>78</volume>
				<pan>0</pan>
			</midi-instrument>
			<midi-instrument id="P1-S0V1">
				<midi-channel>2</midi-channel>
				<midi-program>74</midi-program>
				<volume>78</volume>
				<pan>0</pan>
			</midi-instrument>
		</score-part>
		<score-part id="P2">
			<part-name>Nylon Guitar</part-name>
			<part-abbreviation>GuitNyl</part-abbreviation>
			<score-instrument id="P2-S0V0">
				<instrument-name>Nylon String Guit.</instrument-name>
			</score-instrument>
			<midi-instrument id="P2-S0V0">
				<midi-channel>3</midi-channel>
				<midi-program>25</midi-program>
				<volume>78</volume>
				<pan>0</pan>
			</midi-instrument>
		</score-part>
		<score-part id="P3">
			<part-name>Trombone</part-name>
			<part-abbreviation>Trbn</part-abbreviation>
			<score-instrument id="P3-S0V0">
				<instrument-name>Trombone</instrument-name>
			</score-instrument>
			<midi-instrument id="P3-S0V0">
				<midi-channel>4</midi-channel>
				<midi-program>58</midi-program>
				<volume>78</volume>
				<pan>0</pan>
			</midi-instrument>
		</score-part>
	</part-list><!--
===========================================================
-->

	<part id="P1">
		<measure number="1" width="291">
			<print>
				<page-layout>
					<page-height>1881.48</page-height>
					<page-width>1453.87</page-width>
					<page-margins>
						<left-margin>167.19</left-margin>
						<right-margin>321.56</right-margin>
						<top-margin>127.00</top-margin>
						<bottom-margin>63.50</bottom-margin>
					</page-margins>
				</page-layout>
				<system-layout>
					<system-margins>
						<left-margin>71</left-margin>
						<right-margin>0</right-margin>
					</system-margins>
					<top-system-distance>737</top-system-distance>
				</system-layout>
			</print>
			<attributes>
				<divisions>240</divisions>
				<key>
					<fifths>0</fifths>
				</key>
				<time>
					<beats>6</beats>
					<beat-type>8</beat-type>
				</time>
				<clef>
					<sign>G</sign>
					<line>2</line>
				</clef>
				<staff-details number="1" print-object="yes">
					<staff-size>59</staff-size>
				</staff-details>
			</attributes>
			<attributes></attributes>
			<direction placement="above">
				<direction-type>
					<dynamics>
						<f/>
					</dynamics>
				</direction-type>
				<staff>1</staff>
				<sound dynamics="100"/>
			</direction>
			<note>
				<rest/>
				<duration>360</duration>
				<voice>1</voice>
				<type>quarter</type>
				<dot/>
				<lyric number="1">
					<syllabic>single</syllabic>
					<text>1_4.7</text>
				</lyric>
			</note>
			<backup>
				<duration>360</duration>
			</backup>
			<note>
				<pitch>
					<step>D</step>
					<octave>5</octave>
				</pitch>
				<duration>960</duration>
				<instrument id="P1-S0V1"/>
				<voice>2</voice>
				<type>whole</type>
				<stem>none</stem>
			</note>
			<backup>
				<duration>600</duration>
			</backup>
			<direction placement="above">
				<direction-type>
					<words relative-x="-132.1714" default-y="25.1526" font-family="Times New Roman" font-style="normal" font-size="12" font-weight="normal" color="#000000">15z</words>
				</direction-type>
				<staff>1</staff>
			</direction>
			<note>
				<rest/>
				<duration>240</duration>
				<voice>1</voice>
				<type>quarter</type>
				<lyric number="2">
					<syllabic>single</syllabic>
					<text>3.</text>
				</lyric>
				<lyric number="3">
					<syllabic>single</syllabic>
					<text>5.</text>
				</lyric>
			</note>
			<direction placement="above">
				<direction-type>
					<words relative-x="-164.8664" default-y="25.9821" font-family="Times New Roman" font-style="normal" font-size="12" font-weight="normal" color="#000000">v(R 30.)</words>
				</direction-type>
				<staff>1</staff>
			</direction>
			<note>
				<pitch>
					<step>C</step>
					<octave>5</octave>
				</pitch>
				<duration>120</duration>
				<instrument id="P1-S0V0"/>
				<voice>1</voice>
				<type>eighth</type>
				<stem>down</stem>
				<lyric number="1">
					<syllabic>single</syllabic>
					<text>unt</text>
				</lyric>
				<lyric number="2">
					<syllabic>single</syllabic>
					<text>Sa</text>
				</lyric>
				<lyric number="3">
					<syllabic>single</syllabic>
					<text>ui</text>
				</lyric>
			</note>
			<note>
				<pitch>
					<step>C</step>
					<octave>5</octave>
				</pitch>
				<duration>120</duration>
				<instrument id="P1-S0V0"/>
				<voice>1</voice>
				<type>eighth</type>
				<stem>down</stem>
				<lyric number="1">
					<syllabic>single</syllabic>
					<text>Dieu</text>
				</lyric>
				<lyric number="2">
					<syllabic>single</syllabic>
					<text>do</text>
				</lyric>
				<lyric number="3">
					<syllabic>single</syllabic>
					<text>tout</text>
				</lyric>
			</note>
			<note>
				<pitch>
					<step>A</step>
					<octave>4</octave>
				</pitch>
				<duration>120</duration>
				<instrument id="P1-S0V0"/>
				<voice>1</voice>
				<type>eighth</type>
				<stem>up</stem>
				<beam number="1">begin</beam>
				<lyric number="1">
					<syllabic>begin</syllabic>
					<text>v</text>
				</lyric>
				<lyric number="2">
					<syllabic>begin</syllabic>
					<text>cea</text>
				</lyric>
				<lyric number="3">
					<syllabic>single</syllabic>
					<text>le</text>
				</lyric>
			</note>
			<note>
				<pitch>
					<step>B</step>
					<octave>4</octave>
				</pitch>
				<duration>60</duration>
				<instrument id="P1-S0V0"/>
				<voice>1</voice>
				<type>16th</type>
				<stem>up</stem>
				<beam number="1">continue</beam>
				<beam number="2">begin</beam>
			</note>
			<note>
				<pitch>
					<step>G</step>
					<octave>4</octave>
				</pitch>
				<duration>60</duration>
				<instrument id="P1-S0V0"/>
				<voice>1</voice>
				<type>16th</type>
				<stem>up</stem>
				<beam number="1">end</beam>
				<beam number="2">end</beam>
			</note>
			<backup>
				<duration>360</duration>
			</backup>
		</measure><!--
===========================================================
-->

		<measure number="2" width="162">
			<print new-system="no"></print>
			<attributes></attributes>
			<note>
				<pitch>
					<step>F</step>
					<octave>4</octave>
				</pitch>
				<duration>360</duration>
				<instrument id="P1-S0V0"/>
				<voice>1</voice>
				<type>quarter</type>
				<dot/>
				<stem>up</stem>
				<lyric number="1">
					<syllabic>end</syllabic>
					<text>r</text>
				</lyric>
				<lyric number="2">
					<syllabic>end</syllabic>
					<text>mour</text>
				</lyric>
				<lyric number="3">
					<syllabic>single</syllabic>
					<text>jonr</text>
				</lyric>
			</note>
			<note>
				<rest/>
				<duration>240</duration>
				<voice>1</voice>
				<type>quarter</type>
			</note>
			<note>
				<pitch>
					<step>G</step>
					<octave>4</octave>
				</pitch>
				<duration>120</duration>
				<instrument id="P1-S0V0"/>
				<voice>1</voice>
				<type>eighth</type>
				<stem>up</stem>
				<lyric number="1">
					<syllabic>single</syllabic>
					<text>de</text>
				</lyric>
				<lyric number="2">
					<syllabic>single</syllabic>
					<text>hum-ble_ment</text>
				</lyric>
				<lyric number="3">
					<syllabic>begin</syllabic>
					<text>main</text>
				</lyric>
			</note>
		</measure><!--
===========================================================
-->

		<measure number="3" width="249">
			<print new-system="no"></print>
			<attributes></attributes>
			<direction placement="above">
				<direction-type>
					<coda/>
				</direction-type>
			</direction>
			<note>
				<pitch>
					<step>A</step>
					<octave>4</octave>
				</pitch>
				<duration>60</duration>
				<instrument id="P1-S0V0"/>
				<voice>1</voice>
				<type>16th</type>
				<stem>up</stem>
				<beam number="1">begin</beam>
				<beam number="2">begin</beam>
				<lyric number="1">
					<syllabic>single</syllabic>
					<text>llui</text>
				</lyric>
				<lyric number="3">
					<syllabic>end</syllabic>
					<text>_te</text>
				</lyric>
			</note>
			<note>
				<pitch>
					<step>B</step>
					<octave>4</octave>
				</pitch>
				<duration>60</duration>
				<instrument id="P1-S0V0"/>
				<voice>1</voice>
				<type>16th</type>
				<stem>up</stem>
				<beam number="1">end</beam>
				<beam number="2">end</beam>
			</note>
			<note>
				<pitch>
					<step>C</step>
					<octave>5</octave>
				</pitch>
				<duration>120</duration>
				<instrument id="P1-S0V0"/>
				<voice>1</voice>
				<type>eighth</type>
				<stem>down</stem>
				<beam number="1">begin</beam>
				<lyric number="1">
					<syllabic>single</syllabic>
					<text>vient</text>
				</lyric>
				<lyric number="3">
					<syllabic>single</syllabic>
					<text>grant</text>
				</lyric>
			</note>
			<note>
				<pitch>
					<step>D</step>
					<octave>5</octave>
				</pitch>
				<duration>120</duration>
				<instrument id="P1-S0V0"/>
				<voice>1</voice>
				<type>eighth</type>
				<stem>down</stem>
				<beam number="1">end</beam>
			</note>
			<note>
				<pitch>
					<step>C</step>
					<octave>5</octave>
				</pitch>
				<duration>180</duration>
				<instrument id="P1-S0V0"/>
				<voice>1</voice>
				<type>eighth</type>
				<dot/>
				<stem>down</stem>
				<beam number="1">begin</beam>
				<lyric number="1">
					<syllabic>begin</syllabic>
					<text>tou</text>
				</lyric>
				<lyric number="2">
					<syllabic>single</syllabic>
					<text>je</text>
				</lyric>
				<lyric number="3">
					<syllabic>begin</syllabic>
					<text>do</text>
				</lyric>
			</note>
			<note>
				<pitch>
					<step>B</step>
					<octave>4</octave>
				</pitch>
				<duration>60</duration>
				<instrument id="P1-S0V0"/>
				<voice>1</voice>
				<type>16th</type>
				<stem>down</stem>
				<beam number="1">end</beam>
				<beam number="2">backward hook</beam>
			</note>
			<note>
				<pitch>
					<step>B</step>
					<octave>4</octave>
				</pitch>
				<duration>60</duration>
				<instrument id="P1-S0V0"/>
				<voice>1</voice>
				<type>16th</type>
				<stem>up</stem>
				<beam number="1">begin</beam>
				<beam number="2">begin</beam>
				<lyric number="1">
					<syllabic>end</syllabic>
					<text>te</text>
				</lyric>
				<lyric number="3">
					<syllabic>end</syllabic>
					<text>leur</text>
				</lyric>
			</note>
			<note>
				<pitch>
					<step>A</step>
					<octave>4</octave>
				</pitch>
				<duration>60</duration>
				<instrument id="P1-S0V0"/>
				<voice>1</voice>
				<type>16th</type>
				<stem>up</stem>
				<beam number="1">end</beam>
				<beam number="2">end</beam>
				<lyric number="2">
					<syllabic>single</syllabic>
					<text>pour-</text>
				</lyric>
				<lyric number="4">
					<syllabic>single</syllabic>
					<text>l</text>
				</lyric>
			</note>
		</measure><!--
===========================================================
-->

		<measure number="4" width="190">
			<print new-system="no"></print>
			<attributes></attributes>
			<note>
				<pitch>
					<step>C</step>
					<octave>5</octave>
				</pitch>
				<duration>240</duration>
				<instrument id="P1-S0V0"/>
				<voice>1</voice>
				<type>quarter</type>
				<stem>down</stem>
				<lyric number="1">
					<syllabic>begin</syllabic>
					<text>gra</text>
				</lyric>
				<lyric number="2">
					<syllabic>begin</syllabic>
					<text>chas</text>
				</lyric>
				<lyric number="3">
					<syllabic>begin</syllabic>
					<text>pas</text>
				</lyric>
			</note>
			<note>
				<pitch>
					<step>C</step>
					<octave>5</octave>
				</pitch>
				<duration>120</duration>
				<instrument id="P1-S0V0"/>
				<voice>1</voice>
				<type>eighth</type>
				<stem>down</stem>
			</note>
			<note>
				<pitch>
					<step>D</step>
					<octave>5</octave>
				</pitch>
				<duration>120</duration>
				<instrument id="P1-S0V0"/>
				<voice>1</voice>
				<type>eighth</type>
				<stem>down</stem>
				<beam number="1">begin</beam>
			</note>
			<note>
				<pitch>
					<step>C</step>
					<octave>5</octave>
				</pitch>
				<duration>120</duration>
				<instrument id="P1-S0V0"/>
				<voice>1</voice>
				<type>eighth</type>
				<stem>down</stem>
				<beam number="1">continue</beam>
			</note>
			<note>
				<pitch>
					<step>B</step>
					<octave>4</octave>
				</pitch>
				<duration>60</duration>
				<instrument id="P1-S0V0"/>
				<voice>1</voice>
				<type>16th</type>
				<stem>down</stem>
				<beam number="1">continue</beam>
				<beam number="2">begin</beam>
			</note>
			<note>
				<pitch>
					<step>A</step>
					<octave>4</octave>
				</pitch>
				<duration>60</duration>
				<instrument id="P1-S0V0"/>
				<voice>1</voice>
				<type>16th</type>
				<stem>down</stem>
				<beam number="1">end</beam>
				<beam number="2">end</beam>
			</note>
		</measure><!--
===========================================================
-->

		<measure number="5" width="236">
			<print new-system="yes">
				<system-layout>
					<system-margins>
						<left-margin>0</left-margin>
						<right-margin>1</right-margin>
					</system-margins>
					<system-distance>75</system-distance>
				</system-layout>
			</print>
			<attributes></attributes>
			<note>
				<pitch>
					<step>A</step>
					<octave>4</octave>
				</pitch>
				<duration>180</duration>
				<instrument id="P1-S0V0"/>
				<voice>1</voice>
				<type>eighth</type>
				<dot/>
				<stem>up</stem>
				<beam number="1">begin</beam>
				<lyric number="2">
					<syllabic>middle</syllabic>
					<text>-</text>
				</lyric>
			</note>
			<note>
				<pitch>
					<step>G</step>
					<octave>4</octave>
				</pitch>
				<duration>60</duration>
				<instrument id="P1-S0V0"/>
				<voice>1</voice>
				<type>16th</type>
				<stem>up</stem>
				<beam number="1">continue</beam>
				<beam number="2">begin</beam>
			</note>
			<note>
				<pitch>
					<step>F</step>
					<octave>4</octave>
				</pitch>
				<duration>60</duration>
				<instrument id="P1-S0V0"/>
				<voice>1</voice>
				<type>16th</type>
				<stem>up</stem>
				<beam number="1">continue</beam>
				<beam number="2">continue</beam>
			</note>
			<note>
				<pitch>
					<step>G</step>
					<octave>4</octave>
				</pitch>
				<duration>60</duration>
				<instrument id="P1-S0V0"/>
				<voice>1</voice>
				<type>16th</type>
				<stem>up</stem>
				<beam number="1">end</beam>
				<beam number="2">end</beam>
			</note>
			<note>
				<pitch>
					<step>F</step>
					<octave>4</octave>
				</pitch>
				<duration>120</duration>
				<instrument id="P1-S0V0"/>
				<voice>1</voice>
				<type>eighth</type>
				<stem>up</stem>
				<beam number="1">begin</beam>
			</note>
			<direction placement="above">
				<direction-type>
					<words relative-x="-11.4174" default-y="67.2333" font-family="Times New Roman" font-style="normal" font-size="10" font-weight="normal" color="#000000"> retlor</words>
				</direction-type>
				<staff>1</staff>
			</direction>
			<note>
				<pitch>
					<step>E</step>
					<octave>4</octave>
				</pitch>
				<duration>120</duration>
				<instrument id="P1-S0V0"/>
				<voice>1</voice>
				<type>eighth</type>
				<stem>up</stem>
				<beam number="1">continue</beam>
			</note>
			<note>
				<pitch>
					<step>D</step>
					<octave>4</octave>
				</pitch>
				<duration>120</duration>
				<instrument id="P1-S0V0"/>
				<voice>1</voice>
				<type>eighth</type>
				<stem>up</stem>
				<beam number="1">end</beam>
				<lyric number="1">
					<syllabic>end</syllabic>
					<text>-</text>
				</lyric>
				<lyric number="2">
					<syllabic>end</syllabic>
					<text>-</text>
				</lyric>
				<lyric number="3">
					<syllabic>end</syllabic>
					<text>-</text>
				</lyric>
			</note>
		</measure><!--
===========================================================
-->

		<measure number="6" width="138">
			<print new-system="no"></print>
			<attributes></attributes>
			<note>
				<pitch>
					<step>F</step>
					<octave>4</octave>
				</pitch>
				<duration>360</duration>
				<instrument id="P1-S0V0"/>
				<voice>1</voice>
				<type>quarter</type>
				<dot/>
				<stem>up</stem>
				<lyric number="1">
					<syllabic>single</syllabic>
					<text>ce,</text>
				</lyric>
				<lyric number="2">
					<syllabic>single</syllabic>
					<text>se</text>
				</lyric>
				<lyric number="3">
					<syllabic>single</syllabic>
					<text>se</text>
				</lyric>
			</note>
			<note>
				<rest/>
				<duration>240</duration>
				<voice>1</voice>
				<type>quarter</type>
			</note>
			<note>
				<pitch>
					<step>A</step>
					<octave>4</octave>
				</pitch>
				<duration>120</duration>
				<instrument id="P1-S0V0"/>
				<voice>1</voice>
				<type>eighth</type>
				<stem>up</stem>
				<lyric number="1">
					<syllabic>single</syllabic>
					<text>Mon</text>
				</lyric>
				<lyric number="2">
					<syllabic>single</syllabic>
					<text>Si</text>
				</lyric>
				<lyric number="3">
					<syllabic>single</syllabic>
					<text>Et</text>
				</lyric>
			</note>
		</measure><!--
===========================================================
-->

		<measure number="7" width="192">
			<print new-system="no"></print>
			<attributes></attributes>
			<note>
				<pitch>
					<step>A</step>
					<octave>4</octave>
				</pitch>
				<duration>120</duration>
				<instrument id="P1-S0V0"/>
				<voice>1</voice>
				<type>eighth</type>
				<stem>up</stem>
				<lyric number="1">
					<syllabic>single</syllabic>
					<text>po_vre</text>
				</lyric>
				<lyric number="2">
					<syllabic>single</syllabic>
					<text>di</text>
				</lyric>
				<lyric number="3">
					<syllabic>begin</syllabic>
					<text>pa-ce</text>
				</lyric>
			</note>
			<note>
				<pitch>
					<step>C</step>
					<octave>5</octave>
				</pitch>
				<duration>240</duration>
				<instrument id="P1-S0V0"/>
				<voice>1</voice>
				<type>quarter</type>
				<stem>down</stem>
				<lyric number="2">
					<syllabic>single</syllabic>
					<text>de</text>
				</lyric>
			</note>
			<note>
				<pitch>
					<step>B</step>
					<octave>4</octave>
				</pitch>
				<duration>240</duration>
				<instrument id="P1-S0V0"/>
				<voice>1</voice>
				<type>quarter</type>
				<stem>down</stem>
				<lyric number="1">
					<syllabic>single</syllabic>
					<text>cner</text>
				</lyric>
				<lyric number="2">
					<syllabic>single</syllabic>
					<text>vrai</text>
				</lyric>
				<lyric number="3">
					<syllabic>end</syllabic>
					<text>ra,</text>
				</lyric>
			</note>
			<note>
				<pitch>
					<step>C</step>
					<octave>5</octave>
				</pitch>
				<duration>120</duration>
				<instrument id="P1-S0V0"/>
				<voice>1</voice>
				<type>eighth</type>
				<stem>down</stem>
				<lyric number="1">
					<syllabic>single</syllabic>
					<text>se</text>
				</lyric>
				<lyric number="2">
					<syllabic>single</syllabic>
					<text>sßns</text>
				</lyric>
				<lyric number="3">
					<syllabic>single</syllabic>
					<text>se</text>
				</lyric>
			</note>
		</measure><!--
===========================================================
-->

		<measure number="8" width="212">
			<print new-system="no"></print>
			<attributes></attributes>
			<note>
				<pitch>
					<step>D</step>
					<octave>5</octave>
				</pitch>
				<duration>240</duration>
				<instrument id="P1-S0V0"/>
				<voice>1</voice>
				<type>quarter</type>
				<stem>down</stem>
				<lyric number="1">
					<syllabic>begin</syllabic>
					<text>po</text>
				</lyric>
				<lyric number="2">
					<syllabic>single</syllabic>
					<text>de</text>
				</lyric>
			</note>
			<note>
				<pitch>
					<step>C</step>
					<octave>5</octave>
				</pitch>
				<duration>120</duration>
				<instrument id="P1-S0V0"/>
				<voice>1</voice>
				<type>eighth</type>
				<stem>down</stem>
				<lyric number="1">
					<syllabic>end</syllabic>
					<text>ra</text>
				</lyric>
				<lyric number="2">
					<syllabic>single</syllabic>
					<text>ce</text>
				</lyric>
				<lyric number="3">
					<syllabic>single</syllabic>
					<text>Dienpar</text>
				</lyric>
			</note>
			<note>
				<pitch>
					<step>C</step>
					<octave>5</octave>
				</pitch>
				<duration>180</duration>
				<instrument id="P1-S0V0"/>
				<voice>1</voice>
				<type>eighth</type>
				<dot/>
				<stem>down</stem>
				<beam number="1">begin</beam>
				<lyric number="1">
					<syllabic>begin</syllabic>
					<text>res</text>
				</lyric>
				<lyric number="2">
					<syllabic>single</syllabic>
					<text>peint</text>
				</lyric>
				<lyric number="3">
					<syllabic>single</syllabic>
					<text>son</text>
				</lyric>
			</note>
			<note>
				<pitch>
					<step>B</step>
					<octave>4</octave>
				</pitch>
				<duration>60</duration>
				<instrument id="P1-S0V0"/>
				<voice>1</voice>
				<type>16th</type>
				<stem>down</stem>
				<beam number="1">end</beam>
				<beam number="2">backward hook</beam>
			</note>
			<note>
				<pitch>
					<step>B</step>
					<octave>4</octave>
				</pitch>
				<duration>60</duration>
				<instrument id="P1-S0V0"/>
				<voice>1</voice>
				<type>16th</type>
				<stem>up</stem>
				<beam number="1">begin</beam>
				<beam number="2">begin</beam>
				<lyric number="1">
					<syllabic>middle</syllabic>
					<text>jo</text>
				</lyric>
				<lyric number="2">
					<syllabic>begin</syllabic>
					<text>fal</text>
				</lyric>
				<lyric number="3">
					<syllabic>begin</syllabic>
					<text>plai</text>
				</lyric>
			</note>
			<note>
				<pitch>
					<step>A</step>
					<octave>4</octave>
				</pitch>
				<duration>60</duration>
				<instrument id="P1-S0V0"/>
				<voice>1</voice>
				<type>16th</type>
				<stem>up</stem>
				<beam number="1">end</beam>
				<beam number="2">end</beam>
			</note>
		</measure><!--
===========================================================
-->

		<measure number="9" width="183">
			<print new-system="no"></print>
			<attributes></attributes>
			<note>
				<pitch>
					<step>C</step>
					<octave>5</octave>
				</pitch>
				<duration>360</duration>
				<instrument id="P1-S0V0"/>
				<voice>1</voice>
				<type>quarter</type>
				<dot/>
				<stem>down</stem>
				<lyric number="1">
					<syllabic>end</syllabic>
					<text>ir</text>
				</lyric>
				<lyric number="2">
					<syllabic>end</syllabic>
					<text>lir.</text>
				</lyric>
				<lyric number="3">
					<syllabic>end</syllabic>
					<text>sir,</text>
				</lyric>
			</note>
			<note>
				<pitch>
					<step>C</step>
					<octave>5</octave>
				</pitch>
				<duration>60</duration>
				<instrument id="P1-S0V0"/>
				<voice>1</voice>
				<type>16th</type>
				<stem>up</stem>
				<beam number="1">begin</beam>
				<beam number="2">begin</beam>
			</note>
			<note>
				<pitch>
					<step>A</step>
					<octave>4</octave>
				</pitch>
				<duration>60</duration>
				<instrument id="P1-S0V0"/>
				<voice>1</voice>
				<type>16th</type>
				<stem>up</stem>
				<beam number="1">continue</beam>
				<beam number="2">continue</beam>
			</note>
			<note>
				<pitch>
					<step>B</step>
					<octave>4</octave>
				</pitch>
				<duration>60</duration>
				<instrument id="P1-S0V0"/>
				<voice>1</voice>
				<type>16th</type>
				<stem>up</stem>
				<beam number="1">continue</beam>
				<beam number="2">continue</beam>
			</note>
			<note>
				<pitch>
					<step>C</step>
					<octave>5</octave>
				</pitch>
				<duration>60</duration>
				<instrument id="P1-S0V0"/>
				<voice>1</voice>
				<type>16th</type>
				<stem>up</stem>
				<beam number="1">continue</beam>
				<beam number="2">continue</beam>
			</note>
			<note>
				<pitch>
					<step>A</step>
					<octave>4</octave>
				</pitch>
				<duration>60</duration>
				<instrument id="P1-S0V0"/>
				<voice>1</voice>
				<type>16th</type>
				<stem>up</stem>
				<beam number="1">continue</beam>
				<beam number="2">continue</beam>
			</note>
			<note>
				<pitch>
					<step>B</step>
					<octave>4</octave>
				</pitch>
				<duration>60</duration>
				<instrument id="P1-S0V0"/>
				<voice>1</voice>
				<type>16th</type>
				<stem>up</stem>
				<beam number="1">end</beam>
				<beam number="2">end</beam>
			</note>
		</measure><!--
===========================================================
-->

		<measure number="10" width="249">
			<print new-system="yes">
				<system-layout>
					<system-margins>
						<left-margin>0</left-margin>
						<right-margin>2</right-margin>
					</system-margins>
					<system-distance>75</system-distance>
				</system-layout>
			</print>
			<attributes></attributes>
			<direction placement="above">
				<direction-type>
					<words relative-x="17.9851" default-y="25.3862" font-family="Times New Roman" font-style="normal" font-size="9" font-weight="normal" color="#000000">1 O</words>
				</direction-type>
				<staff>1</staff>
			</direction>
			<note>
				<pitch>
					<step>A</step>
					<octave>4</octave>
				</pitch>
				<duration>60</duration>
				<instrument id="P1-S0V0"/>
				<voice>1</voice>
				<type>16th</type>
				<stem>up</stem>
				<beam number="1">begin</beam>
				<beam number="2">begin</beam>
			</note>
			<note>
				<pitch>
					<step>G</step>
					<octave>4</octave>
				</pitch>
				<duration>60</duration>
				<instrument id="P1-S0V0"/>
				<voice>1</voice>
				<type>16th</type>
				<stem>up</stem>
				<beam number="1">continue</beam>
				<beam number="2">continue</beam>
			</note>
			<note>
				<pitch>
					<step>F</step>
					<octave>4</octave>
				</pitch>
				<duration>60</duration>
				<instrument id="P1-S0V0"/>
				<voice>1</voice>
				<type>16th</type>
				<stem>up</stem>
				<beam number="1">continue</beam>
				<beam number="2">continue</beam>
			</note>
			<note>
				<pitch>
					<step>E</step>
					<octave>4</octave>
				</pitch>
				<duration>60</duration>
				<instrument id="P1-S0V0"/>
				<voice>1</voice>
				<type>16th</type>
				<stem>up</stem>
				<beam number="1">continue</beam>
				<beam number="2">continue</beam>
			</note>
			<note>
				<pitch>
					<step>F</step>
					<octave>4</octave>
				</pitch>
				<duration>60</duration>
				<instrument id="P1-S0V0"/>
				<voice>1</voice>
				<type>16th</type>
				<stem>up</stem>
				<beam number="1">continue</beam>
				<beam number="2">continue</beam>
			</note>
			<note>
				<pitch>
					<step>G</step>
					<octave>4</octave>
				</pitch>
				<duration>60</duration>
				<instrument id="P1-S0V0"/>
				<voice>1</voice>
				<type>16th</type>
				<stem>up</stem>
				<beam number="1">end</beam>
				<beam number="2">end</beam>
			</note>
			<note>
				<pitch>
					<step>F</step>
					<octave>4</octave>
				</pitch>
				<duration>120</duration>
				<instrument id="P1-S0V0"/>
				<voice>1</voice>
				<type>eighth</type>
				<stem>up</stem>
			</note>
			<note>
				<pitch>
					<step>E</step>
					<octave>4</octave>
				</pitch>
				<duration>240</duration>
				<instrument id="P1-S0V0"/>
				<voice>1</voice>
				<type>quarter</type>
				<stem>up</stem>
			</note>
		</measure><!--
===========================================================
-->

		<measure number="11" width="184">
			<print new-system="no"></print>
			<attributes></attributes>
			<note>
				<pitch>
					<step>F</step>
					<octave>4</octave>
				</pitch>
				<duration>120</duration>
				<instrument id="P1-S0V0"/>
				<voice>1</voice>
				<type>eighth</type>
				<stem>up</stem>
				<lyric number="1">
					<syllabic>single</syllabic>
					<text>S.</text>
				</lyric>
			</note>
			<note>
				<pitch>
					<step>A</step>
					<octave>4</octave>
				</pitch>
				<duration>240</duration>
				<instrument id="P1-S0V0"/>
				<voice>1</voice>
				<type>quarter</type>
				<stem>up</stem>
			</note>
			<note>
				<pitch>
					<step>G</step>
					<octave>4</octave>
				</pitch>
				<duration>180</duration>
				<instrument id="P1-S0V0"/>
				<voice>1</voice>
				<type>eighth</type>
				<dot/>
				<stem>up</stem>
				<beam number="1">begin</beam>
			</note>
			<note>
				<pitch>
					<step>F</step>
					<octave>4</octave>
				</pitch>
				<duration>120</duration>
				<instrument id="P1-S0V0"/>
				<voice>1</voice>
				<type>eighth</type>
				<stem>up</stem>
				<beam number="1">continue</beam>
			</note>
			<note>
				<pitch>
					<step>E</step>
					<octave>4</octave>
				</pitch>
				<duration>60</duration>
				<instrument id="P1-S0V0"/>
				<voice>1</voice>
				<type>16th</type>
				<stem>up</stem>
				<beam number="1">end</beam>
				<beam number="2">backward hook</beam>
			</note>
		</measure><!--
===========================================================
-->

		<measure number="12" width="135">
			<print new-system="no"></print>
			<attributes></attributes>
			<note>
				<pitch>
					<step>G</step>
					<octave>4</octave>
				</pitch>
				<duration>360</duration>
				<instrument id="P1-S0V0"/>
				<voice>1</voice>
				<type>quarter</type>
				<dot/>
				<stem>up</stem>
				<notations>
					<fermata type="upright"/>
				</notations>
			</note>
			<note>
				<rest/>
				<duration>240</duration>
				<voice>1</voice>
				<type>quarter</type>
				<lyric number="1">
					<syllabic>single</syllabic>
					<text>_.S.</text>
				</lyric>
				<lyric number="2">
					<syllabic>single</syllabic>
					<text>6.</text>
				</lyric>
			</note>
			<note>
				<pitch>
					<step>C</step>
					<octave>5</octave>
				</pitch>
				<duration>120</duration>
				<instrument id="P1-S0V0"/>
				<voice>1</voice>
				<type>eighth</type>
				<stem>down</stem>
				<lyric number="1">
					<syllabic>single</syllabic>
					<text>t</text>
				</lyric>
				<lyric number="2">
					<syllabic>single</syllabic>
					<text>Ne</text>
				</lyric>
			</note>
		</measure><!--
===========================================================
-->

		<measure number="13" width="188">
			<print new-system="no"></print>
			<attributes></attributes>
			<note>
				<pitch>
					<step>A</step>
					<octave>4</octave>
				</pitch>
				<duration>120</duration>
				<instrument id="P1-S0V0"/>
				<voice>1</voice>
				<type>eighth</type>
				<stem>up</stem>
				<lyric number="1">
					<syllabic>single</syllabic>
					<text>du</text>
				</lyric>
				<lyric number="2">
					<syllabic>single</syllabic>
					<text>veut</text>
				</lyric>
			</note>
			<note>
				<pitch>
					<step>C</step>
					<octave>5</octave>
				</pitch>
				<duration>240</duration>
				<instrument id="P1-S0V0"/>
				<voice>1</voice>
				<type>quarter</type>
				<stem>down</stem>
				<lyric number="2">
					<syllabic>single</syllabic>
					<text>mon</text>
				</lyric>
			</note>
			<note>
				<pitch>
					<step>B</step>
					<octave>4</octave>
				</pitch>
				<duration>240</duration>
				<instrument id="P1-S0V0"/>
				<voice>1</voice>
				<type>quarter</type>
				<stem>down</stem>
				<lyric number="1">
					<syllabic>single</syllabic>
					<text>griefnlal</text>
				</lyric>
				<lyric number="2">
					<syllabic>single</syllabic>
					<text>mal</text>
				</lyric>
				<lyric number="3">
					<syllabic>single</syllabic>
					<text>_.</text>
				</lyric>
			</note>
			<note>
				<pitch>
					<step>A</step>
					<octave>4</octave>
				</pitch>
				<duration>120</duration>
				<instrument id="P1-S0V0"/>
				<voice>1</voice>
				<type>eighth</type>
				<stem>up</stem>
				<lyric number="1">
					<syllabic>single</syllabic>
					<text>tres</text>
				</lyric>
				<lyric number="2">
					<syllabic>single</syllabic>
					<text>fai-</text>
				</lyric>
			</note>
		</measure><!--
===========================================================
-->

		<measure number="14" width="204">
			<print new-system="no"></print>
			<attributes></attributes>
			<note>
				<pitch>
					<step>G</step>
					<octave>4</octave>
				</pitch>
				<duration>240</duration>
				<instrument id="P1-S0V0"/>
				<voice>1</voice>
				<type>quarter</type>
				<stem>up</stem>
				<lyric number="1">
					<syllabic>begin</syllabic>
					<text>ne</text>
				</lyric>
				<lyric number="2">
					<syllabic>single</syllabic>
					<text>re</text>
				</lyric>
			</note>
			<note>
				<pitch>
					<step>G</step>
					<octave>4</octave>
				</pitch>
				<duration>120</duration>
				<instrument id="P1-S0V0"/>
				<voice>1</voice>
				<type>eighth</type>
				<stem>up</stem>
				<lyric number="1">
					<syllabic>middle</syllabic>
					<text>te-mentga</text>
				</lyric>
			</note>
			<note>
				<pitch>
					<step>A</step>
					<octave>4</octave>
				</pitch>
				<duration>120</duration>
				<instrument id="P1-S0V0"/>
				<voice>1</voice>
				<type>eighth</type>
				<stem>up</stem>
				<lyric number="2">
					<syllabic>single</syllabic>
					<text>bientost</text>
				</lyric>
			</note>
			<note>
				<pitch>
					<step>C</step>
					<octave>5</octave>
				</pitch>
				<duration>240</duration>
				<instrument id="P1-S0V0"/>
				<voice>1</voice>
				<type>quarter</type>
				<stem>down</stem>
				<lyric number="2">
					<syllabic>begin</syllabic>
					<text>fi</text>
				</lyric>
			</note>
		</measure><!--
===========================================================
-->

		<measure number="15" width="186">
			<print new-system="yes" new-page="yes">
				<page-layout>
					<page-height>1881.48</page-height>
					<page-width>1453.87</page-width>
					<page-margins>
						<left-margin>313.00</left-margin>
						<right-margin>177.46</right-margin>
						<top-margin>127.00</top-margin>
						<bottom-margin>63.50</bottom-margin>
					</page-margins>
				</page-layout>
				<system-layout>
					<system-margins>
						<left-margin>0</left-margin>
						<right-margin>0</right-margin>
					</system-margins>
					<top-system-distance>121</top-system-distance>
				</system-layout>
			</print>
			<attributes></attributes>
			<direction placement="above">
				<direction-type>
					<words relative-x="24.2021" default-y="17.7342" font-family="Times New Roman" font-style="normal" font-size="9" font-weight="normal" color="#000000">l 5</words>
				</direction-type>
				<staff>1</staff>
			</direction>
			<note>
				<pitch>
					<step>B</step>
					<octave>4</octave>
				</pitch>
				<duration>720</duration>
				<instrument id="P1-S0V0"/>
				<voice>1</voice>
				<type>half</type>
				<dot/>
				<stem>down</stem>
				<notations>
					<articulations>
						<staccato placement="below"/>
					</articulations>
				</notations>
				<lyric number="1">
					<syllabic>end</syllabic>
					<text>-rir,</text>
				</lyric>
				<lyric number="2">
					<syllabic>end</syllabic>
					<text>-ir,</text>
				</lyric>
			</note>
		</measure><!--
===========================================================
-->

		<measure number="16" width="203">
			<print new-system="no"></print>
			<attributes></attributes>
			<note>
				<pitch>
					<step>C</step>
					<octave>5</octave>
				</pitch>
				<duration>60</duration>
				<instrument id="P1-S0V0"/>
				<voice>1</voice>
				<type>16th</type>
				<stem>up</stem>
				<beam number="1">begin</beam>
				<beam number="2">begin</beam>
			</note>
			<note>
				<pitch>
					<step>A</step>
					<octave>4</octave>
				</pitch>
				<duration>60</duration>
				<instrument id="P1-S0V0"/>
				<voice>1</voice>
				<type>16th</type>
				<stem>up</stem>
				<beam number="1">continue</beam>
				<beam number="2">continue</beam>
			</note>
			<note>
				<pitch>
					<step>B</step>
					<octave>4</octave>
				</pitch>
				<duration>60</duration>
				<instrument id="P1-S0V0"/>
				<voice>1</voice>
				<type>16th</type>
				<stem>up</stem>
				<beam number="1">continue</beam>
				<beam number="2">continue</beam>
			</note>
			<note>
				<pitch>
					<step>C</step>
					<octave>5</octave>
				</pitch>
				<duration>60</duration>
				<instrument id="P1-S0V0"/>
				<voice>1</voice>
				<type>16th</type>
				<stem>up</stem>
				<beam number="1">continue</beam>
				<beam number="2">end</beam>
			</note>
			<note>
				<pitch>
					<step>A</step>
					<octave>4</octave>
				</pitch>
				<duration>120</duration>
				<instrument id="P1-S0V0"/>
				<voice>1</voice>
				<type>eighth</type>
				<stem>up</stem>
				<beam number="1">end</beam>
			</note>
			<note>
				<pitch>
					<step>A</step>
					<octave>4</octave>
				</pitch>
				<duration>180</duration>
				<instrument id="P1-S0V0"/>
				<voice>1</voice>
				<type>eighth</type>
				<dot/>
				<stem>up</stem>
				<beam number="1">begin</beam>
			</note>
			<note>
				<pitch>
					<step>G</step>
					<octave>4</octave>
				</pitch>
				<duration>60</duration>
				<instrument id="P1-S0V0"/>
				<voice>1</voice>
				<type>16th</type>
				<stem>up</stem>
				<beam number="1">continue</beam>
				<beam number="2">begin</beam>
			</note>
			<note>
				<pitch>
					<step>F</step>
					<octave>4</octave>
				</pitch>
				<duration>60</duration>
				<instrument id="P1-S0V0"/>
				<voice>1</voice>
				<type>16th</type>
				<stem>up</stem>
				<beam number="1">continue</beam>
				<beam number="2">continue</beam>
			</note>
			<note>
				<pitch>
					<step>G</step>
					<octave>4</octave>
				</pitch>
				<duration>60</duration>
				<instrument id="P1-S0V0"/>
				<voice>1</voice>
				<type>16th</type>
				<stem>up</stem>
				<beam number="1">end</beam>
				<beam number="2">end</beam>
			</note>
		</measure><!--
===========================================================
-->

		<measure number="17" width="162">
			<print new-system="no"></print>
			<attributes></attributes>
			<note>
				<pitch>
					<step>E</step>
					<octave>4</octave>
				</pitch>
				<duration>360</duration>
				<instrument id="P1-S0V0"/>
				<voice>1</voice>
				<type>quarter</type>
				<dot/>
				<stem>up</stem>
				<lyric number="1">
					<syllabic>single</syllabic>
					<text>.i</text>
				</lyric>
				<lyric number="2">
					<syllabic>single</syllabic>
					<text>Pour</text>
				</lyric>
			</note>
			<note>
				<pitch>
					<step>D</step>
					<octave>4</octave>
				</pitch>
				<duration>240</duration>
				<instrument id="P1-S0V0"/>
				<voice>1</voice>
				<type>quarter</type>
				<stem>up</stem>
				<lyric number="1">
					<syllabic>single</syllabic>
					<text>nuit</text>
				</lyric>
				<lyric number="2">
					<syllabic>single</syllabic>
					<text>luoi</text>
				</lyric>
			</note>
			<note>
				<pitch>
					<step>A</step>
					<octave>4</octave>
				</pitch>
				<duration>120</duration>
				<instrument id="P1-S0V0"/>
				<voice>1</voice>
				<type>eighth</type>
				<stem>up</stem>
				<lyric number="1">
					<syllabic>single</syllabic>
					<text>et</text>
				</lyric>
				<lyric number="2">
					<syllabic>single</syllabic>
					<text>m&apos;es</text>
				</lyric>
			</note>
		</measure><!--
===========================================================
-->

		<measure number="18" width="200">
			<print new-system="no"></print>
			<attributes></attributes>
			<note>
				<pitch>
					<step>A</step>
					<octave>4</octave>
				</pitch>
				<duration>120</duration>
				<instrument id="P1-S0V0"/>
				<voice>1</voice>
				<type>eighth</type>
				<stem>up</stem>
				<lyric number="1">
					<syllabic>single</syllabic>
					<text>iolr</text>
				</lyric>
				<lyric number="2">
					<syllabic>single</syllabic>
					<text>t</text>
				</lyric>
			</note>
			<note>
				<pitch>
					<step>C</step>
					<octave>5</octave>
				</pitch>
				<duration>240</duration>
				<instrument id="P1-S0V0"/>
				<voice>1</voice>
				<type>quarter</type>
				<stem>down</stem>
				<lyric number="1">
					<syllabic>single</syllabic>
					<text>de</text>
				</lyric>
				<lyric number="2">
					<syllabic>begin</syllabic>
					<text>etpro</text>
				</lyric>
			</note>
			<note>
				<pitch>
					<step>B</step>
					<octave>4</octave>
				</pitch>
				<duration>240</duration>
				<instrument id="P1-S0V0"/>
				<voice>1</voice>
				<type>quarter</type>
				<stem>down</stem>
				<lyric number="1">
					<syllabic>single</syllabic>
					<text>toot</text>
				</lyric>
				<lyric number="2">
					<syllabic>middle</syllabic>
					<text>fe</text>
				</lyric>
			</note>
			<note>
				<pitch>
					<step>A</step>
					<octave>4</octave>
				</pitch>
				<duration>120</duration>
				<instrument id="P1-S0V0"/>
				<voice>1</voice>
				<type>eighth</type>
				<stem>up</stem>
				<lyric number="1">
					<syllabic>single</syllabic>
					<text>pli-</text>
				</lyric>
				<lyric number="2">
					<syllabic>end</syllabic>
					<text>rir</text>
				</lyric>
			</note>
		</measure><!--
===========================================================
-->

		<measure number="19" width="207">
			<print new-system="no"></print>
			<attributes></attributes>
			<note>
				<pitch>
					<step>A</step>
					<octave>4</octave>
				</pitch>
				<duration>240</duration>
				<instrument id="P1-S0V0"/>
				<voice>1</voice>
				<type>quarter</type>
				<stem>up</stem>
				<lyric number="1">
					<syllabic>single</syllabic>
					<text>sir</text>
				</lyric>
			</note>
			<note>
				<pitch>
					<step>G</step>
					<octave>4</octave>
				</pitch>
				<duration>120</duration>
				<instrument id="P1-S0V0"/>
				<voice>1</voice>
				<type>eighth</type>
				<stem>up</stem>
				<lyric number="2">
					<syllabic>single</syllabic>
					<text>slnsfal-</text>
				</lyric>
			</note>
			<note>
				<pitch>
					<step>G</step>
					<octave>4</octave>
				</pitch>
				<duration>180</duration>
				<instrument id="P1-S0V0"/>
				<voice>1</voice>
				<type>eighth</type>
				<dot/>
				<stem>up</stem>
				<beam number="1">begin</beam>
				<lyric number="1">
					<syllabic>begin</syllabic>
					<text>mechas</text>
				</lyric>
				<lyric number="2">
					<syllabic>begin</syllabic>
					<text>l</text>
				</lyric>
			</note>
			<note>
				<pitch>
					<step>F</step>
					<octave>4</octave>
				</pitch>
				<duration>120</duration>
				<instrument id="P1-S0V0"/>
				<voice>1</voice>
				<type>eighth</type>
				<stem>up</stem>
				<beam number="1">continue</beam>
			</note>
			<note>
				<pitch>
					<step>E</step>
					<octave>4</octave>
				</pitch>
				<duration>60</duration>
				<instrument id="P1-S0V0"/>
				<voice>1</voice>
				<type>16th</type>
				<stem>up</stem>
				<beam number="1">end</beam>
				<beam number="2">backward hook</beam>
				<lyric number="2">
					<syllabic>end</syllabic>
					<text>-</text>
				</lyric>
			</note>
		</measure><!--
===========================================================
-->

		<measure number="20" width="189">
			<print new-system="yes">
				<system-layout>
					<system-margins>
						<left-margin>0</left-margin>
						<right-margin>0</right-margin>
					</system-margins>
					<system-distance>67</system-distance>
				</system-layout>
			</print>
			<attributes></attributes>
			<direction placement="above">
				<direction-type>
					<words relative-x="18.0477" default-y="20.7716" font-family="Times New Roman" font-style="italic" font-size="8" font-weight="normal" color="#000000">2o</words>
				</direction-type>
				<staff>1</staff>
			</direction>
			<note>
				<pitch>
					<step>G</step>
					<octave>4</octave>
				</pitch>
				<duration>720</duration>
				<instrument id="P1-S0V0"/>
				<voice>1</voice>
				<type>half</type>
				<dot/>
				<stem>up</stem>
			</note>
		</measure><!--
===========================================================
-->

		<measure number="21" width="320">
			<print new-system="no"></print>
			<attributes></attributes>
			<note>
				<rest/>
				<duration>120</duration>
				<voice>1</voice>
				<type>eighth</type>
			</note>
			<note>
				<pitch>
					<step>A</step>
					<octave>4</octave>
				</pitch>
				<duration>60</duration>
				<instrument id="P1-S0V0"/>
				<voice>1</voice>
				<type>16th</type>
				<stem>up</stem>
				<beam number="1">begin</beam>
				<beam number="2">begin</beam>
			</note>
			<note>
				<pitch>
					<step>G</step>
					<octave>4</octave>
				</pitch>
				<duration>60</duration>
				<instrument id="P1-S0V0"/>
				<voice>1</voice>
				<type>16th</type>
				<stem>up</stem>
				<beam number="1">continue</beam>
				<beam number="2">continue</beam>
			</note>
			<note>
				<pitch>
					<step>A</step>
					<octave>4</octave>
				</pitch>
				<duration>60</duration>
				<instrument id="P1-S0V0"/>
				<voice>1</voice>
				<type>16th</type>
				<stem>up</stem>
				<beam number="1">continue</beam>
				<beam number="2">continue</beam>
			</note>
			<note>
				<pitch>
					<step>B</step>
					<octave>4</octave>
				</pitch>
				<duration>60</duration>
				<instrument id="P1-S0V0"/>
				<voice>1</voice>
				<type>16th</type>
				<stem>up</stem>
				<beam number="1">continue</beam>
				<beam number="2">continue</beam>
			</note>
			<note>
				<pitch>
					<step>A</step>
					<octave>4</octave>
				</pitch>
				<duration>60</duration>
				<instrument id="P1-S0V0"/>
				<voice>1</voice>
				<type>16th</type>
				<stem>up</stem>
				<beam number="1">continue</beam>
				<beam number="2">continue</beam>
				<notations>
					<articulations>
						<staccato placement="above"/>
					</articulations>
				</notations>
			</note>
			<note>
				<pitch>
					<step>B</step>
					<octave>4</octave>
				</pitch>
				<duration>60</duration>
				<instrument id="P1-S0V0"/>
				<voice>1</voice>
				<type>16th</type>
				<stem>up</stem>
				<beam number="1">continue</beam>
				<beam number="2">continue</beam>
			</note>
			<note>
				<pitch>
					<step>C</step>
					<octave>5</octave>
				</pitch>
				<duration>60</duration>
				<instrument id="P1-S0V0"/>
				<voice>1</voice>
				<type>16th</type>
				<stem>up</stem>
				<beam number="1">continue</beam>
				<beam number="2">continue</beam>
			</note>
			<note>
				<pitch>
					<step>B</step>
					<octave>4</octave>
				</pitch>
				<duration>60</duration>
				<instrument id="P1-S0V0"/>
				<voice>1</voice>
				<type>16th</type>
				<stem>up</stem>
				<beam number="1">continue</beam>
				<beam number="2">continue</beam>
			</note>
			<note>
				<pitch>
					<step>C</step>
					<octave>5</octave>
				</pitch>
				<duration>60</duration>
				<instrument id="P1-S0V0"/>
				<voice>1</voice>
				<type>16th</type>
				<stem>up</stem>
				<beam number="1">end</beam>
				<beam number="2">end</beam>
			</note>
			<note>
				<pitch>
					<step>B</step>
					<octave>4</octave>
				</pitch>
				<duration>40</duration>
				<instrument id="P1-S0V0"/>
				<voice>1</voice>
				<type>16th</type>
				<time-modification>
					<actual-notes>3</actual-notes>
					<normal-notes>2</normal-notes>
				</time-modification>
				<stem>up</stem>
				<beam number="1">begin</beam>
				<beam number="2">begin</beam>
				<notations>
					<tuplet type="start" number="1">
						<tuplet-actual>
							<tuplet-number>3</tuplet-number>
							<tuplet-type>16th</tuplet-type>
						</tuplet-actual>
						<tuplet-normal>
							<tuplet-number>2</tuplet-number>
							<tuplet-type>16th</tuplet-type>
						</tuplet-normal>
					</tuplet>
				</notations>
			</note>
			<note>
				<pitch>
					<step>C</step>
					<octave>5</octave>
				</pitch>
				<duration>40</duration>
				<instrument id="P1-S0V0"/>
				<voice>1</voice>
				<type>16th</type>
				<time-modification>
					<actual-notes>3</actual-notes>
					<normal-notes>2</normal-notes>
				</time-modification>
				<stem>up</stem>
				<beam number="1">continue</beam>
				<beam number="2">continue</beam>
				<notations></notations>
			</note>
			<note>
				<pitch>
					<step>A</step>
					<octave>4</octave>
				</pitch>
				<duration>40</duration>
				<instrument id="P1-S0V0"/>
				<voice>1</voice>
				<type>16th</type>
				<time-modification>
					<actual-notes>3</actual-notes>
					<normal-notes>2</normal-notes>
				</time-modification>
				<stem>up</stem>
				<beam number="1">continue</beam>
				<beam number="2">continue</beam>
				<notations>
					<tuplet type="stop" number="1"></tuplet>
				</notations>
			</note>
			<note>
				<pitch>
					<step>A</step>
					<octave>4</octave>
				</pitch>
				<duration>60</duration>
				<instrument id="P1-S0V0"/>
				<voice>1</voice>
				<type>16th</type>
				<stem>up</stem>
				<beam number="1">continue</beam>
				<beam number="2">continue</beam>
			</note>
			<note>
				<pitch>
					<step>G</step>
					<octave>4</octave>
				</pitch>
				<duration>60</duration>
				<instrument id="P1-S0V0"/>
				<voice>1</voice>
				<type>16th</type>
				<stem>up</stem>
				<beam number="1">continue</beam>
				<beam number="2">continue</beam>
			</note>
			<note>
				<pitch>
					<step>F</step>
					<octave>4</octave>
				</pitch>
				<duration>60</duration>
				<instrument id="P1-S0V0"/>
				<voice>1</voice>
				<type>16th</type>
				<stem>up</stem>
				<beam number="1">continue</beam>
				<beam number="2">continue</beam>
			</note>
			<note>
				<pitch>
					<step>E</step>
					<octave>4</octave>
				</pitch>
				<duration>60</duration>
				<instrument id="P1-S0V0"/>
				<voice>1</voice>
				<type>16th</type>
				<stem>up</stem>
				<beam number="1">continue</beam>
				<beam number="2">continue</beam>
			</note>
			<note>
				<pitch>
					<step>F</step>
					<octave>4</octave>
				</pitch>
				<duration>60</duration>
				<instrument id="P1-S0V0"/>
				<voice>1</voice>
				<type>16th</type>
				<stem>up</stem>
				<beam number="1">continue</beam>
				<beam number="2">continue</beam>
				<notations>
					<articulations>
						<staccato placement="above"/>
					</articulations>
				</notations>
			</note>
			<note>
				<pitch>
					<step>D</step>
					<octave>4</octave>
				</pitch>
				<duration>60</duration>
				<instrument id="P1-S0V0"/>
				<voice>1</voice>
				<type>16th</type>
				<stem>up</stem>
				<beam number="1">end</beam>
				<beam number="2">end</beam>
			</note>
			<backup>
				<duration>420</duration>
			</backup>
		</measure><!--
===========================================================
-->

		<measure number="22" width="171">
			<print new-system="no"></print>
			<attributes></attributes>
			<note>
				<pitch>
					<step>E</step>
					<octave>4</octave>
				</pitch>
				<duration>240</duration>
				<instrument id="P1-S0V0"/>
				<voice>1</voice>
				<type>quarter</type>
				<stem>up</stem>
			</note>
			<note>
				<pitch>
					<step>C</step>
					<octave>4</octave>
				</pitch>
				<duration>240</duration>
				<instrument id="P1-S0V0"/>
				<voice>1</voice>
				<type>quarter</type>
				<stem>up</stem>
			</note>
			<note>
				<pitch>
					<step>D</step>
					<octave>4</octave>
				</pitch>
				<duration>240</duration>
				<instrument id="P1-S0V0"/>
				<voice>1</voice>
				<type>quarter</type>
				<stem>up</stem>
			</note>
		</measure><!--
===========================================================
-->

		<measure number="23" width="198">
			<print new-system="no"></print>
			<attributes></attributes>
			<note>
				<pitch>
					<step>E</step>
					<octave>4</octave>
				</pitch>
				<duration>120</duration>
				<instrument id="P1-S0V0"/>
				<voice>1</voice>
				<type>eighth</type>
				<stem>up</stem>
			</note>
			<note>
				<pitch>
					<step>G</step>
					<octave>4</octave>
				</pitch>
				<duration>240</duration>
				<instrument id="P1-S0V0"/>
				<voice>1</voice>
				<type>quarter</type>
				<stem>up</stem>
			</note>
			<note>
				<pitch>
					<step>F</step>
					<octave>4</octave>
				</pitch>
				<duration>120</duration>
				<instrument id="P1-S0V0"/>
				<voice>1</voice>
				<type>eighth</type>
				<stem>up</stem>
				<beam number="1">begin</beam>
			</note>
			<note>
				<pitch>
					<step>E</step>
					<octave>4</octave>
				</pitch>
				<duration>120</duration>
				<instrument id="P1-S0V0"/>
				<voice>1</voice>
				<type>eighth</type>
				<stem>up</stem>
				<beam number="1">continue</beam>
			</note>
			<note>
				<pitch>
					<step>D</step>
					<octave>4</octave>
				</pitch>
				<duration>30</duration>
				<instrument id="P1-S0V0"/>
				<voice>1</voice>
				<type>32nd</type>
				<stem>up</stem>
				<beam number="1">end</beam>
				<beam number="2">backward hook</beam>
				<beam number="3">backward hook</beam>
			</note>
			<forward>
				<duration>90</duration>
			</forward>
		</measure><!--
===========================================================
-->

		<measure number="24" width="83">
			<print new-system="no"></print>
			<attributes></attributes>
			<note>
				<pitch>
					<step>F</step>
					<octave>4</octave>
				</pitch>
				<duration>960</duration>
				<instrument id="P1-S0V0"/>
				<voice>1</voice>
				<type>whole</type>
				<stem>none</stem>
				<lyric number="1">
					<syllabic>end</syllabic>
					<text>-se.</text>
				</lyric>
				<lyric number="2">
					<syllabic>single</syllabic>
					<text>_ce:</text>
				</lyric>
			</note>
			<backup>
				<duration>240</duration>
			</backup>
			<barline location="right">
				<bar-style>light-heavy</bar-style>
			</barline>
		</measure>
	</part><!--
===========================================================
-->

	<part id="P2">
		<measure number="1" width="291">
			<print>
				<page-layout>
					<page-height>1881.48</page-height>
					<page-width>1453.87</page-width>
					<page-margins>
						<left-margin>167.19</left-margin>
						<right-margin>321.56</right-margin>
						<top-margin>127.00</top-margin>
						<bottom-margin>63.50</bottom-margin>
					</page-margins>
				</page-layout>
				<system-layout>
					<system-margins>
						<left-margin>71</left-margin>
						<right-margin>0</right-margin>
					</system-margins>
					<top-system-distance>737</top-system-distance>
				</system-layout>
				<staff-layout number="1">
					<staff-distance>101</staff-distance>
				</staff-layout>
			</print>
			<attributes>
				<divisions>240</divisions>
				<key>
					<fifths>0</fifths>
				</key>
				<time>
					<beats>6</beats>
					<beat-type>8</beat-type>
				</time>
				<clef>
					<sign>F</sign>
					<line>4</line>
				</clef>
				<staff-details number="1" print-object="yes">
					<staff-size>59</staff-size>
				</staff-details>
				<transpose>
					<diatonic>0</diatonic>
					<chromatic>0</chromatic>
					<octave-change>-1</octave-change>
				</transpose>
			</attributes>
			<attributes></attributes>
			<note>
				<pitch>
					<step>C</step>
					<octave>4</octave>
				</pitch>
				<duration>720</duration>
				<voice>1</voice>
				<type>half</type>
				<dot/>
				<stem>down</stem>
				<lyric number="1">
					<syllabic>single</syllabic>
					<text>Contrell</text>
				</lyric>
			</note>
		</measure><!--
===========================================================
-->

		<measure number="2" width="162">
			<print new-system="no"></print>
			<attributes></attributes>
			<note>
				<pitch>
					<step>D</step>
					<octave>5</octave>
				</pitch>
				<duration>240</duration>
				<voice>1</voice>
				<type>quarter</type>
				<stem>up</stem>
				<lyric number="1">
					<syllabic>single</syllabic>
					<text>r</text>
				</lyric>
			</note>
			<note>
				<pitch>
					<step>F</step>
					<octave>3</octave>
				</pitch>
				<duration>360</duration>
				<voice>1</voice>
				<type>quarter</type>
				<dot/>
				<stem>down</stem>
			</note>
			<note>
				<pitch>
					<step>G</step>
					<octave>3</octave>
				</pitch>
				<duration>360</duration>
				<voice>1</voice>
				<type>quarter</type>
				<dot/>
				<stem>down</stem>
			</note>
			<backup>
				<duration>240</duration>
			</backup>
		</measure><!--
===========================================================
-->

		<measure number="3" width="249">
			<print new-system="no"></print>
			<attributes></attributes>
			<direction placement="above">
				<direction-type>
					<coda/>
				</direction-type>
			</direction>
			<note>
				<pitch>
					<step>F</step>
					<octave>3</octave>
				</pitch>
				<duration>360</duration>
				<voice>1</voice>
				<type>quarter</type>
				<dot/>
				<stem>down</stem>
			</note>
			<note>
				<rest/>
				<duration>120</duration>
				<voice>1</voice>
				<type>eighth</type>
			</note>
			<note>
				<pitch>
					<step>C</step>
					<octave>4</octave>
				</pitch>
				<duration>120</duration>
				<voice>1</voice>
				<type>eighth</type>
				<stem>down</stem>
				<beam number="1">begin</beam>
			</note>
			<note>
				<pitch>
					<step>D</step>
					<octave>4</octave>
				</pitch>
				<duration>120</duration>
				<voice>1</voice>
				<type>eighth</type>
				<stem>down</stem>
				<beam number="1">end</beam>
			</note>
		</measure><!--
===========================================================
-->

		<measure number="4" width="190">
			<print new-system="no"></print>
			<attributes></attributes>
			<note>
				<pitch>
					<step>E</step>
					<octave>4</octave>
				</pitch>
				<duration>720</duration>
				<voice>1</voice>
				<type>half</type>
				<dot/>
				<stem>down</stem>
			</note>
		</measure><!--
===========================================================
-->

		<measure number="5" width="236">
			<print new-system="yes">
				<system-layout>
					<system-margins>
						<left-margin>0</left-margin>
						<right-margin>1</right-margin>
					</system-margins>
					<system-distance>75</system-distance>
				</system-layout>
				<staff-layout number="1">
					<staff-distance>100</staff-distance>
				</staff-layout>
			</print>
			<attributes></attributes>
			<note>
				<pitch>
					<step>F</step>
					<octave>4</octave>
				</pitch>
				<duration>120</duration>
				<voice>1</voice>
				<type>eighth</type>
				<stem>down</stem>
			</note>
			<note>
				<pitch>
					<step>D</step>
					<octave>4</octave>
				</pitch>
				<duration>240</duration>
				<voice>1</voice>
				<type>quarter</type>
				<stem>down</stem>
			</note>
			<note>
				<pitch>
					<step>C</step>
					<octave>4</octave>
				</pitch>
				<duration>240</duration>
				<voice>1</voice>
				<type>quarter</type>
				<stem>down</stem>
			</note>
			<note>
				<pitch>
					<step>B</step>
					<octave>3</octave>
				</pitch>
				<duration>120</duration>
				<voice>1</voice>
				<type>eighth</type>
				<stem>down</stem>
			</note>
		</measure><!--
===========================================================
-->

		<measure number="6" width="138">
			<print new-system="no"></print>
			<attributes></attributes>
			<note>
				<pitch>
					<step>C</step>
					<octave>4</octave>
				</pitch>
				<duration>360</duration>
				<voice>1</voice>
				<type>quarter</type>
				<dot/>
				<stem>down</stem>
			</note>
			<note>
				<rest/>
				<duration>240</duration>
				<voice>1</voice>
				<type>quarter</type>
			</note>
			<note>
				<pitch>
					<step>C</step>
					<octave>4</octave>
				</pitch>
				<duration>120</duration>
				<voice>1</voice>
				<type>eighth</type>
				<stem>down</stem>
			</note>
		</measure><!--
===========================================================
-->

		<measure number="7" width="192">
			<print new-system="no"></print>
			<attributes></attributes>
			<note>
				<pitch>
					<step>F</step>
					<octave>3</octave>
				</pitch>
				<duration>360</duration>
				<voice>1</voice>
				<type>quarter</type>
				<dot/>
				<stem>down</stem>
			</note>
			<note>
				<pitch>
					<step>G</step>
					<octave>3</octave>
				</pitch>
				<duration>360</duration>
				<voice>1</voice>
				<type>quarter</type>
				<dot/>
				<stem>down</stem>
			</note>
		</measure><!--
===========================================================
-->

		<measure number="8" width="212">
			<print new-system="no"></print>
			<attributes></attributes>
			<note>
				<pitch>
					<step>F</step>
					<octave>3</octave>
				</pitch>
				<duration>120</duration>
				<voice>1</voice>
				<type>eighth</type>
				<stem>down</stem>
			</note>
			<note>
				<pitch>
					<step>A</step>
					<octave>3</octave>
				</pitch>
				<duration>240</duration>
				<voice>1</voice>
				<type>quarter</type>
				<stem>down</stem>
			</note>
			<note>
				<pitch>
					<step>C</step>
					<octave>4</octave>
				</pitch>
				<duration>240</duration>
				<voice>1</voice>
				<type>quarter</type>
				<stem>down</stem>
			</note>
			<note>
				<pitch>
					<step>D</step>
					<octave>4</octave>
				</pitch>
				<duration>120</duration>
				<voice>1</voice>
				<type>eighth</type>
				<stem>down</stem>
			</note>
		</measure><!--
===========================================================
-->

		<measure number="9" width="183">
			<print new-system="no"></print>
			<attributes></attributes>
			<note>
				<pitch>
					<step>E</step>
					<octave>4</octave>
				</pitch>
				<duration>360</duration>
				<voice>1</voice>
				<type>quarter</type>
				<dot/>
				<stem>down</stem>
			</note>
			<note>
				<rest/>
				<duration>240</duration>
				<voice>1</voice>
				<type>quarter</type>
			</note>
			<note>
				<pitch>
					<step>G</step>
					<octave>4</octave>
				</pitch>
				<duration>120</duration>
				<voice>1</voice>
				<type>eighth</type>
				<stem>down</stem>
				<lyric number="1">
					<syllabic>single</syllabic>
					<text>l</text>
				</lyric>
				<lyric number="2">
					<syllabic>single</syllabic>
					<text>l</text>
				</lyric>
			</note>
		</measure><!--
===========================================================
-->

		<measure number="10" width="249">
			<print new-system="yes">
				<system-layout>
					<system-margins>
						<left-margin>0</left-margin>
						<right-margin>2</right-margin>
					</system-margins>
					<system-distance>75</system-distance>
				</system-layout>
				<staff-layout number="1">
					<staff-distance>73</staff-distance>
				</staff-layout>
			</print>
			<attributes></attributes>
			<note>
				<pitch>
					<step>E</step>
					<octave>4</octave>
				</pitch>
				<duration>120</duration>
				<voice>1</voice>
				<type>eighth</type>
				<stem>down</stem>
				<lyric number="1">
					<syllabic>single</syllabic>
					<text>lr</text>
				</lyric>
			</note>
			<note>
				<pitch>
					<step>C</step>
					<octave>4</octave>
				</pitch>
				<duration>240</duration>
				<voice>1</voice>
				<type>quarter</type>
				<stem>down</stem>
			</note>
			<note>
				<pitch>
					<step>A</step>
					<octave>3</octave>
				</pitch>
				<duration>240</duration>
				<voice>1</voice>
				<type>quarter</type>
				<stem>down</stem>
			</note>
			<note>
				<pitch>
					<step>B</step>
					<octave>3</octave>
				</pitch>
				<duration>120</duration>
				<voice>1</voice>
				<type>eighth</type>
				<stem>down</stem>
			</note>
		</measure><!--
===========================================================
-->

		<measure number="11" width="184">
			<print new-system="no"></print>
			<attributes></attributes>
			<note>
				<pitch>
					<step>C</step>
					<octave>4</octave>
				</pitch>
				<duration>720</duration>
				<voice>1</voice>
				<type>half</type>
				<dot/>
				<stem>down</stem>
			</note>
		</measure><!--
===========================================================
-->

		<measure number="12" width="135">
			<print new-system="no"></print>
			<attributes></attributes>
			<note>
				<pitch>
					<step>E</step>
					<octave>4</octave>
				</pitch>
				<duration>120</duration>
				<voice>1</voice>
				<type>eighth</type>
				<stem>down</stem>
			</note>
			<note>
				<pitch>
					<step>F</step>
					<octave>4</octave>
				</pitch>
				<duration>360</duration>
				<voice>1</voice>
				<type>quarter</type>
				<dot/>
				<stem>down</stem>
			</note>
			<forward>
				<duration>240</duration>
			</forward>
		</measure><!--
===========================================================
-->

		<measure number="13" width="188">
			<print new-system="no"></print>
			<attributes></attributes>
			<note>
				<pitch>
					<step>C</step>
					<octave>4</octave>
				</pitch>
				<duration>360</duration>
				<voice>1</voice>
				<type>quarter</type>
				<dot/>
				<stem>down</stem>
			</note>
			<note>
				<pitch>
					<step>D</step>
					<octave>4</octave>
				</pitch>
				<duration>360</duration>
				<tie type="start"/>
				<voice>1</voice>
				<type>quarter</type>
				<dot/>
				<stem>down</stem>
				<notations>
					<tied type="start" number="1" orientation="over"/>
				</notations>
			</note>
		</measure><!--
===========================================================
-->

		<measure number="14" width="204">
			<print new-system="no"></print>
			<attributes></attributes>
			<note>
				<pitch>
					<step>D</step>
					<octave>4</octave>
				</pitch>
				<duration>360</duration>
				<tie type="stop"/>
				<voice>1</voice>
				<type>quarter</type>
				<dot/>
				<stem>down</stem>
				<notations>
					<tied type="stop" number="1" orientation="over"/>
				</notations>
			</note>
			<note>
				<pitch>
					<step>E</step>
					<octave>4</octave>
				</pitch>
				<duration>240</duration>
				<voice>1</voice>
				<type>quarter</type>
				<stem>down</stem>
			</note>
			<note>
				<pitch>
					<step>C</step>
					<octave>4</octave>
				</pitch>
				<duration>120</duration>
				<voice>1</voice>
				<type>eighth</type>
				<stem>down</stem>
			</note>
		</measure><!--
===========================================================
-->

		<measure number="15" width="186">
			<print new-system="yes" new-page="yes">
				<page-layout>
					<page-height>1881.48</page-height>
					<page-width>1453.87</page-width>
					<page-margins>
						<left-margin>313.00</left-margin>
						<right-margin>177.46</right-margin>
						<top-margin>127.00</top-margin>
						<bottom-margin>63.50</bottom-margin>
					</page-margins>
				</page-layout>
				<system-layout>
					<system-margins>
						<left-margin>0</left-margin>
						<right-margin>0</right-margin>
					</system-margins>
					<top-system-distance>121</top-system-distance>
				</system-layout>
				<staff-layout number="1">
					<staff-distance>80</staff-distance>
				</staff-layout>
			</print>
			<attributes></attributes>
			<note>
				<pitch>
					<step>D</step>
					<octave>4</octave>
				</pitch>
				<duration>120</duration>
				<voice>1</voice>
				<type>eighth</type>
				<stem>down</stem>
			</note>
			<note>
				<pitch>
					<step>B</step>
					<octave>3</octave>
				</pitch>
				<duration>240</duration>
				<voice>1</voice>
				<type>quarter</type>
				<stem>down</stem>
				<notations>
					<articulations>
						<staccato placement="above"/>
					</articulations>
				</notations>
			</note>
			<note>
				<pitch>
					<step>G</step>
					<octave>3</octave>
				</pitch>
				<duration>240</duration>
				<voice>1</voice>
				<type>quarter</type>
				<stem>down</stem>
			</note>
			<note>
				<pitch>
					<step>F</step>
					<octave>4</octave>
				</pitch>
				<duration>120</duration>
				<voice>1</voice>
				<type>eighth</type>
				<stem>down</stem>
			</note>
		</measure><!--
===========================================================
-->

		<measure number="16" width="203">
			<print new-system="no"></print>
			<attributes></attributes>
			<note>
				<pitch>
					<step>G</step>
					<octave>4</octave>
				</pitch>
				<duration>360</duration>
				<voice>1</voice>
				<type>quarter</type>
				<dot/>
				<stem>down</stem>
			</note>
			<note>
				<pitch>
					<step>C</step>
					<octave>4</octave>
				</pitch>
				<duration>360</duration>
				<voice>1</voice>
				<type>quarter</type>
				<dot/>
				<stem>down</stem>
			</note>
		</measure><!--
===========================================================
-->

		<measure number="17" width="162">
			<print new-system="no"></print>
			<attributes></attributes>
			<note>
				<rest/>
				<duration>240</duration>
				<voice>1</voice>
				<type>quarter</type>
			</note>
			<note>
				<pitch>
					<step>G</step>
					<octave>3</octave>
				</pitch>
				<duration>120</duration>
				<voice>1</voice>
				<type>eighth</type>
				<stem>down</stem>
			</note>
			<note>
				<pitch>
					<step>B</step>
					<octave>3</octave>
				</pitch>
				<duration>120</duration>
				<voice>1</voice>
				<type>eighth</type>
				<stem>down</stem>
			</note>
			<note>
				<pitch>
					<step>D</step>
					<octave>4</octave>
				</pitch>
				<duration>240</duration>
				<voice>1</voice>
				<type>quarter</type>
				<stem>down</stem>
			</note>
		</measure><!--
===========================================================
-->

		<measure number="18" width="200">
			<print new-system="no"></print>
			<attributes></attributes>
			<note>
				<pitch>
					<step>E</step>
					<octave>4</octave>
				</pitch>
				<duration>240</duration>
				<voice>1</voice>
				<type>quarter</type>
				<stem>down</stem>
				<lyric number="1">
					<syllabic>single</syllabic>
					<text>r</text>
				</lyric>
			</note>
			<note>
				<pitch>
					<step>C</step>
					<octave>4</octave>
				</pitch>
				<duration>120</duration>
				<voice>1</voice>
				<type>eighth</type>
				<stem>down</stem>
			</note>
			<note>
				<pitch>
					<step>G</step>
					<octave>3</octave>
				</pitch>
				<duration>120</duration>
				<voice>1</voice>
				<type>eighth</type>
				<stem>down</stem>
				<beam number="1">begin</beam>
			</note>
			<note>
				<pitch>
					<step>F</step>
					<octave>4</octave>
				</pitch>
				<duration>120</duration>
				<voice>1</voice>
				<type>eighth</type>
				<stem>down</stem>
				<beam number="1">continue</beam>
			</note>
			<note>
				<pitch>
					<step>D</step>
					<octave>4</octave>
				</pitch>
				<duration>120</duration>
				<voice>1</voice>
				<type>eighth</type>
				<stem>down</stem>
				<beam number="1">end</beam>
				<lyric number="1">
					<syllabic>single</syllabic>
					<text>-I</text>
				</lyric>
			</note>
		</measure><!--
===========================================================
-->

		<measure number="19" width="207">
			<print new-system="no"></print>
			<attributes></attributes>
			<note>
				<pitch>
					<step>E</step>
					<octave>4</octave>
				</pitch>
				<duration>360</duration>
				<voice>1</voice>
				<type>quarter</type>
				<dot/>
				<stem>down</stem>
			</note>
			<note>
				<pitch>
					<step>D</step>
					<octave>4</octave>
				</pitch>
				<duration>120</duration>
				<voice>1</voice>
				<type>eighth</type>
				<stem>down</stem>
				<beam number="1">begin</beam>
			</note>
			<note>
				<pitch>
					<step>B</step>
					<octave>3</octave>
				</pitch>
				<duration>120</duration>
				<voice>1</voice>
				<type>eighth</type>
				<stem>down</stem>
				<beam number="1">continue</beam>
			</note>
			<note>
				<pitch>
					<step>C</step>
					<octave>4</octave>
				</pitch>
				<duration>60</duration>
				<voice>1</voice>
				<type>16th</type>
				<stem>down</stem>
				<beam number="1">end</beam>
				<beam number="2">backward hook</beam>
			</note>
			<forward>
				<duration>60</duration>
			</forward>
		</measure><!--
===========================================================
-->

		<measure number="20" width="189">
			<print new-system="yes">
				<system-layout>
					<system-margins>
						<left-margin>0</left-margin>
						<right-margin>0</right-margin>
					</system-margins>
					<system-distance>67</system-distance>
				</system-layout>
				<staff-layout number="1">
					<staff-distance>63</staff-distance>
				</staff-layout>
			</print>
			<attributes></attributes>
			<note>
				<rest/>
				<duration>240</duration>
				<voice>1</voice>
				<type>quarter</type>
			</note>
			<note>
				<pitch>
					<step>D</step>
					<octave>4</octave>
				</pitch>
				<duration>120</duration>
				<voice>1</voice>
				<type>eighth</type>
				<stem>down</stem>
			</note>
			<note>
				<pitch>
					<step>G</step>
					<octave>3</octave>
				</pitch>
				<duration>120</duration>
				<voice>1</voice>
				<type>eighth</type>
				<stem>down</stem>
			</note>
			<note>
				<pitch>
					<step>D</step>
					<octave>4</octave>
				</pitch>
				<duration>240</duration>
				<voice>1</voice>
				<type>quarter</type>
				<stem>down</stem>
			</note>
		</measure><!--
===========================================================
-->

		<measure number="21" width="320">
			<print new-system="no"></print>
			<attributes></attributes>
			<note>
				<pitch>
					<step>C</step>
					<octave>4</octave>
				</pitch>
				<duration>240</duration>
				<voice>1</voice>
				<type>quarter</type>
				<stem>down</stem>
				<lyric number="1">
					<syllabic>single</syllabic>
					<text>I-</text>
				</lyric>
			</note>
			<note>
				<pitch>
					<step>F</step>
					<octave>3</octave>
				</pitch>
				<duration>120</duration>
				<voice>1</voice>
				<type>eighth</type>
				<stem>down</stem>
			</note>
			<note>
				<pitch>
					<step>A</step>
					<octave>3</octave>
				</pitch>
				<duration>120</duration>
				<voice>1</voice>
				<type>eighth</type>
				<stem>down</stem>
				<beam number="1">begin</beam>
			</note>
			<note>
				<pitch>
					<step>G</step>
					<octave>3</octave>
				</pitch>
				<duration>120</duration>
				<voice>1</voice>
				<type>eighth</type>
				<stem>down</stem>
				<beam number="1">continue</beam>
			</note>
			<note>
				<pitch>
					<step>B</step>
					<octave>3</octave>
				</pitch>
				<duration>120</duration>
				<voice>1</voice>
				<type>eighth</type>
				<stem>down</stem>
				<beam number="1">end</beam>
				<lyric number="1">
					<syllabic>single</syllabic>
					<text>-I</text>
				</lyric>
			</note>
		</measure><!--
===========================================================
-->

		<measure number="22" width="171">
			<print new-system="no"></print>
			<attributes></attributes>
			<note>
				<pitch>
					<step>C</step>
					<octave>4</octave>
				</pitch>
				<duration>120</duration>
				<voice>1</voice>
				<type>eighth</type>
				<stem>down</stem>
			</note>
			<note>
				<pitch>
					<step>A</step>
					<octave>3</octave>
				</pitch>
				<duration>240</duration>
				<tie type="start"/>
				<voice>1</voice>
				<type>quarter</type>
				<stem>down</stem>
				<notations>
					<tied type="start" number="1" orientation="over"/>
				</notations>
			</note>
			<note>
				<pitch>
					<step>A</step>
					<octave>3</octave>
				</pitch>
				<duration>240</duration>
				<tie type="stop"/>
				<voice>1</voice>
				<type>quarter</type>
				<stem>down</stem>
				<notations>
					<tied type="stop" number="1" orientation="over"/>
				</notations>
			</note>
			<note>
				<pitch>
					<step>C</step>
					<octave>4</octave>
				</pitch>
				<duration>120</duration>
				<voice>1</voice>
				<type>eighth</type>
				<stem>down</stem>
			</note>
		</measure><!--
===========================================================
-->

		<measure number="23" width="198">
			<print new-system="no"></print>
			<attributes></attributes>
			<note>
				<pitch>
					<step>E</step>
					<octave>4</octave>
				</pitch>
				<duration>240</duration>
				<voice>1</voice>
				<type>quarter</type>
				<stem>down</stem>
			</note>
			<note>
				<pitch>
					<step>C</step>
					<octave>4</octave>
				</pitch>
				<duration>240</duration>
				<voice>1</voice>
				<type>quarter</type>
				<stem>down</stem>
			</note>
			<note>
				<pitch>
					<step>B</step>
					<octave>3</octave>
				</pitch>
				<duration>120</duration>
				<voice>1</voice>
				<type>eighth</type>
				<stem>down</stem>
			</note>
			<forward>
				<duration>120</duration>
			</forward>
		</measure><!--
===========================================================
-->

		<measure number="24" width="83">
			<print new-system="no"></print>
			<attributes></attributes>
			<note>
				<pitch>
					<step>C</step>
					<octave>4</octave>
				</pitch>
				<duration>960</duration>
				<voice>1</voice>
				<type>whole</type>
				<stem>none</stem>
			</note>
			<backup>
				<duration>240</duration>
			</backup>
			<barline location="right">
				<bar-style>light-heavy</bar-style>
			</barline>
		</measure>
	</part><!--
===========================================================
-->

	<part id="P3">
		<measure number="1" width="291">
			<print>
				<page-layout>
					<page-height>1881.48</page-height>
					<page-width>1453.87</page-width>
					<page-margins>
						<left-margin>167.19</left-margin>
						<right-margin>321.56</right-margin>
						<top-margin>127.00</top-margin>
						<bottom-margin>63.50</bottom-margin>
					</page-margins>
				</page-layout>
				<system-layout>
					<system-margins>
						<left-margin>71</left-margin>
						<right-margin>0</right-margin>
					</system-margins>
					<top-system-distance>737</top-system-distance>
				</system-layout>
				<staff-layout number="1">
					<staff-distance>40</staff-distance>
				</staff-layout>
			</print>
			<attributes>
				<divisions>240</divisions>
				<key>
					<fifths>0</fifths>
				</key>
				<time>
					<beats>6</beats>
					<beat-type>8</beat-type>
				</time>
				<clef>
					<sign>F</sign>
					<line>4</line>
				</clef>
				<staff-details number="1" print-object="yes">
					<staff-size>59</staff-size>
				</staff-details>
			</attributes>
			<attributes></attributes>
			<note>
				<rest/>
				<duration>720</duration>
				<voice>1</voice>
				<type>half</type>
				<dot/>
			</note>
		</measure><!--
===========================================================
-->

		<measure number="2" width="162">
			<print new-system="no"></print>
			<attributes></attributes>
			<note>
				<rest/>
				<duration>240</duration>
				<voice>1</voice>
				<type>quarter</type>
			</note>
			<note>
				<pitch>
					<step>F</step>
					<octave>4</octave>
				</pitch>
				<duration>120</duration>
				<voice>1</voice>
				<type>eighth</type>
				<stem>down</stem>
			</note>
			<note>
				<pitch>
					<step>D</step>
					<octave>4</octave>
				</pitch>
				<duration>120</duration>
				<voice>1</voice>
				<type>eighth</type>
				<stem>down</stem>
			</note>
			<note>
				<pitch>
					<step>E</step>
					<octave>4</octave>
				</pitch>
				<duration>240</duration>
				<voice>1</voice>
				<type>quarter</type>
				<stem>down</stem>
			</note>
		</measure><!--
===========================================================
-->

		<measure number="3" width="249">
			<print new-system="no"></print>
			<attributes></attributes>
			<direction placement="above">
				<direction-type>
					<coda/>
				</direction-type>
			</direction>
			<note>
				<pitch>
					<step>G</step>
					<octave>4</octave>
				</pitch>
				<duration>360</duration>
				<voice>1</voice>
				<type>quarter</type>
				<dot/>
				<stem>down</stem>
			</note>
			<note>
				<pitch>
					<step>E</step>
					<octave>4</octave>
				</pitch>
				<duration>240</duration>
				<voice>1</voice>
				<type>quarter</type>
				<stem>down</stem>
			</note>
			<note>
				<pitch>
					<step>D</step>
					<octave>4</octave>
				</pitch>
				<duration>120</duration>
				<voice>1</voice>
				<type>eighth</type>
				<stem>down</stem>
			</note>
		</measure><!--
===========================================================
-->

		<measure number="4" width="190">
			<print new-system="no"></print>
			<attributes></attributes>
			<note>
				<pitch>
					<step>C</step>
					<octave>4</octave>
				</pitch>
				<duration>720</duration>
				<voice>1</voice>
				<type>half</type>
				<dot/>
				<stem>down</stem>
			</note>
		</measure><!--
===========================================================
-->

		<measure number="5" width="236">
			<print new-system="yes">
				<system-layout>
					<system-margins>
						<left-margin>0</left-margin>
						<right-margin>1</right-margin>
					</system-margins>
					<system-distance>75</system-distance>
				</system-layout>
				<staff-layout number="1">
					<staff-distance>43</staff-distance>
				</staff-layout>
			</print>
			<attributes></attributes>
			<note>
				<pitch>
					<step>F</step>
					<octave>3</octave>
				</pitch>
				<duration>240</duration>
				<voice>1</voice>
				<type>quarter</type>
				<stem>down</stem>
			</note>
			<note>
				<pitch>
					<step>B</step>
					<octave>3</octave>
				</pitch>
				<duration>120</duration>
				<voice>1</voice>
				<type>eighth</type>
				<stem>down</stem>
			</note>
			<note>
				<pitch>
					<step>A</step>
					<octave>3</octave>
				</pitch>
				<duration>120</duration>
				<voice>1</voice>
				<type>eighth</type>
				<stem>down</stem>
			</note>
			<note>
				<pitch>
					<step>G</step>
					<octave>3</octave>
				</pitch>
				<duration>240</duration>
				<voice>1</voice>
				<type>quarter</type>
				<stem>down</stem>
			</note>
		</measure><!--
===========================================================
-->

		<measure number="6" width="138">
			<print new-system="no"></print>
			<attributes></attributes>
			<note>
				<pitch>
					<step>F</step>
					<octave>3</octave>
				</pitch>
				<duration>720</duration>
				<voice>1</voice>
				<type>half</type>
				<dot/>
				<stem>down</stem>
			</note>
		</measure><!--
===========================================================
-->

		<measure number="7" width="192">
			<print new-system="no"></print>
			<attributes></attributes>
			<note>
				<pitch>
					<step>F</step>
					<octave>4</octave>
				</pitch>
				<duration>240</duration>
				<voice>1</voice>
				<type>quarter</type>
				<stem>down</stem>
			</note>
			<note>
				<pitch>
					<step>A</step>
					<octave>4</octave>
				</pitch>
				<duration>120</duration>
				<voice>1</voice>
				<type>eighth</type>
				<stem>down</stem>
			</note>
			<note>
				<pitch>
					<step>G</step>
					<octave>4</octave>
				</pitch>
				<duration>120</duration>
				<voice>1</voice>
				<type>eighth</type>
				<stem>down</stem>
			</note>
			<note>
				<pitch>
					<step>E</step>
					<octave>4</octave>
				</pitch>
				<duration>240</duration>
				<voice>1</voice>
				<type>quarter</type>
				<stem>down</stem>
			</note>
		</measure><!--
===========================================================
-->

		<measure number="8" width="212">
			<print new-system="no"></print>
			<attributes></attributes>
			<note>
				<pitch>
					<step>E</step>
					<octave>4</octave>
				</pitch>
				<duration>240</duration>
				<voice>1</voice>
				<type>quarter</type>
				<stem>down</stem>
			</note>
			<forward>
				<duration>480</duration>
			</forward>
		</measure><!--
===========================================================
-->

		<measure number="9" width="183">
			<print new-system="no"></print>
			<attributes></attributes>
			<note>
				<pitch>
					<step>C</step>
					<octave>4</octave>
				</pitch>
				<duration>360</duration>
				<voice>1</voice>
				<type>quarter</type>
				<dot/>
				<stem>down</stem>
			</note>
			<note>
				<pitch>
					<step>F</step>
					<octave>3</octave>
				</pitch>
				<duration>360</duration>
				<voice>1</voice>
				<type>quarter</type>
				<dot/>
				<stem>down</stem>
			</note>
		</measure><!--
===========================================================
-->

		<measure number="10" width="249">
			<print new-system="yes">
				<system-layout>
					<system-margins>
						<left-margin>0</left-margin>
						<right-margin>2</right-margin>
					</system-margins>
					<system-distance>75</system-distance>
				</system-layout>
				<staff-layout number="1">
					<staff-distance>33</staff-distance>
				</staff-layout>
			</print>
			<attributes></attributes>
			<note>
				<pitch>
					<step>A</step>
					<octave>3</octave>
				</pitch>
				<duration>480</duration>
				<voice>1</voice>
				<type>half</type>
				<stem>down</stem>
			</note>
			<note>
				<pitch>
					<step>G</step>
					<octave>3</octave>
				</pitch>
				<duration>240</duration>
				<voice>1</voice>
				<type>quarter</type>
				<stem>down</stem>
			</note>
		</measure><!--
===========================================================
-->

		<measure number="11" width="184">
			<print new-system="no"></print>
			<attributes></attributes>
			<note>
				<pitch>
					<step>C</step>
					<octave>4</octave>
				</pitch>
				<duration>240</duration>
				<voice>1</voice>
				<type>quarter</type>
				<stem>down</stem>
			</note>
			<forward>
				<duration>480</duration>
			</forward>
		</measure><!--
===========================================================
-->

		<measure number="12" width="135">
			<print new-system="no"></print>
			<attributes></attributes>
			<direction placement="below">
				<direction-type>
					<words relative-x="10.2759" default-y="-53.0973" font-family="Times New Roman" font-style="normal" font-size="9" font-weight="normal" color="#000000">CVM 214</words>
				</direction-type>
				<staff>1</staff>
			</direction>
			<note>
				<pitch>
					<step>F</step>
					<octave>3</octave>
				</pitch>
				<duration>360</duration>
				<voice>1</voice>
				<type>quarter</type>
				<dot/>
				<stem>down</stem>
			</note>
			<forward>
				<duration>360</duration>
			</forward>
		</measure><!--
===========================================================
-->

		<measure number="13" width="188">
			<print new-system="no"></print>
			<attributes></attributes>
			<note>
				<rest/>
				<duration>240</duration>
				<voice>1</voice>
				<type>quarter</type>
			</note>
			<note>
				<pitch>
					<step>B</step>
					<octave>2</octave>
				</pitch>
				<duration>240</duration>
				<voice>1</voice>
				<type>quarter</type>
				<stem>up</stem>
			</note>
			<note>
				<pitch>
					<step>G</step>
					<octave>3</octave>
				</pitch>
				<duration>120</duration>
				<voice>1</voice>
				<type>eighth</type>
				<stem>down</stem>
			</note>
			<forward>
				<duration>120</duration>
			</forward>
		</measure><!--
===========================================================
-->

		<measure number="14" width="204">
			<print new-system="no"></print>
			<attributes></attributes>
			<note>
				<pitch>
					<step>G</step>
					<octave>3</octave>
				</pitch>
				<duration>120</duration>
				<voice>1</voice>
				<type>eighth</type>
				<stem>down</stem>
			</note>
			<note>
				<pitch>
					<step>B</step>
					<octave>3</octave>
				</pitch>
				<duration>240</duration>
				<voice>1</voice>
				<type>quarter</type>
				<stem>down</stem>
			</note>
			<note>
				<pitch>
					<step>A</step>
					<octave>3</octave>
				</pitch>
				<duration>360</duration>
				<voice>1</voice>
				<type>quarter</type>
				<dot/>
				<stem>down</stem>
			</note>
		</measure><!--
===========================================================
-->

		<measure number="15" width="186">
			<print new-system="yes" new-page="yes">
				<page-layout>
					<page-height>1881.48</page-height>
					<page-width>1453.87</page-width>
					<page-margins>
						<left-margin>313.00</left-margin>
						<right-margin>177.46</right-margin>
						<top-margin>127.00</top-margin>
						<bottom-margin>63.50</bottom-margin>
					</page-margins>
				</page-layout>
				<system-layout>
					<system-margins>
						<left-margin>0</left-margin>
						<right-margin>0</right-margin>
					</system-margins>
					<top-system-distance>121</top-system-distance>
				</system-layout>
				<staff-layout number="1">
					<staff-distance>50</staff-distance>
				</staff-layout>
			</print>
			<attributes></attributes>
			<note>
				<pitch>
					<step>G</step>
					<octave>3</octave>
				</pitch>
				<duration>360</duration>
				<voice>1</voice>
				<type>quarter</type>
				<dot/>
				<stem>down</stem>
			</note>
			<note>
				<pitch>
					<step>D</step>
					<octave>4</octave>
				</pitch>
				<duration>360</duration>
				<voice>1</voice>
				<type>quarter</type>
				<dot/>
				<stem>down</stem>
			</note>
		</measure><!--
===========================================================
-->

		<measure number="16" width="203">
			<print new-system="no"></print>
			<attributes></attributes>
			<note>
				<pitch>
					<step>C</step>
					<octave>4</octave>
				</pitch>
				<duration>360</duration>
				<voice>1</voice>
				<type>quarter</type>
				<dot/>
				<stem>down</stem>
			</note>
			<note>
				<rest/>
				<duration>240</duration>
				<voice>1</voice>
				<type>quarter</type>
			</note>
			<forward>
				<duration>120</duration>
			</forward>
		</measure><!--
===========================================================
-->

		<measure number="17" width="162">
			<print new-system="no"></print>
			<attributes></attributes>
			<note>
				<pitch>
					<step>G</step>
					<octave>4</octave>
				</pitch>
				<duration>360</duration>
				<voice>1</voice>
				<type>quarter</type>
				<dot/>
				<stem>down</stem>
			</note>
			<note>
				<pitch>
					<step>F</step>
					<octave>4</octave>
				</pitch>
				<duration>360</duration>
				<voice>1</voice>
				<type>quarter</type>
				<dot/>
				<stem>down</stem>
			</note>
		</measure><!--
===========================================================
-->

		<measure number="18" width="200">
			<print new-system="no"></print>
			<attributes></attributes>
			<note>
				<pitch>
					<step>C</step>
					<octave>4</octave>
				</pitch>
				<duration>240</duration>
				<voice>1</voice>
				<type>quarter</type>
				<stem>down</stem>
			</note>
			<note>
				<pitch>
					<step>E</step>
					<octave>4</octave>
				</pitch>
				<duration>240</duration>
				<voice>1</voice>
				<type>quarter</type>
				<stem>down</stem>
			</note>
			<note>
				<pitch>
					<step>D</step>
					<octave>4</octave>
				</pitch>
				<duration>240</duration>
				<voice>1</voice>
				<type>quarter</type>
				<stem>down</stem>
			</note>
		</measure><!--
===========================================================
-->

		<measure number="19" width="207">
			<print new-system="no"></print>
			<attributes></attributes>
			<note>
				<pitch>
					<step>A</step>
					<octave>3</octave>
				</pitch>
				<duration>120</duration>
				<voice>1</voice>
				<type>eighth</type>
				<stem>down</stem>
			</note>
			<note>
				<pitch>
					<step>C</step>
					<octave>4</octave>
				</pitch>
				<duration>240</duration>
				<voice>1</voice>
				<type>quarter</type>
				<stem>down</stem>
			</note>
			<note>
				<pitch>
					<step>B</step>
					<octave>3</octave>
				</pitch>
				<duration>240</duration>
				<voice>1</voice>
				<type>quarter</type>
				<stem>down</stem>
			</note>
			<note>
				<pitch>
					<step>A</step>
					<octave>3</octave>
				</pitch>
				<duration>120</duration>
				<voice>1</voice>
				<type>eighth</type>
				<stem>down</stem>
			</note>
		</measure><!--
===========================================================
-->

		<measure number="20" width="189">
			<print new-system="yes">
				<system-layout>
					<system-margins>
						<left-margin>0</left-margin>
						<right-margin>0</right-margin>
					</system-margins>
					<system-distance>67</system-distance>
				</system-layout>
				<staff-layout number="1">
					<staff-distance>37</staff-distance>
				</staff-layout>
			</print>
			<attributes></attributes>
			<note>
				<pitch>
					<step>G</step>
					<octave>3</octave>
				</pitch>
				<duration>360</duration>
				<voice>1</voice>
				<type>quarter</type>
				<dot/>
				<stem>down</stem>
				<notations></notations>
			</note>
			<note>
				<pitch>
					<step>B</step>
					<octave>3</octave>
				</pitch>
				<duration>360</duration>
				<voice>1</voice>
				<type>quarter</type>
				<dot/>
				<stem>down</stem>
			</note>
		</measure><!--
===========================================================
-->

		<measure number="21" width="320">
			<print new-system="no"></print>
			<attributes></attributes>
			<note>
				<pitch>
					<step>A</step>
					<octave>3</octave>
				</pitch>
				<duration>480</duration>
				<voice>1</voice>
				<type>half</type>
				<stem>down</stem>
			</note>
			<note>
				<pitch>
					<step>D</step>
					<octave>4</octave>
				</pitch>
				<duration>240</duration>
				<voice>1</voice>
				<type>quarter</type>
				<stem>down</stem>
			</note>
		</measure><!--
===========================================================
-->

		<measure number="22" width="171">
			<print new-system="no"></print>
			<attributes></attributes>
			<note>
				<pitch>
					<step>C</step>
					<octave>4</octave>
				</pitch>
				<duration>360</duration>
				<voice>1</voice>
				<type>quarter</type>
				<dot/>
				<stem>down</stem>
			</note>
			<note>
				<pitch>
					<step>F</step>
					<octave>3</octave>
				</pitch>
				<duration>360</duration>
				<voice>1</voice>
				<type>quarter</type>
				<dot/>
				<stem>down</stem>
			</note>
		</measure><!--
===========================================================
-->

		<measure number="23" width="198">
			<print new-system="no"></print>
			<attributes></attributes>
			<note>
				<pitch>
					<step>G</step>
					<octave>3</octave>
				</pitch>
				<duration>240</duration>
				<voice>1</voice>
				<type>quarter</type>
				<stem>down</stem>
			</note>
			<note>
				<pitch>
					<step>B</step>
					<octave>3</octave>
				</pitch>
				<duration>120</duration>
				<voice>1</voice>
				<type>eighth</type>
				<stem>down</stem>
			</note>
			<note>
				<pitch>
					<step>A</step>
					<octave>3</octave>
				</pitch>
				<duration>120</duration>
				<voice>1</voice>
				<type>eighth</type>
				<stem>down</stem>
			</note>
			<note>
				<pitch>
					<step>G</step>
					<octave>3</octave>
				</pitch>
				<duration>240</duration>
				<voice>1</voice>
				<type>quarter</type>
				<stem>down</stem>
			</note>
		</measure><!--
===========================================================
-->

		<measure number="24" width="83">
			<print new-system="no"></print>
			<attributes></attributes>
			<note>
				<pitch>
					<step>F</step>
					<octave>3</octave>
				</pitch>
				<duration>960</duration>
				<voice>1</voice>
				<type>whole</type>
				<stem>none</stem>
			</note>
			<backup>
				<duration>240</duration>
			</backup>
			<barline location="right">
				<bar-style>light-heavy</bar-style>
			</barline>
		</measure>
	</part>
</score-partwise>