<?xml version="1.0" encoding="UTF-8" standalone="no"?>
<!DOCTYPE score-partwise PUBLIC "-//Recordare//DTD MusicXML 1.1 Partwise//EN" "http://www.musicxml.org/dtds/partwise.dtd">

<score-partwise version="2.0">
	<movement-title></movement-title>
	<identification>
		<creator type="composer"></creator>
		<encoding>
			<software>SmartScore 64 Pro</software>
			<encoding-date>2024-09-08</encoding-date>
			<supports attribute="new-system" element="print" type="yes" value="yes"/>
			<supports attribute="new-page" element="print" type="yes" value="yes"/>
		</encoding>
	</identification>
	<defaults>
		<scaling>
			<millimeters>6.00</millimeters>
			<tenths>40</tenths>
		</scaling>
		<page-layout>
			<page-height>1439.33</page-height>
			<page-width>1862.67</page-width>
			<page-margins type="both">
				<left-margin>320.98</left-margin>
				<right-margin>320.98</right-margin>
				<top-margin>512.00</top-margin>
				<bottom-margin>512.00</bottom-margin>
			</page-margins>
		</page-layout>
	</defaults>
	<part-list>
		<score-part id="P1">
			<part-name>Nylon Guitar</part-name>
			<part-abbreviation>GuitNyl</part-abbreviation>
			<score-instrument id="P1-S0V0">
				<instrument-name>Nylon String Guit.</instrument-name>
			</score-instrument>
			<midi-instrument id="P1-S0V0">
				<midi-channel>1</midi-channel>
				<midi-program>25</midi-program>
				<volume>78</volume>
				<pan>0</pan>
			</midi-instrument>
		</score-part>
	</part-list><!--
===========================================================
-->

	<part id="P1">
		<measure number="1" width="261">
			<print>
				<page-layout>
					<page-height>1439.33</page-height>
					<page-width>1862.67</page-width>
					<page-margins>
						<left-margin>320.98</left-margin>
						<right-margin>320.98</right-margin>
						<top-margin>512.00</top-margin>
						<bottom-margin>256.00</bottom-margin>
					</page-margins>
				</page-layout>
				<system-layout>
					<system-margins>
						<left-margin>183</left-margin>
						<right-margin>1</right-margin>
					</system-margins>
					<top-system-distance>24</top-system-distance>
				</system-layout>
			</print>
			<attributes>
				<divisions>40</divisions>
				<key>
					<fifths>0</fifths>
				</key>
				<time>
					<beats>6</beats>
					<beat-type>8</beat-type>
				</time>
				<clef>
					<sign>G</sign>
					<line>2</line>
					<clef-octave-change>-1</clef-octave-change>
				</clef>
				<staff-details number="1" print-object="yes">
					<staff-size>91</staff-size>
				</staff-details>
				<transpose>
					<diatonic>0</diatonic>
					<chromatic>0</chromatic>
					<octave-change>-1</octave-change>
				</transpose>
			</attributes>
			<attributes></attributes>
			<direction placement="below">
				<direction-type>
					<dynamics>
						<p/>
					</dynamics>
				</direction-type>
				<staff>1</staff>
				<sound dynamics="66"/>
			</direction>
			<note>
				<pitch>
					<step>D</step>
					<octave>4</octave>
				</pitch>
				<duration>20</duration>
				<voice>1</voice>
				<type>eighth</type>
				<stem>down</stem>
				<beam number="1">begin</beam>
			</note>
			<note>
				<pitch>
					<step>E</step>
					<octave>4</octave>
				</pitch>
				<duration>20</duration>
				<voice>1</voice>
				<type>eighth</type>
				<stem>down</stem>
				<beam number="1">continue</beam>
			</note>
			<note>
				<pitch>
					<step>D</step>
					<octave>4</octave>
				</pitch>
				<duration>20</duration>
				<voice>1</voice>
				<type>eighth</type>
				<stem>down</stem>
				<beam number="1">end</beam>
			</note>
			<note>
				<pitch>
					<step>C</step>
					<octave>4</octave>
				</pitch>
				<duration>20</duration>
				<voice>1</voice>
				<type>eighth</type>
				<stem>down</stem>
				<beam number="1">begin</beam>
			</note>
			<note>
				<pitch>
					<step>D</step>
					<octave>4</octave>
				</pitch>
				<duration>20</duration>
				<voice>1</voice>
				<type>eighth</type>
				<stem>down</stem>
				<beam number="1">continue</beam>
			</note>
			<note>
				<pitch>
					<step>C</step>
					<octave>4</octave>
				</pitch>
				<duration>20</duration>
				<voice>1</voice>
				<type>eighth</type>
				<stem>down</stem>
				<beam number="1">end</beam>
			</note>
		</measure><!--
===========================================================
-->

		<measure number="2" width="212">
			<print new-system="no"></print>
			<attributes></attributes>
			<note>
				<pitch>
					<step>B</step>
					<octave>3</octave>
				</pitch>
				<duration>20</duration>
				<voice>1</voice>
				<type>eighth</type>
				<stem>down</stem>
				<beam number="1">begin</beam>
			</note>
			<note>
				<pitch>
					<step>D</step>
					<octave>4</octave>
				</pitch>
				<duration>10</duration>
				<voice>1</voice>
				<type>16th</type>
				<stem>down</stem>
				<beam number="1">continue</beam>
				<beam number="2">begin</beam>
			</note>
			<note>
				<pitch>
					<step>C</step>
					<octave>4</octave>
				</pitch>
				<duration>10</duration>
				<voice>1</voice>
				<type>16th</type>
				<stem>down</stem>
				<beam number="1">continue</beam>
				<beam number="2">continue</beam>
			</note>
			<note>
				<pitch>
					<step>E</step>
					<octave>4</octave>
				</pitch>
				<duration>10</duration>
				<voice>1</voice>
				<type>16th</type>
				<stem>down</stem>
				<beam number="1">continue</beam>
				<beam number="2">continue</beam>
			</note>
			<note>
				<pitch>
					<step>D</step>
					<octave>4</octave>
				</pitch>
				<duration>10</duration>
				<voice>1</voice>
				<type>16th</type>
				<stem>down</stem>
				<beam number="1">end</beam>
				<beam number="2">end</beam>
			</note>
			<note>
				<pitch>
					<step>D</step>
					<octave>4</octave>
				</pitch>
				<duration>40</duration>
				<voice>1</voice>
				<type>quarter</type>
				<stem>down</stem>
			</note>
			<note>
				<pitch>
					<step>C</step>
					<octave>4</octave>
				</pitch>
				<duration>20</duration>
				<voice>1</voice>
				<type>eighth</type>
				<stem>down</stem>
			</note>
		</measure><!--
===========================================================
-->

		<measure number="3" width="180">
			<print new-system="no"></print>
			<attributes></attributes>
			<note>
				<pitch>
					<step>D</step>
					<octave>4</octave>
				</pitch>
				<duration>60</duration>
				<tie type="start"/>
				<voice>1</voice>
				<type>quarter</type>
				<dot/>
				<stem>down</stem>
				<notations>
					<tied type="start" number="1" orientation="over"/>
				</notations>
			</note>
			<note>
				<pitch>
					<step>D</step>
					<octave>4</octave>
				</pitch>
				<duration>40</duration>
				<tie type="stop"/>
				<voice>1</voice>
				<type>quarter</type>
				<stem>down</stem>
				<notations>
					<tied type="stop" number="1" orientation="over"/>
				</notations>
			</note>
			<note>
				<pitch>
					<step>D</step>
					<octave>4</octave>
				</pitch>
				<duration>20</duration>
				<voice>1</voice>
				<type>eighth</type>
				<stem>down</stem>
			</note>
		</measure><!--
===========================================================
-->

		<measure number="4" width="188">
			<print new-system="no"></print>
			<attributes></attributes>
			<note>
				<pitch>
					<step>C</step>
					<octave>4</octave>
				</pitch>
				<duration>20</duration>
				<voice>1</voice>
				<type>eighth</type>
				<stem>down</stem>
			</note>
			<note>
				<pitch>
					<step>E</step>
					<octave>4</octave>
				</pitch>
				<duration>40</duration>
				<voice>1</voice>
				<type>quarter</type>
				<stem>down</stem>
			</note>
			<note>
				<pitch>
					<step>D</step>
					<octave>4</octave>
				</pitch>
				<duration>40</duration>
				<voice>1</voice>
				<type>quarter</type>
				<stem>down</stem>
			</note>
			<note>
				<pitch>
					<step>C</step>
					<octave>4</octave>
				</pitch>
				<duration>20</duration>
				<voice>1</voice>
				<type>eighth</type>
				<stem>down</stem>
			</note>
		</measure><!--
===========================================================
-->

		<measure number="5" width="193">
			<print new-system="no"></print>
			<attributes></attributes>
			<note>
				<pitch>
					<step>D</step>
					<octave>4</octave>
				</pitch>
				<duration>20</duration>
				<voice>1</voice>
				<type>eighth</type>
				<stem>down</stem>
			</note>
			<note>
				<pitch>
					<step>B</step>
					<octave>3</octave>
				</pitch>
				<duration>40</duration>
				<voice>1</voice>
				<type>quarter</type>
				<stem>down</stem>
			</note>
			<note>
				<pitch>
					<step>A</step>
					<octave>3</octave>
				</pitch>
				<duration>40</duration>
				<voice>1</voice>
				<type>quarter</type>
				<stem>up</stem>
			</note>
			<note>
				<pitch>
					<step>G</step>
					<octave>3</octave>
				</pitch>
				<duration>20</duration>
				<voice>1</voice>
				<type>eighth</type>
				<stem>up</stem>
			</note>
		</measure><!--
===========================================================
-->

		<measure number="6" width="230">
			<print new-system="yes">
				<system-layout>
					<system-margins>
						<left-margin>0</left-margin>
						<right-margin>0</right-margin>
					</system-margins>
					<system-distance>102</system-distance>
				</system-layout>
			</print>
			<attributes>
				<staff-details number="1" print-object="yes">
					<staff-size>102</staff-size>
				</staff-details>
			</attributes>
			<note>
				<pitch>
					<step>F</step>
					<octave>3</octave>
				</pitch>
				<duration>40</duration>
				<voice>1</voice>
				<type>quarter</type>
				<stem>up</stem>
			</note>
			<note>
				<pitch>
					<step>G</step>
					<octave>3</octave>
				</pitch>
				<duration>20</duration>
				<voice>1</voice>
				<type>eighth</type>
				<stem>up</stem>
			</note>
			<note>
				<pitch>
					<step>A</step>
					<octave>3</octave>
				</pitch>
				<duration>40</duration>
				<voice>1</voice>
				<type>quarter</type>
				<stem>up</stem>
			</note>
			<note>
				<pitch>
					<step>G</step>
					<octave>3</octave>
				</pitch>
				<duration>20</duration>
				<voice>1</voice>
				<type>eighth</type>
				<stem>up</stem>
			</note>
		</measure><!--
===========================================================
-->

		<measure number="7" width="102">
			<print new-system="no"></print>
			<attributes></attributes>
			<note>
				<pitch>
					<step>A</step>
					<octave>3</octave>
				</pitch>
				<duration>120</duration>
				<voice>1</voice>
				<type>half</type>
				<dot/>
				<stem>up</stem>
			</note>
		</measure><!--
===========================================================
-->

		<measure number="8" width="168">
			<print new-system="no"></print>
			<attributes></attributes>
			<note>
				<pitch>
					<step>D</step>
					<octave>3</octave>
				</pitch>
				<duration>40</duration>
				<voice>1</voice>
				<type>quarter</type>
				<stem>up</stem>
			</note>
			<note>
				<pitch>
					<step>E</step>
					<octave>3</octave>
				</pitch>
				<duration>20</duration>
				<voice>1</voice>
				<type>eighth</type>
				<stem>up</stem>
			</note>
			<note>
				<pitch>
					<step>F</step>
					<octave>3</octave>
				</pitch>
				<duration>40</duration>
				<voice>1</voice>
				<type>quarter</type>
				<stem>up</stem>
			</note>
			<note>
				<pitch>
					<step>G</step>
					<octave>3</octave>
				</pitch>
				<duration>20</duration>
				<voice>1</voice>
				<type>eighth</type>
				<stem>up</stem>
			</note>
		</measure><!--
===========================================================
-->

		<measure number="9" width="206">
			<print new-system="no"></print>
			<attributes></attributes>
			<note>
				<pitch>
					<step>A</step>
					<octave>3</octave>
				</pitch>
				<duration>10</duration>
				<voice>1</voice>
				<type>16th</type>
				<stem>up</stem>
				<beam number="1">begin</beam>
				<beam number="2">begin</beam>
			</note>
			<note>
				<pitch>
					<step>B</step>
					<octave>3</octave>
				</pitch>
				<duration>10</duration>
				<voice>1</voice>
				<type>16th</type>
				<stem>up</stem>
				<beam number="1">end</beam>
				<beam number="2">end</beam>
			</note>
			<note>
				<pitch>
					<step>C</step>
					<octave>4</octave>
				</pitch>
				<duration>10</duration>
				<voice>1</voice>
				<type>16th</type>
				<stem>down</stem>
				<beam number="1">begin</beam>
				<beam number="2">begin</beam>
			</note>
			<note>
				<pitch>
					<step>D</step>
					<octave>4</octave>
				</pitch>
				<duration>10</duration>
				<voice>1</voice>
				<type>16th</type>
				<stem>down</stem>
				<beam number="1">continue</beam>
				<beam number="2">continue</beam>
			</note>
			<note>
				<pitch>
					<step>E</step>
					<octave>4</octave>
				</pitch>
				<duration>10</duration>
				<voice>1</voice>
				<type>16th</type>
				<stem>down</stem>
				<beam number="1">continue</beam>
				<beam number="2">continue</beam>
			</note>
			<note>
				<pitch>
					<step>D</step>
					<octave>4</octave>
				</pitch>
				<duration>10</duration>
				<voice>1</voice>
				<type>16th</type>
				<stem>down</stem>
				<beam number="1">end</beam>
				<beam number="2">end</beam>
			</note>
			<note>
				<pitch>
					<step>D</step>
					<octave>4</octave>
				</pitch>
				<duration>20</duration>
				<voice>1</voice>
				<type>eighth</type>
				<stem>down</stem>
			</note>
			<note>
				<pitch>
					<step>C</step>
					<octave>4</octave>
				</pitch>
				<duration>40</duration>
				<voice>1</voice>
				<type>quarter</type>
				<stem>down</stem>
			</note>
		</measure><!--
===========================================================
-->

		<measure number="10" width="167">
			<print new-system="no"></print>
			<attributes></attributes>
			<note>
				<pitch>
					<step>D</step>
					<octave>4</octave>
				</pitch>
				<duration>60</duration>
				<tie type="start"/>
				<voice>1</voice>
				<type>quarter</type>
				<dot/>
				<stem>down</stem>
				<notations>
					<tied type="start" number="1" orientation="over"/>
				</notations>
			</note>
			<note>
				<pitch>
					<step>D</step>
					<octave>4</octave>
				</pitch>
				<duration>40</duration>
				<tie type="stop"/>
				<voice>1</voice>
				<type>quarter</type>
				<stem>down</stem>
				<notations>
					<tied type="stop" number="1" orientation="over"/>
				</notations>
			</note>
			<note>
				<pitch>
					<step>D</step>
					<octave>4</octave>
				</pitch>
				<duration>20</duration>
				<voice>1</voice>
				<type>eighth</type>
				<stem>down</stem>
			</note>
		</measure><!--
===========================================================
-->

		<measure number="11" width="167">
			<print new-system="no"></print>
			<attributes></attributes>
			<note>
				<pitch>
					<step>A</step>
					<octave>3</octave>
				</pitch>
				<duration>20</duration>
				<voice>1</voice>
				<type>eighth</type>
				<stem>up</stem>
			</note>
			<note>
				<pitch>
					<step>A</step>
					<octave>3</octave>
				</pitch>
				<duration>40</duration>
				<voice>1</voice>
				<type>quarter</type>
				<stem>up</stem>
			</note>
			<note>
				<pitch>
					<step>C</step>
					<octave>4</octave>
				</pitch>
				<duration>40</duration>
				<voice>1</voice>
				<type>quarter</type>
				<stem>down</stem>
			</note>
			<note>
				<pitch>
					<step>C</step>
					<octave>4</octave>
				</pitch>
				<duration>20</duration>
				<voice>1</voice>
				<type>eighth</type>
				<stem>down</stem>
			</note>
		</measure><!--
===========================================================
-->

		<measure number="12" width="178">
			<print new-system="no"></print>
			<attributes></attributes>
			<note>
				<pitch>
					<step>A</step>
					<octave>3</octave>
				</pitch>
				<duration>20</duration>
				<voice>1</voice>
				<type>eighth</type>
				<stem>up</stem>
			</note>
			<note>
				<pitch>
					<step>A</step>
					<octave>3</octave>
				</pitch>
				<duration>40</duration>
				<voice>1</voice>
				<type>quarter</type>
				<stem>up</stem>
			</note>
			<note>
				<pitch>
					<step>F</step>
					<octave>3</octave>
				</pitch>
				<duration>40</duration>
				<voice>1</voice>
				<type>quarter</type>
				<stem>up</stem>
			</note>
			<note>
				<pitch>
					<step>F</step>
					<octave>3</octave>
				</pitch>
				<duration>20</duration>
				<voice>1</voice>
				<type>eighth</type>
				<stem>up</stem>
			</note>
		</measure><!--
===========================================================
-->

		<measure number="13" width="259">
			<print new-system="yes">
				<system-layout>
					<system-margins>
						<left-margin>2</left-margin>
						<right-margin>1</right-margin>
					</system-margins>
					<system-distance>98</system-distance>
				</system-layout>
			</print>
			<attributes></attributes>
			<note>
				<pitch>
					<step>D</step>
					<octave>3</octave>
				</pitch>
				<duration>20</duration>
				<voice>1</voice>
				<type>eighth</type>
				<stem>up</stem>
			</note>
			<note>
				<pitch>
					<step>D</step>
					<octave>3</octave>
				</pitch>
				<duration>40</duration>
				<voice>1</voice>
				<type>quarter</type>
				<stem>up</stem>
			</note>
			<note>
				<pitch>
					<step>C</step>
					<octave>4</octave>
				</pitch>
				<duration>60</duration>
				<voice>1</voice>
				<type>quarter</type>
				<dot/>
				<stem>down</stem>
			</note>
		</measure><!--
===========================================================
-->

		<measure number="14" width="210">
			<print new-system="no"></print>
			<attributes></attributes>
			<note>
				<pitch>
					<step>A</step>
					<octave>3</octave>
				</pitch>
				<duration>40</duration>
				<voice>1</voice>
				<type>quarter</type>
				<stem>up</stem>
			</note>
			<note>
				<pitch>
					<step>C</step>
					<octave>4</octave>
				</pitch>
				<duration>20</duration>
				<voice>1</voice>
				<type>eighth</type>
				<stem>down</stem>
			</note>
			<note>
				<pitch>
					<step>D</step>
					<octave>4</octave>
				</pitch>
				<duration>20</duration>
				<voice>1</voice>
				<type>eighth</type>
				<stem>down</stem>
			</note>
			<note>
				<pitch>
					<step>C</step>
					<octave>4</octave>
				</pitch>
				<duration>40</duration>
				<voice>1</voice>
				<type>quarter</type>
				<stem>down</stem>
			</note>
		</measure><!--
===========================================================
-->

		<measure number="15" width="208">
			<print new-system="no"></print>
			<attributes></attributes>
			<note>
				<pitch>
					<step>D</step>
					<octave>4</octave>
				</pitch>
				<duration>60</duration>
				<tie type="start"/>
				<voice>1</voice>
				<type>quarter</type>
				<dot/>
				<stem>down</stem>
				<notations>
					<tied type="start" number="1" orientation="over"/>
				</notations>
			</note>
			<note>
				<pitch>
					<step>D</step>
					<octave>4</octave>
				</pitch>
				<duration>40</duration>
				<tie type="stop"/>
				<voice>1</voice>
				<type>quarter</type>
				<stem>down</stem>
				<notations>
					<tied type="stop" number="1" orientation="over"/>
				</notations>
			</note>
			<note>
				<pitch>
					<step>D</step>
					<octave>4</octave>
				</pitch>
				<duration>20</duration>
				<voice>1</voice>
				<type>eighth</type>
				<stem>down</stem>
			</note>
		</measure><!--
===========================================================
-->

		<measure number="16" width="214">
			<print new-system="no"></print>
			<attributes></attributes>
			<note>
				<pitch>
					<step>C</step>
					<octave>4</octave>
				</pitch>
				<duration>20</duration>
				<voice>1</voice>
				<type>eighth</type>
				<stem>down</stem>
			</note>
			<note>
				<pitch>
					<step>C</step>
					<octave>4</octave>
				</pitch>
				<duration>40</duration>
				<voice>1</voice>
				<type>quarter</type>
				<stem>down</stem>
			</note>
			<note>
				<pitch>
					<step>E</step>
					<octave>4</octave>
				</pitch>
				<duration>40</duration>
				<voice>1</voice>
				<type>quarter</type>
				<stem>down</stem>
			</note>
			<note>
				<pitch>
					<step>E</step>
					<octave>4</octave>
				</pitch>
				<duration>20</duration>
				<voice>1</voice>
				<type>eighth</type>
				<stem>down</stem>
			</note>
		</measure><!--
===========================================================
-->

		<measure number="17" width="199">
			<print new-system="no"></print>
			<attributes></attributes>
			<note>
				<pitch>
					<step>C</step>
					<octave>4</octave>
				</pitch>
				<duration>40</duration>
				<voice>1</voice>
				<type>quarter</type>
				<stem>down</stem>
			</note>
			<note>
				<pitch>
					<step>D</step>
					<octave>4</octave>
				</pitch>
				<duration>20</duration>
				<voice>1</voice>
				<type>eighth</type>
				<stem>down</stem>
			</note>
			<note>
				<pitch>
					<step>B</step>
					<octave>3</octave>
				</pitch>
				<duration>20</duration>
				<voice>1</voice>
				<type>eighth</type>
				<stem>down</stem>
			</note>
			<note>
				<pitch>
					<step>C</step>
					<octave>4</octave>
				</pitch>
				<duration>40</duration>
				<voice>1</voice>
				<type>quarter</type>
				<stem>down</stem>
			</note>
		</measure><!--
===========================================================
-->

		<measure number="18" width="123">
			<print new-system="no"></print>
			<attributes></attributes>
			<note>
				<pitch>
					<step>D</step>
					<octave>4</octave>
				</pitch>
				<duration>120</duration>
				<voice>1</voice>
				<type>half</type>
				<dot/>
				<stem>down</stem>
			</note>
		</measure><!--
===========================================================
-->

		<measure number="19" width="290">
			<print new-system="yes" new-page="yes">
				<page-layout>
					<page-height>1439.33</page-height>
					<page-width>1862.67</page-width>
					<page-margins>
						<left-margin>332.09</left-margin>
						<right-margin>332.09</right-margin>
						<top-margin>-138.19</top-margin>
						<bottom-margin>-69.09</bottom-margin>
					</page-margins>
				</page-layout>
				<system-layout>
					<system-margins>
						<left-margin>0</left-margin>
						<right-margin>4</right-margin>
					</system-margins>
					<top-system-distance>0</top-system-distance>
				</system-layout>
			</print>
			<attributes>
				<staff-details number="1" print-object="yes">
					<staff-size>91</staff-size>
				</staff-details>
			</attributes>
			<note>
				<pitch>
					<step>C</step>
					<octave>4</octave>
				</pitch>
				<duration>40</duration>
				<voice>1</voice>
				<type>quarter</type>
				<stem>down</stem>
			</note>
			<note>
				<pitch>
					<step>D</step>
					<octave>4</octave>
				</pitch>
				<duration>20</duration>
				<voice>1</voice>
				<type>eighth</type>
				<stem>down</stem>
			</note>
			<note>
				<pitch>
					<step>B</step>
					<octave>3</octave>
				</pitch>
				<duration>40</duration>
				<voice>1</voice>
				<type>quarter</type>
				<stem>down</stem>
			</note>
			<note>
				<pitch>
					<step>C</step>
					<octave>4</octave>
				</pitch>
				<duration>20</duration>
				<voice>1</voice>
				<type>eighth</type>
				<stem>down</stem>
			</note>
		</measure><!--
===========================================================
-->

		<measure number="20" width="266">
			<print new-system="no"></print>
			<attributes></attributes>
			<note>
				<pitch>
					<step>A</step>
					<octave>3</octave>
				</pitch>
				<duration>20</duration>
				<voice>1</voice>
				<type>eighth</type>
				<stem>up</stem>
			</note>
			<note>
				<pitch>
					<step>A</step>
					<octave>3</octave>
				</pitch>
				<duration>20</duration>
				<voice>1</voice>
				<type>eighth</type>
				<stem>up</stem>
			</note>
			<note>
				<pitch>
					<step>B</step>
					<octave>3</octave>
				</pitch>
				<duration>20</duration>
				<voice>1</voice>
				<type>eighth</type>
				<stem>down</stem>
			</note>
			<note>
				<pitch>
					<step>G</step>
					<octave>3</octave>
				</pitch>
				<duration>20</duration>
				<voice>1</voice>
				<type>eighth</type>
				<stem>up</stem>
			</note>
			<note>
				<pitch>
					<step>G</step>
					<octave>3</octave>
				</pitch>
				<duration>20</duration>
				<voice>1</voice>
				<type>eighth</type>
				<stem>up</stem>
			</note>
			<note>
				<pitch>
					<step>A</step>
					<octave>3</octave>
				</pitch>
				<duration>20</duration>
				<voice>1</voice>
				<type>eighth</type>
				<stem>up</stem>
			</note>
		</measure><!--
===========================================================
-->

		<measure number="21" width="235">
			<print new-system="no"></print>
			<attributes></attributes>
			<note>
				<pitch>
					<step>F</step>
					<octave>3</octave>
				</pitch>
				<duration>40</duration>
				<voice>1</voice>
				<type>quarter</type>
				<stem>up</stem>
			</note>
			<note>
				<pitch>
					<step>G</step>
					<octave>3</octave>
				</pitch>
				<duration>20</duration>
				<voice>1</voice>
				<type>eighth</type>
				<stem>up</stem>
			</note>
			<note>
				<pitch>
					<step>F</step>
					<octave>3</octave>
				</pitch>
				<duration>40</duration>
				<voice>1</voice>
				<type>quarter</type>
				<stem>up</stem>
			</note>
			<note>
				<pitch>
					<step>E</step>
					<octave>3</octave>
				</pitch>
				<duration>20</duration>
				<voice>1</voice>
				<type>eighth</type>
				<stem>up</stem>
			</note>
		</measure><!--
===========================================================
-->

		<measure number="22" width="116">
			<print new-system="no"></print>
			<attributes></attributes>
			<note>
				<pitch>
					<step>D</step>
					<octave>3</octave>
				</pitch>
				<duration>120</duration>
				<voice>1</voice>
				<type>half</type>
				<dot/>
				<stem>up</stem>
			</note>
		</measure><!--
===========================================================
-->

		<measure number="23" width="285">
			<print new-system="no"></print>
			<attributes></attributes>
			<note>
				<pitch>
					<step>A</step>
					<octave>3</octave>
				</pitch>
				<duration>20</duration>
				<voice>1</voice>
				<type>eighth</type>
				<stem>up</stem>
				<beam number="1">begin</beam>
			</note>
			<note>
				<pitch>
					<step>B</step>
					<octave>3</octave>
				</pitch>
				<duration>20</duration>
				<voice>1</voice>
				<type>eighth</type>
				<stem>up</stem>
				<beam number="1">end</beam>
			</note>
			<note>
				<pitch>
					<step>C</step>
					<octave>4</octave>
				</pitch>
				<duration>20</duration>
				<voice>1</voice>
				<type>eighth</type>
				<stem>down</stem>
				<notations>
					<articulations>
						<staccato placement="below"/>
					</articulations>
				</notations>
			</note>
			<note>
				<pitch>
					<step>D</step>
					<octave>4</octave>
				</pitch>
				<duration>20</duration>
				<voice>1</voice>
				<type>eighth</type>
				<stem>down</stem>
				<beam number="1">begin</beam>
			</note>
			<note>
				<pitch>
					<step>B</step>
					<octave>3</octave>
				</pitch>
				<duration>20</duration>
				<voice>1</voice>
				<type>eighth</type>
				<stem>down</stem>
				<beam number="1">continue</beam>
			</note>
			<note>
				<pitch>
					<step>C</step>
					<octave>4</octave>
				</pitch>
				<duration>20</duration>
				<voice>1</voice>
				<type>eighth</type>
				<stem>down</stem>
				<beam number="1">end</beam>
			</note>
		</measure><!--
===========================================================
-->

		<measure number="24" width="249">
			<print new-system="yes">
				<system-layout>
					<system-margins>
						<left-margin>1</left-margin>
						<right-margin>4</right-margin>
					</system-margins>
					<system-distance>95</system-distance>
				</system-layout>
			</print>
			<attributes></attributes>
			<note>
				<pitch>
					<step>D</step>
					<octave>4</octave>
				</pitch>
				<duration>60</duration>
				<voice>1</voice>
				<type>quarter</type>
				<dot/>
				<stem>down</stem>
			</note>
			<note>
				<pitch>
					<step>A</step>
					<octave>3</octave>
				</pitch>
				<duration>40</duration>
				<voice>1</voice>
				<type>quarter</type>
				<stem>up</stem>
			</note>
			<note>
				<pitch>
					<step>D</step>
					<octave>4</octave>
				</pitch>
				<duration>20</duration>
				<voice>1</voice>
				<type>eighth</type>
				<stem>down</stem>
			</note>
		</measure><!--
===========================================================
-->

		<measure number="25" width="193">
			<print new-system="no"></print>
			<attributes></attributes>
			<note>
				<pitch>
					<step>C</step>
					<octave>4</octave>
				</pitch>
				<duration>20</duration>
				<voice>1</voice>
				<type>eighth</type>
				<stem>down</stem>
			</note>
			<note>
				<pitch>
					<step>B</step>
					<octave>3</octave>
				</pitch>
				<duration>40</duration>
				<voice>1</voice>
				<type>quarter</type>
				<stem>down</stem>
			</note>
			<note>
				<pitch>
					<step>A</step>
					<octave>3</octave>
				</pitch>
				<duration>60</duration>
				<voice>1</voice>
				<type>quarter</type>
				<dot/>
				<stem>up</stem>
			</note>
		</measure><!--
===========================================================
-->

		<measure number="26" width="199">
			<print new-system="no"></print>
			<attributes></attributes>
			<note>
				<pitch>
					<step>D</step>
					<octave>3</octave>
				</pitch>
				<duration>40</duration>
				<voice>1</voice>
				<type>quarter</type>
				<stem>up</stem>
			</note>
			<note>
				<pitch>
					<step>A</step>
					<octave>3</octave>
				</pitch>
				<duration>20</duration>
				<voice>1</voice>
				<type>eighth</type>
				<stem>up</stem>
			</note>
			<note>
				<pitch>
					<step>G</step>
					<octave>3</octave>
				</pitch>
				<duration>40</duration>
				<voice>1</voice>
				<type>quarter</type>
				<stem>up</stem>
			</note>
			<note>
				<pitch>
					<step>A</step>
					<octave>3</octave>
				</pitch>
				<duration>20</duration>
				<voice>1</voice>
				<type>eighth</type>
				<stem>up</stem>
			</note>
		</measure><!--
===========================================================
-->

		<measure number="27" width="198">
			<print new-system="no"></print>
			<attributes></attributes>
			<note>
				<pitch>
					<step>C</step>
					<octave>4</octave>
				</pitch>
				<duration>40</duration>
				<voice>1</voice>
				<type>quarter</type>
				<stem>down</stem>
			</note>
			<note>
				<pitch>
					<step>B</step>
					<octave>3</octave>
				</pitch>
				<duration>20</duration>
				<voice>1</voice>
				<type>eighth</type>
				<stem>down</stem>
			</note>
			<note>
				<pitch>
					<step>A</step>
					<octave>3</octave>
				</pitch>
				<duration>40</duration>
				<voice>1</voice>
				<type>quarter</type>
				<stem>up</stem>
			</note>
			<note>
				<pitch>
					<step>D</step>
					<octave>4</octave>
				</pitch>
				<duration>20</duration>
				<voice>1</voice>
				<type>eighth</type>
				<stem>down</stem>
			</note>
		</measure><!--
===========================================================
-->

		<measure number="28" width="220">
			<print new-system="no"></print>
			<attributes></attributes>
			<note>
				<pitch>
					<step>C</step>
					<octave>4</octave>
				</pitch>
				<duration>10</duration>
				<voice>1</voice>
				<type>16th</type>
				<stem>down</stem>
				<beam number="1">begin</beam>
				<beam number="2">begin</beam>
			</note>
			<note>
				<pitch>
					<step>D</step>
					<octave>4</octave>
				</pitch>
				<duration>10</duration>
				<voice>1</voice>
				<type>16th</type>
				<stem>down</stem>
				<beam number="1">continue</beam>
				<beam number="2">end</beam>
			</note>
			<note>
				<pitch>
					<step>E</step>
					<octave>4</octave>
				</pitch>
				<duration>20</duration>
				<voice>1</voice>
				<type>eighth</type>
				<stem>down</stem>
				<beam number="1">end</beam>
			</note>
			<note>
				<pitch>
					<step>D</step>
					<octave>4</octave>
				</pitch>
				<duration>20</duration>
				<voice>1</voice>
				<type>eighth</type>
				<stem>down</stem>
			</note>
			<note>
				<pitch>
					<step>D</step>
					<octave>4</octave>
				</pitch>
				<duration>40</duration>
				<voice>1</voice>
				<type>quarter</type>
				<stem>down</stem>
			</note>
			<note>
				<pitch>
					<step>C</step>
					<octave>4</octave>
				</pitch>
				<duration>20</duration>
				<voice>1</voice>
				<type>eighth</type>
				<stem>down</stem>
			</note>
		</measure><!--
===========================================================
-->

		<measure number="29" width="130">
			<print new-system="no"></print>
			<attributes></attributes>
			<note>
				<pitch>
					<step>D</step>
					<octave>4</octave>
				</pitch>
				<duration>120</duration>
				<voice>1</voice>
				<type>half</type>
				<dot/>
				<stem>down</stem>
			</note>
		</measure><!--
===========================================================
-->

		<measure number="30" width="249">
			<print new-system="yes">
				<system-layout>
					<system-margins>
						<left-margin>1</left-margin>
						<right-margin>3</right-margin>
					</system-margins>
					<system-distance>98</system-distance>
				</system-layout>
			</print>
			<attributes></attributes>
			<direction placement="below">
				<direction-type>
					<dynamics>
						<p/>
					</dynamics>
				</direction-type>
				<staff>1</staff>
				<sound dynamics="66"/>
			</direction>
			<note>
				<pitch>
					<step>D</step>
					<octave>3</octave>
				</pitch>
				<duration>40</duration>
				<voice>1</voice>
				<type>quarter</type>
				<stem>up</stem>
			</note>
			<note>
				<pitch>
					<step>F</step>
					<octave>3</octave>
				</pitch>
				<duration>40</duration>
				<voice>1</voice>
				<type>quarter</type>
				<stem>up</stem>
			</note>
			<note>
				<pitch>
					<step>E</step>
					<octave>3</octave>
				</pitch>
				<duration>40</duration>
				<voice>1</voice>
				<type>quarter</type>
				<stem>up</stem>
			</note>
		</measure><!--
===========================================================
-->

		<measure number="31" width="195">
			<print new-system="no"></print>
			<attributes></attributes>
			<note>
				<pitch>
					<step>F</step>
					<octave>3</octave>
				</pitch>
				<duration>40</duration>
				<voice>1</voice>
				<type>quarter</type>
				<stem>up</stem>
			</note>
			<note>
				<pitch>
					<step>A</step>
					<octave>3</octave>
				</pitch>
				<duration>40</duration>
				<voice>1</voice>
				<type>quarter</type>
				<stem>up</stem>
			</note>
			<note>
				<pitch>
					<step>G</step>
					<octave>3</octave>
				</pitch>
				<duration>40</duration>
				<voice>1</voice>
				<type>quarter</type>
				<stem>up</stem>
			</note>
		</measure><!--
===========================================================
-->

		<measure number="32" width="194">
			<print new-system="no"></print>
			<attributes></attributes>
			<note>
				<pitch>
					<step>A</step>
					<octave>3</octave>
				</pitch>
				<duration>40</duration>
				<voice>1</voice>
				<type>quarter</type>
				<stem>up</stem>
			</note>
			<note>
				<pitch>
					<step>C</step>
					<octave>4</octave>
				</pitch>
				<duration>40</duration>
				<voice>1</voice>
				<type>quarter</type>
				<stem>down</stem>
			</note>
			<note>
				<pitch>
					<step>B</step>
					<octave>3</octave>
				</pitch>
				<duration>40</duration>
				<voice>1</voice>
				<type>quarter</type>
				<stem>down</stem>
			</note>
		</measure><!--
===========================================================
-->

		<measure number="33" width="191">
			<print new-system="no"></print>
			<attributes></attributes>
			<note>
				<pitch>
					<step>D</step>
					<octave>4</octave>
				</pitch>
				<duration>40</duration>
				<voice>1</voice>
				<type>quarter</type>
				<stem>down</stem>
			</note>
			<note>
				<pitch>
					<step>C</step>
					<octave>4</octave>
				</pitch>
				<duration>40</duration>
				<voice>1</voice>
				<type>quarter</type>
				<stem>down</stem>
			</note>
			<note>
				<pitch>
					<step>B</step>
					<octave>3</octave>
				</pitch>
				<duration>40</duration>
				<voice>1</voice>
				<type>quarter</type>
				<stem>down</stem>
			</note>
		</measure><!--
===========================================================
-->

		<measure number="34" width="108">
			<print new-system="no"></print>
			<attributes></attributes>
			<note>
				<pitch>
					<step>A</step>
					<octave>3</octave>
				</pitch>
				<duration>120</duration>
				<voice>1</voice>
				<type>half</type>
				<dot/>
				<stem>up</stem>
			</note>
		</measure><!--
===========================================================
-->

		<measure number="35" width="254">
			<print new-system="no"></print>
			<attributes></attributes>
			<note>
				<pitch>
					<step>D</step>
					<octave>4</octave>
				</pitch>
				<duration>20</duration>
				<voice>1</voice>
				<type>eighth</type>
				<stem>down</stem>
				<beam number="1">begin</beam>
			</note>
			<note>
				<pitch>
					<step>E</step>
					<octave>4</octave>
				</pitch>
				<duration>10</duration>
				<voice>1</voice>
				<type>16th</type>
				<stem>down</stem>
				<beam number="1">continue</beam>
				<beam number="2">begin</beam>
			</note>
			<note>
				<pitch>
					<step>D</step>
					<octave>4</octave>
				</pitch>
				<duration>10</duration>
				<voice>1</voice>
				<type>16th</type>
				<stem>down</stem>
				<beam number="1">continue</beam>
				<beam number="2">continue</beam>
			</note>
			<note>
				<pitch>
					<step>C</step>
					<octave>4</octave>
				</pitch>
				<duration>10</duration>
				<voice>1</voice>
				<type>16th</type>
				<stem>down</stem>
				<beam number="1">continue</beam>
				<beam number="2">continue</beam>
			</note>
			<note>
				<pitch>
					<step>B</step>
					<octave>3</octave>
				</pitch>
				<duration>10</duration>
				<voice>1</voice>
				<type>16th</type>
				<stem>down</stem>
				<beam number="1">end</beam>
				<beam number="2">end</beam>
			</note>
			<note>
				<pitch>
					<step>A</step>
					<octave>3</octave>
				</pitch>
				<duration>40</duration>
				<voice>1</voice>
				<type>quarter</type>
				<stem>up</stem>
			</note>
			<note>
				<pitch>
					<step>G</step>
					<octave>3</octave>
				</pitch>
				<duration>20</duration>
				<voice>1</voice>
				<type>eighth</type>
				<stem>up</stem>
			</note>
		</measure><!--
===========================================================
-->

		<measure number="36" width="279">
			<print new-system="yes">
				<system-layout>
					<system-margins>
						<left-margin>1</left-margin>
						<right-margin>2</right-margin>
					</system-margins>
					<system-distance>96</system-distance>
				</system-layout>
			</print>
			<attributes>
				<staff-details number="1" print-object="yes">
					<staff-size>96</staff-size>
				</staff-details>
			</attributes>
			<note>
				<pitch>
					<step>F</step>
					<octave>3</octave>
				</pitch>
				<duration>10</duration>
				<voice>1</voice>
				<type>16th</type>
				<stem>up</stem>
				<beam number="1">begin</beam>
				<beam number="2">begin</beam>
			</note>
			<note>
				<pitch>
					<step>G</step>
					<octave>3</octave>
				</pitch>
				<duration>10</duration>
				<voice>1</voice>
				<type>16th</type>
				<stem>up</stem>
				<beam number="1">continue</beam>
				<beam number="2">continue</beam>
			</note>
			<note>
				<pitch>
					<step>A</step>
					<octave>3</octave>
				</pitch>
				<duration>10</duration>
				<voice>1</voice>
				<type>16th</type>
				<stem>up</stem>
				<beam number="1">continue</beam>
				<beam number="2">continue</beam>
			</note>
			<note>
				<pitch>
					<step>B</step>
					<octave>3</octave>
				</pitch>
				<duration>10</duration>
				<voice>1</voice>
				<type>16th</type>
				<stem>up</stem>
				<beam number="1">continue</beam>
				<beam number="2">end</beam>
			</note>
			<note>
				<pitch>
					<step>A</step>
					<octave>3</octave>
				</pitch>
				<duration>20</duration>
				<voice>1</voice>
				<type>eighth</type>
				<stem>up</stem>
				<beam number="1">end</beam>
			</note>
			<note>
				<pitch>
					<step>A</step>
					<octave>3</octave>
				</pitch>
				<duration>40</duration>
				<voice>1</voice>
				<type>quarter</type>
				<stem>up</stem>
			</note>
			<note>
				<pitch>
					<step>G</step>
					<octave>3</octave>
				</pitch>
				<duration>20</duration>
				<voice>1</voice>
				<type>eighth</type>
				<stem>up</stem>
			</note>
		</measure><!--
===========================================================
-->

		<measure number="37" width="185">
			<print new-system="no"></print>
			<attributes></attributes>
			<note>
				<pitch>
					<step>A</step>
					<octave>3</octave>
				</pitch>
				<duration>60</duration>
				<tie type="start"/>
				<voice>1</voice>
				<type>quarter</type>
				<dot/>
				<stem>up</stem>
				<notations>
					<tied type="start" number="1" orientation="under"/>
				</notations>
			</note>
			<note>
				<pitch>
					<step>A</step>
					<octave>3</octave>
				</pitch>
				<duration>40</duration>
				<tie type="stop"/>
				<voice>1</voice>
				<type>quarter</type>
				<stem>up</stem>
				<notations>
					<tied type="stop" number="1" orientation="under"/>
				</notations>
			</note>
			<note>
				<pitch>
					<step>G</step>
					<octave>3</octave>
				</pitch>
				<duration>20</duration>
				<voice>1</voice>
				<type>eighth</type>
				<stem>up</stem>
			</note>
		</measure><!--
===========================================================
-->

		<measure number="38" width="231">
			<print new-system="no"></print>
			<attributes></attributes>
			<note>
				<pitch>
					<step>A</step>
					<octave>3</octave>
				</pitch>
				<duration>10</duration>
				<voice>1</voice>
				<type>16th</type>
				<stem>down</stem>
				<beam number="1">begin</beam>
				<beam number="2">begin</beam>
			</note>
			<note>
				<pitch>
					<step>B</step>
					<octave>3</octave>
				</pitch>
				<duration>10</duration>
				<voice>1</voice>
				<type>16th</type>
				<stem>down</stem>
				<beam number="1">continue</beam>
				<beam number="2">continue</beam>
			</note>
			<note>
				<pitch>
					<step>C</step>
					<octave>4</octave>
				</pitch>
				<duration>10</duration>
				<voice>1</voice>
				<type>16th</type>
				<stem>down</stem>
				<beam number="1">continue</beam>
				<beam number="2">continue</beam>
			</note>
			<note>
				<pitch>
					<step>D</step>
					<octave>4</octave>
				</pitch>
				<duration>10</duration>
				<voice>1</voice>
				<type>16th</type>
				<stem>down</stem>
				<beam number="1">end</beam>
				<beam number="2">end</beam>
				<notations>
					<articulations>
						<tenuto placement="below"/>
					</articulations>
				</notations>
			</note>
			<note>
				<pitch>
					<step>C</step>
					<octave>4</octave>
				</pitch>
				<duration>20</duration>
				<voice>1</voice>
				<type>eighth</type>
				<stem>down</stem>
			</note>
			<note>
				<pitch>
					<step>D</step>
					<octave>4</octave>
				</pitch>
				<duration>20</duration>
				<voice>1</voice>
				<type>eighth</type>
				<stem>down</stem>
				<beam number="1">begin</beam>
			</note>
			<note>
				<pitch>
					<step>B</step>
					<octave>3</octave>
				</pitch>
				<duration>20</duration>
				<voice>1</voice>
				<type>eighth</type>
				<stem>down</stem>
				<beam number="1">continue</beam>
			</note>
			<note>
				<pitch>
					<step>C</step>
					<octave>4</octave>
				</pitch>
				<duration>20</duration>
				<voice>1</voice>
				<type>eighth</type>
				<stem>down</stem>
				<beam number="1">end</beam>
			</note>
		</measure><!--
===========================================================
-->

		<measure number="39" width="115">
			<print new-system="no"></print>
			<attributes></attributes>
			<note>
				<pitch>
					<step>D</step>
					<octave>4</octave>
				</pitch>
				<duration>120</duration>
				<voice>1</voice>
				<type>half</type>
				<dot/>
				<stem>down</stem>
			</note>
			<barline location="right">
				<bar-style>light-light</bar-style>
			</barline>
		</measure><!--
===========================================================
-->

		<measure number="40" width="180">
			<print new-system="no"></print>
			<attributes>
				<time>
					<beats>2</beats>
					<beat-type>4</beat-type>
				</time>
			</attributes>
			<note>
				<pitch>
					<step>E</step>
					<octave>4</octave>
				</pitch>
				<duration>20</duration>
				<voice>1</voice>
				<type>eighth</type>
				<stem>down</stem>
			</note>
			<note>
				<pitch>
					<step>C</step>
					<octave>4</octave>
				</pitch>
				<duration>20</duration>
				<voice>1</voice>
				<type>eighth</type>
				<stem>down</stem>
			</note>
			<note>
				<pitch>
					<step>D</step>
					<octave>4</octave>
				</pitch>
				<duration>20</duration>
				<voice>1</voice>
				<type>eighth</type>
				<stem>down</stem>
			</note>
			<note>
				<pitch>
					<step>B</step>
					<octave>3</octave>
				</pitch>
				<duration>20</duration>
				<voice>1</voice>
				<type>eighth</type>
				<stem>down</stem>
			</note>
		</measure><!--
===========================================================
-->

		<measure number="41" width="200">
			<print new-system="no"></print>
			<attributes></attributes>
			<note>
				<pitch>
					<step>A</step>
					<octave>3</octave>
				</pitch>
				<duration>10</duration>
				<voice>1</voice>
				<type>16th</type>
				<stem>up</stem>
				<beam number="1">begin</beam>
				<beam number="2">begin</beam>
			</note>
			<note>
				<pitch>
					<step>G</step>
					<octave>3</octave>
				</pitch>
				<duration>10</duration>
				<voice>1</voice>
				<type>16th</type>
				<stem>up</stem>
				<beam number="1">continue</beam>
				<beam number="2">continue</beam>
			</note>
			<note>
				<pitch>
					<step>F</step>
					<octave>3</octave>
				</pitch>
				<duration>10</duration>
				<voice>1</voice>
				<type>16th</type>
				<stem>up</stem>
				<beam number="1">continue</beam>
				<beam number="2">continue</beam>
			</note>
			<note>
				<pitch>
					<step>G</step>
					<octave>3</octave>
				</pitch>
				<duration>10</duration>
				<voice>1</voice>
				<type>16th</type>
				<stem>up</stem>
				<beam number="1">end</beam>
				<beam number="2">end</beam>
			</note>
			<note>
				<pitch>
					<step>F</step>
					<octave>3</octave>
				</pitch>
				<duration>20</duration>
				<voice>1</voice>
				<type>eighth</type>
				<stem>up</stem>
				<beam number="1">begin</beam>
			</note>
			<note>
				<pitch>
					<step>E</step>
					<octave>3</octave>
				</pitch>
				<duration>20</duration>
				<voice>1</voice>
				<type>eighth</type>
				<stem>up</stem>
				<beam number="1">end</beam>
			</note>
		</measure><!--
===========================================================
-->

		<measure number="42" width="181">
			<print new-system="yes">
				<system-layout>
					<system-margins>
						<left-margin>2</left-margin>
						<right-margin>2</right-margin>
					</system-margins>
					<system-distance>96</system-distance>
				</system-layout>
			</print>
			<attributes>
				<staff-details number="1" print-object="yes">
					<staff-size>91</staff-size>
				</staff-details>
			</attributes>
			<note>
				<pitch>
					<step>D</step>
					<octave>3</octave>
				</pitch>
				<duration>80</duration>
				<voice>1</voice>
				<type>half</type>
				<stem>up</stem>
			</note>
		</measure><!--
===========================================================
-->

		<measure number="43" width="209">
			<print new-system="no"></print>
			<attributes></attributes>
			<note>
				<pitch>
					<step>A</step>
					<octave>3</octave>
				</pitch>
				<duration>20</duration>
				<voice>1</voice>
				<type>eighth</type>
				<stem>up</stem>
			</note>
			<note>
				<pitch>
					<step>A</step>
					<octave>3</octave>
				</pitch>
				<duration>20</duration>
				<voice>1</voice>
				<type>eighth</type>
				<stem>up</stem>
			</note>
			<note>
				<pitch>
					<step>C</step>
					<octave>4</octave>
				</pitch>
				<duration>20</duration>
				<voice>1</voice>
				<type>eighth</type>
				<stem>down</stem>
			</note>
			<note>
				<pitch>
					<step>C</step>
					<octave>4</octave>
				</pitch>
				<duration>20</duration>
				<voice>1</voice>
				<type>eighth</type>
				<stem>down</stem>
			</note>
		</measure><!--
===========================================================
-->

		<measure number="44" width="230">
			<print new-system="no"></print>
			<attributes></attributes>
			<note>
				<pitch>
					<step>A</step>
					<octave>3</octave>
				</pitch>
				<duration>10</duration>
				<voice>1</voice>
				<type>16th</type>
				<stem>down</stem>
				<beam number="1">begin</beam>
				<beam number="2">begin</beam>
			</note>
			<note>
				<pitch>
					<step>B</step>
					<octave>3</octave>
				</pitch>
				<duration>10</duration>
				<voice>1</voice>
				<type>16th</type>
				<stem>down</stem>
				<beam number="1">continue</beam>
				<beam number="2">continue</beam>
				<notations>
					<articulations>
						<tenuto placement="below"/>
					</articulations>
				</notations>
			</note>
			<note>
				<pitch>
					<step>C</step>
					<octave>4</octave>
				</pitch>
				<duration>10</duration>
				<voice>1</voice>
				<type>16th</type>
				<stem>down</stem>
				<beam number="1">continue</beam>
				<beam number="2">continue</beam>
			</note>
			<note>
				<pitch>
					<step>D</step>
					<octave>4</octave>
				</pitch>
				<duration>10</duration>
				<voice>1</voice>
				<type>16th</type>
				<stem>down</stem>
				<beam number="1">end</beam>
				<beam number="2">end</beam>
				<notations>
					<articulations>
						<tenuto placement="below"/>
					</articulations>
				</notations>
			</note>
			<note>
				<pitch>
					<step>C</step>
					<octave>4</octave>
				</pitch>
				<duration>20</duration>
				<voice>1</voice>
				<type>eighth</type>
				<stem>down</stem>
				<beam number="1">begin</beam>
			</note>
			<note>
				<pitch>
					<step>B</step>
					<octave>3</octave>
				</pitch>
				<duration>10</duration>
				<voice>1</voice>
				<type>16th</type>
				<stem>down</stem>
				<beam number="1">continue</beam>
				<beam number="2">begin</beam>
			</note>
			<note>
				<pitch>
					<step>C</step>
					<octave>4</octave>
				</pitch>
				<duration>10</duration>
				<voice>1</voice>
				<type>16th</type>
				<stem>down</stem>
				<beam number="1">end</beam>
				<beam number="2">end</beam>
			</note>
		</measure><!--
===========================================================
-->

		<measure number="45" width="218">
			<print new-system="no"></print>
			<attributes></attributes>
			<note>
				<pitch>
					<step>D</step>
					<octave>4</octave>
				</pitch>
				<duration>10</duration>
				<voice>1</voice>
				<type>16th</type>
				<stem>down</stem>
				<beam number="1">begin</beam>
				<beam number="2">begin</beam>
			</note>
			<note>
				<pitch>
					<step>A</step>
					<octave>3</octave>
				</pitch>
				<duration>10</duration>
				<voice>1</voice>
				<type>16th</type>
				<stem>down</stem>
				<beam number="1">end</beam>
				<beam number="2">end</beam>
			</note>
			<note>
				<pitch>
					<step>A</step>
					<octave>3</octave>
				</pitch>
				<duration>10</duration>
				<voice>1</voice>
				<type>16th</type>
				<stem>down</stem>
				<beam number="1">begin</beam>
				<beam number="2">begin</beam>
				<notations>
					<articulations>
						<staccato placement="above"/>
					</articulations>
				</notations>
			</note>
			<note>
				<pitch>
					<step>D</step>
					<octave>4</octave>
				</pitch>
				<duration>10</duration>
				<voice>1</voice>
				<type>16th</type>
				<stem>down</stem>
				<beam number="1">end</beam>
				<beam number="2">end</beam>
			</note>
			<note>
				<pitch>
					<step>C</step>
					<octave>4</octave>
				</pitch>
				<duration>20</duration>
				<voice>1</voice>
				<type>eighth</type>
				<stem>down</stem>
				<beam number="1">begin</beam>
			</note>
			<note>
				<pitch>
					<step>B</step>
					<octave>3</octave>
				</pitch>
				<duration>20</duration>
				<voice>1</voice>
				<type>eighth</type>
				<stem>down</stem>
				<beam number="1">end</beam>
			</note>
		</measure><!--
===========================================================
-->

		<measure number="46" width="112">
			<print new-system="no"></print>
			<attributes></attributes>
			<note>
				<pitch>
					<step>A</step>
					<octave>3</octave>
				</pitch>
				<duration>80</duration>
				<voice>1</voice>
				<type>half</type>
				<stem>up</stem>
			</note>
		</measure><!--
===========================================================
-->

		<measure number="47" width="240">
			<print new-system="no"></print>
			<attributes></attributes>
			<note>
				<pitch>
					<step>D</step>
					<octave>4</octave>
				</pitch>
				<duration>10</duration>
				<voice>1</voice>
				<type>16th</type>
				<stem>down</stem>
			</note>
			<note>
				<pitch>
					<step>D</step>
					<octave>4</octave>
				</pitch>
				<duration>10</duration>
				<voice>1</voice>
				<type>16th</type>
				<stem>down</stem>
			</note>
			<note>
				<pitch>
					<step>B</step>
					<octave>3</octave>
				</pitch>
				<duration>20</duration>
				<voice>1</voice>
				<type>eighth</type>
				<stem>down</stem>
			</note>
			<note>
				<pitch>
					<step>C</step>
					<octave>4</octave>
				</pitch>
				<duration>20</duration>
				<voice>1</voice>
				<type>eighth</type>
				<stem>down</stem>
			</note>
			<note>
				<pitch>
					<step>A</step>
					<octave>3</octave>
				</pitch>
				<duration>20</duration>
				<voice>1</voice>
				<type>eighth</type>
				<stem>up</stem>
			</note>
		</measure><!--
===========================================================
-->

		<measure number="48" width="304">
			<print new-system="yes">
				<system-layout>
					<system-margins>
						<left-margin>1</left-margin>
						<right-margin>1</right-margin>
					</system-margins>
					<system-distance>94</system-distance>
				</system-layout>
			</print>
			<attributes>
				<staff-details number="1" print-object="yes">
					<staff-size>96</staff-size>
				</staff-details>
			</attributes>
			<note>
				<pitch>
					<step>D</step>
					<octave>4</octave>
				</pitch>
				<duration>10</duration>
				<voice>1</voice>
				<type>16th</type>
				<stem>down</stem>
			</note>
			<note>
				<pitch>
					<step>D</step>
					<octave>4</octave>
				</pitch>
				<duration>10</duration>
				<voice>1</voice>
				<type>16th</type>
				<stem>down</stem>
			</note>
			<note>
				<pitch>
					<step>B</step>
					<octave>3</octave>
				</pitch>
				<duration>20</duration>
				<voice>1</voice>
				<type>eighth</type>
				<stem>down</stem>
			</note>
			<note>
				<pitch>
					<step>C</step>
					<octave>4</octave>
				</pitch>
				<duration>20</duration>
				<voice>1</voice>
				<type>eighth</type>
				<stem>down</stem>
			</note>
			<note>
				<pitch>
					<step>A</step>
					<octave>3</octave>
				</pitch>
				<duration>20</duration>
				<voice>1</voice>
				<type>eighth</type>
				<stem>up</stem>
			</note>
		</measure><!--
===========================================================
-->

		<measure number="49" width="232">
			<print new-system="no"></print>
			<attributes></attributes>
			<note>
				<pitch>
					<step>A</step>
					<octave>3</octave>
				</pitch>
				<duration>10</duration>
				<voice>1</voice>
				<type>16th</type>
				<stem>down</stem>
				<beam number="1">begin</beam>
				<beam number="2">begin</beam>
				<notations>
					<articulations>
						<staccato placement="below"/>
					</articulations>
				</notations>
			</note>
			<note>
				<pitch>
					<step>B</step>
					<octave>3</octave>
				</pitch>
				<duration>10</duration>
				<voice>1</voice>
				<type>16th</type>
				<stem>down</stem>
				<beam number="1">continue</beam>
				<beam number="2">continue</beam>
				<notations>
					<articulations>
						<tenuto placement="below"/>
					</articulations>
				</notations>
			</note>
			<note>
				<pitch>
					<step>C</step>
					<octave>4</octave>
				</pitch>
				<duration>10</duration>
				<voice>1</voice>
				<type>16th</type>
				<stem>down</stem>
				<beam number="1">continue</beam>
				<beam number="2">continue</beam>
			</note>
			<note>
				<pitch>
					<step>D</step>
					<octave>4</octave>
				</pitch>
				<duration>10</duration>
				<voice>1</voice>
				<type>16th</type>
				<stem>down</stem>
				<beam number="1">end</beam>
				<beam number="2">end</beam>
			</note>
			<note>
				<pitch>
					<step>E</step>
					<octave>4</octave>
				</pitch>
				<duration>10</duration>
				<voice>1</voice>
				<type>16th</type>
				<stem>down</stem>
				<beam number="1">begin</beam>
				<beam number="2">begin</beam>
			</note>
			<note>
				<pitch>
					<step>D</step>
					<octave>4</octave>
				</pitch>
				<duration>10</duration>
				<voice>1</voice>
				<type>16th</type>
				<stem>down</stem>
				<beam number="1">continue</beam>
				<beam number="2">continue</beam>
				<notations>
					<articulations>
						<tenuto placement="above"/>
					</articulations>
				</notations>
			</note>
			<note>
				<pitch>
					<step>D</step>
					<octave>4</octave>
				</pitch>
				<duration>10</duration>
				<voice>1</voice>
				<type>16th</type>
				<stem>down</stem>
				<beam number="1">continue</beam>
				<beam number="2">continue</beam>
			</note>
			<note>
				<pitch>
					<step>C</step>
					<octave>4</octave>
				</pitch>
				<duration>10</duration>
				<voice>1</voice>
				<type>16th</type>
				<stem>down</stem>
				<beam number="1">end</beam>
				<beam number="2">end</beam>
			</note>
		</measure><!--
===========================================================
-->

		<measure number="50" width="125">
			<print new-system="no"></print>
			<attributes></attributes>
			<note>
				<pitch>
					<step>D</step>
					<octave>4</octave>
				</pitch>
				<duration>80</duration>
				<voice>1</voice>
				<type>half</type>
				<stem>down</stem>
			</note>
		</measure><!--
===========================================================
-->

		<measure number="51" width="203">
			<print new-system="no"></print>
			<attributes></attributes>
			<note>
				<pitch>
					<step>C</step>
					<octave>4</octave>
				</pitch>
				<duration>20</duration>
				<voice>1</voice>
				<type>eighth</type>
				<stem>down</stem>
			</note>
			<note>
				<pitch>
					<step>A</step>
					<octave>3</octave>
				</pitch>
				<duration>20</duration>
				<voice>1</voice>
				<type>eighth</type>
				<stem>up</stem>
			</note>
			<note>
				<pitch>
					<step>B</step>
					<octave>3</octave>
				</pitch>
				<duration>20</duration>
				<voice>1</voice>
				<type>eighth</type>
				<stem>down</stem>
			</note>
			<note>
				<pitch>
					<step>G</step>
					<octave>3</octave>
				</pitch>
				<duration>20</duration>
				<voice>1</voice>
				<type>eighth</type>
				<stem>up</stem>
			</note>
		</measure><!--
===========================================================
-->

		<measure number="52" width="194">
			<print new-system="no"></print>
			<attributes></attributes>
			<note>
				<pitch>
					<step>G</step>
					<octave>3</octave>
				</pitch>
				<duration>20</duration>
				<voice>1</voice>
				<type>eighth</type>
				<stem>up</stem>
			</note>
			<note>
				<pitch>
					<step>F</step>
					<octave>3</octave>
				</pitch>
				<duration>20</duration>
				<voice>1</voice>
				<type>eighth</type>
				<stem>up</stem>
			</note>
			<note>
				<pitch>
					<step>G</step>
					<octave>3</octave>
				</pitch>
				<duration>20</duration>
				<voice>1</voice>
				<type>eighth</type>
				<stem>up</stem>
				<beam number="1">begin</beam>
			</note>
			<note>
				<pitch>
					<step>E</step>
					<octave>3</octave>
				</pitch>
				<duration>20</duration>
				<voice>1</voice>
				<type>eighth</type>
				<stem>up</stem>
				<beam number="1">end</beam>
			</note>
		</measure><!--
===========================================================
-->

		<measure number="53" width="135">
			<print new-system="no"></print>
			<attributes></attributes>
			<note>
				<pitch>
					<step>D</step>
					<octave>3</octave>
				</pitch>
				<duration>80</duration>
				<voice>1</voice>
				<type>half</type>
				<stem>up</stem>
			</note>
		</measure><!--
===========================================================
-->

		<measure number="54" width="235">
			<print new-system="yes">
				<system-layout>
					<system-margins>
						<left-margin>0</left-margin>
						<right-margin>1</right-margin>
					</system-margins>
					<system-distance>96</system-distance>
				</system-layout>
			</print>
			<attributes></attributes>
			<note>
				<pitch>
					<step>F</step>
					<octave>3</octave>
				</pitch>
				<duration>20</duration>
				<voice>1</voice>
				<type>eighth</type>
				<stem>up</stem>
				<beam number="1">begin</beam>
			</note>
			<note>
				<pitch>
					<step>A</step>
					<octave>3</octave>
				</pitch>
				<duration>20</duration>
				<voice>1</voice>
				<type>eighth</type>
				<stem>up</stem>
				<beam number="1">end</beam>
			</note>
			<note>
				<pitch>
					<step>G</step>
					<octave>3</octave>
				</pitch>
				<duration>20</duration>
				<voice>1</voice>
				<type>eighth</type>
				<stem>up</stem>
				<beam number="1">begin</beam>
			</note>
			<note>
				<pitch>
					<step>B</step>
					<octave>3</octave>
				</pitch>
				<duration>20</duration>
				<voice>1</voice>
				<type>eighth</type>
				<stem>up</stem>
				<beam number="1">end</beam>
			</note>
		</measure><!--
===========================================================
-->

		<measure number="55" width="172">
			<print new-system="no"></print>
			<attributes></attributes>
			<note>
				<pitch>
					<step>A</step>
					<octave>3</octave>
				</pitch>
				<duration>20</duration>
				<voice>1</voice>
				<type>eighth</type>
				<stem>down</stem>
				<beam number="1">begin</beam>
			</note>
			<note>
				<pitch>
					<step>C</step>
					<octave>4</octave>
				</pitch>
				<duration>20</duration>
				<voice>1</voice>
				<type>eighth</type>
				<stem>down</stem>
				<beam number="1">end</beam>
			</note>
			<note>
				<pitch>
					<step>B</step>
					<octave>3</octave>
				</pitch>
				<duration>20</duration>
				<voice>1</voice>
				<type>eighth</type>
				<stem>down</stem>
				<beam number="1">begin</beam>
			</note>
			<note>
				<pitch>
					<step>D</step>
					<octave>4</octave>
				</pitch>
				<duration>20</duration>
				<voice>1</voice>
				<type>eighth</type>
				<stem>down</stem>
				<beam number="1">end</beam>
			</note>
		</measure><!--
===========================================================
-->

		<measure number="56" width="149">
			<print new-system="no"></print>
			<attributes></attributes>
			<note>
				<pitch>
					<step>C</step>
					<octave>4</octave>
				</pitch>
				<duration>40</duration>
				<voice>1</voice>
				<type>quarter</type>
				<stem>down</stem>
			</note>
			<note>
				<pitch>
					<step>B</step>
					<octave>3</octave>
				</pitch>
				<duration>40</duration>
				<voice>1</voice>
				<type>quarter</type>
				<stem>down</stem>
			</note>
		</measure><!--
===========================================================
-->

		<measure number="57" width="108">
			<print new-system="no"></print>
			<attributes></attributes>
			<note>
				<pitch>
					<step>A</step>
					<octave>3</octave>
				</pitch>
				<duration>80</duration>
				<voice>1</voice>
				<type>half</type>
				<stem>up</stem>
			</note>
		</measure><!--
===========================================================
-->

		<measure number="58" width="172">
			<print new-system="no"></print>
			<attributes></attributes>
			<note>
				<pitch>
					<step>D</step>
					<octave>4</octave>
				</pitch>
				<duration>20</duration>
				<voice>1</voice>
				<type>eighth</type>
				<stem>down</stem>
			</note>
			<note>
				<pitch>
					<step>C</step>
					<octave>4</octave>
				</pitch>
				<duration>20</duration>
				<voice>1</voice>
				<type>eighth</type>
				<stem>down</stem>
			</note>
			<note>
				<pitch>
					<step>C</step>
					<octave>4</octave>
				</pitch>
				<duration>20</duration>
				<voice>1</voice>
				<type>eighth</type>
				<stem>down</stem>
			</note>
			<note>
				<pitch>
					<step>D</step>
					<octave>4</octave>
				</pitch>
				<duration>20</duration>
				<voice>1</voice>
				<type>eighth</type>
				<stem>down</stem>
			</note>
		</measure><!--
===========================================================
-->

		<measure number="59" width="162">
			<print new-system="no"></print>
			<attributes></attributes>
			<note>
				<pitch>
					<step>E</step>
					<octave>4</octave>
				</pitch>
				<duration>20</duration>
				<voice>1</voice>
				<type>eighth</type>
				<stem>down</stem>
				<beam number="1">begin</beam>
			</note>
			<note>
				<pitch>
					<step>C</step>
					<octave>4</octave>
				</pitch>
				<duration>20</duration>
				<voice>1</voice>
				<type>eighth</type>
				<stem>down</stem>
				<beam number="1">end</beam>
			</note>
			<note>
				<pitch>
					<step>C</step>
					<octave>4</octave>
				</pitch>
				<duration>20</duration>
				<voice>1</voice>
				<type>eighth</type>
				<stem>down</stem>
				<beam number="1">begin</beam>
			</note>
			<note>
				<pitch>
					<step>D</step>
					<octave>4</octave>
				</pitch>
				<duration>20</duration>
				<voice>1</voice>
				<type>eighth</type>
				<stem>down</stem>
				<beam number="1">end</beam>
			</note>
		</measure><!--
===========================================================
-->

		<measure number="60" width="196">
			<print new-system="no"></print>
			<attributes></attributes>
			<note>
				<pitch>
					<step>D</step>
					<octave>4</octave>
				</pitch>
				<duration>20</duration>
				<voice>1</voice>
				<type>eighth</type>
				<stem>down</stem>
				<beam number="1">begin</beam>
			</note>
			<note>
				<pitch>
					<step>B</step>
					<octave>3</octave>
				</pitch>
				<duration>20</duration>
				<voice>1</voice>
				<type>eighth</type>
				<stem>down</stem>
				<beam number="1">end</beam>
			</note>
			<note>
				<pitch>
					<step>B</step>
					<octave>3</octave>
				</pitch>
				<duration>20</duration>
				<voice>1</voice>
				<type>eighth</type>
				<stem>down</stem>
				<beam number="1">begin</beam>
			</note>
			<note>
				<pitch>
					<step>C</step>
					<octave>4</octave>
				</pitch>
				<duration>20</duration>
				<voice>1</voice>
				<type>eighth</type>
				<stem>down</stem>
				<beam number="1">end</beam>
			</note>
		</measure><!--
===========================================================
-->

		<measure number="61" width="272">
			<print new-system="yes">
				<system-layout>
					<system-margins>
						<left-margin>1</left-margin>
						<right-margin>0</right-margin>
					</system-margins>
					<system-distance>93</system-distance>
				</system-layout>
			</print>
			<attributes></attributes>
			<note>
				<pitch>
					<step>C</step>
					<octave>4</octave>
				</pitch>
				<duration>20</duration>
				<voice>1</voice>
				<type>eighth</type>
				<stem>down</stem>
				<beam number="1">begin</beam>
			</note>
			<note>
				<pitch>
					<step>A</step>
					<octave>3</octave>
				</pitch>
				<duration>20</duration>
				<voice>1</voice>
				<type>eighth</type>
				<stem>down</stem>
				<beam number="1">end</beam>
			</note>
			<note>
				<pitch>
					<step>A</step>
					<octave>3</octave>
				</pitch>
				<duration>20</duration>
				<voice>1</voice>
				<type>eighth</type>
				<stem>up</stem>
				<beam number="1">begin</beam>
			</note>
			<note>
				<pitch>
					<step>B</step>
					<octave>3</octave>
				</pitch>
				<duration>20</duration>
				<voice>1</voice>
				<type>eighth</type>
				<stem>up</stem>
				<beam number="1">end</beam>
			</note>
		</measure><!--
===========================================================
-->

		<measure number="62" width="214">
			<print new-system="no"></print>
			<attributes></attributes>
			<note>
				<pitch>
					<step>C</step>
					<octave>4</octave>
				</pitch>
				<duration>20</duration>
				<voice>1</voice>
				<type>eighth</type>
				<stem>down</stem>
				<beam number="1">begin</beam>
			</note>
			<note>
				<pitch>
					<step>D</step>
					<octave>4</octave>
				</pitch>
				<duration>20</duration>
				<voice>1</voice>
				<type>eighth</type>
				<stem>down</stem>
				<beam number="1">end</beam>
			</note>
			<note>
				<pitch>
					<step>B</step>
					<octave>3</octave>
				</pitch>
				<duration>20</duration>
				<voice>1</voice>
				<type>eighth</type>
				<stem>down</stem>
				<beam number="1">begin</beam>
			</note>
			<note>
				<pitch>
					<step>C</step>
					<octave>4</octave>
				</pitch>
				<duration>20</duration>
				<voice>1</voice>
				<type>eighth</type>
				<stem>down</stem>
				<beam number="1">end</beam>
			</note>
		</measure><!--
===========================================================
-->

		<measure number="63" width="133">
			<print new-system="no"></print>
			<attributes></attributes>
			<note>
				<pitch>
					<step>D</step>
					<octave>4</octave>
				</pitch>
				<duration>80</duration>
				<voice>1</voice>
				<type>half</type>
				<stem>down</stem>
			</note>
		</measure><!--
===========================================================
-->

		<measure number="64" width="224">
			<print new-system="no"></print>
			<attributes></attributes>
			<note>
				<pitch>
					<step>A</step>
					<octave>3</octave>
				</pitch>
				<duration>20</duration>
				<voice>1</voice>
				<type>eighth</type>
				<stem>up</stem>
			</note>
			<note>
				<pitch>
					<step>D</step>
					<octave>4</octave>
				</pitch>
				<duration>20</duration>
				<voice>1</voice>
				<type>eighth</type>
				<stem>down</stem>
			</note>
			<note>
				<pitch>
					<step>E</step>
					<octave>4</octave>
				</pitch>
				<duration>10</duration>
				<voice>1</voice>
				<type>16th</type>
				<stem>down</stem>
				<beam number="1">begin</beam>
				<beam number="2">begin</beam>
			</note>
			<note>
				<pitch>
					<step>D</step>
					<octave>4</octave>
				</pitch>
				<duration>10</duration>
				<voice>1</voice>
				<type>16th</type>
				<stem>down</stem>
				<beam number="1">continue</beam>
				<beam number="2">continue</beam>
			</note>
			<note>
				<pitch>
					<step>C</step>
					<octave>4</octave>
				</pitch>
				<duration>10</duration>
				<voice>1</voice>
				<type>16th</type>
				<stem>down</stem>
				<beam number="1">continue</beam>
				<beam number="2">continue</beam>
			</note>
			<note>
				<pitch>
					<step>B</step>
					<octave>3</octave>
				</pitch>
				<duration>10</duration>
				<voice>1</voice>
				<type>16th</type>
				<stem>down</stem>
				<beam number="1">end</beam>
				<beam number="2">end</beam>
			</note>
		</measure><!--
===========================================================
-->

		<measure number="65" width="206">
			<print new-system="no"></print>
			<attributes></attributes>
			<note>
				<pitch>
					<step>A</step>
					<octave>3</octave>
				</pitch>
				<duration>20</duration>
				<voice>1</voice>
				<type>eighth</type>
				<stem>up</stem>
				<beam number="1">begin</beam>
			</note>
			<note>
				<pitch>
					<step>G</step>
					<octave>3</octave>
				</pitch>
				<duration>20</duration>
				<voice>1</voice>
				<type>eighth</type>
				<stem>up</stem>
				<beam number="1">end</beam>
			</note>
			<note>
				<pitch>
					<step>F</step>
					<octave>3</octave>
				</pitch>
				<duration>20</duration>
				<voice>1</voice>
				<type>eighth</type>
				<stem>up</stem>
				<beam number="1">begin</beam>
			</note>
			<note>
				<pitch>
					<step>E</step>
					<octave>3</octave>
				</pitch>
				<duration>20</duration>
				<voice>1</voice>
				<type>eighth</type>
				<stem>up</stem>
				<beam number="1">end</beam>
			</note>
		</measure><!--
===========================================================
-->

		<measure number="66" width="145">
			<print new-system="no"></print>
			<attributes></attributes>
			<note>
				<pitch>
					<step>D</step>
					<octave>3</octave>
				</pitch>
				<duration>80</duration>
				<voice>1</voice>
				<type>half</type>
				<stem>up</stem>
			</note>
		</measure><!--
===========================================================
-->

		<measure number="67" width="297">
			<print new-system="yes">
				<system-layout>
					<system-margins>
						<left-margin>1</left-margin>
						<right-margin>0</right-margin>
					</system-margins>
					<system-distance>100</system-distance>
				</system-layout>
			</print>
			<attributes></attributes>
			<note>
				<pitch>
					<step>A</step>
					<octave>3</octave>
				</pitch>
				<duration>10</duration>
				<voice>1</voice>
				<type>16th</type>
				<stem>up</stem>
			</note>
			<note>
				<pitch>
					<step>B</step>
					<octave>3</octave>
				</pitch>
				<duration>10</duration>
				<voice>1</voice>
				<type>16th</type>
				<stem>down</stem>
			</note>
			<note>
				<pitch>
					<step>C</step>
					<octave>4</octave>
				</pitch>
				<duration>10</duration>
				<voice>1</voice>
				<type>16th</type>
				<stem>down</stem>
			</note>
			<note>
				<pitch>
					<step>D</step>
					<octave>4</octave>
				</pitch>
				<duration>10</duration>
				<voice>1</voice>
				<type>16th</type>
				<stem>down</stem>
			</note>
			<note>
				<pitch>
					<step>C</step>
					<octave>4</octave>
				</pitch>
				<duration>20</duration>
				<voice>1</voice>
				<type>eighth</type>
				<stem>down</stem>
			</note>
			<note>
				<pitch>
					<step>B</step>
					<octave>3</octave>
				</pitch>
				<duration>10</duration>
				<voice>1</voice>
				<type>16th</type>
				<stem>down</stem>
				<beam number="1">begin</beam>
				<beam number="2">begin</beam>
			</note>
			<note>
				<pitch>
					<step>C</step>
					<octave>4</octave>
				</pitch>
				<duration>10</duration>
				<voice>1</voice>
				<type>16th</type>
				<stem>down</stem>
				<beam number="1">end</beam>
				<beam number="2">end</beam>
			</note>
		</measure><!--
===========================================================
-->

		<measure number="68" width="178">
			<print new-system="no"></print>
			<attributes></attributes>
			<note>
				<pitch>
					<step>D</step>
					<octave>4</octave>
				</pitch>
				<duration>20</duration>
				<voice>1</voice>
				<type>eighth</type>
				<stem>down</stem>
				<beam number="1">begin</beam>
			</note>
			<note>
				<pitch>
					<step>B</step>
					<octave>3</octave>
				</pitch>
				<duration>20</duration>
				<voice>1</voice>
				<type>eighth</type>
				<stem>down</stem>
				<beam number="1">end</beam>
			</note>
			<note>
				<pitch>
					<step>C</step>
					<octave>4</octave>
				</pitch>
				<duration>10</duration>
				<voice>1</voice>
				<type>16th</type>
				<stem>down</stem>
				<beam number="1">begin</beam>
				<beam number="2">begin</beam>
			</note>
			<note>
				<pitch>
					<step>A</step>
					<octave>3</octave>
				</pitch>
				<duration>10</duration>
				<voice>1</voice>
				<type>16th</type>
				<stem>down</stem>
				<beam number="1">end</beam>
				<beam number="2">end</beam>
				<notations>
					<articulations>
						<tenuto placement="below"/>
					</articulations>
				</notations>
			</note>
			<note>
				<pitch>
					<step>G</step>
					<octave>3</octave>
				</pitch>
				<duration>10</duration>
				<voice>1</voice>
				<type>16th</type>
				<stem>up</stem>
				<beam number="1">begin</beam>
				<beam number="2">begin</beam>
			</note>
			<note>
				<pitch>
					<step>A</step>
					<octave>3</octave>
				</pitch>
				<duration>10</duration>
				<voice>1</voice>
				<type>16th</type>
				<stem>up</stem>
				<beam number="1">end</beam>
				<beam number="2">end</beam>
			</note>
		</measure><!--
===========================================================
-->

		<measure number="69" width="150">
			<print new-system="no"></print>
			<attributes></attributes>
			<note>
				<pitch>
					<step>F</step>
					<octave>3</octave>
				</pitch>
				<duration>20</duration>
				<voice>1</voice>
				<type>eighth</type>
				<stem>up</stem>
				<beam number="1">begin</beam>
			</note>
			<note>
				<pitch>
					<step>E</step>
					<octave>3</octave>
				</pitch>
				<duration>10</duration>
				<voice>1</voice>
				<type>16th</type>
				<stem>up</stem>
				<beam number="1">continue</beam>
				<beam number="2">begin</beam>
			</note>
			<note>
				<pitch>
					<step>F</step>
					<octave>3</octave>
				</pitch>
				<duration>10</duration>
				<voice>1</voice>
				<type>16th</type>
				<stem>up</stem>
				<beam number="1">end</beam>
				<beam number="2">end</beam>
			</note>
			<note>
				<pitch>
					<step>D</step>
					<octave>3</octave>
				</pitch>
				<duration>40</duration>
				<voice>1</voice>
				<type>quarter</type>
				<stem>up</stem>
			</note>
		</measure><!--
===========================================================
-->

		<measure number="70" width="167">
			<print new-system="no"></print>
			<attributes></attributes>
			<note>
				<pitch>
					<step>F</step>
					<octave>3</octave>
				</pitch>
				<duration>20</duration>
				<voice>1</voice>
				<type>eighth</type>
				<stem>up</stem>
			</note>
			<note>
				<pitch>
					<step>F</step>
					<octave>3</octave>
				</pitch>
				<duration>20</duration>
				<voice>1</voice>
				<type>eighth</type>
				<stem>up</stem>
			</note>
			<note>
				<pitch>
					<step>E</step>
					<octave>3</octave>
				</pitch>
				<duration>20</duration>
				<voice>1</voice>
				<type>eighth</type>
				<stem>up</stem>
			</note>
			<note>
				<pitch>
					<step>E</step>
					<octave>3</octave>
				</pitch>
				<duration>20</duration>
				<voice>1</voice>
				<type>eighth</type>
				<stem>up</stem>
			</note>
		</measure><!--
===========================================================
-->

		<measure number="71" width="106">
			<print new-system="no"></print>
			<attributes></attributes>
			<note>
				<pitch>
					<step>D</step>
					<octave>3</octave>
				</pitch>
				<duration>80</duration>
				<voice>1</voice>
				<type>half</type>
				<stem>up</stem>
			</note>
		</measure><!--
===========================================================
-->

		<measure number="72" width="155">
			<print new-system="no"></print>
			<attributes></attributes>
			<note>
				<pitch>
					<step>A</step>
					<octave>3</octave>
				</pitch>
				<duration>20</duration>
				<voice>1</voice>
				<type>eighth</type>
				<stem>down</stem>
				<beam number="1">begin</beam>
				<notations>
					<articulations>
						<staccato placement="below"/>
					</articulations>
				</notations>
			</note>
			<note>
				<pitch>
					<step>C</step>
					<octave>4</octave>
				</pitch>
				<duration>20</duration>
				<voice>1</voice>
				<type>eighth</type>
				<stem>down</stem>
				<beam number="1">end</beam>
			</note>
			<note>
				<pitch>
					<step>D</step>
					<octave>4</octave>
				</pitch>
				<duration>20</duration>
				<voice>1</voice>
				<type>eighth</type>
				<stem>down</stem>
				<beam number="1">begin</beam>
			</note>
			<note>
				<pitch>
					<step>C</step>
					<octave>4</octave>
				</pitch>
				<duration>20</duration>
				<voice>1</voice>
				<type>eighth</type>
				<stem>down</stem>
				<beam number="1">end</beam>
			</note>
		</measure><!--
===========================================================
-->

		<measure number="73" width="140">
			<print new-system="no"></print>
			<attributes></attributes>
			<note>
				<pitch>
					<step>D</step>
					<octave>4</octave>
				</pitch>
				<duration>80</duration>
				<voice>1</voice>
				<type>half</type>
				<stem>down</stem>
			</note>
			<barline location="right">
				<bar-style>light-heavy</bar-style>
			</barline>
		</measure>
	</part>
</score-partwise>