<?xml version="1.0" encoding="UTF-8" standalone="no"?><!DOCTYPE score-partwise PUBLIC "-//Recordare//DTD MusicXML 2.0 Partwise//EN" "http://www.musicxml.org/dtds/partwise.dtd"><score-partwise version="2.0">	<work>		<work-title>6.</work-title>	</work>	<identification>		<creator type="composer">Epulemur in azimisfol. 210r</creator>		<creator type="poet">Epulemur in azimisfol. 210r</creator>		<encoding>			<software>PDFtoMusic Pro - 64-bits v2.0.0d Build 29A6A (c) Myriad - http://www.myriad-online.com</software>			<?PDFtoMusic Document type 0100- 5A50330C?>			<supports attribute="new-system" element="print" type="yes" value="yes"/>			<supports attribute="new-page" element="print" type="yes" value="yes"/>		</encoding>	</identification>	<defaults>		<scaling>			<millimeters>6.095989</millimeters>			<tenths>40</tenths>		</scaling>		<page-layout>			<page-height>1949.078</page-height>			<page-width>1377.317</page-width>			<page-margins type="both">				<left-margin>65.617</left-margin>				<right-margin>65.617</right-margin>				<top-margin>65.617</top-margin>				 <bottom-margin>65.617</bottom-margin>			</page-margins>		</page-layout>		<appearance>			<line-width type="stem">1.1111</line-width>			<line-width type="staff">1.1111</line-width>			<line-width type="light barline">1.0648</line-width>			<line-width type="heavy barline">3.3333</line-width>			<line-width type="leger">1.6666</line-width>		</appearance>	</defaults>	<credit page="1">		<credit-type>subtitle</credit-type>		<credit-words  default-x="687.869" default-y="1734.636" justify="center" valign="baseline" font-family="Times New Roman" font-size="15.000000" font-weight="bold" font-style="normal">Epulemur in azimisfol. 210r</credit-words>	</credit>	<credit page="1">		<credit-words  default-x="647.224" default-y="231.298" justify="left" valign="baseline" font-family="Times New Roman" font-size="15.000000" font-weight="bold" font-style="normal">D. S.</credit-words>	</credit>	<credit page="1">		<credit-words  default-x="670.557" default-y="82.409" justify="left" valign="baseline" font-family="Times New Roman" font-size="14.500000" font-weight="normal" font-style="normal">51</credit-words>	</credit>	<credit page="1">		<credit-type>title</credit-type>		<credit-words  default-x="675.002" default-y="1774.637" justify="left" valign="baseline" font-family="Times New Roman" font-size="15.000000" font-weight="bold" font-style="normal">6.</credit-words>	</credit>	<part-list>		<score-part id="P1">			<part-name></part-name>			<score-instrument id="P1-I1">				<instrument-name>Instrument 1</instrument-name>			</score-instrument>			<midi-instrument id="P1-I1">				<midi-channel>1</midi-channel>				<midi-bank>4</midi-bank>				<midi-program>53</midi-program>				<volume>50</volume>				<pan>0</pan>				<elevation>0</elevation>				<?Myriad				<iddigit>5230</iddigit>				?>			</midi-instrument>			<?Myriad			<virtualVoice id="P1-I1" default="5230">			</virtualVoice>			?>		</score-part>	</part-list>	<part id="P1">		<!--==========================[1,1]=============================-->		<measure number="1" width="149">			<sound tempo="80" />			<print new-page="yes">				<system-layout>					<system-margins>						<left-margin>95.494</left-margin>						<right-margin>67.130</right-margin>					</system-margins>					<top-system-distance>284.380</top-system-distance>				</system-layout>			</print>			<attributes>				<divisions>6720</divisions>				<time symbol="cut">					<beats>2</beats>					<beat-type>2</beat-type>				</time>				<clef number="1">					<sign>G</sign>					<line>2</line>					<clef-octave-change>-1</clef-octave-change>				</clef>				<staff-details number="1" print-object="yes">					<staff-lines>5</staff-lines>					<staff-size>100.00</staff-size>				</staff-details>			</attributes>			<note>				<pitch>					<step>B</step>					<octave>3</octave>				</pitch>				<duration>3360</duration>				<voice>1</voice>				<type>eighth</type>				<stem default-y="-55.55">down</stem>				<lyric number="1" justify="center" default-y="-80.00">					<syllabic>begin</syllabic>					<text font-family="Times New Roman" font-size="12.000010" font-weight="normal" font-style="normal" xml:lang="la">E</text>				</lyric>				<lyric number="2" justify="center" default-y="-110.00">					<syllabic>middle</syllabic>					<text font-family="Times New Roman" font-size="12.000010" font-weight="normal" font-style="normal" xml:lang="la">gra</text>				</lyric>			</note>		</measure>		<!--==========================[1,2]=============================-->		<measure number="2" width="150">			<note>				<pitch>					<step>C</step>					<octave>4</octave>				</pitch>				<duration>13440</duration>				<voice>1</voice>				<type>half</type>				<stem default-y="-50.28">down</stem>				<lyric number="1" justify="center" default-y="-80.00">					<syllabic>middle</syllabic>					<text font-family="Times New Roman" font-size="12.000010" font-weight="normal" font-style="normal" xml:lang="la">pu</text>				</lyric>				<lyric number="2" justify="center" default-y="-110.00">					<syllabic>middle</syllabic>					<text font-family="Times New Roman" font-size="12.000010" font-weight="normal" font-style="normal" xml:lang="la">tu</text>				</lyric>			</note>			<note>				<pitch>					<step>C</step>					<octave>4</octave>				</pitch>				<duration>13440</duration>				<voice>1</voice>				<type>half</type>				<stem default-y="-50.28">down</stem>				<lyric number="1" justify="center" default-y="-80.00">					<syllabic>middle</syllabic>					<text font-family="Times New Roman" font-size="12.000010" font-weight="normal" font-style="normal" xml:lang="la">le</text>				</lyric>				<lyric number="2" justify="center" default-y="-110.00">					<syllabic>middle</syllabic>					<text font-family="Times New Roman" font-size="12.000010" font-weight="normal" font-style="normal" xml:lang="la">le</text>				</lyric>			</note>		</measure>		<!--==========================[1,3]=============================-->		<measure number="3" width="159">			<note>				<pitch>					<step>B</step>					<octave>3</octave>				</pitch>				<duration>13440</duration>				<voice>1</voice>				<type>half</type>				<stem default-y="-55.28">down</stem>				<lyric number="1" justify="center" default-y="-80.00">					<syllabic>end</syllabic>					<text font-family="Times New Roman" font-size="12.000010" font-weight="normal" font-style="normal" xml:lang="la">mur</text>				</lyric>				<lyric number="2" justify="center" default-y="-110.00">					<syllabic>single</syllabic>					<text font-family="Times New Roman" font-size="12.000010" font-weight="normal" font-style="normal" xml:lang="la">mur</text>				</lyric>			</note>			<note>				<pitch>					<step>B</step>					<octave>3</octave>				</pitch>				<duration>13440</duration>				<voice>1</voice>				<type>half</type>				<stem default-y="-55.28">down</stem>				<lyric number="1" justify="center" default-y="-80.00">					<syllabic>single</syllabic>					<text font-family="Times New Roman" font-size="12.000010" font-weight="normal" font-style="normal" xml:lang="la">in</text>				</lyric>				<lyric number="2" justify="center" default-y="-110.00">					<syllabic>single</syllabic>					<text font-family="Times New Roman" font-size="12.000010" font-weight="normal" font-style="normal" xml:lang="la">in</text>				</lyric>			</note>		</measure>		<!--==========================[1,4]=============================-->		<measure number="4" width="153">			<note>				<pitch>					<step>A</step>					<octave>3</octave>				</pitch>				<duration>13440</duration>				<voice>1</voice>				<type>half</type>				<stem default-y="9.72">up</stem>				<lyric number="1" justify="center" default-y="-80.00">					<syllabic>begin</syllabic>					<text font-family="Times New Roman" font-size="12.000010" font-weight="normal" font-style="normal" xml:lang="la">a</text>				</lyric>				<lyric number="2" justify="center" default-y="-110.00">					<syllabic>middle</syllabic>					<text font-family="Times New Roman" font-size="12.000010" font-weight="normal" font-style="normal" xml:lang="la">lau</text>				</lyric>			</note>			<note>				<pitch>					<step>A</step>					<octave>3</octave>				</pitch>				<duration>13440</duration>				<voice>1</voice>				<type>half</type>				<stem default-y="9.72">up</stem>				<lyric number="1" justify="center" default-y="-80.00">					<syllabic>middle</syllabic>					<text font-family="Times New Roman" font-size="12.000010" font-weight="normal" font-style="normal" xml:lang="la">zi</text>				</lyric>				<lyric number="2" justify="center" default-y="-110.00">					<syllabic>middle</syllabic>					<text font-family="Times New Roman" font-size="12.000010" font-weight="normal" font-style="normal" xml:lang="la">di</text>				</lyric>			</note>		</measure>		<!--==========================[1,5]=============================-->		<measure number="5" width="167">			<note>				<pitch>					<step>G</step>					<octave>3</octave>				</pitch>				<duration>20160</duration>				<voice>1</voice>				<type>half</type>				<dot/>				<stem default-y="4.72">up</stem>				<lyric number="1" justify="center" default-y="-80.00">					<syllabic>end</syllabic>					<text font-family="Times New Roman" font-size="12.000010" font-weight="normal" font-style="normal" xml:lang="la">mis</text>				</lyric>				<lyric number="2" justify="center" default-y="-110.00">					<syllabic>single</syllabic>					<text font-family="Times New Roman" font-size="12.000010" font-weight="normal" font-style="normal" xml:lang="la">bus</text>				</lyric>			</note>			<note>				<rest>				</rest>				<duration>3360</duration>				<voice>1</voice>				<type>eighth</type>			</note>			<note>				<pitch>					<step>B</step>					<octave>3</octave>				</pitch>				<duration>3360</duration>				<voice>1</voice>				<type>eighth</type>				<stem default-y="-55.55">down</stem>				<lyric number="1" justify="center" default-y="-80.00">					<syllabic>begin</syllabic>					<text font-family="Times New Roman" font-size="12.000010" font-weight="normal" font-style="normal" xml:lang="la">sin</text>				</lyric>				<lyric number="2" justify="center" default-y="-110.00">					<syllabic>middle</syllabic>					<text font-family="Times New Roman" font-size="12.000010" font-weight="normal" font-style="normal" xml:lang="la">pre</text>				</lyric>			</note>		</measure>		<!--==========================[1,6]=============================-->		<measure number="6" width="152">			<note>				<pitch>					<step>C</step>					<octave>4</octave>				</pitch>				<duration>13440</duration>				<voice>1</voice>				<type>half</type>				<stem default-y="-50.28">down</stem>				<lyric number="1" justify="center" default-y="-80.00">					<syllabic>middle</syllabic>					<text font-family="Times New Roman" font-size="12.000010" font-weight="normal" font-style="normal" xml:lang="la">ce</text>				</lyric>				<lyric number="2" justify="center" default-y="-110.00">					<syllabic>middle</syllabic>					<text font-family="Times New Roman" font-size="12.000010" font-weight="normal" font-style="normal" xml:lang="la">cel</text>				</lyric>			</note>			<note>				<pitch>					<step>G</step>					<octave>3</octave>				</pitch>				<duration>13440</duration>				<voice>1</voice>				<type>half</type>				<stem default-y="4.72">up</stem>				<lyric number="1" justify="center" default-y="-80.00">					<syllabic>middle</syllabic>					<text font-family="Times New Roman" font-size="12.000010" font-weight="normal" font-style="normal" xml:lang="la">ri</text>				</lyric>				<lyric number="2" justify="center" default-y="-110.00">					<syllabic>end</syllabic>					<text font-family="Times New Roman" font-size="12.000010" font-weight="normal" font-style="normal" xml:lang="la">se</text>				</lyric>			</note>		</measure>		<!--==========================[1,7]=============================-->		<measure number="7" width="149">			<note>				<pitch>					<step>G</step>					<octave>3</octave>				</pitch>				<duration>13440</duration>				<voice>1</voice>				<type>half</type>				<stem default-y="4.72">up</stem>				<lyric number="1" justify="center" default-y="-80.00">					<syllabic>begin</syllabic>					<text font-family="Times New Roman" font-size="12.000010" font-weight="normal" font-style="normal" xml:lang="la">ta</text>				</lyric>				<lyric number="2" justify="center" default-y="-110.00">					<syllabic>middle</syllabic>					<text font-family="Times New Roman" font-size="12.000010" font-weight="normal" font-style="normal" xml:lang="la">de</text>				</lyric>			</note>			<note>				<pitch>					<step>F</step>					<octave>3</octave>				</pitch>				<duration>13440</duration>				<voice>1</voice>				<type>half</type>				<stem default-y="-0.28">up</stem>				<lyric number="1" justify="center" default-y="-80.00">					<syllabic>end</syllabic>					<text font-family="Times New Roman" font-size="12.000010" font-weight="normal" font-style="normal" xml:lang="la">tis</text>				</lyric>				<lyric number="2" justify="center" default-y="-110.00">					<syllabic>single</syllabic>					<text font-family="Times New Roman" font-size="12.000010" font-weight="normal" font-style="normal" xml:lang="la">i</text>				</lyric>			</note>		</measure>		<!--==========================[1,8]=============================-->		<measure number="8" width="199">			<print new-system="yes">				<system-layout>					<system-margins>						<left-margin>95.494</left-margin>						<right-margin>67.130</right-margin>					</system-margins>					<system-distance>157.778</system-distance>				</system-layout>			</print>			<attributes>				<staff-details number="1" print-object="yes">				</staff-details>			</attributes>			<note>				<pitch>					<step>E</step>					<octave>3</octave>				</pitch>				<duration>13440</duration>				<voice>1</voice>				<type>half</type>				<stem default-y="-5.28">up</stem>				<lyric number="1" justify="center" default-y="-80.56">					<syllabic>begin</syllabic>					<text font-family="Times New Roman" font-size="12.000010" font-weight="normal" font-style="normal" xml:lang="la">vin</text>				</lyric>				<lyric number="2" justify="center" default-y="-110.56">					<syllabic>middle</syllabic>					<text font-family="Times New Roman" font-size="12.000010" font-weight="normal" font-style="normal" xml:lang="la">vir</text>				</lyric>			</note>			<note>				<pitch>					<step>D</step>					<octave>3</octave>				</pitch>				<duration>13440</duration>				<voice>1</voice>				<type>half</type>				<stem default-y="-10.28">up</stem>				<lyric number="2" justify="center" default-y="-110.56">					<syllabic>middle</syllabic>					<text font-family="Times New Roman" font-size="12.000010" font-weight="normal" font-style="normal" xml:lang="la">gi</text>				</lyric>			</note>		</measure>		<!--==========================[1,9]=============================-->		<measure number="9" width="105">			<note>				<pitch>					<step>C</step>					<octave>3</octave>				</pitch>				<duration>26880</duration>				<voice>1</voice>				<type>whole</type>				<stem>none</stem>				<lyric number="1" justify="center" default-y="-80.56">					<syllabic>end</syllabic>					<text font-family="Times New Roman" font-size="12.000010" font-weight="normal" font-style="normal" xml:lang="la">ctis</text>				</lyric>				<lyric number="2" justify="center" default-y="-110.56">					<syllabic>single</syllabic>					<text font-family="Times New Roman" font-size="12.000010" font-weight="normal" font-style="normal" xml:lang="la">nis</text>				</lyric>			</note>			<barline location="right">				<repeat direction="backward" times="2"/>			</barline>		</measure>		<!--==========================[1,10]=============================-->		<measure number="10" width="166">			<barline location="left">				<repeat direction="forward"/>			</barline>			<note>				<pitch>					<step>D</step>					<octave>3</octave>				</pitch>				<duration>13440</duration>				<voice>1</voice>				<type>half</type>				<stem default-y="-10.28">up</stem>				<lyric number="1" justify="center" default-y="-80.56">					<syllabic>single</syllabic>					<text font-family="Times New Roman" font-size="12.000010" font-weight="normal" font-style="normal" xml:lang="la">Et</text>				</lyric>				<lyric number="2" justify="center" default-y="-110.56">					<syllabic>single</syllabic>					<text font-family="Times New Roman" font-size="12.000010" font-weight="normal" font-style="normal" xml:lang="la">det</text>				</lyric>			</note>			<note>				<pitch>					<step>E</step>					<octave>3</octave>				</pitch>				<duration>13440</duration>				<voice>1</voice>				<type>half</type>				<stem default-y="-5.28">up</stem>			</note>		</measure>		<!--==========================[1,11]=============================-->		<measure number="11" width="243">			<note>				<pitch>					<step>F</step>					<octave>3</octave>				</pitch>				<duration>13440</duration>				<voice>1</voice>				<type>half</type>				<stem default-y="-0.28">up</stem>				<lyric number="1" justify="center" default-y="-80.56">					<syllabic>begin</syllabic>					<text font-family="Times New Roman" font-size="12.000010" font-weight="normal" font-style="normal" xml:lang="la">ve</text>				</lyric>				<lyric number="2" justify="center" default-y="-110.56">					<syllabic>middle</syllabic>					<text font-family="Times New Roman" font-size="12.000010" font-weight="normal" font-style="normal" xml:lang="la">no</text>				</lyric>			</note>			<note>				<pitch>					<step>F</step>					<octave>3</octave>				</pitch>				<duration>6720</duration>				<voice>1</voice>				<type>quarter</type>				<stem default-y="-0.28">up</stem>				<lyric number="1" justify="center" default-y="-80.56">					<syllabic>middle</syllabic>					<text font-family="Times New Roman" font-size="12.000010" font-weight="normal" font-style="normal" xml:lang="la">ri</text>				</lyric>				<lyric number="2" justify="center" default-y="-110.56">					<syllabic>end</syllabic>					<text font-family="Times New Roman" font-size="12.000010" font-weight="normal" font-style="normal" xml:lang="la">bis</text>				</lyric>			</note>			<note>				<pitch>					<step>F</step>					<octave>3</octave>				</pitch>				<duration>13440</duration>				<voice>1</voice>				<type>half</type>				<stem default-y="-0.28">up</stem>				<lyric number="1" justify="center" default-y="-80.56">					<syllabic>begin</syllabic>					<text font-family="Times New Roman" font-size="12.000010" font-weight="normal" font-style="normal" xml:lang="la">ta</text>				</lyric>				<lyric number="2" justify="center" default-y="-110.56">					<syllabic>middle</syllabic>					<text font-family="Times New Roman" font-size="12.000010" font-weight="normal" font-style="normal" xml:lang="la">su</text>				</lyric>			</note>			<note>				<pitch>					<step>F</step>					<octave>3</octave>				</pitch>				<duration>6720</duration>				<voice>1</voice>				<type>quarter</type>				<stem default-y="-0.28">up</stem>				<lyric number="1" justify="center" default-y="-80.56">					<syllabic>end</syllabic>					<text font-family="Times New Roman" font-size="12.000010" font-weight="normal" font-style="normal" xml:lang="la">tis</text>				</lyric>				<lyric number="2" justify="center" default-y="-110.56">					<syllabic>single</syllabic>					<text font-family="Times New Roman" font-size="12.000010" font-weight="normal" font-style="normal" xml:lang="la">um</text>				</lyric>			</note>		</measure>		<!--==========================[1,12]=============================-->		<measure number="12" width="207">			<note>				<pitch>					<step>G</step>					<octave>3</octave>				</pitch>				<duration>13440</duration>				<voice>1</voice>				<type>half</type>				<stem default-y="4.72">up</stem>				<lyric number="1" justify="center" default-y="-80.56">					<syllabic>begin</syllabic>					<text font-family="Times New Roman" font-size="12.000010" font-weight="normal" font-style="normal" xml:lang="la">gres</text>				</lyric>				<lyric number="2" justify="center" default-y="-110.56">					<syllabic>middle</syllabic>					<text font-family="Times New Roman" font-size="12.000010" font-weight="normal" font-style="normal" xml:lang="la">fi</text>				</lyric>			</note>			<note>				<pitch>					<step>G</step>					<octave>3</octave>				</pitch>				<duration>6720</duration>				<voice>1</voice>				<type>quarter</type>				<stem default-y="4.72">up</stem>				<lyric number="1" justify="left" default-y="-80.56">					<syllabic>middle</syllabic>					<text font-family="Times New Roman" font-size="12.000010" font-weight="normal" font-style="normal" xml:lang="la">si</text>				</lyric>				<lyric number="2" justify="left" default-y="-110.56">					<syllabic>middle</syllabic>					<text font-family="Times New Roman" font-size="12.000010" font-weight="normal" font-style="normal" xml:lang="la">li</text>				</lyric>			</note>			<note>				<pitch>					<step>G</step>					<octave>3</octave>				</pitch>				<duration>13440</duration>				<voice>1</voice>				<type>half</type>				<stem default-y="4.72">up</stem>				<lyric number="1" justify="center" default-y="-80.56">					<syllabic>end</syllabic>					<text font-family="Times New Roman" font-size="12.000010" font-weight="normal" font-style="normal" xml:lang="la">bus</text>				</lyric>				<lyric number="2" justify="center" default-y="-110.56">					<syllabic>single</syllabic>					<text font-family="Times New Roman" font-size="12.000010" font-weight="normal" font-style="normal" xml:lang="la">um</text>				</lyric>			</note>		</measure>		<!--==========================[1,13]=============================-->		<measure number="13" width="161">			<note>				<pitch>					<step>B</step>					<octave>3</octave>				</pitch>				<duration>13440</duration>				<voice>1</voice>				<type>half</type>				<stem default-y="-55.28">down</stem>				<lyric number="1" justify="center" default-y="-80.56">					<syllabic>begin</syllabic>					<text font-family="Times New Roman" font-size="12.000010" font-weight="normal" font-style="normal" xml:lang="la">mun</text>				</lyric>				<lyric number="2" justify="center" default-y="-110.56">					<syllabic>middle</syllabic>					<text font-family="Times New Roman" font-size="12.000010" font-weight="normal" font-style="normal" xml:lang="la">cor</text>				</lyric>			</note>			<note>				<pitch>					<step>C</step>					<octave>4</octave>				</pitch>				<duration>13440</duration>				<voice>1</voice>				<type>half</type>				<stem default-y="-50.28">down</stem>				<lyric number="1" justify="center" default-y="-80.56">					<syllabic>end</syllabic>					<text font-family="Times New Roman" font-size="12.000010" font-weight="normal" font-style="normal" xml:lang="la">di</text>				</lyric>				<lyric number="2" justify="center" default-y="-110.56">					<syllabic>begin</syllabic>					<text font-family="Times New Roman" font-size="12.000010" font-weight="normal" font-style="normal" xml:lang="la">di</text>				</lyric>			</note>		</measure>		<!--==========================[1,14]=============================-->		<measure number="14" width="236">			<print new-system="yes">				<system-layout>					<system-margins>						<left-margin>95.494</left-margin>						<right-margin>67.130</right-margin>					</system-margins>					<system-distance>157.778</system-distance>				</system-layout>			</print>			<attributes>				<staff-details number="1" print-object="yes">				</staff-details>			</attributes>			<note>				<pitch>					<step>A</step>					<octave>3</octave>				</pitch>				<duration>6720</duration>				<voice>1</voice>				<type>quarter</type>				<stem default-y="9.72">up</stem>				<lyric number="1" justify="center" default-y="-80.56">					<syllabic>middle</syllabic>					<text font-family="Times New Roman" font-size="12.000010" font-weight="normal" font-style="normal" xml:lang="la">hu</text>				</lyric>				<lyric number="2" justify="center" default-y="-110.56">					<syllabic>end</syllabic>					<text font-family="Times New Roman" font-size="12.000010" font-weight="normal" font-style="normal" xml:lang="la">is</text>				</lyric>			</note>			<note>				<pitch>					<step>A</step>					<octave>3</octave>				</pitch>				<duration>6720</duration>				<voice>1</voice>				<type>quarter</type>				<stem default-y="9.72">up</stem>				<lyric number="1" justify="center" default-y="-80.56">					<syllabic>single</syllabic>					<text font-family="Times New Roman" font-size="12.000010" font-weight="normal" font-style="normal" xml:lang="la">ius</text>				</lyric>				<lyric number="2" justify="center" default-y="-110.56">					<syllabic>begin</syllabic>					<text font-family="Times New Roman" font-size="12.000010" font-weight="normal" font-style="normal" xml:lang="la">ca</text>				</lyric>			</note>			<note>				<pitch>					<step>G</step>					<octave>3</octave>				</pitch>				<duration>13440</duration>				<voice>1</voice>				<type>half</type>				<stem default-y="4.72">up</stem>				<lyric number="1" justify="center" default-y="-80.56">					<syllabic>middle</syllabic>					<text font-family="Times New Roman" font-size="12.000010" font-weight="normal" font-style="normal" xml:lang="la">so</text>				</lyric>				<lyric number="2" justify="center" default-y="-110.56">					<syllabic>middle</syllabic>					<text font-family="Times New Roman" font-size="12.000010" font-weight="normal" font-style="normal" xml:lang="la">na</text>				</lyric>			</note>		</measure>		<!--==========================[1,15]=============================-->		<measure number="15" width="237">			<note>				<pitch>					<step>B</step>					<octave>3</octave>				</pitch>				<duration>6720</duration>				<voice>1</voice>				<type>quarter</type>				<stem default-y="-55.28">down</stem>				<lyric number="1" justify="center" default-y="-80.56">					<syllabic>middle</syllabic>					<text font-family="Times New Roman" font-size="12.000010" font-weight="normal" font-style="normal" xml:lang="la">la</text>				</lyric>				<lyric number="2" justify="center" default-y="-110.56">					<syllabic>end</syllabic>					<text font-family="Times New Roman" font-size="12.000010" font-weight="normal" font-style="normal" xml:lang="la">mus</text>				</lyric>			</note>			<forward>				<duration>6300</duration>			</forward>			<direction placement="above">				<direction-type>					<words font-family="Times New Roman" font-size="12.000000" font-weight="bold" font-style="italic" relative-x="0.00" default-y="28.33">fine (?)</words>				</direction-type>			</direction>			<backup>				<duration>6300</duration>			</backup>			<note>				<pitch>					<step>B</step>					<octave>3</octave>				</pitch>				<duration>6720</duration>				<voice>1</voice>				<type>quarter</type>				<stem default-y="-55.28">down</stem>				<lyric number="1" justify="center" default-y="-80.56">					<syllabic>begin</syllabic>					<text font-family="Times New Roman" font-size="12.000010" font-weight="normal" font-style="normal" xml:lang="la">ci</text>				</lyric>				<lyric number="2" justify="center" default-y="-110.56">					<syllabic>middle</syllabic>					<text font-family="Times New Roman" font-size="12.000010" font-weight="normal" font-style="normal" xml:lang="la">pe</text>				</lyric>			</note>			<note>				<pitch>					<step>C</step>					<octave>4</octave>				</pitch>				<duration>6720</duration>				<voice>1</voice>				<type>quarter</type>				<stem default-y="-50.28">down</stem>				<notations>					<fermata type="upright" relative-x="-4.77" relative-y="16.88"/>				</notations>				<lyric number="1" justify="center" default-y="-80.56">					<syllabic>end</syllabic>					<text font-family="Times New Roman" font-size="12.000010" font-weight="normal" font-style="normal" xml:lang="la">um</text>				</lyric>				<lyric number="2" justify="center" default-y="-110.56">					<syllabic>begin</syllabic>					<text font-family="Times New Roman" font-size="12.000010" font-weight="normal" font-style="normal" xml:lang="la">di</text>				</lyric>			</note>			<note>				<pitch>					<step>D</step>					<octave>4</octave>				</pitch>				<duration>6720</duration>				<voice>1</voice>				<type>quarter</type>				<stem default-y="-45.28">down</stem>			</note>		</measure>		<!--==========================[1,16]=============================-->		<measure number="16" width="191">			<note>				<pitch>					<step>E</step>					<octave>4</octave>				</pitch>				<duration>6720</duration>				<voice>1</voice>				<type>quarter</type>				<stem default-y="-40.28">down</stem>				<lyric number="2" justify="left" default-y="-110.56">					<syllabic>end</syllabic>					<text font-family="Times New Roman" font-size="12.000010" font-weight="normal" font-style="normal" xml:lang="la">bus</text>				</lyric>			</note>			<note>				<pitch>					<step>C</step>					<octave>4</octave>				</pitch>				<duration>6720</duration>				<voice>1</voice>				<type>quarter</type>				<stem default-y="-50.28">down</stem>			</note>			<note>				<pitch>					<step>D</step>					<octave>4</octave>				</pitch>				<duration>13440</duration>				<voice>1</voice>				<type>half</type>				<stem default-y="-45.28">down</stem>				<lyric number="1" justify="center" default-y="-80.56">					<syllabic>begin</syllabic>					<text font-family="Times New Roman" font-size="12.000010" font-weight="normal" font-style="normal" xml:lang="la">do</text>				</lyric>				<lyric number="2" justify="center" default-y="-110.56">					<syllabic>middle</syllabic>					<text font-family="Times New Roman" font-size="12.000010" font-weight="normal" font-style="normal" xml:lang="la">zi</text>				</lyric>			</note>		</measure>		<!--==========================[1,17]=============================-->		<measure number="17" width="191">			<note>				<pitch>					<step>G</step>					<octave>3</octave>				</pitch>				<duration>13440</duration>				<voice>1</voice>				<type>half</type>				<stem default-y="4.72">up</stem>			</note>			<note>				<pitch>					<step>D</step>					<octave>4</octave>				</pitch>				<duration>6720</duration>				<voice>1</voice>				<type>quarter</type>				<stem default-y="-45.28">down</stem>				<lyric number="1" justify="center" default-y="-80.56">					<syllabic>end</syllabic>					<text font-family="Times New Roman" font-size="12.000010" font-weight="normal" font-style="normal" xml:lang="la">nec</text>				</lyric>				<lyric number="2" justify="center" default-y="-110.56">					<syllabic>single</syllabic>					<text font-family="Times New Roman" font-size="12.000010" font-weight="normal" font-style="normal" xml:lang="la">ma</text>				</lyric>			</note>			<note>				<pitch>					<step>C</step>					<octave>4</octave>				</pitch>				<duration>6720</duration>				<voice>1</voice>				<type>quarter</type>				<stem default-y="-50.28">down</stem>				<lyric number="1" justify="center" default-y="-80.56">					<syllabic>begin</syllabic>					<text font-family="Times New Roman" font-size="12.000010" font-weight="normal" font-style="normal" xml:lang="la">pur</text>				</lyric>				<lyric number="2" justify="center" default-y="-110.56">					<syllabic>middle</syllabic>					<text font-family="Times New Roman" font-size="12.000010" font-weight="normal" font-style="normal" xml:lang="la">pur</text>				</lyric>			</note>		</measure>		<!--==========================[1,18]=============================-->		<measure number="18" width="226">			<note>				<pitch>					<step>C</step>					<octave>4</octave>				</pitch>				<duration>6720</duration>				<voice>1</voice>				<type>quarter</type>				<stem default-y="-50.28">down</stem>				<lyric number="1" justify="left" default-y="-80.56">					<syllabic>middle</syllabic>					<text font-family="Times New Roman" font-size="12.000010" font-weight="normal" font-style="normal" xml:lang="la">gan</text>				</lyric>				<lyric number="2" justify="center" default-y="-110.56">					<syllabic>middle</syllabic>					<text font-family="Times New Roman" font-size="12.000010" font-weight="normal" font-style="normal" xml:lang="la">ga</text>				</lyric>			</note>			<note>				<pitch>					<step>B</step>					<octave>3</octave>				</pitch>				<duration>6720</duration>				<voice>1</voice>				<type>quarter</type>				<stem default-y="-55.28">down</stem>			</note>			<note>				<pitch>					<step>E</step>					<octave>4</octave>				</pitch>				<duration>6720</duration>				<voice>1</voice>				<type>quarter</type>				<stem default-y="-40.28">down</stem>				<lyric number="1" justify="center" default-y="-80.56">					<syllabic>end</syllabic>					<text font-family="Times New Roman" font-size="12.000010" font-weight="normal" font-style="normal" xml:lang="la">do</text>				</lyric>				<lyric number="2" justify="center" default-y="-110.56">					<syllabic>single</syllabic>					<text font-family="Times New Roman" font-size="12.000010" font-weight="normal" font-style="normal" xml:lang="la">to</text>				</lyric>			</note>			<note>				<pitch>					<step>C</step>					<octave>4</octave>				</pitch>				<duration>6720</duration>				<voice>1</voice>				<type>quarter</type>				<stem default-y="-50.28">down</stem>			</note>		</measure>		<!--==========================[1,19]=============================-->		<measure number="19" width="247">			<print new-system="yes">				<system-layout>					<system-margins>						<left-margin>95.494</left-margin>						<right-margin>494.214</right-margin>					</system-margins>					<system-distance>158.334</system-distance>				</system-layout>			</print>			<attributes>				<staff-details number="1" print-object="yes">				</staff-details>			</attributes>			<note>				<pitch>					<step>D</step>					<octave>4</octave>				</pitch>				<duration>6720</duration>				<voice>1</voice>				<type>quarter</type>				<stem default-y="-44.72">down</stem>				<lyric number="1" justify="center" default-y="-80.00">					<syllabic>begin</syllabic>					<text font-family="Times New Roman" font-size="12.000010" font-weight="normal" font-style="normal" xml:lang="la">ve</text>				</lyric>				<lyric number="2" justify="center" default-y="-110.00">					<syllabic>middle</syllabic>					<text font-family="Times New Roman" font-size="12.000010" font-weight="normal" font-style="normal" xml:lang="la">ve</text>				</lyric>			</note>			<note>				<pitch>					<step>G</step>					<octave>4</octave>				</pitch>				<duration>6720</duration>				<voice>1</voice>				<type>quarter</type>				<stem default-y="-30.28">down</stem>				<lyric number="1" justify="center" default-y="-80.00">					<syllabic>middle</syllabic>					<text font-family="Times New Roman" font-size="12.000010" font-weight="normal" font-style="normal" xml:lang="la">te</text>				</lyric>				<lyric number="2" justify="center" default-y="-110.00">					<syllabic>middle</syllabic>					<text font-family="Times New Roman" font-size="12.000010" font-weight="normal" font-style="normal" xml:lang="la">te</text>				</lyric>			</note>			<note>				<pitch>					<step>F</step>					<octave>4</octave>				</pitch>				<duration>6720</duration>				<voice>1</voice>				<type>quarter</type>				<stem default-y="-35.28">down</stem>				<lyric number="1" justify="center" default-y="-80.00">					<syllabic>end</syllabic>					<text font-family="Times New Roman" font-size="12.000010" font-weight="normal" font-style="normal" xml:lang="la">ra</text>				</lyric>				<lyric number="2" justify="center" default-y="-110.00">					<syllabic>single</syllabic>					<text font-family="Times New Roman" font-size="12.000010" font-weight="normal" font-style="normal" xml:lang="la">ri</text>				</lyric>			</note>			<note>				<pitch>					<step>F</step>					<octave>4</octave>				</pitch>				<duration>6720</duration>				<voice>1</voice>				<type>quarter</type>				<stem default-y="-35.28">down</stem>				<lyric number="1" justify="center" default-y="-80.00">					<syllabic>single</syllabic>					<text font-family="Times New Roman" font-size="12.000010" font-weight="normal" font-style="normal" xml:lang="la">quo</text>				</lyric>				<lyric number="2" justify="center" default-y="-110.00">					<syllabic>single</syllabic>					<text font-family="Times New Roman" font-size="12.000010" font-weight="normal" font-style="normal" xml:lang="la">quo</text>				</lyric>			</note>		</measure>		<!--==========================[1,20]=============================-->		<measure number="20" width="207">			<note>				<pitch>					<step>D</step>					<octave>4</octave>				</pitch>				<duration>6720</duration>				<voice>1</voice>				<type>quarter</type>				<stem default-y="-44.72">down</stem>				<lyric number="1" justify="left" default-y="-80.00">					<syllabic>begin</syllabic>					<text font-family="Times New Roman" font-size="12.000010" font-weight="normal" font-style="normal" xml:lang="la">pre</text>				</lyric>				<lyric number="2" justify="center" default-y="-110.00">					<syllabic>middle</syllabic>					<text font-family="Times New Roman" font-size="12.000010" font-weight="normal" font-style="normal" xml:lang="la">fir</text>				</lyric>			</note>			<note>				<pitch>					<step>E</step>					<octave>4</octave>				</pitch>				<duration>6720</duration>				<voice>1</voice>				<type>quarter</type>				<stem default-y="-40.28">down</stem>			</note>			<note>				<pitch>					<step>D</step>					<octave>4</octave>				</pitch>				<duration>6720</duration>				<voice>1</voice>				<type>quarter</type>				<stem default-y="-44.72">down</stem>				<lyric number="1" justify="left" default-y="-80.00">					<syllabic>middle</syllabic>					<text font-family="Times New Roman" font-size="12.000010" font-weight="normal" font-style="normal" xml:lang="la">mi</text>				</lyric>				<lyric number="2" justify="center" default-y="-110.00">					<syllabic>middle</syllabic>					<text font-family="Times New Roman" font-size="12.000010" font-weight="normal" font-style="normal" xml:lang="la">men</text>				</lyric>			</note>			<note>				<pitch>					<step>D</step>					<octave>4</octave>				</pitch>				<duration>6720</duration>				<voice>1</voice>				<type>quarter</type>				<stem default-y="-44.72">down</stem>				<lyric number="1" justify="center" default-y="-80.00">					<syllabic>end</syllabic>					<text font-family="Times New Roman" font-size="12.000010" font-weight="normal" font-style="normal" xml:lang="la">mur</text>				</lyric>				<lyric number="2" justify="right" default-y="-110.00">					<syllabic>single</syllabic>					<text font-family="Times New Roman" font-size="12.000010" font-weight="normal" font-style="normal" xml:lang="la">tur</text>				</lyric>			</note>		</measure>		<!--==========================[1,21]=============================-->		<measure number="21" width="200">			<note>				<pitch>					<step>C</step>					<octave>4</octave>				</pitch>				<duration>6720</duration>				<voice>1</voice>				<type>quarter</type>				<stem default-y="-49.72">down</stem>				<lyric number="1" justify="center" default-y="-80.00">					<syllabic>single</syllabic>					<text font-family="Times New Roman" font-size="12.000010" font-weight="normal" font-style="normal" xml:lang="la">nos</text>				</lyric>				<lyric number="2" justify="center" default-y="-110.00">					<syllabic>begin</syllabic>					<text font-family="Times New Roman" font-size="12.000010" font-weight="normal" font-style="normal" xml:lang="la">mi</text>				</lyric>			</note>			<note>				<pitch>					<step>E</step>					<octave>4</octave>				</pitch>				<duration>6720</duration>				<voice>1</voice>				<type>quarter</type>				<stem default-y="-40.28">down</stem>				<lyric number="1" justify="center" default-y="-80.00">					<syllabic>middle</syllabic>					<text font-family="Times New Roman" font-size="12.000010" font-weight="normal" font-style="normal" xml:lang="la">vi</text>				</lyric>			</note>			<note>				<pitch>					<step>D</step>					<octave>4</octave>				</pitch>				<duration>6720</duration>				<voice>1</voice>				<type>quarter</type>				<stem default-y="-44.72">down</stem>				<lyric number="1" justify="center" default-y="-80.00">					<syllabic>middle</syllabic>					<text font-family="Times New Roman" font-size="12.000010" font-weight="normal" font-style="normal" xml:lang="la">ci</text>				</lyric>				<lyric number="2" justify="center" default-y="-110.00">					<syllabic>middle</syllabic>					<text font-family="Times New Roman" font-size="12.000010" font-weight="normal" font-style="normal" xml:lang="la">se</text>				</lyric>			</note>			<note>				<pitch>					<step>D</step>					<octave>4</octave>				</pitch>				<duration>6720</duration>				<voice>1</voice>				<type>quarter</type>				<stem default-y="-44.72">down</stem>				<lyric number="1" justify="center" default-y="-80.00">					<syllabic>end</syllabic>					<text font-family="Times New Roman" font-size="12.000010" font-weight="normal" font-style="normal" xml:lang="la">a</text>				</lyric>				<lyric number="2" justify="center" default-y="-110.00">					<syllabic>single</syllabic>					<text font-family="Times New Roman" font-size="12.000010" font-weight="normal" font-style="normal" xml:lang="la">ri</text>				</lyric>			</note>			<barline location="right">				<repeat direction="backward" times="2"/>			</barline>		</measure>		<!--==========================[1,22]=============================-->		<measure number="22" width="230">			<print new-system="yes">				<system-layout>					<system-margins>						<left-margin>95.494</left-margin>						<right-margin>65.972</right-margin>					</system-margins>					<system-distance>307.223</system-distance>				</system-layout>			</print>			<attributes>				<time symbol="cut">					<beats>2</beats>					<beat-type>2</beat-type>				</time>				<staff-details number="1" print-object="yes">				</staff-details>			</attributes>			<note>				<pitch>					<step>D</step>					<octave>4</octave>				</pitch>				<duration>13440</duration>				<voice>1</voice>				<type>half</type>				<stem default-y="-45.28">down</stem>				<lyric number="1" justify="center" default-y="-80.56">					<syllabic>begin</syllabic>					<text font-family="Times New Roman" font-size="12.000010" font-weight="normal" font-style="normal" xml:lang="la">No</text>				</lyric>			</note>			<note>				<pitch>					<step>D</step>					<octave>4</octave>				</pitch>				<duration>13440</duration>				<voice>1</voice>				<type>half</type>				<stem default-y="-45.28">down</stem>				<lyric number="1" justify="center" default-y="-80.56">					<syllabic>end</syllabic>					<text font-family="Times New Roman" font-size="12.000010" font-weight="normal" font-style="normal" xml:lang="la">va</text>				</lyric>			</note>		</measure>		<!--==========================[1,23]=============================-->		<measure number="23" width="252">			<note>				<pitch>					<step>B</step>					<octave>3</octave>				</pitch>				<duration>6720</duration>				<voice>1</voice>				<type>quarter</type>				<stem default-y="-55.28">down</stem>				<lyric number="1" justify="left" default-y="-80.56">					<syllabic>begin</syllabic>					<text font-family="Times New Roman" font-size="12.000010" font-weight="normal" font-style="normal" xml:lang="la">si</text>				</lyric>			</note>			<note>				<pitch>					<step>A</step>					<octave>3</octave>				</pitch>				<duration>6720</duration>				<voice>1</voice>				<type>quarter</type>				<stem default-y="9.72">up</stem>				<lyric number="1" justify="center" default-y="-80.56">					<syllabic>end</syllabic>					<text font-family="Times New Roman" font-size="12.000010" font-weight="normal" font-style="normal" xml:lang="la">mus</text>				</lyric>			</note>			<note>				<pitch>					<step>B</step>					<octave>3</octave>				</pitch>				<duration>3360</duration>				<voice>1</voice>				<type>eighth</type>				<stem default-y="-55.55">down</stem>				<lyric number="1" justify="left" default-y="-80.56">					<syllabic>begin</syllabic>					<text font-family="Times New Roman" font-size="12.000010" font-weight="normal" font-style="normal" xml:lang="la">ex</text>				</lyric>			</note>			<forward>				<duration>1260</duration>			</forward>			<direction placement="above">				<direction-type>					<words font-family="Times New Roman" font-size="15.000000" font-weight="bold" font-style="normal" relative-x="0.00" default-y="100.00">Nova simus expersio</words>				</direction-type>			</direction>			<backup>				<duration>1260</duration>			</backup>			<note>				<pitch>					<step>A</step>					<octave>3</octave>				</pitch>				<duration>3360</duration>				<voice>1</voice>				<type>eighth</type>				<stem default-y="9.72">up</stem>				<lyric number="1" justify="center" default-y="-80.56">					<syllabic>middle</syllabic>					<text font-family="Times New Roman" font-size="12.000010" font-weight="normal" font-style="normal" xml:lang="la">per</text>				</lyric>			</note>			<note>				<pitch>					<step>G</step>					<octave>3</octave>				</pitch>				<duration>3360</duration>				<voice>1</voice>				<type>eighth</type>				<stem default-y="4.72">up</stem>				<lyric number="1" justify="center" default-y="-80.56">					<syllabic>middle</syllabic>					<text font-family="Times New Roman" font-size="12.000010" font-weight="normal" font-style="normal" xml:lang="la">si</text>				</lyric>			</note>			<forward>				<duration>2520</duration>			</forward>			<direction placement="above">				<direction-type>					<words font-family="Times New Roman" font-size="15.000000" font-weight="bold" font-style="normal" relative-x="0.00" default-y="60.00">fol. 210v</words>				</direction-type>			</direction>			<backup>				<duration>2520</duration>			</backup>			<note>				<pitch>					<step>B</step>					<octave>3</octave>				</pitch>				<duration>3360</duration>				<voice>1</voice>				<type>eighth</type>				<stem default-y="-55.55">down</stem>				<lyric number="1" justify="right" default-y="-80.56">					<syllabic>end</syllabic>					<text font-family="Times New Roman" font-size="12.000010" font-weight="normal" font-style="normal" xml:lang="la">o</text>				</lyric>			</note>		</measure>		<!--==========================[1,24]=============================-->		<measure number="24" width="261">			<forward>				<duration>1680</duration>			</forward>			<direction placement="above">				<direction-type>					<words font-family="Times New Roman" font-size="15.000000" font-weight="bold" font-style="normal" relative-x="0.00" default-y="140.00">7.</words>				</direction-type>			</direction>			<backup>				<duration>1680</duration>			</backup>			<note>				<pitch>					<step>C</step>					<octave>4</octave>				</pitch>				<duration>3360</duration>				<voice>1</voice>				<type>eighth</type>				<stem default-y="-50.55">down</stem>				<lyric number="1" justify="center" default-y="-80.56">					<syllabic>begin</syllabic>					<text font-family="Times New Roman" font-size="12.000010" font-weight="normal" font-style="normal" xml:lang="la">pau</text>				</lyric>			</note>			<note>				<pitch>					<step>A</step>					<octave>3</octave>				</pitch>				<duration>3360</duration>				<voice>1</voice>				<type>eighth</type>				<stem default-y="9.72">up</stem>				<lyric number="1" justify="right" default-y="-80.56">					<syllabic>end</syllabic>					<text font-family="Times New Roman" font-size="12.000010" font-weight="normal" font-style="normal" xml:lang="la">li</text>				</lyric>			</note>			<note>				<pitch>					<step>B</step>					<octave>3</octave>				</pitch>				<duration>3360</duration>				<voice>1</voice>				<type>eighth</type>				<stem default-y="-55.55">down</stem>				<lyric number="1" justify="left" default-y="-80.56">					<syllabic>begin</syllabic>					<text font-family="Times New Roman" font-size="12.000010" font-weight="normal" font-style="normal" xml:lang="la">ex</text>				</lyric>			</note>			<note>				<pitch>					<step>C</step>					<octave>4</octave>				</pitch>				<duration>3360</duration>				<voice>1</voice>				<type>eighth</type>				<stem default-y="-50.55">down</stem>				<lyric number="1" justify="center" default-y="-80.56">					<syllabic>middle</syllabic>					<text font-family="Times New Roman" font-size="12.000010" font-weight="normal" font-style="normal" xml:lang="la">hor</text>				</lyric>			</note>			<note>				<pitch>					<step>D</step>					<octave>4</octave>				</pitch>				<duration>6720</duration>				<voice>1</voice>				<type>quarter</type>				<stem default-y="-45.28">down</stem>				<lyric number="1" justify="right" default-y="-80.56">					<syllabic>middle</syllabic>					<text font-family="Times New Roman" font-size="12.000010" font-weight="normal" font-style="normal" xml:lang="la">ta</text>				</lyric>			</note>			<note>				<pitch>					<step>B</step>					<octave>3</octave>				</pitch>				<duration>6720</duration>				<voice>1</voice>				<type>quarter</type>				<stem default-y="-55.28">down</stem>				<lyric number="1" justify="center" default-y="-80.56">					<syllabic>middle</syllabic>					<text font-family="Times New Roman" font-size="12.000010" font-weight="normal" font-style="normal" xml:lang="la">ci</text>				</lyric>			</note>			<forward>				<duration>5880</duration>			</forward>			<direction placement="above">				<direction-type>					<words font-family="Times New Roman" font-size="15.000000" font-weight="bold" font-style="normal" relative-x="0.00" default-y="313.33">D.C.</words>				</direction-type>				<sound dacapo="yes"/>			</direction>		</measure>		<!--==========================[1,25]=============================-->		<measure number="25" width="171">			<barline location="left">				<repeat direction="forward"/>			</barline>			<note>				<pitch>					<step>C</step>					<octave>4</octave>				</pitch>				<duration>6720</duration>				<voice>1</voice>				<type>quarter</type>				<stem default-y="-50.28">down</stem>				<lyric number="1" justify="center" default-y="-80.56">					<syllabic>end</syllabic>					<text font-family="Times New Roman" font-size="12.000010" font-weight="normal" font-style="normal" xml:lang="la">o</text>				</lyric>			</note>			<forward>				<duration>5880</duration>			</forward>			<direction placement="above">				<direction-type>					<coda default-y="11.11"/>				</direction-type>				<sound coda="0"/>			</direction>			<backup>				<duration>5880</duration>			</backup>			<note>				<pitch>					<step>D</step>					<octave>4</octave>				</pitch>				<duration>6720</duration>				<voice>1</voice>				<type>quarter</type>				<stem default-y="-45.28">down</stem>			</note>			<note>				<pitch>					<step>G</step>					<octave>3</octave>				</pitch>				<duration>13440</duration>				<voice>1</voice>				<type>half</type>				<stem default-y="4.72">up</stem>				<lyric number="1" justify="center" default-y="-80.56">					<syllabic>single</syllabic>					<text font-family="Times New Roman" font-size="12.000010" font-weight="normal" font-style="normal" xml:lang="la">nos</text>				</lyric>			</note>		</measure>		<!--==========================[1,26]=============================-->		<measure number="26" width="168">			<note>				<pitch>					<step>D</step>					<octave>3</octave>				</pitch>				<duration>3360</duration>				<voice>1</voice>				<type>eighth</type>				<stem default-y="-10.28">up</stem>				<lyric number="1" justify="left" default-y="-80.56">					<syllabic>begin</syllabic>					<text font-family="Times New Roman" font-size="12.000010" font-weight="normal" font-style="normal" xml:lang="la">do</text>				</lyric>			</note>			<note>				<pitch>					<step>E</step>					<octave>3</octave>				</pitch>				<duration>3360</duration>				<voice>1</voice>				<type>eighth</type>				<stem default-y="-5.28">up</stem>				<lyric number="1" justify="right" default-y="-80.56">					<syllabic>end</syllabic>					<text font-family="Times New Roman" font-size="12.000010" font-weight="normal" font-style="normal" xml:lang="la">cet</text>				</lyric>			</note>			<note>				<pitch>					<step>D</step>					<octave>3</octave>				</pitch>				<duration>3360</duration>				<voice>1</voice>				<type>eighth</type>				<stem default-y="-10.28">up</stem>				<lyric number="1" justify="center" default-y="-80.56">					<syllabic>single</syllabic>					<text font-family="Times New Roman" font-size="12.000010" font-weight="normal" font-style="normal" xml:lang="la">ut</text>				</lyric>			</note>			<note>				<pitch>					<step>E</step>					<octave>3</octave>				</pitch>				<duration>3360</duration>				<voice>1</voice>				<type>eighth</type>				<stem default-y="-5.28">up</stem>				<lyric number="1" justify="center" default-y="-80.56">					<syllabic>single</syllabic>					<text font-family="Times New Roman" font-size="12.000010" font-weight="normal" font-style="normal" xml:lang="la">cum</text>				</lyric>			</note>		</measure>		<!--==========================[1,27]=============================-->		<measure number="27" width="234">			<print new-system="yes">				<system-layout>					<system-margins>						<left-margin>95.494</left-margin>						<right-margin>67.130</right-margin>					</system-margins>					<system-distance>158.336</system-distance>				</system-layout>			</print>			<attributes>				<staff-details number="1" print-object="yes">				</staff-details>			</attributes>			<note>				<pitch>					<step>F</step>					<octave>3</octave>				</pitch>				<duration>3360</duration>				<voice>1</voice>				<type>eighth</type>				<stem default-y="-0.28">up</stem>				<lyric number="1" justify="left" default-y="-80.00">					<syllabic>begin</syllabic>					<text font-family="Times New Roman" font-size="12.000010" font-weight="normal" font-style="normal" xml:lang="la">an</text>				</lyric>			</note>			<note>				<pitch>					<step>G</step>					<octave>3</octave>				</pitch>				<duration>3360</duration>				<voice>1</voice>				<type>eighth</type>				<stem default-y="4.72">up</stem>				<lyric number="1" justify="center" default-y="-80.00">					<syllabic>middle</syllabic>					<text font-family="Times New Roman" font-size="12.000010" font-weight="normal" font-style="normal" xml:lang="la">ge</text>				</lyric>			</note>			<note>				<pitch>					<step>E</step>					<octave>3</octave>				</pitch>				<duration>3360</duration>				<voice>1</voice>				<type>eighth</type>				<stem default-y="-5.28">up</stem>				<lyric number="1" justify="right" default-y="-80.00">					<syllabic>end</syllabic>					<text font-family="Times New Roman" font-size="12.000010" font-weight="normal" font-style="normal" xml:lang="la">lis</text>				</lyric>			</note>			<note>				<pitch>					<step>F</step>					<octave>3</octave>				</pitch>				<duration>3360</duration>				<voice>1</voice>				<type>eighth</type>				<stem default-y="-0.28">up</stem>				<lyric number="1" justify="center" default-y="-80.00">					<syllabic>begin</syllabic>					<text font-family="Times New Roman" font-size="12.000010" font-weight="normal" font-style="normal" xml:lang="la">splen</text>				</lyric>			</note>		</measure>		<!--==========================[1,28]=============================-->		<measure number="28" width="333">			<note>				<pitch>					<step>G</step>					<octave>3</octave>				</pitch>				<duration>3360</duration>				<voice>1</voice>				<type>eighth</type>				<stem default-y="4.72">up</stem>				<lyric number="1" justify="left" default-y="-80.00">					<syllabic>middle</syllabic>					<text font-family="Times New Roman" font-size="12.000010" font-weight="normal" font-style="normal" xml:lang="la">di</text>				</lyric>			</note>			<note>				<pitch>					<step>A</step>					<octave>3</octave>				</pitch>				<duration>3360</duration>				<voice>1</voice>				<type>eighth</type>				<stem default-y="9.72">up</stem>				<lyric number="1" justify="right" default-y="-80.00">					<syllabic>end</syllabic>					<text font-family="Times New Roman" font-size="12.000010" font-weight="normal" font-style="normal" xml:lang="la">dis</text>				</lyric>			</note>			<note>				<pitch>					<step>F</step>					<octave>3</octave>				</pitch>				<duration>3360</duration>				<voice>1</voice>				<type>eighth</type>				<stem default-y="-0.28">up</stem>				<lyric number="1" justify="left" default-y="-80.00">					<syllabic>begin</syllabic>					<text font-family="Times New Roman" font-size="12.000010" font-weight="normal" font-style="normal" xml:lang="la">sto</text>				</lyric>			</note>			<note>				<pitch>					<step>G</step>					<octave>3</octave>				</pitch>				<duration>3360</duration>				<voice>1</voice>				<type>eighth</type>				<stem default-y="4.72">up</stem>				<lyric number="1" justify="right" default-y="-80.00">					<syllabic>end</syllabic>					<text font-family="Times New Roman" font-size="12.000010" font-weight="normal" font-style="normal" xml:lang="la">lis</text>				</lyric>			</note>			<note>				<pitch>					<step>A</step>					<octave>3</octave>				</pitch>				<duration>3360</duration>				<voice>1</voice>				<type>eighth</type>				<stem default-y="9.72">up</stem>				<lyric number="1" justify="left" default-y="-80.00">					<syllabic>begin</syllabic>					<text font-family="Times New Roman" font-size="12.000010" font-weight="normal" font-style="normal" xml:lang="la">can</text>				</lyric>			</note>			<note>				<pitch>					<step>B</step>					<octave>3</octave>				</pitch>				<duration>3360</duration>				<voice>1</voice>				<type>eighth</type>				<stem default-y="-54.99">down</stem>				<lyric number="1" justify="center" default-y="-80.00">					<syllabic>middle</syllabic>					<text font-family="Times New Roman" font-size="12.000010" font-weight="normal" font-style="normal" xml:lang="la">di</text>				</lyric>			</note>			<note>				<pitch>					<step>G</step>					<octave>3</octave>				</pitch>				<duration>3360</duration>				<voice>1</voice>				<type>eighth</type>				<stem default-y="4.72">up</stem>				<lyric number="1" justify="right" default-y="-80.00">					<syllabic>end</syllabic>					<text font-family="Times New Roman" font-size="12.000010" font-weight="normal" font-style="normal" xml:lang="la">dis</text>				</lyric>			</note>			<note>				<pitch>					<step>A</step>					<octave>3</octave>				</pitch>				<duration>3360</duration>				<voice>1</voice>				<type>eighth</type>				<stem default-y="9.72">up</stem>				<lyric number="1" justify="center" default-y="-80.00">					<syllabic>begin</syllabic>					<text font-family="Times New Roman" font-size="12.000010" font-weight="normal" font-style="normal" xml:lang="la">re</text>				</lyric>			</note>		</measure>		<!--==========================[1,29]=============================-->		<measure number="29" width="357">			<note>				<pitch>					<step>B</step>					<octave>3</octave>				</pitch>				<duration>3360</duration>				<voice>1</voice>				<type>eighth</type>				<stem default-y="-54.99">down</stem>				<lyric number="1" justify="center" default-y="-80.00">					<syllabic>end</syllabic>					<text font-family="Times New Roman" font-size="12.000010" font-weight="normal" font-style="normal" xml:lang="la">cte</text>				</lyric>			</note>			<note>				<pitch>					<step>C</step>					<octave>4</octave>				</pitch>				<duration>3360</duration>				<voice>1</voice>				<type>eighth</type>				<stem default-y="-49.99">down</stem>				<lyric number="1" justify="left" default-y="-80.00">					<syllabic>begin</syllabic>					<text font-family="Times New Roman" font-size="12.000010" font-weight="normal" font-style="normal" xml:lang="la">pos</text>				</lyric>			</note>			<note>				<pitch>					<step>A</step>					<octave>3</octave>				</pitch>				<duration>3360</duration>				<voice>1</voice>				<type>eighth</type>				<stem default-y="9.72">up</stem>				<lyric number="1" justify="center" default-y="-80.00">					<syllabic>middle</syllabic>					<text font-family="Times New Roman" font-size="12.000010" font-weight="normal" font-style="normal" xml:lang="la">si</text>				</lyric>			</note>			<note>				<pitch>					<step>B</step>					<octave>3</octave>				</pitch>				<duration>3360</duration>				<voice>1</voice>				<type>eighth</type>				<stem default-y="-54.99">down</stem>				<lyric number="1" justify="right" default-y="-80.00">					<syllabic>end</syllabic>					<text font-family="Times New Roman" font-size="12.000010" font-weight="normal" font-style="normal" xml:lang="la">mus</text>				</lyric>			</note>			<note>				<pitch>					<step>C</step>					<octave>4</octave>				</pitch>				<duration>3360</duration>				<voice>1</voice>				<type>eighth</type>				<stem default-y="-49.99">down</stem>				<lyric number="1" justify="left" default-y="-80.00">					<syllabic>begin</syllabic>					<text font-family="Times New Roman" font-size="12.000010" font-weight="normal" font-style="normal" xml:lang="la">can</text>				</lyric>			</note>			<note>				<pitch>					<step>D</step>					<octave>4</octave>				</pitch>				<duration>3360</duration>				<voice>1</voice>				<type>eighth</type>				<stem default-y="-44.99">down</stem>				<lyric number="1" justify="center" default-y="-80.00">					<syllabic>middle</syllabic>					<text font-family="Times New Roman" font-size="12.000010" font-weight="normal" font-style="normal" xml:lang="la">ta</text>				</lyric>			</note>			<note>				<pitch>					<step>B</step>					<octave>3</octave>				</pitch>				<duration>3360</duration>				<voice>1</voice>				<type>eighth</type>				<stem default-y="-54.99">down</stem>				<lyric number="1" justify="right" default-y="-80.00">					<syllabic>end</syllabic>					<text font-family="Times New Roman" font-size="12.000010" font-weight="normal" font-style="normal" xml:lang="la">re</text>				</lyric>			</note>			<note>				<rest>				</rest>				<duration>3360</duration>				<voice>1</voice>				<type>eighth</type>			</note>		</measure>		<!--==========================[1,30]=============================-->		<measure number="30" width="156">			<note>				<pitch>					<step>D</step>					<octave>4</octave>				</pitch>				<duration>13440</duration>				<voice>1</voice>				<type>half</type>				<stem default-y="-44.72">down</stem>				<lyric number="1" justify="center" default-y="-80.00">					<syllabic>begin</syllabic>					<text font-family="Times New Roman" font-size="12.000010" font-weight="normal" font-style="normal" xml:lang="la">Re</text>				</lyric>			</note>			<note>				<pitch>					<step>D</step>					<octave>4</octave>				</pitch>				<duration>13440</duration>				<voice>1</voice>				<type>half</type>				<stem default-y="-44.72">down</stem>				<lyric number="1" justify="center" default-y="-80.00">					<syllabic>middle</syllabic>					<text font-family="Times New Roman" font-size="12.000010" font-weight="normal" font-style="normal" xml:lang="la">gi</text>				</lyric>			</note>		</measure>		<!--==========================[1,31]=============================-->		<measure number="31" width="186">			<print new-system="yes">				<system-layout>					<system-margins>						<left-margin>95.494</left-margin>						<right-margin>688.659</right-margin>					</system-margins>					<system-distance>158.334</system-distance>				</system-layout>			</print>			<attributes>				<staff-details number="1" print-object="yes">				</staff-details>			</attributes>			<note>				<pitch>					<step>C</step>					<octave>4</octave>				</pitch>				<duration>13440</duration>				<voice>1</voice>				<type>half</type>				<stem default-y="-50.28">down</stem>				<lyric number="1" justify="center" default-y="-80.56">					<syllabic>end</syllabic>					<text font-family="Times New Roman" font-size="12.000010" font-weight="normal" font-style="normal" xml:lang="la">na</text>				</lyric>			</note>			<note>				<pitch>					<step>B</step>					<octave>3</octave>				</pitch>				<duration>13440</duration>				<voice>1</voice>				<type>half</type>				<stem default-y="-55.28">down</stem>				<lyric number="1" justify="center" default-y="-80.56">					<syllabic>begin</syllabic>					<text font-family="Times New Roman" font-size="12.000010" font-weight="normal" font-style="normal" xml:lang="la">ce</text>				</lyric>			</note>		</measure>		<!--==========================[1,32]=============================-->		<measure number="32" width="139">			<note>				<pitch>					<step>A</step>					<octave>3</octave>				</pitch>				<duration>13440</duration>				<voice>1</voice>				<type>half</type>				<stem default-y="9.72">up</stem>				<lyric number="1" justify="center" default-y="-80.56">					<syllabic>end</syllabic>					<text font-family="Times New Roman" font-size="12.000010" font-weight="normal" font-style="normal" xml:lang="la">li</text>				</lyric>			</note>			<note>				<pitch>					<step>A</step>					<octave>3</octave>				</pitch>				<duration>13440</duration>				<voice>1</voice>				<type>half</type>				<stem default-y="9.72">up</stem>				<lyric number="1" justify="center" default-y="-80.56">					<syllabic>begin</syllabic>					<text font-family="Times New Roman" font-size="12.000010" font-weight="normal" font-style="normal" xml:lang="la">le</text>				</lyric>			</note>		</measure>		<!--==========================[1,33]=============================-->		<measure number="33" width="135">			<note>				<pitch>					<step>G</step>					<octave>3</octave>				</pitch>				<duration>13440</duration>				<voice>1</voice>				<type>half</type>				<stem default-y="4.72">up</stem>				<lyric number="1" justify="center" default-y="-80.56">					<syllabic>middle</syllabic>					<text font-family="Times New Roman" font-size="12.000010" font-weight="normal" font-style="normal" xml:lang="la">ta</text>				</lyric>			</note>			<note>				<pitch>					<step>G</step>					<octave>3</octave>				</pitch>				<duration>13440</duration>				<voice>1</voice>				<type>half</type>				<stem default-y="4.72">up</stem>				<lyric number="1" justify="center" default-y="-80.56">					<syllabic>end</syllabic>					<text font-family="Times New Roman" font-size="12.000010" font-weight="normal" font-style="normal" xml:lang="la">re</text>				</lyric>			</note>			<forward>				<duration>22680</duration>			</forward>			<direction placement="below">				<direction-type>					<coda default-y="-31.67"/>				</direction-type>				<sound coda="0"/>			</direction>			<barline location="right">				<repeat direction="backward" times="2"/>			</barline>		</measure>	</part></score-partwise>