<?xml version="1.0" encoding="UTF-8" standalone="no"?><!DOCTYPE score-partwise PUBLIC "-//Recordare//DTD MusicXML 2.0 Partwise//EN" "http://www.musicxml.org/dtds/partwise.dtd"><score-partwise version="2.0">	<work>		<work-title>15.</work-title>	</work>	<identification>		<creator type="composer">Der spigel der drifaldichetfol. 213v</creator>		<creator type="poet">Der spigel der drifaldichetfol. 213v</creator>		<encoding>			<software>PDFtoMusic Pro - 64-bits v2.0.0d Build 29A6A (c) Myriad - http://www.myriad-online.com</software>			<?PDFtoMusic Document type 0100- 5A50330C?>			<supports attribute="new-system" element="print" type="yes" value="yes"/>			<supports attribute="new-page" element="print" type="yes" value="yes"/>		</encoding>	</identification>	<defaults>		<scaling>			<millimeters>6.095994</millimeters>			<tenths>40</tenths>		</scaling>		<page-layout>			<page-height>1949.076</page-height>			<page-width>1377.316</page-width>			<page-margins type="both">				<left-margin>65.617</left-margin>				<right-margin>65.617</right-margin>				<top-margin>65.617</top-margin>				 <bottom-margin>65.617</bottom-margin>			</page-margins>		</page-layout>		<appearance>			<line-width type="stem">1.1111</line-width>			<line-width type="staff">1.1111</line-width>			<line-width type="light barline">1.0784</line-width>			<line-width type="heavy barline">3.3333</line-width>			<note-size type="grace">69.5469</note-size>		</appearance>	</defaults>	<credit page="1">		<credit-type>subtitle</credit-type>		<credit-words  default-x="686.616" default-y="1708.524" justify="center" valign="baseline" font-family="Times New Roman" font-size="15.000000" font-weight="bold" font-style="normal">Der spigel der drifaldichetfol. 213v</credit-words>	</credit>	<credit page="1">		<credit-words  default-x="513.890" default-y="1748.524" justify="left" valign="baseline" font-family="Times New Roman" font-size="15.000000" font-weight="bold" font-style="normal">En trinitatis speculum/</credit-words>	</credit>	<credit page="1">		<credit-type>title</credit-type>		<credit-words  default-x="664.446" default-y="1788.524" justify="left" valign="baseline" font-family="Times New Roman" font-size="15.000000" font-weight="bold" font-style="normal">15.</credit-words>	</credit>	<credit page="1">		<credit-words  default-x="669.446" default-y="83.520" justify="left" valign="baseline" font-family="Times New Roman" font-size="14.500000" font-weight="normal" font-style="normal">64</credit-words>	</credit>	<part-list>		<score-part id="P1">			<part-name></part-name>			<score-instrument id="P1-I1">				<instrument-name>Instrument 1</instrument-name>			</score-instrument>			<midi-instrument id="P1-I1">				<midi-channel>1</midi-channel>				<midi-bank>5</midi-bank>				<midi-program>53</midi-program>				<volume>50</volume>				<pan>0</pan>				<elevation>0</elevation>				<?Myriad				<iddigit>5240</iddigit>				?>			</midi-instrument>			<?Myriad			<virtualVoice id="P1-I1" default="5240">			</virtualVoice>			?>		</score-part>	</part-list>	<part id="P1">		<!--==========================[1,1]=============================-->		<measure number="1" width="172">			<sound tempo="80" />			<print new-page="yes">				<system-layout>					<system-margins>						<left-margin>95.494</left-margin>						<right-margin>67.130</right-margin>					</system-margins>					<top-system-distance>294.380</top-system-distance>				</system-layout>			</print>			<barline location="left">				<repeat direction="forward"/>			</barline>			<attributes>				<divisions>6720</divisions>				<time>					<beats>6</beats>					<beat-type>4</beat-type>				</time>				<clef number="1">					<sign>G</sign>					<line>2</line>					<clef-octave-change>-1</clef-octave-change>				</clef>				<staff-details number="1" print-object="yes">					<staff-lines>5</staff-lines>					<staff-size>100.00</staff-size>				</staff-details>			</attributes>			<note>				<pitch>					<step>D</step>					<octave>4</octave>				</pitch>				<duration>6720</duration>				<voice>1</voice>				<type>quarter</type>				<stem default-y="-45.28">down</stem>				<lyric number="1" justify="right" default-y="-80.00">					<syllabic>single</syllabic>					<text font-family="Times New Roman" font-size="12.000010" font-weight="normal" font-style="normal">1. En</text>				</lyric>				<lyric number="2" justify="center" default-y="-110.00">					<syllabic>single</syllabic>					<text font-family="Times New Roman" font-size="12.000010" font-weight="normal" font-style="normal">2.Der</text>				</lyric>				<lyric number="3" justify="center" default-y="-140.00">					<syllabic>single</syllabic>					<text font-family="Times New Roman" font-size="12.000010" font-weight="normal" font-style="normal">3.Nunc</text>				</lyric>				<lyric number="4" justify="right" default-y="-170.00">					<syllabic>single</syllabic>					<text font-family="Times New Roman" font-size="12.000010" font-weight="normal" font-style="normal">4. Du</text>				</lyric>				<lyric number="5" justify="center" default-y="-200.00">					<syllabic>single</syllabic>					<text font-family="Times New Roman" font-size="12.000010" font-weight="normal" font-style="normal">5.Hic</text>				</lyric>				<lyric number="6" justify="center" default-y="-230.00">					<syllabic>single</syllabic>					<text font-family="Times New Roman" font-size="12.000010" font-weight="normal" font-style="normal">6.Dat</text>				</lyric>			</note>		</measure>		<!--==========================[1,2]=============================-->		<measure number="2" width="251">			<note>				<pitch>					<step>D</step>					<octave>4</octave>				</pitch>				<duration>13440</duration>				<voice>1</voice>				<type>half</type>				<stem default-y="-45.28">down</stem>				<lyric number="1" justify="center" default-y="-80.00">					<syllabic>begin</syllabic>					<text font-family="Times New Roman" font-size="12.000010" font-weight="normal" font-style="normal">tri</text>				</lyric>				<lyric number="2" justify="center" default-y="-110.00">					<syllabic>middle</syllabic>					<text font-family="Times New Roman" font-size="12.000010" font-weight="normal" font-style="normal">spi</text>				</lyric>				<lyric number="3" justify="center" default-y="-140.00">					<syllabic>middle</syllabic>					<text font-family="Times New Roman" font-size="12.000010" font-weight="normal" font-style="normal">vir</text>				</lyric>				<lyric number="4" justify="center" default-y="-170.00">					<syllabic>middle</syllabic>					<text font-family="Times New Roman" font-size="12.000010" font-weight="normal" font-style="normal">go</text>				</lyric>				<lyric number="5" justify="center" default-y="-200.00">					<syllabic>middle</syllabic>					<text font-family="Times New Roman" font-size="12.000010" font-weight="normal" font-style="normal">ia</text>				</lyric>				<lyric number="6" justify="left" default-y="-230.00">					<syllabic>middle</syllabic>					<text font-family="Times New Roman" font-size="12.000010" font-weight="normal" font-style="normal">wun</text>				</lyric>			</note>			<note>				<pitch>					<step>D</step>					<octave>4</octave>				</pitch>				<duration>6720</duration>				<voice>1</voice>				<type>quarter</type>				<stem default-y="-45.28">down</stem>				<lyric number="1" justify="center" default-y="-80.00">					<syllabic>middle</syllabic>					<text font-family="Times New Roman" font-size="12.000010" font-weight="normal" font-style="normal">ni</text>				</lyric>				<lyric number="2" justify="center" default-y="-110.00">					<syllabic>end</syllabic>					<text font-family="Times New Roman" font-size="12.000010" font-weight="normal" font-style="normal">gel</text>				</lyric>				<lyric number="3" justify="center" default-y="-140.00">					<syllabic>single</syllabic>					<text font-family="Times New Roman" font-size="12.000010" font-weight="normal" font-style="normal">go</text>				</lyric>				<lyric number="4" justify="center" default-y="-170.00">					<syllabic>single</syllabic>					<text font-family="Times New Roman" font-size="12.000010" font-weight="normal" font-style="normal">deß</text>				</lyric>				<lyric number="5" justify="center" default-y="-200.00">					<syllabic>single</syllabic>					<text font-family="Times New Roman" font-size="12.000010" font-weight="normal" font-style="normal">cet</text>				</lyric>				<lyric number="6" justify="center" default-y="-230.00">					<syllabic>begin</syllabic>					<text font-family="Times New Roman" font-size="12.000010" font-weight="normal" font-style="normal">nent</text>				</lyric>			</note>			<note>				<pitch>					<step>D</step>					<octave>4</octave>				</pitch>				<duration>13440</duration>				<voice>1</voice>				<type>half</type>				<stem default-y="-45.28">down</stem>				<lyric number="1" justify="center" default-y="-80.00">					<syllabic>middle</syllabic>					<text font-family="Times New Roman" font-size="12.000010" font-weight="normal" font-style="normal">ta</text>				</lyric>				<lyric number="2" justify="center" default-y="-110.00">					<syllabic>end</syllabic>					<text font-family="Times New Roman" font-size="12.000010" font-weight="normal" font-style="normal">der</text>				</lyric>				<lyric number="3" justify="center" default-y="-140.00">					<syllabic>begin</syllabic>					<text font-family="Times New Roman" font-size="12.000010" font-weight="normal" font-style="normal">de</text>				</lyric>				<lyric number="4" justify="center" default-y="-170.00">					<syllabic>middle</syllabic>					<text font-family="Times New Roman" font-size="12.000010" font-weight="normal" font-style="normal">mo</text>				</lyric>				<lyric number="5" justify="center" default-y="-200.00">					<syllabic>end</syllabic>					<text font-family="Times New Roman" font-size="12.000010" font-weight="normal" font-style="normal">in</text>				</lyric>				<lyric number="6" justify="right" default-y="-230.00">					<syllabic>begin</syllabic>					<text font-family="Times New Roman" font-size="12.000010" font-weight="normal" font-style="normal">li</text>				</lyric>			</note>			<note>				<pitch>					<step>C</step>					<octave>4</octave>				</pitch>				<duration>6720</duration>				<voice>1</voice>				<type>quarter</type>				<stem default-y="-50.28">down</stem>				<lyric number="1" justify="center" default-y="-80.00">					<syllabic>end</syllabic>					<text font-family="Times New Roman" font-size="12.000010" font-weight="normal" font-style="normal">tis</text>				</lyric>				<lyric number="2" justify="center" default-y="-110.00">					<syllabic>begin</syllabic>					<text font-family="Times New Roman" font-size="12.000010" font-weight="normal" font-style="normal">dri</text>				</lyric>				<lyric number="3" justify="center" default-y="-140.00">					<syllabic>end</syllabic>					<text font-family="Times New Roman" font-size="12.000010" font-weight="normal" font-style="normal">i</text>				</lyric>				<lyric number="4" justify="center" default-y="-170.00">					<syllabic>single</syllabic>					<text font-family="Times New Roman" font-size="12.000010" font-weight="normal" font-style="normal">der</text>				</lyric>				<lyric number="5" justify="center" default-y="-200.00">					<syllabic>begin</syllabic>					<text font-family="Times New Roman" font-size="12.000010" font-weight="normal" font-style="normal">cu</text>				</lyric>				<lyric number="6" justify="center" default-y="-230.00">					<syllabic>end</syllabic>					<text font-family="Times New Roman" font-size="12.000010" font-weight="normal" font-style="normal">che</text>				</lyric>			</note>		</measure>		<!--==========================[1,3]=============================-->		<measure number="3" width="197">			<note>				<pitch>					<step>B</step>					<octave>3</octave>				</pitch>				<duration>13440</duration>				<voice>1</voice>				<type>half</type>				<stem default-y="-54.72">down</stem>				<lyric number="1" justify="center" default-y="-80.00">					<syllabic>begin</syllabic>					<text font-family="Times New Roman" font-size="12.000010" font-weight="normal" font-style="normal">spe</text>				</lyric>				<lyric number="2" justify="center" default-y="-110.00">					<syllabic>middle</syllabic>					<text font-family="Times New Roman" font-size="12.000010" font-weight="normal" font-style="normal">fal</text>				</lyric>				<lyric number="3" justify="center" default-y="-140.00">					<syllabic>middle</syllabic>					<text font-family="Times New Roman" font-size="12.000010" font-weight="normal" font-style="normal">fi</text>				</lyric>				<lyric number="4" justify="center" default-y="-170.00">					<syllabic>middle</syllabic>					<text font-family="Times New Roman" font-size="12.000010" font-weight="normal" font-style="normal">a</text>				</lyric>				<lyric number="5" justify="center" default-y="-200.00">					<syllabic>middle</syllabic>					<text font-family="Times New Roman" font-size="12.000010" font-weight="normal" font-style="normal">na</text>				</lyric>				<lyric number="6" justify="center" default-y="-230.00">					<syllabic>middle</syllabic>					<text font-family="Times New Roman" font-size="12.000010" font-weight="normal" font-style="normal">kin</text>				</lyric>			</note>			<note>				<pitch>					<step>B</step>					<octave>3</octave>				</pitch>				<duration>6720</duration>				<voice>1</voice>				<type>quarter</type>				<stem default-y="-54.72">down</stem>				<lyric number="1" justify="left" default-y="-80.00">					<syllabic>middle</syllabic>					<text font-family="Times New Roman" font-size="12.000010" font-weight="normal" font-style="normal">cu</text>				</lyric>				<lyric number="2" justify="left" default-y="-110.00">					<syllabic>middle</syllabic>					<text font-family="Times New Roman" font-size="12.000010" font-weight="normal" font-style="normal">di</text>				</lyric>				<lyric number="3" justify="left" default-y="-140.00">					<syllabic>middle</syllabic>					<text font-family="Times New Roman" font-size="12.000010" font-weight="normal" font-style="normal">li</text>				</lyric>				<lyric number="4" justify="center" default-y="-170.00">					<syllabic>end</syllabic>					<text font-family="Times New Roman" font-size="12.000010" font-weight="normal" font-style="normal">ne</text>				</lyric>				<lyric number="5" justify="center" default-y="-200.00">					<syllabic>begin</syllabic>					<text font-family="Times New Roman" font-size="12.000010" font-weight="normal" font-style="normal">bi</text>				</lyric>				<lyric number="6" justify="center" default-y="-230.00">					<syllabic>middle</syllabic>					<text font-family="Times New Roman" font-size="12.000010" font-weight="normal" font-style="normal">de</text>				</lyric>			</note>			<note>				<pitch>					<step>A</step>					<octave>3</octave>				</pitch>				<duration>20160</duration>				<voice>1</voice>				<type>half</type>				<dot/>				<stem default-y="9.72">up</stem>				<lyric number="1" justify="center" default-y="-80.00">					<syllabic>end</syllabic>					<text font-family="Times New Roman" font-size="12.000010" font-weight="normal" font-style="normal">lum</text>				</lyric>				<lyric number="2" justify="center" default-y="-110.00">					<syllabic>single</syllabic>					<text font-family="Times New Roman" font-size="12.000010" font-weight="normal" font-style="normal">chet</text>				</lyric>				<lyric number="3" justify="center" default-y="-140.00">					<syllabic>single</syllabic>					<text font-family="Times New Roman" font-size="12.000010" font-weight="normal" font-style="normal">um</text>				</lyric>				<lyric number="4" justify="center" default-y="-170.00">					<syllabic>single</syllabic>					<text font-family="Times New Roman" font-size="12.000010" font-weight="normal" font-style="normal">pyn</text>				</lyric>				<lyric number="5" justify="center" default-y="-200.00">					<syllabic>single</syllabic>					<text font-family="Times New Roman" font-size="12.000010" font-weight="normal" font-style="normal">lis</text>				</lyric>				<lyric number="6" justify="left" default-y="-230.00">					<syllabic>single</syllabic>					<text font-family="Times New Roman" font-size="12.000010" font-weight="normal" font-style="normal">lin, dat</text>				</lyric>			</note>		</measure>		<!--==========================[1,4]=============================-->		<measure number="4" width="250">			<note>				<pitch>					<step>G</step>					<octave>3</octave>				</pitch>				<duration>13440</duration>				<voice>1</voice>				<type>half</type>				<stem default-y="4.72">up</stem>				<lyric number="1" justify="center" default-y="-80.00">					<syllabic>begin</syllabic>					<text font-family="Times New Roman" font-size="12.000010" font-weight="normal" font-style="normal">il</text>				</lyric>				<lyric number="2" justify="left" default-y="-110.00">					<syllabic>middle</syllabic>					<text font-family="Times New Roman" font-size="12.000010" font-weight="normal" font-style="normal">luch</text>				</lyric>				<lyric number="3" justify="center" default-y="-140.00">					<syllabic>middle</syllabic>					<text font-family="Times New Roman" font-size="12.000010" font-weight="normal" font-style="normal">pa</text>				</lyric>				<lyric number="4" justify="center" default-y="-170.00">					<syllabic>end</syllabic>					<text font-family="Times New Roman" font-size="12.000010" font-weight="normal" font-style="normal">hed</text>				</lyric>				<lyric number="5" justify="center" default-y="-200.00">					<syllabic>begin</syllabic>					<text font-family="Times New Roman" font-size="12.000010" font-weight="normal" font-style="normal">pu</text>				</lyric>				<lyric number="6" justify="center" default-y="-230.00">					<syllabic>end</syllabic>					<text font-family="Times New Roman" font-size="12.000010" font-weight="normal" font-style="normal">lyt</text>				</lyric>			</note>			<note>				<pitch>					<step>G</step>					<octave>3</octave>				</pitch>				<duration>6720</duration>				<voice>1</voice>				<type>quarter</type>				<stem default-y="4.72">up</stem>				<lyric number="1" justify="left" default-y="-80.00">					<syllabic>begin</syllabic>					<text font-family="Times New Roman" font-size="12.000010" font-weight="normal" font-style="normal">lu</text>				</lyric>				<lyric number="2" justify="right" default-y="-110.00">					<syllabic>end</syllabic>					<text font-family="Times New Roman" font-size="12.000010" font-weight="normal" font-style="normal">ted</text>				</lyric>				<lyric number="3" justify="center" default-y="-140.00">					<syllabic>single</syllabic>					<text font-family="Times New Roman" font-size="12.000010" font-weight="normal" font-style="normal">rit</text>				</lyric>				<lyric number="4" justify="left" default-y="-170.00">					<syllabic>begin</syllabic>					<text font-family="Times New Roman" font-size="12.000010" font-weight="normal" font-style="normal">ge</text>				</lyric>				<lyric number="5" justify="center" default-y="-200.00">					<syllabic>end</syllabic>					<text font-family="Times New Roman" font-size="12.000010" font-weight="normal" font-style="normal">er</text>				</lyric>				<lyric number="6" justify="center" default-y="-230.00">					<syllabic>single</syllabic>					<text font-family="Times New Roman" font-size="12.000010" font-weight="normal" font-style="normal">in</text>				</lyric>			</note>			<note>				<pitch>					<step>G</step>					<octave>3</octave>				</pitch>				<duration>13440</duration>				<voice>1</voice>				<type>half</type>				<stem default-y="4.72">up</stem>				<lyric number="1" justify="center" default-y="-80.00">					<syllabic>begin</syllabic>					<text font-family="Times New Roman" font-size="12.000010" font-weight="normal" font-style="normal">stra</text>				</lyric>				<lyric number="2" justify="center" default-y="-110.00">					<syllabic>end</syllabic>					<text font-family="Times New Roman" font-size="12.000010" font-weight="normal" font-style="normal">in</text>				</lyric>				<lyric number="3" justify="left" default-y="-140.00">					<syllabic>begin</syllabic>					<text font-family="Times New Roman" font-size="12.000010" font-weight="normal" font-style="normal">chri</text>				</lyric>				<lyric number="4" justify="center" default-y="-170.00">					<syllabic>end</syllabic>					<text font-family="Times New Roman" font-size="12.000010" font-weight="normal" font-style="normal">bert</text>				</lyric>				<lyric number="5" justify="center" default-y="-200.00">					<syllabic>begin</syllabic>					<text font-family="Times New Roman" font-size="12.000010" font-weight="normal" font-style="normal">am</text>				</lyric>				<lyric number="6" justify="center" default-y="-230.00">					<syllabic>middle</syllabic>					<text font-family="Times New Roman" font-size="12.000010" font-weight="normal" font-style="normal">ey</text>				</lyric>			</note>			<note>				<pitch>					<step>F</step>					<octave>3</octave>				</pitch>				<duration>6720</duration>				<voice>1</voice>				<type>quarter</type>				<stem default-y="-0.28">up</stem>				<lyric number="1" justify="center" default-y="-80.00">					<syllabic>end</syllabic>					<text font-family="Times New Roman" font-size="12.000010" font-weight="normal" font-style="normal">vit</text>				</lyric>				<lyric number="2" justify="center" default-y="-110.00">					<syllabic>single</syllabic>					<text font-family="Times New Roman" font-size="12.000010" font-weight="normal" font-style="normal">der</text>				</lyric>				<lyric number="3" justify="center" default-y="-140.00">					<syllabic>single</syllabic>					<text font-family="Times New Roman" font-size="12.000010" font-weight="normal" font-style="normal">stum</text>				</lyric>				<lyric number="4" justify="center" default-y="-170.00">					<syllabic>single</syllabic>					<text font-family="Times New Roman" font-size="12.000010" font-weight="normal" font-style="normal">en</text>				</lyric>				<lyric number="5" justify="center" default-y="-200.00">					<syllabic>begin</syllabic>					<text font-family="Times New Roman" font-size="12.000010" font-weight="normal" font-style="normal">mi</text>				</lyric>				<lyric number="6" justify="center" default-y="-230.00">					<syllabic>end</syllabic>					<text font-family="Times New Roman" font-size="12.000010" font-weight="normal" font-style="normal">me</text>				</lyric>			</note>		</measure>		<!--==========================[1,5]=============================-->		<measure number="5" width="211">			<note>				<pitch>					<step>E</step>					<octave>3</octave>				</pitch>				<duration>13440</duration>				<voice>1</voice>				<type>half</type>				<stem default-y="-5.28">up</stem>				<lyric number="1" justify="center" default-y="-80.00">					<syllabic>begin</syllabic>					<text font-family="Times New Roman" font-size="12.000010" font-weight="normal" font-style="normal">se</text>				</lyric>				<lyric number="2" justify="center" default-y="-110.00">					<syllabic>middle</syllabic>					<text font-family="Times New Roman" font-size="12.000010" font-weight="normal" font-style="normal">du</text>				</lyric>				<lyric number="3" justify="center" default-y="-140.00">					<syllabic>middle</syllabic>					<text font-family="Times New Roman" font-size="12.000010" font-weight="normal" font-style="normal">ge</text>				</lyric>				<lyric number="4" justify="center" default-y="-170.00">					<syllabic>middle</syllabic>					<text font-family="Times New Roman" font-size="12.000010" font-weight="normal" font-style="normal">kin</text>				</lyric>				<lyric number="5" justify="center" default-y="-200.00">					<syllabic>middle</syllabic>					<text font-family="Times New Roman" font-size="12.000010" font-weight="normal" font-style="normal">ra</text>				</lyric>				<lyric number="6" justify="center" default-y="-230.00">					<syllabic>middle</syllabic>					<text font-family="Times New Roman" font-size="12.000010" font-weight="normal" font-style="normal">krip</text>				</lyric>			</note>			<note>				<pitch>					<step>E</step>					<octave>3</octave>				</pitch>				<duration>6720</duration>				<voice>1</voice>				<type>quarter</type>				<stem default-y="-5.28">up</stem>				<lyric number="1" justify="center" default-y="-80.00">					<syllabic>middle</syllabic>					<text font-family="Times New Roman" font-size="12.000010" font-weight="normal" font-style="normal">cu</text>				</lyric>				<lyric number="2" justify="left" default-y="-110.00">					<syllabic>end</syllabic>					<text font-family="Times New Roman" font-size="12.000010" font-weight="normal" font-style="normal">stri-chet</text>				</lyric>				<lyric number="3" justify="left" default-y="-140.00">					<syllabic>single</syllabic>					<text font-family="Times New Roman" font-size="12.000010" font-weight="normal" font-style="normal">ni-tum</text>				</lyric>				<lyric number="4" justify="center" default-y="-170.00">					<syllabic>begin</syllabic>					<text font-family="Times New Roman" font-size="12.000010" font-weight="normal" font-style="normal">de</text>				</lyric>				<lyric number="5" justify="center" default-y="-200.00">					<syllabic>middle</syllabic>					<text font-family="Times New Roman" font-size="12.000010" font-weight="normal" font-style="normal">bi</text>				</lyric>				<lyric number="6" justify="center" default-y="-230.00">					<syllabic>middle</syllabic>					<text font-family="Times New Roman" font-size="12.000010" font-weight="normal" font-style="normal">pe</text>				</lyric>			</note>			<note>				<pitch>					<step>D</step>					<octave>3</octave>				</pitch>				<duration>20160</duration>				<voice>1</voice>				<type>half</type>				<dot/>				<stem default-y="-10.28">up</stem>				<lyric number="1" justify="center" default-y="-80.00">					<syllabic>end</syllabic>					<text font-family="Times New Roman" font-size="12.000010" font-weight="normal" font-style="normal">lum</text>				</lyric>				<lyric number="2" justify="left" default-y="-110.00">					<syllabic>single</syllabic>					<text font-family="Times New Roman" font-size="12.000010" font-weight="normal" font-style="normal">/</text>				</lyric>				<lyric number="3" justify="left" default-y="-140.00">					<syllabic>single</syllabic>					<text font-family="Times New Roman" font-size="12.000010" font-weight="normal" font-style="normal">/</text>				</lyric>				<lyric number="4" justify="center" default-y="-170.00">					<syllabic>single</syllabic>					<text font-family="Times New Roman" font-size="12.000010" font-weight="normal" font-style="normal">lin</text>				</lyric>				<lyric number="5" justify="center" default-y="-200.00">					<syllabic>single</syllabic>					<text font-family="Times New Roman" font-size="12.000010" font-weight="normal" font-style="normal">lis</text>				</lyric>				<lyric number="6" justify="center" default-y="-230.00">					<syllabic>single</syllabic>					<text font-family="Times New Roman" font-size="12.000010" font-weight="normal" font-style="normal">lin</text>				</lyric>			</note>			<barline location="right">				<repeat direction="backward" times="6"/>			</barline>		</measure>		<!--==========================[1,6]=============================-->		<measure number="6" width="339">			<print new-system="yes">				<system-layout>					<system-margins>						<left-margin>95.494</left-margin>						<right-margin>67.130</right-margin>					</system-margins>					<system-distance>248.889</system-distance>				</system-layout>			</print>			<barline location="left">				<repeat direction="forward"/>			</barline>			<attributes>				<staff-details number="1" print-object="yes">				</staff-details>			</attributes>			<note>				<pitch>					<step>D</step>					<octave>3</octave>				</pitch>				<duration>13440</duration>				<voice>1</voice>				<type>half</type>				<stem default-y="-10.28">up</stem>				<lyric number="1" justify="right" default-y="-100.56">					<syllabic>begin</syllabic>					<text font-family="Times New Roman" font-size="12.000010" font-weight="normal" font-style="normal">1., 3., 5.Ey</text>				</lyric>				<lyric number="2" justify="right" default-y="-135.56">					<syllabic>middle</syllabic>					<text font-family="Times New Roman" font-size="12.000010" font-weight="normal" font-style="normal">2., 4., 6.Ey</text>				</lyric>			</note>			<note>				<pitch>					<step>E</step>					<octave>3</octave>				</pitch>				<duration>6720</duration>				<voice>1</voice>				<type>quarter</type>				<stem default-y="-5.28">up</stem>				<lyric number="1" justify="center" default-y="-100.56">					<syllabic>end</syllabic>					<text font-family="Times New Roman" font-size="12.000010" font-weight="normal" font-style="normal">a</text>				</lyric>				<lyric number="2" justify="center" default-y="-135.56">					<syllabic>single</syllabic>					<text font-family="Times New Roman" font-size="12.000010" font-weight="normal" font-style="normal">a</text>				</lyric>			</note>			<note>				<pitch>					<step>F</step>					<octave>3</octave>				</pitch>				<duration>13440</duration>				<voice>1</voice>				<type>half</type>				<stem default-y="-0.28">up</stem>				<lyric number="1" justify="center" default-y="-100.56">					<syllabic>begin</syllabic>					<text font-family="Times New Roman" font-size="12.000010" font-weight="normal" font-style="normal">cor</text>				</lyric>				<lyric number="2" justify="center" default-y="-135.56">					<syllabic>middle</syllabic>					<text font-family="Times New Roman" font-size="12.000010" font-weight="normal" font-style="normal">le</text>				</lyric>			</note>			<note>				<pitch>					<step>G</step>					<octave>3</octave>				</pitch>				<duration>6720</duration>				<voice>1</voice>				<type>quarter</type>				<stem default-y="4.72">up</stem>				<lyric number="1" justify="center" default-y="-100.56">					<syllabic>middle</syllabic>					<text font-family="Times New Roman" font-size="12.000010" font-weight="normal" font-style="normal">di</text>				</lyric>				<lyric number="2" justify="center" default-y="-135.56">					<syllabic>end</syllabic>					<text font-family="Times New Roman" font-size="12.000010" font-weight="normal" font-style="normal">ve</text>				</lyric>			</note>		</measure>		<!--==========================[1,7]=============================-->		<measure number="7" width="242">			<note>				<pitch>					<step>A</step>					<octave>3</octave>				</pitch>				<duration>13440</duration>				<voice>1</voice>				<type>half</type>				<stem default-y="9.72">up</stem>				<lyric number="1" justify="center" default-y="-100.56">					<syllabic>begin</syllabic>					<text font-family="Times New Roman" font-size="12.000010" font-weight="normal" font-style="normal">a</text>				</lyric>				<lyric number="2" justify="center" default-y="-135.56">					<syllabic>middle</syllabic>					<text font-family="Times New Roman" font-size="12.000010" font-weight="normal" font-style="normal">cri</text>				</lyric>			</note>			<note>				<pitch>					<step>F</step>					<octave>3</octave>				</pitch>				<duration>6720</duration>				<voice>1</voice>				<type>quarter</type>				<stem default-y="-0.28">up</stem>				<lyric number="1" justify="center" default-y="-100.56">					<syllabic>middle</syllabic>					<text font-family="Times New Roman" font-size="12.000010" font-weight="normal" font-style="normal">li</text>				</lyric>				<lyric number="2" justify="left" default-y="-135.56">					<syllabic>middle</syllabic>					<text font-family="Times New Roman" font-size="12.000010" font-weight="normal" font-style="normal">sten</text>				</lyric>			</note>			<note>				<pitch>					<step>G</step>					<octave>3</octave>				</pitch>				<duration>20160</duration>				<voice>1</voice>				<type>half</type>				<dot/>				<stem default-y="4.72">up</stem>				<lyric number="1" justify="center" default-y="-100.56">					<syllabic>end</syllabic>					<text font-family="Times New Roman" font-size="12.000010" font-weight="normal" font-style="normal">ter,</text>				</lyric>				<lyric number="2" justify="center" default-y="-135.56">					<syllabic>single</syllabic>					<text font-family="Times New Roman" font-size="12.000010" font-weight="normal" font-style="normal">heyt,</text>				</lyric>			</note>			<backup>				<duration>40320</duration>			</backup>			<note>				<grace/>				<pitch>					<step>D</step>					<octave>3</octave>				</pitch>				<voice>1</voice>				<type>quarter</type>				<stem default-y="-20.28">up</stem>				<lyric number="2" justify="center" default-y="-135.56">					<syllabic>single</syllabic>					<text font-family="Times New Roman" font-size="12.000010" font-weight="normal" font-style="normal">myt</text>				</lyric>			</note>		</measure>		<!--==========================[1,8]=============================-->		<measure number="8" width="243">			<note>				<pitch>					<step>D</step>					<octave>3</octave>				</pitch>				<duration>13440</duration>				<voice>1</voice>				<type>half</type>				<stem default-y="-10.28">up</stem>				<lyric number="1" justify="center" default-y="-100.56">					<syllabic>begin</syllabic>					<text font-family="Times New Roman" font-size="12.000010" font-weight="normal" font-style="normal">iu</text>				</lyric>				<lyric number="2" justify="center" default-y="-135.56">					<syllabic>middle</syllabic>					<text font-family="Times New Roman" font-size="12.000010" font-weight="normal" font-style="normal">lo</text>				</lyric>			</note>			<note>				<pitch>					<step>E</step>					<octave>3</octave>				</pitch>				<duration>6720</duration>				<voice>1</voice>				<type>quarter</type>				<stem default-y="-5.28">up</stem>				<lyric number="1" justify="center" default-y="-100.56">					<syllabic>middle</syllabic>					<text font-family="Times New Roman" font-size="12.000010" font-weight="normal" font-style="normal">bi</text>				</lyric>				<lyric number="2" justify="center" default-y="-135.56">					<syllabic>end</syllabic>					<text font-family="Times New Roman" font-size="12.000010" font-weight="normal" font-style="normal">ve</text>				</lyric>			</note>			<note>				<pitch>					<step>F</step>					<octave>3</octave>				</pitch>				<duration>13440</duration>				<voice>1</voice>				<type>half</type>				<stem default-y="-0.28">up</stem>				<lyric number="1" justify="center" default-y="-100.56">					<syllabic>begin</syllabic>					<text font-family="Times New Roman" font-size="12.000010" font-weight="normal" font-style="normal">lan</text>				</lyric>				<lyric number="2" justify="center" default-y="-135.56">					<syllabic>middle</syllabic>					<text font-family="Times New Roman" font-size="12.000010" font-weight="normal" font-style="normal">san</text>				</lyric>			</note>			<note>				<pitch>					<step>G</step>					<octave>3</octave>				</pitch>				<duration>6720</duration>				<voice>1</voice>				<type>quarter</type>				<stem default-y="4.72">up</stem>				<lyric number="1" justify="center" default-y="-100.56">					<syllabic>end</syllabic>					<text font-family="Times New Roman" font-size="12.000010" font-weight="normal" font-style="normal">do</text>				</lyric>				<lyric number="2" justify="center" default-y="-135.56">					<syllabic>single</syllabic>					<text font-family="Times New Roman" font-size="12.000010" font-weight="normal" font-style="normal">ge</text>				</lyric>			</note>		</measure>		<!--==========================[1,9]=============================-->		<measure number="9" width="257">			<note>				<pitch>					<step>A</step>					<octave>3</octave>				</pitch>				<duration>13440</duration>				<voice>1</voice>				<type>half</type>				<stem default-y="9.72">up</stem>				<lyric number="1" justify="center" default-y="-100.56">					<syllabic>begin</syllabic>					<text font-family="Times New Roman" font-size="12.000010" font-weight="normal" font-style="normal">pa</text>				</lyric>				<lyric number="2" justify="center" default-y="-135.56">					<syllabic>end</syllabic>					<text font-family="Times New Roman" font-size="12.000010" font-weight="normal" font-style="normal">weß</text>				</lyric>			</note>			<note>				<pitch>					<step>F</step>					<octave>3</octave>				</pitch>				<duration>6720</duration>				<voice>1</voice>				<type>quarter</type>				<stem default-y="-0.28">up</stem>				<lyric number="1" justify="left" default-y="-100.56">					<syllabic>begin</syllabic>					<text font-family="Times New Roman" font-size="12.000010" font-weight="normal" font-style="normal">ri</text>				</lyric>				<lyric number="2" justify="left" default-y="-135.56">					<syllabic>middle</syllabic>					<text font-family="Times New Roman" font-size="12.000010" font-weight="normal" font-style="normal">be</text>				</lyric>			</note>			<note>				<pitch>					<step>G</step>					<octave>3</octave>				</pitch>				<duration>13440</duration>				<voice>1</voice>				<type>half</type>				<stem default-y="4.72">up</stem>				<lyric number="1" justify="center" default-y="-100.56">					<syllabic>end</syllabic>					<text font-family="Times New Roman" font-size="12.000010" font-weight="normal" font-style="normal">ter,</text>				</lyric>				<lyric number="2" justify="center" default-y="-135.56">					<syllabic>single</syllabic>					<text font-family="Times New Roman" font-size="12.000010" font-weight="normal" font-style="normal">reyd,</text>				</lyric>			</note>			<note>				<pitch>					<step>C</step>					<octave>4</octave>				</pitch>				<duration>6720</duration>				<voice>1</voice>				<type>quarter</type>				<stem default-y="-50.28">down</stem>				<lyric number="1" justify="center" default-y="-100.56">					<syllabic>begin</syllabic>					<text font-family="Times New Roman" font-size="12.000010" font-weight="normal" font-style="normal">hy</text>				</lyric>				<lyric number="2" justify="center" default-y="-135.56">					<syllabic>end</syllabic>					<text font-family="Times New Roman" font-size="12.000010" font-weight="normal" font-style="normal">myt</text>				</lyric>			</note>		</measure>		<!--==========================[1,10]=============================-->		<measure number="10" width="310">			<print new-system="yes">				<system-layout>					<system-margins>						<left-margin>95.494</left-margin>						<right-margin>67.130</right-margin>					</system-margins>					<system-distance>169.445</system-distance>				</system-layout>			</print>			<attributes>				<staff-details number="1" print-object="yes">				</staff-details>			</attributes>			<note>				<pitch>					<step>C</step>					<octave>4</octave>				</pitch>				<duration>13440</duration>				<voice>1</voice>				<type>half</type>				<stem default-y="-50.28">down</stem>				<lyric number="1" justify="center" default-y="-80.56">					<syllabic>begin</syllabic>					<text font-family="Times New Roman" font-size="12.000010" font-weight="normal" font-style="normal">la</text>				</lyric>				<lyric number="2" justify="center" default-y="-120.56">					<syllabic>middle</syllabic>					<text font-family="Times New Roman" font-size="12.000010" font-weight="normal" font-style="normal">fro</text>				</lyric>			</note>			<note>				<pitch>					<step>A</step>					<octave>3</octave>				</pitch>				<duration>6720</duration>				<voice>1</voice>				<type>quarter</type>				<stem default-y="9.72">up</stem>				<lyric number="1" justify="center" default-y="-80.56">					<syllabic>middle</syllabic>					<text font-family="Times New Roman" font-size="12.000010" font-weight="normal" font-style="normal">ri</text>				</lyric>				<lyric number="2" justify="center" default-y="-120.56">					<syllabic>middle</syllabic>					<text font-family="Times New Roman" font-size="12.000010" font-weight="normal" font-style="normal">li</text>				</lyric>			</note>			<note>				<pitch>					<step>C</step>					<octave>4</octave>				</pitch>				<duration>20160</duration>				<voice>1</voice>				<type>half</type>				<dot/>				<stem default-y="-50.28">down</stem>				<lyric number="1" justify="center" default-y="-80.56">					<syllabic>end</syllabic>					<text font-family="Times New Roman" font-size="12.000010" font-weight="normal" font-style="normal">ter,</text>				</lyric>				<lyric number="2" justify="center" default-y="-120.56">					<syllabic>single</syllabic>					<text font-family="Times New Roman" font-size="12.000010" font-weight="normal" font-style="normal">chet,</text>				</lyric>			</note>			<backup>				<duration>40320</duration>			</backup>			<note>				<grace/>				<pitch>					<step>C</step>					<octave>4</octave>				</pitch>				<voice>1</voice>				<type>quarter</type>				<stem default-y="-40.28">down</stem>				<lyric number="2" justify="center" default-y="-120.56">					<syllabic>single</syllabic>					<text font-family="Times New Roman" font-size="12.000010" font-weight="normal" font-style="normal">myt</text>				</lyric>			</note>		</measure>		<!--==========================[1,11]=============================-->		<measure number="11" width="284">			<note>				<pitch>					<step>C</step>					<octave>4</octave>				</pitch>				<duration>13440</duration>				<voice>1</voice>				<type>half</type>				<stem default-y="-50.28">down</stem>				<lyric number="1" justify="center" default-y="-80.56">					<syllabic>begin</syllabic>					<text font-family="Times New Roman" font-size="12.000010" font-weight="normal" font-style="normal">ta</text>				</lyric>				<lyric number="2" justify="center" default-y="-120.56">					<syllabic>middle</syllabic>					<text font-family="Times New Roman" font-size="12.000010" font-weight="normal" font-style="normal">yn</text>				</lyric>			</note>			<note>				<pitch>					<step>A</step>					<octave>3</octave>				</pitch>				<duration>6720</duration>				<voice>1</voice>				<type>quarter</type>				<stem default-y="9.72">up</stem>				<lyric number="1" justify="center" default-y="-80.56">					<syllabic>middle</syllabic>					<text font-family="Times New Roman" font-size="12.000010" font-weight="normal" font-style="normal">li</text>				</lyric>				<lyric number="2" justify="center" default-y="-120.56">					<syllabic>middle</syllabic>					<text font-family="Times New Roman" font-size="12.000010" font-weight="normal" font-style="normal">ni</text>				</lyric>			</note>			<note>				<pitch>					<step>C</step>					<octave>4</octave>				</pitch>				<duration>13440</duration>				<voice>1</voice>				<type>half</type>				<stem default-y="-50.28">down</stem>				<lyric number="1" justify="center" default-y="-80.56">					<syllabic>end</syllabic>					<text font-family="Times New Roman" font-size="12.000010" font-weight="normal" font-style="normal">ter</text>				</lyric>				<lyric number="2" justify="center" default-y="-120.56">					<syllabic>single</syllabic>					<text font-family="Times New Roman" font-size="12.000010" font-weight="normal" font-style="normal">chet</text>				</lyric>			</note>			<note>				<pitch>					<step>G</step>					<octave>3</octave>				</pitch>				<duration>6720</duration>				<voice>1</voice>				<type>quarter</type>				<stem default-y="4.72">up</stem>				<lyric number="1" justify="center" default-y="-80.56">					<syllabic>begin</syllabic>					<text font-family="Times New Roman" font-size="12.000010" font-weight="normal" font-style="normal">in</text>				</lyric>				<lyric number="2" justify="center" default-y="-120.56">					<syllabic>end</syllabic>					<text font-family="Times New Roman" font-size="12.000010" font-weight="normal" font-style="normal">dem</text>				</lyric>			</note>		</measure>		<!--==========================[1,12]=============================-->		<measure number="12" width="305">			<note>				<pitch>					<step>G</step>					<octave>3</octave>				</pitch>				<duration>13440</duration>				<voice>1</voice>				<type>half</type>				<stem default-y="4.72">up</stem>				<lyric number="1" justify="center" default-y="-80.56">					<syllabic>begin</syllabic>					<text font-family="Times New Roman" font-size="12.000010" font-weight="normal" font-style="normal">fan</text>				</lyric>				<lyric number="2" justify="center" default-y="-120.56">					<syllabic>middle</syllabic>					<text font-family="Times New Roman" font-size="12.000010" font-weight="normal" font-style="normal">kinde</text>				</lyric>			</note>			<note>				<pitch>					<step>G</step>					<octave>3</octave>				</pitch>				<duration>6720</duration>				<voice>1</voice>				<type>quarter</type>				<stem default-y="4.72">up</stem>				<lyric number="1" justify="center" default-y="-80.56">					<syllabic>middle</syllabic>					<text font-family="Times New Roman" font-size="12.000010" font-weight="normal" font-style="normal">tu</text>				</lyric>				<lyric number="2" justify="center" default-y="-120.56">					<syllabic>end</syllabic>					<text font-family="Times New Roman" font-size="12.000010" font-weight="normal" font-style="normal">lin</text>				</lyric>			</note>			<note>				<pitch>					<step>G</step>					<octave>3</octave>				</pitch>				<duration>13440</duration>				<voice>1</voice>				<type>half</type>				<stem default-y="4.72">up</stem>				<lyric number="1" justify="center" default-y="-80.56">					<syllabic>single</syllabic>					<text font-family="Times New Roman" font-size="12.000010" font-weight="normal" font-style="normal">lo</text>				</lyric>				<lyric number="2" justify="center" default-y="-120.56">					<syllabic>single</syllabic>					<text font-family="Times New Roman" font-size="12.000010" font-weight="normal" font-style="normal">in</text>				</lyric>			</note>			<note>				<pitch>					<step>F</step>					<octave>3</octave>				</pitch>				<duration>6720</duration>				<voice>1</voice>				<type>quarter</type>				<stem default-y="-0.28">up</stem>				<lyric number="1" justify="center" default-y="-80.56">					<syllabic>begin</syllabic>					<text font-family="Times New Roman" font-size="12.000010" font-weight="normal" font-style="normal">con</text>				</lyric>				<lyric number="2" justify="center" default-y="-120.56">					<syllabic>end</syllabic>					<text font-family="Times New Roman" font-size="12.000010" font-weight="normal" font-style="normal">der</text>				</lyric>			</note>		</measure>		<!--==========================[1,13]=============================-->		<measure number="13" width="182">			<note>				<pitch>					<step>E</step>					<octave>3</octave>				</pitch>				<duration>20160</duration>				<voice>1</voice>				<type>half</type>				<dot/>				<stem default-y="-5.28">up</stem>				<lyric number="1" justify="center" default-y="-80.56">					<syllabic>begin</syllabic>					<text font-family="Times New Roman" font-size="12.000010" font-weight="normal" font-style="normal">cin</text>				</lyric>				<lyric number="2" justify="center" default-y="-120.56">					<syllabic>middle</syllabic>					<text font-family="Times New Roman" font-size="12.000010" font-weight="normal" font-style="normal">ewi</text>				</lyric>			</note>			<note>				<pitch>					<step>D</step>					<octave>3</octave>				</pitch>				<duration>20160</duration>				<voice>1</voice>				<type>half</type>				<dot/>				<stem default-y="-10.28">up</stem>				<lyric number="1" justify="center" default-y="-80.56">					<syllabic>end</syllabic>					<text font-family="Times New Roman" font-size="12.000010" font-weight="normal" font-style="normal">no,</text>				</lyric>				<lyric number="2" justify="center" default-y="-120.56">					<syllabic>single</syllabic>					<text font-family="Times New Roman" font-size="12.000010" font-weight="normal" font-style="normal">cheyt,</text>				</lyric>			</note>		</measure>		<!--==========================[1,14]=============================-->		<measure number="14" width="355">			<print new-system="yes">				<system-layout>					<system-margins>						<left-margin>95.494</left-margin>						<right-margin>75.232</right-margin>					</system-margins>					<system-distance>169.445</system-distance>				</system-layout>			</print>			<attributes>				<staff-details number="1" print-object="yes">				</staff-details>			</attributes>			<note>				<pitch>					<step>F</step>					<octave>3</octave>				</pitch>				<duration>13440</duration>				<voice>1</voice>				<type>half</type>				<stem default-y="-0.28">up</stem>				<lyric number="1" justify="center" default-y="-80.56">					<syllabic>begin</syllabic>					<text font-family="Times New Roman" font-size="12.000010" font-weight="normal" font-style="normal">su</text>				</lyric>				<lyric number="2" justify="center" default-y="-120.56">					<syllabic>middle</syllabic>					<text font-family="Times New Roman" font-size="12.000010" font-weight="normal" font-style="normal">su</text>				</lyric>			</note>			<note>				<pitch>					<step>G</step>					<octave>3</octave>				</pitch>				<duration>6720</duration>				<voice>1</voice>				<type>quarter</type>				<stem default-y="4.72">up</stem>				<lyric number="1" justify="center" default-y="-80.56">					<syllabic>end</syllabic>					<text font-family="Times New Roman" font-size="12.000010" font-weight="normal" font-style="normal">ze</text>				</lyric>				<lyric number="2" justify="center" default-y="-120.56">					<syllabic>single</syllabic>					<text font-family="Times New Roman" font-size="12.000010" font-weight="normal" font-style="normal">cze</text>				</lyric>			</note>			<note>				<pitch>					<step>A</step>					<octave>3</octave>				</pitch>				<duration>13440</duration>				<voice>1</voice>				<type>half</type>				<stem default-y="9.72">up</stem>				<lyric number="1" justify="center" default-y="-80.56">					<syllabic>begin</syllabic>					<text font-family="Times New Roman" font-size="12.000010" font-weight="normal" font-style="normal">lie</text>				</lyric>				<lyric number="2" justify="center" default-y="-120.56">					<syllabic>middle</syllabic>					<text font-family="Times New Roman" font-size="12.000010" font-weight="normal" font-style="normal">lie</text>				</lyric>			</note>			<note>				<pitch>					<step>F</step>					<octave>3</octave>				</pitch>				<duration>6720</duration>				<voice>1</voice>				<type>quarter</type>				<stem default-y="-0.28">up</stem>				<lyric number="1" justify="center" default-y="-80.56">					<syllabic>end</syllabic>					<text font-family="Times New Roman" font-size="12.000010" font-weight="normal" font-style="normal">be</text>				</lyric>				<lyric number="2" justify="center" default-y="-120.56">					<syllabic>single</syllabic>					<text font-family="Times New Roman" font-size="12.000010" font-weight="normal" font-style="normal">be</text>				</lyric>			</note>		</measure>		<!--==========================[1,15]=============================-->		<measure number="15" width="206">			<note>				<pitch>					<step>G</step>					<octave>3</octave>				</pitch>				<duration>20160</duration>				<voice>1</voice>				<type>half</type>				<dot/>				<stem default-y="4.72">up</stem>				<lyric number="1" justify="center" default-y="-80.56">					<syllabic>begin</syllabic>					<text font-family="Times New Roman" font-size="12.000010" font-weight="normal" font-style="normal">min</text>				</lyric>				<lyric number="2" justify="center" default-y="-120.56">					<syllabic>middle</syllabic>					<text font-family="Times New Roman" font-size="12.000010" font-weight="normal" font-style="normal">min</text>				</lyric>			</note>			<note>				<pitch>					<step>D</step>					<octave>3</octave>				</pitch>				<duration>20160</duration>				<voice>1</voice>				<type>half</type>				<dot/>				<stem default-y="-10.28">up</stem>				<lyric number="1" justify="center" default-y="-80.56">					<syllabic>end</syllabic>					<text font-family="Times New Roman" font-size="12.000010" font-weight="normal" font-style="normal">ne,</text>				</lyric>				<lyric number="2" justify="center" default-y="-120.56">					<syllabic>single</syllabic>					<text font-family="Times New Roman" font-size="12.000010" font-weight="normal" font-style="normal">ne,</text>				</lyric>			</note>		</measure>		<!--==========================[1,16]=============================-->		<measure number="16" width="315">			<note>				<pitch>					<step>G</step>					<octave>3</octave>				</pitch>				<duration>13440</duration>				<voice>1</voice>				<type>half</type>				<stem default-y="4.72">up</stem>				<lyric number="1" justify="center" default-y="-80.56">					<syllabic>begin</syllabic>					<text font-family="Times New Roman" font-size="12.000010" font-weight="normal" font-style="normal">su</text>				</lyric>				<lyric number="2" justify="center" default-y="-120.56">					<syllabic>middle</syllabic>					<text font-family="Times New Roman" font-size="12.000010" font-weight="normal" font-style="normal">su</text>				</lyric>			</note>			<forward>				<duration>6720</duration>			</forward>			<direction placement="above">				<direction-type>					<words font-family="Helvetica" font-size="8.500000" font-weight="normal" font-style="normal" relative-x="0.00" default-y="10.98">b</words>				</direction-type>			</direction>			<backup>				<duration>6720</duration>			</backup>			<note>				<pitch>					<step>A</step>					<octave>3</octave>				</pitch>				<duration>6720</duration>				<voice>1</voice>				<type>quarter</type>				<stem default-y="9.72">up</stem>				<lyric number="1" justify="center" default-y="-80.56">					<syllabic>end</syllabic>					<text font-family="Times New Roman" font-size="12.000010" font-weight="normal" font-style="normal">ze</text>				</lyric>				<lyric number="2" justify="center" default-y="-120.56">					<syllabic>single</syllabic>					<text font-family="Times New Roman" font-size="12.000010" font-weight="normal" font-style="normal">cze</text>				</lyric>			</note>			<note>				<pitch>					<step>B</step>					<octave>3</octave>				</pitch>				<duration>13440</duration>				<voice>1</voice>				<type>half</type>				<stem default-y="-55.28">down</stem>				<lyric number="1" justify="center" default-y="-80.56">					<syllabic>begin</syllabic>					<text font-family="Times New Roman" font-size="12.000010" font-weight="normal" font-style="normal">lie</text>				</lyric>				<lyric number="2" justify="center" default-y="-120.56">					<syllabic>middle</syllabic>					<text font-family="Times New Roman" font-size="12.000010" font-weight="normal" font-style="normal">lie</text>				</lyric>			</note>			<note>				<pitch>					<step>G</step>					<octave>3</octave>				</pitch>				<duration>6720</duration>				<voice>1</voice>				<type>quarter</type>				<stem default-y="4.72">up</stem>				<lyric number="1" justify="center" default-y="-80.56">					<syllabic>end</syllabic>					<text font-family="Times New Roman" font-size="12.000010" font-weight="normal" font-style="normal">be</text>				</lyric>				<lyric number="2" justify="center" default-y="-120.56">					<syllabic>single</syllabic>					<text font-family="Times New Roman" font-size="12.000010" font-weight="normal" font-style="normal">be</text>				</lyric>			</note>		</measure>		<!--==========================[1,17]=============================-->		<measure number="17" width="198">			<note>				<pitch>					<step>A</step>					<octave>3</octave>				</pitch>				<duration>20160</duration>				<voice>1</voice>				<type>half</type>				<dot/>				<stem default-y="9.72">up</stem>				<lyric number="1" justify="center" default-y="-80.56">					<syllabic>begin</syllabic>					<text font-family="Times New Roman" font-size="12.000010" font-weight="normal" font-style="normal">min</text>				</lyric>				<lyric number="2" justify="center" default-y="-120.56">					<syllabic>middle</syllabic>					<text font-family="Times New Roman" font-size="12.000010" font-weight="normal" font-style="normal">min</text>				</lyric>			</note>			<note>				<pitch>					<step>A</step>					<octave>3</octave>				</pitch>				<duration>13440</duration>				<voice>1</voice>				<type>half</type>				<stem default-y="9.72">up</stem>				<notations>					<fermata type="upright" relative-x="-4.76" relative-y="9.44"/>				</notations>				<lyric number="1" justify="center" default-y="-80.56">					<syllabic>end</syllabic>					<text font-family="Times New Roman" font-size="12.000010" font-weight="normal" font-style="normal">no.</text>				</lyric>				<lyric number="2" justify="center" default-y="-120.56">					<syllabic>single</syllabic>					<text font-family="Times New Roman" font-size="12.000010" font-weight="normal" font-style="normal">no.</text>				</lyric>			</note>			<barline location="right">				<repeat direction="backward" times="2"/>			</barline>		</measure>	</part></score-partwise>