<?xml version="1.0" encoding="UTF-8" standalone="no"?><!DOCTYPE score-partwise PUBLIC "-//Recordare//DTD MusicXML 2.0 Partwise//EN" "http://www.musicxml.org/dtds/partwise.dtd"><score-partwise version="2.0">	<work>		<work-title>8.</work-title>	</work>	<identification>		<creator type="composer">Ihesus christus nostra salusfol. 210v</creator>		<creator type="poet">Ihesus christus nostra salusfol. 210v</creator>		<encoding>			<software>PDFtoMusic Pro - 64-bits v2.0.0d Build 29A6A (c) Myriad - http://www.myriad-online.com</software>			<?PDFtoMusic Document type 0100- 5A50330C?>			<supports attribute="new-system" element="print" type="yes" value="yes"/>			<supports attribute="new-page" element="print" type="yes" value="yes"/>		</encoding>	</identification>	<defaults>		<scaling>			<millimeters>5.587999</millimeters>			<tenths>40</tenths>		</scaling>		<page-layout>			<page-height>2126.263</page-height>			<page-width>1502.526</page-width>			<page-margins type="both">				<left-margin>71.582</left-margin>				<right-margin>71.582</right-margin>				<top-margin>71.582</top-margin>				 <bottom-margin>71.582</bottom-margin>			</page-margins>		</page-layout>		<appearance>			<line-width type="stem">1.2121</line-width>			<line-width type="beam">4.8485</line-width>			<line-width type="staff">1.2121</line-width>			<line-width type="light barline">1.2121</line-width>		</appearance>	</defaults>	<credit page="1">		<credit-type>subtitle</credit-type>		<credit-words  default-x="747.240" default-y="1903.843" justify="center" valign="baseline" font-family="Times New Roman" font-size="13.500000" font-weight="bold" font-style="normal">Ihesus christus nostra salusfol. 210v</credit-words>	</credit>	<credit page="1">		<credit-words  default-x="615.758" default-y="854.751" justify="left" valign="baseline" font-family="Times New Roman" font-size="11.000000" font-weight="normal" font-style="normal">Non est panis sed [est] deushomo liberator meuscaro cibus sacramentumquo non est maius inventum</credit-words>	</credit>	<credit page="1">		<credit-words  default-x="615.758" default-y="694.145" justify="left" valign="baseline" font-family="Times New Roman" font-size="11.000000" font-weight="normal" font-style="normal">O quam sanctus panis istetu es salus ihesu christe[fac nos] tuam clementiamimpertire ac graciam</credit-words>	</credit>	<credit page="1">		<credit-words  default-x="615.758" default-y="532.932" justify="left" valign="baseline" font-family="Times New Roman" font-size="11.000000" font-weight="normal" font-style="normal">Hoc donum suavitatiscaritasque deitatisvirtus et eucharistiacomunionis gracia</credit-words>	</credit>	<credit page="1">		<credit-words  default-x="615.758" default-y="371.720" justify="left" valign="baseline" font-family="Times New Roman" font-size="11.000000" font-weight="normal" font-style="normal">Salve deitatis formadei unionis normain te quisque delectaturqui te fide speculatur</credit-words>	</credit>	<credit page="1">		<credit-words  default-x="615.758" default-y="210.508" justify="left" valign="baseline" font-family="Times New Roman" font-size="11.000000" font-weight="normal" font-style="normal">etc.</credit-words>	</credit>	<credit page="1">		<credit-words  default-x="731.516" default-y="92.325" justify="left" valign="baseline" font-family="Times New Roman" font-size="14.500000" font-weight="normal" font-style="normal">52</credit-words>	</credit>	<credit page="1">		<credit-type>title</credit-type>		<credit-words  default-x="734.546" default-y="1945.661" justify="left" valign="baseline" font-family="Times New Roman" font-size="13.500000" font-weight="bold" font-style="normal">8.</credit-words>	</credit>	<part-list>		<score-part id="P1">			<part-name></part-name>			<score-instrument id="P1-I1">				<instrument-name>Instrument 1</instrument-name>			</score-instrument>			<midi-instrument id="P1-I1">				<midi-channel>1</midi-channel>				<midi-bank>4</midi-bank>				<midi-program>53</midi-program>				<volume>50</volume>				<pan>-90</pan>				<elevation>0</elevation>				<?Myriad				<iddigit>5230</iddigit>				?>			</midi-instrument>			<?Myriad			<virtualVoice id="P1-I1" default="5230">			</virtualVoice>			?>		</score-part>		<score-part id="P2">			<part-name></part-name>			<score-instrument id="P2-I1">				<instrument-name>Instrument 2</instrument-name>			</score-instrument>			<midi-instrument id="P2-I1">				<midi-channel>2</midi-channel>				<midi-bank>5</midi-bank>				<midi-program>53</midi-program>				<volume>50</volume>				<pan>90</pan>				<elevation>0</elevation>				<?Myriad				<iddigit>5240</iddigit>				?>			</midi-instrument>			<?Myriad			<virtualVoice id="P2-I1" default="5240">			</virtualVoice>			?>		</score-part>	</part-list>	<part id="P1">		<!--==========================[1,1]=============================-->		<measure number="1" width="444">			<sound tempo="80" />			<print new-page="yes">				<system-layout>					<system-margins>						<left-margin>101.145</left-margin>						<right-margin>79.545</right-margin>					</system-margins>					<top-system-distance>291.444</top-system-distance>				</system-layout>			</print>			<attributes>				<divisions>6720</divisions>				<time>					<beats>4</beats>					<beat-type>2</beat-type>				</time>				<clef number="1">					<sign>G</sign>					<line>2</line>					<clef-octave-change>-1</clef-octave-change>				</clef>				<staff-details number="1" print-object="yes">					<staff-lines>5</staff-lines>					<staff-size>96.97</staff-size>				</staff-details>			</attributes>			<note>				<pitch>					<step>D</step>					<octave>4</octave>				</pitch>				<duration>13440</duration>				<voice>1</voice>				<type>half</type>				<stem default-y="-46.56">down</stem>				<lyric number="1" justify="center" default-y="-83.13">					<syllabic>begin</syllabic>					<text font-family="Times New Roman" font-size="12.000010" font-weight="normal" font-style="normal" xml:lang="la">Je</text>				</lyric>			</note>			<note>				<pitch>					<step>E</step>					<octave>4</octave>				</pitch>				<duration>13440</duration>				<voice>1</voice>				<type>half</type>				<stem default-y="-41.56">down</stem>				<lyric number="1" justify="center" default-y="-83.13">					<syllabic>end</syllabic>					<text font-family="Times New Roman" font-size="12.000010" font-weight="normal" font-style="normal" xml:lang="la">sus</text>				</lyric>			</note>			<note>				<pitch>					<step>F</step>					<octave>4</octave>				</pitch>				<duration>6720</duration>				<voice>1</voice>				<type>quarter</type>				<stem default-y="-35.94">down</stem>				<lyric number="1" justify="center" default-y="-83.13">					<syllabic>begin</syllabic>					<text font-family="Times New Roman" font-size="12.000010" font-weight="normal" font-style="normal" xml:lang="la">Chri</text>				</lyric>			</note>			<note>				<pitch>					<step>E</step>					<octave>4</octave>				</pitch>				<duration>6720</duration>				<voice>1</voice>				<type>quarter</type>				<stem default-y="-41.56">down</stem>			</note>			<note>				<pitch>					<step>F</step>					<octave>4</octave>				</pitch>				<duration>6720</duration>				<voice>1</voice>				<type>quarter</type>				<stem default-y="-35.94">down</stem>			</note>			<note>				<pitch>					<step>D</step>					<octave>4</octave>				</pitch>				<duration>6720</duration>				<voice>1</voice>				<type>quarter</type>				<stem default-y="-46.56">down</stem>				<lyric number="1" justify="center" default-y="-83.13">					<syllabic>end</syllabic>					<text font-family="Times New Roman" font-size="12.000010" font-weight="normal" font-style="normal" xml:lang="la">stus</text>				</lyric>			</note>		</measure>		<!--==========================[1,2]=============================-->		<measure number="2" width="387">			<note>				<pitch>					<step>C</step>					<octave>4</octave>				</pitch>				<duration>13440</duration>				<voice>1</voice>				<type>half</type>				<stem default-y="-51.56">down</stem>				<lyric number="1" justify="center" default-y="-83.13">					<syllabic>begin</syllabic>					<text font-family="Times New Roman" font-size="12.000010" font-weight="normal" font-style="normal" xml:lang="la">no</text>				</lyric>			</note>			<note>				<pitch>					<step>E</step>					<octave>4</octave>				</pitch>				<duration>6720</duration>				<voice>1</voice>				<type>quarter</type>				<stem default-y="-41.56">down</stem>				<lyric number="1" justify="center" default-y="-83.13">					<syllabic>end</syllabic>					<text font-family="Times New Roman" font-size="12.000010" font-weight="normal" font-style="normal" xml:lang="la">stra</text>				</lyric>			</note>			<note>				<pitch>					<step>C</step>					<octave>4</octave>				</pitch>				<duration>13440</duration>				<voice>1</voice>				<type>half</type>				<stem default-y="-51.56">down</stem>				<lyric number="1" justify="center" default-y="-83.13">					<syllabic>begin</syllabic>					<text font-family="Times New Roman" font-size="12.000010" font-weight="normal" font-style="normal" xml:lang="la">sa</text>				</lyric>			</note>			<note>				<pitch>					<step>A</step>					<octave>3</octave>				</pitch>				<duration>6720</duration>				<voice>1</voice>				<type>quarter</type>				<stem default-y="10.31">up</stem>			</note>			<note>				<pitch>					<step>A</step>					<octave>3</octave>				</pitch>				<duration>6720</duration>				<voice>1</voice>				<type>quarter</type>				<stem default-y="10.31">up</stem>			</note>			<note>				<pitch>					<step>B</step>					<octave>3</octave>				</pitch>				<duration>3360</duration>				<voice>1</voice>				<type>eighth</type>				<stem default-y="-51.56">down</stem>				<beam number="1">begin</beam>			</note>			<note>				<pitch>					<step>C</step>					<octave>4</octave>				</pitch>				<duration>3360</duration>				<voice>1</voice>				<type>eighth</type>				<stem default-y="-46.56">down</stem>				<beam number="1">end</beam>			</note>		</measure>		<!--==========================[1,3]=============================-->		<measure number="3" width="383">			<note>				<pitch>					<step>D</step>					<octave>4</octave>				</pitch>				<duration>3360</duration>				<voice>1</voice>				<type>eighth</type>				<stem default-y="-41.56">down</stem>				<beam number="1">begin</beam>			</note>			<note>				<pitch>					<step>E</step>					<octave>4</octave>				</pitch>				<duration>3360</duration>				<voice>1</voice>				<type>eighth</type>				<stem default-y="-35.94">down</stem>				<beam number="1">end</beam>			</note>			<note>				<pitch>					<step>E</step>					<octave>4</octave>				</pitch>				<duration>6720</duration>				<voice>1</voice>				<type>quarter</type>				<stem default-y="-41.56">down</stem>			</note>			<note>				<pitch>					<step>D</step>					<octave>4</octave>				</pitch>				<duration>6720</duration>				<voice>1</voice>				<type>quarter</type>				<stem default-y="-46.56">down</stem>			</note>			<note>				<pitch>					<step>C</step>					<octave>4</octave>				</pitch>				<duration>6720</duration>				<voice>1</voice>				<type>quarter</type>				<stem default-y="-51.56">down</stem>			</note>			<note>				<pitch>					<step>D</step>					<octave>4</octave>				</pitch>				<duration>13440</duration>				<voice>1</voice>				<type>half</type>				<stem default-y="-46.56">down</stem>				<lyric number="1" justify="center" default-y="-83.13">					<syllabic>end</syllabic>					<text font-family="Times New Roman" font-size="12.000010" font-weight="normal" font-style="normal" xml:lang="la">lus</text>				</lyric>			</note>			<note>				<rest>				</rest>				<duration>13440</duration>				<voice>1</voice>				<type>half</type>			</note>		</measure>		<!--==========================[1,4]=============================-->		<measure number="4" width="478">			<print new-system="yes">				<system-layout>					<system-margins>						<left-margin>101.145</left-margin>						<right-margin>79.545</right-margin>					</system-margins>					<system-distance>150.303</system-distance>				</system-layout>			</print>			<attributes>				<staff-details number="1" print-object="yes">				</staff-details>			</attributes>			<note>				<pitch>					<step>F</step>					<octave>4</octave>				</pitch>				<duration>6720</duration>				<voice>1</voice>				<type>quarter</type>				<stem default-y="-34.41">down</stem>				<lyric number="1" justify="center" default-y="-78.82">					<syllabic>single</syllabic>					<text font-family="Times New Roman" font-size="12.000010" font-weight="normal" font-style="normal" xml:lang="la">quod</text>				</lyric>			</note>			<note>				<pitch>					<step>D</step>					<octave>4</octave>				</pitch>				<duration>6720</duration>				<voice>1</voice>				<type>quarter</type>				<stem default-y="-44.41">down</stem>				<lyric number="1" justify="left" default-y="-78.82">					<syllabic>begin</syllabic>					<text font-family="Times New Roman" font-size="12.000010" font-weight="normal" font-style="normal" xml:lang="la">re</text>				</lyric>			</note>			<note>				<pitch>					<step>C</step>					<octave>4</octave>				</pitch>				<duration>6720</duration>				<voice>1</voice>				<type>quarter</type>				<stem default-y="-49.12">down</stem>				<lyric number="1" justify="center" default-y="-78.82">					<syllabic>middle</syllabic>					<text font-family="Times New Roman" font-size="12.000010" font-weight="normal" font-style="normal" xml:lang="la">cla</text>				</lyric>			</note>			<note>				<pitch>					<step>A</step>					<octave>3</octave>				</pitch>				<duration>6720</duration>				<voice>1</voice>				<type>quarter</type>				<stem default-y="9.12">up</stem>				<lyric number="1" justify="right" default-y="-78.82">					<syllabic>end</syllabic>					<text font-family="Times New Roman" font-size="12.000010" font-weight="normal" font-style="normal" xml:lang="la">mat</text>				</lyric>			</note>			<note>				<pitch>					<step>C</step>					<octave>4</octave>				</pitch>				<duration>6720</duration>				<voice>1</voice>				<type>quarter</type>				<stem default-y="-49.12">down</stem>				<lyric number="1" justify="left" default-y="-78.82">					<syllabic>begin</syllabic>					<text font-family="Times New Roman" font-size="12.000010" font-weight="normal" font-style="normal" xml:lang="la">om</text>				</lyric>			</note>			<note>				<pitch>					<step>D</step>					<octave>4</octave>				</pitch>				<duration>6720</duration>				<voice>1</voice>				<type>quarter</type>				<stem default-y="-44.41">down</stem>				<lyric number="1" justify="right" default-y="-78.82">					<syllabic>end</syllabic>					<text font-family="Times New Roman" font-size="12.000010" font-weight="normal" font-style="normal" xml:lang="la">nis</text>				</lyric>			</note>			<note>				<pitch>					<step>C</step>					<octave>4</octave>				</pitch>				<duration>6720</duration>				<voice>1</voice>				<type>quarter</type>				<stem default-y="-49.12">down</stem>				<lyric number="1" justify="left" default-y="-78.82">					<syllabic>begin</syllabic>					<text font-family="Times New Roman" font-size="12.000010" font-weight="normal" font-style="normal" xml:lang="la">ma</text>				</lyric>			</note>			<note>				<pitch>					<step>D</step>					<octave>4</octave>				</pitch>				<duration>3360</duration>				<voice>1</voice>				<type>eighth</type>				<stem default-y="-39.12">down</stem>				<beam number="1">begin</beam>			</note>			<note>				<pitch>					<step>E</step>					<octave>4</octave>				</pitch>				<duration>3360</duration>				<voice>1</voice>				<type>eighth</type>				<stem default-y="-34.41">down</stem>				<beam number="1">end</beam>			</note>		</measure>		<!--==========================[1,5]=============================-->		<measure number="5" width="339">			<note>				<pitch>					<step>D</step>					<octave>4</octave>				</pitch>				<duration>3360</duration>				<voice>1</voice>				<type>eighth</type>				<stem default-y="-39.12">down</stem>				<beam number="1">begin</beam>			</note>			<note>				<pitch>					<step>D</step>					<octave>4</octave>				</pitch>				<duration>3360</duration>				<voice>1</voice>				<type>eighth</type>				<stem default-y="-40.88">down</stem>				<beam number="1">continue</beam>			</note>			<note>				<pitch>					<step>C</step>					<octave>4</octave>				</pitch>				<duration>3360</duration>				<voice>1</voice>				<type>eighth</type>				<stem default-y="-42.65">down</stem>				<beam number="1">continue</beam>			</note>			<note>				<pitch>					<step>C</step>					<octave>4</octave>				</pitch>				<duration>3360</duration>				<voice>1</voice>				<type>eighth</type>				<stem default-y="-44.41">down</stem>				<beam number="1">end</beam>			</note>			<note>				<pitch>					<step>D</step>					<octave>4</octave>				</pitch>				<duration>13440</duration>				<voice>1</voice>				<type>half</type>				<stem default-y="-44.41">down</stem>				<lyric number="1" justify="center" default-y="-78.82">					<syllabic>end</syllabic>					<text font-family="Times New Roman" font-size="12.000010" font-weight="normal" font-style="normal" xml:lang="la">lus</text>				</lyric>			</note>			<note>				<rest>				</rest>				<duration>13440</duration>				<voice>1</voice>				<type>half</type>			</note>			<note>				<pitch>					<step>C</step>					<octave>4</octave>				</pitch>				<duration>13440</duration>				<voice>1</voice>				<type>half</type>				<stem default-y="-49.12">down</stem>				<lyric number="1" justify="center" default-y="-78.82">					<syllabic>begin</syllabic>					<text font-family="Times New Roman" font-size="12.000010" font-weight="normal" font-style="normal" xml:lang="la">no</text>				</lyric>			</note>		</measure>		<!--==========================[1,6]=============================-->		<measure number="6" width="325">			<note>				<pitch>					<step>B</step>					<octave>3</octave>				</pitch>				<duration>3360</duration>				<voice>1</voice>				<type>eighth</type>				<stem default-y="-54.11">down</stem>				<lyric number="1" justify="center" default-y="-78.82">					<syllabic>end</syllabic>					<text font-family="Times New Roman" font-size="12.000010" font-weight="normal" font-style="normal" xml:lang="la">bis</text>				</lyric>			</note>			<note>				<pitch>					<step>B</step>					<octave>3</octave>				</pitch>				<duration>3360</duration>				<voice>1</voice>				<type>eighth</type>				<stem default-y="-54.11">down</stem>				<lyric number="1" justify="left" default-y="-78.82">					<syllabic>begin</syllabic>					<text font-family="Times New Roman" font-size="12.000010" font-weight="normal" font-style="normal" xml:lang="la">su</text>				</lyric>			</note>			<note>				<pitch>					<step>A</step>					<octave>3</octave>				</pitch>				<duration>13440</duration>				<voice>1</voice>				<type>half</type>				<stem default-y="9.12">up</stem>				<lyric number="1" justify="right" default-y="-78.82">					<syllabic>end</syllabic>					<text font-family="Times New Roman" font-size="12.000010" font-weight="normal" font-style="normal" xml:lang="la">i</text>				</lyric>			</note>			<note>				<pitch>					<step>D</step>					<octave>4</octave>				</pitch>				<duration>6720</duration>				<voice>1</voice>				<type>quarter</type>				<stem default-y="-44.41">down</stem>				<lyric number="1" justify="left" default-y="-78.82">					<syllabic>begin</syllabic>					<text font-family="Times New Roman" font-size="12.000010" font-weight="normal" font-style="normal" xml:lang="la">me</text>				</lyric>			</note>			<note>				<pitch>					<step>C</step>					<octave>4</octave>				</pitch>				<duration>13440</duration>				<voice>1</voice>				<type>half</type>				<stem default-y="-49.12">down</stem>				<lyric number="1" justify="right" default-y="-78.82">					<syllabic>middle</syllabic>					<text font-family="Times New Roman" font-size="12.000010" font-weight="normal" font-style="normal" xml:lang="la">mo</text>				</lyric>			</note>			<note>				<pitch>					<step>B</step>					<octave>3</octave>				</pitch>				<duration>13440</duration>				<voice>1</voice>				<type>half</type>				<stem default-y="-53.82">down</stem>				<lyric number="1" justify="center" default-y="-78.82">					<syllabic>middle</syllabic>					<text font-family="Times New Roman" font-size="12.000010" font-weight="normal" font-style="normal" xml:lang="la">ri</text>				</lyric>			</note>		</measure>		<!--==========================[1,7]=============================-->		<measure number="7" width="489">			<print new-system="yes">				<system-layout>					<system-margins>						<left-margin>101.145</left-margin>						<right-margin>83.333</right-margin>					</system-margins>					<system-distance>150.303</system-distance>				</system-layout>			</print>			<attributes>				<staff-details number="1" print-object="yes">				</staff-details>			</attributes>			<note>				<pitch>					<step>A</step>					<octave>3</octave>				</pitch>				<duration>6720</duration>				<voice>1</voice>				<type>quarter</type>				<stem default-y="10.31">up</stem>				<lyric number="1" justify="left" default-y="-83.13">					<syllabic>end</syllabic>					<text font-family="Times New Roman" font-size="12.000010" font-weight="normal" font-style="normal" xml:lang="la">am</text>				</lyric>			</note>			<note>				<pitch>					<step>B</step>					<octave>3</octave>				</pitch>				<duration>6720</duration>				<voice>1</voice>				<type>quarter</type>				<stem default-y="-57.19">down</stem>			</note>			<note>				<pitch>					<step>C</step>					<octave>4</octave>				</pitch>				<duration>13440</duration>				<voice>1</voice>				<type>half</type>				<stem default-y="-51.56">down</stem>			</note>			<note>				<pitch>					<step>C</step>					<octave>4</octave>				</pitch>				<duration>6720</duration>				<voice>1</voice>				<type>quarter</type>				<stem default-y="-51.56">down</stem>				<lyric number="1" justify="center" default-y="-83.13">					<syllabic>begin</syllabic>					<text font-family="Times New Roman" font-size="12.000010" font-weight="normal" font-style="normal" xml:lang="la">de</text>				</lyric>			</note>			<note>				<pitch>					<step>D</step>					<octave>4</octave>				</pitch>				<duration>6720</duration>				<voice>1</voice>				<type>quarter</type>				<stem default-y="-46.56">down</stem>				<lyric number="1" justify="center" default-y="-83.13">					<syllabic>end</syllabic>					<text font-family="Times New Roman" font-size="12.000010" font-weight="normal" font-style="normal" xml:lang="la">dit</text>				</lyric>			</note>			<note>				<pitch>					<step>C</step>					<octave>4</octave>				</pitch>				<duration>6720</duration>				<voice>1</voice>				<type>quarter</type>				<stem default-y="-51.56">down</stem>				<lyric number="1" justify="center" default-y="-83.13">					<syllabic>single</syllabic>					<text font-family="Times New Roman" font-size="12.000010" font-weight="normal" font-style="normal" xml:lang="la">in</text>				</lyric>			</note>			<note>				<pitch>					<step>A</step>					<octave>3</octave>				</pitch>				<duration>6720</duration>				<voice>1</voice>				<type>quarter</type>				<stem default-y="10.31">up</stem>				<lyric number="1" justify="center" default-y="-83.13">					<syllabic>begin</syllabic>					<text font-family="Times New Roman" font-size="12.000010" font-weight="normal" font-style="normal" xml:lang="la">pa</text>				</lyric>			</note>		</measure>		<!--==========================[1,8]=============================-->		<measure number="8" width="583">			<note>				<pitch>					<step>C</step>					<octave>4</octave>				</pitch>				<duration>6720</duration>				<voice>1</voice>				<type>quarter</type>				<stem default-y="-51.56">down</stem>				<lyric number="1" justify="center" default-y="-83.13">					<syllabic>end</syllabic>					<text font-family="Times New Roman" font-size="12.000010" font-weight="normal" font-style="normal" xml:lang="la">nis</text>				</lyric>			</note>			<note>				<pitch>					<step>D</step>					<octave>4</octave>				</pitch>				<duration>6720</duration>				<voice>1</voice>				<type>quarter</type>				<stem default-y="-46.56">down</stem>			</note>			<note>				<pitch>					<step>E</step>					<octave>4</octave>				</pitch>				<duration>13440</duration>				<voice>1</voice>				<type>half</type>				<stem default-y="-41.56">down</stem>			</note>			<note>				<pitch>					<step>F</step>					<octave>4</octave>				</pitch>				<duration>3360</duration>				<voice>1</voice>				<type>eighth</type>				<stem default-y="-41.56">down</stem>				<beam number="1">begin</beam>				<lyric number="1" justify="center" default-y="-83.13">					<syllabic>begin</syllabic>					<text font-family="Times New Roman" font-size="12.000010" font-weight="normal" font-style="normal" xml:lang="la">ho</text>				</lyric>			</note>			<note>				<pitch>					<step>E</step>					<octave>4</octave>				</pitch>				<duration>3360</duration>				<voice>1</voice>				<type>eighth</type>				<stem default-y="-45.31">down</stem>				<beam number="1">continue</beam>			</note>			<note>				<pitch>					<step>D</step>					<octave>4</octave>				</pitch>				<duration>3360</duration>				<voice>1</voice>				<type>eighth</type>				<stem default-y="-48.44">down</stem>				<beam number="1">continue</beam>			</note>			<note>				<pitch>					<step>C</step>					<octave>4</octave>				</pitch>				<duration>3360</duration>				<voice>1</voice>				<type>eighth</type>				<stem default-y="-51.56">down</stem>				<beam number="1">end</beam>			</note>			<note>				<pitch>					<step>D</step>					<octave>4</octave>				</pitch>				<duration>3360</duration>				<voice>1</voice>				<type>eighth</type>				<stem default-y="-41.56">down</stem>				<beam number="1">begin</beam>				<lyric number="1" justify="center" default-y="-83.13">					<syllabic>middle</syllabic>					<text font-family="Times New Roman" font-size="12.000010" font-weight="normal" font-style="normal" xml:lang="la">sti</text>				</lyric>			</note>			<note>				<pitch>					<step>E</step>					<octave>4</octave>				</pitch>				<duration>3360</duration>				<voice>1</voice>				<type>eighth</type>				<stem default-y="-43.44">down</stem>				<beam number="1">continue</beam>			</note>			<note>				<pitch>					<step>D</step>					<octave>4</octave>				</pitch>				<duration>3360</duration>				<voice>1</voice>				<type>eighth</type>				<stem default-y="-45.31">down</stem>				<beam number="1">continue</beam>			</note>			<note>				<pitch>					<step>C</step>					<octave>4</octave>				</pitch>				<duration>3360</duration>				<voice>1</voice>				<type>eighth</type>				<stem default-y="-46.56">down</stem>				<beam number="1">end</beam>			</note>		</measure>		<!--==========================[1,9]=============================-->		<measure number="9" width="138">			<note>				<pitch>					<step>D</step>					<octave>4</octave>				</pitch>				<duration>26880</duration>				<voice>1</voice>				<type>whole</type>				<stem>none</stem>				<lyric number="1" justify="center" default-y="-83.13">					<syllabic>end</syllabic>					<text font-family="Times New Roman" font-size="12.000010" font-weight="normal" font-style="normal" xml:lang="la">am.</text>				</lyric>			</note>			<barline location="right">				<bar-style>light-light</bar-style>			</barline>		</measure>	</part>	<part id="P2">		<!--==========================[2,1]=============================-->		<measure number="1" width="418">			<print new-page="yes">				<staff-layout number="1">					<staff-distance>80.000</staff-distance>				</staff-layout>			</print>			<attributes>				<divisions>6720</divisions>				<time>					<beats>4</beats>					<beat-type>2</beat-type>				</time>				<clef number="1">					<sign>G</sign>					<line>2</line>					<clef-octave-change>-1</clef-octave-change>				</clef>				<staff-details number="1" print-object="yes">					<staff-lines>5</staff-lines>					<staff-size>103.03</staff-size>				</staff-details>			</attributes>			<note>				<pitch>					<step>D</step>					<octave>3</octave>				</pitch>				<duration>13440</duration>				<voice>1</voice>				<type>half</type>				<stem default-y="-10.29">up</stem>				<lyric number="1" justify="center" default-y="-78.24">					<syllabic>begin</syllabic>					<text font-family="Times New Roman" font-size="12.000010" font-weight="normal" font-style="normal" xml:lang="la">Je</text>				</lyric>			</note>			<note>				<pitch>					<step>A</step>					<octave>3</octave>				</pitch>				<duration>13440</duration>				<voice>1</voice>				<type>half</type>				<stem default-y="9.12">up</stem>				<lyric number="1" justify="center" default-y="-78.24">					<syllabic>end</syllabic>					<text font-family="Times New Roman" font-size="12.000010" font-weight="normal" font-style="normal" xml:lang="la">sus</text>				</lyric>			</note>			<note>				<pitch>					<step>A</step>					<octave>3</octave>				</pitch>				<duration>13440</duration>				<voice>1</voice>				<type>half</type>				<stem default-y="9.12">up</stem>				<lyric number="1" justify="center" default-y="-78.24">					<syllabic>begin</syllabic>					<text font-family="Times New Roman" font-size="12.000010" font-weight="normal" font-style="normal" xml:lang="la">Chri</text>				</lyric>			</note>			<note>				<pitch>					<step>D</step>					<octave>3</octave>				</pitch>				<duration>13440</duration>				<voice>1</voice>				<type>half</type>				<stem default-y="-10.29">up</stem>				<lyric number="1" justify="center" default-y="-78.24">					<syllabic>end</syllabic>					<text font-family="Times New Roman" font-size="12.000010" font-weight="normal" font-style="normal" xml:lang="la">stus</text>				</lyric>			</note>		</measure>		<!--==========================[2,2]=============================-->		<measure number="2" width="364">			<note>				<pitch>					<step>F</step>					<octave>3</octave>				</pitch>				<duration>13440</duration>				<voice>1</voice>				<type>half</type>				<stem default-y="-0.29">up</stem>				<lyric number="1" justify="center" default-y="-78.24">					<syllabic>begin</syllabic>					<text font-family="Times New Roman" font-size="12.000010" font-weight="normal" font-style="normal" xml:lang="la">no</text>				</lyric>			</note>			<note>				<pitch>					<step>G</step>					<octave>3</octave>				</pitch>				<duration>13440</duration>				<voice>1</voice>				<type>half</type>				<stem default-y="4.41">up</stem>				<lyric number="1" justify="center" default-y="-78.24">					<syllabic>end</syllabic>					<text font-family="Times New Roman" font-size="12.000010" font-weight="normal" font-style="normal" xml:lang="la">stra</text>				</lyric>			</note>			<note>				<pitch>					<step>E</step>					<octave>3</octave>				</pitch>				<duration>26880</duration>				<tie type="start"/>				<voice>1</voice>				<type>whole</type>				<stem>none</stem>				<notations>					<tied type="start" number="1" placement="below" orientation="under"/>				</notations>				<lyric number="1" justify="center" default-y="-78.24">					<syllabic>begin</syllabic>					<text font-family="Times New Roman" font-size="12.000010" font-weight="normal" font-style="normal" xml:lang="la">sa</text>				</lyric>			</note>		</measure>		<!--==========================[2,3]=============================-->		<measure number="3" width="360">			<note>				<pitch>					<step>E</step>					<octave>3</octave>				</pitch>				<duration>26880</duration>				<tie type="stop"/>				<voice>1</voice>				<type>whole</type>				<stem>none</stem>				<notations>					<tied type="stop" number="1"/>				</notations>			</note>			<note>				<pitch>					<step>D</step>					<octave>3</octave>				</pitch>				<duration>26880</duration>				<voice>1</voice>				<type>whole</type>				<stem>none</stem>				<lyric number="1" justify="center" default-y="-78.24">					<syllabic>end</syllabic>					<text font-family="Times New Roman" font-size="12.000010" font-weight="normal" font-style="normal" xml:lang="la">lus</text>				</lyric>			</note>		</measure>		<!--==========================[2,4]=============================-->		<measure number="4" width="508">			<print new-system="yes">				<staff-layout number="1">					<staff-distance>80.606</staff-distance>				</staff-layout>			</print>			<attributes>				<staff-details number="1" print-object="yes">				</staff-details>			</attributes>			<note>				<pitch>					<step>F</step>					<octave>3</octave>				</pitch>				<duration>6720</duration>				<voice>1</voice>				<type>quarter</type>				<stem default-y="-0.31">up</stem>				<lyric number="1" justify="center" default-y="-83.13">					<syllabic>single</syllabic>					<text font-family="Times New Roman" font-size="12.000010" font-weight="normal" font-style="normal" xml:lang="la">quod</text>				</lyric>			</note>			<note>				<pitch>					<step>F</step>					<octave>3</octave>				</pitch>				<duration>6720</duration>				<voice>1</voice>				<type>quarter</type>				<stem default-y="-0.31">up</stem>				<lyric number="1" justify="left" default-y="-83.13">					<syllabic>begin</syllabic>					<text font-family="Times New Roman" font-size="12.000010" font-weight="normal" font-style="normal" xml:lang="la">re</text>				</lyric>			</note>			<note>				<pitch>					<step>F</step>					<octave>3</octave>				</pitch>				<duration>6720</duration>				<voice>1</voice>				<type>quarter</type>				<stem default-y="-0.31">up</stem>				<lyric number="1" justify="center" default-y="-83.13">					<syllabic>middle</syllabic>					<text font-family="Times New Roman" font-size="12.000010" font-weight="normal" font-style="normal" xml:lang="la">cla</text>				</lyric>			</note>			<note>				<pitch>					<step>D</step>					<octave>3</octave>				</pitch>				<duration>6720</duration>				<voice>1</voice>				<type>quarter</type>				<stem default-y="-10.31">up</stem>				<lyric number="1" justify="right" default-y="-83.13">					<syllabic>end</syllabic>					<text font-family="Times New Roman" font-size="12.000010" font-weight="normal" font-style="normal" xml:lang="la">mat</text>				</lyric>			</note>			<note>				<pitch>					<step>F</step>					<octave>3</octave>				</pitch>				<duration>6720</duration>				<voice>1</voice>				<type>quarter</type>				<stem default-y="-0.31">up</stem>				<lyric number="1" justify="left" default-y="-83.13">					<syllabic>begin</syllabic>					<text font-family="Times New Roman" font-size="12.000010" font-weight="normal" font-style="normal" xml:lang="la">om</text>				</lyric>			</note>			<note>				<pitch>					<step>G</step>					<octave>3</octave>				</pitch>				<duration>6720</duration>				<voice>1</voice>				<type>quarter</type>				<stem default-y="5.31">up</stem>				<lyric number="1" justify="right" default-y="-83.13">					<syllabic>end</syllabic>					<text font-family="Times New Roman" font-size="12.000010" font-weight="normal" font-style="normal" xml:lang="la">nis</text>				</lyric>			</note>			<note>				<pitch>					<step>A</step>					<octave>3</octave>				</pitch>				<duration>6720</duration>				<voice>1</voice>				<type>quarter</type>				<stem default-y="10.31">up</stem>				<lyric number="1" justify="center" default-y="-83.13">					<syllabic>begin</syllabic>					<text font-family="Times New Roman" font-size="12.000010" font-weight="normal" font-style="normal" xml:lang="la">ma</text>				</lyric>			</note>			<note>				<pitch>					<step>G</step>					<octave>3</octave>				</pitch>				<duration>6720</duration>				<voice>1</voice>				<type>quarter</type>				<stem default-y="5.31">up</stem>			</note>		</measure>		<!--==========================[2,5]=============================-->		<measure number="5" width="361">			<note>				<pitch>					<step>F</step>					<octave>3</octave>				</pitch>				<duration>6720</duration>				<voice>1</voice>				<type>quarter</type>				<stem default-y="-0.31">up</stem>			</note>			<note>				<pitch>					<step>E</step>					<octave>3</octave>				</pitch>				<duration>6720</duration>				<voice>1</voice>				<type>quarter</type>				<stem default-y="-5.31">up</stem>			</note>			<note>				<pitch>					<step>D</step>					<octave>3</octave>				</pitch>				<duration>26880</duration>				<voice>1</voice>				<type>whole</type>				<stem>none</stem>				<lyric number="1" justify="center" default-y="-83.13">					<syllabic>end</syllabic>					<text font-family="Times New Roman" font-size="12.000010" font-weight="normal" font-style="normal" xml:lang="la">lus</text>				</lyric>			</note>			<note>				<pitch>					<step>F</step>					<octave>3</octave>				</pitch>				<duration>13440</duration>				<voice>1</voice>				<type>half</type>				<stem default-y="-0.31">up</stem>				<lyric number="1" justify="center" default-y="-83.13">					<syllabic>begin</syllabic>					<text font-family="Times New Roman" font-size="12.000010" font-weight="normal" font-style="normal" xml:lang="la">no</text>				</lyric>			</note>		</measure>		<!--==========================[2,6]=============================-->		<measure number="6" width="345">			<note>				<pitch>					<step>G</step>					<octave>3</octave>				</pitch>				<duration>3360</duration>				<voice>1</voice>				<type>eighth</type>				<stem default-y="5.31">up</stem>				<lyric number="1" justify="center" default-y="-83.13">					<syllabic>end</syllabic>					<text font-family="Times New Roman" font-size="12.000010" font-weight="normal" font-style="normal" xml:lang="la">bis</text>				</lyric>			</note>			<note>				<pitch>					<step>E</step>					<octave>3</octave>				</pitch>				<duration>3360</duration>				<voice>1</voice>				<type>eighth</type>				<stem default-y="-5.31">up</stem>				<lyric number="1" justify="left" default-y="-83.13">					<syllabic>begin</syllabic>					<text font-family="Times New Roman" font-size="12.000010" font-weight="normal" font-style="normal" xml:lang="la">su</text>				</lyric>			</note>			<note>				<pitch>					<step>F</step>					<octave>3</octave>				</pitch>				<duration>13440</duration>				<voice>1</voice>				<type>half</type>				<stem default-y="-0.31">up</stem>				<lyric number="1" justify="right" default-y="-83.13">					<syllabic>end</syllabic>					<text font-family="Times New Roman" font-size="12.000010" font-weight="normal" font-style="normal" xml:lang="la">i</text>				</lyric>			</note>			<note>				<pitch>					<step>D</step>					<octave>3</octave>				</pitch>				<duration>6720</duration>				<voice>1</voice>				<type>quarter</type>				<stem default-y="-10.31">up</stem>				<lyric number="1" justify="left" default-y="-83.13">					<syllabic>begin</syllabic>					<text font-family="Times New Roman" font-size="12.000010" font-weight="normal" font-style="normal" xml:lang="la">me</text>				</lyric>			</note>			<note>				<pitch>					<step>F</step>					<octave>3</octave>				</pitch>				<duration>13440</duration>				<voice>1</voice>				<type>half</type>				<stem default-y="-0.31">up</stem>				<lyric number="1" justify="right" default-y="-83.13">					<syllabic>middle</syllabic>					<text font-family="Times New Roman" font-size="12.000010" font-weight="normal" font-style="normal" xml:lang="la">mo</text>				</lyric>			</note>			<note>				<pitch>					<step>G</step>					<octave>3</octave>				</pitch>				<duration>13440</duration>				<voice>1</voice>				<type>half</type>				<stem default-y="5.31">up</stem>				<lyric number="1" justify="center" default-y="-83.13">					<syllabic>middle</syllabic>					<text font-family="Times New Roman" font-size="12.000010" font-weight="normal" font-style="normal" xml:lang="la">ri</text>				</lyric>			</note>		</measure>		<!--==========================[2,7]=============================-->		<measure number="7" width="460">			<print new-system="yes">				<staff-layout number="1">					<staff-distance>80.000</staff-distance>				</staff-layout>			</print>			<attributes>				<staff-details number="1" print-object="yes">				</staff-details>			</attributes>			<note>				<pitch>					<step>A</step>					<octave>3</octave>				</pitch>				<duration>6720</duration>				<voice>1</voice>				<type>quarter</type>				<stem default-y="9.12">up</stem>				<lyric number="1" justify="left" default-y="-78.82">					<syllabic>end</syllabic>					<text font-family="Times New Roman" font-size="12.000010" font-weight="normal" font-style="normal" xml:lang="la">am</text>				</lyric>			</note>			<note>				<pitch>					<step>G</step>					<octave>3</octave>				</pitch>				<duration>6720</duration>				<voice>1</voice>				<type>quarter</type>				<stem default-y="4.41">up</stem>			</note>			<note>				<pitch>					<step>F</step>					<octave>3</octave>				</pitch>				<duration>13440</duration>				<voice>1</voice>				<type>half</type>				<stem default-y="-0.29">up</stem>			</note>			<note>				<pitch>					<step>C</step>					<octave>4</octave>				</pitch>				<duration>6720</duration>				<voice>1</voice>				<type>quarter</type>				<stem default-y="-49.12">down</stem>				<lyric number="1" justify="center" default-y="-78.82">					<syllabic>begin</syllabic>					<text font-family="Times New Roman" font-size="12.000010" font-weight="normal" font-style="normal" xml:lang="la">de</text>				</lyric>			</note>			<note>				<pitch>					<step>D</step>					<octave>4</octave>				</pitch>				<duration>6720</duration>				<voice>1</voice>				<type>quarter</type>				<stem default-y="-44.41">down</stem>				<lyric number="1" justify="center" default-y="-78.82">					<syllabic>end</syllabic>					<text font-family="Times New Roman" font-size="12.000010" font-weight="normal" font-style="normal" xml:lang="la">dit</text>				</lyric>			</note>			<note>				<pitch>					<step>C</step>					<octave>4</octave>				</pitch>				<duration>6720</duration>				<voice>1</voice>				<type>quarter</type>				<stem default-y="-49.12">down</stem>				<lyric number="1" justify="center" default-y="-78.82">					<syllabic>single</syllabic>					<text font-family="Times New Roman" font-size="12.000010" font-weight="normal" font-style="normal" xml:lang="la">in</text>				</lyric>			</note>			<note>				<pitch>					<step>A</step>					<octave>3</octave>				</pitch>				<duration>6720</duration>				<voice>1</voice>				<type>quarter</type>				<stem default-y="9.12">up</stem>				<lyric number="1" justify="center" default-y="-78.82">					<syllabic>begin</syllabic>					<text font-family="Times New Roman" font-size="12.000010" font-weight="normal" font-style="normal" xml:lang="la">pa</text>				</lyric>			</note>		</measure>		<!--==========================[2,8]=============================-->		<measure number="8" width="548">			<note>				<pitch>					<step>F</step>					<octave>3</octave>				</pitch>				<duration>13440</duration>				<voice>1</voice>				<type>half</type>				<stem default-y="-0.29">up</stem>				<lyric number="1" justify="left" default-y="-78.82">					<syllabic>end</syllabic>					<text font-family="Times New Roman" font-size="12.000010" font-weight="normal" font-style="normal" xml:lang="la">nis</text>				</lyric>			</note>			<note>				<pitch>					<step>G</step>					<octave>3</octave>				</pitch>				<duration>13440</duration>				<voice>1</voice>				<type>half</type>				<stem default-y="4.41">up</stem>			</note>			<note>				<pitch>					<step>A</step>					<octave>3</octave>				</pitch>				<duration>13440</duration>				<voice>1</voice>				<type>half</type>				<stem default-y="9.12">up</stem>				<lyric number="1" justify="center" default-y="-78.82">					<syllabic>begin</syllabic>					<text font-family="Times New Roman" font-size="12.000010" font-weight="normal" font-style="normal" xml:lang="la">ho</text>				</lyric>			</note>			<note>				<pitch>					<step>E</step>					<octave>3</octave>				</pitch>				<duration>10080</duration>				<voice>1</voice>				<type>quarter</type>				<dot/>				<stem default-y="-5.59">up</stem>			</note>			<note>				<pitch>					<step>E</step>					<octave>3</octave>				</pitch>				<duration>3360</duration>				<voice>1</voice>				<type>eighth</type>				<stem default-y="-5.59">up</stem>				<lyric number="1" justify="center" default-y="-78.82">					<syllabic>middle</syllabic>					<text font-family="Times New Roman" font-size="12.000010" font-weight="normal" font-style="normal" xml:lang="la">sti</text>				</lyric>			</note>		</measure>		<!--==========================[2,9]=============================-->		<measure number="9" width="130">			<note>				<pitch>					<step>D</step>					<octave>3</octave>				</pitch>				<duration>26880</duration>				<voice>1</voice>				<type>whole</type>				<stem>none</stem>				<lyric number="1" justify="center" default-y="-78.82">					<syllabic>end</syllabic>					<text font-family="Times New Roman" font-size="12.000010" font-weight="normal" font-style="normal" xml:lang="la">am.</text>				</lyric>			</note>		</measure>	</part></score-partwise>