<?xml version="1.0" encoding="UTF-8" standalone="no"?><!DOCTYPE score-partwise PUBLIC "-//Recordare//DTD MusicXML 2.0 Partwise//EN" "http://www.musicxml.org/dtds/partwise.dtd"><score-partwise version="2.0">	<work>		<work-title>13.</work-title>	</work>	<identification>		<creator type="composer">[T]onat agmen celestis curiefol. 213r</creator>		<creator type="poet">[T]onat agmen celestis curiefol. 213r</creator>		<encoding>			<software>PDFtoMusic Pro - 64-bits v2.0.0d Build 29A6A (c) Myriad - http://www.myriad-online.com</software>			<?PDFtoMusic Document type 0100- 5A50330C?>			<supports attribute="new-system" element="print" type="yes" value="yes"/>			<supports attribute="new-page" element="print" type="yes" value="yes"/>		</encoding>	</identification>	<defaults>		<scaling>			<millimeters>6.095995</millimeters>			<tenths>40</tenths>		</scaling>		<page-layout>			<page-height>1949.075</page-height>			<page-width>1377.316</page-width>			<page-margins type="both">				<left-margin>65.617</left-margin>				<right-margin>65.617</right-margin>				<top-margin>65.617</top-margin>				 <bottom-margin>65.617</bottom-margin>			</page-margins>		</page-layout>		<appearance>			<line-width type="stem">1.1111</line-width>			<line-width type="staff">1.1111</line-width>			<line-width type="light barline">1.0788</line-width>			<line-width type="leger">1.6666</line-width>		</appearance>	</defaults>	<credit page="1">		<credit-type>subtitle</credit-type>		<credit-words  default-x="688.540" default-y="1732.968" justify="center" valign="baseline" font-family="Times New Roman" font-size="15.000000" font-weight="bold" font-style="normal">[T]onat agmen celestis curiefol. 213r</credit-words>	</credit>	<credit page="1">		<credit-type>title</credit-type>		<credit-words  default-x="666.668" default-y="1772.968" justify="left" valign="baseline" font-family="Times New Roman" font-size="15.000000" font-weight="bold" font-style="normal">13.</credit-words>	</credit>	<credit page="1">		<credit-words  default-x="669.445" default-y="82.965" justify="left" valign="baseline" font-family="Times New Roman" font-size="14.500000" font-weight="normal" font-style="normal">61</credit-words>	</credit>	<part-list>		<score-part id="P1">			<part-name></part-name>			<score-instrument id="P1-I1">				<instrument-name>Instrument 1 layer 1</instrument-name>			</score-instrument>			<score-instrument id="P1-I2">				<instrument-name>Instrument 1 layer 2</instrument-name>			</score-instrument>			<midi-instrument id="P1-I1">				<midi-channel>1</midi-channel>				<midi-bank>5</midi-bank>				<midi-program>53</midi-program>				<volume>50</volume>				<pan>0</pan>				<elevation>0</elevation>				<?Myriad				<iddigit>5240</iddigit>				?>			</midi-instrument>			<?Myriad			<virtualVoice id="P1-I1" default="5240">			</virtualVoice>			?>			<midi-instrument id="P1-I2">				<midi-channel>1</midi-channel>				<midi-bank>5</midi-bank>				<midi-program>53</midi-program>				<volume>50</volume>				<pan>20</pan>				<elevation>0</elevation>				<?Myriad				<iddigit>5240</iddigit>				?>			</midi-instrument>			<?Myriad			<virtualVoice id="P1-I2" default="5240">			</virtualVoice>			?>		</score-part>	</part-list>	<part id="P1">		<!--==========================[1,1]=============================-->		<measure number="1" width="279">			<sound tempo="80" />			<print new-page="yes">				<system-layout>					<system-margins>						<left-margin>95.494</left-margin>						<right-margin>65.972</right-margin>					</system-margins>					<top-system-distance>284.380</top-system-distance>				</system-layout>			</print>			<attributes>				<divisions>6720</divisions>				<key>					<fifths>-1</fifths>					<mode>major</mode>				</key>				<time symbol="cut">					<beats>2</beats>					<beat-type>2</beat-type>				</time>				<clef number="1">					<sign>G</sign>					<line>2</line>					<clef-octave-change>-1</clef-octave-change>				</clef>				<staff-details number="1" print-object="yes">					<staff-lines>5</staff-lines>					<staff-size>100.00</staff-size>				</staff-details>			</attributes>			<note>				<pitch>					<step>F</step>					<octave>3</octave>				</pitch>				<duration>26880</duration>				<voice>1</voice>				<type>whole</type>				<stem>none</stem>				<lyric number="1" justify="center" default-y="-80.00">					<syllabic>begin</syllabic>					<text font-family="Times New Roman" font-size="12.000010" font-weight="normal" font-style="normal">[T]o</text>				</lyric>			</note>			<note>				<chord/>				<pitch>					<step>G</step>					<octave>3</octave>				</pitch>				<duration>26880</duration>				<voice>1</voice>				<type>whole</type>				<stem>none</stem>				<lyric number="1" justify="center" default-y="-80.00">					<syllabic>end</syllabic>					<text font-family="Times New Roman" font-size="12.000010" font-weight="normal" font-style="normal">nat</text>				</lyric>			</note>		</measure>		<!--==========================[1,2]=============================-->		<measure number="2" width="318">			<note>				<pitch>					<step>A</step>					<octave>3</octave>				</pitch>				<duration>26880</duration>				<voice>1</voice>				<type>whole</type>				<stem>none</stem>				<lyric number="1" justify="center" default-y="-80.00">					<syllabic>begin</syllabic>					<text font-family="Times New Roman" font-size="12.000010" font-weight="normal" font-style="normal">ag</text>				</lyric>			</note>			<note>				<pitch>					<step>C</step>					<octave>4</octave>				</pitch>				<duration>26880</duration>				<voice>1</voice>				<type>whole</type>				<stem>none</stem>				<lyric number="1" justify="center" default-y="-80.00">					<syllabic>end</syllabic>					<text font-family="Times New Roman" font-size="12.000010" font-weight="normal" font-style="normal">men</text>				</lyric>			</note>			<note>				<pitch>					<step>B</step>					<alter>-1</alter>					<octave>3</octave>				</pitch>				<duration>26880</duration>				<voice>1</voice>				<type>whole</type>				<stem>none</stem>				<lyric number="1" justify="center" default-y="-80.00">					<syllabic>begin</syllabic>					<text font-family="Times New Roman" font-size="12.000010" font-weight="normal" font-style="normal">ce</text>				</lyric>			</note>			<note>				<pitch>					<step>B</step>					<alter>-1</alter>					<octave>3</octave>				</pitch>				<duration>26880</duration>				<voice>1</voice>				<type>whole</type>				<stem>none</stem>				<lyric number="1" justify="center" default-y="-80.00">					<syllabic>middle</syllabic>					<text font-family="Times New Roman" font-size="12.000010" font-weight="normal" font-style="normal">le</text>				</lyric>			</note>		</measure>		<!--==========================[1,3]=============================-->		<measure number="3" width="324">			<note>				<pitch>					<step>A</step>					<octave>3</octave>				</pitch>				<duration>26880</duration>				<voice>1</voice>				<type>whole</type>				<stem>none</stem>				<lyric number="1" justify="center" default-y="-80.00">					<syllabic>end</syllabic>					<text font-family="Times New Roman" font-size="12.000010" font-weight="normal" font-style="normal">stis</text>				</lyric>			</note>			<note>				<pitch>					<step>A</step>					<octave>3</octave>				</pitch>				<duration>26880</duration>				<voice>1</voice>				<type>whole</type>				<stem>none</stem>				<lyric number="1" justify="center" default-y="-80.00">					<syllabic>begin</syllabic>					<text font-family="Times New Roman" font-size="12.000010" font-weight="normal" font-style="normal">cu</text>				</lyric>			</note>			<note>				<pitch>					<step>G</step>					<octave>3</octave>				</pitch>				<duration>26880</duration>				<voice>1</voice>				<type>whole</type>				<stem>none</stem>				<lyric number="1" justify="center" default-y="-80.00">					<syllabic>middle</syllabic>					<text font-family="Times New Roman" font-size="12.000010" font-weight="normal" font-style="normal">ri</text>				</lyric>			</note>			<note>				<pitch>					<step>F</step>					<octave>3</octave>				</pitch>				<duration>26880</duration>				<voice>1</voice>				<type>whole</type>				<stem>none</stem>				<lyric number="1" justify="center" default-y="-80.00">					<syllabic>end</syllabic>					<text font-family="Times New Roman" font-size="12.000010" font-weight="normal" font-style="normal">e</text>				</lyric>			</note>		</measure>		<!--==========================[1,4]=============================-->		<measure number="4" width="162">			<note>				<pitch>					<step>C</step>					<octave>4</octave>				</pitch>				<duration>26880</duration>				<voice>1</voice>				<type>whole</type>				<stem>none</stem>				<lyric number="1" justify="center" default-y="-80.00">					<syllabic>single</syllabic>					<text font-family="Times New Roman" font-size="12.000010" font-weight="normal" font-style="normal">dum</text>				</lyric>			</note>		</measure>		<!--==========================[1,5]=============================-->		<measure number="5" width="248">			<print new-system="yes">				<system-layout>					<system-margins>						<left-margin>95.494</left-margin>						<right-margin>65.972</right-margin>					</system-margins>					<system-distance>103.889</system-distance>				</system-layout>			</print>			<attributes>				<staff-details number="1" print-object="yes">				</staff-details>			</attributes>			<note>				<pitch>					<step>A</step>					<octave>3</octave>				</pitch>				<duration>26880</duration>				<voice>1</voice>				<type>whole</type>				<stem>none</stem>				<lyric number="1" justify="center" default-y="-80.56">					<syllabic>begin</syllabic>					<text font-family="Times New Roman" font-size="12.000010" font-weight="normal" font-style="normal">su</text>				</lyric>			</note>			<note>				<chord/>				<pitch>					<step>C</step>					<octave>4</octave>				</pitch>				<duration>26880</duration>				<voice>1</voice>				<type>whole</type>				<stem>none</stem>				<lyric number="1" justify="center" default-y="-80.56">					<syllabic>end</syllabic>					<text font-family="Times New Roman" font-size="12.000010" font-weight="normal" font-style="normal">mit</text>				</lyric>			</note>		</measure>		<!--==========================[1,6]=============================-->		<measure number="6" width="333">			<note>				<pitch>					<step>B</step>					<alter>-1</alter>					<octave>3</octave>				</pitch>				<duration>26880</duration>				<voice>1</voice>				<type>whole</type>				<stem>none</stem>				<lyric number="1" justify="center" default-y="-80.56">					<syllabic>single</syllabic>					<text font-family="Times New Roman" font-size="12.000010" font-weight="normal" font-style="normal">in</text>				</lyric>			</note>			<note>				<pitch>					<step>B</step>					<alter>-1</alter>					<octave>3</octave>				</pitch>				<duration>26880</duration>				<voice>1</voice>				<type>whole</type>				<stem>none</stem>				<lyric number="1" justify="center" default-y="-80.56">					<syllabic>begin</syllabic>					<text font-family="Times New Roman" font-size="12.000010" font-weight="normal" font-style="normal">ce</text>				</lyric>			</note>			<note>				<pitch>					<step>A</step>					<octave>3</octave>				</pitch>				<duration>26880</duration>				<voice>1</voice>				<type>whole</type>				<stem>none</stem>				<lyric number="1" justify="center" default-y="-80.56">					<syllabic>end</syllabic>					<text font-family="Times New Roman" font-size="12.000010" font-weight="normal" font-style="normal">lum</text>				</lyric>			</note>			<note>				<pitch>					<step>G</step>					<octave>3</octave>				</pitch>				<duration>26880</duration>				<voice>1</voice>				<type>whole</type>				<stem>none</stem>				<lyric number="1" justify="center" default-y="-80.56">					<syllabic>begin</syllabic>					<text font-family="Times New Roman" font-size="12.000010" font-weight="normal" font-style="normal">re</text>				</lyric>			</note>		</measure>		<!--==========================[1,7]=============================-->		<measure number="7" width="333">			<note>				<pitch>					<step>F</step>					<octave>3</octave>				</pitch>				<duration>26880</duration>				<voice>1</voice>				<type>whole</type>				<stem>none</stem>				<lyric number="1" justify="center" default-y="-80.56">					<syllabic>middle</syllabic>					<text font-family="Times New Roman" font-size="12.000010" font-weight="normal" font-style="normal">gi</text>				</lyric>			</note>			<note>				<pitch>					<step>E</step>					<octave>3</octave>				</pitch>				<duration>26880</duration>				<voice>1</voice>				<type>whole</type>				<stem>none</stem>				<lyric number="1" justify="center" default-y="-80.56">					<syllabic>end</syllabic>					<text font-family="Times New Roman" font-size="12.000010" font-weight="normal" font-style="normal">nam</text>				</lyric>			</note>			<note>				<pitch>					<step>E</step>					<octave>3</octave>				</pitch>				<duration>26880</duration>				<voice>1</voice>				<type>whole</type>				<stem>none</stem>				<lyric number="1" justify="center" default-y="-80.56">					<syllabic>begin</syllabic>					<text font-family="Times New Roman" font-size="12.000010" font-weight="normal" font-style="normal">glo</text>				</lyric>			</note>			<note>				<pitch>					<step>D</step>					<octave>3</octave>				</pitch>				<duration>26880</duration>				<voice>1</voice>				<type>whole</type>				<stem>none</stem>				<lyric number="1" justify="center" default-y="-80.56">					<syllabic>middle</syllabic>					<text font-family="Times New Roman" font-size="12.000010" font-weight="normal" font-style="normal">ri</text>				</lyric>			</note>		</measure>		<!--==========================[1,8]=============================-->		<measure number="8" width="169">			<note>				<pitch>					<step>F</step>					<octave>3</octave>				</pitch>				<duration>26880</duration>				<voice>1</voice>				<type>whole</type>				<stem>none</stem>				<lyric number="1" justify="center" default-y="-80.56">					<syllabic>end</syllabic>					<text font-family="Times New Roman" font-size="12.000010" font-weight="normal" font-style="normal">e</text>				</lyric>			</note>			<note>				<chord/>				<pitch>					<step>A</step>					<octave>3</octave>				</pitch>				<duration>26880</duration>				<voice>1</voice>				<type>whole</type>				<stem>none</stem>				<lyric number="1" justify="center" default-y="-80.56">					<syllabic>begin</syllabic>					<text font-family="Times New Roman" font-size="12.000010" font-weight="normal" font-style="normal">ma</text>				</lyric>			</note>		</measure>		<!--==========================[1,9]=============================-->		<measure number="9" width="223">			<print new-system="yes">				<system-layout>					<system-margins>						<left-margin>95.494</left-margin>						<right-margin>65.972</right-margin>					</system-margins>					<system-distance>104.445</system-distance>				</system-layout>			</print>			<attributes>				<staff-details number="1" print-object="yes">				</staff-details>			</attributes>			<forward>				<duration>4200</duration>			</forward>			<direction placement="below">				<direction-type>					<words font-family="Times New Roman" font-size="12.000000" font-weight="normal" font-style="normal" relative-x="0.00" default-y="-80.00"></words>				</direction-type>			</direction>			<backup>				<duration>4200</duration>			</backup>			<note>				<pitch>					<step>G</step>					<octave>3</octave>				</pitch>				<duration>26880</duration>				<voice>1</voice>				<type>whole</type>				<stem>none</stem>			</note>			<note>				<chord/>				<pitch>					<step>B</step>					<alter>-1</alter>					<octave>3</octave>				</pitch>				<duration>26880</duration>				<voice>1</voice>				<type>whole</type>				<stem>none</stem>				<lyric number="1" justify="center" default-y="-80.00">					<syllabic>end</syllabic>					<text font-family="Times New Roman" font-size="12.000010" font-weight="normal" font-style="normal">trem</text>				</lyric>			</note>		</measure>		<!--==========================[1,10]=============================-->		<measure number="10" width="306">			<note>				<pitch>					<step>A</step>					<octave>3</octave>				</pitch>				<duration>26880</duration>				<voice>1</voice>				<type>whole</type>				<stem>none</stem>				<lyric number="1" justify="center" default-y="-80.00">					<syllabic>begin</syllabic>					<text font-family="Times New Roman" font-size="12.000010" font-weight="normal" font-style="normal">ihe</text>				</lyric>			</note>			<note>				<pitch>					<step>A</step>					<octave>3</octave>				</pitch>				<duration>26880</duration>				<voice>1</voice>				<type>whole</type>				<stem>none</stem>				<lyric number="1" justify="center" default-y="-80.00">					<syllabic>end</syllabic>					<text font-family="Times New Roman" font-size="12.000010" font-weight="normal" font-style="normal">su</text>				</lyric>			</note>			<note>				<pitch>					<step>G</step>					<octave>3</octave>				</pitch>				<duration>26880</duration>				<voice>1</voice>				<type>whole</type>				<stem>none</stem>				<lyric number="1" justify="center" default-y="-80.00">					<syllabic>begin</syllabic>					<text font-family="Times New Roman" font-size="12.000010" font-weight="normal" font-style="normal">chri</text>				</lyric>			</note>			<note>				<pitch>					<step>F</step>					<octave>3</octave>				</pitch>				<duration>26880</duration>				<voice>1</voice>				<type>whole</type>				<stem>none</stem>				<lyric number="1" justify="center" default-y="-80.00">					<syllabic>end</syllabic>					<text font-family="Times New Roman" font-size="12.000010" font-weight="normal" font-style="normal">sti</text>				</lyric>			</note>		</measure>		<!--==========================[1,11]=============================-->		<measure number="11" width="253">			<note>				<pitch>					<step>B</step>					<alter>-1</alter>					<octave>3</octave>				</pitch>				<duration>26880</duration>				<voice>1</voice>				<type>whole</type>				<stem>none</stem>				<lyric number="1" justify="center" default-y="-80.00">					<syllabic>single</syllabic>					<text font-family="Times New Roman" font-size="12.000010" font-weight="normal" font-style="normal">de</text>				</lyric>			</note>			<note>				<chord/>				<pitch>					<step>G</step>					<octave>3</octave>				</pitch>				<duration>26880</duration>				<voice>1</voice>				<type>whole</type>				<stem>none</stem>				<lyric number="1" justify="center" default-y="-80.00">					<syllabic>begin</syllabic>					<text font-family="Times New Roman" font-size="12.000010" font-weight="normal" font-style="normal">mor</text>				</lyric>			</note>		</measure>		<!--==========================[1,12]=============================-->		<measure number="12" width="300">			<note>				<pitch>					<step>G</step>					<octave>3</octave>				</pitch>				<duration>26880</duration>				<voice>1</voice>				<type>whole</type>				<stem>none</stem>				<lyric number="1" justify="center" default-y="-80.00">					<syllabic>middle</syllabic>					<text font-family="Times New Roman" font-size="12.000010" font-weight="normal" font-style="normal">phi</text>				</lyric>			</note>			<note>				<pitch>					<step>A</step>					<octave>3</octave>				</pitch>				<duration>26880</duration>				<voice>1</voice>				<type>whole</type>				<stem>none</stem>				<lyric number="1" justify="center" default-y="-80.00">					<syllabic>end</syllabic>					<text font-family="Times New Roman" font-size="12.000010" font-weight="normal" font-style="normal">a</text>				</lyric>			</note>			<note>				<pitch>					<step>G</step>					<octave>3</octave>				</pitch>				<duration>26880</duration>				<voice>1</voice>				<type>whole</type>				<stem>none</stem>				<lyric number="1" justify="center" default-y="-80.00">					<syllabic>begin</syllabic>					<text font-family="Times New Roman" font-size="12.000010" font-weight="normal" font-style="normal">mun</text>				</lyric>			</note>			<note>				<pitch>					<step>F</step>					<octave>3</octave>				</pitch>				<duration>26880</duration>				<voice>1</voice>				<type>whole</type>				<stem>none</stem>				<lyric number="1" justify="center" default-y="-80.00">					<syllabic>end</syllabic>					<text font-family="Times New Roman" font-size="12.000010" font-weight="normal" font-style="normal">di</text>				</lyric>			</note>		</measure>		<!--==========================[1,13]=============================-->		<measure number="13" width="332">			<print new-system="yes">				<system-layout>					<system-margins>						<left-margin>95.494</left-margin>						<right-margin>65.972</right-margin>					</system-margins>					<system-distance>103.889</system-distance>				</system-layout>			</print>			<attributes>				<staff-details number="1" print-object="yes">				</staff-details>			</attributes>			<note>				<pitch>					<step>E</step>					<octave>3</octave>				</pitch>				<duration>26880</duration>				<voice>1</voice>				<type>whole</type>				<stem>none</stem>				<lyric number="1" justify="center" default-y="-80.56">					<syllabic>begin</syllabic>					<text font-family="Times New Roman" font-size="12.000010" font-weight="normal" font-style="normal">tri</text>				</lyric>			</note>			<forward>				<duration>10920</duration>			</forward>			<direction placement="below">				<direction-type>					<words font-family="Helvetica" font-size="4.000000" font-weight="normal" font-style="normal" relative-x="0.00" default-y="-20.56">.</words>				</direction-type>			</direction>			<backup>				<duration>10920</duration>			</backup>			<note>				<pitch>					<step>D</step>					<octave>3</octave>				</pitch>				<duration>26880</duration>				<voice>1</voice>				<type>whole</type>				<stem>none</stem>				<lyric number="1" justify="center" default-y="-80.56">					<syllabic>end</syllabic>					<text font-family="Times New Roman" font-size="12.000010" font-weight="normal" font-style="normal">sti</text>				</lyric>			</note>		</measure>		<!--==========================[1,14]=============================-->		<measure number="14" width="272">			<note>				<pitch>					<step>E</step>					<octave>3</octave>				</pitch>				<duration>26880</duration>				<voice>1</voice>				<type>whole</type>				<stem>none</stem>				<lyric number="1" justify="center" default-y="-80.56">					<syllabic>begin</syllabic>					<text font-family="Times New Roman" font-size="12.000010" font-weight="normal" font-style="normal">gau</text>				</lyric>			</note>			<forward>				<duration>10920</duration>			</forward>			<direction placement="below">				<direction-type>					<words font-family="Helvetica" font-size="4.000000" font-weight="normal" font-style="normal" relative-x="0.00" default-y="-20.56">.</words>				</direction-type>			</direction>			<backup>				<duration>10920</duration>			</backup>			<note>				<pitch>					<step>D</step>					<octave>3</octave>				</pitch>				<duration>26880</duration>				<voice>1</voice>				<type>whole</type>				<stem>none</stem>				<lyric number="1" justify="center" default-y="-80.56">					<syllabic>end</syllabic>					<text font-family="Times New Roman" font-size="12.000010" font-weight="normal" font-style="normal">de</text>				</lyric>			</note>		</measure>		<!--==========================[1,15]=============================-->		<measure number="15" width="318">			<note>				<pitch>					<step>B</step>					<alter>-1</alter>					<octave>3</octave>				</pitch>				<duration>26880</duration>				<voice>1</voice>				<type>whole</type>				<stem>none</stem>				<lyric number="1" justify="center" default-y="-80.56">					<syllabic>begin</syllabic>					<text font-family="Times New Roman" font-size="12.000010" font-weight="normal" font-style="normal">ma</text>				</lyric>			</note>			<note>				<pitch>					<step>C</step>					<octave>4</octave>				</pitch>				<duration>26880</duration>				<voice>1</voice>				<type>whole</type>				<stem>none</stem>				<lyric number="1" justify="center" default-y="-80.56">					<syllabic>end</syllabic>					<text font-family="Times New Roman" font-size="12.000010" font-weight="normal" font-style="normal">dens</text>				</lyric>			</note>			<note>				<pitch>					<step>B</step>					<alter>-1</alter>					<octave>3</octave>				</pitch>				<duration>26880</duration>				<voice>1</voice>				<type>whole</type>				<stem>none</stem>				<lyric number="1" justify="center" default-y="-80.56">					<syllabic>single</syllabic>					<text font-family="Times New Roman" font-size="12.000010" font-weight="normal" font-style="normal">cum</text>				</lyric>			</note>			<note>				<pitch>					<step>A</step>					<octave>3</octave>				</pitch>				<duration>26880</duration>				<voice>1</voice>				<type>whole</type>				<stem>none</stem>				<lyric number="1" justify="center" default-y="-80.56">					<syllabic>begin</syllabic>					<text font-family="Times New Roman" font-size="12.000010" font-weight="normal" font-style="normal">dul</text>				</lyric>			</note>		</measure>		<!--==========================[1,16]=============================-->		<measure number="16" width="160">			<note>				<pitch>					<step>A</step>					<octave>3</octave>				</pitch>				<duration>26880</duration>				<voice>1</voice>				<type>whole</type>				<stem>none</stem>				<lyric number="1" justify="center" default-y="-80.56">					<syllabic>end</syllabic>					<text font-family="Times New Roman" font-size="12.000010" font-weight="normal" font-style="normal">ci</text>				</lyric>			</note>			<note>				<chord/>				<pitch>					<step>G</step>					<octave>3</octave>				</pitch>				<duration>26880</duration>				<voice>1</voice>				<type>whole</type>				<stem>none</stem>				<lyric number="1" justify="center" default-y="-80.56">					<syllabic>begin</syllabic>					<text font-family="Times New Roman" font-size="12.000010" font-weight="normal" font-style="normal">fi</text>				</lyric>			</note>		</measure>		<!--==========================[1,17]=============================-->		<measure number="17" width="228">			<print new-system="yes">				<system-layout>					<system-margins>						<left-margin>95.494</left-margin>						<right-margin>67.130</right-margin>					</system-margins>					<system-distance>104.445</system-distance>				</system-layout>			</print>			<attributes>				<staff-details number="1" print-object="yes">				</staff-details>			</attributes>			<note>				<pitch>					<step>F</step>					<octave>3</octave>				</pitch>				<duration>26880</duration>				<voice>1</voice>				<type>whole</type>				<stem>none</stem>				<lyric number="1" justify="center" default-y="-80.00">					<syllabic>middle</syllabic>					<text font-family="Times New Roman" font-size="12.000010" font-weight="normal" font-style="normal">li</text>				</lyric>			</note>			<note>				<chord/>				<pitch>					<step>F</step>					<octave>3</octave>				</pitch>				<duration>26880</duration>				<voice>1</voice>				<type>whole</type>				<stem>none</stem>				<lyric number="1" justify="center" default-y="-80.00">					<syllabic>end</syllabic>					<text font-family="Times New Roman" font-size="12.000010" font-weight="normal" font-style="normal">o</text>				</lyric>			</note>		</measure>		<!--==========================[1,18]=============================-->		<measure number="18" width="306">			<note>				<pitch>					<step>G</step>					<octave>3</octave>				</pitch>				<duration>26880</duration>				<voice>1</voice>				<type>whole</type>				<stem>none</stem>				<lyric number="1" justify="center" default-y="-80.00">					<syllabic>single</syllabic>					<text font-family="Times New Roman" font-size="12.000010" font-weight="normal" font-style="normal">in</text>				</lyric>			</note>			<note>				<pitch>					<step>F</step>					<octave>3</octave>				</pitch>				<duration>26880</duration>				<voice>1</voice>				<type>whole</type>				<stem>none</stem>				<lyric number="1" justify="center" default-y="-80.00">					<syllabic>begin</syllabic>					<text font-family="Times New Roman" font-size="12.000010" font-weight="normal" font-style="normal">lau</text>				</lyric>			</note>			<note>				<pitch>					<step>F</step>					<octave>3</octave>				</pitch>				<duration>26880</duration>				<voice>1</voice>				<type>whole</type>				<stem>none</stem>			</note>			<note>				<pitch>					<step>E</step>					<octave>3</octave>				</pitch>				<duration>26880</duration>				<voice>1</voice>				<type>whole</type>				<stem>none</stem>			</note>		</measure>		<!--==========================[1,19]=============================-->		<measure number="19" width="115">			<note>				<pitch>					<step>G</step>					<octave>3</octave>				</pitch>				<duration>107520</duration>				<voice>1</voice>				<type>long</type>				<stem default-y="6.53">up</stem>				<lyric number="1" justify="center" default-y="-80.00">					<syllabic>end</syllabic>					<text font-family="Times New Roman" font-size="12.000010" font-weight="normal" font-style="normal">de</text>				</lyric>			</note>		</measure>		<!--==========================[1,20]=============================-->		<measure number="20" width="309">			<note>				<pitch>					<step>F</step>					<octave>3</octave>				</pitch>				<duration>26880</duration>				<voice>1</voice>				<type>whole</type>				<stem>none</stem>				<lyric number="1" justify="center" default-y="-80.00">					<syllabic>single</syllabic>					<text font-family="Times New Roman" font-size="12.000010" font-weight="normal" font-style="normal">[in</text>				</lyric>			</note>			<note>				<pitch>					<step>E</step>					<octave>3</octave>				</pitch>				<duration>26880</duration>				<voice>1</voice>				<type>whole</type>				<stem>none</stem>				<lyric number="1" justify="center" default-y="-80.00">					<syllabic>begin</syllabic>					<text font-family="Times New Roman" font-size="12.000010" font-weight="normal" font-style="normal">lau</text>				</lyric>			</note>			<note>				<pitch>					<step>E</step>					<octave>3</octave>				</pitch>				<duration>26880</duration>				<voice>1</voice>				<type>whole</type>				<stem>none</stem>			</note>			<note>				<pitch>					<step>D</step>					<octave>3</octave>				</pitch>				<duration>26880</duration>				<voice>1</voice>				<type>whole</type>				<stem>none</stem>			</note>		</measure>		<!--==========================[1,21]=============================-->		<measure number="21" width="123">			<note>				<pitch>					<step>F</step>					<octave>3</octave>				</pitch>				<duration>107520</duration>				<voice>1</voice>				<type>long</type>				<stem default-y="1.53">up</stem>				<lyric number="1" justify="center" default-y="-80.00">					<syllabic>end</syllabic>					<text font-family="Times New Roman" font-size="12.000010" font-weight="normal" font-style="normal">de.]</text>				</lyric>			</note>		</measure>		<!--==========================[1,22]=============================-->		<measure number="22" width="285">			<print new-system="yes">				<system-layout>					<system-margins>						<left-margin>95.494</left-margin>						<right-margin>67.130</right-margin>					</system-margins>					<system-distance>103.889</system-distance>				</system-layout>			</print>			<attributes>				<staff-details number="1" print-object="yes">				</staff-details>			</attributes>			<note>				<pitch>					<step>F</step>					<octave>3</octave>				</pitch>				<duration>26880</duration>				<voice>1</voice>				<type>whole</type>				<stem>none</stem>			</note>			<note>				<chord/>				<pitch>					<step>A</step>					<octave>3</octave>				</pitch>				<duration>26880</duration>				<voice>1</voice>				<type>whole</type>				<stem>none</stem>			</note>		</measure>		<!--==========================[1,23]=============================-->		<measure number="23" width="266">			<note>				<pitch>					<step>A</step>					<octave>3</octave>				</pitch>				<duration>26880</duration>				<voice>1</voice>				<type>whole</type>				<stem>none</stem>			</note>			<note>				<pitch>					<step>C</step>					<octave>4</octave>				</pitch>				<duration>26880</duration>				<voice>1</voice>				<type>whole</type>				<stem>none</stem>			</note>			<note>				<pitch>					<step>C</step>					<octave>4</octave>				</pitch>				<duration>26880</duration>				<voice>1</voice>				<type>whole</type>				<stem>none</stem>			</note>			<note>				<pitch>					<step>B</step>					<alter>-1</alter>					<octave>3</octave>				</pitch>				<duration>26880</duration>				<voice>1</voice>				<type>whole</type>				<stem>none</stem>			</note>		</measure>		<!--==========================[1,24]=============================-->		<measure number="24" width="266">			<note>				<pitch>					<step>D</step>					<octave>4</octave>				</pitch>				<duration>26880</duration>				<voice>1</voice>				<type>whole</type>				<stem>none</stem>			</note>			<note>				<pitch>					<step>C</step>					<octave>4</octave>				</pitch>				<duration>26880</duration>				<voice>1</voice>				<type>whole</type>				<stem>none</stem>			</note>			<note>				<pitch>					<step>C</step>					<octave>4</octave>				</pitch>				<duration>26880</duration>				<voice>1</voice>				<type>whole</type>				<stem>none</stem>			</note>			<note>				<pitch>					<step>B</step>					<alter>-1</alter>					<octave>3</octave>				</pitch>				<duration>26880</duration>				<voice>1</voice>				<type>whole</type>				<stem>none</stem>			</note>		</measure>		<!--==========================[1,25]=============================-->		<measure number="25" width="265">			<note>				<pitch>					<step>A</step>					<octave>3</octave>				</pitch>				<duration>26880</duration>				<voice>1</voice>				<type>whole</type>				<stem>none</stem>			</note>			<note>				<pitch>					<step>B</step>					<alter>-1</alter>					<octave>3</octave>				</pitch>				<duration>26880</duration>				<voice>1</voice>				<type>whole</type>				<stem>none</stem>			</note>			<note>				<pitch>					<step>G</step>					<octave>3</octave>				</pitch>				<duration>26880</duration>				<voice>1</voice>				<type>whole</type>				<stem>none</stem>			</note>			<note>				<pitch>					<step>A</step>					<octave>3</octave>				</pitch>				<duration>26880</duration>				<voice>1</voice>				<type>whole</type>				<stem>none</stem>			</note>		</measure>		<!--==========================[1,26]=============================-->		<measure number="26" width="353">			<print new-system="yes">				<system-layout>					<system-margins>						<left-margin>95.494</left-margin>						<right-margin>65.972</right-margin>					</system-margins>					<system-distance>104.445</system-distance>				</system-layout>			</print>			<attributes>				<staff-details number="1" print-object="yes">				</staff-details>			</attributes>			<note>				<pitch>					<step>F</step>					<octave>3</octave>				</pitch>				<duration>26880</duration>				<voice>1</voice>				<type>whole</type>				<stem>none</stem>			</note>			<note>				<pitch>					<step>G</step>					<octave>3</octave>				</pitch>				<duration>26880</duration>				<voice>1</voice>				<type>whole</type>				<stem>none</stem>			</note>			<note>				<pitch>					<step>E</step>					<octave>3</octave>				</pitch>				<duration>26880</duration>				<voice>1</voice>				<type>whole</type>				<stem>none</stem>			</note>			<note>				<pitch>					<step>F</step>					<octave>3</octave>				</pitch>				<duration>26880</duration>				<voice>1</voice>				<type>whole</type>				<stem>none</stem>			</note>		</measure>		<!--==========================[1,27]=============================-->		<measure number="27" width="290">			<note>				<pitch>					<step>D</step>					<octave>3</octave>				</pitch>				<duration>26880</duration>				<voice>1</voice>				<type>whole</type>				<stem>none</stem>			</note>			<note>				<pitch>					<step>C</step>					<octave>3</octave>				</pitch>				<duration>26880</duration>				<voice>1</voice>				<type>whole</type>				<stem>none</stem>			</note>			<note>				<pitch>					<step>F</step>					<octave>3</octave>				</pitch>				<duration>26880</duration>				<voice>1</voice>				<type>whole</type>				<stem>none</stem>			</note>			<note>				<pitch>					<step>F</step>					<octave>3</octave>				</pitch>				<duration>26880</duration>				<voice>1</voice>				<type>whole</type>				<stem>none</stem>			</note>		</measure>		<!--==========================[1,28]=============================-->		<measure number="28" width="291">			<note>				<pitch>					<step>E</step>					<octave>3</octave>				</pitch>				<duration>26880</duration>				<voice>1</voice>				<type>whole</type>				<stem>none</stem>			</note>			<note>				<pitch>					<step>D</step>					<octave>3</octave>				</pitch>				<duration>26880</duration>				<voice>1</voice>				<type>whole</type>				<stem>none</stem>			</note>			<note>				<pitch>					<step>F</step>					<octave>3</octave>				</pitch>				<duration>26880</duration>				<voice>1</voice>				<type>whole</type>				<stem>none</stem>			</note>			<note>				<rest>				</rest>				<duration>26880</duration>				<voice>1</voice>				<type>whole</type>			</note>		</measure>		<!--==========================[1,29]=============================-->		<measure number="29" width="149">			<note>				<pitch>					<step>C</step>					<octave>4</octave>				</pitch>				<duration>26880</duration>				<voice>1</voice>				<type>whole</type>				<stem>none</stem>			</note>			<note>				<chord/>				<pitch>					<step>D</step>					<octave>4</octave>				</pitch>				<duration>26880</duration>				<voice>1</voice>				<type>whole</type>				<stem>none</stem>			</note>		</measure>		<!--==========================[1,30]=============================-->		<measure number="30" width="215">			<print new-system="yes">				<system-layout>					<system-margins>						<left-margin>95.494</left-margin>						<right-margin>67.130</right-margin>					</system-margins>					<system-distance>104.445</system-distance>				</system-layout>			</print>			<attributes>				<staff-details number="1" print-object="yes">				</staff-details>			</attributes>			<note>				<pitch>					<step>C</step>					<octave>4</octave>				</pitch>				<duration>26880</duration>				<voice>1</voice>				<type>whole</type>				<stem>none</stem>			</note>			<note>				<chord/>				<pitch>					<step>C</step>					<octave>4</octave>				</pitch>				<duration>26880</duration>				<voice>1</voice>				<type>whole</type>				<stem>none</stem>			</note>		</measure>		<!--==========================[1,31]=============================-->		<measure number="31" width="288">			<note>				<pitch>					<step>B</step>					<alter>-1</alter>					<octave>3</octave>				</pitch>				<duration>26880</duration>				<voice>1</voice>				<type>whole</type>				<stem>none</stem>			</note>			<note>				<pitch>					<step>A</step>					<octave>3</octave>				</pitch>				<duration>26880</duration>				<voice>1</voice>				<type>whole</type>				<stem>none</stem>			</note>			<note>				<pitch>					<step>C</step>					<octave>4</octave>				</pitch>				<duration>26880</duration>				<voice>1</voice>				<type>whole</type>				<stem>none</stem>			</note>			<note>				<pitch>					<step>B</step>					<alter>-1</alter>					<octave>3</octave>				</pitch>				<duration>26880</duration>				<voice>1</voice>				<type>whole</type>				<stem>none</stem>			</note>		</measure>		<!--==========================[1,32]=============================-->		<measure number="32" width="289">			<note>				<pitch>					<step>A</step>					<octave>3</octave>				</pitch>				<duration>26880</duration>				<voice>1</voice>				<type>whole</type>				<stem>none</stem>			</note>			<note>				<pitch>					<step>G</step>					<octave>3</octave>				</pitch>				<duration>26880</duration>				<voice>1</voice>				<type>whole</type>				<stem>none</stem>			</note>			<note>				<pitch>					<step>A</step>					<octave>3</octave>				</pitch>				<duration>26880</duration>				<voice>1</voice>				<type>whole</type>				<stem>none</stem>			</note>			<note>				<pitch>					<step>F</step>					<octave>3</octave>				</pitch>				<duration>26880</duration>				<voice>1</voice>				<type>whole</type>				<stem>none</stem>			</note>		</measure>		<!--==========================[1,33]=============================-->		<measure number="33" width="288">			<note>				<rest>				</rest>				<duration>26880</duration>				<voice>1</voice>				<type>whole</type>			</note>			<note>				<pitch>					<step>A</step>					<octave>3</octave>				</pitch>				<duration>26880</duration>				<voice>1</voice>				<type>whole</type>				<stem>none</stem>			</note>			<note>				<pitch>					<step>C</step>					<octave>4</octave>				</pitch>				<duration>26880</duration>				<voice>1</voice>				<type>whole</type>				<stem>none</stem>			</note>			<note>				<pitch>					<step>B</step>					<alter>-1</alter>					<octave>3</octave>				</pitch>				<duration>26880</duration>				<voice>1</voice>				<type>whole</type>				<stem>none</stem>			</note>		</measure>		<!--==========================[1,34]=============================-->		<measure number="34" width="353">			<print new-system="yes">				<system-layout>					<system-margins>						<left-margin>95.494</left-margin>						<right-margin>65.972</right-margin>					</system-margins>					<system-distance>104.445</system-distance>				</system-layout>			</print>			<attributes>				<staff-details number="1" print-object="yes">				</staff-details>			</attributes>			<note>				<pitch>					<step>A</step>					<octave>3</octave>				</pitch>				<duration>26880</duration>				<voice>1</voice>				<type>whole</type>				<stem>none</stem>			</note>			<note>				<pitch>					<step>C</step>					<octave>4</octave>				</pitch>				<duration>26880</duration>				<voice>1</voice>				<type>whole</type>				<stem>none</stem>			</note>			<note>				<pitch>					<step>C</step>					<octave>4</octave>				</pitch>				<duration>26880</duration>				<voice>1</voice>				<type>whole</type>				<stem>none</stem>			</note>			<note>				<rest>				</rest>				<duration>26880</duration>				<voice>1</voice>				<type>whole</type>			</note>		</measure>		<!--==========================[1,35]=============================-->		<measure number="35" width="290">			<note>				<pitch>					<step>F</step>					<octave>3</octave>				</pitch>				<duration>26880</duration>				<voice>1</voice>				<type>whole</type>				<stem>none</stem>			</note>			<note>				<pitch>					<step>G</step>					<octave>3</octave>				</pitch>				<duration>26880</duration>				<voice>1</voice>				<type>whole</type>				<stem>none</stem>			</note>			<note>				<pitch>					<step>A</step>					<octave>3</octave>				</pitch>				<duration>26880</duration>				<voice>1</voice>				<type>whole</type>				<stem>none</stem>			</note>			<note>				<pitch>					<step>B</step>					<alter>-1</alter>					<octave>3</octave>				</pitch>				<duration>26880</duration>				<voice>1</voice>				<type>whole</type>				<stem>none</stem>			</note>		</measure>		<!--==========================[1,36]=============================-->		<measure number="36" width="291">			<note>				<pitch>					<step>B</step>					<alter>-1</alter>					<octave>3</octave>				</pitch>				<duration>26880</duration>				<voice>1</voice>				<type>whole</type>				<stem>none</stem>			</note>			<note>				<pitch>					<step>A</step>					<octave>3</octave>				</pitch>				<duration>26880</duration>				<voice>1</voice>				<type>whole</type>				<stem>none</stem>			</note>			<note>				<pitch>					<step>G</step>					<octave>3</octave>				</pitch>				<duration>26880</duration>				<voice>1</voice>				<type>whole</type>				<stem>none</stem>			</note>			<note>				<pitch>					<step>C</step>					<octave>4</octave>				</pitch>				<duration>26880</duration>				<voice>1</voice>				<type>whole</type>				<stem>none</stem>			</note>		</measure>		<!--==========================[1,37]=============================-->		<measure number="37" width="149">			<note>				<pitch>					<step>B</step>					<alter>-1</alter>					<octave>3</octave>				</pitch>				<duration>26880</duration>				<voice>1</voice>				<type>whole</type>				<stem>none</stem>			</note>			<note>				<chord/>				<pitch>					<step>A</step>					<octave>3</octave>				</pitch>				<duration>26880</duration>				<voice>1</voice>				<type>whole</type>				<stem>none</stem>			</note>		</measure>		<!--==========================[1,38]=============================-->		<measure number="38" width="227">			<print new-system="yes">				<system-layout>					<system-margins>						<left-margin>95.494</left-margin>						<right-margin>71.759</right-margin>					</system-margins>					<system-distance>104.445</system-distance>				</system-layout>			</print>			<attributes>				<staff-details number="1" print-object="yes">				</staff-details>			</attributes>			<note>				<pitch>					<step>G</step>					<octave>3</octave>				</pitch>				<duration>26880</duration>				<voice>1</voice>				<type>whole</type>				<stem>none</stem>			</note>			<note>				<chord/>				<pitch>					<step>F</step>					<octave>3</octave>				</pitch>				<duration>26880</duration>				<voice>1</voice>				<type>whole</type>				<stem>none</stem>			</note>		</measure>		<!--==========================[1,39]=============================-->		<measure number="39" width="310">			<note>				<pitch>					<step>G</step>					<octave>3</octave>				</pitch>				<duration>26880</duration>				<voice>1</voice>				<type>whole</type>				<stem>none</stem>			</note>			<note>				<pitch>					<step>F</step>					<octave>3</octave>				</pitch>				<duration>26880</duration>				<voice>1</voice>				<type>whole</type>				<stem>none</stem>			</note>			<note>				<pitch>					<step>F</step>					<octave>3</octave>				</pitch>				<duration>26880</duration>				<voice>1</voice>				<type>whole</type>				<stem>none</stem>			</note>			<note>				<pitch>					<step>E</step>					<octave>3</octave>				</pitch>				<duration>26880</duration>				<voice>1</voice>				<type>whole</type>				<stem>none</stem>			</note>		</measure>		<!--==========================[1,40]=============================-->		<measure number="40" width="117">			<note>				<pitch>					<step>G</step>					<octave>3</octave>				</pitch>				<duration>107520</duration>				<voice>1</voice>				<type>long</type>				<stem default-y="11.53">up</stem>			</note>		</measure>		<!--==========================[1,41]=============================-->		<measure number="41" width="310">			<note>				<pitch>					<step>F</step>					<octave>3</octave>				</pitch>				<duration>26880</duration>				<voice>1</voice>				<type>whole</type>				<stem>none</stem>			</note>			<note>				<pitch>					<step>E</step>					<octave>3</octave>				</pitch>				<duration>26880</duration>				<voice>1</voice>				<type>whole</type>				<stem>none</stem>			</note>			<note>				<pitch>					<step>E</step>					<octave>3</octave>				</pitch>				<duration>26880</duration>				<voice>1</voice>				<type>whole</type>				<stem>none</stem>			</note>			<note>				<pitch>					<step>D</step>					<octave>3</octave>				</pitch>				<duration>26880</duration>				<voice>1</voice>				<type>whole</type>				<stem>none</stem>			</note>		</measure>		<!--==========================[1,42]=============================-->		<measure number="42" width="112">			<note>				<pitch>					<step>F</step>					<octave>3</octave>				</pitch>				<duration>107520</duration>				<voice>1</voice>				<type>long</type>				<stem default-y="5.97">up</stem>			</note>			<barline location="right">				<bar-style>light-light</bar-style>			</barline>		</measure>	</part></score-partwise>