<?xml version="1.0" encoding="UTF-8" standalone="no"?><!DOCTYPE score-partwise PUBLIC "-//Recordare//DTD MusicXML 2.0 Partwise//EN" "http://www.musicxml.org/dtds/partwise.dtd"><score-partwise version="2.0">	<work>		<work-title>4.</work-title>	</work>	<identification>		<creator type="composer">Nu bidde wy den heyligen geyst / Physica armonia / Veni sancte spiritusquefol. 209r/209v</creator>		<creator type="poet">Nu bidde wy den heyligen geyst / Physica armonia / Veni sancte spiritusquefol. 209r/209v</creator>		<encoding>			<software>PDFtoMusic Pro - 64-bits v2.0.0d Build 29A6A (c) Myriad - http://www.myriad-online.com</software>			<?PDFtoMusic Document type 0100- 5A50330C?>			<supports attribute="new-system" element="print" type="yes" value="yes"/>			<supports attribute="new-page" element="print" type="yes" value="yes"/>		</encoding>	</identification>	<defaults>		<scaling>			<millimeters>5.644454</millimeters>			<tenths>40</tenths>		</scaling>		<page-layout>			<page-height>2104.996</page-height>			<page-width>1487.498</page-width>			<page-margins type="both">				<left-margin>70.866</left-margin>				<right-margin>70.866</right-margin>				<top-margin>70.866</top-margin>				 <bottom-margin>70.866</bottom-margin>			</page-margins>		</page-layout>		<appearance>			<line-width type="stem">1.2000</line-width>			<line-width type="beam">4.8000</line-width>			<line-width type="staff">1.2000</line-width>			<line-width type="light barline">1.0531</line-width>			<line-width type="leger">1.7999</line-width>		</appearance>	</defaults>	<credit page="1">		<credit-type>subtitle</credit-type>		<credit-words  default-x="741.589" default-y="1872.801" justify="center" valign="baseline" font-family="Times New Roman" font-size="13.500000" font-weight="bold" font-style="normal">Nu bidde wy den heyligen geyst / Physica armonia / Veni sancte spiritusquefol. 209r/209v</credit-words>	</credit>	<credit page="1">		<credit-words  default-x="724.199" default-y="89.001" justify="left" valign="baseline" font-family="Times New Roman" font-size="14.500000" font-weight="normal" font-style="normal">48</credit-words>	</credit>	<credit page="1">		<credit-type>title</credit-type>		<credit-words  default-x="728.999" default-y="1914.201" justify="left" valign="baseline" font-family="Times New Roman" font-size="13.500000" font-weight="bold" font-style="normal">4.</credit-words>	</credit>	<part-list>		<score-part id="P1">			<part-name></part-name>			<score-instrument id="P1-I1">				<instrument-name>Instrument 1</instrument-name>			</score-instrument>			<midi-instrument id="P1-I1">				<midi-channel>1</midi-channel>				<midi-bank>3</midi-bank>				<midi-program>53</midi-program>				<volume>50</volume>				<pan>-90</pan>				<elevation>0</elevation>				<?Myriad				<iddigit>5220</iddigit>				?>			</midi-instrument>			<?Myriad			<virtualVoice id="P1-I1" default="5220">			</virtualVoice>			?>		</score-part>		<score-part id="P2">			<part-name></part-name>			<score-instrument id="P2-I1">				<instrument-name>Instrument 2</instrument-name>			</score-instrument>			<midi-instrument id="P2-I1">				<midi-channel>2</midi-channel>				<midi-bank>4</midi-bank>				<midi-program>53</midi-program>				<volume>50</volume>				<pan>90</pan>				<elevation>0</elevation>				<?Myriad				<iddigit>5230</iddigit>				?>			</midi-instrument>			<?Myriad			<virtualVoice id="P2-I1" default="5230">			</virtualVoice>			?>		</score-part>		<score-part id="P3">			<part-name></part-name>			<score-instrument id="P3-I1">				<instrument-name>Instrument 3 layer 1</instrument-name>			</score-instrument>			<score-instrument id="P3-I2">				<instrument-name>Instrument 3 layer 2</instrument-name>			</score-instrument>			<midi-instrument id="P3-I1">				<midi-channel>3</midi-channel>				<midi-bank>5</midi-bank>				<midi-program>53</midi-program>				<volume>50</volume>				<pan>0</pan>				<elevation>0</elevation>				<?Myriad				<iddigit>5240</iddigit>				?>			</midi-instrument>			<?Myriad			<virtualVoice id="P3-I1" default="5240">			</virtualVoice>			?>			<midi-instrument id="P3-I2">				<midi-channel>3</midi-channel>				<midi-bank>5</midi-bank>				<midi-program>53</midi-program>				<volume>50</volume>				<pan>20</pan>				<elevation>0</elevation>				<?Myriad				<iddigit>5240</iddigit>				?>			</midi-instrument>			<?Myriad			<virtualVoice id="P3-I2" default="5240">			</virtualVoice>			?>		</score-part>	</part-list>	<part id="P1">		<!--==========================[1,1]=============================-->		<measure number="1" width="340">			<sound tempo="80" />			<print new-page="yes">				<system-layout>					<system-margins>						<left-margin>100.134</left-margin>						<right-margin>72.500</right-margin>					</system-margins>					<top-system-distance>387.529</top-system-distance>				</system-layout>			</print>			<attributes>				<divisions>6720</divisions>				<time symbol="cut">					<beats>2</beats>					<beat-type>2</beat-type>				</time>				<clef number="1">					<sign>G</sign>					<line>2</line>					<clef-octave-change>-1</clef-octave-change>				</clef>				<staff-details number="1" print-object="yes">					<staff-lines>5</staff-lines>					<staff-size>102.00</staff-size>				</staff-details>			</attributes>			<note>				<pitch>					<step>D</step>					<octave>4</octave>				</pitch>				<duration>6720</duration>				<voice>1</voice>				<type>quarter</type>				<stem default-y="-43.82">down</stem>				<lyric number="1" justify="center" default-y="-78.24">					<syllabic>single</syllabic>					<text font-family="Times New Roman" font-size="12.000010" font-weight="normal" font-style="normal" xml:lang="la">Nu</text>				</lyric>			</note>			<note>				<pitch>					<step>B</step>					<octave>3</octave>				</pitch>				<duration>3360</duration>				<voice>1</voice>				<type>eighth</type>				<stem default-y="-54.11">down</stem>				<lyric number="1" justify="left" default-y="-78.24">					<syllabic>begin</syllabic>					<text font-family="Times New Roman" font-size="12.000010" font-weight="normal" font-style="normal" xml:lang="la">bid</text>				</lyric>			</note>			<note>				<pitch>					<step>B</step>					<octave>3</octave>				</pitch>				<duration>3360</duration>				<voice>1</voice>				<type>eighth</type>				<stem default-y="-54.11">down</stem>				<lyric number="1" justify="right" default-y="-78.24">					<syllabic>end</syllabic>					<text font-family="Times New Roman" font-size="12.000010" font-weight="normal" font-style="normal" xml:lang="la">de</text>				</lyric>			</note>			<note>				<pitch>					<step>D</step>					<octave>4</octave>				</pitch>				<duration>6720</duration>				<voice>1</voice>				<type>quarter</type>				<stem default-y="-43.82">down</stem>				<lyric number="1" justify="center" default-y="-78.24">					<syllabic>single</syllabic>					<text font-family="Times New Roman" font-size="12.000010" font-weight="normal" font-style="normal" xml:lang="la">wy</text>				</lyric>			</note>			<note>				<pitch>					<step>A</step>					<octave>3</octave>				</pitch>				<duration>6720</duration>				<voice>1</voice>				<type>quarter</type>				<stem default-y="9.71">up</stem>				<lyric number="1" justify="center" default-y="-78.24">					<syllabic>single</syllabic>					<text font-family="Times New Roman" font-size="12.000010" font-weight="normal" font-style="normal" xml:lang="la">den</text>				</lyric>			</note>		</measure>		<!--==========================[1,2]=============================-->		<measure number="2" width="62">			<note>				<pitch>					<step>B</step>					<octave>3</octave>				</pitch>				<duration>6720</duration>				<voice>1</voice>				<type>quarter</type>				<stem default-y="-49.12">down</stem>				<lyric number="1" justify="left" default-y="-78.24">					<syllabic>begin</syllabic>					<text font-family="Times New Roman" font-size="12.000010" font-weight="normal" font-style="normal" xml:lang="la">hey</text>				</lyric>			</note>		</measure>		<!--==========================[1,3]=============================-->		<measure number="3" width="237">			<note>				<pitch>					<step>C</step>					<octave>4</octave>				</pitch>				<duration>6720</duration>				<voice>1</voice>				<type>quarter</type>				<stem default-y="-43.82">down</stem>			</note>			<note>				<pitch>					<step>D</step>					<octave>4</octave>				</pitch>				<duration>3360</duration>				<voice>1</voice>				<type>eighth</type>				<stem default-y="-44.11">down</stem>				<lyric number="1" justify="left" default-y="-78.24">					<syllabic>middle</syllabic>					<text font-family="Times New Roman" font-size="12.000010" font-weight="normal" font-style="normal" xml:lang="la">li</text>				</lyric>			</note>			<note>				<pitch>					<step>D</step>					<octave>4</octave>				</pitch>				<duration>3360</duration>				<voice>1</voice>				<type>eighth</type>				<stem default-y="-44.11">down</stem>				<lyric number="1" justify="center" default-y="-78.24">					<syllabic>end</syllabic>					<text font-family="Times New Roman" font-size="12.000010" font-weight="normal" font-style="normal" xml:lang="la">gen</text>				</lyric>			</note>			<note>				<pitch>					<step>E</step>					<octave>4</octave>				</pitch>				<duration>13440</duration>				<voice>1</voice>				<type>half</type>				<stem default-y="-39.12">down</stem>				<lyric number="1" justify="center" default-y="-78.24">					<syllabic>single</syllabic>					<text font-family="Times New Roman" font-size="12.000010" font-weight="normal" font-style="normal" xml:lang="la">geyst</text>				</lyric>			</note>		</measure>		<!--==========================[1,4]=============================-->		<measure number="4" width="129">			<note>				<pitch>					<step>F</step>					<octave>4</octave>				</pitch>				<duration>3360</duration>				<voice>1</voice>				<type>eighth</type>				<stem default-y="-29.71">down</stem>				<beam number="1">begin</beam>				<lyric number="1" justify="left" default-y="-78.24">					<syllabic>single</syllabic>					<text font-family="Times New Roman" font-size="12.000010" font-weight="normal" font-style="normal" xml:lang="la">vm</text>				</lyric>			</note>			<note>				<pitch>					<step>E</step>					<octave>4</octave>				</pitch>				<duration>3360</duration>				<voice>1</voice>				<type>eighth</type>				<stem default-y="-34.41">down</stem>				<beam number="1">end</beam>			</note>			<note>				<pitch>					<step>F</step>					<octave>4</octave>				</pitch>				<duration>6720</duration>				<voice>1</voice>				<type>quarter</type>				<stem default-y="-39.12">down</stem>				<lyric number="1" justify="left" default-y="-78.24">					<syllabic>single</syllabic>					<text font-family="Times New Roman" font-size="12.000010" font-weight="normal" font-style="normal" xml:lang="la">den</text>				</lyric>			</note>		</measure>		<!--==========================[1,5]=============================-->		<measure number="5" width="144">			<note>				<pitch>					<step>D</step>					<octave>4</octave>				</pitch>				<duration>6720</duration>				<voice>1</voice>				<type>quarter</type>				<stem default-y="-43.82">down</stem>			</note>			<note>				<pitch>					<step>D</step>					<octave>4</octave>				</pitch>				<duration>3360</duration>				<voice>1</voice>				<type>eighth</type>				<stem default-y="-39.12">down</stem>				<beam number="1">begin</beam>				<lyric number="1" justify="left" default-y="-78.24">					<syllabic>begin</syllabic>					<text font-family="Times New Roman" font-size="12.000010" font-weight="normal" font-style="normal" xml:lang="la">rech</text>				</lyric>			</note>			<note>				<pitch>					<step>E</step>					<octave>4</octave>				</pitch>				<duration>3360</duration>				<voice>1</voice>				<type>eighth</type>				<stem default-y="-34.41">down</stem>				<beam number="1">end</beam>			</note>			<note>				<pitch>					<step>C</step>					<octave>4</octave>				</pitch>				<duration>6720</duration>				<voice>1</voice>				<type>quarter</type>				<stem default-y="-49.12">down</stem>			</note>		</measure>		<!--==========================[1,6]=============================-->		<measure number="6" width="41">			<note>				<pitch>					<step>D</step>					<octave>4</octave>				</pitch>				<duration>6720</duration>				<voice>1</voice>				<type>quarter</type>				<stem default-y="-43.82">down</stem>			</note>		</measure>		<!--==========================[1,7]=============================-->		<measure number="7" width="193">			<note>				<pitch>					<step>E</step>					<octave>4</octave>				</pitch>				<duration>6720</duration>				<voice>1</voice>				<type>quarter</type>				<stem default-y="-39.12">down</stem>			</note>			<note>				<pitch>					<step>F</step>					<octave>4</octave>				</pitch>				<duration>6720</duration>				<voice>1</voice>				<type>quarter</type>				<stem default-y="-34.41">down</stem>			</note>			<note>				<pitch>					<step>G</step>					<octave>4</octave>				</pitch>				<duration>13440</duration>				<voice>1</voice>				<type>half</type>				<stem default-y="-29.71">down</stem>				<lyric number="1" justify="center" default-y="-78.24">					<syllabic>end</syllabic>					<text font-family="Times New Roman" font-size="12.000010" font-weight="normal" font-style="normal" xml:lang="la">ten</text>				</lyric>			</note>		</measure>		<!--==========================[1,8]=============================-->		<measure number="8" width="297">			<print new-system="yes">				<system-layout>					<system-margins>						<left-margin>100.134</left-margin>						<right-margin>72.500</right-margin>					</system-margins>					<system-distance>235.800</system-distance>				</system-layout>			</print>			<attributes>				<staff-details number="1" print-object="yes">				</staff-details>			</attributes>			<note>				<pitch>					<step>A</step>					<octave>4</octave>				</pitch>				<duration>3360</duration>				<voice>1</voice>				<type>eighth</type>				<stem default-y="-29.71">down</stem>				<beam number="1">begin</beam>				<lyric number="1" justify="left" default-y="-78.82">					<syllabic>begin</syllabic>					<text font-family="Times New Roman" font-size="12.000010" font-weight="normal" font-style="normal" xml:lang="la">glo</text>				</lyric>			</note>			<note>				<pitch>					<step>F</step>					<octave>4</octave>				</pitch>				<duration>3360</duration>				<voice>1</voice>				<type>eighth</type>				<stem default-y="-29.71">down</stem>				<beam number="1">continue</beam>			</note>			<note>				<pitch>					<step>F</step>					<octave>4</octave>				</pitch>				<duration>3360</duration>				<voice>1</voice>				<type>eighth</type>				<stem default-y="-29.71">down</stem>				<beam number="1">continue</beam>			</note>			<note>				<pitch>					<step>G</step>					<octave>4</octave>				</pitch>				<duration>3360</duration>				<voice>1</voice>				<type>eighth</type>				<stem default-y="-29.71">down</stem>				<beam number="1">end</beam>			</note>			<note>				<pitch>					<step>G</step>					<octave>4</octave>				</pitch>				<duration>3360</duration>				<voice>1</voice>				<type>eighth</type>				<stem default-y="-29.71">down</stem>				<beam number="1">begin</beam>				<lyric number="1" justify="left" default-y="-78.82">					<syllabic>end</syllabic>					<text font-family="Times New Roman" font-size="12.000010" font-weight="normal" font-style="normal" xml:lang="la">ben</text>				</lyric>			</note>			<note>				<pitch>					<step>E</step>					<octave>4</octave>				</pitch>				<duration>3360</duration>				<voice>1</voice>				<type>eighth</type>				<stem default-y="-31.47">down</stem>				<beam number="1">continue</beam>			</note>			<note>				<pitch>					<step>E</step>					<octave>4</octave>				</pitch>				<duration>3360</duration>				<voice>1</voice>				<type>eighth</type>				<stem default-y="-32.65">down</stem>				<beam number="1">continue</beam>			</note>			<note>				<pitch>					<step>F</step>					<octave>4</octave>				</pitch>				<duration>3360</duration>				<voice>1</voice>				<type>eighth</type>				<stem default-y="-34.41">down</stem>				<beam number="1">end</beam>			</note>		</measure>		<!--==========================[1,9]=============================-->		<measure number="9" width="87">			<note>				<pitch>					<step>E</step>					<octave>4</octave>				</pitch>				<duration>6720</duration>				<voice>1</voice>				<type>quarter</type>				<stem default-y="-39.12">down</stem>				<lyric number="1" justify="center" default-y="-78.82">					<syllabic>begin</syllabic>					<text font-family="Times New Roman" font-size="12.000010" font-weight="normal" font-style="normal" xml:lang="la">al</text>				</lyric>			</note>			<note>				<pitch>					<step>D</step>					<octave>4</octave>				</pitch>				<duration>6720</duration>				<voice>1</voice>				<type>quarter</type>				<stem default-y="-34.41">down</stem>				<lyric number="1" justify="left" default-y="-78.82">					<syllabic>middle</syllabic>					<text font-family="Times New Roman" font-size="12.000010" font-weight="normal" font-style="normal" xml:lang="la">ler</text>				</lyric>			</note>		</measure>		<!--==========================[1,10]=============================-->		<measure number="10" width="148">			<note>				<pitch>					<step>C</step>					<octave>4</octave>				</pitch>				<duration>6720</duration>				<voice>1</voice>				<type>quarter</type>				<stem default-y="-39.12">down</stem>				<lyric number="1" justify="left" default-y="-78.82">					<syllabic>end</syllabic>					<text font-family="Times New Roman" font-size="12.000010" font-weight="normal" font-style="normal" xml:lang="la">meyst</text>				</lyric>			</note>			<note>				<pitch>					<step>B</step>					<octave>3</octave>				</pitch>				<duration>13440</duration>				<voice>1</voice>				<type>half</type>				<stem default-y="-53.82">down</stem>			</note>		</measure>		<!--==========================[1,11]=============================-->		<measure number="11" width="303">			<note>				<pitch>					<step>A</step>					<octave>3</octave>				</pitch>				<duration>3360</duration>				<voice>1</voice>				<type>eighth</type>				<stem default-y="9.12">up</stem>				<lyric number="1" justify="left" default-y="-78.82">					<syllabic>single</syllabic>					<text font-family="Times New Roman" font-size="12.000010" font-weight="normal" font-style="normal" xml:lang="la">dazher</text>				</lyric>			</note>			<note>				<pitch>					<step>B</step>					<octave>3</octave>				</pitch>				<duration>3360</duration>				<voice>1</voice>				<type>eighth</type>				<stem default-y="-54.11">down</stem>			</note>			<note>				<pitch>					<step>C</step>					<octave>4</octave>				</pitch>				<duration>3360</duration>				<voice>1</voice>				<type>eighth</type>				<stem default-y="-49.41">down</stem>				<lyric number="1" justify="left" default-y="-78.82">					<syllabic>begin</syllabic>					<text font-family="Times New Roman" font-size="12.000010" font-weight="normal" font-style="normal" xml:lang="la">unsbe</text>				</lyric>			</note>			<note>				<pitch>					<step>D</step>					<octave>4</octave>				</pitch>				<duration>3360</duration>				<voice>1</voice>				<type>eighth</type>				<stem default-y="-44.70">down</stem>				<lyric number="1" justify="center" default-y="-78.82">					<syllabic>middle</syllabic>					<text font-family="Times New Roman" font-size="12.000010" font-weight="normal" font-style="normal" xml:lang="la">hu</text>				</lyric>			</note>			<note>				<pitch>					<step>E</step>					<octave>4</octave>				</pitch>				<duration>6720</duration>				<voice>1</voice>				<type>quarter</type>				<stem default-y="-39.12">down</stem>			</note>			<note>				<pitch>					<step>D</step>					<octave>4</octave>				</pitch>				<duration>6720</duration>				<voice>1</voice>				<type>quarter</type>				<stem default-y="-44.41">down</stem>			</note>		</measure>		<!--==========================[1,12]=============================-->		<measure number="12" width="95">			<note>				<pitch>					<step>E</step>					<octave>4</octave>				</pitch>				<duration>26880</duration>				<voice>1</voice>				<type>whole</type>				<stem>none</stem>				<lyric number="1" justify="center" default-y="-78.82">					<syllabic>end</syllabic>					<text font-family="Times New Roman" font-size="12.000010" font-weight="normal" font-style="normal" xml:lang="la">te</text>				</lyric>			</note>		</measure>		<!--==========================[1,13]=============================-->		<measure number="13" width="217">			<note>				<pitch>					<step>E</step>					<octave>4</octave>				</pitch>				<duration>6720</duration>				<voice>1</voice>				<type>quarter</type>				<stem default-y="-39.12">down</stem>				<lyric number="1" justify="center" default-y="-78.82">					<syllabic>single</syllabic>					<text font-family="Times New Roman" font-size="12.000010" font-weight="normal" font-style="normal" xml:lang="la">so</text>				</lyric>			</note>			<note>				<pitch>					<step>E</step>					<octave>4</octave>				</pitch>				<duration>6720</duration>				<voice>1</voice>				<type>quarter</type>				<stem default-y="-39.12">down</stem>				<lyric number="1" justify="center" default-y="-78.82">					<syllabic>single</syllabic>					<text font-family="Times New Roman" font-size="12.000010" font-weight="normal" font-style="normal" xml:lang="la">wir</text>				</lyric>			</note>			<note>				<pitch>					<step>D</step>					<octave>4</octave>				</pitch>				<duration>13440</duration>				<voice>1</voice>				<type>half</type>				<stem default-y="-44.41">down</stem>				<lyric number="1" justify="center" default-y="-78.82">					<syllabic>single</syllabic>					<text font-family="Times New Roman" font-size="12.000010" font-weight="normal" font-style="normal" xml:lang="la">hem</text>				</lyric>			</note>		</measure>		<!--==========================[1,14]=============================-->		<measure number="14" width="1217">			<print new-system="yes">				<system-layout>					<system-margins>						<left-margin>100.134</left-margin>						<right-margin>76.250</right-margin>					</system-margins>					<system-distance>236.400</system-distance>				</system-layout>			</print>			<attributes>				<staff-details number="1" print-object="yes">				</staff-details>			</attributes>			<note>				<pitch>					<step>F</step>					<octave>4</octave>				</pitch>				<duration>3360</duration>				<voice>1</voice>				<type>eighth</type>				<stem default-y="-41.56">down</stem>				<beam number="1">begin</beam>				<lyric number="1" justify="center" default-y="-83.13">					<syllabic>begin</syllabic>					<text font-family="Times New Roman" font-size="12.000010" font-weight="normal" font-style="normal" xml:lang="la">va</text>				</lyric>			</note>			<note>				<pitch>					<step>G</step>					<octave>4</octave>				</pitch>				<duration>3360</duration>				<voice>1</voice>				<type>eighth</type>				<stem default-y="-41.56">down</stem>				<beam number="1">continue</beam>			</note>			<note>				<pitch>					<step>E</step>					<octave>4</octave>				</pitch>				<duration>3360</duration>				<voice>1</voice>				<type>eighth</type>				<stem default-y="-41.56">down</stem>				<beam number="1">continue</beam>			</note>			<note>				<pitch>					<step>F</step>					<octave>4</octave>				</pitch>				<duration>3360</duration>				<voice>1</voice>				<type>eighth</type>				<stem default-y="-41.56">down</stem>				<beam number="1">end</beam>			</note>			<note>				<pitch>					<step>G</step>					<octave>4</octave>				</pitch>				<duration>6720</duration>				<voice>1</voice>				<type>quarter</type>				<stem default-y="-30.94">down</stem>				<lyric number="1" justify="center" default-y="-83.13">					<syllabic>end</syllabic>					<text font-family="Times New Roman" font-size="12.000010" font-weight="normal" font-style="normal" xml:lang="la">ren</text>				</lyric>			</note>			<note>				<pitch>					<step>G</step>					<octave>4</octave>				</pitch>				<duration>3360</duration>				<voice>1</voice>				<type>eighth</type>				<stem default-y="-30.94">down</stem>				<beam number="1">begin</beam>				<notations>					<articulations>						<accent placement="below" relative-x="0.24" relative-y="4.06"/>					</articulations>				</notations>				<lyric number="1" justify="center" default-y="-83.13">					<syllabic>single</syllabic>					<text font-family="Times New Roman" font-size="12.000010" font-weight="normal" font-style="normal" xml:lang="la">ut</text>				</lyric>			</note>			<note>				<pitch>					<step>F</step>					<octave>4</octave>				</pitch>				<duration>3360</duration>				<voice>1</voice>				<type>eighth</type>				<stem default-y="-35.94">down</stem>				<beam number="1">end</beam>			</note>			<note>				<pitch>					<step>E</step>					<octave>4</octave>				</pitch>				<duration>6720</duration>				<voice>1</voice>				<type>quarter</type>				<stem default-y="-41.56">down</stem>				<lyric number="1" justify="center" default-y="-83.13">					<syllabic>begin</syllabic>					<text font-family="Times New Roman" font-size="12.000010" font-weight="normal" font-style="normal" xml:lang="la">dus</text>				</lyric>			</note>			<note>				<pitch>					<step>D</step>					<octave>4</octave>				</pitch>				<duration>6720</duration>				<voice>1</voice>				<type>quarter</type>				<stem default-y="-46.56">down</stem>			</note>			<note>				<pitch>					<step>E</step>					<octave>4</octave>				</pitch>				<duration>13440</duration>				<voice>1</voice>				<type>half</type>				<stem default-y="-41.56">down</stem>				<lyric number="1" justify="center" default-y="-83.13">					<syllabic>end</syllabic>					<text font-family="Times New Roman" font-size="12.000010" font-weight="normal" font-style="normal" xml:lang="la">sem</text>				</lyric>			</note>			<note>				<pitch>					<step>D</step>					<octave>4</octave>				</pitch>				<duration>13440</duration>				<voice>1</voice>				<type>half</type>				<stem default-y="-46.56">down</stem>				<lyric number="1" justify="center" default-y="-83.13">					<syllabic>begin</syllabic>					<text font-family="Times New Roman" font-size="12.000010" font-weight="normal" font-style="normal" xml:lang="la">e</text>				</lyric>			</note>			<note>				<pitch>					<step>C</step>					<octave>4</octave>				</pitch>				<duration>6720</duration>				<voice>1</voice>				<type>quarter</type>				<stem default-y="-51.56">down</stem>				<lyric number="1" justify="center" default-y="-83.13">					<syllabic>middle</syllabic>					<text font-family="Times New Roman" font-size="12.000010" font-weight="normal" font-style="normal" xml:lang="la">ne</text>				</lyric>			</note>			<note>				<pitch>					<step>E</step>					<octave>4</octave>				</pitch>				<duration>6720</duration>				<voice>1</voice>				<type>quarter</type>				<stem default-y="-41.56">down</stem>			</note>			<note>				<pitch>					<step>F</step>					<octave>4</octave>				</pitch>				<duration>6720</duration>				<voice>1</voice>				<type>quarter</type>				<stem default-y="-35.94">down</stem>				<lyric number="1" justify="left" default-y="-83.13">					<syllabic>middle</syllabic>					<text font-family="Times New Roman" font-size="12.000010" font-weight="normal" font-style="normal" xml:lang="la">len</text>				</lyric>			</note>			<note>				<pitch>					<step>E</step>					<octave>4</octave>				</pitch>				<duration>3360</duration>				<voice>1</voice>				<type>eighth</type>				<stem default-y="-41.56">down</stem>				<beam number="1">begin</beam>				<notations>					<articulations>						<accent placement="below" relative-x="0.24" relative-y="4.06"/>					</articulations>				</notations>			</note>			<note>				<pitch>					<step>D</step>					<octave>4</octave>				</pitch>				<duration>3360</duration>				<voice>1</voice>				<type>eighth</type>				<stem default-y="-46.56">down</stem>				<beam number="1">end</beam>			</note>			<note>				<pitch>					<step>D</step>					<octave>4</octave>				</pitch>				<duration>13440</duration>				<voice>1</voice>				<type>half</type>				<stem default-y="-46.56">down</stem>				<lyric number="1" justify="center" default-y="-83.13">					<syllabic>end</syllabic>					<text font-family="Times New Roman" font-size="12.000010" font-weight="normal" font-style="normal" xml:lang="la">de</text>				</lyric>			</note>			<note>				<pitch>					<step>E</step>					<octave>4</octave>				</pitch>				<duration>6720</duration>				<voice>1</voice>				<type>quarter</type>				<stem default-y="-41.56">down</stem>				<lyric number="1" justify="left" default-y="-83.13">					<syllabic>begin</syllabic>					<text font-family="Times New Roman" font-size="12.000010" font-weight="normal" font-style="normal" xml:lang="la">ky</text>				</lyric>			</note>			<note>				<pitch>					<step>D</step>					<octave>4</octave>				</pitch>				<duration>3360</duration>				<voice>1</voice>				<type>eighth</type>				<stem default-y="-41.56">down</stem>				<beam number="1">begin</beam>				<lyric number="1" justify="center" default-y="-83.13">					<syllabic>middle</syllabic>					<text font-family="Times New Roman" font-size="12.000010" font-weight="normal" font-style="normal" xml:lang="la">ri</text>				</lyric>			</note>			<note>				<pitch>					<step>E</step>					<octave>4</octave>				</pitch>				<duration>3360</duration>				<voice>1</voice>				<type>eighth</type>				<stem default-y="-35.94">down</stem>				<beam number="1">end</beam>				<lyric number="1" justify="right" default-y="-83.13">					<syllabic>end</syllabic>					<text font-family="Times New Roman" font-size="12.000010" font-weight="normal" font-style="normal" xml:lang="la">e</text>				</lyric>			</note>			<note>				<pitch>					<step>D</step>					<octave>4</octave>				</pitch>				<duration>6720</duration>				<voice>1</voice>				<type>quarter</type>				<stem default-y="-46.56">down</stem>				<lyric number="1" justify="center" default-y="-83.13">					<syllabic>begin</syllabic>					<text font-family="Times New Roman" font-size="12.000010" font-weight="normal" font-style="normal" xml:lang="la">ley</text>				</lyric>			</note>			<note>				<pitch>					<step>C</step>					<octave>4</octave>				</pitch>				<duration>6720</duration>				<voice>1</voice>				<type>quarter</type>				<stem default-y="-51.56">down</stem>			</note>			<note>				<pitch>					<step>D</step>					<octave>4</octave>				</pitch>				<duration>26880</duration>				<voice>1</voice>				<type>whole</type>				<stem>none</stem>				<lyric number="1" justify="center" default-y="-83.13">					<syllabic>end</syllabic>					<text font-family="Times New Roman" font-size="12.000010" font-weight="normal" font-style="normal" xml:lang="la">son.</text>				</lyric>			</note>			<barline location="right">				<bar-style>light-light</bar-style>			</barline>		</measure>	</part>	<part id="P2">		<!--==========================[2,1]=============================-->		<measure number="1" width="340">			<print new-page="yes">				<staff-layout number="1">					<staff-distance>79.200</staff-distance>				</staff-layout>			</print>			<attributes>				<divisions>6720</divisions>				<time symbol="cut">					<beats>2</beats>					<beat-type>2</beat-type>				</time>				<clef number="1">					<sign>G</sign>					<line>2</line>					<clef-octave-change>-1</clef-octave-change>				</clef>				<staff-details number="1" print-object="yes">					<staff-lines>5</staff-lines>					<staff-size>102.00</staff-size>				</staff-details>			</attributes>			<note>				<pitch>					<step>A</step>					<octave>3</octave>				</pitch>				<duration>6720</duration>				<voice>1</voice>				<type>quarter</type>				<stem default-y="9.12">up</stem>				<lyric number="1" justify="center" default-y="-78.82">					<syllabic>begin</syllabic>					<text font-family="Times New Roman" font-size="12.000010" font-weight="normal" font-style="normal" xml:lang="la">Phy</text>				</lyric>			</note>			<note>				<pitch>					<step>D</step>					<octave>4</octave>				</pitch>				<duration>6720</duration>				<voice>1</voice>				<type>quarter</type>				<stem default-y="-44.41">down</stem>				<lyric number="1" justify="right" default-y="-78.82">					<syllabic>middle</syllabic>					<text font-family="Times New Roman" font-size="12.000010" font-weight="normal" font-style="normal" xml:lang="la">si</text>				</lyric>			</note>			<note>				<pitch>					<step>A</step>					<octave>3</octave>				</pitch>				<duration>6720</duration>				<voice>1</voice>				<type>quarter</type>				<stem default-y="9.12">up</stem>				<lyric number="1" justify="center" default-y="-78.82">					<syllabic>end</syllabic>					<text font-family="Times New Roman" font-size="12.000010" font-weight="normal" font-style="normal" xml:lang="la">ca</text>				</lyric>			</note>			<note>				<pitch>					<step>D</step>					<octave>4</octave>				</pitch>				<duration>6720</duration>				<voice>1</voice>				<type>quarter</type>				<stem default-y="-44.41">down</stem>				<lyric number="1" justify="center" default-y="-78.82">					<syllabic>begin</syllabic>					<text font-family="Times New Roman" font-size="12.000010" font-weight="normal" font-style="normal" xml:lang="la">ar</text>				</lyric>			</note>		</measure>		<!--==========================[2,2]=============================-->		<measure number="2" width="62">			<note>				<pitch>					<step>E</step>					<octave>4</octave>				</pitch>				<duration>6720</duration>				<voice>1</voice>				<type>quarter</type>				<stem default-y="-39.71">down</stem>				<lyric number="1" justify="center" default-y="-78.82">					<syllabic>middle</syllabic>					<text font-family="Times New Roman" font-size="12.000010" font-weight="normal" font-style="normal" xml:lang="la">mo</text>				</lyric>			</note>		</measure>		<!--==========================[2,3]=============================-->		<measure number="3" width="237">			<note>				<pitch>					<step>D</step>					<octave>4</octave>				</pitch>				<duration>6720</duration>				<voice>1</voice>				<type>quarter</type>				<stem default-y="-39.71">down</stem>			</note>			<note>				<pitch>					<step>E</step>					<octave>4</octave>				</pitch>				<duration>6720</duration>				<voice>1</voice>				<type>quarter</type>				<stem default-y="-39.71">down</stem>			</note>			<backup>				<duration>3360</duration>			</backup>			<note>				<pitch>					<step>C</step>					<octave>4</octave>				</pitch>				<duration>3360</duration>				<voice>1</voice>				<type>eighth</type>				<stem default-y="-49.41">down</stem>				<lyric number="1" justify="center" default-y="-78.82">					<syllabic>middle</syllabic>					<text font-family="Times New Roman" font-size="12.000010" font-weight="normal" font-style="normal" xml:lang="la">ni</text>				</lyric>			</note>			<note>				<pitch>					<step>B</step>					<octave>3</octave>				</pitch>				<duration>13440</duration>				<voice>1</voice>				<type>half</type>				<stem default-y="-53.82">down</stem>				<lyric number="1" justify="center" default-y="-78.82">					<syllabic>end</syllabic>					<text font-family="Times New Roman" font-size="12.000010" font-weight="normal" font-style="normal" xml:lang="la">a</text>				</lyric>			</note>		</measure>		<!--==========================[2,4]=============================-->		<measure number="4" width="129">			<note>				<pitch>					<step>A</step>					<octave>3</octave>				</pitch>				<duration>6720</duration>				<voice>1</voice>				<type>quarter</type>				<stem default-y="9.12">up</stem>				<lyric number="1" justify="center" default-y="-78.82">					<syllabic>begin</syllabic>					<text font-family="Times New Roman" font-size="12.000010" font-weight="normal" font-style="normal" xml:lang="la">ve</text>				</lyric>			</note>			<note>				<pitch>					<step>B</step>					<octave>3</octave>				</pitch>				<duration>6720</duration>				<voice>1</voice>				<type>quarter</type>				<stem default-y="-53.82">down</stem>				<lyric number="1" justify="center" default-y="-78.82">					<syllabic>end</syllabic>					<text font-family="Times New Roman" font-size="12.000010" font-weight="normal" font-style="normal" xml:lang="la">ram</text>				</lyric>			</note>		</measure>		<!--==========================[2,5]=============================-->		<measure number="5" width="144">			<note>				<pitch>					<step>C</step>					<octave>4</octave>				</pitch>				<duration>6720</duration>				<voice>1</voice>				<type>quarter</type>				<stem default-y="-49.12">down</stem>				<lyric number="1" justify="center" default-y="-78.82">					<syllabic>begin</syllabic>					<text font-family="Times New Roman" font-size="12.000010" font-weight="normal" font-style="normal" xml:lang="la">le</text>				</lyric>			</note>			<note>				<pitch>					<step>A</step>					<octave>3</octave>				</pitch>				<duration>6720</duration>				<voice>1</voice>				<type>quarter</type>				<stem default-y="9.12">up</stem>			</note>		</measure>		<!--==========================[2,6]=============================-->		<measure number="6" width="41">		</measure>		<!--==========================[2,7]=============================-->		<measure number="7" width="193">			<note>				<pitch>					<step>B</step>					<octave>3</octave>				</pitch>				<duration>13440</duration>				<voice>1</voice>				<type>half</type>				<stem default-y="-53.82">down</stem>				<lyric number="1" justify="center" default-y="-78.82">					<syllabic>middle</syllabic>					<text font-family="Times New Roman" font-size="12.000010" font-weight="normal" font-style="normal" xml:lang="la">ti</text>				</lyric>			</note>			<note>				<pitch>					<step>C</step>					<octave>4</octave>				</pitch>				<duration>13440</duration>				<voice>1</voice>				<type>half</type>				<stem default-y="-49.12">down</stem>			</note>		</measure>		<!--==========================[2,8]=============================-->		<measure number="8" width="316">			<print new-system="yes">				<staff-layout number="1">					<staff-distance>79.800</staff-distance>				</staff-layout>			</print>			<attributes>				<staff-details number="1" print-object="yes">				</staff-details>			</attributes>			<note>				<pitch>					<step>D</step>					<octave>4</octave>				</pitch>				<duration>6720</duration>				<voice>1</voice>				<type>quarter</type>				<stem default-y="-46.56">down</stem>			</note>			<note>				<pitch>					<step>A</step>					<octave>3</octave>				</pitch>				<duration>6720</duration>				<voice>1</voice>				<type>quarter</type>				<stem default-y="10.31">up</stem>				<lyric number="1" justify="center" default-y="-83.13">					<syllabic>middle</syllabic>					<text font-family="Times New Roman" font-size="12.000010" font-weight="normal" font-style="normal" xml:lang="la">ci</text>				</lyric>			</note>			<note>				<pitch>					<step>B</step>					<octave>3</octave>				</pitch>				<duration>6720</duration>				<voice>1</voice>				<type>quarter</type>				<stem default-y="-57.19">down</stem>				<lyric number="1" justify="left" default-y="-83.13">					<syllabic>end</syllabic>					<text font-family="Times New Roman" font-size="12.000010" font-weight="normal" font-style="normal" xml:lang="la">am</text>				</lyric>			</note>			<note>				<pitch>					<step>A</step>					<octave>3</octave>				</pitch>				<duration>6720</duration>				<voice>1</voice>				<type>quarter</type>				<stem default-y="10.31">up</stem>			</note>		</measure>		<!--==========================[2,9]=============================-->		<measure number="9" width="92">			<note>				<pitch>					<step>G</step>					<octave>3</octave>				</pitch>				<duration>6720</duration>				<voice>1</voice>				<type>quarter</type>				<stem default-y="5.31">up</stem>				<lyric number="1" justify="left" default-y="-83.13">					<syllabic>begin</syllabic>					<text font-family="Times New Roman" font-size="12.000010" font-weight="normal" font-style="normal" xml:lang="la">ve</text>				</lyric>			</note>			<note>				<pitch>					<step>G</step>					<octave>3</octave>				</pitch>				<duration>6720</duration>				<voice>1</voice>				<type>quarter</type>				<stem default-y="5.31">up</stem>				<lyric number="1" justify="right" default-y="-83.13">					<syllabic>end</syllabic>					<text font-family="Times New Roman" font-size="12.000010" font-weight="normal" font-style="normal" xml:lang="la">ri</text>				</lyric>			</note>		</measure>		<!--==========================[2,10]=============================-->		<measure number="10" width="157">			<note>				<pitch>					<step>B</step>					<octave>3</octave>				</pitch>				<duration>6720</duration>				<voice>1</voice>				<type>quarter</type>				<stem default-y="-57.19">down</stem>				<lyric number="1" justify="left" default-y="-83.13">					<syllabic>begin</syllabic>					<text font-family="Times New Roman" font-size="12.000010" font-weight="normal" font-style="normal" xml:lang="la">su</text>				</lyric>			</note>			<note>				<pitch>					<step>B</step>					<octave>3</octave>				</pitch>				<duration>6720</duration>				<voice>1</voice>				<type>quarter</type>				<stem default-y="-57.19">down</stem>				<lyric number="1" justify="right" default-y="-83.13">					<syllabic>end</syllabic>					<text font-family="Times New Roman" font-size="12.000010" font-weight="normal" font-style="normal" xml:lang="la">is</text>				</lyric>			</note>		</measure>		<!--==========================[2,11]=============================-->		<measure number="11" width="322">			<note>				<pitch>					<step>A</step>					<octave>3</octave>				</pitch>				<duration>6720</duration>				<voice>1</voice>				<type>quarter</type>				<stem default-y="10.31">up</stem>				<lyric number="1" justify="center" default-y="-83.13">					<syllabic>begin</syllabic>					<text font-family="Times New Roman" font-size="12.000010" font-weight="normal" font-style="normal" xml:lang="la">a</text>				</lyric>			</note>			<note>				<pitch>					<step>B</step>					<octave>3</octave>				</pitch>				<duration>6720</duration>				<voice>1</voice>				<type>quarter</type>				<stem default-y="-57.19">down</stem>				<lyric number="1" justify="center" default-y="-83.13">					<syllabic>middle</syllabic>					<text font-family="Times New Roman" font-size="12.000010" font-weight="normal" font-style="normal" xml:lang="la">ma</text>				</lyric>			</note>			<note>				<pitch>					<step>C</step>					<octave>4</octave>				</pitch>				<duration>3360</duration>				<voice>1</voice>				<type>eighth</type>				<stem default-y="-51.56">down</stem>				<beam number="1">begin</beam>				<lyric number="1" justify="center" default-y="-83.13">					<syllabic>middle</syllabic>					<text font-family="Times New Roman" font-size="12.000010" font-weight="normal" font-style="normal" xml:lang="la">to</text>				</lyric>			</note>			<note>				<pitch>					<step>B</step>					<octave>3</octave>				</pitch>				<duration>3360</duration>				<voice>1</voice>				<type>eighth</type>				<stem default-y="-57.19">down</stem>				<beam number="1">end</beam>			</note>			<note>				<pitch>					<step>C</step>					<octave>4</octave>				</pitch>				<duration>3360</duration>				<voice>1</voice>				<type>eighth</type>				<stem default-y="-51.56">down</stem>				<beam number="1">begin</beam>				<lyric number="1" justify="center" default-y="-83.13">					<syllabic>middle</syllabic>					<text font-family="Times New Roman" font-size="12.000010" font-weight="normal" font-style="normal" xml:lang="la">ri</text>				</lyric>			</note>			<note>				<pitch>					<step>A</step>					<octave>3</octave>				</pitch>				<duration>3360</duration>				<voice>1</voice>				<type>eighth</type>				<stem default-y="-57.19">down</stem>				<beam number="1">end</beam>			</note>		</measure>		<!--==========================[2,12]=============================-->		<measure number="12" width="101">			<note>				<pitch>					<step>B</step>					<octave>3</octave>				</pitch>				<duration>26880</duration>				<voice>1</voice>				<type>whole</type>				<stem>none</stem>				<lyric number="1" justify="center" default-y="-83.13">					<syllabic>end</syllabic>					<text font-family="Times New Roman" font-size="12.000010" font-weight="normal" font-style="normal" xml:lang="la">bus</text>				</lyric>			</note>		</measure>		<!--==========================[2,13]=============================-->		<measure number="13" width="230">			<note>				<pitch>					<step>C</step>					<octave>4</octave>				</pitch>				<duration>6720</duration>				<voice>1</voice>				<type>quarter</type>				<stem default-y="-51.56">down</stem>				<lyric number="1" justify="center" default-y="-83.13">					<syllabic>single</syllabic>					<text font-family="Times New Roman" font-size="12.000010" font-weight="normal" font-style="normal" xml:lang="la">dat</text>				</lyric>			</note>			<note>				<pitch>					<step>C</step>					<octave>4</octave>				</pitch>				<duration>6720</duration>				<voice>1</voice>				<type>quarter</type>				<stem default-y="-51.56">down</stem>				<lyric number="1" justify="center" default-y="-83.13">					<syllabic>begin</syllabic>					<text font-family="Times New Roman" font-size="12.000010" font-weight="normal" font-style="normal" xml:lang="la">no</text>				</lyric>			</note>			<note>				<pitch>					<step>B</step>					<octave>3</octave>				</pitch>				<duration>3360</duration>				<voice>1</voice>				<type>eighth</type>				<stem default-y="-51.56">down</stem>				<beam number="1">begin</beam>				<lyric number="1" justify="left" default-y="-83.13">					<syllabic>end</syllabic>					<text font-family="Times New Roman" font-size="12.000010" font-weight="normal" font-style="normal" xml:lang="la">bis</text>				</lyric>			</note>			<note>				<pitch>					<step>C</step>					<octave>4</octave>				</pitch>				<duration>3360</duration>				<voice>1</voice>				<type>eighth</type>				<stem default-y="-46.56">down</stem>				<beam number="1">end</beam>			</note>			<note>				<pitch>					<step>D</step>					<octave>4</octave>				</pitch>				<duration>6720</duration>				<voice>1</voice>				<type>quarter</type>				<stem default-y="-46.56">down</stem>			</note>		</measure>		<!--==========================[2,14]=============================-->		<measure number="14" width="1145">			<print new-system="yes">				<staff-layout number="1">					<staff-distance>79.200</staff-distance>				</staff-layout>			</print>			<attributes>				<staff-details number="1" print-object="yes">				</staff-details>			</attributes>			<note>				<pitch>					<step>C</step>					<octave>4</octave>				</pitch>				<duration>13440</duration>				<voice>1</voice>				<type>half</type>				<stem default-y="-49.12">down</stem>			</note>			<note>				<pitch>					<step>D</step>					<octave>4</octave>				</pitch>				<duration>13440</duration>				<voice>1</voice>				<type>half</type>				<stem default-y="-43.82">down</stem>				<lyric number="1" justify="center" default-y="-83.53">					<syllabic>single</syllabic>					<text font-family="Times New Roman" font-size="12.000010" font-weight="normal" font-style="normal" xml:lang="la">iam</text>				</lyric>			</note>			<note>				<pitch>					<step>D</step>					<octave>4</octave>				</pitch>				<duration>3360</duration>				<voice>1</voice>				<type>eighth</type>				<stem default-y="-49.12">down</stem>				<beam number="1">begin</beam>				<lyric number="1" justify="left" default-y="-83.53">					<syllabic>begin</syllabic>					<text font-family="Times New Roman" font-size="12.000010" font-weight="normal" font-style="normal" xml:lang="la">ab</text>				</lyric>			</note>			<note>				<pitch>					<step>C</step>					<octave>4</octave>				</pitch>				<duration>3360</duration>				<voice>1</voice>				<type>eighth</type>				<stem default-y="-49.12">down</stem>				<beam number="1">continue</beam>			</note>			<note>				<pitch>					<step>B</step>					<octave>3</octave>				</pitch>				<duration>3360</duration>				<voice>1</voice>				<type>eighth</type>				<stem default-y="-49.12">down</stem>				<beam number="1">continue</beam>			</note>			<note>				<pitch>					<step>D</step>					<octave>4</octave>				</pitch>				<duration>3360</duration>				<voice>1</voice>				<type>eighth</type>				<stem default-y="-49.12">down</stem>				<beam number="1">end</beam>			</note>			<note>				<pitch>					<step>C</step>					<octave>4</octave>				</pitch>				<duration>6720</duration>				<voice>1</voice>				<type>quarter</type>				<stem default-y="-49.12">down</stem>				<lyric number="1" justify="center" default-y="-83.53">					<syllabic>end</syllabic>					<text font-family="Times New Roman" font-size="12.000010" font-weight="normal" font-style="normal" xml:lang="la">sit</text>				</lyric>			</note>			<note>				<pitch>					<step>C</step>					<octave>4</octave>				</pitch>				<duration>6720</duration>				<voice>1</voice>				<type>quarter</type>				<stem default-y="-49.12">down</stem>				<lyric number="1" justify="center" default-y="-83.53">					<syllabic>begin</syllabic>					<text font-family="Times New Roman" font-size="12.000010" font-weight="normal" font-style="normal" xml:lang="la">ti</text>				</lyric>			</note>			<note>				<pitch>					<step>B</step>					<octave>3</octave>				</pitch>				<duration>6720</duration>				<voice>1</voice>				<type>quarter</type>				<stem default-y="-53.82">down</stem>				<lyric number="1" justify="left" default-y="-83.53">					<syllabic>middle</syllabic>					<text font-family="Times New Roman" font-size="12.000010" font-weight="normal" font-style="normal" xml:lang="la">me</text>				</lyric>			</note>			<note>				<pitch>					<step>A</step>					<octave>3</octave>				</pitch>				<duration>6720</duration>				<voice>1</voice>				<type>quarter</type>				<stem default-y="9.71">up</stem>				<lyric number="1" justify="center" default-y="-83.53">					<syllabic>middle</syllabic>					<text font-family="Times New Roman" font-size="12.000010" font-weight="normal" font-style="normal" xml:lang="la">repneu</text>				</lyric>			</note>			<note>				<pitch>					<step>B</step>					<octave>3</octave>				</pitch>				<duration>6720</duration>				<voice>1</voice>				<type>quarter</type>				<stem default-y="-53.82">down</stem>				<lyric number="1" justify="center" default-y="-83.53">					<syllabic>end</syllabic>					<text font-family="Times New Roman" font-size="12.000010" font-weight="normal" font-style="normal" xml:lang="la">ma</text>				</lyric>			</note>			<note>				<pitch>					<step>C</step>					<octave>4</octave>				</pitch>				<duration>6720</duration>				<voice>1</voice>				<type>quarter</type>				<stem default-y="-49.12">down</stem>			</note>			<note>				<pitch>					<step>D</step>					<octave>4</octave>				</pitch>				<duration>6720</duration>				<voice>1</voice>				<type>quarter</type>				<stem default-y="-43.82">down</stem>				<lyric number="1" justify="left" default-y="-83.53">					<syllabic>begin</syllabic>					<text font-family="Times New Roman" font-size="12.000010" font-weight="normal" font-style="normal" xml:lang="la">mis</text>				</lyric>			</note>			<note>				<pitch>					<step>A</step>					<octave>3</octave>				</pitch>				<duration>6720</duration>				<voice>1</voice>				<type>quarter</type>				<stem default-y="9.71">up</stem>				<lyric number="1" justify="center" default-y="-83.53">					<syllabic>end</syllabic>					<text font-family="Times New Roman" font-size="12.000010" font-weight="normal" font-style="normal" xml:lang="la">sum</text>				</lyric>			</note>			<note>				<pitch>					<step>B</step>					<octave>3</octave>				</pitch>				<duration>13440</duration>				<voice>1</voice>				<type>half</type>				<stem default-y="-53.82">down</stem>				<lyric number="1" justify="center" default-y="-83.53">					<syllabic>single</syllabic>					<text font-family="Times New Roman" font-size="12.000010" font-weight="normal" font-style="normal" xml:lang="la">est</text>				</lyric>			</note>			<note>				<pitch>					<step>A</step>					<octave>3</octave>				</pitch>				<duration>6720</duration>				<voice>1</voice>				<type>quarter</type>				<stem default-y="9.71">up</stem>				<lyric number="1" justify="left" default-y="-83.53">					<syllabic>begin</syllabic>					<text font-family="Times New Roman" font-size="12.000010" font-weight="normal" font-style="normal" xml:lang="la">dis</text>				</lyric>			</note>			<note>				<pitch>					<step>B</step>					<octave>3</octave>				</pitch>				<duration>6720</duration>				<voice>1</voice>				<type>quarter</type>				<stem default-y="-53.82">down</stem>			</note>			<note>				<pitch>					<step>A</step>					<octave>3</octave>				</pitch>				<duration>6720</duration>				<voice>1</voice>				<type>quarter</type>				<stem default-y="9.71">up</stem>				<lyric number="1" justify="left" default-y="-83.53">					<syllabic>middle</syllabic>					<text font-family="Times New Roman" font-size="12.000010" font-weight="normal" font-style="normal" xml:lang="la">ci</text>				</lyric>			</note>			<note>				<pitch>					<step>G</step>					<octave>3</octave>				</pitch>				<duration>6720</duration>				<voice>1</voice>				<type>quarter</type>				<stem default-y="4.41">up</stem>				<lyric number="1" justify="center" default-y="-83.53">					<syllabic>middle</syllabic>					<text font-family="Times New Roman" font-size="12.000010" font-weight="normal" font-style="normal" xml:lang="la">pu</text>				</lyric>			</note>			<note>				<pitch>					<step>A</step>					<octave>3</octave>				</pitch>				<duration>26880</duration>				<voice>1</voice>				<type>whole</type>				<stem>none</stem>				<lyric number="1" justify="center" default-y="-83.53">					<syllabic>end</syllabic>					<text font-family="Times New Roman" font-size="12.000010" font-weight="normal" font-style="normal" xml:lang="la">lis.</text>				</lyric>			</note>		</measure>	</part>	<part id="P3">		<!--==========================[3,1]=============================-->		<measure number="1" width="362">			<print new-page="yes">				<staff-layout number="1">					<staff-distance>79.200</staff-distance>				</staff-layout>			</print>			<attributes>				<divisions>6720</divisions>				<time symbol="cut">					<beats>2</beats>					<beat-type>2</beat-type>				</time>				<clef number="1">					<sign>G</sign>					<line>2</line>					<clef-octave-change>-1</clef-octave-change>				</clef>				<staff-details number="1" print-object="yes">					<staff-lines>5</staff-lines>					<staff-size>96.00</staff-size>				</staff-details>			</attributes>			<note>				<pitch>					<step>D</step>					<octave>3</octave>				</pitch>				<duration>6720</duration>				<voice>1</voice>				<type>quarter</type>				<stem default-y="-10.31">up</stem>				<lyric number="1" justify="left" default-y="-83.12">					<syllabic>begin</syllabic>					<text font-family="Times New Roman" font-size="12.000010" font-weight="normal" font-style="normal" xml:lang="la">Ve</text>				</lyric>			</note>			<note>				<pitch>					<step>D</step>					<octave>3</octave>				</pitch>				<duration>6720</duration>				<voice>1</voice>				<type>quarter</type>				<stem default-y="-10.31">up</stem>				<lyric number="1" justify="right" default-y="-83.12">					<syllabic>end</syllabic>					<text font-family="Times New Roman" font-size="12.000010" font-weight="normal" font-style="normal" xml:lang="la">ni</text>				</lyric>			</note>			<note>				<pitch>					<step>D</step>					<octave>3</octave>				</pitch>				<duration>6720</duration>				<voice>1</voice>				<type>quarter</type>				<stem default-y="-10.31">up</stem>				<lyric number="1" justify="left" default-y="-83.12">					<syllabic>begin</syllabic>					<text font-family="Times New Roman" font-size="12.000010" font-weight="normal" font-style="normal" xml:lang="la">san</text>				</lyric>			</note>			<note>				<pitch>					<step>D</step>					<octave>3</octave>				</pitch>				<duration>6720</duration>				<voice>1</voice>				<type>quarter</type>				<stem default-y="-10.31">up</stem>				<lyric number="1" justify="right" default-y="-83.12">					<syllabic>end</syllabic>					<text font-family="Times New Roman" font-size="12.000010" font-weight="normal" font-style="normal" xml:lang="la">cte</text>				</lyric>			</note>		</measure>		<!--==========================[3,2]=============================-->		<measure number="2" width="66">			<note>				<pitch>					<step>E</step>					<octave>3</octave>				</pitch>				<duration>6720</duration>				<voice>1</voice>				<type>quarter</type>				<stem default-y="-5.31">up</stem>				<lyric number="1" justify="center" default-y="-83.12">					<syllabic>begin</syllabic>					<text font-family="Times New Roman" font-size="12.000010" font-weight="normal" font-style="normal" xml:lang="la">spi</text>				</lyric>			</note>		</measure>		<!--==========================[3,3]=============================-->		<measure number="3" width="251">			<forward>				<duration>6720</duration>			</forward>			<note>				<pitch>					<step>E</step>					<octave>3</octave>				</pitch>				<duration>6720</duration>				<voice>1</voice>				<type>quarter</type>				<stem default-y="-5.31">up</stem>				<lyric number="1" justify="center" default-y="-83.12">					<syllabic>middle</syllabic>					<text font-family="Times New Roman" font-size="12.000010" font-weight="normal" font-style="normal" xml:lang="la">ri</text>				</lyric>			</note>			<note>				<pitch>					<step>E</step>					<octave>3</octave>				</pitch>				<duration>6720</duration>				<voice>1</voice>				<type>quarter</type>				<stem default-y="-5.31">up</stem>				<lyric number="1" justify="left" default-y="-83.12">					<syllabic>middle</syllabic>					<text font-family="Times New Roman" font-size="12.000010" font-weight="normal" font-style="normal" xml:lang="la">tus</text>				</lyric>			</note>			<backup>				<duration>6720</duration>			</backup>			<note>				<pitch>					<step>E</step>					<octave>3</octave>				</pitch>				<duration>6720</duration>				<voice>1</voice>				<type>quarter</type>				<stem default-y="-5.31">up</stem>				<lyric number="1" justify="center" default-y="-83.12">					<syllabic>end</syllabic>					<text font-family="Times New Roman" font-size="12.000010" font-weight="normal" font-style="normal" xml:lang="la">que</text>				</lyric>			</note>		</measure>		<!--==========================[3,4]=============================-->		<measure number="4" width="137">			<note>				<pitch>					<step>A</step>					<octave>3</octave>				</pitch>				<duration>6720</duration>				<voice>1</voice>				<type>quarter</type>				<stem default-y="10.31">up</stem>				<lyric number="1" justify="center" default-y="-83.12">					<syllabic>begin</syllabic>					<text font-family="Times New Roman" font-size="12.000010" font-weight="normal" font-style="normal" xml:lang="la">pa</text>				</lyric>			</note>			<note>				<pitch>					<step>G</step>					<octave>3</octave>				</pitch>				<duration>6720</duration>				<voice>1</voice>				<type>quarter</type>				<stem default-y="4.69">up</stem>				<lyric number="1" justify="center" default-y="-83.12">					<syllabic>end</syllabic>					<text font-family="Times New Roman" font-size="12.000010" font-weight="normal" font-style="normal" xml:lang="la">ter</text>				</lyric>			</note>		</measure>		<!--==========================[3,5]=============================-->		<measure number="5" width="153">			<note>				<pitch>					<step>A</step>					<octave>3</octave>				</pitch>				<duration>6720</duration>				<voice>1</voice>				<type>quarter</type>				<stem default-y="10.31">up</stem>				<lyric number="1" justify="center" default-y="-83.12">					<syllabic>begin</syllabic>					<text font-family="Times New Roman" font-size="12.000010" font-weight="normal" font-style="normal" xml:lang="la">pau</text>				</lyric>			</note>			<note>				<pitch>					<step>F</step>					<octave>3</octave>				</pitch>				<duration>6720</duration>				<voice>1</voice>				<type>quarter</type>				<stem default-y="-0.31">up</stem>				<lyric number="1" justify="center" default-y="-83.12">					<syllabic>middle</syllabic>					<text font-family="Times New Roman" font-size="12.000010" font-weight="normal" font-style="normal" xml:lang="la">pe</text>				</lyric>			</note>		</measure>		<!--==========================[3,6]=============================-->		<measure number="6" width="44">		</measure>		<!--==========================[3,7]=============================-->		<measure number="7" width="205">			<note>				<pitch>					<step>E</step>					<octave>3</octave>				</pitch>				<duration>26880</duration>				<voice>1</voice>				<type>whole</type>				<stem>none</stem>				<lyric number="1" justify="center" default-y="-83.12">					<syllabic>end</syllabic>					<text font-family="Times New Roman" font-size="12.000010" font-weight="normal" font-style="normal" xml:lang="la">rum</text>				</lyric>			</note>		</measure>		<!--==========================[3,8]=============================-->		<measure number="8" width="297">			<print new-system="yes">				<staff-layout number="1">					<staff-distance>79.200</staff-distance>				</staff-layout>			</print>			<attributes>				<staff-details number="1" print-object="yes">				</staff-details>			</attributes>			<forward>				<duration>2520</duration>			</forward>			<direction placement="above">				<direction-type>					<words font-family="Times New Roman" font-size="12.000000" font-weight="normal" font-style="normal" relative-x="0.00" default-y="38.23"></words>				</direction-type>			</direction>			<backup>				<duration>2520</duration>			</backup>			<note>				<pitch>					<step>D</step>					<octave>3</octave>				</pitch>				<duration>6720</duration>				<voice>1</voice>				<type>quarter</type>				<stem default-y="-10.29">up</stem>				<lyric number="1" justify="center" default-y="-78.24">					<syllabic>single</syllabic>					<text font-family="Times New Roman" font-size="12.000010" font-weight="normal" font-style="normal" xml:lang="la">et</text>				</lyric>			</note>			<note>				<pitch>					<step>D</step>					<octave>3</octave>				</pitch>				<duration>6720</duration>				<voice>1</voice>				<type>quarter</type>				<stem default-y="-10.29">up</stem>				<lyric number="1" justify="center" default-y="-78.24">					<syllabic>begin</syllabic>					<text font-family="Times New Roman" font-size="12.000010" font-weight="normal" font-style="normal" xml:lang="la">e</text>				</lyric>			</note>			<note>				<pitch>					<step>D</step>					<octave>3</octave>				</pitch>				<duration>6720</duration>				<voice>1</voice>				<type>quarter</type>				<stem default-y="-10.29">up</stem>				<lyric number="1" justify="center" default-y="-78.24">					<syllabic>middle</syllabic>					<text font-family="Times New Roman" font-size="12.000010" font-weight="normal" font-style="normal" xml:lang="la">mit</text>				</lyric>			</note>			<note>				<pitch>					<step>D</step>					<octave>3</octave>				</pitch>				<duration>6720</duration>				<voice>1</voice>				<type>quarter</type>				<stem default-y="-10.29">up</stem>				<lyric number="1" justify="center" default-y="-78.24">					<syllabic>end</syllabic>					<text font-family="Times New Roman" font-size="12.000010" font-weight="normal" font-style="normal" xml:lang="la">te</text>				</lyric>			</note>		</measure>		<!--==========================[3,9]=============================-->		<measure number="9" width="87">			<note>				<pitch>					<step>E</step>					<octave>3</octave>				</pitch>				<duration>6720</duration>				<voice>1</voice>				<type>quarter</type>				<stem default-y="-5.00">up</stem>				<lyric number="1" justify="left" default-y="-78.24">					<syllabic>begin</syllabic>					<text font-family="Times New Roman" font-size="12.000010" font-weight="normal" font-style="normal" xml:lang="la">ce</text>				</lyric>			</note>			<note>				<pitch>					<step>E</step>					<octave>3</octave>				</pitch>				<duration>6720</duration>				<voice>1</voice>				<type>quarter</type>				<stem default-y="-5.00">up</stem>				<lyric number="1" justify="right" default-y="-78.24">					<syllabic>middle</syllabic>					<text font-family="Times New Roman" font-size="12.000010" font-weight="normal" font-style="normal" xml:lang="la">li</text>				</lyric>			</note>		</measure>		<!--==========================[3,10]=============================-->		<measure number="10" width="148">			<note>				<pitch>					<step>E</step>					<octave>3</octave>				</pitch>				<duration>6720</duration>				<voice>1</voice>				<type>quarter</type>				<stem default-y="-5.00">up</stem>				<lyric number="1" justify="center" default-y="-78.24">					<syllabic>end</syllabic>					<text font-family="Times New Roman" font-size="12.000010" font-weight="normal" font-style="normal" xml:lang="la">tus</text>				</lyric>			</note>			<note>				<pitch>					<step>E</step>					<octave>3</octave>				</pitch>				<duration>3360</duration>				<voice>1</voice>				<type>eighth</type>				<stem default-y="-5.00">up</stem>				<lyric number="1" justify="left" default-y="-78.24">					<syllabic>begin</syllabic>					<text font-family="Times New Roman" font-size="12.000010" font-weight="normal" font-style="normal" xml:lang="la">tu</text>				</lyric>			</note>			<note>				<pitch>					<step>E</step>					<octave>3</octave>				</pitch>				<duration>3360</duration>				<voice>1</voice>				<type>eighth</type>				<stem default-y="-5.00">up</stem>				<lyric number="1" justify="right" default-y="-78.24">					<syllabic>end</syllabic>					<text font-family="Times New Roman" font-size="12.000010" font-weight="normal" font-style="normal" xml:lang="la">e</text>				</lyric>			</note>		</measure>		<!--==========================[3,11]=============================-->		<measure number="11" width="303">			<note>				<pitch>					<step>A</step>					<octave>3</octave>				</pitch>				<duration>6720</duration>				<voice>1</voice>				<type>quarter</type>				<stem default-y="9.12">up</stem>				<lyric number="1" justify="center" default-y="-78.24">					<syllabic>begin</syllabic>					<text font-family="Times New Roman" font-size="12.000010" font-weight="normal" font-style="normal" xml:lang="la">lu</text>				</lyric>			</note>			<note>				<pitch>					<step>G</step>					<octave>3</octave>				</pitch>				<duration>6720</duration>				<voice>1</voice>				<type>quarter</type>				<stem default-y="4.41">up</stem>				<lyric number="1" justify="center" default-y="-78.24">					<syllabic>end</syllabic>					<text font-family="Times New Roman" font-size="12.000010" font-weight="normal" font-style="normal" xml:lang="la">cis</text>				</lyric>			</note>			<note>				<pitch>					<step>A</step>					<octave>3</octave>				</pitch>				<duration>6720</duration>				<voice>1</voice>				<type>quarter</type>				<stem default-y="9.12">up</stem>				<lyric number="1" justify="center" default-y="-78.24">					<syllabic>begin</syllabic>					<text font-family="Times New Roman" font-size="12.000010" font-weight="normal" font-style="normal" xml:lang="la">ra</text>				</lyric>			</note>			<note>				<pitch>					<step>F</step>					<octave>3</octave>				</pitch>				<duration>6720</duration>				<voice>1</voice>				<type>quarter</type>				<stem default-y="-0.29">up</stem>				<lyric number="1" justify="center" default-y="-78.24">					<syllabic>middle</syllabic>					<text font-family="Times New Roman" font-size="12.000010" font-weight="normal" font-style="normal" xml:lang="la">di</text>				</lyric>			</note>		</measure>		<!--==========================[3,12]=============================-->		<measure number="12" width="95">			<note>				<pitch>					<step>E</step>					<octave>3</octave>				</pitch>				<duration>26880</duration>				<voice>1</voice>				<type>whole</type>				<stem>none</stem>				<lyric number="1" justify="center" default-y="-78.24">					<syllabic>end</syllabic>					<text font-family="Times New Roman" font-size="12.000010" font-weight="normal" font-style="normal" xml:lang="la">um</text>				</lyric>			</note>		</measure>		<!--==========================[3,13]=============================-->		<measure number="13" width="217">			<note>				<pitch>					<step>A</step>					<octave>3</octave>				</pitch>				<duration>6720</duration>				<voice>1</voice>				<type>quarter</type>				<stem default-y="9.12">up</stem>				<lyric number="1" justify="center" default-y="-78.24">					<syllabic>begin</syllabic>					<text font-family="Times New Roman" font-size="12.000010" font-weight="normal" font-style="normal" xml:lang="la">con</text>				</lyric>			</note>			<note>				<pitch>					<step>A</step>					<octave>3</octave>				</pitch>				<duration>6720</duration>				<voice>1</voice>				<type>quarter</type>				<stem default-y="9.12">up</stem>				<lyric number="1" justify="right" default-y="-78.24">					<syllabic>middle</syllabic>					<text font-family="Times New Roman" font-size="12.000010" font-weight="normal" font-style="normal" xml:lang="la">so</text>				</lyric>			</note>			<note>				<pitch>					<step>B</step>					<octave>3</octave>				</pitch>				<duration>6720</duration>				<voice>1</voice>				<type>quarter</type>				<stem default-y="-53.82">down</stem>				<lyric number="1" justify="center" default-y="-78.24">					<syllabic>middle</syllabic>					<text font-family="Times New Roman" font-size="12.000010" font-weight="normal" font-style="normal" xml:lang="la">la</text>				</lyric>			</note>			<note>				<pitch>					<step>B</step>					<octave>3</octave>				</pitch>				<duration>6720</duration>				<voice>1</voice>				<type>quarter</type>				<stem default-y="-53.82">down</stem>				<lyric number="1" justify="center" default-y="-78.24">					<syllabic>end</syllabic>					<text font-family="Times New Roman" font-size="12.000010" font-weight="normal" font-style="normal" xml:lang="la">tor</text>				</lyric>			</note>		</measure>		<!--==========================[3,14]=============================-->		<measure number="14" width="1145">			<print new-system="yes">				<staff-layout number="1">					<staff-distance>79.200</staff-distance>				</staff-layout>			</print>			<attributes>				<staff-details number="1" print-object="yes">				</staff-details>			</attributes>			<note>				<pitch>					<step>A</step>					<octave>3</octave>				</pitch>				<duration>6720</duration>				<voice>1</voice>				<type>quarter</type>				<stem default-y="9.12">up</stem>				<lyric number="1" justify="left" default-y="-78.82">					<syllabic>begin</syllabic>					<text font-family="Times New Roman" font-size="12.000010" font-weight="normal" font-style="normal" xml:lang="la">pau</text>				</lyric>			</note>			<note>				<pitch>					<step>A</step>					<octave>3</octave>				</pitch>				<duration>6720</duration>				<voice>1</voice>				<type>quarter</type>				<stem default-y="9.12">up</stem>				<lyric number="1" justify="center" default-y="-78.82">					<syllabic>middle</syllabic>					<text font-family="Times New Roman" font-size="12.000010" font-weight="normal" font-style="normal" xml:lang="la">pe</text>				</lyric>			</note>			<note>				<pitch>					<step>G</step>					<octave>3</octave>				</pitch>				<duration>6720</duration>				<voice>1</voice>				<type>quarter</type>				<stem default-y="4.41">up</stem>				<lyric number="1" justify="center" default-y="-78.82">					<syllabic>middle</syllabic>					<text font-family="Times New Roman" font-size="12.000010" font-weight="normal" font-style="normal" xml:lang="la">rumtri</text>				</lyric>			</note>			<note>				<pitch>					<step>G</step>					<octave>3</octave>				</pitch>				<duration>6720</duration>				<voice>1</voice>				<type>quarter</type>				<stem default-y="4.41">up</stem>			</note>			<note>				<pitch>					<step>G</step>					<octave>3</octave>				</pitch>				<duration>6720</duration>				<voice>1</voice>				<type>quarter</type>				<stem default-y="4.41">up</stem>				<lyric number="1" justify="left" default-y="-78.82">					<syllabic>middle</syllabic>					<text font-family="Times New Roman" font-size="12.000010" font-weight="normal" font-style="normal" xml:lang="la">bu</text>				</lyric>			</note>			<note>				<pitch>					<step>G</step>					<octave>3</octave>				</pitch>				<duration>6720</duration>				<voice>1</voice>				<type>quarter</type>				<stem default-y="4.41">up</stem>				<lyric number="1" justify="right" default-y="-78.82">					<syllabic>end</syllabic>					<text font-family="Times New Roman" font-size="12.000010" font-weight="normal" font-style="normal" xml:lang="la">tor</text>				</lyric>			</note>			<note>				<pitch>					<step>A</step>					<octave>3</octave>				</pitch>				<duration>6720</duration>				<voice>1</voice>				<type>quarter</type>				<stem default-y="9.12">up</stem>				<lyric number="1" justify="left" default-y="-78.82">					<syllabic>begin</syllabic>					<text font-family="Times New Roman" font-size="12.000010" font-weight="normal" font-style="normal" xml:lang="la">at</text>				</lyric>			</note>			<note>				<pitch>					<step>A</step>					<octave>3</octave>				</pitch>				<duration>6720</duration>				<voice>1</voice>				<type>quarter</type>				<stem default-y="9.12">up</stem>				<lyric number="1" justify="center" default-y="-78.82">					<syllabic>end</syllabic>					<text font-family="Times New Roman" font-size="12.000010" font-weight="normal" font-style="normal" xml:lang="la">que</text>				</lyric>			</note>			<note>				<pitch>					<step>G</step>					<octave>3</octave>				</pitch>				<duration>6720</duration>				<voice>1</voice>				<type>quarter</type>				<stem default-y="4.41">up</stem>				<lyric number="1" justify="left" default-y="-78.82">					<syllabic>begin</syllabic>					<text font-family="Times New Roman" font-size="12.000010" font-weight="normal" font-style="normal" xml:lang="la">mu</text>				</lyric>			</note>			<note>				<pitch>					<step>F</step>					<octave>3</octave>				</pitch>				<duration>6720</duration>				<voice>1</voice>				<type>quarter</type>				<stem default-y="-0.29">up</stem>				<lyric number="1" justify="center" default-y="-78.82">					<syllabic>middle</syllabic>					<text font-family="Times New Roman" font-size="12.000010" font-weight="normal" font-style="normal" xml:lang="la">ne</text>				</lyric>			</note>			<note>				<pitch>					<step>E</step>					<octave>3</octave>				</pitch>				<duration>6720</duration>				<voice>1</voice>				<type>quarter</type>				<stem default-y="-5.59">up</stem>				<lyric number="1" justify="right" default-y="-78.82">					<syllabic>end</syllabic>					<text font-family="Times New Roman" font-size="12.000010" font-weight="normal" font-style="normal" xml:lang="la">rum</text>				</lyric>			</note>			<note>				<pitch>					<step>E</step>					<octave>3</octave>				</pitch>				<duration>6720</duration>				<voice>1</voice>				<type>quarter</type>				<stem default-y="-5.59">up</stem>				<lyric number="1" justify="center" default-y="-78.82">					<syllabic>begin</syllabic>					<text font-family="Times New Roman" font-size="12.000010" font-weight="normal" font-style="normal" xml:lang="la">hu</text>				</lyric>			</note>			<note>				<pitch>					<step>D</step>					<octave>3</octave>				</pitch>				<duration>6720</duration>				<voice>1</voice>				<type>quarter</type>				<stem default-y="-10.29">up</stem>				<lyric number="1" justify="left" default-y="-78.82">					<syllabic>middle</syllabic>					<text font-family="Times New Roman" font-size="12.000010" font-weight="normal" font-style="normal" xml:lang="la">ma</text>				</lyric>			</note>			<note>				<pitch>					<step>D</step>					<octave>3</octave>				</pitch>				<duration>6720</duration>				<voice>1</voice>				<type>quarter</type>				<stem default-y="-10.29">up</stem>				<lyric number="1" justify="right" default-y="-78.82">					<syllabic>end</syllabic>					<text font-family="Times New Roman" font-size="12.000010" font-weight="normal" font-style="normal" xml:lang="la">na</text>				</lyric>			</note>			<note>				<pitch>					<step>G</step>					<octave>3</octave>				</pitch>				<duration>6720</duration>				<voice>1</voice>				<type>quarter</type>				<stem default-y="4.41">up</stem>				<lyric number="1" justify="center" default-y="-78.82">					<syllabic>single</syllabic>					<text font-family="Times New Roman" font-size="12.000010" font-weight="normal" font-style="normal" xml:lang="la">pro</text>				</lyric>			</note>			<note>				<pitch>					<step>G</step>					<octave>3</octave>				</pitch>				<duration>6720</duration>				<voice>1</voice>				<type>quarter</type>				<stem default-y="4.41">up</stem>				<lyric number="1" justify="center" default-y="-78.82">					<syllabic>begin</syllabic>					<text font-family="Times New Roman" font-size="12.000010" font-weight="normal" font-style="normal" xml:lang="la">sa</text>				</lyric>			</note>			<note>				<pitch>					<step>A</step>					<octave>3</octave>				</pitch>				<duration>6720</duration>				<voice>1</voice>				<type>quarter</type>				<stem default-y="9.12">up</stem>				<lyric number="1" justify="center" default-y="-78.82">					<syllabic>middle</syllabic>					<text font-family="Times New Roman" font-size="12.000010" font-weight="normal" font-style="normal" xml:lang="la">lu</text>				</lyric>			</note>			<note>				<pitch>					<step>G</step>					<octave>3</octave>				</pitch>				<duration>6720</duration>				<voice>1</voice>				<type>quarter</type>				<stem default-y="4.41">up</stem>			</note>			<note>				<pitch>					<step>F</step>					<octave>3</octave>				</pitch>				<duration>6720</duration>				<voice>1</voice>				<type>quarter</type>				<stem default-y="-0.29">up</stem>			</note>			<note>				<pitch>					<step>E</step>					<octave>3</octave>				</pitch>				<duration>6720</duration>				<voice>1</voice>				<type>quarter</type>				<stem default-y="-5.59">up</stem>			</note>			<note>				<pitch>					<step>D</step>					<octave>3</octave>				</pitch>				<duration>26880</duration>				<voice>1</voice>				<type>whole</type>				<stem>none</stem>				<lyric number="1" justify="center" default-y="-78.82">					<syllabic>end</syllabic>					<text font-family="Times New Roman" font-size="12.000010" font-weight="normal" font-style="normal" xml:lang="la">te.</text>				</lyric>			</note>		</measure>	</part></score-partwise>